/* XPM */
static char *result[] = {
/* columns rows colors chars-per-pixel */
"64 64 255 2 ",
"   c #027901",
".  c #097511",
"X  c #215935",
"o  c #086E3B",
"O  c #05773B",
"+  c #17713A",
"@  c #33742E",
"#  c #3B384F",
"$  c #3C3A51",
"%  c #443C57",
"&  c #533859",
"*  c #4E3E63",
"=  c #683D6E",
"-  c #005858",
";  c #2B5845",
":  c #2B5B46",
">  c #365647",
",  c #344A55",
"<  c #3C5753",
"1  c #007153",
"2  c #337A5A",
"3  c #085965",
"4  c #345771",
"5  c #057173",
"6  c #43564A",
"7  c #44425A",
"8  c #45445A",
"9  c #45555B",
"0  c #446B50",
"q  c #4B4562",
"w  c #4C4C67",
"e  c #524266",
"r  c #53446A",
"t  c #584668",
"y  c #554B6C",
"u  c #54546C",
"i  c #5C4673",
"p  c #584C73",
"a  c #5C4B74",
"s  c #495471",
"d  c #555573",
"f  c #5B5475",
"g  c #5A5C75",
"h  c #5C5A79",
"j  c #64467B",
"k  c #644A78",
"l  c #644C7B",
"z  c #704C77",
"x  c #65547A",
"c  c #496861",
"v  c #546A68",
"b  c #5D6275",
"n  c #64687B",
"m  c #65717D",
"M  c #008501",
"N  c #008909",
"B  c #009405",
"V  c #00960A",
"C  c #00990C",
"Z  c #008C12",
"A  c #098915",
"S  c #168611",
"D  c #009C12",
"F  c #009D1C",
"G  c #268B17",
"H  c #00A20E",
"J  c #00A515",
"K  c #00A817",
"L  c #00A51A",
"P  c #00AA1B",
"I  c #008926",
"U  c #008B2B",
"Y  c #009326",
"T  c #00962B",
"R  c #008A32",
"E  c #019733",
"W  c #379B27",
"Q  c #24993D",
"!  c #00A621",
"~  c #00AD23",
"^  c #00AC2A",
"/  c #00B026",
"(  c #00B22A",
")  c #00AB34",
"_  c #02A638",
"`  c #00AD3B",
"'  c #00B532",
"]  c #01B935",
"[  c #05B939",
"{  c #15BC39",
"}  c #2EA930",
"|  c #2DAE32",
" . c #2CB738",
".. c #38B83B",
"X. c #419633",
"o. c #4CAE38",
"O. c #46B43A",
"+. c #32C03F",
"@. c #269E52",
"#. c #00AC42",
"$. c #00B144",
"%. c #00B34C",
"&. c #00BE4F",
"*. c #00A752",
"=. c #00B758",
"-. c #29BD5E",
";. c #30BD5E",
":. c #008E77",
">. c #00A46D",
",. c #00B866",
"<. c #00A878",
"1. c #00BB79",
"2. c #5AAA48",
"3. c #4FB241",
"4. c #58BB43",
"5. c #3CC343",
"6. c #00C265",
"7. c #00C77B",
"8. c #24C060",
"9. c #45C445",
"0. c #4BC647",
"q. c #55C84A",
"w. c #5BC94C",
"e. c #62C84E",
"r. c #64CD51",
"t. c #6ACA50",
"y. c #67D355",
"u. c #0A7482",
"i. c #2B7089",
"p. c #4A5E81",
"a. c #674D80",
"s. c #694E82",
"d. c #784581",
"f. c #6C5085",
"g. c #6B5887",
"h. c #72558A",
"j. c #725B8F",
"k. c #755C91",
"l. c #7A5D96",
"z. c #526B8D",
"x. c #6A6987",
"c. c #78678D",
"v. c #697483",
"b. c #6E6A91",
"n. c #786896",
"m. c #7C639A",
"M. c #6D7592",
"N. c #787599",
"B. c #7D70A1",
"V. c #865D92",
"C. c #876797",
"Z. c #84749C",
"A. c #826CA5",
"S. c #846DA8",
"D. c #8776A7",
"F. c #847BAC",
"G. c #9275AE",
"H. c #8C76B0",
"J. c #8D7BB4",
"K. c #937CB8",
"L. c #977FC0",
"P. c #008586",
"I. c #1C8F99",
"U. c #009590",
"Y. c #00A888",
"T. c #00BC86",
"R. c #00AA94",
"E. c #00B699",
"W. c #00B8A7",
"Q. c #00ADB5",
"!. c #4E8CAD",
"~. c #698EA3",
"^. c #01C788",
"/. c #00C595",
"(. c #00CD9B",
"). c #00D29D",
"_. c #00C8A3",
"`. c #00D3AB",
"'. c #00C6B6",
"]. c #00D8B4",
"[. c #3DDBA8",
"{. c #07E2B1",
"}. c #40DFB4",
"|. c #4CE2B6",
" X c #08B5C1",
".X c #5E9DC4",
"XX c #729CC9",
"oX c #52A5C9",
"OX c #73A5CB",
"+X c #00DEC8",
"@X c #00E7CC",
"#X c #00EFD2",
"$X c #30EEC9",
"%X c #4EE8C4",
"&X c #66E7DF",
"*X c #64F6E5",
"=X c #74F0E4",
"-X c #868F9D",
";X c #9089AB",
":X c #8994A3",
">X c #8C85B6",
",X c #9384BD",
"<X c #9388B9",
"1X c #9895B5",
"2X c #A696B9",
"3X c #9DA5B9",
"4X c #AAA9BB",
"5X c #A4B1BE",
"6X c #9787C1",
"7X c #9A8BC4",
"8X c #9D8DC9",
"9X c #9895C6",
"0X c #A68BC7",
"qX c #A294CB",
"wX c #B499C4",
"eX c #A596D4",
"rX c #AA95D6",
"tX c #A699D6",
"yX c #A89BD5",
"uX c #A798D8",
"iX c #AB9CDB",
"pX c #B698DC",
"aX c #93B6C9",
"sX c #AAAAC7",
"dX c #AAB4C5",
"fX c #B2B6CC",
"gX c #ADA3D8",
"hX c #AEA9DA",
"jX c #B1A6D8",
"kX c #B1ACDC",
"lX c #ADB0DD",
"zX c #B4B4D6",
"xX c #BBBDDC",
"cX c #AF9FE0",
"vX c #B997E1",
"bX c #AEA2E1",
"nX c #B1A4E2",
"mX c #B6ADE3",
"MX c #ABB2E3",
"NX c #BBB8E3",
"BX c #C2B0E5",
"VX c #92D2D6",
"CX c #BEC3DE",
"ZX c #A7D0D3",
"AX c #9EE6D3",
"SX c #ADE8C9",
"DX c #B8E8C9",
"FX c #BCC6E3",
"GX c #B4D9F0",
"HX c #B7EBED",
"JX c #C0CBDC",
"KX c #C3C9E4",
"LX c #CAD1E7",
"PX c #C6E2EA",
"IX c #C7F9F7",
/* pixels */
"J J J J J J J J J J J J J J L K J J K K K J J J K J J J J ( 9.5./ J J P K K J J J J J J J J J J J J K P K K J / .. .~ ^  ...( P ",
"J J J J J J J L J J L J J J J J J K / ( P J H K ~ ~ K H P ' 0.+./ J ~ / P J J J J J J L J J J J H J ~ ( ( / K ~ | | ! ~ | | ~ K ",
"J J J J L J J J J J J J J J J J J ~ { { ( H H / { ] ~ P ' q.e. .~ ~ ] { / J J J J J J J J J J J H ~ ] 9.0.] ~ C Z Z D J Z Z D J ",
"L J J J J J J J L J J J J J J K ~ ' O.} ~ J ~ ] 0.9.' ' 0.y.r.5.' ' ..| P J H J J J J J L J J J ~ ] q.t.w.] ~ C M M C C M M V J ",
"J J J J J J J L J J J J J J H / ] O.W Z C ~ [ q.e.q.9.9.w.t.r.q.9...W Z D K J J J J L J J J J ~ [ q.r.q.] ~ K D B C D J C V J J ",
"J J J J J J J J J J J J J J J ~ | o.Z M B P  .4.e.y.y.w.3.4.w.r.4.W N M V K K J J J J J J J J ~ { 0.9.] P J H K K J K J J K J J ",
"J J J J J J L J J J J J F L L R > 9 8 9 9 9 9 0 2.e.y.3.W W O.q.X.N N V J K K J J J J J J J J P ~ ( ^ P J J J J K K J K K K J J ",
"J J J J J J J J J J J L Y I U o c x.b b x.v.m v 0 o.3.W   S W W Z M C K J J J J J J J J J J J J J H J J J J J J J J J J J J J J ",
"J J H J J J J J J J J Y o ; ; c -X3X1X>X3XdXdX:Xc @ @ .   . . Z V V J K J J J J J J J L J J J J J J J J J J J J J J J J L J J J ",
"K K / ~ K J J J J L Y O c b g M.sXNXmXgXsXfXfX1Xx > X . . . . . D K K J J J J J J J J J J J J L J J J J J J J J J J J J J J L J ",
"K / { { ~ J J J J Y o c -X3X1X<XgXmXnXqXJ.D.Z.n.g.y , ; , ; ; + Y P K J J J J L J L J J J L J J J J J J J L J L J J J J J J K J ",
"P / { { / J J F T O c -XfXKXNXuXeXuXuX7XA.h.k l k i * * , * w < O U U Y L J J J J J J J J J J J J J J J J K J J J J J J J J J J ",
"J P / ~ K J J Y o c -XZXLXKXNXuXeXeXeXeX6XS.s.j j l k a a l a y < : : o Y K L J J J J J J J J J J J J J J J L J J J J J L J J J ",
"J J J J J J J I ; b 2XKXKXzXgXeXtXeXeXyXuX8XS.k.k.m.m.c.f.s.s.l y q q < O U U U U U U I U Y D J J J J J J J J J J J J J J J J J ",
"J J J J J J J U ; g 1XmXmXgXtXeXeXeXtXtXiXeX7X6X6X7X6XH.n.s.s.s.l a f y < : ; : : ; ; ; ; O Y D J J J J J J J J J L J J J J L J ",
"J J J J J F Y O c b.,XuXuXeXeXtXeXeXeXeXeXuXiXcXcXnXcX8Xm.j l f.f.f.f.k 7 , w b x.v.v.v.v.v Q E L J J J L J J J J J J J J J J J ",
"J J J J L Y o c N.,XeXeXeXeXeXuXuXeXuXeXeXyXiXiXiXnXnX8Xm.s.j s.f.f.f.i $ w n.1X4X4X5XdX5X:Xv 2 E J J J L J J J J K J J J J J J ",
"J J J K ^ R ; h ,XgXgXuXpXrXrXeXeXuXuXcXiXeX<XF.F.F.F.n.f i l f.f.l k y b N.9XgXhXdXdXfXfX1Xn 6 + T J J J J J J L J J J J K ~ ~ ",
"J J H / @.Q > h ,XpXnXuXrXrXrXeXeXuXuXcXiX<Xb.u u u u u q q l s.f.i e n :XsXhXqX;XZ.Z.D.Z.Z.g.y < + Y J J J J J J J J J J ~ ' ..",
"J H J ~ | X.> x K.pXcX9X.X.XqXpXpXqX>XF.B.N.g.g b m m m v.b f l s.r , b 9XKXmX6XB.k.k.j.j z s.a q ; T J J J L J J J J J J / 5.q.",
"J J J D A W 6 l L.vXvX.XQ.Q.OXvXpX<Xx.u s x.N.>X3X3X3X5X5X-Xb r j i % g <XmXnXqXK.,XK.S.g.j j k q : U J J J J J J J J H H / 5.w.",
"K K J V M I 1 5 I.XXpXOX'.]. XXX>XZ.x.u u b.,XgXjXfX4XfXfX1Xn q e y f b.,XuXiXtXuXiXuX8XS.k.f.l w < O F L J J J J J J J J / 5.q.",
"J K J J V T :.Y.E.Q.XXMXVX#X].U.5 c.-X1X>X,XeXqX;XZ.Z.D.D.n.x r q d N.6XeXeXuXuXiXiXiXyX8XH.k.a.i y < 1 Y L J L J J J H J / 5.q.",
"J J J J %.,.(.].].Q. XVXAX%X_.:.3 N.sXFXMXiXuX6XA.k.j.h.l k j r 7 g ,XcXgXeXeXuXiXiXiXnXcX8Xm.s.a.l 8 : U K J J J J J H J P | ..",
"J J J P ^./.@X*X*X@X_._.7.8.Y.3 z.<XjXmXhXiXuXqX,X,XJ.S.g.j j r , f ,XnXbXeXeXuXuXuXuXnXgX8Xm.s.l k w > U J J J J J J K K D Z A ",
"J J J J ^./.}.SXSX{.^.,.~ ) 0 y H.gXiXrXeXeXuXtXuXiXiX8XA.m.k.g.y f N.,XeXiXgXqX<XF.F.F.F.n.l i l l q : U J J L J J J K K D M   ",
"L J J J %.%.=.8.8.=.%.^ J T > f >XcXcXeXeXeXeXtXtXiXiXeX7X7X6XH.g.y p b.6XcXcX6Xb.s u d d w q w l a w : R J K J J J J K J H C V ",
"J J J J J J J J K P ~ ^ Y O c N.7XiXcXuXtXtXeXeXuXeXeXeXuXiXiX8Xm.e $ d >XuX9Xn.b u b v n v.m n f y 8 : U K J J J J J L J K K K ",
"J J J J J J J J J / { { o < b.7XuXuXiXuXtXtXeXeXeXeXtXtXtXbXgX8Xm.* # g >X9Xb.h n.>X3X3X3X5X5X:Xn 7 $ : I J J J K L J J J J K K ",
"J J L J J J J J J / { Q > d B.6XL.J.K.<XeXyXuXeXeXeXeXtXhXhXqXH.k.i q f B.B.v.M.<XmXNXCXfXfXfX;Xh % 7 < O F K J J J J J J J J J ",
"J J J J L J J J H P / R > w h.m.l.h.j.A.7XiXiXtXeXeXeXhXxXsX>Xh.s.l l p d v.:XsXyXnXmXsX;XZ.Z.m.x a a u < 1 Y J J J L J J J J J ",
"L J J J J J J J J J J U ; w g.Z.F.N.n.m.H.,XqXtXtXtXgXzXfX1Xc.j j f.f.r $ u 3XNXmXuXrX7XA.j.j.c.m.k.f.i q < O T ! J J J J J J J ",
"J J J J J J J J J J J U : g -XZXZXZX9XS.l.B.6XuXuXhXxXfX;Xc.l l s.f.f.r % g 1XmXnXuXeX8X6XJ.J.6X6XJ.k.j k y < 1 A K J J J J J J ",
"J J J J H J J J J J J I ; n sXPXIXHXFX7XS.S.6XeXuXkXNXsXn.j j s.s.s.a a g b.7XuXbXuXeXeXuXuXuXgXuX8XS.k.j i 8 : I J J J J J K J ",
"J J J J J J J J J J J U ; m ZXIXIXPXKXzXqX6X8XuXtXgXhX9Xm.j j f.s.a e d B.7XeXuXuXuXtXtXuXiXyXyXiXuXqXH.j.i 8 : Y K J J J J J J ",
"J J J K P ~ K J J J J I > m ZXIXPXxXxXfX9X6XqXuXiXuX7XH.j.l l f.f.r 7 w B.6X6XJ.J.6XqXiXyXuXtXtXuXuXuXqX>Xc.u < + E ! J J J J J ",
"J H H / [ [ / J J J J U : m AXIXFXjXiX1XM.b.>XgXgX8XS.j.s.s.s.f.s.i , w g.m.m.j.h.A.7XgXtXeXeXeXtXeXuXkXzX1Xc.y 9 0 E J J J J J ",
"J J P ] q.0.( J H J J T 1 P.'.&XMXvXvXJ.u d J.iXrXH.k.j l f.f.l i r p a.g.n.n.N.C.Z.J.<XqXtXuXuXuXtXkXkXfX2Xn.i 7 0 E J J J J J ",
"K / ] q.r.9.~ J J J J _ >.Y.(.'.OXpXvXF.s d J.qXH.k.s.j l f.z k q p n.J.,X<XqX5XdX1XB.B.6XuXuXuXeXhXxXfX1Xn.h.a 8 0 E J J J J J ",
"P ( 9.t.4.| L J H ~ ` ,.).`.'.'. XXX6Xn.w w b.N.g.e e a s.f.a y g M.sXMXnXgXzXLXFXsXS.m.,XuXiXiXiXhXfX1Xc.j j l q 6 U J J J J J ",
"P ( 0.4.X.Z C K K ` ,.).#X*X*X@X'.R.4 u 8 8 9 u q $ , r l i r g -XZXGXGXMXiXgXkXkXyX<X,X8XuXrXgXyXqXJ.c.l a.l a q > O H K J K J ",
"K /  .W N M V K K _ ,./.|.DXDX$X].U.- 8 t b g g g h h f p * % x.dXIXIXHXFXkXkXkXkXjXkXkXzXyX7X,X>XD.h.j l f.s.k q ; I K K H J K ",
"J F Z N B V J J J ~ ` =.=.;.;.^.).<.- t m.J.>XF.F.>X>Xn.d % * Z.ZXIXIXPXCXCXxXxXxXxXCXKXCXsXH.k.h f l j s.s.f.j q 1 E L J J K J ",
"J V M M C K K J J J J J K K J _ <.:.5 Z.0XiXiXuXeXcXiX6Xb.e * ~.AXIXJX2X2X4XsXfXfXCXCXKXCXsXn.* # 7 a s.h.s.s.= & 1 *.#.$.) K J ",
"J J V C J J K J J J J J J J J Y 2 :.:XsXgXiXiXiXiXcXiXuX,Xc.t ~.AXHX2Xk.z m n.;XqXlXkXkXkX7XV.* # % i f.s.s.s.= * 1 <.^.7.,.) L ",
"J K K K J J J J J J J J J F Y + 6 z 1XfXzXhXjXhXkXkXmXNXnX>Xf n OXaX!.5 3 ; r C.0XkXbXiXpX0XG.h.i * t k d.d.d.j 4 5 <./.`._.,.%.",
"J J K K J J J J J J J J J Y X , & z C.1XfXBXFXCXCXCXKXKXmX6Xj.f v 2 U.Y.Y.5 4 m.wXCXhXrXrXrX0XK.h.y q t i z f.g P.<.=.,.].@X(.T.",
"J J L J J J J J J J J J J T 1 3 u.p.k V.2XLXLXzXsX4X4XwX0XG.k.= & - U.(.(.R.P.M.2XwXwX>X.XoX.X!.!.4 7 7 4 i.u.P.R.7.) ' ^.|.(.T.",
"J J J J J J J J J J J J J _ >.R.R.:.4 x <XBXNXqXN.x.c.Z.C.l.f.= & - Y.`.).(.E.U.M.C.C.z.R.W.'.W.R.:., 3 :.R.R.R./.1.) J $.=.=.%.",
"J J J J J J J J J J J ~ ` ,._.`.^.<.5 5 !.oXoXz.d q 4 i.i.p.f.j 4 5 E.].].`._.R.u.p.p.U.W.`.^.^.^.<.5 5 E.].].'._.1.#.J J J J J ",
"J J J J J J J J J J J ` ,.).#X{.,.%.>.Y.R.W.W.U.s 4 5 R.R.P.p.s P.E.@XAX=X@X].E.R.U.U.E.+X].6.=.#.*.<.E.@X*X*X@X`.<.#.J J J J J ",
"~ ~ J J H J J J J J L ` ,.(.|.^.) _ 1.(._.].].W.U.P.<.7.^.Y.P.P.<.(.{.SXDX%X`.T././.^.^.}.[.$.o.Z R ^.].%XSXSX}./.=.) H J J J J ",
"..] ~ J H J J J J J J ~ ` %.=.$.J _ 1.`.@X*X*X@XQ.Y.=.#.$.=.Y.Y.,.%.=.-.8.7.(././.^.=.%.=.$.Z A N _ 1.`.^.8.-.=.$.) P J H J J J ",
"q.5.~ K ~ / P J J J J J K J K J J ) =./.[.SXSX%X].1.#.J J _ ,.,.) J J J J $.7.T.E.1.$.K J C M M D ` ,.1.$.J J J J K ~ ~ K J P ~ ",
"q.../ ~ ] { / H J J J J J J K J J ~ _ $.=.-.-.^._.^.` J J ~ ) ) K J J H J ^ &.6.T.1.$.J J D V C D ^ ` ` ~ K J H H ~ { ' ~ ~ ]  .",
"q.5.] ' ..| P J J J J J J J J K ~ ^ ~ ~ ^ ^ ^ 6.^.1.` J J J ! L J J J J J ] 5.6.1.1.` J J K K K J K ! ~ K J J K / ] 0.9.' ] 9.w.",
"w.q.0.O.W Z D J J J J J J J J ~ { { ~ J H J J J J J L J J J J L J J J J J ( 0.9.^ H H J J J K K J K J J J J J ~ ] 0.r.q.9.9.w.r.",
"r.e.4.W N M V J K J J J J J J ~ { { ~ J J J J J J J J J J J J J J J J J J P | | ~ J J J J J J J J J J J J H H L | 4.r.y.r.e.O.O.",
"w.4.W Z N B J J K J J J J J J K ~ / P J J J J J J L J J L K J J J J J K K D Z Z D J K J J K J J K J J J J J J C Z W 4.y.y.4.W G ",
"O.W N M V K P J J J J J J J J J J J J J J J J J J J J J J J J J J J J P K C M M D K K J J J J J J J J J J ~ ( L M N W o.4.X..   ",
"S N V V J K K J L J J J J J J J J J J J J J J L J J L J J J J J J J J K J J B V D K K J J J J J J K J J J / { [ L M M G G S     ",
"  M D K K J J J J J J J K J J J J K J J J J J J J J J J J J J L J J J J J K K J K J J J J J K J J J J J J ~ | O.( L N   M       ",
"V V J K K J K L J J L J J J J J J J J J L J J J L J J J L J J J J J J J J K K K K J J J J J J J J J J J J D V W ..] J B M V V V ",
"D J J J K J J J J J J J J J J J J L J J J J J J J J K J J J J J L J J J J J J K L J J J J J J J J J J K J B M G o.;./ H C J D D "
};
