/* XPM */
static char *result[] = {
/* columns rows colors chars-per-pixel */
"64 64 175 2 ",
"   c #040404",
".  c #0B0B0B",
"X  c #0E0E10",
"o  c #131312",
"O  c #181715",
"+  c #181817",
"@  c #1C1C1B",
"#  c #21201F",
"$  c #232322",
"%  c #292927",
"&  c #2B2B2A",
"*  c #31312E",
"=  c #343433",
"-  c #3A3836",
";  c #3B3C3A",
":  c #006B00",
">  c #007300",
",  c #007C00",
"<  c #0D7A04",
"1  c #0F7F08",
"2  c #137D07",
"3  c #187E09",
"4  c #344E36",
"5  c #3A433A",
"6  c #374F38",
"7  c #2D5A35",
"8  c #345737",
"9  c #3A513B",
"0  c #116D2E",
"q  c #00772C",
"w  c #126E30",
"e  c #107031",
"r  c #2C7C3E",
"t  c #40403F",
"y  c #3D6B44",
"u  c #454544",
"i  c #494744",
"p  c #454B45",
"a  c #4A4A46",
"s  c #4D4D4B",
"d  c #504F4D",
"f  c #4D564B",
"g  c #53534E",
"h  c #525A4F",
"j  c #565452",
"k  c #585654",
"l  c #535A50",
"z  c #5B5A56",
"x  c #5E5D5A",
"c  c #605F5C",
"v  c #4B634C",
"b  c #466D49",
"n  c #45734B",
"m  c #576054",
"M  c #536B53",
"N  c #4C7653",
"B  c #5A725C",
"V  c #61615E",
"C  c #656564",
"Z  c #696763",
"A  c #666A64",
"S  c #6A6966",
"D  c #6C6C69",
"F  c #706E6C",
"G  c #657D63",
"H  c #687E64",
"J  c #73736E",
"K  c #737A6D",
"L  c #777670",
"P  c #787771",
"I  c #7B7973",
"U  c #008500",
"Y  c #008B03",
"T  c #00860D",
"R  c #008C0C",
"E  c #009305",
"W  c #009907",
"Q  c #00960A",
"!  c #00990C",
"~  c #018C12",
"^  c #0C8912",
"/  c #008F18",
"(  c #168611",
")  c #009114",
"_  c #009C12",
"`  c #00931E",
"'  c #009D19",
"]  c #13921A",
"[  c #258715",
"{  c #2D8716",
"}  c #238814",
"|  c #278E1A",
" . c #00A30E",
".. c #00A515",
"X. c #00A817",
"o. c #00A41B",
"O. c #00A91B",
"+. c #008025",
"@. c #008923",
"#. c #008E2E",
"$. c #009521",
"%. c #009925",
"&. c #00922D",
"*. c #009D2A",
"=. c #148137",
"-. c #009533",
";. c #1E9437",
":. c #309622",
">. c #329A25",
",. c #399926",
"<. c #329D28",
"1. c #3A9E2A",
"2. c #25873E",
"3. c #00A523",
"4. c #00AD23",
"5. c #00B126",
"6. c #00B22A",
"7. c #00B532",
"8. c #00B935",
"9. c #0DB937",
"0. c #02BC39",
"q. c #15BC39",
"w. c #1CBB39",
"e. c #23AD2F",
"r. c #28AD2F",
"t. c #3CA12C",
"y. c #2EAE32",
"u. c #30AD32",
"i. c #22B131",
"p. c #2EB134",
"a. c #25BC3A",
"s. c #2DBC3B",
"d. c #39B135",
"f. c #3CB439",
"g. c #34BE3E",
"h. c #3BBB3D",
"j. c #409927",
"k. c #409B28",
"l. c #43A12D",
"z. c #46AC35",
"x. c #41B339",
"c. c #4BB43C",
"v. c #53B63E",
"b. c #52B83F",
"n. c #2EC03F",
"m. c #32C03F",
"M. c #2D8E45",
"N. c #378548",
"B. c #309047",
"V. c #428C4D",
"C. c #59835B",
"Z. c #4FBA40",
"A. c #56B640",
"S. c #54BA42",
"D. c #5ABA43",
"F. c #37C341",
"G. c #3CC342",
"H. c #45C545",
"J. c #4AC546",
"K. c #46C847",
"L. c #46C648",
"P. c #4EC749",
"I. c #44C948",
"U. c #4DCA4B",
"Y. c #54C749",
"T. c #5AC74B",
"R. c #54CA4B",
"E. c #5BC94C",
"W. c #5BD052",
"Q. c #63C74E",
"!. c #64CA4F",
"~. c #64CD51",
"^. c #6ACA50",
"/. c #66D355",
"(. c #6BD456",
/* pixels */
"................o...O...............O.O.O.......O.......O.6.G.g.6.....O.X.......o.....................O.O.....4.h.s.4.4.g.h.4.o.",
"..........O.......................O.5.5.O... .O.4.O.X...O.7.P.g.4...5.6.O.................o..... ...4.6.6.4.X.4.r.e.4.4.e.y.4...",
"..............o................. .4.q.q.5... .O.9.7.4.O.8.Y.E.g.4.4.8.q.5....................... .4.8.H.J.0.4.! T ~ ' _ ~ ~ ' ..",
"o...................o.........O.5.7.x.u.O...4.0.P.H.7.8.H.(.~.G.8.7.d.y.4. ...................O.4.8.Y.^.Y.0.5.Q U Y ! ! Y U ! _ ",
"............................ .5.0.x.,.~ ! 4.0.P.~.T.H.H.E.~.~.R.L.f.:.~ ! X.X.................4.9.Y.^.Y.8.4.X._ E ! ! ..Q Q _ ..",
"..............................4.p.l.~ U E 4.y.D.Q././.T.b.S.T.W.D.1.T U Q X.X............. ...4.q.H.H.8.4. . ...X.X.X.X...O.....",
"............o.............X...' / ^ R W .._ ~ 1.S./.(.Z.:.<.c.D.k.~ Y ! ..X.......o...........4.4.6.6.O.........X.X.X...X.X.X...",
"..........................X.X.! U Y ! X.O.E U T 1.v.v.,.< 2 1.t.~ U ! X.........................................................",
".. .........................O._ Q Q ..X.X...E E T [ [ 2 > : 2 ~ R ! ..X...........o.........................o...........o.......",
"O.O.5.4.O.........o.....O.....X.X.X.......X.O.! U , , , , , , U ! O.X.......................................O...........O.......",
"O.5.q.w.4. ...........o.......X.O.X.O.......O...! E E E Q ! E ! ..O.X...........................................................",
"O.4.q.q.5... .................................X.....O...O...O.....................O.o...................................o.......",
"O.O.5.4.O.....................................O.O.O.X.X.O.O.O.O.X...............................................................",
"..................................O........................................... ............. .................o.................",
"..................................o.....................................................................o...................o.O.",
".......... ...O.4.O.X.........o.........o.....................O...........O.5.5.O.........O.5.5.O...............................",
".......... ...5.q.8.4... ...................o.....o................... ...5.q.q.5..... ...4.q.q.4...............O...............",
"......O.5.4.X.5.F.Y.0.4.X...............................o.....o...X...O.5.7.x.p.4... .X.5.7.x.y.4... .....o...............O.4.4.",
".... .4.q.0.O.5.g.~.R.8.4... .............O......................... .5.0.x.,.~ ! ..X.5.0.x.,.~ _ ..................o.....4.8.a.",
".. ...4.p.d.6.0.I.^.D.y.o.........X.......o...........................4.p.l.~ U E X.X.4.p.l.~ U E O...........o...........4.m.Y.",
"..X..._ ~ :.f.U.W.S.j.~ _ ..X.....................................X...' ) ^ R E ..X.X.' ~ ^ R ! ....O................. . .5.H.R.",
"..X.X.E U T t.S.v.1.T U Q X.X.....................o...............X.X.! U U _ O.X.X...Q U U _ O.X..................... ...5.G.R.",
"..X.X...W R ~ { { T R W ....O...o.....O...........................X... .Q Q ..O.X...X...Q Q ..O.X.........................6.m.E.",
"......X.X._ Y > , Y ! X...................o.............................X...............O.O........................... ...O.e.x.",
"......O.O...! E Y ! ..X.X...........o.3.o.#.y h l h l h g h f f h l h h l l l l z y -.3.3.o...........................X...' ) ( ",
"..............X.X.X. .............o.%.&.&.=.f l j j j j j s u t d k k j j j k z x M M.-.-.*.....o.......o.............O.X.! Y , ",
"..........X...O.X.X...............%.y y b v g j j j j z k t # $ u z z k z z z c V V B N N N.*...........O.....o.......O.....Q E ",
"..................O.5.4.O.......%.=.M m k k j j j g j c c -     ; c c z z c c V C C C C C B B.*.o.................o.......X...O.",
"......o.O....... .5.w.q.4.....$.r v j j j j j j j j j c V ;     ; c C z c c c C C C C C C S G V.3.3.........................X.X.",
"..................5.q.q.5. .#.2.v j j j j j j j j z x z i & + $ a C C x c C S S S C C C C S J H B.-.............o...............",
"..o...............O.5.5.O. .n M z j j j j j j k z c c i $ O * s c c V V V C S S C C C C C C J P C.C.............................",
".................. ....... .z z j j j j j j j z c k i & + & d c a u k C D x s s z C C C C S J I I L o.....O.o...................",
"............................j z j j j j j k z c c i $ o & j C s $ # u S D a $ $ s C S C C C J L L J ............................",
"........ ...................l j j j j j k z x V C i $ @ * u u * + @ = i i % O $ s C D C C D L L I K .... .......................",
"............................l j j j j k k z x c x k s = @ + X # - - $ o o + = s C C Z Z F L L L L K ............................",
".... .O.O.4.X...............l j j j j k z c x x x z s - @ X X = k a X     % j S F Z Z D L L L L I K  .O.6.6.O.O.O.4.............",
".... .4.9.0.5...............l j j j j j z x x C c i % $ = u p j C u .   $ d C F P J J J P P P I I K  .4.q.8.5.4.8.9.4...........",
"X...O.8.R.H.6...............f j j k k z x x V Z C -     u D F F A s % & j D F D J P P P J P I J F V 4.6.x.e.o.6.G.K.6...........",
"O.O.0.Y.~.J.6. .............p s k c c c C C C D Z ;   . u F L S C V z x D I L L P P P I P I I D m g 0.x.>.T ! 6.I.H.6...........",
"4.6.K.^.D.r.o...............; u d z c V C A C S C s $ $ s S D Z S F I I I L L L J P I I I P D x p 5 K.b.] U o.7.f.y.O...........",
"4.6.H.D.k.T _ ..X...........; ; t d x C S C C S C x d d x S J J F L I C.I P J I P I I I I D z p ; 5 H.H.3.' 8.x.:.~ ! ..X.......",
"O.4.p.t.~ U W O.O...........7 6 ; u j x x V C F F D J D F F I I I I I I I I I I I J D D Z x i ; 4 8 y.e.4.4.i.l.~ U W X.X.......",
"..' ~ T R E ....o...........@.q 4 ; i i p j S L P P I I L L I I I I I I I I I I I D k a s p ; 4 q +.~ ) _ ' ) ^ R W ....O.......",
"_ ! U U ! X.X...............o.$.0 9 5 - ; p x S D Z Z Z A S C Z Z D F F Z S C S D x i - - ; 6 e $.! U U ! ! Y U ! O.............",
".._ Q Q ..X.X...................$.q 6 - ; t u d d d s d f s s s s s s s s s s s a i t - - 4 q $...! ! ! ..! ! Q ..O.O...........",
"..X.X.X.X.....................o...$.w 7 7 4 ; t ; ; ; ; ; ; ; ; ; ; ; ; ; ; ; ; ; 5 6 7 7 w ` ......X.....X.X.X.............o...",
"....O.X.O.................o.........` @.@.e 9 ; ; ; - ; ; ; - ; ; ; ; ; ; ; ; ; ; 4 q @.@.$.o.......X.X...X.X.O.X...............",
"................o...................' 3.3.;.y t 5 t 5 5 5 5 5 5 t ; ; 5 5 5 5 5 5 7 @.' ' o.....5.5.O...................o.......",
"............................o.O..... .5.q.n.8.3.] ^ R W ..X.X.....................X....... ...4.q.q.5... .......................",
".. ...................o...............4.w.q.5.W U U ! X.X......................... .......X.5.8.x.p.O...........................",
"......................................O.5.5.O.W E Q ....O........................... .....5.0.x.,.~ _ ..X.................o.....",
"4.4.O... ............................... .......X.O.X...O.o.....O.o......... .O.4.4.O.....4.p.l.~ U W X.O.......................",
"a.8.4... ...................o.................O.X.X.O..................... . .5.w.w.5.X. .' ~ ^ R ! ............................",
"J.g.4.X.5.5.O................... .............................o...........X.4.6.s.q.O.X...Q U U ! X.X........... ...4.O.....4.5.",
"Y.m.4.4.8.q.5.............................................................4.0.n.6.5.O.X.....Q ! ..O.X......... ...4.9.8.4.O.7.g.",
"Y.G.8.6.d.p.O...............X.O.4.4.O.....................................6.K.K.6. . .....X...X...............O.5.0.P.H.7.8.H.E.",
"E.R.I.x.:.~ ! X.X.............4.q.w.4.............o..................... .6.J.H.6. . .......O.O.X.............4.8.P.~.Y.H.H.E.~.",
"~.!.D.1.T U ! ..O.............4.q.q.5. . .................O...............4.y.y.O......................... . .o.r.b.Q././.E.S.c.",
"E.S.,.T Y Q ..................O.5.4.O.................................X...' ~ ~ ' ..X........................._ ~ j.D./.(.D.>.( ",
"z.t.T U ! O.X.....................................O.o.......o.........O.X.! U U ! X.O.....................O.6.o.Y U <.A.S.1.3 > ",
"( T R ! ..X.X.........................................................O... .Q Q _ X.......................4.q.9.o.Y T } [ 1 : : ",
", Y ! X.O.......o...............o.......................o.................X.X...O.........................4.p.h.6.o.Y > , , , U ",
"E Q ..O.X...............O.............o.......O.......o...................X.X.X.O.....................X..._ ~ ,.f.8...E Y E ! ! ",
"......X.O.o.................................o.................................X...........o...........O...Q U | c.F.5. .W .._ ' "
};
