/* XPM */
static char *result[] = {
/* columns rows colors chars-per-pixel */
"64 64 237 2 ",
"   c #360A00",
".  c #381702",
"X  c #211E1F",
"o  c #2C2803",
"O  c #372505",
"+  c #273703",
"@  c #383207",
"#  c #292E10",
"$  c #382D18",
"%  c #283616",
"&  c #30312B",
"*  c #441F05",
"=  c #47260A",
"-  c #45240D",
";  c #462814",
":  c #462916",
">  c #4A2A15",
",  c #4E2F15",
"<  c #4D2C19",
"1  c #542D16",
"2  c #54311C",
"3  c #5A341A",
"4  c #6B3513",
"5  c #663719",
"6  c #6B3C1D",
"7  c #483325",
"8  c #5E3922",
"9  c #583927",
"0  c #443C38",
"q  c #633C24",
"w  c #6B3E22",
"e  c #633F28",
"r  c #075A02",
"t  c #0E520F",
"y  c #145D00",
"u  c #1F5508",
"i  c #1A4918",
"p  c #264301",
"a  c #284E10",
"s  c #076403",
"d  c #006B02",
"f  c #007300",
"g  c #007B00",
"h  c #007109",
"j  c #076313",
"k  c #33670A",
"l  c #144C26",
"z  c #30472F",
"x  c #5A4719",
"c  c #5B4538",
"v  c #654123",
"b  c #6D4225",
"n  c #674129",
"m  c #6C432B",
"M  c #71462B",
"N  c #7A4728",
"B  c #734A2F",
"V  c #68552D",
"C  c #694A39",
"Z  c #754C31",
"A  c #794D33",
"S  c #714F3B",
"D  c #7A5138",
"F  c #556226",
"G  c #423E41",
"H  c #2C4A5D",
"J  c #164B67",
"K  c #274D63",
"L  c #355C72",
"P  c #30637E",
"I  c #5A4F4E",
"U  c #595555",
"Y  c #695348",
"T  c #6B584F",
"R  c #74594A",
"E  c #7D6354",
"W  c #425A69",
"Q  c #5E6165",
"!  c #486678",
"~  c #6B7174",
"^  c #76797C",
"/  c #8A654F",
"(  c #8A6958",
")  c #966D56",
"_  c #837754",
"`  c #9C7155",
"'  c #94725D",
"]  c #957662",
"[  c #997863",
"{  c #9B7B68",
"}  c #A77F65",
"|  c #008201",
" . c #008B05",
".. c #009203",
"X. c #009A0E",
"o. c #009D12",
"O. c #00971C",
"+. c #00A515",
"@. c #00A817",
"#. c #00AA19",
"$. c #00AC22",
"%. c #00A429",
"&. c #928178",
"*. c #A9826A",
"=. c #AA8874",
"-. c #B08A74",
";. c #005F95",
":. c #006699",
">. c #39718F",
",. c #0066A4",
"<. c #006CA4",
"1. c #0173A5",
"2. c #0D7CA6",
"3. c #0074AB",
"4. c #007CAD",
"5. c #177CA7",
"6. c #0067B7",
"7. c #006CBA",
"8. c #0077B5",
"9. c #007CB3",
"0. c #0072BD",
"q. c #50768B",
"w. c #006EC3",
"e. c #0075C3",
"r. c #007BC3",
"t. c #0077C8",
"y. c #007CCA",
"u. c #1084AF",
"i. c #0081B3",
"p. c #0082BB",
"a. c #0289B9",
"s. c #3489B3",
"d. c #778893",
"f. c #488EB2",
"g. c #779EB2",
"h. c #0083C5",
"j. c #0089C4",
"k. c #0085CB",
"l. c #008CCE",
"z. c #0197C8",
"x. c #0093CF",
"c. c #1995C9",
"v. c #0086D0",
"b. c #008FD0",
"n. c #0094D2",
"m. c #009AD4",
"M. c #069FD7",
"N. c #199ED3",
"B. c #3198C7",
"V. c #259DD2",
"C. c #329DD1",
"Z. c #01A0D7",
"A. c #06A6D6",
"S. c #00A5DA",
"D. c #00AADC",
"F. c #11A1D7",
"G. c #19A3DA",
"H. c #00B1DF",
"J. c #21A1D7",
"K. c #24A4D9",
"L. c #29A5D9",
"P. c #32A6D1",
"I. c #33A6DA",
"U. c #38A5D8",
"Y. c #34A9DA",
"T. c #3BAADB",
"R. c #00B1E0",
"E. c #3CA9E1",
"W. c #4394C0",
"Q. c #42ACDB",
"!. c #4DAEDC",
"~. c #52A7D0",
"^. c #56B3DF",
"/. c #59B3DF",
"(. c #6CB3DA",
"). c #70B0D1",
"_. c #77B8DC",
"`. c #5BB6E2",
"'. c #6FBAE3",
"]. c #7EC1E4",
"[. c #9E8C84",
"{. c #A8958C",
"}. c #B49E92",
"|. c #B99F91",
" X c #BAA59A",
".X c #BBB09E",
"XX c #97A2AB",
"oX c #A6B1B8",
"OX c #C2AA9B",
"+X c #C7B3A7",
"@X c #CFB7AC",
"#X c #CDC4BF",
"$X c #D3C5BE",
"%X c #8CB5CC",
"&X c #87B9D2",
"*X c #A9BCCA",
"=X c #80BFE1",
"-X c #8DC2DF",
";X c #B8C4CC",
":X c #B9C9D5",
">X c #B6CEDB",
",X c #85C3E5",
"<X c #8DC5E5",
"1X c #89C6E9",
"2X c #97C9E6",
"3X c #95CCEA",
"4X c #9CCEEB",
"5X c #90D3EC",
"6X c #9DD0EC",
"7X c #87CBF3",
"8X c #A2CDE6",
"9X c #A5D3ED",
"0X c #ACD4ED",
"qX c #BEDCED",
"wX c #B7DBF0",
"eX c #BBDEF0",
"rX c #BEE5FD",
"tX c #D5CCC6",
"yX c #DCD1CB",
"uX c #C3CDD4",
"iX c #C4CED7",
"pX c #CBD0D2",
"aX c #C7D2D9",
"sX c #CAD4DA",
"dX c #E6D8CF",
"fX c #F2DCCF",
"gX c #E8DBD3",
"hX c #EFE2DA",
"jX c #F3E3D9",
"kX c #CBDEE9",
"lX c #D7E5EB",
"zX c #C4E2F3",
"xX c #CDE6F5",
"cX c #CBE9FB",
"vX c #D2EAF9",
"bX c #EDEFEF",
"nX c #E8EDF0",
/* pixels */
"o.o.$.$.@.#.$.$.@.+.+.+.+.+.+.@.#.X. .| | h z G I ^ :X3Xm.n.n.t.e.8.i.l.l.l.x.l.l.l.l.l.n.l.l.l.l.x.l.l.l.l.l.l.l.l.l.x.l.l.l.l.",
"%.+.+.+.+.+.+.+.+.+.+.+.+.+.+.+.X. .g d y p @ > w ( OX:X_.`.V.t.7.1.4.l.l.l.l.l.l.b.l.l.l.l.b.l.l.l.b.l.l.l.b.l.l.l.l.l.l.l.l.l.",
"%.+.+.+.+.+.o.+.+.+.+.+.+.@.@.o.| g f y p O = 2 w A / |.sX0XU.w.w.1.4.l.l.l.l.l.l.l.l.b.l.l.l.l.l.l.l.l.l.l.l.l.l.l.l.l.l.l.l.l.",
"%.+.+.+.@.+.+.+.+.+.+.+.+.@.+.o. .g f y p @ > 5 w A / }.uX<Xn.e.w.1.4.l.l.l.l.l.l.l.l.l.l.l.l.l.l.l.l.l.l.k.l.l.b.l.l.l.l.l.z.j.",
"%.+.+.+.+.+.+.+.+.+.+.+.+.@.+.+.X. .g d y a v w Z ) +X*X_.k.y.t.e.1.4.l.l.k.l.x.l.l.x.l.l.l.x.l.l.l.l.l.l.k.l.b.l.b.l.l.l.l.l.j.",
"%.+.+.+.+.+.+.+.+.+.+.+.+.+.+.@.@.o. .| g k V 5 w } jXnXE.6.6.t.t.3.i.l.x.l.l.l.l.l.l.l.l.l.l.l.l.l.l.m.T.Q.n.b.l.l.l.l.l.x.l.z.",
"%.+.+.+.+.+.+.@.+.+.+.+.+.+.+.@.@.@.+...| k V 6 w } jXvXV.6.6.y.t.3.4.l.x.l.l.l.n.l.x.l.l.l.l.l.l.k.l.T.9X9XQ.k.l.l.l.l.l.x.l.l.",
"%.+.+.+.@.@.+.+.+.#.+.+.+.+.+.@.@.@.o...g k x A ) OXpX=Xn.w.w.0.4.1.i.l.k.k.l.x.a.4.k.l.l.l.l.l.b.l.k.T.9X9XT.l.k.l.l.l.n.l.l.l.",
"%.+.+.+.@.@.@.@.#.#.@.@.+.+.+.@.@.o. .| g u x ) @XiX_.l.r.e.e.8.5.i.j.l.z.l.l.J.d.W i.x.l.l.l.l.l.l.l.m.Q.T.m.l.l.l.x.x.l.l.l.l.",
"%.@.@.+.X.X.+.@.o.X.o.+.#.#.@.@.o. .g d y k _ .XiX,Xl.7.7.t.r.3.p.k.k.x.A.a.V.%X&.7 W u.~.Y.n.l.l.l.l.l.l.k.l.n.b.l.k.k.k.k.l.l.",
"%.@.@.X. . .X.X. . .X.@.#.#.#.o. .g d r + F +XsX'.b.e.6.7.t.y.h.k.l.l.m.A.z.&XpX} 1 9 d.;X6XL.l.l.l.l.l.k.k.l.x.b.k.r.0.e.h.l.l.",
"%.+.o. .g g  . .f g X.+.o.X.o. .g f s r o S .XaX(.k.r.0.0.k.b.m.m.m.m.m.H.a.-XlX@X} [ OXsX6XL.l.l.l.l.l.l.l.k.k.k.k.r.r.0.r.k.l.",
"%.o. .g h f g f h | o.o. .g g g g h j i O 8 ( |.:X=Xb.0.7.k.m.R.H.H.H.D.m.m.Y.5XkXdXyXkX<XY.n.l.l.l.l.n.l.l.r.0.0.r.k.k.k.k.l.l.",
"O...g f f g f f f |  ...g f f d s r l & 7 - 5 } fXvXT.7.7.r.m.R.H.D.D.S.Z.Z.D.D.).*X;X&Xm.x.x.l.l.l.l.l.l.k.r.r.0.r.y.k.l.l.l.l.",
"h g f f f f f d f g | g f f f y p + i z 7 * 5 } fXvXQ.7.7.r.l.m.m.m.n.m.D.D.Z.z.i.u.i.j.x.l.l.l.l.l.l.l.l.l.k.k.h.k.k.l.l.l.l.l.",
"j d s y y r d d y s d f f g h u o o # % < 1 w *.gXzXI.e.7.0.k.l.m.m.m.Z.D.D.x.l.l.l.l.l.l.l.l.l.l.l.l.l.l.l.k.x.Y././.^.^.T.m.l.",
"l l + + + p i i p p y g g h j z $ . O @ x 6 b *.dXxXI.7.7.e.k.x.A.H.D.D.m.n.l.l.k.l.l.l.l.l.l.l.n.l.l.l.l.k.k.F.6XxXxXxXxX6XL.n.",
"z i O . . O % % O @ u d s r i % : = O = v 6 w } gXcXE.7.7.0.r.m.H.H.H.S.n.l.l.l.z.j.k.l.l.b.l.l.l.l.l.l.l.x.Y.].wXxXxXcXxX6XL.n.",
"% o O - = - o O O $ a t + + o o : > = , n b w *.dXcXE.0.7.7.0.m.G.A.m.n.b.l.l.x.l.l.l.l.l.l.l.l.l.l.l.l.k.Y.8XqX1X!.Q.`.^.T.m.l.",
"O . ; < < = O O > $ % % o O . O ; ; > 2 m D ) {.oX%Xc.7.7.7.e.x.m.z.l.x.b.l.l.b.l.l.l.k.k.l.l.l.l.l.b.k.j.Q.9X8Xf.3.9.v.k.k.k.l.",
": - > < < ; = > > : o o . - = - > < < 1 w [ +XoXf.5.<.e.e.0.h.l.x.l.k.l.l.l.l.l.l.l.k.l.k.l.l.l.l.n.n.k.k.m.Q.~.q.J :.t.k.r.k.l.",
"7 1 2 2 < > > 1 2 , = = > < < < 2 < > * 1 *.hX>Xs.:.;.e.t.r.k.l.l.l.l.l.l.l.l.l.k.n.I./.^.T.n.l.l.l.n.x.x.l.j.V.^ & J ,.6.e.k.l.",
"7 9 e q 2 ; > 9 b b m 3 2 > > 9 e q < * 3 *.hXzXW.,.,.r.t.r.k.x.n.l.l.x.l.l.l.k.k.F.4XxXxX4XL.l.l.l.b.l.l.k.k.V.~ - & K :.e.k.l.",
"7 3 m M q < > 2 m A D m 3 : ; 8 m m q e / }.uX1Xm.0.w.r.r.r.k.l.l.l.l.l.l.l.l.n.L.].wXxXxX4XL.k.k.l.l.n.T.!.P.f.U     G >.m.x.l.",
"7 9 w A Z 8 < 2 m D D M 2 : ; 3 m b m ) +X:X_.b.y.t.e.e.r.r.k.l.l.l.l.b.l.l.k.Y.9XwX1X!.Q.T.n.l.l.l.l.K.6X>Xd.U :     Y oX2XK.n.",
"9 q M D A n 2 2 n A A m 2 ; ; 2 m w N =.gXcXV.7.6.e.0.8.3.4.j.l.l.l.l.l.l.k.b.T.9X9XY.k.k.l.l.b.l.l.l.L.6XaX[.R R T E [.uX2XJ.n.",
"C m Z A A m 2 2 b A A m 2 ; : 2 m w b -.hXcXK.7.7.e.e.3.1.i.j.l.l.l.l.l.l.l.l.n.T.T.b.k.k.k.l.l.l.l.l.m.T.-XuX@XtXtXtXuX_.K.n.x.",
"S B M M Z m 8 8 n A A M 8 2 < 2 m 6 6 } fXvXE.7.7.e.e.1.4.l.x.l.l.l.b.l.l.l.b.l.k.k.l.l.k.b.l.l.l.l.l.l.l.m.3XzXeXzXzX<XA.l.l.l.",
"S m 8 8 m B M m B Z Z B M q 2 2 b 6 w } fXcXT.0.7.t.e.1.i.l.l.l.l.k.v.y.k.l.l.l.k.k.l.l.l.l.l.l.l.x.l.l.l.l.M.Q.Q.Q.Q.F.b.l.l.l.",
"S e 1 < 9 m Z Z A B Z B M q 2 > 3 A ' }.iX3Xn.7.6.w.e.8.i.l.l.l.l.h.<.3.r.k.l.n.m.m.m.m.m.n.x.l.l.k.k.l.l.l.l.l.l.l.l.l.l.l.l.l.",
"C e 2 > < q m A A Z Z M 8 < > = 5 ' .X>X(.l.t.0.7.t.y.h.j.l.l.l.l.3.H K <.h.k.n.S.R.H.H.H.S.n.k.k.l.l.l.l.l.l.l.l.l.l.b.l.l.l.b.",
"S M q < > 2 m Z A A Z n 2 ; < n / }.>X1Xb.6.7.r.l.n.n.l.l.b.l.l.i.P & G :.v.l.n.S.H.R.H.H.D.Z.m.m.m.m.m.n.l.l.b.l.l.l.l.x.l.l.l.",
"S Z m 8 < < e Z A Z Z n < = 3 ) +X:X'.n.e.6.7.j.U.m.x.l.l.l.l.z.q.7 . & ,.b.m.b.n.m.m.m.m.M.D.R.D.R.H.S.x.l.l.l.l.l.l.l.l.l.b.l.",
"S A A m q 8 m Z A D Z m 3 1 q -.gXcXI.7.7.7.7.x.F.l.l.l.l.j.P.).~     X J s.(.Y.n.k.l.l.l.n.S.R.R.R.R.S.m.k.i.4.j.l.l.b.l.l.l.l.",
"R Z A Z m m B Z Z A Z Z m 6 b -.hXrXG.6.6.7.7.M.M.l.l.l.b.J.4X;XE *   . & ~ :X4XK.l.l.l.k.x.n.m.m.m.m.m.l.i.! ! 3.k.k.b.l.l.l.l.",
"m b B Z A A A B m m M Z Z 6 5 } dXzXQ.7.7.7.0.z.J.l.l.l.l.L.6XuX[.R R R R [.uX6XK.l.l.x.l.l.l.l.l.l.l.k.9.q.Y Y P 3.h.k.l.b.l.l.",
"9 3 m Z A A A m q 8 n A A 6 6 *.yXzXE.7.7.7.0.x.J.x.l.l.l.n.T.,X:XtXtXtX$XuX&XT.n.b.l.l.l.l.l.l.l.l.l.i.! T Z Z Y L 3.k.l.l.l.l.",
"7 1 5 m Z A B 8 < 2 n M b N )  XiX1Xn.e.7.7.0.x.m.l.l.l.l.l.l.Z.2XzXqXzXzX3XZ.l.l.l.l.l.l.l.l.b.l.l.4.>.Y Z Z N N I :.e.k.l.b.l.",
"9 q w M N m q < ; 2 b b w ` @XiX(.l.e.0.0.0.r.l.n.l.l.l.l.l.l.b.F.T.Q.Q.Q.F.b.l.l.l.l.b.l.l.b.b.l.i.! T Z Z Z N N Y ;.t.k.l.l.l.",
"{ { { ) A 3 * . = = 5 Z ` OXaX7Xn.7.7.e.r.k.l.k.k.k.k.l.l.l.l.l.l.l.l.l.l.b.l.l.l.n.l.l.l.n.Y.W.u.P 9 b w w w 4 5 T f.M.n.l.l.l.",
"yXdXyX+X( 3 * = 1 5 6 ) @XaX].n.r.6.7.r.~.,XL.k.k.k.k.l.l.l.l.l.l.l.l.l.b.l.l.l.l.l.l.n.b.V.3X*X^ c 5 b M b b 4 w ( oX4XK.l.l.l.",
"eXzXcXsX X( R ( ] ' [ }.iX7Xn.7.7.0.r.l.1XeX1X!.Q././.T.n.l.l.l.l.l.l.x.l.l.l.l.l.b.l.l.b.V.3XaX}.] ' { { { { ' ] }.iX2XN.b.l.l.",
"E.Q.Q._.aXtXtXtXyXyXyX:X(.n.t.7.0.0.h.l.L.].wXxXxXxXxX4XL.k.l.l.l.l.l.l.x.l.l.l.l.l.l.l.b.n.Y.&XsXdXtXyXyXyXyXtXyXsX=XN.l.l.l.l.",
"n.l.l.M.3XzXzXzXzXzXzX8XB.,.6.0.e.r.l.k.k.F.6XxXvXxXxX4XL.l.k.b.l.l.l.l.l.l.l.b.x.l.l.l.b.b.b.M.3XzXzXqXqXzXzXzXzX<XM.b.l.x.l.l.",
"l.l.l.b.F.Q.Q.Q.Q.Q.Q.P.a.9.r.l.k.k.l.l.k.n.Y././././.T.n.l.l.l.l.l.b.l.l.l.l.l.l.l.l.l.l.l.n.n.G.T.T.U.U.U.C.C.C.n.l.l.x.l.l.l.",
"l.l.l.l.l.l.k.k.l.l.l.l.x.l.l.l.b.l.l.l.l.l.k.r.r.k.l.l.l.l.n.l.l.x.l.l.x.l.l.l.l.b.l.l.l.n.l.l.l.l.l.l.n.k.h.e.0.r.l.x.l.l.l.l.",
"l.b.l.l.b.l.l.l.l.l.l.l.l.l.l.l.l.l.l.b.l.k.r.7.7.r.k.l.b.l.l.l.l.l.l.l.l.l.b.l.l.l.l.l.l.l.l.l.l.l.x.l.l.l.k.k.k.k.l.l.l.l.l.z.",
"l.l.l.l.l.n.Q.Y.n.k.k.k.j.l.l.l.b.l.l.l.b.l.h.r.4.1.r.k.k.k.k.l.l.l.l.l.l.l.l.l.l.l.l.b.l.l.l.l.l.l.l.l.l.l.x.l.x.x.l.l.l.l.l.l.",
"l.l.l.l.k.T.9X9XY.k.k.l.k.l.l.l.b.l.l.x.l.l.k.c.d.W :.9.0.r.0.r.l.l.n.l.l.l.l.l.l.l.l.l.l.b.l.l.b.l.l.l.l.b.x.b.b.l.l.l.l.l.x.b.",
"l.l.b.k.l.Y.9XeX1X!.Q.T.n.l.l.l.l.l.l.l.l.n.U.%X~ 7 L 3.B.V.h.h.k.b.l.l.l.l.l.l.l.l.l.l.l.k.l.l.l.l.x.l.l.l.l.l.l.l.l.l.l.l.l.l.",
"l.b.l.l.l.n.I.].wXxXxX6XL.l.l.l.l.l.l.l.l.L.6XuX' 1 9 ^ ;X2XV.k.l.l.l.l.l.l.l.l.b.l.l.l.l.l.l.l.l.l.l.l.l.l.l.l.l.l.n.l.l.l.l.l.",
"l.l.l.l.l.k.k.F.4XxXxX4XL.l.k.l.l.l.b.l.l.L.6XaX|.' ] .XkX6XL.b.l.l.l.l.l.b.l.l.l.l.l.b.n.m.M.n.n.l.l.b.l.l.x.l.l.l.l.l.l.b.l.l.",
"l.l.l.l.l.l.k.b.I./.^.T.n.l.l.l.l.l.l.l.l.n.T.,XaXyXyXlX<XT.n.b.l.l.l.b.l.l.l.l.l.l.k.n.S.R.R.S.n.l.l.l.l.l.x.l.l.l.l.l.l.l.l.l.",
"l.l.b.l.l.l.l.l.l.k.v.l.l.l.l.l.l.l.x.l.l.l.l.Z.2XzX>X&Xx.l.l.l.l.l.l.l.l.l.n.m.m.n.m.Z.D.R.R.S.n.l.l.l.k.l.k.k.k.k.k.k.l.l.l.b.",
"l.l.l.l.l.l.l.l.k.k.y.r.l.l.l.l.l.l.l.l.l.l.l.b.N.T.s.a.l.l.l.l.l.l.l.l.l.n.S.H.R.D.R.D.M.m.m.n.b.b.l.l.l.l.l.k.l.k.l.l.l.l.l.l.",
"b.l.l.l.l.l.l.n.b.9.<.<.0.k.l.l.b.l.l.l.x.l.l.l.l.l.n.b.l.l.z.l.l.l.l.l.m.Z.D.R.R.H.R.S.n.k.b.l.j.h.l.j.l.x.T.^.^.^.^.T.n.l.l.l.",
"l.l.l.l.l.l.l.l.n.3.H K ,.t.v.b.l.l.l.l.l.l.b.b.l.l.l.l.l.l.l.l.b.l.l.n.S.D.Z.m.m.m.m.n.b.l.l.a.>.>.9.i.i.Y.6XxXcXxXxX6XL.l.k.l.",
"l.l.l.l.l.j.u.s.1.J $ 0 >.v.k.k.l.n.n.l.l.k.k.k.k.k.l.l.l.l.l.l.l.l.l.n.D.S.n.l.k.l.b.l.l.l.j.i.Q Y L :.1.s.2XcXxXxXxX6XL.l.b.l.",
"l.l.l.l.l.a.g.XXQ X . Y oX2Xn.r.k.l.b.l.l.k.k.k.l.l.l.l.n.l.l.l.l.l.l.n.n.n.n.l.k.l.l.l.l.b.l.u.Y M S L :.2.f.`.^.^.^.T.n.k.l.l.",
"l.l.z.l.k.c.&XsX{.R R [.uX<Xx.r.k.k.r.j.I./.^.^.^.T.n.l.l.l.l.l.l.l.l.l.l.l.l.l.l.l.l.b.n.j.i.P C 4 4 U f.s.a.k.l.k.k.k.l.b.l.l.",
"b.l.l.l.l.n.T.<XsX#XtXuX&XN.b.k.r.0.0.x.2XxXxXxXxX4XL.l.k.b.l.l.l.l.l.l.l.l.l.l.l.x.l.n.(.%X^ C q 5 4 ( *X8XV.k.k.h.k.j.l.l.l.l.",
"l.l.l.x.b.l.l.A.3XzXeX3XM.n.b.k.r.r.j./.0XxXxXxXxX4XL.k.l.l.l.l.l.b.l.l.l.l.l.l.l.l.l.n.`.:X}.' ' ' ]  XsX3XJ.l.l.l.l.l.l.l.l.l.",
"l.l.l.l.l.b.l.x.F.Q.Q.N.b.b.b.k.k.V.<X0X,X!.Q./.^.T.m.l.l.l.b.l.l.l.l.l.b.l.l.l.l.l.l.x.m.~.:XyXtXtXyXaX_.L.n.l.x.l.j.l.k.l.l.l.",
"l.l.l.b.l.l.l.b.n.n.n.n.b.b.b.k.k.!.zXzX'.n.n.n.m.n.l.l.l.l.l.l.l.x.l.l.l.b.l.l.l.l.l.l.x.Z.8XbXbXnXnXqX^.n.l.l.l.l.l.l.j.l.l.x."
};
