/* XPM */
static char *result[] = {
/* columns rows colors chars-per-pixel */
"64 64 236 2 ",
"   c #1D0B15",
".  c #361C00",
"X  c #391804",
"o  c #2B1817",
"O  c #1C3F1B",
"+  c #2C2703",
"@  c #322403",
"#  c #3B2303",
"$  c #312A05",
"%  c #3C2309",
"&  c #342909",
"*  c #2A3300",
"=  c #253A04",
"-  c #353603",
";  c #262E10",
":  c #3B2413",
">  c #253512",
",  c #2A3618",
"<  c #3D3216",
"1  c #431F0A",
"2  c #432905",
"3  c #46240D",
"4  c #49250D",
"5  c #46290E",
"6  c #542D0D",
"7  c #452913",
"8  c #452815",
"9  c #4A2A15",
"0  c #4D2C19",
"q  c #542C13",
"w  c #512D1A",
"e  c #46331C",
"r  c #54311C",
"t  c #5A3419",
"y  c #653719",
"u  c #64361A",
"i  c #693C1E",
"p  c #473224",
"a  c #4A3225",
"s  c #5B3620",
"d  c #5E3922",
"f  c #573B2A",
"g  c #4D3D32",
"h  c #623D24",
"j  c #6B3E22",
"k  c #663E28",
"l  c #0D5B00",
"z  c #135C00",
"x  c #1C5A06",
"c  c #194C17",
"v  c #0D5719",
"b  c #195F16",
"n  c #244201",
"m  c #224C00",
"M  c #21590C",
"N  c #274A1E",
"B  c #026502",
"V  c #0B6100",
"C  c #006C01",
"Z  c #006809",
"A  c #106103",
"S  c #007400",
"D  c #007C00",
"F  c #00730D",
"G  c #006F12",
"H  c #0D5227",
"J  c #44411A",
"K  c #564237",
"L  c #594539",
"P  c #6D4225",
"I  c #694427",
"U  c #664029",
"Y  c #6C442B",
"T  c #704327",
"R  c #71462C",
"E  c #734A2E",
"W  c #664837",
"Q  c #754B30",
"!  c #794D32",
"~  c #6C593D",
"^  c #7B5135",
"/  c #73513C",
"(  c #7D563A",
")  c #26495A",
"_  c #04456B",
"`  c #3A5A6B",
"'  c #39657B",
"]  c #5B4D46",
"[  c #53504C",
"{  c #6B5548",
"}  c #755A4A",
"|  c #645B55",
" . c #7C634D",
".. c #7A6557",
"X. c #435C6A",
"o. c #466577",
"O. c #506672",
"+. c #696969",
"@. c #797B7C",
"#. c #86664C",
"$. c #876653",
"%. c #8D6A53",
"&. c #8F6C59",
"*. c #8D7257",
"=. c #937759",
"-. c #94765C",
";. c #977A66",
":. c #8F7D73",
">. c #008200",
",. c #008C05",
"<. c #008F0A",
"1. c #009205",
"2. c #00960C",
"3. c #00990D",
"4. c #028914",
"5. c #009C11",
"6. c #009818",
"7. c #00A20D",
"8. c #00A516",
"9. c #00A817",
"0. c #00A51B",
"q. c #00AA19",
"w. c #009622",
"e. c #389926",
"r. c #00A326",
"t. c #00AE24",
"y. c #00A328",
"u. c #00A92D",
"i. c #00B229",
"p. c #00A635",
"a. c #02B735",
"s. c #15BC39",
"d. c #2EAE32",
"f. c #2AB939",
"g. c #42AE35",
"h. c #2DBD4B",
"j. c #46C646",
"k. c #9B8267",
"l. c #988376",
"z. c #A1896C",
"x. c #A48473",
"c. c #346D88",
"v. c #0077A5",
"b. c #007DAC",
"n. c #007AB5",
"m. c #486F84",
"M. c #007CC3",
"N. c #007CCB",
"B. c #347FD1",
"V. c #0F88B0",
"C. c #0085B8",
"Z. c #2984AC",
"A. c #5A8499",
"S. c #0083C5",
"D. c #038AC7",
"F. c #0085CB",
"G. c #008DCE",
"H. c #198FCE",
"J. c #0092CE",
"K. c #0386D1",
"L. c #008ED0",
"P. c #0094D1",
"I. c #009CD5",
"U. c #0B9AD5",
"Y. c #1A98D6",
"T. c #2E98CE",
"R. c #2A86D3",
"E. c #3B85D5",
"W. c #299BD3",
"Q. c #03A5D9",
"!. c #01A4DB",
"~. c #17A2D8",
"^. c #00B1DF",
"/. c #26A4D8",
"(. c #29A5D9",
"). c #3DA8D5",
"_. c #33A5D8",
"`. c #34AADA",
"'. c #3AAADB",
"]. c #00A5E0",
"[. c #00B1E0",
"{. c #4885D6",
"}. c #788ED8",
"|. c #6E91D9",
" X c #46A2CD",
".X c #5FA5CA",
"XX c #42ADDC",
"oX c #48A9DB",
"OX c #56B3DF",
"+X c #5AB3DF",
"@X c #70ADD3",
"#X c #5EA4E1",
"$X c #7AB9E2",
"%X c #7EC2E4",
"&X c #978E8C",
"*X c #AE9491",
"=X c #B49993",
"-X c #B8A797",
";X c #B9B09D",
":X c #B9ABA1",
">X c #C0ADA1",
",X c #C5B6A7",
"<X c #8193DC",
"1X c #87B6CF",
"2X c #B1B4CD",
"3X c #BCB6D6",
"4X c #8E9EE3",
"5X c #8BAFE3",
"6X c #94B2E7",
"7X c #BBBEEF",
"8X c #C3BAD8",
"9X c #B8C2C9",
"0X c #B3C5D1",
"qX c #8AC4E4",
"wX c #99CCE9",
"eX c #94D1EF",
"rX c #9DD0EB",
"tX c #A6D3EC",
"yX c #B3D9EE",
"uX c #BDC5F1",
"iX c #BADDF0",
"pX c #C9C8C7",
"aX c #D3CAC5",
"sX c #D8CCC7",
"dX c #DDD5CB",
"fX c #C6CED3",
"gX c #DBC5DC",
"hX c #C8D4D9",
"jX c #D3D6D9",
"kX c #E0DBCE",
"lX c #E3D8D3",
"zX c #C7CFF1",
"xX c #C3DEF2",
"cX c #D1E2EB",
"vX c #C4E2F3",
"bX c #CEE7F5",
/* pixels */
"p.y.y.y.y.y.y.y.y.y.y.y.y.y.y.y.r.r.r.a.h.h.a.r.r.r.y.y.y.y.y.y.y.y.y.y.y.y.y.y.r.r.r.r.r.y.r.y.y.y.y.y.y.y.y.y.y.y.y.y.y.y.y.p.",
"0.8.8.8.8.8.8.8.8.8.8.8.8.8.8.8.8.9.t.a.f.a.q.8.8.8.8.8.0.8.8.8.8.8.8.8.8.8.8.8.8.8.8.8.8.8.8.8.8.8.8.8.8.8.8.8.8.8.8.8.8.8.8.r.",
"8.8.8.8.8.8.8.8.8.8.8.8.8.8.8.8.8.t.a.f.a.t.9.8.8.8.8.8.8.8.8.8.8.8.8.0.0.8.8.8.8.8.8.8.8.8.7.8.8.8.8.8.0.8.8.8.8.8.8.8.8.8.8.8.",
"y.8.8.8.7.8.8.8.8.8.8.8.8.8.8.8.9.i.j.j.i.7.7.8.8.8.8.8.8.8.8.8.8.8.8.8.8.8.8.8.8.8.8.q.t.t.q.9.8.0.8.8.8.8.8.8.8.8.8.8.8.8.8.y.",
"y.8.8.8.8.7.8.8.8.8.8.8.8.8.8.8.8.i.j.j.t.7.7.8.8.8.8.8.8.8.8.8.8.8.8.8.8.8.8.8.8.7.8.t.s.s.t.7.8.8.8.0.8.8.8.8.8.8.8.8.8.8.8.y.",
"y.8.8.q.i.t.q.8.8.8.8.8.8.8.8.8.8.t.d.d.t.8.8.8.8.8.8.8.8.0.0.8.8.8.8.0.8.8.8.8.8.8.8.t.s.s.t.8.7.8.8.8.8.8.8.8.8.8.8.0.8.8.8.y.",
"y.8.7.t.s.s.i.8.8.8.8.8.8.8.8.8.8.5.<.4.5.8.9.8.8.8.8.8.8.8.8.8.8.8.8.8.8.8.8.0.8.8.8.q.t.t.q.8.8.8.8.8.8.8.8.8.8.8.8.8.8.8.8.y.",
"y.0.t.a.d.d.t.8.8.8.8.8.8.8.8.8.q.5.>.>.3.q.q.8.8.8.8.8.8.8.8.8.8.8.8.0.6.8.8.8.8.8.8.8.8.9.8.8.8.8.8.8.8.8.8.0.0.8.8.8.8.8.8.y.",
"u.i.s.g.e.4.3.9.8.8.8.8.8.8.8.9.9.8.1.2.7.8.8.8.8.8.8.8.8.8.8.8.0.8.8.8.8.8.8.8.8.8.8.8.8.7.8.8.8.8.8.8.8.8.8.8.8.8.8.8.8.8.8.y.",
"u.i.f.e.<.,.3.q.q.9.9.8.8.8.8.9.9.q.q.q.9.9.9.8.8.8.9.q.q.q.8.8.9.q.q.q.q.q.8.8.q.q.q.8.8.8.8.8.8.8.8.8.8.9.9.9.8.8.8.q.q.q.q.y.",
"y.6.6.4.2.2.8.9.9.9.8.8.8.8.8.8.9.9.q.q.9.9.8.8.8.9.9.q.9.8.8.8.8.9.8.q.q.8.8.8.8.8.9.9.9.8.8.9.8.8.8.8.8.9.q.9.0.8.8.0.q.9.9.y.",
"w.1.>.>.2.3.3.3.3.5.8.9.q.q.q.8.3.3.3.3.3.5.8.q.q.8.5.2.2.5.8.8.5.3.2.2.3.3.0.8.5.3.3.3.8.q.q.9.q.0.q.9.8.8.3.5.8.8.5.3.3.3.3.w.",
"4.>.1.2.,.D >.S D ,.5.q.9.q.q.3.,.D D S D ,.3.q.q.3.,.D D ,.5.5.,.D D D D ,.5.5.,.D D ,.5.9.q.9.9.8.q.9.8.3.,.,.3.5.,.D D D D 4.",
"F >.1.1.>.S S S C D ,.5.5.5.5.,.D S S S S >.1.5.5.,.D C C D ,.2.>.S S C S >.2.1.D C C D ,.5.3.3.3.3.3.5.0.3.D S ,.2.D C C S C G ",
"F S >.>.S S S S C S D D D >.D D S S C S S S D >.D D S C C S D >.S S S C S S D D S S C S S >.>.>.D D D ,.5.5.D S S >.S S C S C F ",
"G Z G B z z z V C S D S S S S S Z B A z z V C S S S D S D S S V A V Z Z l V C S S S S S S S S S S S C D ,.2.>.S S S S S S D S F ",
"H H H c = * * n V S D S S S C Z v c = * * n A S S S S S S S S A n = c c = n A S S S S S S S S S S C C S D D S S S S S S S S S F ",
"O H O > @ . . * x Z B z z l Z G v > @ . X $ m V F Z V z z C D x - @ ; , @ - M Z C z A z z z z V Z Z S S S C A V Z B V z z z A A ",
"; + + & % 1 3 < N c n * * = c c > @ % 3 3 # * n c c = * * m V x 2 % @ @ % e N c n * * * * * * = c v F S S z n = c c n * * * = = ",
": @ + . 7 9 9 e , > + . . + > > + # 3 w w 4 # @ > > $ X . * x b J 9 . # 2 e , > + . . # . . . @ > c l C C x - @ , > $ . # . # & ",
"7 5 3 3 9 w 0 7 $ $ % 3 3 % $ + % 3 0 0 w 0 3 % + + # 1 3 < N N J 9 4 4 9 7 $ + % 3 3 3 7 3 1 % + + * = c N < % @ @ % 3 3 3 3 8 ",
"p 9 9 0 w s t 9 # # 5 0 0 5 2 5 r r w 8 9 0 r 0 # # 5 0 0 e , , < 0 w 0 7 5 2 2 5 0 0 9 0 0 9 7 # # 2 - > > < 5 # % 7 0 0 9 9 p ",
"a 0 0 r h R Y h 9 4 9 0 0 r t P I h s 8 7 r k h 0 5 7 w 0 7 $ $ 5 0 w 0 0 r u t r 0 0 0 0 0 9 r t I j r $ $ < 9 4 3 0 0 0 0 0 a ",
"p 0 w h R ^ ! Y w 9 9 9 9 r R ^ ^ Y r 9 w h R E h r 0 0 9 7 # # 5 0 9 9 w h Q R h w 0 7 9 9 r d E ^ ! I 6 2 9 r w 0 8 9 r r 0 a ",
"a r h R ! ! ^ Y s 9 9 7 9 r R ^ ^ Y r w d Y ! ! E U r 9 0 9 3 3 7 9 9 r h Q ! ! R d r 7 7 r d E ! ! ! E I I U h r 9 7 r U h r a ",
"a r Y ! ! Q Q Y d w 0 0 r h Y ! ! Y d d Y ! ! ! ! U r 7 8 0 0 9 9 9 w h Y ! ! ! ! R d 0 0 r I ! ! Q Q Q E ! ! Y s 0 0 h E Y h f ",
"p s Y ! ! ! E E Y d r w d Y Q Q ! E Y Y Q ! Q ! ! Y s 7 9 0 0 9 9 r h Y Q ! Q Q ! E Y d 0 r Y ! ! ! ! ! ! ! ! Y r 0 d Y ! E Y W ",
"f d Y Q ! ! E ! ^ Y r r U ! ! Q E ! ! ! Q Q Q Q ! Y d r 0 9 9 9 r d Y ! ! Q Q Q ! ! ! Y d d Y ! ! ! E ! E ! ! k r r Y ! ! ! ! / ",
"W Y E Q E Q ! ! ! Y r r Y ! ! Q E ! ! ! Q Q Q Q Q Q Y h r 7 9 r h Y Q ! Q Q Q Q Q Q ! E Y Y R Q ! Q Q Q Q ! Q U r r Y ! ! E ! / ",
"/ ! Q Q Q Q E ! E U r r U E ! Q ! E Y Y Q ! Q Q Q Q ! Y r 8 8 s Y ! ! Q Q Q Q Q Q E Q Q Q ! ! E Y R E ! Q Q ! Y s s Y Q ! E ! / ",
"/ Q Q Q Q E Q ! ! U r r Y Q ! Q ! Y d d Y ! ! Q Q ! ! Y r 8 9 r Y ! ! Q R Q Q Q Q Q E ! ! ! ! Y d s Y ! ! Q Q E Y Y E Q E E ! / ",
"/ ! E Q Q Q ! ! ! Y s d Y E ! Q Y d s t d Y E Q Q Q ! Y h 0 9 w U ! ! Q Q Q Q Q Q Q Q E Q ! Q Y w 0 d R E Q Q Q Q ! Q Q Q E Y W ",
"/ ! ! E E ! ! ! ! E Y R E E ! Y d s h h s s Y Q ! ! E E R d 0 r U ! ! E Q E Q Q Q E Q Q Q ! ! Y w 7 0 h Y E ! E ! ! ! E ! Y h f ",
"W Y E ! ! E Y Y E E ! E ! ! ! Y s s h h s s Y Q E Q Q ! ! Y d d Y Q ! Q Q Q Q Q Q Q Q Q E Q ! Y d 0 8 r Y E T P i P R ! ! Y r a ",
"f h Y ! ! Y s d Y E ! ! E ! E E Y h s s h Y E Q ! E ! Q ! E Y Y R Q E E Q Q Q Q Q Q Q Q Q Q E E Y d 0 w U E R T T R E ^ ! Y t a ",
"a w Y R j q 3 4 h E T j j I R ! ! Y s s Y ! ! ! ! Q E ! E ! ! ! Q E I P R Q ! E E Q Q Q Q Q Q ! ! Y q 6 y ^ -.z.z.=.^ i k h r a ",
"a r Y Y t 7 3 4 I E E T P R E ! ! Q Y Y E ! ! Q E Q Q Q E ! ! ! ! E R R R Q Q Q E ! E ! ! R ! ! ! R j u y %.>XkXkX,X%.i q r 0 p ",
"8 4 u E #.....} Y ^ =.z.z.=.^ i i P R Q ! E Y Y R Q Q Q E ^ ! P P ( =.-.( j P ! ! R P j T ! ! T j ^ =.;.k.=X8X7XuX8X-X#.r X X % ",
"8 1 u %.;XaXaX=X#.#.-XkXdX,X%.i y R Q ! ! Y d t Y Q Q Q E E E j i -.,X,X-.P j Q ! E R T E ! ! i j &.,XdXkX8X<X{.{.}.8X;X{ X X : ",
".. .&.*X3XzXvXpX*X*X3X7XuX8X=Xk.k.-.^ j i t 3 5 U ! ! Q E T P E &.=X7X8X-X*.E y y ( =.=.( y y E %.=X8XzX7X4XB.D.G.R.4X8X&X} }  .",
"aXaXdX3X}.{.XXqXhX8X}.E.E.}.3XdXdX,X%.T i y 4 q h ! ! Q Q j P %.,X3X|.|.3X,X*.t y ;.,X,X;.u q %.>X8X<X{.{.R.L.G.G.G.R.<X8XaXaXaX",
"xXxXxX5XN.K.G.(.tX6XE.D.G.B.4X7X7X3X*X-.-.k.*. .R i i i i Y $.-XhX5XK.K.}.3X-X&.%.*X3X3X=X&.&.-XhX6XB.N.F.F.G.L.L.L.G.B.5XxXxXxX",
"XXXXXXY.G.G.G.P.~.W.L.G.L.L.R.E.E.|.3XdXdXlXdX;X%.j i i j $.>XhX%XP.L.L.K.}.3XsXsX2X|.|.2XsXsXhX$XU.M.M.M.M.G.L.L.L.L.L.Y.'.oX).",
"G.G.G.G.G.G.G.G.G.G.G.G.G.G.G.G.G.R.5XxXzXuXbXgX=X;.;.z.x.-XhXeXU.L.L.L.G.H.6XvXxX#XK.K.5XvXvXeXQ.D.N.n.M.M.S.J.).W.G.G.G.G.G.G.",
"G.G.G.G.G.G.G.G.L.G.G.G.G.G.G.G.L.K.W.).R.{.|.6X8XdXlXjXjXhX%X~.P.L.G.G.G.G.Y.XX'.P.G.G.I.XXXX~.L.G.G.F.F.S.M.W.wXwXW.G.G.G.G.G.",
"G.G.G.G.G.G.F.G.F.L.G.G.G.G.L.G.G.L.L.G.L.F.N.N.@XyX2X2XfX0X/.G.G.G.G.L.G.G.G.G.L.L.G.G.G.G.G.G.K.G.G.J.G.G.M.W.rXyXqX+X+X'.P.J.",
"L.G.G.G.G.G.G.F.L.G.G.G.G.G.G.G.G.G.G.P.K.F.M.n.M.J.P.c.+.&XT.G.G.G.G.G.G.G.P.G.K.L.G.G.G.G.G.G.G.G.L.L.L.G.D.J._.5XiXbXbXrX(.P.",
"G.G.G.F.G.I.XX`.P.F.S.G.G.G.G.G.G.G.G.G.G.F.N.M.U.H.b._   | @X_.P.G.G.G.G.G.G.G.L.L.G.G.G.L.G.G.G.P.C.b.D.G.G.J.G.~.rXbXbXrX(.P.",
"G.G.G.G.F.'.tXtX`.F.F.K.G.G.G.G.G.G.G.G.G.G.G.Y.5X1XO.o   / :XwX/.G.J.G.G.G.G.G.G.G.G.G.G.G.J.G.G.W.A.X.v.J.J.J.G.P.`.OXOX`.P.J.",
"G.J.L.F.G.`.tXiXqXoXXX'.P.S.v.C.G.G.G.G.G.G.G.(.rXfX&X{ { &X0XeX~.L.G.G.G.J.G.G.G.G.G.G.G.G.G.P.'.1X:.r ` Z. X`.P.G.L.G.G.G.G.G.",
"G.G.G.G.G.P.(.qXiXbXbXrX(.b.X.O.b.G.G.G.G.G.J.I.`.qXfXaXaXfX1X`.P.G.G.G.G.G.J.J.G.G.G.G.G.G.L./.rXpX-.6 K @.2XrX(.G.G.G.L.G.G.G.",
"G.G.G.G.L.F.F.U.eXbXbXrX(.v.] { m.b.G.L.G.G.G.G.D.Q.wXcXvXeXQ.G.G.G.G.D.b.C.C.D.G.G.G.G.P.I.I.`.rXhX=X&.*.=XhXrX(.G.G.G.G.G.G.G.",
"G.G.J.L.G.G.F.P.`.+X+X).I.v.] Q { o.n.P.G.G.G.G.G.G.~.XXXX~.P.G.G.G.G.b.O.O.C.D.F.F.G.P.!.[.[.[.'.qXfXsXsXjXqX'.P.G.G.G.G.G.G.G.",
"L.G.G.G.G.G.G.G.G.P.(.T.Z.' K t j g ' Z. X'.P.G.G.G.G.G.G.G.G.G.G.D.C.o.{ | V.J.I.I.I.I.!.[.[.!.P.U.wXvXvXwXI.F.F.F.F.G.G.G.J.G.",
"G.G.G.G.G.G.G.G.D.I.wX0X@.] 7 r h u W @.0XrX(.G.G.G.G.J.G.J.G.G.G.C.o.{ E [ V.[.^.^.[.!.I.I.P.P.J.G.~.XX'.~.D.G.G.F.G.F.G.G.G.G.",
"G.G.G.G.G.G.G.L.J./.rXhX=X&. ...-.;.;.=XjXwXQ.L.G.G.G.G.G.G.G.G.G.b.| ! E ~ Z.C.^.^.[.!.P.G.G.G.J.G.G.G.G.I.`.OXOXOXOX'.P.G.G.G.",
"G.G.G.G.G.G.G.L.L.P.W.1XjXsXpXsXdXsXdXjXqX/.L.L.G.G.G.G.G.L.G.G.G.v.| ^ ! W [ ` C.!.I.P.P.G.G.G.G.G.G.G.F.(.rXbXbXbXbXrX(.F.G.G.",
"G.G.G.G.G.G.G.G.G.S.M.D.qXxXxXvXvXvXvXwXP.F.F.F.F.G.G.G.G.G.G.D.C.c.| ! R h f K ' C.C.G.G.G.G.G.G.G.G.F.G.(.rXbXbXbXbXrX(.K.F.G.",
"G.G.L.G.G.P.G.F.M.M.S.S.D.T.W._.'.XXXXI.L.L.K.L.F.G.G.L.G.G.G.n.o.} } Y d s d Y { o.b.G.G.L.G.G.G.L.G.G.G.P.'.+XOXOXOX'.P.F.G.G.",
"L.J.C.v.D.G.G.F.M.S.K.G.N.M.n.M.S.N.S.G.W././.(./._.P.D.C.v.v.' ] ! R t 0 r Y ! E +.C.G.G.G.G.G.G.G.L.G.G.G.G.F.L.S.b.C.J.G.L.G.",
"P.H.m.) v.G.G.G.F.G.G.G.D.G.S.S.M.n.M.G.`.I.I.].!..XT.C.c.[ [ ] Y R h w 7 r R R R @.T.D.G.G.L.J.G.G.G.G.G.D.G.F.S.v.X.A.Y.G.G.G.",
"+X1X..X ) V. X'.P.G.G.G.L.L.L.K.M.M.S.oX_.I.!.].~..XA.o.W h w r h h t 7 7 r U u Y l.@X).P.G.G.G.G.G.G.G.G.I.`. XZ.X.h :.1X`.J.J.",
"xX9X..X : +.2XrX(.P.G.G.G.P.L.F.S.W.wXrX+X~.~.XXeX9X:.] q r w w r r 0 7 7 0 0 q j ;.hXrX(.G.G.G.G.G.G.G.G.(.rX2X@.W y ;.pXrX(.P.",
"cXfX..X % +.9XyX`.G.G.G.G.L.L.F.F.oXiXvX+XJ.G.!.eXsXl.L a 0 0 e a a a a a a a e Y :.fXyX`.G.G.G.G.G.G.L.J.`.yXfX:.k h ;.fXyX`.P."
};
