/* XPM */
static char *result[] = {
/* columns rows colors chars-per-pixel */
"64 64 226 2 ",
"   c #29100F",
".  c #361C00",
"X  c #3A1803",
"o  c #1C3F1B",
"O  c #2C2703",
"+  c #322403",
"@  c #3B2303",
"#  c #312A05",
"$  c #3C2309",
"%  c #342909",
"&  c #2A3300",
"*  c #253A04",
"=  c #353603",
"-  c #262E10",
";  c #3D2615",
":  c #253512",
">  c #2A3618",
",  c #3D3216",
"<  c #421C04",
"1  c #432905",
"2  c #45240D",
"3  c #49250D",
"4  c #46290E",
"5  c #4A280F",
"6  c #572A0E",
"7  c #4E330C",
"8  c #452913",
"9  c #452815",
"0  c #4A2A15",
"q  c #4D2C19",
"w  c #542C12",
"e  c #512D1A",
"r  c #45331C",
"t  c #54311C",
"y  c #5B351A",
"u  c #62361A",
"i  c #65391D",
"p  c #693C1E",
"a  c #473224",
"s  c #4A3224",
"d  c #5B3620",
"f  c #5E3922",
"g  c #573B2A",
"h  c #4B3D32",
"j  c #623C24",
"k  c #6B3E22",
"l  c #653F28",
"z  c #0D5B00",
"x  c #135C00",
"c  c #1C5A06",
"v  c #194C17",
"b  c #0D5719",
"n  c #195F16",
"m  c #244201",
"M  c #224C00",
"N  c #21590C",
"B  c #274A1E",
"V  c #026502",
"C  c #0B6100",
"Z  c #006C01",
"A  c #006608",
"S  c #02690A",
"D  c #056A0C",
"F  c #007400",
"G  c #007C00",
"H  c #00730D",
"J  c #0D5227",
"K  c #44411A",
"L  c #564237",
"P  c #5A4639",
"I  c #664020",
"U  c #6D4225",
"Y  c #664029",
"T  c #6C442B",
"R  c #724427",
"E  c #71462C",
"W  c #734A2E",
"Q  c #644635",
"!  c #674A38",
"~  c #754B30",
"^  c #794D32",
"/  c #7C5035",
"(  c #73513C",
")  c #7B5239",
"_  c #26495A",
"`  c #0D4162",
"'  c #34586A",
"]  c #35657B",
"[  c #5B4C45",
"{  c #55504C",
"}  c #6B5446",
"|  c #745949",
" . c #655C57",
".. c #775E50",
"X. c #7A6457",
"o. c #475C68",
"O. c #466575",
"+. c #4D6472",
"@. c #6A6969",
"#. c #797B7C",
"$. c #886753",
"%. c #8E6A55",
"&. c #886958",
"*. c #916D59",
"=. c #94735F",
"-. c #947562",
";. c #967A69",
":. c #9B7B68",
">. c #8E7B70",
",. c #008200",
"<. c #008C05",
"1. c #008F0A",
"2. c #009205",
"3. c #00960C",
"4. c #00990D",
"5. c #028914",
"6. c #009C11",
"7. c #009818",
"8. c #00A20D",
"9. c #00A516",
"0. c #00A817",
"q. c #00A51B",
"w. c #00AA19",
"e. c #009622",
"r. c #389926",
"t. c #00A326",
"y. c #00AE24",
"u. c #00A328",
"i. c #00A92D",
"p. c #00B229",
"a. c #00A635",
"s. c #02B735",
"d. c #15BC39",
"f. c #2EAE32",
"g. c #2AB939",
"h. c #42AE35",
"j. c #2DBD4B",
"k. c #46C646",
"l. c #346F87",
"z. c #0378A5",
"x. c #007DAC",
"c. c #007DB3",
"v. c #497086",
"b. c #7F7F80",
"n. c #0076C0",
"m. c #007CC3",
"M. c #0484AC",
"N. c #0082B3",
"B. c #0088BA",
"V. c #2685AD",
"C. c #638395",
"Z. c #0083C4",
"A. c #0089C7",
"S. c #0085CB",
"D. c #008CCE",
"F. c #0092CE",
"G. c #0798CF",
"H. c #1C9ACD",
"J. c #008FD0",
"K. c #0095D1",
"L. c #009AD4",
"P. c #099ED5",
"I. c #2498C9",
"U. c #289DD3",
"Y. c #329FD4",
"T. c #02A0D7",
"R. c #04A6DA",
"E. c #11A1D7",
"W. c #19A2D8",
"Q. c #00B1DF",
"!. c #2AA3D8",
"~. c #29A5D9",
"^. c #33A5D7",
"/. c #34A9DA",
"(. c #3AAADA",
"). c #46A2CD",
"_. c #42ACDB",
"`. c #4DAFDD",
"'. c #56B3DF",
"]. c #58B3DF",
"[. c #7BADC8",
"{. c #68B4DC",
"}. c #53B9E8",
"|. c #6DBBE2",
" X c #79BEE3",
".X c #6FC2EB",
"XX c #7DC0E3",
"oX c #9C8C84",
"OX c #A99A92",
"+X c #B59E92",
"@X c #B7A59B",
"#X c #BBAFA8",
"$X c #C2AFA3",
"%X c #C6B3A8",
"&X c #C4BDBA",
"*X c #88B7D0",
"=X c #ABBDC9",
"-X c #81BFE1",
";X c #AFC1CB",
":X c #B7C3CA",
">X c #BBCBD6",
",X c #8BC4E3",
"<X c #8AC7E7",
"1X c #94CBE9",
"2X c #9CCFEB",
"3X c #9DD0EC",
"4X c #A6D4ED",
"5X c #B2D9EE",
"6X c #BBDAED",
"7X c #BADDF1",
"8X c #C9C8C7",
"9X c #D4CAC5",
"0X c #D5CBC6",
"qX c #DACEC8",
"wX c #DCD1CB",
"eX c #C3CED4",
"rX c #C5D4DD",
"tX c #C9D2D8",
"yX c #D2D6D8",
"uX c #C5DAE6",
"iX c #C0DFF1",
"pX c #C4E2F3",
"aX c #CEE7F5",
"sX c #C9EAFA",
"dX c #D1E8F3",
"fX c #EEF6FB",
/* pixels */
"a.u.u.u.u.u.u.u.u.u.u.u.u.u.u.u.t.t.y.a.j.j.s.t.t.t.t.t.u.u.u.u.u.u.u.u.u.u.u.u.t.t.t.u.t.t.u.u.u.u.u.u.u.u.u.u.u.u.u.u.u.u.u.a.",
"q.9.9.9.9.9.9.9.9.9.9.9.9.9.9.9.8.0.y.s.g.s.y.8.9.9.9.9.9.9.9.9.9.q.9.9.q.9.9.9.9.9.9.9.9.9.9.9.9.9.9.9.9.9.9.9.9.9.9.9.9.9.9.t.",
"9.9.9.9.9.9.9.9.9.9.9.9.9.9.9.9.9.y.s.g.s.y.w.0.9.9.9.9.9.9.9.9.9.9.9.9.9.9.9.9.9.9.9.9.9.9.8.9.9.9.9.9.q.9.9.9.9.9.q.9.9.9.9.9.",
"u.9.9.9.8.9.9.9.9.9.9.9.9.9.9.9.9.s.k.k.p.8.8.0.9.9.9.9.9.9.9.q.9.9.9.9.9.9.9.9.9.9.9.w.y.y.w.9.9.9.9.9.9.9.9.9.9.9.9.9.9.9.9.u.",
"u.9.9.9.9.8.9.9.9.9.9.9.9.9.9.9.8.p.k.k.y.8.8.9.9.9.9.9.9.9.9.9.9.9.9.9.q.9.9.9.9.9.9.y.d.d.y.8.9.9.9.9.9.9.9.9.9.9.9.9.9.9.7.u.",
"u.9.9.w.p.y.w.9.9.9.9.9.9.9.9.9.9.y.f.f.y.9.9.9.9.9.9.9.9.9.9.9.9.9.q.9.9.9.9.9.9.8.8.p.d.d.y.9.9.9.9.9.9.9.9.9.9.9.9.q.9.9.9.u.",
"u.9.8.y.d.d.p.9.9.9.9.9.9.9.9.9.9.6.5.5.6.9.0.9.9.9.9.9.q.9.9.9.9.9.9.9.9.9.9.9.9.9.9.w.p.y.w.9.9.9.9.9.9.9.9.9.9.9.9.9.9.9.9.u.",
"u.q.y.s.f.f.y.9.9.9.9.9.9.9.9.9.0.4.<.,.4.w.w.9.9.9.9.9.9.9.9.9.7.9.9.9.9.q.9.9.9.9.9.9.9.9.9.9.9.9.9.9.9.9.9.9.q.9.9.9.9.9.9.u.",
"i.p.d.h.r.5.4.0.9.9.9.9.9.9.9.0.9.9.2.4.8.9.0.9.9.9.9.9.9.9.9.9.q.9.9.9.9.9.9.9.9.9.9.9.9.8.9.9.9.q.9.9.9.9.9.9.9.9.9.9.9.9.9.u.",
"i.p.g.r.1.<.4.w.w.0.0.9.9.9.9.0.0.w.0.w.w.0.9.9.9.9.w.w.w.w.9.9.w.w.w.w.w.w.9.9.w.w.w.9.0.9.9.9.9.9.9.9.9.0.0.0.9.w.w.w.9.w.w.u.",
"u.7.7.5.3.3.9.0.0.0.9.9.9.9.9.9.0.w.0.w.0.9.9.9.9.9.w.9.0.9.9.9.9.9.q.0.w.9.9.9.9.9.0.0.0.9.9.9.9.9.9.9.9.9.w.0.9.9.w.9.w.w.w.u.",
"e.2.,.,.3.4.4.4.4.6.9.0.w.w.w.9.4.4.4.3.4.6.9.w.w.9.4.4.4.6.9.9.6.4.4.3.4.4.q.9.6.4.4.4.9.w.w.0.0.w.w.0.9.9.4.6.9.9.6.4.4.4.4.e.",
"5.,.2.3.<.G ,.F G <.6.w.0.w.w.4.<.,.G G G <.4.w.w.6.<.G G <.6.6.<.,.F G ,.<.6.6.<.G G <.6.0.w.0.9.q.0.0.9.4.<.<.6.6.<.,.G ,.G 5.",
"H ,.2.2.,.F F F Z G <.6.6.6.6.<.F F F F F ,.2.6.6.2.G Z Z G <.3.G F F F F ,.3.2.G Z Z G <.6.4.4.4.4.3.9.q.4.G F <.3.G Z Z Z F D ",
"H F ,.,.F F F F Z F G G G ,.G G F F Z F F F G ,.G G Z Z Z F G G F F F Z F F G G F F Z F F ,.,.,.G G G <.6.6.G F F G F Z Z Z Z H ",
"H D S V x x x C Z F G F F F F F S A C x x C Z F F F G F G F F Z C C A A z C Z F F F F F F F F F F F Z G <.3.,.F F F F F G F G H ",
"J J J v & & & m C G F F F F F S b v * & & m C F F F F F F G F c m * v v * m x F G F F F F F F F F Z Z F G G G F F F F F F F F H ",
"o J v : + . . = c S V x x C S D J : + X X # M C S S C x x Z G c = + - : + = N S V x x x x x x C A S F F F Z C x A V C x x x x D ",
"> O O + $ < 2 , B v * & & * v v * + $ 2 2 @ = m v v * & & M C c 7 % @ + $ , B v m & & & & & & * v b H F F x m * v v m & & & & * ",
";   O + 9 q 0 , > : O . . O : : O . 4 e e 3 . O : : # . . & c n K 4 . @ 4 r > : O + . . + . . % : v z Z Z c = + - : % @ . + $ % ",
"9 2 4 4 0 e q 8 # O $ 2 4 $ O O $ 4 q e e q 2 $ O O $ < 2 , B B r 0 3 4 q 8 # O $ 2 2 2 2 4 2 X O O & * b B , $ + O $ 2 2 2 2 8 ",
"s q 9 q e d y 0 @ @ 4 q q 0 1 1 e t e 0 0 e t 0 @ @ 8 e q r > > , q e q 0 4 1 1 4 q q q q q 0 8 @ @ 1 = : : , 4 < $ 8 q q q 0 s ",
"s q q t l E T j w 4 0 0 q e i U T j t 9 9 t l l q 1 8 e q 8 + # 4 q e q 0 t y u t q q q q q 0 t y I k t % % 4 0 3 4 0 q q 0 q s ",
"a q e j E ^ ^ T t 9 0 0 0 t T / / T t 0 e j W E j t q 0 q 8 @ @ 4 0 q 0 e j ~ W j e 9 5 0 0 t j W / / Y 7 1 0 t e 0 0 q t t q a ",
"s t j E ~ / ^ T d 0 0 8 0 t E / / T t 0 f T ^ ^ W Y t 0 0 0 4 3 8 0 0 t j E ^ ^ W f t 8 0 t f T ^ / ^ W Y I Y I d 9 9 t Y j t s ",
"s t T ^ ^ ^ ~ T f t q q t j T ^ ^ T f j T ^ ^ ^ ^ Y t 9 9 q q 0 0 0 q j T ^ ) ^ / T f q 9 t T ^ ^ ~ ~ ~ ^ / ^ T d 0 e j E E j g ",
"s t T ^ / ~ W W T j e t f T ~ ~ ^ W T T ~ ^ ~ ^ ^ T d 9 0 q q 0 0 e j W ~ ^ ~ ~ ^ W T f e t T / ^ ~ ~ ^ ^ / ^ Y t e j T ~ ^ T ! ",
"g f T ^ ^ W ^ ^ ^ Y t t Y ^ ^ ~ W ^ ^ ^ ~ ~ ~ ~ ^ T f t q 0 0 q t f T ^ ^ ~ ~ ~ W ^ / T f f T W ^ ^ W ^ W ^ ^ Y e t Y ^ ^ W ^ ( ",
"! T W W ~ ~ W ^ ^ T t t T ~ ^ ~ ^ W ^ ^ ^ ~ ~ ~ ^ W T I t 9 0 t j E W ^ ~ ~ ~ ~ W ^ ^ W T T W ~ ^ ^ ~ ~ W ^ ~ Y t t Y ^ ^ ^ ^ ( ",
"( ^ ~ ~ W ~ W ^ ^ Y t t Y ~ ^ ~ ^ W T T ~ ^ ~ ~ W ^ ^ T t 9 9 t T ^ ^ ~ ~ ~ ~ ~ ^ W W ~ ^ ~ ~ W Y E W ^ ~ ^ ~ T f d T ^ ~ W W ( ",
"( ~ W ~ ~ W ~ ^ ~ Y t t T ~ ^ ~ ^ T f d Y ^ ^ ~ ~ ^ ^ T t 9 9 y T ^ ^ ~ ~ ~ ~ ~ ~ ~ W ^ ~ ^ ~ T f f T ^ ^ ~ W W T T W ^ W W ^ ( ",
"( ^ ^ W ~ ^ ^ ^ ^ T d f T W ^ ~ T f y d j T W ~ ^ ~ W T f t 9 t Y ^ ~ W ~ ~ ~ W ~ W ^ W ~ ^ ^ Y t q f T W ~ ~ W ^ ^ W ^ W W T ! ",
"( ^ ~ ~ W ^ ^ ^ ^ W T T W ^ ~ T f d l j d d T ~ ^ W ^ W E f e t Y ^ ^ W ~ ~ W ~ ~ ~ W ~ ~ ~ ^ Q e 9 q j T ^ W ^ ^ W W ^ ^ T y g ",
"Q T W ^ ^ W T T W W ^ ^ W ^ ^ T d y j j d f Y ^ ^ ^ W W ^ T f f T ^ ^ W ~ ~ ~ ~ ~ ~ ~ ~ ~ ~ ^ E j q 9 e Y ^ ^ W W ^ W ^ / T d s ",
"g d T ^ ^ E d d T W ^ ^ W ^ ~ W T j d d f T W ^ W W ^ ^ ^ W T T T W ^ ~ ~ ~ ~ W ~ ~ ~ ~ ~ ~ ~ ~ E d q e Y ~ ^ W ^ W W ^ ^ T t s ",
"9 3 u R E d 2 2 y U W ~ ^ W W ^ ^ T f d T ^ ^ ^ ^ ^ W E U U W ^ ^ ^ ^ W W ~ ~ ~ ~ ~ ~ ^ ~ E k k W E d j T E R k k U W ^ T f 0 ; ",
"9 q j T j q 2 9 i E ~ ~ ~ ~ W ~ ^ W T T W ^ ^ ^ W W W W R R ^ ^ ~ ^ W ^ ~ W ^ W ~ W ~ ^ ~ W E E ~ W E E E W E R U W W T j e 3 9 ",
"&.-.-...t 5 ! &.-.*./ p p k W ~ ^ W ~ ^ ^ W Y T W T U ) *.*./ p i p u i T / ^ ^ W ^ ~ k k / *.*./ p p p k ^ *.:.:.*./ 6 < q } X.",
"wXwXwX+X! P OX0XqX$X%.i i E W ^ W ^ ^ ^ ^ T d i T k U =.%X%X=.U p j t y T ^ ^ W W ~ ^ k k -.%X%X-.k p p p %.$XwXwX%X%.6 < ! OX&X",
"sXsXdX:XoXoX:XpXpXrX@X-.-.%.^ i p k p T W T t e k ^ %.#XdXuX#X;.=.-.X.| j u i I k k k k %.@XrXuX@X-.-.=.-.+XrXpXpXrX+X$...oXeX7X",
"}..X.X-X>XeX,X_._.XXtXwXqX$X%.k i R T E ^ U t 4 l *.$XrX X X>XwXqXqX9XOX} w y R R i p $.$X>X{.{.>XqXqXqXqXrX X_._.XXtX9X9XeX X'.",
"K.P.L.W.<X3X~.D.D.P.1XpXpXrX+X-.=.:.:.*.E 5 < X w :.eX-XF.F.,XpXpXpXpXrXoXX.%.:.:.=.-.+XrX-XA.A. XiXiXpXpX1XE.D.D.L.1XpXiX1XP.D.",
"D.K.J.D.T.~.F.D.D.J.E._._.XXtXwXqXwXwX@X| < X < y oX*XF.D.D.F._._._._. XeX9X9XwXwXqXwXtX XK.S.S.L.^.Y.Y.(.W.K.D.D.D.P.(.(.W.D.D.",
"D.D.D.D.D.D.D.D.D.D.D.D.D.P.1XpXpXpXpX>XoX| } $.-.%X|.D.D.D.D.D.D.D.D.P.1XpXpXpXpXpXpX1XE.D.D.F.J.S.m.m.Z.S.S.K.(./.F.D.F.D.D.D.",
"D.D.D.D.D.D.D.D.D.D.D.D.D.J.E._._._./.{.>X9X&X0XqXrX`.D.D.J.D.D.D.D.D.J.E._._._._._._.E.K.D.K.D.D.D.D.Z.m.m.n.Y.4X4XE.D.D.D.D.D.",
"D.D.D.D.D.S.S.D.D.D.D.D.D.D.D.D.D.D.D.E.1XpXpX7X5X XF.F.N.N.D.D.D.D.D.F.D.D.D.D.D.D.D.D.D.D.D.D.D.J.J.S.m.n.m.Y.3X7X<X'.].(.K.K.",
"D.D.J.D.S.D.S.D.D.D.D.J.D.D.D.D.D.D.D.K.E./.U.F.A.A.D.c.' v.H.D.D.D.D.D.D.D.D.F.D.D.D.F.D.D.D.D.D.J.J.D.D.Z.Z.K.(. X7XaXaX3X~.K.",
"D.D.D.K.(.'.'.^.K.S.D.D.D.D.D.D.J.D.D.J.J.A.Z.m.D.I.z.`    .[.(.L.D.D.D.D.D.D.D.D.D.D.D.D.D.J.D.D.K.B.x.S.J.D.J.J.E.3XaXaX3X!.K.",
"D.S.D.~.3XaXaX2XP.S.S.D.D.D.D.D.D.D.D.J.D.D.S.L.,X=Xo.    | &X3X~.D.D.D.D.D.D.D.D.D.D.D.D.D.D.D.D.I.C.o.x.K.J.J.D.J./.'.'.(.K.K.",
"D.S.D.~.3XsXaX7X X/.J.D.D.S.x.N.A.D.D.D.D.D.J.~.3XeXoX} } oX>X2X~.F.D.D.F.D.D.D.D.D.D.D.D.D.J.K.(.*X>.s ' V.)./.K.D.D.D.D.D.D.D.",
"D.D.D.K.(._.`.<X7X4X/.D.D.x.+.+.x.A.D.D.D.D.J.L.(.,XeX&X9XeX-X(.L.D.D.D.D.D.F.D.D.D.D.D.D.D.D.!.2X8X-.6 g #.;X2X~.D.D.D.D.D.D.D.",
"D.D.D.D.D.m.S./.4X4X(.S.S.z.[ } v.c.D.D.D.D.D.D.D.P.2XpXpX1XP.D.D.D.D.A.x.N.A.A.D.D.D.K.K.K.K.~.2XtX+X*.*.+XtX2X~.J.D.D.J.D.D.D.",
"D.D.D.D.S.S.Z.K.(.(.L.J.D.z.[ ^ } O.N.D.J.D.J.D.J.J.W._._.W.K.D.D.D.D.x.O.+.M.A.S.D.D.K.R.R.L.K.(.-XtXqXqXyX,X(.K.D.D.D.D.D.D.D.",
"D.D.D.D.D.J.D.D.D.K./.).V.l.h u p g l.V.).(.K.D.D.D.D.D.D.K.D.D.D.A.N.O.(  .M.T.L.L.L.T.Q.R.K.D.D.E.1XpXpX<XL.S.S.D.D.D.D.D.D.D.",
"D.D.D.D.D.D.J.D.S.L.2X;Xb.L 0 e j i [ #.;X3X~.D.D.D.D.D.D.D.D.D.D.N.O.} ^ { M.Q.Q.Q.Q.Q.L.L.K.D.D.D.W.(.(.L.D.D.S.D.D.D.D.D.F.D.",
"D.J.D.D.D.D.J.J.K.~.2XtX+X*...&.-.=.-.+XtX3X~.D.D.D.D.D.D.D.D.J.D.N. ./ / { l.F.Q.Q.Q.T.K.S.D.D.D.D.A.K.(.'.'.'.'.(.K.D.D.D.D.J.",
"D.D.D.D.D.J.J.J.J.J.U.-XyXwX9X9XqXqXqXyX,X(.L.J.D.D.D.D.D.D.D.D.D.M. ./ ^ ! L ] B.L.L.K.D.D.D.D.D.D.D.~.3XaXaXaXaX3X!.D.S.D.D.D.",
"D.J.D.D.D.D.S.S.S.Z.m.F.,XiXpXiXpXsXsX<XL.S.S.S.D.F.D.D.D.D.D.S.N.l. .^ T Y t [ l.c.A.D.D.D.D.D.J.S.S.~.3XaXaXaXaX3X~.D.D.D.D.D.",
"D.D.D.J.J.S.Z.m.n.m.S.Z.K.Y._._._._._.P.D.S.S.D.D.D.D.D.D.D.D.c.O. .( T f d I Q } O.x.D.D.D.D.D.D.D.D.K.(.].].'.'.(.K.D.D.J.D.D.",
"D.F.N.x.S.D.m.n.m.m.D.D.m.m.S.m.m.m.S.K./.'.].(.K.D.D.A.N.z.z.] } ^ W f e t Y ~ W @.N.D.D.D.D.J.D.D.D.D.D.S.D.S.S.A.c.B.D.D.D.D.",
"K.H.v._ x.S.S.S.S.S.D.D.D.Z.m.n.n.n.m.E.3XaXaX4X~.D.S.N.O.{ { { T W j t 8 t T E E #.I.D.D.D.J.D.D.D.J.D.S.S.S.D.S.x.o.C.I.K.D.D.",
"{.[.@.X _ V.).(.L.D.D.J.J.S.m.Z.D.G.^.|.5XaXpX4X|.).V.O.Q j q e f j t 9 8 t j i l oX[.(.K.D.D.D.D.D.D.D.J.K.(.).V.o.f ;.*X/.K.D.",
"6X8X&.X ; @.=X4X~.D.J.J.J.S.S.P.,X6XiX4X X`._.|.4X:Xb.P e t e e t t 0 0 0 q t w k :.tX3X~.J.D.D.D.J.D.D.D.~.3X;XoXg i :.8X3X~.K.",
"dX:XX.X X @.:X5X(.D.D.D.D.S.S.(.7XfXfX7X'.K.K.`.5XeX>.P q r q r s s a a a a a e Y ;.eX5X/.D.J.D.D.D.D.D.D./.5XeX>.g j ;.eX5X/.K."
};
