/* XPM */
static char *result[] = {
/* columns rows colors chars-per-pixel */
"64 64 171 2 ",
"   c #0F0A25",
".  c #140D26",
"X  c #1F1127",
"o  c #231927",
"O  c #261628",
"+  c #2B1829",
"@  c #2E2329",
"#  c #32252B",
"$  c #243D28",
"%  c #562E2E",
"&  c #5E332F",
"*  c #4A2432",
"=  c #512632",
"-  c #562B32",
";  c #553332",
":  c #5E3331",
">  c #653732",
",  c #693832",
"<  c #006B00",
"1  c #007300",
"2  c #007C00",
"3  c #0E7D06",
"4  c #157D07",
"5  c #244727",
"6  c #136C25",
"7  c #4E492D",
"8  c #50492E",
"9  c #834439",
"0  c #8C4C38",
"q  c #975939",
"w  c #807C39",
"e  c #BD633F",
"r  c #C0653F",
"t  c #AF006B",
"y  c #B60964",
"u  c #B0006A",
"i  c #C81F5F",
"p  c #C03E57",
"a  c #CB315C",
"s  c #C71B61",
"d  c #9C4645",
"f  c #984E42",
"g  c #BE4E4C",
"h  c #B75A47",
"j  c #BC5D4B",
"k  c #9F6A42",
"l  c #977140",
"z  c #A36B44",
"x  c #BE6348",
"c  c #A97247",
"v  c #B77746",
"b  c #B87746",
"n  c #C3544D",
"m  c #CA564F",
"M  c #C25C4C",
"N  c #CD5A50",
"B  c #D05352",
"V  c #E45F50",
"C  c #C36640",
"Z  c #CB6B41",
"A  c #C1604D",
"S  c #D66B4C",
"D  c #DA6A4E",
"F  c #D47645",
"G  c #DD7246",
"H  c #D57843",
"J  c #DC724F",
"K  c #CD6151",
"L  c #D96E50",
"P  c #E4654E",
"I  c #EA7644",
"U  c #EE7C45",
"Y  c #E6714B",
"T  c #E87849",
"R  c #F17F46",
"E  c #E37551",
"W  c #008500",
"Q  c #008B03",
"!  c #00860D",
"~  c #008C0C",
"^  c #009305",
"/  c #009907",
"(  c #00960A",
")  c #00990C",
"_  c #008D13",
"`  c #0C8912",
"'  c #00841E",
"]  c #008D19",
"[  c #168611",
"{  c #009C12",
"}  c #009E19",
"|  c #278916",
" . c #00A20E",
".. c #00A515",
"X. c #00A817",
"o. c #00A41B",
"O. c #00AA1B",
"+. c #099425",
"@. c #159725",
"#. c #209326",
"$. c #289527",
"%. c #319523",
"&. c #329A25",
"*. c #399926",
"=. c #359229",
"-. c #39922A",
";. c #3A9E2A",
":. c #00AD23",
">. c #00B126",
",. c #00B129",
"<. c #00B532",
"1. c #00B935",
"2. c #0CB937",
"3. c #01BD39",
"4. c #15BC39",
"5. c #25AD2F",
"6. c #3CA12C",
"7. c #25AE30",
"8. c #2EAE32",
"9. c #30AD32",
"0. c #2DB134",
"q. c #2EBC3B",
"w. c #3AB538",
"e. c #3CB439",
"r. c #34BF3F",
"t. c #41962C",
"y. c #509933",
"u. c #6E8634",
"i. c #43A12D",
"p. c #46AC35",
"a. c #42B439",
"s. c #49B43B",
"d. c #53B63E",
"f. c #52B83F",
"g. c #32C03F",
"h. c #4FBA40",
"j. c #56B640",
"k. c #55BA42",
"l. c #59BA43",
"z. c #37C341",
"x. c #3CC242",
"c. c #44C445",
"v. c #49C546",
"b. c #4FC749",
"n. c #49C949",
"m. c #55C749",
"M. c #5AC74B",
"N. c #55CA4B",
"B. c #5BC94C",
"V. c #5BD052",
"C. c #63C94E",
"Z. c #64CD51",
"A. c #6ACA50",
"S. c #66D355",
"D. c #6BD456",
"F. c #E68E4E",
"G. c #F38345",
"H. c #FA8447",
"J. c #FC8A45",
"K. c #FE8648",
"L. c #F68B4A",
"P. c #FC8B4A",
"I. c #FE944C",
"U. c #FF9C4E",
"Y. c #FF9D53",
"T. c #FFA04F",
"R. c #FFA552",
"E. c #FFAB51",
"W. c #FFB152",
"Q. c #FFBC55",
"!. c #FFC156",
/* pixels */
"....................o...............O.O.O.......X.O.......,.c.x.,...X.O.O.........o...................O.O.X...:.w.q.:.:.q.w.,.o.",
"............o.....................O.>.>.O.....X.O.:... .O.<.v.r.>...:.:.O...............o....... ...:.,.,.O.O.:.8.7.:.:.5.8.:.o.",
"................................ .:.4.4.>... .O.2.1.:.O.<.m.B.g.:.:.1.4.>. .........o........... .:.1.v.v.3.:.{ ~ _ } .._ _ } } ",
"........o.......o.............O.>.<.a.9.O...:.3.b.c.<.<.c.D.S.x.1.<.w.8.:.....................O.:.1.m.A.M.3.:.) W W ) ) W W ( ..",
"..o......................... .>.3.a.*._ { :.3.b.Z.M.c.c.B.Z.Z.m.v.e.%._ ) ..X............. ...:.1.M.S.m.<.:.X.) / ( .. .) ( ....",
"..............o...............:.0.i._ W / o.0.l.C.S.S.M.h.h.M.V.l.;.! W ( X.X.................:.4.v.c.1.:.................X.....",
"..........................X.X.} ] ` ~ /  .{ _ *.k.S.S.d.%.&.f.k.;.! Q ) ....X.................O.:.:.,.O..... ...X.X.X.X...X.....",
"..........................X.X.) W Q ) X.X.( W ~ ;.d.k.*.3 4 ;.6._ W ( O.X.......................................................",
".. .................o.....O.....( ) ..X.X...) ~ ! | | 3 1 1 4 _ ( ) ................o...........................................",
"X.O.>.:.O.......................X.X.......X.O.) W 2 2 2 2 2 2 W ) O.O.........................................O.........o.......",
"O.>.4.4.:.......................O.X.......X.X...( ^ ^ ^ ( ( ^ ) ..O.X.............o.........................o.................o.",
"O.:.4.4.>. . ...o.....................O.............O.O.....O...................................................................",
"..O.>.>.O.............................o.........O.O.O.X.O.O.O.O.........................................o.......o...............",
".............................................................................. ............... .........................o.......",
"...... .....................o.....o.........................................................................o...................",
"........ .....O.:.O.....................o...................o.............O.>.>.:.........O.>.>.o...............................",
".......... ...>.4.1.:. . .....................o.o...................X. ...:.4.4.>..... ...:.4.4.>... .....o.....................",
"......O.>.:.X.>.g.b.3.>.X.................................o...........X.>.<.a.9.:. ...O.>.<.a.8.:...............o.........O.:.:.",
".. ...>.4.1.O.>.g.Z.m.3.:... .........................o...............>.3.a.*._ ) ....>.3.a.*._ ) X.......................:.1.q.",
"......O.8.e.,.3.n.A.l.8.O...............o.....X...............o.......:.8.i._ W / ..X.:.0.i._ W ) X.........o.............:.x.N.",
"..X...{ _ &.e.n.V.j.t._ { ........X.......................o.......X.X.} _ ` ~ / ..X.X.} ] ` ( ) ....O................. ...>.x.B.",
"..X.X.^ W ! 6.j.d.;.! W ( O.O.....o.........o.....................X.X.) W W { O...X...) W W ) ........................ . .>.x.N.",
"..X.X.../ ~ _ | | ! ~ / .............................................. ./ ( ..O.O.......( ( ..o.X.........................>.z.N.",
"......X.X.{ Q 1 2 Q ) O...............o.................................X...............O............................. ...:.7.a.",
"......X.O...( ^ ^ ) ..X.......$.l j j j j j j j j j j j j j j x j j j j j j j j j j j j j j j l $.........................} _ ` ",
"..........X...X..... .........$.z n n n n n n n n n n n n n n g n n n n n n n n n n n n n n n z $.....o.....o...........O.{ W 2 ",
"............X.O.X.X.........} =.z n n n n n n n n n n n n m n n n n n n n n n n n n n n n n n z -...........................( ( ",
"..............} +.t.y.y.t.-.-.u.b J J J J J J J J J J J J J J J J J J J J J J J J J J J J J J v u.-.-.-.-.-.-.@.:.........X.....",
"..............@.w c c v c k k v F.Y.R.Y.Y.Y.Y.Y.Y.Y.Y.Y.Y.Y.Y.Y.Y.Y.Y.Y.Y.Y.Y.Y.Y.Y.Y.Y.Y.R.R.F.v k k z k z k w @...........X.X.",
"..o.....o...O.#.q n n n g g n L R.!.!.Q.Q.Q.Q.Q.Q.Q.Q.Q.Q.Q.Q.Q.Q.Q.Q.Q.Q.Q.Q.Q.Q.Q.Q.Q.Q.!.Q.Y.J g g n n n M k $...............",
"..............=.c M n n n g g L R.Q.!.Q.Q.Q.Q.Q.Q.Q.Q.Q.Q.Q.Q.Q.Q.Q.Q.Q.Q.Q.Q.Q.Q.Q.Q.!.Q.!.Q.R.J g g n m n n z -...............",
"......o.-.-.-.u.b J J J J L J F.Y.R.E.E.R.R.E.R.R.R.E.R.R.R.E.R.R.E.R.R.E.R.R.E.E.E.R.R.R.R.R.Y.F.L L J J J J v u.-.-.=.........",
"........l k z b F.Y.R.Y.Y.R.Y.Y.I.L.L.P.P.L.P.L.L.P.L.L.P.L.P.L.P.P.I.L.L.P.P.P.P.L.P.L.P.L.L.I.Y.Y.Y.Y.Y.R.Y.F.v k k q X.X.....",
"........M n n J Y.Q.Q.Q.Q.Q.Q.E.L.U I T R R R R R R G.U G.U G.U G.U U U R R U G.U U R U R U U P.E.Q.Q.Q.Q.Q.Q.R.J n n M X.O.....",
"........M n n J R.Q.!.Q.Q.Q.Q.E.P.I I U U U U U U U U U U U U U U U U U U U U U U U U R U U I P.E.Q.!.Q.Q.Q.Q.R.J n n M ........",
"........j n n J Y.Q.Q.W.E.R.E.U.I.P.L.P.G.R U R R R R R R R R R U G.U U G.U G.U R R R R G.U U L.U.R.E.E.E.Q.Q.Y.J n n j ........",
".. . .:.j n n J Y.Q.Q.E.I.L.L.I.U.E.E.U.P.U U R R R R R R R R R R R R R U U G.U R R R R R R R G.L.P.P.I.E.Q.Q.Y.J n n j ........",
"....O.1.x n n J Y.Q.Q.T.P.I I P.E.!.!.E.P.R U R R R R R R U R R R G.R R U G.G.R R R R R R R R R U U U P.R.Q.Q.Y.J n n j ........",
"O.:.1.N.A n n J Y.Q.Q.R.L.I I P.E.!.!.E.L.R U R R G.R R U G.U U R R R R R R U R R R R R R R R R U I U L.R.Q.Q.Y.J n n j ........",
"O.,.c.A.A n n J Y.Q.Q.R.P.U U H.Y.E.E.U.L.R U R R R R R G.U G.G.R R R R R R R R R R R R R R R R G.U U L.E.Q.Q.Y.J n n j ........",
"O.,.c.l.M n n J Y.Q.Q.E.L.R R R L.P.P.K.G.R R R G.G.U G.G.G.G.U R U R R G.G.U G.G.U U G.G.R R G.G.U U L.R.Q.Q.Y.J n n j X.......",
"O.,.8.;.A N N E R.Q.Q.E.I.H.H.H.H.H.H.H.G.G.R G.G.G.G.G.G.G.G.G.L.G.G.L.G.G.G.G.G.G.R G.H.H.H.H.H.H.H.I.E.Q.Q.R.E N N A X.......",
"..} _ ! j m N E R.Q.Q.E.P.G.R H.G.R R R R R R G.G.G.G.G.G.G.G.G.G.G.G.G.G.G.G.G.G.R R G.H.H.L.H.H.R G.P.E.Q.Q.R.Y N n A ........",
"..) W W f d d x F.E.W.I.H C x r C r r Z Y T T Y P V V V D V V V V V V V V V V P Y T T G r r x C C e x F Y.W.E.L.x d d f ........",
"..{ ( ) - * - 9 F I.I.H 0 > : > > : > 9 h S L B a s s i i i i i i i i i i i s a B D S h 9 > : > > % > 0 H I.U.F 9 = * ; ........",
"..X.X.X.@ X O > r K.K.x - .   X X . . * d K N p y u t u u u u u t t u u t t t y p N K d * . . X O   . - e K.K.C > o X @ ........",
"..X.X.X.o X O & r K.H.x % .   X X . . * d K K p y u u u u u u u t t t t u t t y p N K d * .   X X   . % r H.J.x : X X @ ........",
"........@ O + > C J.H.Z 0 : : > > : > 9 h S L B a s s i i i i i i i i i i i s a B L S h 9 > : > > : : 0 Z K.H.C > + O @ ..o.....",
"........# O + , r H.K.T Z r r r C r r Z G U T Y P V V V V V V V V V V P V V V P Y T T G Z C r C C C x r T K.H.C , + + @ ........",
".. .....+ O + , Z K.P.K.P.K.P.P.K.P.P.K.K.K.K.K.J.J.K.J.J.J.J.J.J.J.J.J.K.J.J.J.K.K.K.K.K.K.P.P.K.K.P.J.K.P.K.Z , + O + ........",
"........+ O + , Z J.K.H.K.P.K.P.K.P.K.H.P.H.H.H.J.J.J.J.J.J.J.J.J.J.J.J.J.J.J.J.H.H.H.J.P.P.K.K.P.K.P.K.H.K.K.C , + O + ........",
":.:.O...5 $ 5 7 q Z Z C C C C r C C r r C C C C r C C C C C r C C C C C C r C C C C C C C C C C C C C C C Z Z q 7 5 $ 5 ........",
"q.1.:...' ' ' 6 8 , > > , , , > > > > > > > > > , , > > > > > > > > > > , > , > , , > > , > > > , , , > , , > 8 6 ' ' ' ........",
"m.g.:.O.:.:.X.' $ + + + + + + + + + + + + + + + + + + + + + + + + + + + + + + + + + + + + + + + + + + + + + + $ ' ..:.:.....O.:.",
"N.r.:.:.1.4.>.' $ O O O O O o O O O O O O O O O o O O O O O O O O O O O O O O O O O O O O O O O O O O O o O O $ ' :.2.1.:.O.1.q.",
"N.c.1.,.w.8.:.' 5 @ @ @ @ @ @ @ # # @ @ @ @ @ # @ @ @ @ @ @ @ @ @ @ @ @ @ # # # @ @ @ @ @ @ @ @ @ @ @ @ @ @ @ 5 +.3.b.c.<.1.v.B.",
"B.N.v.e.%._ ) X...............:.4.4.:. .....................o.............,.v.v.>. . .......O.X.X.............:.1.b.C.m.c.v.B.Z.",
"S.C.l.6.! W / ................>.4.4.:................................... .:.8.0.:......................... . .o.7.j.A.S.S.B.h.s.",
"N.l.*.! Q ( ..........o.......O.:.>.O.....................................} _ _ } ..O.........................) _ *.d.S.D.k.&.| ",
"p.;.! W ) O.O...................................o.....O.o.............O.X.) W W ) ..X.....................O.,.:.Q ! *.d.k.;.4 1 ",
"[ ! ~ / ..X...............................O...........................X... .( ( ........................ .:.4.2.} Q ! | | 3 1 < ",
"2 Q ) O.O.......................o.........o...................o...........X.X.............................:.0.e.<...Q 2 2 2 2 2 ",
"/ ( ..O.O.......o...................................o...o.................X.X.X.O.....................X...} _ ;.e.1...Q ^ ( ) ) ",
"{ ....X.O.....................................o...............................X.......o...............O...) W | s.r.>. ./ ) } .."
};
