/* XPM */
static char *result[] = {
/* columns rows colors chars-per-pixel */
"64 64 215 2 ",
"   c #010000",
".  c #0A0000",
"X  c #060D00",
"o  c #0B0B0A",
"O  c #140001",
"+  c #1B0102",
"@  c #170C09",
"#  c #001700",
"$  c #1B1802",
"%  c #131514",
"&  c #1A191A",
"*  c #1B1A1A",
"=  c #220103",
"-  c #2B0104",
";  c #250D04",
":  c #360707",
">  c #3D0508",
",  c #281704",
"<  c #371707",
"1  c #3C150B",
"2  c #3D1C0C",
"3  c #221C1D",
"4  c #35171B",
"5  c #032300",
"6  c #082C00",
"7  c #1A2901",
"8  c #003200",
"9  c #093100",
"0  c #003D00",
"q  c #193601",
"w  c #1B3B09",
"e  c #282706",
"r  c #2D2A0A",
"t  c #332409",
"y  c #3B230C",
"u  c #332C0C",
"i  c #3A2A0E",
"p  c #25370A",
"a  c #2C320B",
"s  c #33310D",
"d  c #3A2A10",
"f  c #3B3212",
"g  c #371C20",
"h  c #313333",
"j  c gray23",
"k  c #430309",
"l  c #47070A",
"z  c #4B030B",
"x  c #53040D",
"c  c #58040F",
"v  c #43150C",
"b  c #4D130E",
"n  c #441B0E",
"m  c #4A1A0E",
"M  c #53100D",
"N  c #4D0C15",
"B  c #5C0511",
"V  c #5C0D12",
"C  c #481A10",
"Z  c #4A1C10",
"A  c #551211",
"S  c #5A1212",
"D  c #521A13",
"F  c #640512",
"G  c #6C0615",
"H  c #640B14",
"J  c #6B0B16",
"K  c #720616",
"L  c #790717",
"P  c #720A17",
"I  c #760718",
"U  c #7C071A",
"Y  c #740C19",
"T  c #7D0A1B",
"R  c #631214",
"E  c #6A1116",
"W  c #73101A",
"Q  c #472712",
"!  c #562417",
"~  c #67242E",
"^  c #004300",
"/  c #0B4500",
"(  c #004E01",
")  c #0A4509",
"_  c #024D0B",
"`  c #0C4C0B",
"'  c #144708",
"]  c #1A450C",
"[  c #005300",
"{  c #0C5605",
"}  c #005D00",
"|  c #00540B",
" . c #005C0B",
".. c #2E5A19",
"X. c #3B501C",
"o. c #006301",
"O. c #086100",
"+. c #006C00",
"@. c #00620C",
"#. c #006B0C",
"$. c #007300",
"%. c #007B00",
"&. c #00710D",
"*. c #007B0E",
"=. c #187C05",
"-. c #016516",
";. c #007A16",
":. c #2B731D",
">. c #3D5F22",
",. c #42561E",
"<. c #4B5F27",
"1. c #436426",
"2. c #4E4E4E",
"3. c #545858",
"4. c #595B5B",
"5. c #615A5B",
"6. c #715257",
"7. c #696B6B",
"8. c #8A0317",
"9. c #84071B",
"0. c #830A1C",
"q. c #8C0B1E",
"w. c #94061C",
"e. c #900B1F",
"r. c #8A101E",
"t. c #8E0D20",
"y. c #940C21",
"u. c #9B0D23",
"i. c #9F1025",
"p. c #A20E25",
"a. c #A80E27",
"s. c #A51027",
"d. c #A91027",
"f. c #AC1129",
"g. c #B4122B",
"h. c #BC142E",
"j. c #C1152F",
"k. c #803C45",
"l. c #8A454E",
"z. c #008501",
"x. c #008B03",
"c. c #00830E",
"v. c #008C0C",
"b. c #009305",
"n. c #00950A",
"m. c #00990C",
"M. c #008512",
"N. c #008D12",
"B. c #068A16",
"V. c #168611",
"C. c #009412",
"Z. c #009C13",
"A. c #16931A",
"S. c #288917",
"D. c #00A20E",
"F. c #00A515",
"G. c #00A817",
"H. c #00A41C",
"J. c #00A91B",
"K. c #33852D",
"L. c #399726",
"P. c #359925",
"I. c #36902A",
"U. c #389F2B",
"Y. c #00A724",
"T. c #00AD24",
"R. c #1BAC2E",
"E. c #00B027",
"W. c #00B22A",
"Q. c #00B632",
"!. c #01B936",
"~. c #0CB937",
"^. c #04BB38",
"/. c #14BB39",
"(. c #23AD2F",
"). c #3CA02C",
"_. c #25AE30",
"`. c #2EAE32",
"'. c #2FB134",
"]. c #2DBC3B",
"[. c #3CB136",
"{. c #3CB63B",
"}. c #39BD3E",
"|. c #468A35",
" X c #499932",
".X c #4C943A",
"XX c #46A937",
"oX c #51AB3C",
"OX c #46B33A",
"+X c #53B63E",
"@X c #32C03F",
"#X c #4BBC41",
"$X c #56B842",
"%X c #5ABA43",
"&X c #59B946",
"*X c #37C241",
"=X c #3CC242",
"-X c #43C444",
";X c #4AC546",
":X c #4EC648",
">X c #4BCA4A",
",X c #53C649",
"<X c #54C94B",
"1X c #5DCA4D",
"2X c #5BD052",
"3X c #65C94E",
"4X c #64CD51",
"5X c #6ACF53",
"6X c #68D355",
"7X c #74D157",
"8X c #848484",
"9X c #999697",
"0X c #A8898D",
"qX c #BF9FA4",
"wX c #B2B0AF",
/* pixels */
"F.F.F.F.F.F.F.F.H.G.F.F.F.F.F.J.G.G.F.F.F.G.G.G.F.D.F.W.#X*XW.F.F.F.G.F.F.F.F.F.H.F.F.F.F.F.F.F.G.J.J.J.G.F.D.W.}.].E.W.].{.E.J.",
"F.F.F.F.F.F.F.F.F.F.F.F.F.F.F.J.T.E.J.F.F.J.T.T.G.F.J.!.;X*XW.F.G.T.G.F.F.F.F.F.F.F.F.F.F.F.F.G.T.E.E.T.J.D.F.J.`.(.Y.T.(.`.Y.F.",
"H.F.F.F.F.H.F.F.F.F.F.H.F.F.F.E.^.^.T.D.F.E./.!.T.T.!.,X1X].W.W.!./.T.F.F.G.F.F.F.F.F.F.F.F.F.T.!.-X-X!.T.F.F.Z.N.v.Z.Z.C.M.Z.F.",
"F.F.F.F.F.F.F.F.F.F.F.F.F.D.F.W.;X;XW.D.m.W.;X;X!.W.=X5X5X-XQ.^.;X-XW.F.F.H.F.F.F.F.F.F.F.F.F.E.-X7X7X-XE.F.D.n.z.x.m.m.z.z.m.F.",
"F.F.F.F.F.F.H.F.F.F.F.F.F.D.F.W.;X;XW.D.D.E.=X3X:X{..X.XI.K.K.K.|.K.;.#.#.#.#.*.C.Z.F.F.F.D.F.E.-X7X7X-XT.F.D.F.b.m.Z.F.m.n.F.F.",
"F.F.F.F.F.F.F.F.F.F.F.F.F.F.F.T.`.`.T.F.F.Y._.$X4X&X$X1.>.1.1.1.>...` | | | | @.*.Z.F.F.F.F.F.T.Q.-X;XQ.J.F.F.F.G.G.F.G.F.G.F.F.",
"F.F.F.F.F.F.F.F.F.F.F.F.F.G.F.Z.N.N.Z.G.G.m.v.L.oX.X<.Q D Z D ! Z Z Z Q n m n u | *.C.F.F.F.F.H.T.T.E.T.J.F.F.G.G.G.G.F.F.G.F.F.",
"F.F.F.F.H.F.F.F.G.F.F.F.F.G.G.m.z.z.m.G.G.m.z.*.:.,.! Y U 0.0.0.0.0.0.0.0.0.T V u  .*.Z.F.F.F.F.F.F.F.F.F.F.F.F.F.F.F.F.F.F.F.F.",
"F.F.F.F.F.F.F.F.F.F.F.F.F.J.G.Z.n.b.F.G.F.F.v.o.p Z W t.u.y.u.y.y.u.s.f.g.f.s.t.R d | *.C.F.F.F.F.D.F.F.F.F.H.F.F.F.F.F.F.F.F.F.",
"E.T.J.D.F.F.F.F.H.F.F.H.F.F.F.G.G.G.F.F.F.Z.*.] Q J T 0.0.0.0.T 0.t.s.h.j.j.g.f.t.R u  .c.C.F.F.F.F.F.H.G.F.F.F.F.F.F.H.G.F.H.F.",
"*X^.T.F.F.F.F.F.F.F.F.F.F.F.F.G.G.G.G.F.C.*.` Q Y 0.G B x z z z z V 0.s.h.h.h.h.f.q.R d | *.C.F.F.F.F.F.F.F.F.F.F.F.F.F.F.F.F.F.",
"@X^.T.F.F.F.F.F.F.F.F.F.F.F.F.F.F.F.F.C.*.` Q Y 0.K z - + O O O O - x T i.g.h.h.g.d.q.R u  .M.Z.F.F.F.F.F.F.F.F.F.F.F.F.F.F.F.F.",
"E.T.J.F.F.F.F.F.F.F.F.F.F.F.F.F.F.F.C.;.] Q W 0.P z = .           . = z T i.g.h.h.h.p.9.A r #.C.F.F.F.F.F.F.F.F.F.F.F.F.H.F.F.F.",
"F.F.F.F.F.F.D.F.F.F.F.F.F.F.F.F.F.Z.;._ Q W 0.K k +                 . - x 0.s.h.h.h.f.y.G 2 | v.F.F.F.F.F.F.H.F.H.F.F.F.F.F.F.F.",
"D.F.F.F.F.F.F.F.F.F.F.F.F.F.H.F.Z.N.| y Y t.0.B = .                     - F y.g.j.h.f.u.L b ` ;.C.Z.F.F.F.F.F.F.F.F.F.F.F.F.G.F.",
"F.F.F.F.F.F.T.T.J.F.F.F.F.F.F.F.F.M.] C q.i.L k +                       + z 0.f.h.h.f.u.0.S s  .M.N.F.F.F.H.F.F.F.F.F.F.F.F.F.F.",
"F.F.F.D.F.T.!./.E.D.D.F.F.F.F.F.Z.M.] b q.u.L N g 3 o           & * o   + z 9.g.h.f.a.u.y.T S a #.*.F.F.H.G.F.F.F.F.F.F.F.F.F.F.",
"F.F.F.G.E.!.,X@XE.G.E.E.J.D.F.G.F.M.] m 0.w.L ~ 6.5.j o       & 2.3.h @ = z q.f.g.f.p.u.u.q.G 2  .*.F.F.F.F.F.F.F.F.F.J.E.E.G.F.",
"F.F.D.T.!.<X4X@XE.E.!./.E.F.D.F.Z.M.] m q.8.K k.0X9X4.&       h 8X9X4.3 = x 9.f.f.u.y.y.y.q.G 2  .*.F.F.F.F.F.H.F.F.F.E././.E.G.",
"F.F.F.J.`.%X3X>X^.W.[.`.T.F.F.F.Z.M.] Z 9.8.K l.qXwX7.3       j 9XwX7.3 = z 9.a.a.y.0.T 0.q.J 2  .;.F.F.F.F.F.F.F.F.F.Y.`.OXW.E.",
"F.G.G.m.n. X+X2X>XOXP.N.Z.G.G.F.F.M.] m 9.8.G k.0X9X4.&       h 8X9X3.% + z 9.f.a.q.G G T 0.G 2  .*.F.F.F.F.F.F.F.G.G.m.C.P.[.}.",
"G.G.G.m.z.c.U.+X+X Xv.z.b.G.G.F.Z.M.] v T 8.G ~ 6.5.h o       * 2.3.h o - x q.f.a.q.F F L T F t @.*.F.F.F.F.F.F.G.G.G.b.z.B.+X1X",
"F.F.F.D.m.v.v.S.S.B.v.m.D.F.G.F.Z.M.] v I 9.G l 4 * o           o % o @ : F y.d.d.9.F B G G N p #.M.F.F.F.F.H.F.F.G.G.m.b.Y.#X<X",
"F.F.F.G.G.m.x.$.%.z.Z.G.G.G.F.F.F.M.` 2 G 9.G k O                   . - c T u.d.p.q.F x c b a | c.C.F.F.F.F.F.F.F.F.G.D.F.Y._.[.",
"F.F.F.G.G.F.m.b.x.m.D.G.G.F.F.F.Z.N. .r S K G z =                   = z T y.p.p.y.Y A < < p @.M.Z.F.F.F.G.F.H.F.F.F.F.G.G.F.N.B.",
"F.F.F.F.F.G.F.G.F.F.F.F.F.F.F.F.F.C.;.| i S H B k + .           . = z K y.p.u.y.T D a ' | -.M.Z.F.F.F.F.F.F.F.F.F.F.F.G.G.Z.z.%.",
"F.F.F.F.F.G.G.G.F.G.F.F.F.F.F.F.F.F.C.*.| u A H B k = .       . - z G 0.t.y.t.L A a  .;.M.C.Z.F.F.H.F.F.F.F.F.F.F.F.F.J.F.F.n.n.",
"G.F.H.F.F.F.F.G.E.E.J.F.F.F.F.D.F.F.F.Z.*._ n R K F k - = + + - x G q.q.0.U K V u | c.F.F.F.F.F.F.F.H.F.F.F.F.F.F.F.F.F.F.G.F.G.",
"F.F.F.H.F.F.F.E././.E.F.F.D.F.F.F.F.F.F.c. .r S T 9.G B z z z B I t.u.y.I G F b ] #.C.G.F.F.F.F.F.F.F.F.F.F.F.F.F.H.F.F.F.F.G.G.",
"F.F.F.F.F.F.F.E././.E.D.D.J.E.E.J.F.F.C.*.| i E e.u.y.q.0.T T t.u.s.p.y.T I G S s  .*.C.F.H.F.F.F.F.F.H.F.F.H.F.F.F.F.F.F.F.F.F.",
"F.F.F.F.F.F.F.G.E.E.G.D.D.E././.T.F.n.*._ i R r.d.g.g.f.f.f.f.g.g.g.d.u.y.y.q.0.R s  .*.C.F.F.F.F.F.F.F.F.F.H.F.F.F.F.F.F.F.F.F.",
"H.F.F.F.F.F.F.F.F.F.F.D.G.E././.T.Z.*._ y J q.d.h.h.h.j.j.j.h.j.j.h.g.f.d.g.f.s.t.H u  .M.C.F.F.H.F.F.F.F.F.G.F.F.F.F.F.F.F.F.F.",
"F.F.F.F.F.F.F.F.F.F.F.F.F.G.T.T.H.C.| t V q.d.g.j.j.j.j.j.j.j.h.j.h.h.h.h.h.h.g.p.0.S a #.C.F.F.F.F.F.F.F.F.F.F.F.F.F.F.F.F.F.F.",
"F.F.D.F.F.F.F.F.F.G.F.F.F.F.F.F.Z.M.] 1 G u.f.h.h.h.h.h.h.h.h.h.h.h.h.j.h.h.j.h.f.y.G 2  .N.F.F.F.F.F.F.F.F.F.F.F.F.F.F.F.F.F.F.",
"F.F.F.F.F.F.F.F.F.F.F.F.F.F.F.F.C.M.] l Y u.g.h.j.h.h.h.h.h.h.h.h.h.h.h.h.j.j.h.g.y.K n  .C.F.F.F.F.F.F.F.F.F.F.F.F.F.F.F.F.F.G.",
"F.G.T.E.G.F.F.F.F.F.F.F.F.F.F.F.F.N.` v Y p.g.h.h.h.h.h.h.h.h.h.h.h.h.h.h.h.j.h.g.u.K y  .N.F.F.F.G.T.Y.F.F.F.J.T.E.G.F.F.F.F.F.",
"F.T.~./.E.F.F.F.F.F.F.F.F.F.F.F.Z.M.` v 0.f.h.h.j.h.h.h.h.h.h.h.h.h.h.h.h.h.h.j.h.f.9.Z _ *.Z.Z.F.T.^./.T.D.D.T././.E.F.F.F.F.F.",
"E.^.>X-XE.F.D.F.F.F.F.F.F.F.F.G.C.M.) m 0.g.h.h.h.h.h.h.h.h.h.h.h.h.h.h.h.h.h.j.h.g.e.R u | c.C.F.E.-X-XE.F.J.Q.OX`.J.F.F.F.F.F.",
"-X,X4X-XE.F.F.F.F.F.F.F.F.F.F.F.M.&.w A t.g.j.h.j.h.h.h.g.h.g.h.h.h.h.h.h.h.h.j.h.h.p.0.A a #.n.D.W.-X-XE.T.!.{.P.N.Z.F.G.F.F.F.",
"4X3X$X(.H.F.F.F.F.H.F.F.F.F.F.F.@._ y J u.g.h.j.h.h.h.h.g.g.g.h.h.h.h.h.h.h.h.j.h.h.d.y.J 2  .v.F.E.-X*XW.W.=X$XA.z.n.G.G.H.F.F.",
"3X%XL.v.C.F.G.F.F.F.F.F.F.F.F.F.w r V 0.d.h.h.h.h.j.j.g.f.f.g.h.h.h.h.h.h.h.h.j.h.h.f.y.G 2  .v.F.W.-X*XW.E.-X;XY.b.m.F.F.F.G.F.",
"XXU.v.z.m.G.G.F.H.F.F.F.F.F.F.G.u 1 G u.g.g.h.h.h.j.h.g.p.u.d.g.h.h.h.h.h.h.h.h.j.h.d.y.F 2 @.n.F.Y.`.(.Y.J.(.`.Y.G.F.F.F.G.F.F.",
"V.v.v.m.F.F.G.F.F.F.F.F.F.F.F.T.i v K y.d.g.h.h.h.h.h.d.u.y.p.g.h.h.h.h.h.h.h.h.h.g.d.q.G y @.C.F.Z.N.N.Z.Z.N.N.F.G.F.F.F.F.F.F.",
"z.z.m.G.G.F.F.F.F.F.F.G.H.F.F.E.f n G q.p.f.g.h.h.h.g.p.9.9.y.s.g.h.h.h.h.h.h.h.h.h.d.y.J 2  .v.F.m.z.x.m.m.x.z.n.G.G.G.F.F.F.F.",
"n.m.F.G.F.F.F.F.F.F.F.F.F.F.F.G.u 1 P q.u.p.g.h.h.g.f.q.K F U u.d.g.h.h.g.h.h.h.h.g.p.y.K m _ *.Z.m.n.m.F.Z.m.n.F.G.G.H.F.F.F.F.",
"G.F.G.F.F.F.F.F.F.F.F.H.F.F.F.F.r 1 G q.u.u.f.g.g.d.u.9.B B G q.p.f.g.h.g.g.g.h.g.f.p.u.0.S u  .c.C.F.F.F.G.F.G.F.F.F.F.F.F.F.F.",
"G.G.G.F.F.F.F.F.F.F.F.F.F.F.F.F.r 1 G q.y.u.f.g.a.p.w.K x z F L y.p.f.f.d.d.g.f.a.u.u.u.y.T S a #.c.F.G.F.G.G.G.F.F.F.F.F.F.F.F.",
"F.F.H.F.F.F.F.F.F.F.F.F.F.F.F.F.r v K e.y.u.p.s.p.y.9.F > : z F 0.y.p.a.s.d.d.d.p.u.e.u.u.e.G n  .;.F.F.F.F.F.F.F.F.F.F.F.F.G.H.",
"F.F.F.F.F.F.F.F.F.F.F.H.F.F.F.F.r 1 G 0.q.y.y.u.u.q.K z + O = k F U e.i.d.d.d.s.u.y.q.q.y.t.K n -.*.F.F.F.F.F.F.F.F.F.F.F.F.F.F.",
"F.F.F.F.F.F.F.F.F.F.F.F.F.F.F.F.a < G 9.9.U q.y.u.q.F : O   . = z P 9.u.a.s.p.w.u.q.0.U 0.0.F Q -.*.D.F.F.F.F.F.F.F.F.F.F.F.F.F.",
"F.F.F.H.F.F.F.F.F.J.F.F.F.F.H.F.w r A P K K 0.y.t.U c - .     . - x L e.u.u.e.e.y.9.G G I K D X.;.c.D.F.F.F.F.F.F.F.F.F.F.F.F.F.",
"F.F.F.F.F.F.F.F.F.F.F.F.F.F.F.F.#.` i M F K 0.q.0.G k = .       + z K y.w.q.L L 0.U F c B A Q ..M.n.F.F.F.F.F.F.F.F.F.F.F.G.J.T.",
"F.F.F.F.F.F.F.F.F.F.F.F.F.G.F.F.N.*.| u M P 0.9.G z = . X X X X + k G 9.q.P M b H K B z : r ' &.N.Z.G.F.F.F.F.F.F.G.F.F.F.T.!.].",
"F.F.T.T.G.F.F.F.F.F.F.F.H.F.F.F.F.Z.&.' y V G F x - O   # 8 8 6 , : x H J M t e 2 z l : e _ $.x.C.J.G.F.F.F.F.G.T.J.F.F.J.Q.;X<X",
"G.T.~./.E.F.F.G.F.G.F.F.F.F.F.F.F.Z.z.} w , > > : @ @ 5 ^ } } ( 7 ; : < < e / / q , , e / +.n.F.F.F.F.F.F.F.F.E./.Q.Y.G.Q.:X1X4X",
"E.!.<X-XW.F.D.F.F.F.F.F.F.G.T.T.C.x.$.+.{ q $ ; $ 7 9 ^ } $.$.} 7 $ $ 7 e / } o.[ q p ' [ $.x.m.F.F.F.F.F.F.F.W.-X>X!.Q.=X4X4X4X",
"-X,X4X-XE.D.F.F.F.F.F.F.F.E././.%.%.$.$.o.[ 9 5 6 ^ [ o.+.$.$.o.0 6 8 ^ ( o.+.$.+.} { O.+.$.$.x.m.F.F.F.F.D.F.E.-X1X:X-X,X4X4X4X",
"4X3X$X(.H.F.F.F.H.F.F.F.F.T././.z.%.$.$.$.o.[ 0 0 ^ } +.$.$.$.o.( 0 0 ^ } +.$.$.$.$.$.+.$.$.%.x.Z.F.F.F.F.D.F.H.R.$X4X6X5X,XOX+X",
"3X$XL.v.C.F.F.G.F.F.F.F.F.G.T.E.C.x.%.$.$.$.o.[ 0 ^ [ +.$.$.$.#.o.[ 0 ^ [ +.$.$.$.$.$.+.$.%.x.Z.G.F.F.F.F.G.F.m.v.L.%X6X6X$XP.A.",
"XX).c.z.m.G.G.G.F.F.F.F.F.F.F.F.F.Z.x.%.z.%.$.} ^ 0 [ +.$.$.$.$.+.o.^ 0 [ o.$.$.$.$.%.$.%.x.Z.F.G.F.F.F.F.E.W.H.x.z.U.+X+XU.=.$.",
"V.v.v.m.Z.F.G.F.F.G.F.F.F.F.F.D.F.F.C.m.m.v.%.$.$.$.$.$.$.$.$.$.$.$.$.$.$.$.$.+.$.%.n.n.x.Z.F.G.F.F.F.F.F.E./.~.F.x.z.S.S.V.+.+.",
"z.z.m.G.G.F.F.G.F.F.F.F.F.F.F.F.F.F.F.F.F.m.z.$.$.$.$.$.%.$.$.$.$.$.%.$.$.%.$.$.$.z.C.Z.m.F.F.F.F.F.F.F.F.Y.'.{.Q.H.x.%.$.%.%.z.",
"b.n.F.G.H.G.F.F.H.F.F.F.G.G.F.F.F.F.F.F.F.F.F.F.F.F.G.F.F.F.F.F.F.F.F.F.F.F.G.G.G.F.F.F.F.F.F.G.F.F.F.F.F.Z.N.U.[.!.F.x.b.b.n.m.",
"F.F.F.G.G.F.F.F.F.F.F.F.F.F.F.F.F.F.F.F.F.F.F.F.F.F.F.F.F.F.F.F.F.F.F.F.F.G.G.G.F.F.F.F.F.F.F.F.F.F.F.G.F.n.z.S.OX@XE.D.m.Z.F.Z."
};
