/* XPM */
static char *result[] = {
/* columns rows colors chars-per-pixel */
"64 64 217 2 ",
"   c #010000",
".  c #0A0001",
"X  c #060D00",
"o  c #0B0B0A",
"O  c #140001",
"+  c #1B0102",
"@  c #001700",
"#  c #1B1802",
"$  c #131514",
"%  c #1A191A",
"&  c #1B1A1A",
"*  c #220103",
"=  c #2B0104",
"-  c #250D04",
";  c #360707",
":  c #3D0508",
">  c #291704",
",  c #361608",
"<  c #3D140B",
"1  c #3D1C0C",
"2  c #221C1D",
"3  c #35171B",
"4  c #032300",
"5  c #082C00",
"6  c #1A2901",
"7  c #003200",
"8  c #0A3000",
"9  c #003D00",
"0  c #1B3401",
"q  c #183A06",
"w  c #292707",
"e  c #2C2B0A",
"r  c #34240A",
"t  c #3B240C",
"y  c #342B0D",
"u  c #3B2A0E",
"i  c #243708",
"p  c #2C320C",
"a  c #32300D",
"s  c #3A2E11",
"d  c #3D3717",
"f  c #371C20",
"g  c #313333",
"h  c gray23",
"j  c #430309",
"k  c #47070A",
"l  c #4B030B",
"z  c #53040D",
"x  c #58040F",
"c  c #43150C",
"v  c #4C120E",
"b  c #481B0F",
"n  c #53100D",
"m  c #4D0C15",
"M  c #5C0511",
"N  c #590D11",
"B  c #4B1711",
"V  c #4D1A11",
"C  c #551211",
"Z  c #5B1212",
"A  c #521A13",
"S  c #5E1914",
"D  c #640512",
"F  c #6C0615",
"G  c #640C14",
"H  c #6B0C16",
"J  c #720616",
"K  c #790717",
"L  c #730A17",
"P  c #760718",
"I  c #7C071A",
"U  c #740C19",
"Y  c #7D0A1B",
"T  c #641114",
"R  c #6A1116",
"E  c #73101A",
"W  c #442611",
"Q  c #492511",
"!  c #542116",
"~  c #562619",
"^  c #473417",
"/  c #67242E",
"(  c #014300",
")  c #004E00",
"_  c #0B4907",
"`  c #024D0B",
"'  c #134302",
"]  c #184609",
"[  c #134B0C",
"{  c #005301",
"}  c #005D00",
"|  c #085F00",
" . c #00550A",
".. c #005C0B",
"X. c #155211",
"o. c #294B12",
"O. c #364C19",
"+. c #2D5718",
"@. c #016400",
"#. c #006C01",
"$. c #00620C",
"%. c #006A0C",
"&. c #086A0D",
"*. c #007300",
"=. c #007C00",
"-. c #00740C",
";. c #007A0E",
":. c #0F7F08",
">. c #007A15",
",. c #29691D",
"<. c #3F5620",
"1. c #246D20",
"2. c #3D6323",
"3. c #436728",
"4. c #44772C",
"5. c #4E4E4E",
"6. c #545858",
"7. c #595B5B",
"8. c #615A5B",
"9. c #715257",
"0. c #696B6B",
"q. c #8A0317",
"w. c #84071B",
"e. c #830A1C",
"r. c #8C0B1E",
"t. c #94061C",
"y. c #900B1F",
"u. c #8A101E",
"i. c #8E0D20",
"p. c #940C21",
"a. c #9B0D23",
"s. c #9F1025",
"d. c #A20E25",
"f. c #A80E27",
"g. c #A51027",
"h. c #A91027",
"j. c #AC1129",
"k. c #B4122B",
"l. c #BC142E",
"z. c #C1152F",
"x. c #803C45",
"c. c #8A454E",
"v. c #008501",
"b. c #008B03",
"n. c #00830E",
"m. c #008B0C",
"M. c #009305",
"N. c #00960A",
"B. c #00990C",
"V. c #008411",
"C. c #008D12",
"Z. c #04891A",
"A. c #168611",
"S. c #009412",
"D. c #009C13",
"F. c #009B1C",
"G. c #16931A",
"H. c #288917",
"J. c #00A20E",
"K. c #00A515",
"L. c #00A817",
"P. c #00A41C",
"I. c #00A91B",
"U. c #009224",
"Y. c #129F2F",
"T. c #35842D",
"R. c #289C28",
"E. c #359825",
"W. c #389F2B",
"Q. c #3B8C32",
"!. c #00A421",
"~. c #00AD24",
"^. c #00AF29",
"/. c #00B027",
"(. c #00B22A",
"). c #18A930",
"_. c #00B632",
"`. c #01B936",
"'. c #0CB937",
"]. c #04BB38",
"[. c #14BB39",
"{. c #23AD2F",
"}. c #25AE30",
"|. c #2EAE32",
" X c #2FB134",
".X c #2DBC3B",
"XX c #3CB136",
"oX c #3ABA3C",
"OX c #409927",
"+X c #468B34",
"@X c #46AC35",
"#X c #46B33A",
"$X c #53B63E",
"%X c #32C03F",
"&X c #3EBD42",
"*X c #4BBC41",
"=X c #54B342",
"-X c #56B942",
";X c #5ABA43",
":X c #3CC242",
">X c #43C444",
",X c #4AC546",
"<X c #4CC94A",
"1X c #53C649",
"2X c #54C94B",
"3X c #5DCA4D",
"4X c #5BD052",
"5X c #65C94E",
"6X c #64CD51",
"7X c #6ACF53",
"8X c #68D355",
"9X c #74D157",
"0X c #848484",
"qX c #999697",
"wX c #A8898D",
"eX c #BF9FA4",
"rX c #B2B0AF",
/* pixels */
"K.K.K.K.K.K.K.P.K.K.K.K.K.K.K.I.L.L.L.K.K.L.L.L.K.K.K.(.:X:X(.J.K.L.L.K.K.K.K.K.K.K.K.K.K.P.K.K.L.L.I.L.L.J.K.(.%X.X~.~.oXoX^.I.",
"K.K.K.K.K.K.K.K.K.K.K.K.K.K.K.I.~./.L.K.K.I./.I.L.K.I.`.,X%X^.K.L.~.L.K.K.K.K.K.K.L.K.K.K.K.K.L.^./.^.^.L.K.K.I.|.}.~.~.{.|.~.K.",
"P.K.K.K.P.K.K.K.K.K.P.K.K.K.K.^.].]./.J.K./.[.`.~.~._.1X3X&X~.^.`.[./.K.K.K.K.K.P.K.K.K.K.K.K.~._.>X>X`.I.K.K.S.m.C.D.D.C.C.S.K.",
"K.K.K.K.K.K.K.K.K.K.L.K.K.J.K.(.,X,X(.J.B.(.,X,X`.(.:X7X8X>X(.].,X,X(.K.K.K.K.K.K.K.K.K.K.K.K./.>X9X9X>X/.L.K.N.v.b.B.B.v.v.B.K.",
"K.K.K.K.K.K.K.K.K.K.K.K.K.J.K.(.,X,X(.B.J.(.&X=XQ.T.Q.+X+X+XT.T.+XT.>.%.-.m.D.K.K.K.K.K.K.J.K.(.>X9X9X>X/.K.J.K.N.N.D.K.B.B.D.K.",
"K.K.K.K.K.K.P.K.K.K.K.K.K.K.K.~.|.|.~.K.K.F.{.+X4.3.3.2.2.<.3.3.2.+.X. ...-.S.K.K.K.P.K.K.J.K.~._.>X,X_.~.J.K.K.L.L.K.L.K.L.K.K.",
"K.K.K.K.K.K.K.K.K.K.K.K.L.K.K.D.C.C.D.L.K.m.%.o.^ ~ ~ ! B V ! ! V B V W u [ -.S.L.K.K.K.K.K.K.K.~././.~.L.K.K.L.L.L.K.L.L.L.L.K.",
"K.K.K.K.P.K.K.K.K.K.K.K.K.L.L.B.v.v.D.L.D.*.( u Z Y e.e.e.Y e.e.Y e.e.I H Q [ ;.S.K.K.K.K.K.K.K.K.J.K.K.K.K.K.K.K.K.K.K.K.K.K.K.",
"K.K.K.K.K.K.K.K.K.K.P.K.K.L.L.D.N.N.D.D.n. .r T r.g.j.k.j.g.s.p.p.a.p.a.i.E W [ >.S.K.K.K.K.K.K.K.J.K.K.K.L.P.K.K.K.K.P.K.K.K.K.",
"/.^.K.K.K.K.K.K.P.K.K.K.K.K.K.L.L.L.D.;. .y T r.h.k.z.l.k.g.i.e.Y e.e.e.e.Y H W [ >.S.K.K.K.K.P.K.K.K.K.K.K.K.K.K.K.K.K.K.K.K.K.",
"%X].~.K.K.K.K.K.K.L.K.K.K.K.K.L.K.S.;...u T r.g.l.l.z.l.g.e.M l l l z z x J Y U Q [ -.S.K.K.K.K.K.K.K.P.K.K.K.K.K.K.K.K.L.K.P.K.",
"%X'.~.K.K.K.K.K.K.K.K.K.K.K.K.K.D.n...y T r.j.l.l.l.k.g.Y m = + O + O O = l U Y E W [ ;.S.K.P.K.K.K.K.K.K.K.K.K.K.K.K.K.K.K.K.K.",
"/./.L.K.K.K.K.K.K.K.P.K.K.K.K.K.S.%.p C e.h.l.l.l.k.s.Y z *             . + l J e.E W [ >.S.K.K.K.K.K.K.K.K.K.K.K.K.K.K.K.P.K.K.",
"K.K.K.K.K.K.K.J.K.K.K.K.K.P.K.P.C. .c F p.j.l.l.l.g.Y z =                 . + l J e.U W ` ;.D.K.K.K.K.K.K.K.P.K.K.K.K.K.K.K.K.K.",
"K.J.K.K.K.K.K.K.K.K.K.K.K.K.D.S.;.` v P a.j.l.l.k.p.D =                       * x e.p.E t  .C.K.K.P.K.K.K.K.K.K.P.K.K.K.K.K.K.K.",
"K.K.K.K.K.L.I.^.K.K.J.K.K.K.S.V...a Z e.a.h.l.l.j.r.l +                     . + j I s.u.B o.V.D.K.K.K.K.K.P.K.K.K.K.K.K.K.K.K.K.",
"K.K.K.J.J./.`.[.~.K.J.K.J.L.n.%.p C Y y.d.f.k.l.j.e.l +   o & &           o f f m P a.r.A O.Z.D.K.K.K.K.K.K.K.K.P.K.K.K.K.K.K.K.",
"K.K.K.L./.].1X%X/.L.~./.I.K.;...1 F r.a.a.d.g.k.j.r.z * o g 6.5.&       o g 8.9./ P t.r.A <.U.D.K.K.K.K.K.K.K.K.K.K.K.I././.L.K.",
"K.J.K.^.].2X5X%X~.~.`.[./.J.;...1 F r.p.y.y.a.j.j.w.l = 2 7.qX0Xg       % 7.qXwXx.J q.r.A <.U.D.K.K.K.K.L.K.K.K.K.K.K.(.[.[./.L.",
"K.K.K.L.|.;X5X<X]._.XX X~.K.;...1 F r.e.e.e.y.h.j.w.l + 2 0.rXqXh       2 0.rXeXc.J q.e.V O.Z.D.K.K.K.K.P.K.K.K.K.K.K.I.|.XX(.(.",
"L.K.K.D.N.OX;X4X<X#XR.C.S.L.;...1 F e.Y F F r.f.h.e.l * % 7.qX0Xg       $ 7.qXwXx.F q.q.v i V.D.K.K.K.K.K.K.K.K.L.L.K.B.C.E.XXoX",
"L.L.L.N.v.n.W.$X;XOXm.v.N.L.V.$.r D Y K D D r.f.j.r.z = o g 5.5.%       o g 8.9./ F q.K v i ;.K.L.K.K.K.P.K.K.P.K.L.L.N.v.Z.#X5X",
"K.L.K.J.N.m.m.H.H.V.m.N.J.L.V.&.i v F F M D r.f.j.i.D ; + o $ $           o % 3 v F w.P c q V.D.K.K.K.K.K.K.K.K.K.L.K.B.M.P.>X3X",
"K.K.L.L.L.D.v.*.=.b.B.L.L.L.S.n. .p v x z D e.d.h.a.I x = .                   O : F Y F 1 [ V.D.K.K.K.K.K.K.K.K.K.K.K.K.K.~.}.#X",
"K.K.K.L.L.K.B.M.b.B.K.L.L.K.K.S.V...i , < v U a.d.d.a.I l *                   * l F L C e ..Z.K.K.K.K.K.K.K.K.P.K.K.K.L.I.P.S.V.",
"K.K.K.K.K.L.L.K.K.K.K.K.K.K.K.K.D.V.$. .[ p A Y y.a.s.y.J l * .             * j M F C u ` ;.S.K.K.L.P.K.K.K.K.K.K.K.K.L.L.B.b.=.",
"K.K.K.K.K.L.L.L.K.L.K.K.K.K.K.L.K.F.S.Z.;...p C I r.p.y.w.J l = .       . * j M G C r  .;.S.K.K.K.K.K.K.K.K.K.K.K.K.K.L.L.D.N.M.",
"K.K.K.K.K.K.K.L././.L.K.K.K.J.K.K.K.K.K.K.V. .y N J I e.y.e.J l = + + * = j D J G t ` ;.D.L.L.K.K.K.K.K.K.P.K.K.K.K.K.K.L.L.L.L.",
"K.K.K.K.K.K.J./.[.[./.K.K.J.L.J.K.K.K.K.K.S.%.q v M F I i.a.y.P M l j z z F e.e.Z e $.C.K.K.K.K.K.K.K.K.P.K.K.L.K.K.K.K.K.L.L.L.",
"K.P.K.K.K.K.K.^.[.[./.J.J.I.~.~.I.K.K.K.S.;...p C J P e.p.d.g.p.i.e.Y e.r.p.a.p.R u  .-.S.K.K.K.P.K.K.K.K.K.K.K.K.L.P.K.K.K.K.K.",
"K.K.K.L.K.K.K.I././.L.J.K./.[.[./.K.J.S.V...a S Y p.p.p.a.j.k.l.j.j.j.j.j.k.k.g.u.T u ` ;.S.K.K.K.K.K.K.K.K.P.K.K.K.K.K.K.K.K.K.",
"K.K.K.P.K.K.K.K.K.K.K.J.K./.[.[./.J.B.n...y G i.h.j.j.j.j.k.l.l.z.z.z.z.z.l.l.l.h.y.G W ` ;.F.K.K.K.K.P.K.K.K.K.K.K.K.K.K.K.K.K.",
"K.K.K.K.K.K.K.K.K.K.K.K.K.L.^.^.K.K.S.%.p C e.d.l.l.l.l.k.l.l.l.z.z.z.z.z.z.z.l.k.f.r.N e  .C.P.K.K.K.K.K.K.K.K.K.K.K.K.K.K.K.K.",
"K.K.J.K.K.K.K.K.K.K.K.K.K.J.K.K.K.K.S...1 F p.j.l.z.z.l.l.l.l.l.l.l.l.l.l.l.l.z.k.j.a.J c ] V.D.K.K.K.K.K.K.K.K.K.K.K.K.K.K.K.K.",
"K.K.K.K.K.K.K.K.K.K.K.K.K.K.K.K.K.K.S...1 F p.k.l.l.z.l.z.l.l.l.l.l.l.l.l.l.l.z.l.l.a.P k q Z.D.K.K.K.K.K.K.K.K.K.K.K.K.K.P.K.K.",
"K.L.~.~.L.K.K.K.K.K.K.K.K.K.K.K.K.K.C...1 L a.l.l.l.z.l.l.l.l.l.l.l.l.l.l.l.l.l.l.k.d.U 1 [ C.F.K.L.~.I.L.K.J.L././.L.K.K.K.K.K.",
"L.~.'.[./.K.K.K.K.K.K.K.K.K.K.K.K.S.;.` V Y j.l.z.l.l.l.l.l.l.l.l.l.l.l.l.l.l.l.l.l.j.Y c _ V.K.K.^.].[.~.J.J./.[.[./.K.K.K.K.K.",
"(.`.<X,X(.J.J.K.K.K.P.K.K.K.K.K.S.n...a T p.k.l.z.l.l.l.l.l.l.l.l.l.l.l.l.l.l.z.z.l.j.i.c _ n.B.K.(.>X>X/.K.~.(.#X|.~.K.K.K.K.K.",
">X<X6X>X(.K.K.K.K.K.K.K.K.K.K.K.S.%.p C Y d.l.z.z.l.l.l.l.l.l.l.l.l.k.k.l.l.l.z.l.z.j.i.C q %.n.J.(.>X>X(.~.`.XXE.C.D.K.L.K.K.K.",
"6X5X-X{.P.K.K.P.K.K.K.K.K.K.K.K.C...1 F p.j.l.z.l.l.l.l.l.l.l.l.l.k.k.k.l.z.l.l.z.l.k.a.E t ` $.K.(.>X%X(.(.:X-XG.v.N.L.L.K.K.K.",
"5X;XE.m.D.L.L.K.K.P.K.K.K.K.K.K.C...< J p.j.l.l.z.l.l.l.l.l.l.l.l.k.h.h.k.z.z.l.l.l.l.f.r.N e q K.(.:XoX^.(.>X,X!.M.B.K.L.K.K.L.",
"@XW.n.v.M.L.L.K.K.K.K.K.K.K.K.L.U.$.t F y.h.l.l.z.l.l.l.l.l.l.l.k.j.s.d.k.l.l.l.l.z.l.j.p.F < e K.~. X{.!.~.{.|.~.L.K.K.L.K.K.K.",
"A.n.M.N.K.K.L.K.K.K.K.L.K.K.K.^.).1.u D r.j.l.l.l.l.l.l.l.z.l.l.k.d.p.p.j.l.z.l.l.l.k.f.p.J < e K.D.C.S.D.D.C.C.D.L.L.K.K.K.K.K.",
"=.b.D.L.L.K.K.K.K.K.K.P.K.K.K.~.Y.,.t F y.g.l.l.l.l.l.l.l.l.l.k.h.p.e.e.a.k.l.l.l.k.j.d.y.F < e L.B.v.b.B.B.b.v.B.K.L.K.K.K.K.K.",
"N.B.K.I.L.K.K.K.K.K.K.K.K.K.D.F.Z.X.b P p.f.k.l.l.l.k.k.l.l.k.j.p.I D J r.j.k.l.l.k.d.a.r.F < e L.K.M.N.K.D.N.N.K.K.L.K.K.K.K.K.",
"K.L.K.K.K.K.K.K.K.P.K.K.K.K.m.n. .y Z e.p.d.f.k.l.k.k.k.k.k.k.d.r.J M M w.d.j.k.k.j.a.a.r.F < e K.K.L.K.L.L.K.L.K.K.K.K.K.K.K.K.",
"L.L.K.K.K.K.K.K.K.K.K.K.K.K.n.%.e C Y y.a.a.d.f.k.j.h.h.k.j.d.y.I M l z J p.a.f.j.j.a.a.r.F < w K.L.L.L.L.K.L.L.K.K.L.K.K.K.P.K.",
"K.K.K.P.K.K.K.K.K.K.K.K.K.K.;...1 F r.a.a.y.a.d.h.j.h.h.h.d.y.Y D l ; : D w.a.a.g.f.a.p.r.J c y L.K.K.K.K.K.K.K.K.K.P.K.K.K.K.K.",
"K.K.K.K.K.K.K.K.K.K.P.K.K.K.;...< F y.p.p.y.p.a.a.g.j.j.d.y.w.D j * O * l J y.a.a.p.y.r.r.F V s /.K.K.K.K.K.K.K.K.L.K.K.K.K.K.K.",
"K.K.K.K.K.K.K.L.K.K.K.K.K.K.>.$.t D e.e.w.I y.a.a.d.d.d.a.w.F l * .   O : D e.a.p.r.w.e.e.F W d (.K.J.K.K.K.K.K.K.K.K.K.K.K.K.K.",
"K.K.K.P.K.K.K.K.K.K.K.K.K.K.V.%.i v F P D J e.p.y.p.a.a.y.K z = .     . = x Y y.y.e.J F F C d O.(.J.J.L.K.K.K.K.K.K.K.K.K.K.K.K.",
"K.K.K.K.K.K.K.K.K.K.K.K.K.K.S.V...e C M M D I e.P I r.a.r.J k *         + j D e.y.e.P D C W O.,.~.K.K.K.K.K.K.K.K.K.K.K.K.K.~.~.",
"K.K.K.K.K.K.K.K.K.K.K.K.K.K.D.S.;...e , l x F G n n L r.e.F : + X @ X   . * l F Y e.J C r [ &.;.D.L.L.K.K.K.K.K.K.K.K.J.J.~.`..X",
"K.K.~.~.L.K.K.K.K.K.K.K.K.K.K.K.D.V. .w ; k n 1 w r v F G z ; > 5 7 7 @   O ; z D F N t ] %.v.b.B.L.L.K.K.K.K.L.~.~.K.K.I._.,X2X",
"L.~.'.'./.K.L.K.K.K.K.K.K.K.K.K.K.B.#._ w > > 0 ( ' w , , ; - 6 ) } } 9 4 X - ; : : , q @.=.N.K.K.K.K.K.K.K.K./.[._.~.I.`.,X3X6X",
"(.`.2X,X(.K.J.K.K.K.K.K.K.L././.S.b.*.} ' 0 q { @.} ' 6 6 # # 6 } *.*.} ( 8 6 # # # 0 ' @.=.b.B.K.K.K.K.K.K.J.(.,X,X`._.*X6X6X6X",
">X<X5X,X^.J.K.K.K.L.K.K.K./.[.[.v.*.*.#.@.| } #.#.#.@.{ 9 7 4 9 @.*.#.#.@.{ ( 5 4 8 _ @.*.*.=.b.D.K.K.K.K.J.K.(.:X4X1X>X1X6X6X6X",
"6X5X-X}.P.K.K.K.K.K.K.K.K.~.[.[.v.=.*.*.*.*.*.*.*.*.#.} ( 9 9 { @.*.*.*.#.} ( 9 9 ) @.*.*.*.*.b.D.K.K.K.K.J.J.P.{.$X6X8X6X3X*X#X",
"5X;XE.m.S.L.L.K.K.P.K.K.K.L.~.~.S.b.=.*.*.*.*.*.*.*.#.{ ( 9 { @.#.*.*.*.#.{ ( 9 { #.#.#.*.=.b.D.K.K.K.K.K.L.K.N.m.E.;X8X8X-XE.G.",
"@XW.n.v.B.L.L.K.K.K.K.K.L.K.K.K.K.D.v.=.=.=.*.*.*.*.#.{ ( ( } #.*.*.*.*.#.{ 9 ( } *.=.=.=.b.D.K.K.K.K.K.K.~.(.P.b.v.W.$X$XOX:.#.",
"A.m.m.M.D.L.L.K.K.K.K.K.L.K.J.K.K.K.D.N.B.b.=.*.*.*.*.*.*.*.*.*.*.*.*.*.*.*.*.*.*.=.M.M.m.D.K.L.L.K.K.K.K./.[.'.P.b.v.H.H.:.#.#.",
"=.b.D.L.L.K.L.K.K.K.K.K.K.L.K.K.K.K.P.K.K.N.v.-.*.*.*.*.*.-.*.=.*.*.=.*.*.*.*.*.*.v.S.D.B.K.K.K.K.K.K.J.K.~.|.oX_.P.v.=.=.=.=.v.",
"M.N.K.L.L.K.K.K.P.K.K.K.K.K.K.K.K.K.K.K.K.K.K.K.K.K.L.K.K.K.K.K.K.K.K.K.K.K.L.L.L.K.K.K.K.K.K.K.K.L.K.L.K.D.S.W.XX`.K.M.b.M.B.B.",
"K.K.K.L.L.P.K.K.K.K.K.K.K.K.K.K.K.K.K.K.K.K.K.K.K.K.K.K.K.K.K.K.K.K.K.K.K.L.L.L.K.K.K.K.K.K.K.K.K.K.K.L.L.N.=.H.#X&X/.J.B.D.K.D."
};
