/* XPM */
static char *result[] = {
/* columns rows colors chars-per-pixel */
"64 64 228 2 ",
"   c #00380E",
".  c #00372F",
"X  c #013434",
"o  c #003A30",
"O  c #163B32",
"+  c #004D12",
"@  c #006B00",
"#  c #007300",
"$  c #007C00",
"%  c #0E7D06",
"&  c #157D07",
"*  c #005C2A",
"=  c #034637",
"-  c #114835",
";  c #025135",
":  c #2B4838",
">  c #2A5239",
",  c #02663D",
"<  c #027739",
"1  c #137034",
"2  c #28663E",
"3  c #26753C",
"4  c #2F3E4C",
"5  c #004644",
"6  c #004E4A",
"7  c #01574B",
"8  c #165943",
"9  c #19524E",
"0  c #035B59",
"q  c #274B4A",
"w  c #29564A",
"e  c #285855",
"r  c #365552",
"t  c #006746",
"y  c #007947",
"u  c #00734C",
"i  c #036757",
"p  c #176451",
"a  c #007357",
"s  c #007A5A",
"d  c #287046",
"f  c #357451",
"g  c #025F63",
"h  c #2D5F63",
"j  c #006765",
"k  c #1A6966",
"l  c #007C64",
"z  c #00776E",
"x  c #006A73",
"c  c #007E74",
"v  c #017879",
"b  c #2B6D78",
"n  c #347C7B",
"m  c #417479",
"M  c #008500",
"N  c #008B03",
"B  c #00860D",
"V  c #008C0C",
"C  c #009305",
"Z  c #009907",
"A  c #00960A",
"S  c #00990B",
"D  c #008112",
"F  c #018C12",
"G  c #0C8912",
"H  c #008F19",
"J  c #148E17",
"K  c #009317",
"L  c #009C12",
"P  c #009D1B",
"I  c #278916",
"U  c #00A30E",
"Y  c #00A515",
"T  c #00A817",
"R  c #00A31B",
"E  c #00A91B",
"W  c #00882A",
"Q  c #009227",
"!  c #009D24",
"~  c #00942D",
"^  c #009C2B",
"/  c #008B37",
"(  c #01813B",
")  c #009433",
"_  c #009339",
"`  c #009C3A",
"'  c #319623",
"]  c #329A25",
"[  c #399926",
"{  c #329D28",
"}  c #3B9E2B",
"|  c #30843D",
" . c #00A223",
".. c #00AD24",
"X. c #00A72C",
"o. c #00B126",
"O. c #00B22A",
"+. c #00A837",
"@. c #00B532",
"#. c #00B935",
"$. c #0DB937",
"%. c #02BC39",
"&. c #15BC39",
"*. c #1CBB39",
"=. c #25AD2F",
"-. c #3CA12C",
";. c #25AE30",
":. c #2EAE32",
">. c #30AD32",
",. c #2DB134",
"<. c #24B837",
"1. c #2DBD3C",
"2. c #3AB538",
"3. c #3DB439",
"4. c #34BE3E",
"5. c #409A28",
"6. c #43A12D",
"7. c #46AC35",
"8. c #41B339",
"9. c #49B43B",
"0. c #53B63E",
"q. c #52B83F",
"w. c #30C03F",
"e. c #008344",
"r. c #008B42",
"t. c #00854D",
"y. c #008C4B",
"u. c #009547",
"i. c #008754",
"p. c #00825C",
"a. c #309152",
"s. c #2BA849",
"d. c #008364",
"f. c #008966",
"g. c #00846D",
"h. c #008374",
"j. c #008C77",
"k. c #00847C",
"l. c #008B7C",
"z. c #1B8472",
"x. c #009177",
"c. c #258D6C",
"v. c #479A5A",
"b. c #4BBB40",
"n. c #54BA42",
"m. c #5ABA43",
"M. c #37C341",
"N. c #3CC342",
"B. c #45C545",
"V. c #4BC546",
"C. c #4EC749",
"Z. c #48C949",
"A. c #54C749",
"S. c #5AC74B",
"D. c #54CA4B",
"F. c #5BC94C",
"G. c #5BD052",
"H. c #63C94E",
"J. c #64CD51",
"K. c #6ACA50",
"L. c #66D355",
"P. c #6BD456",
"I. c #007D82",
"U. c #347F82",
"Y. c #008484",
"T. c #008988",
"R. c #148E8F",
"E. c #009183",
"W. c #00928E",
"Q. c #009A8D",
"!. c #008C92",
"~. c #009595",
"^. c #009A94",
"/. c #009D9B",
"(. c #3A8081",
"). c #398D93",
"_. c #399A9A",
"`. c #00A38E",
"'. c #00A294",
"]. c #00A39C",
"[. c #00AA9E",
"{. c #009DA1",
"}. c #00A5A3",
"|. c #00ACA4",
" X c #0AA2AC",
".X c #00ACAA",
"XX c #00B2A4",
"oX c #00B3AD",
"OX c #00BAAD",
"+X c #00B5B2",
"@X c #00BBB4",
"#X c #03BBBA",
"$X c #11BCB8",
"%X c #2DA3A5",
"&X c #2EB3AE",
"*X c #4A969B",
"=X c #44A3A3",
"-X c #49B4B3",
";X c #78BDBF",
":X c #00C2B5",
">X c #00C4BB",
",X c #00C5C2",
"<X c #00CCC3",
"1X c #00CCCB",
"2X c #1AC9CB",
"3X c #00D2C5",
"4X c #00D3CC",
"5X c #00D4D1",
"6X c #00DAD4",
"7X c #05DDD8",
"8X c #2ED2CE",
"9X c #00E0D7",
"0X c #00E3DB",
"qX c #0DEBE1",
"wX c #52D3CF",
"eX c #73D7D7",
"rX c #5BE5DD",
"tX c #46ECE8",
"yX c #73F1EC",
"uX c #8DD1D4",
"iX c #88EBE9",
"pX c #99F1EF",
"aX c #BFEFEF",
"sX c #A8F5F3",
"dX c #B9F7F7",
"fX c #C6F8F8",
"gX c #D9FEFF",
"hX c #E3FFFF",
/* pixels */
"Y Y Y Y Y Y Y Y R Y Y Y Y Y Y Y Y Y E E E Y Y Y E Y Y Y Y @.N.w.o.T T E T T T T Y Y Y Y Y Y Y Y Y Y Y E E T Y ..2.1.....1.2.O.E ",
"Y Y Y Y Y Y Y Y Y Y Y Y Y Y Y Y U E o.O.E Y U E ..E T Y E @.C.s.o.T E o.E T Y Y Y Y Y Y R Y Y Y U Y ..O.o.o.T ..:.;. ...;.:...E ",
"Y Y Y Y Y Y Y E Y R E Y Y Y Y Y Y ..&.&.o.Y U E $.#...E @.A.F.1.o...#.&.o.T U Y Y Y Y Y Y Y Y Y U ..#.B.V.%...L B F P Y F F L Y ",
"R Y Y Y Y Y Y R Y Y Y Y Y Y Y E ..@.3.>.E Y ..%.C.B.@.@.B.P.L.N.$.O.2.:.E U Y Y Y Y Y R Y Y Y E ..#.A.K.A.%...A M N A Z N M A P ",
"Y Y Y Y Y Y Y Y Y Y Y Y Y Y U o.%.8.} F L ..%.C.H.S.B.B.F.K.J.D.B.3.' F L Y T Y Y Y Y Y Y Y Y ..#.S.K.A.#...T S Z A L U A A L Y ",
"Y Y Y Y Y Y Y Y Y Y Y Y Y Y Y ..,.6.F M A E ,.m.H.L.L.S.n.b.A.L.m.-.B M A T T Y R Y Y Y Y U Y ..&.V.B.#...Y Y Y T Y T T Y T T Y ",
"Y Y Y Y Y Y R Y Y Y Y Y Y T T P F G V Z U L F [ n.L.P.b.' ] 9.m.5.F N A Y Y T Y Y Y Y Y Y Y Y ......O.E Y Y U Y T T T T T T Y Y ",
"Y Y Y Y Y Y Y Y Y Y Y Y Y T T A M N S T T A M V } 0.0.[ % & } -.F M A T T Y Y Y Y Y Y Y Y Y Y Y Y Y Y Y Y Y Y Y Y Y Y Y Y Y Y Y ",
"Y U Y Y Y Y Y Y Y Y Y Y Y E Y Y A A Y T T Y A V B I I % @ # & B A S Y Y E Y Y Y Y R Y Y Y Y Y Y Y Y Y Y Y Y Y E Y Y Y R Y Y Y Y ",
"E E o...E Y Y Y Y R Y Y Y Y Y Y T T Y Y Y T E S N # $ $ $ $ $ N S E E Y Y Y Y Y Y Y Y Y Y Y Y Y Y Y Y Y Y Y Y R Y Y Y Y Y Y E R ",
"E o.&.&...U Y Y Y Y Y E Y Y Y Y E T T Y Y T E Y A C C A A S A A Y E Y Y Y Y Y Y Y Y Y Y Y Y Y Y Y Y Y Y Y Y Y Y Y Y Y Y Y Y Y Y ",
"E ..&.&.o.Y U Y Y Y Y R Y Y Y Y Y Y Y Y Y Y Y Y Y T Y T T E T T Y Y Y Y Y Y Y Y Y Y R Y Y Y Y Y Y Y Y Y Y Y Y Y Y Y Y Y Y Y Y Y ",
"E E o...E Y Y Y Y Y Y Y Y Y Y Y Y Y R Y Y Y Y E T E E T E E Y ^ / y t./ ! Y Y Y Y Y Y Y Y Y Y Y Y Y Y Y Y Y Y Y Y Y Y Y Y Y Y Y ",
"Y Y Y Y Y Y Y Y Y Y Y Y Y Y Y Y Y Y E Y Y Y Y Y Y Y Y Y Y Y  ._ < y y _ ! Y Y Y Y Y Y Y Y Y U Y Y Y Y Y Y Y Y Y Y Y Y Y Y Y Y R ",
"Y Y Y Y Y Y Y Y Y Y Y Y Y Y Y Y Y Y Y Y Y Y Y Y Y Y Y Y Y R _ r.u i s y.X.Y Y Y Y R Y Y Y Y Y Y Y Y Y Y Y Y Y Y R Y Y Y Y Y Y Y ",
"Y Y Y Y Y U Y E ..E T Y Y Y Y R Y R Y Y Y Y Y Y Y Y Y Y R ) y.f.g.l d.y.! R X.+.u.X. .Y Y E o.o.E Y Y R E R Y Y Y Y Y Y Y Y Y Y ",
"Y Y Y Y Y U Y o.&.#...U U Y Y Y Y Y Y Y R Y Y Y Y Y Y R ~ e.x.`.`.l.d.r.! +.s.a.a.y.~ Y U o.&.&...Y U Y E Y Y Y Y Y Y Y Y Y Y Y ",
"Y Y Y E o...T o.w.A.%.o.T Y Y Y Y Y Y Y Y Y R Y Y Y P ~ e.d.'.OXXXE.s r.+.s.v.z.v s _ X.o.@.8.>...Y Y Y Y Y Y Y Y Y Y Y Y E ....",
"Y Y U ..&.#.E o.w.L.A.%...Y Y Y Y Y Y Y Y Y E Y Y  .~ ( s Q.OXOX'.h.a y.s.v.c.Q.~.E.i.u.%.8.[ F S Y Y Y Y R Y Y Y R Y Y Y ..#.<.",
"Y U Y ..,.3.O.%.B.K.m.>.E Y U Y Y Y Y Y Y Y Y Y R ) e.d.'.@X@X/.z u t.y.v.a.j.}.#X}.g.i.,.6.F N A T T Y Y Y Y Y Y Y Y Y Y o.w.A.",
"Y Y Y L F ' 3.Z.G.m.5.F L T T Y Y Y Y Y Y Y R  .) e.d.[.8X8X#XY.0 t ` _ | y j.XX>X.Xk.a H G V A Y Y E Y Y Y Y R Y Y Y U U o.B.S.",
"T T T C M B -.m.0.-.B M A T T Y R Y Y Y Y Y Y ! ( u h.OXqXtX#Xv i y +.K W y g.^..X/.k.a M M S E T Y Y Y Y Y Y Y Y Y Y U Y o.N.D.",
"Y T T Y A C F I I B V Z U Y Y Y E Y Y R Y Y Y ~ < i g.:XqXtX8X/.h.i.u.P K / p.h.T.l.d.i.A A Y E T Y Y Y Y Y Y Y Y Y Y Y Y O.M.D.",
"Y Y Y T E L M # # N S E T Y Y Y Y Y Y Y Y Y Y _ y i x.:XqXyXiXwX].h.t._ ! +.y.l l d.u.u.T Y Y Y Y Y Y Y Y Y Y Y Y Y Y U Y E ;.8.",
"Y Y Y E E Y A C N A Y T T Y Y Y Y Y Y Y Y R ~ r.g.l.'.>XyXdXfXiX$Xk.7 t r.` ` y.t.t.` X.Y T E Y Y Y Y Y Y Y Y Y Y Y Y T Y P F G ",
"Y Y Y Y Y Y T T T T Y Y Y Y Y Y Y Y Y Y Y R ) t.l.XX>XeXdXgXfXyX2XT.5 X t / ^ ^ ) _  .E Y Y Y Y Y Y Y Y Y Y Y Y Y Y Y E T S M M ",
"Y Y Y Y Y T Y E T T U Y Y Y Y Y Y Y Y Y Y ! < u Q.wXiXfXgXsXeX2X,X{.g X . , ~ E !  .R Y Y Y Y Y R Y Y Y R E Y Y Y R Y E Y Y A A ",
"Y Y Y Y Y Y Y Y Y E o.o.E Y Y Y Y Y Y Y ! ~ < a ].wXsXdXsXwX@XoX#X+XY.0 X ; / R Y Y Y Y Y Y Y Y Y Y Y Y Y Y Y Y Y Y Y Y Y Y Y Y ",
"Y Y R Y Y E Y Y U o.&.&...Y Y Y Y Y Y Y _ r.s j.XX4XtXtX6X@X^.^.+X,X+XR.j 7 < ) R Y Y Y E Y Y Y Y Y R E Y Y Y Y Y Y E R Y Y T T ",
"Y Y Y Y Y Y Y Y Y o.&.*.o.U U E o...E Y t.p.l.|.@X,X,X,X@X|.^./..X<X6X,XR.i 8 < ! R Y Y Y Y Y R Y Y Y Y Y Y R E Y Y Y Y Y Y Y Y ",
"Y R Y Y Y Y Y Y U E o.o.E U U o.&.&...Y s g.|.3X4X:XXX].].|.}.}.}.>X9X6X|.j = * Q Y Y Y Y Y Y Y Y Y Y Y Y Y Y Y Y Y Y Y Y Y Y Y ",
"Y Y Y Y Y Y Y Y Y Y Y Y Y U T o.&.&...Y i c &X9X9X:X^.k.Y.~.}..X.X@X3X<X'.j o ; ~ R R Y Y Y Y Y Y Y Y Y R Y Y Y Y Y Y Y Y Y Y Y ",
"Y Y Y Y Y Y Y Y Y Y Y Y Y Y E E ..o.E Y 7 z -X8X7X>XQ.z x v !.}.oX@X@X|.E.j 6 8 < ! Y Y Y Y Y Y Y Y Y R Y Y Y Y Y Y Y Y Y Y Y Y ",
"Y Y Y Y Y U Y Y Y Y Y Y Y Y Y Y Y Y Y Y 7 j _.2X5X>X/.v g x I.{.@X@X].W.T.k.v f d W P R Y Y R Y Y Y Y Y U Y Y Y Y Y Y Y Y Y Y Y ",
"Y Y Y Y Y Y T Y Y Y Y Y Y Y Y Y Y Y Y Y = 6 T.@X<X>X}.Y.x x I.}.@XXXW.T./..X%Xn q * H R Y Y Y Y Y Y Y Y Y Y Y Y Y Y Y Y Y Y Y Y ",
"Y Y Y T E ..T Y Y Y Y Y Y Y Y R Y Y Y Y o 5 c XX:X@X}.!.!.!.~..X+X|.W.Q.#X6X-XU.O   D K Y Y Y Y Y Y Y E o.o...E E ..Y Y Y Y Y Y ",
"Y U U ..$.$.o.Y Y Y Y Y Y Y Y Y Y Y Y Y o = c [.:X:X|.].}..X.X.X.X].^.|.4X0X8Xn .   M L Y Y Y Y Y U U ..&.%.....#.%.o.Y Y Y Y Y ",
"T Y E %.C.Z.O.Y U Y Y Y Y R Y Y Y Y Y Y o 5 h.XX3X3X>X@X+X.X{.{./.^.].>X0X0X#Xb = + F L Y Y Y Y Y E ..O.3.=.R O.B.V.O.Y Y Y Y Y ",
"E ..#.A.K.B.O.Y Y Y Y Y Y Y Y Y Y Y Y Y = 6 h.OXrXpXpX6X#X].~.W.!.^.}.<X0X5X}.k ; * H R Y Y Y Y Y O.%.3.] F A O.N.Z.O.Y Y Y Y Y ",
"..O.B.K.m.:.R Y Y Y Y Y Y Y Y Y Y Y Y Y , t j ).uXfXhXsX5XoX/.W.^.|.>X4X1X.Xv 9 , ~ R Y Y Y Y U U O.Z.q.J M R @.3.>.E Y Y Y Y Y ",
"E O.B.m.5.V L Y T Y Y Y Y Y Y Y Y Y Y Y ) < e h *XuXfXgXsX8X+X}.|.:X4X1X Xb q 2 /  .Y Y Y Y Y Y Y O.V.N. .R @.8.' V S T T Y Y Y ",
"E o.,.-.F M A Y E Y Y Y Y Y Y Y Y E o...X.) 3 w g ).uXaXfXiX1X,X3X6X1X Xb q q < ! Y Y Y Y Y Y Y Y ..:.=.....;.6.F M A T T Y Y Y ",
"Y P F B V Z Y Y Y Y E R Y Y Y Y Y ..&.&.o.Y ~ 3 8 g *X;XuXeX8X1X7X1X%Xb 4 : | ^ R Y Y Y Y Y Y Y Y L F F P Y K G V A Y Y Y Y Y Y ",
"L S M M S E T Y Y Y Y Y Y Y Y Y U ..&.*...Y Y Q 1 8 p (.*X=X=X=X-X*Xm r > 3 ^ Y Y Y Y Y Y Y Y T T A M N A A N M S E T Y Y Y Y Y ",
"U Y A A Y T T Y R Y Y Y Y Y Y Y Y E ....E Y Y L Q / d w q w e e r r w 2 ( ~ Y Y Y Y Y R E Y Y E T L A A U L A A Y E E Y Y Y Y Y ",
"Y Y E T Y Y Y Y Y Y Y Y Y Y Y Y Y Y Y U Y Y o.O.+.s.f > O - - - O : > 3 )  .Y Y Y Y Y Y Y Y Y Y Y U T T T Y T T Y Y Y Y Y Y R Y ",
"Y Y E T T Y Y Y Y Y E Y Y Y Y Y Y Y U U U ..$.Z.B.3.[ B V A Y Y Y Y Y Y Y Y Y Y Y R Y Y Y Y Y Y Y Y T T E Y T E Y Y Y Y Y Y E Y ",
"Y Y Y Y Y Y Y Y Y Y Y Y Y Y Y Y Y Y Y E ..O.1.V.n.} B M A E E Y Y Y R Y Y Y Y Y Y Y Y Y Y Y Y Y o.o.E Y Y Y Y Y Y Y Y Y Y Y Y Y ",
"Y Y Y Y Y Y Y Y Y Y Y R E Y Y Y Y U Y o.&.w.#. .J G V Z Y T Y Y Y Y Y Y Y Y Y Y Y Y Y Y Y U U o.&.&.o.Y U Y Y Y Y Y Y Y Y Y Y Y ",
"Y Y Y Y Y Y Y Y Y Y Y Y Y Y Y Y Y Y Y ..*.&.o.Z M N S T E Y Y Y Y Y Y Y Y Y Y Y U Y Y Y Y E o.@.8.,.E Y Y Y Y Y Y Y Y Y Y Y Y Y ",
"Y Y Y Y Y Y Y Y Y R Y Y Y Y Y Y Y Y Y E o.o.E Z C A Y E E Y Y Y Y Y Y Y Y Y Y Y Y Y Y U Y o.%.8.[ F L T T Y Y Y Y Y Y Y Y Y Y Y ",
"....Y Y U Y Y Y Y Y Y Y R Y Y Y Y Y Y Y U Y Y Y T T Y Y Y Y Y Y E R Y Y Y Y U E ..o.E Y Y ..,.6.F M A T E Y Y Y Y Y Y Y Y Y Y Y ",
"<.#...Y U Y Y Y Y Y Y Y E Y Y Y Y Y Y Y Y Y Y E T T E Y Y Y R E Y Y Y Y Y U U o.&.*...T U P K G V Z Y Y Y Y Y Y Y Y Y Y Y Y Y E ",
"A.w...E E o.E Y Y Y Y Y Y Y Y Y U Y Y Y Y Y Y Y Y Y Y Y Y Y Y Y Y Y Y Y Y T ..O.4.&.E T T A M M S E T Y Y Y Y Y Y Y E ..Y Y ..o.",
"A.w.....%.&.o.U Y Y Y Y Y Y Y Y Y Y Y Y Y Y Y Y Y Y Y Y Y Y Y Y Y Y Y Y Y ..#.w.O.o.E T Y L A A Y E Y Y Y Y Y U U ..$.#...E @.4.",
"C.M.#.O.3.>...Y Y Y Y Y Y Y Y E ....E Y Y Y Y Y Y Y Y Y Y Y Y Y Y Y Y Y Y O.Z.Z.O.U U Y Y T T T Y Y Y Y Y Y Y E o.%.C.B.@.@.B.F.",
"S.D.Z.3.' F L Y T Y Y Y Y Y Y ..&.&...Y Y Y Y Y Y Y Y Y Y Y Y Y Y Y Y Y U O.V.B.O.U U Y Y Y E E T Y Y Y Y Y Y ..%.C.H.S.B.B.F.J.",
"L.H.m.-.B M A Y E Y Y Y Y Y Y o.&.&...Y U Y Y Y R Y Y Y Y Y Y R Y Y Y Y Y ..:.:.E Y Y Y Y Y Y Y Y Y Y Y Y U Y R :.q.H.L.L.F.q.9.",
"S.n.[ B N A Y Y Y Y Y Y Y Y Y E o...E Y Y Y Y Y Y Y Y Y R E Y Y Y Y Y T Y P F F P Y T Y Y Y Y Y Y Y Y Y Y T Y S V [ 0.P.P.n.] I ",
"7.-.B M A E T Y Y Y Y Y Y Y Y Y Y Y Y Y Y Y Y Y Y Y Y Y Y Y Y Y Y Y Y E T S M M S T T Y Y Y Y Y Y Y Y Y T E O.R N B { 0.n.} & # ",
"G B C A Y E T Y E Y Y Y Y Y Y Y Y Y Y Y Y Y Y E Y R E Y Y E Y Y Y Y Y T T U A A L T T Y Y Y Y Y Y Y Y Y Y ..&.$.P N M I I % # @ ",
"$ M L E E Y Y Y Y R Y Y Y Y Y Y Y Y Y Y Y Y Y Y Y Y Y Y Y Y Y Y Y Y Y Y Y Y T Y E Y Y Y Y Y Y Y Y Y Y Y Y ..,.2.O.Y B $ $ $ $ $ ",
"C A Y T Y Y Y Y Y Y Y Y Y Y Y Y Y Y Y Y Y Y Y R Y Y Y Y Y Y Y Y Y Y Y Y Y Y T T Y Y Y E Y Y Y Y Y Y Y T Y P F } 2.#.R C C A S S ",
"Y Y Y Y E Y Y Y Y Y Y Y Y Y Y Y Y Y R Y Y Y Y Y Y Y Y Y Y R Y Y Y Y Y Y Y Y T T Y Y Y R Y Y Y Y Y Y Y T Y A M I 9.M...U Z S P Y "
};
