/* XPM */
static char *result[] = {
/* columns rows colors chars-per-pixel */
"64 64 153 2 ",
"   c #005500",
".  c #0E5604",
"X  c #005E00",
"o  c #015C09",
"O  c #155201",
"+  c #1F5A06",
"@  c #006302",
"#  c #006C02",
"$  c #0D6E02",
"%  c #00640B",
"&  c #0A6409",
"*  c #006B0B",
"=  c #186C07",
"-  c #17610C",
";  c #1F6E0F",
":  c #007200",
">  c #007C00",
",  c #00730D",
"<  c #007C0E",
"1  c #0F7F08",
"2  c #127307",
"3  c #187C05",
"4  c #006C12",
"5  c #0E6C15",
"6  c #007412",
"7  c #007B11",
"8  c #01751B",
"9  c #0F741B",
"0  c #017B1B",
"q  c #12751B",
"w  c #247A11",
"e  c #037B22",
"r  c #0A7920",
"t  c #147822",
"y  c #347A26",
"u  c #347F2A",
"i  c #417F2D",
"p  c #008401",
"a  c #008A03",
"s  c #00840E",
"d  c #008C0D",
"f  c #009306",
"g  c #00950B",
"h  c #00990C",
"j  c #008411",
"k  c #008C12",
"l  c #0B8912",
"z  c #00841D",
"x  c #008A1C",
"c  c #088F18",
"v  c #168611",
"b  c #158A17",
"n  c #009412",
"m  c #009C13",
"M  c #00941E",
"N  c #009A1B",
"B  c #16931A",
"V  c #258715",
"C  c #2D8716",
"Z  c #238814",
"A  c #2B8F1E",
"S  c #00A20E",
"D  c #00A515",
"F  c #00A817",
"G  c #00A41C",
"H  c #00A91B",
"J  c #008A21",
"K  c #009422",
"L  c #009D22",
"P  c #1C9E2F",
"I  c #278A2A",
"U  c #2A8829",
"Y  c #318422",
"T  c #358B23",
"R  c #37872D",
"E  c #2F9924",
"W  c #249729",
"Q  c #2A962B",
"!  c #329323",
"~  c #389726",
"^  c #369A26",
"/  c #399826",
"(  c #389F2B",
")  c #3E8E30",
"_  c #3C9C31",
"`  c #00A322",
"'  c #00AD24",
"]  c #00A72C",
"[  c #00AD2A",
"{  c #1BAC2E",
"}  c #00B127",
"|  c #00B22A",
" . c #06A330",
".. c #01AA33",
"X. c #0BA932",
"o. c #19A432",
"O. c #19AB34",
"+. c #00B632",
"@. c #0AB637",
"#. c #01B936",
"$. c #0CB937",
"%. c #05BB38",
"&. c #15B436",
"*. c #14BB39",
"=. c #2BA52F",
"-. c #23AD2F",
";. c #3CA02C",
":. c #25AE30",
">. c #2EAE32",
",. c #3EA834",
"<. c #3CAB3B",
"1. c #2FB134",
"2. c #2DBC3B",
"3. c #3CB539",
"4. c #37BF3F",
"5. c #3BBB3D",
"6. c #409927",
"7. c #448F33",
"8. c #429C37",
"9. c #48A135",
"0. c #46AC35",
"q. c #43A339",
"w. c #4CA93B",
"e. c #50A73B",
"r. c #53AB3D",
"t. c #41B138",
"y. c #4AB33B",
"u. c #4DB93F",
"i. c #53B63E",
"p. c #32C03F",
"a. c #3EB540",
"s. c #44BD42",
"d. c #4DBB41",
"f. c #56B640",
"g. c #55B942",
"h. c #5ABA43",
"j. c #37C241",
"k. c #3CC242",
"l. c #43C444",
"z. c #4AC546",
"x. c #4EC648",
"c. c #44C948",
"v. c #53C649",
"b. c #59C549",
"n. c #54C94B",
"m. c #5DCA4D",
"M. c #5BD052",
"N. c #65C94E",
"B. c #65C450",
"V. c #64CD51",
"C. c #65D355",
"Z. c #6AD356",
"A. c #74D157",
/* pixels */
"D D D D D D D D D G D D D H D D F H F D D F H D D S D | l.a.| D D F F D D D D D D D D D D D D F F H H F F S D } 5.4.' | 2.5.' H ",
"D D D D D D D D D H D D G D D H ' ' H D D H } H F D H #.z.j.} F H ' H D D D D D D D D D D D D H ' } } ' F D D H >.-.' ` -.>.' D ",
"G D D D D D G D D D D D D D D } %.%.} S S ' *.#.' H #.v.m.2.' ' #.*.' F D D D D D D D D D D D ' +.l.l.#.H F D m d n m m n k m G ",
"D D D D D D H D D D D D F S D | z.c.| h S | z.z.#.| k.C.Z.l.| #.z.c.| S S D F D D H G D G D D } l.A.A.l.} F D g p p h h p p h m ",
"D D D D D D D D H D D D D S S | z.z.| S S | k.N.x.l.b.V.V.v.l.x.m.l.| D D D D D D D D D D S D | l.A.A.l.' D S D f g D S g g m D ",
"D H D D D D D D D D D D D D F ' >.1.' D D H :.i.B.C.C.b.d.g.m.B.h.-.G D D D D D D D D D D D D ' +.l.l.#.' S S F F D D F F F F D ",
"D D D D D D D D D D D D D D F m k k m F F h s T e.B.V.y.A ! q.r.T s k n m D D D F D D D D D D H ' } } ' H D D F F F F D F F F D ",
"D D D D D D D G D D D D D F F h p p h H H f : , Y 9.w.~ $ = Y T , # > n m D D D D D D D D D D D D S D D D D D D D F D D D D D D ",
"D D D F D D D D D D D D D H D D g g D F F h s * & ; w 2 o O + - * * , 7 k n D D D D D D F D D D D S D D D D D D D D H D D D D D ",
"} } H S D D D D D D D D D D D D F F D D D m j , @ @ # , @ . O . % 4 4 6 < k m m D D D D D D D D D D D D D D D D D D G D D D D D ",
"p.%.' D D D D D D G D H D D D D H D m D m n j 7 > p a p , % o % 4 4 4 4 4 7 k m m D D G D D D D D D D D G D D D D D D D D H D D ",
"p.%.' D D D D D D D D D D D D D D D n k k j k k n G m k 7 6 6 4 4 4 4 4 4 6 < k m D D H D D D D D D D D H D D D D D D D D G D D ",
"} ' H D D D D D D D D D D D D D D n j < 7 7 j n m m k 0 6 * 4 4 4 4 * 4 4 4 4 7 k n D D D D D D D D D D G D D D D D D D D D D D ",
"D D D D D D S D D D D D D D G D n j 7 , 7 j k k k j 7 6 * * * * * % * * * * 4 , 7 k m h D D D D D D D D D D D H G D D D D D D D ",
"D S D D D D D D D D D D D D D N k 7 4 6 j k j j j 7 , 4 * * * * * * * * * 4 4 4 7 j n D D D S F D D D D D D D D D H D D D D D D ",
"D D D D D F ' ' H D S D D F D m j 6 * 7 k n j 7 7 7 6 * * * * * * * * * 8 4 4 4 < s n G ` } H D D G D D D D D D D D D D D D D D ",
"D D D S D ' #.*.' D S D S F D m k , * 7 n n j 7 j k 7 , * * * * * * % 6 e t 8 , < d n ` @.#.' D D D D D D D D D D D D D D D F D ",
"D D D H } #.n.p.' H } } H D D m n j 6 7 k n j j n n j , * * * * * * * 8 u u 8 , < s k L s.z.| D D D D D D H D D D D D H | } F D ",
"F S D ' #.m.V.p.' ' #.*.` m h m m n 7 j k n j j k k < , * * * * * # % 8 u u 8 * , , , J <.s.| D D D D D D D G D G D D } *.*.} F ",
"D D S H >.h.N.c.#.+.3.>.M g k n m n j j n n n k k j < , * * * * * @ 4 4 9 9 8 * 4 4 * 0 Q =.' D D D D D D D D D D D D H 1.3.| ' ",
"D F D m g 6.h.M.n.3.! k < j 7 k m n k s k m m n d s , * % * * * * * * % o o % 4 6 6 6 6 < j m D F D D D D D D D F F F h k ! 3.5.",
"F F F f p s ;.i.f.( d p > k j k n m k k j n m m n j < * * * # * * * * @     o 6 7 j j s > p h D F D D D G D D D F F F f p c u.m.",
"D D D D h f d C C k f f h n n n m m m k j j n N D n s < , * * * * * * * @ @ % , k n n g d f D D F D D D D H D D D F F h f ` s.m.",
"D D D F H h p : > p m H H D m n m D m j 6 7 k D D m h s , # * * * # * * * * * < k n n n m G D D D D D D D D D D D D F S F ` :.0.",
"D D D H F D g f a h D F F m g l n m k 6 6 , k m D D m g s , * * * * * * * * * , k k j j n D D D H D D G D H D G D D D F F D k l ",
"D D D D D F F F D S D D D m n n m n s 6 4 6 k n n m ` L s , * * * * * * * * * , 7 < < < k m D D D D D D D D D D D D D H F h p > ",
"D H D D D F F F F F D D D D m m G m j , * 7 d d d M X. .x , * * @ * % * * * * 6 , 7 < 7 n m D D D D D D D D D D D D D H D D h g ",
"D D D D D D F H } } H D D D D D D m n k 6 7 < s j K q.8.z * @ 4 6 6 * * * * * 6 7 j j k n D D D D D D D D D D D D D D D D D F F ",
"D D H D D D S } *.*.} F S D S D D D m n k 7 6 < s K 8.7.0 * % 6 r e 7 * * * 6 7 k n m N G D D D D D G D D D D D D D G D D F F F ",
"D D D D D D D ' *.*.} S S H } } H D D m n j 6 < < z U u 8 * * 8 R R z < , 6 7 k n D D D D D D G D D D D D H D D D D H D D D D D ",
"D D D G D D D H } } H S S } *.*.' S m D m n < , , 6 8 q 6 , * q i ) K d < < j k m D D D D D D D D D D D G D D D D D D D D D D D ",
"D D D D D D D D S D D S F } *.*.' D h n m n j 6 4 4 4 6 7 7 7 8 y I N n s 7 7 k N D D D D D D D D D D H D D D D D D D D D D D D ",
"D D D F D D D D D D D D D H ' ' H m d k n n j 6 6 4 4 , s k j 8 q 0 n n k 7 6 j k D G D D D D D G D D D D D D D D D D D D D D D ",
"D D D S D D D D D D D D D D D D F m n k k s 0 6 j 7 7 < 7 j k j 6 7 k n n j 7 7 d m D D D D D D D D D D D D D D S D D D D D D D ",
"D D D D D D D D D D F D D D D D m D m n k 7 7 j k k j 0 7 k n k j < j m m n j 0 j m N D D D D D D D D D D D D D D D D D D D H D ",
"D F ' ' H D D F D D D D D D D m n n m m n j j k n m n k j k n n j 7 7 k m m n k k n m D D D D D D H ' ' H D S H } } H F D D D D ",
"F ' $.*.} D S D D D D D G D D m k j n m n n m m m G m m m m m n j 6 7 j n D m n j k k m D D D D D ' %.*.' S S } *.*.} D D D D D ",
"| #.n.l.| D S F D D D D D D D n j < k n n n m m n n m D D G m j 7 6 7 k n m n k k j j k n m D D S | l.l.| D H | t.>.H D D D D D ",
"k.n.N.k.| D D H D D D D m D m k s j n n k n m n k k m D D m k < 6 0 j n m n k j j j j 7 k n D S F | l.k.| ' #.3.^ k m F H D D D ",
"C.N.g.:.G S D G D D D D n k k k s d m m n n n m n n n m D m j 7 7 k m m m j 7 6 j 7 7 7 < k m m S | z.j.| | k.g.B p f F F D D D ",
"N.h./ d m F F D D D D D j 0 7 s k m m D n n m m D h m m D m j 0 j n m m k 7 6 4 6 6 6 7 < j k h D | l.p.| | k.z.` f h F F D D D ",
"0.( d p f F F D D D D D < < 7 j L ' H D h n m D S H ` L N m g k k n m m j 6 8 5 5 4 7 j j j j d n G >.-.' ` -.1.' F S D F D D D ",
"v d a f D F F D D D D G j < s M O.&.' m n k n S D ` o.o.` m h m k n n m j 7 8 4 6 6 j k n n j s n k n k m m n k m F F F D D D D ",
"> p m H F D D D H D D D d s d M P o.` m d d n D ` ] _ Q N D D m n k n m n j 7 6 7 j k n m n j j d d p p h h p p h H F D H D D D ",
"f h D H F D D D D D D D n n k j x x N m m h D ' +.,.T j n D D m n n m m m n j 7 j k k k m n j s n h g g S m h g D D H D D D D D ",
"F F D D D D D D D D D D n k j s s k n D ' H D | 5.w.b p f D n k k n m D D m j s n n n n n m g d n m F D F F D F D D D D D D D D ",
"F F H D D D D D D D D D k k k n n h m ' *.+.' [ <.q.M f h D n j < j n D D N k j n m m m G m m D D D H F F D F H D D D D D D D D ",
"D D G D D D D D D H D D k k h D D D D | z.l.| N W Q N D D m n s s k n D D m n n n G D D D H ' ' D D D D D D D D D D D H D G D D ",
"D D D D D D D D H D D D N m D D D S D | z.u.| n s j m H F D m n n n D D D D D m D D D F D } %.%.' D D D D D D D F D D D D D D D ",
"D D D D D D D D D D D G F D D D F S D ` ..[ ` f p p h F F m n n m D D D D S D D D D D S D | z.c.| D S D D D D D D D D D D D D D ",
"D D D D D D D F D D D D D D D D D D D G M M N m f g m D D n k k n D D D D D D D D D D S D | z.z.| S S F D D D F D D D D D D D D ",
"D D D D D D D D D D D D G D D D D D D m n k h m F F D D n k j d n m D H } ' H D D D D D F H >.>.' D D D D D D D D D D D D F H ' ",
"D D D D D D D D D F D D D H D D D D D m h d > : > : : # @ @ @ # : : : > : > : : : p h h m n k n m F F D D D D D D F D S S ' #.2.",
"D D ' } H S D D D D D D D D D D D D m h h a > : : : : # @ X @ # : : : : : : : : : > f d h f p a h F H D D D D F ' H F D H #.z.m.",
"H ' $.$.} S F D D D D D D D D D D m a > > > : : : : : : : : : : # : : : : : : : : : > > > p h m D D F D D S D } *.#.' H +.x.m.m.",
"| #.n.z.| F S D D D D D D H ' ' n a > : : : : : : : : : : : : : : : : : : : : : : # : # : > a m D D D D D D D | l.z.#.#.a.V.V.C.",
"k.v.V.z.} D S D D D D D D ' *.*.p : : : : : : : : # : : : : : : : : : : # : : : : : # : : : > a m D H D F S D [ l.m.x.l.b.N.V.m.",
"V.N.g.-.G D D D D D D D D ' *.*.p : : : : : : : : : : : : : : : : : : : : : : : : : # # : : > a m D D D D S S G { g.N.C.C.m.d.u.",
"N.h./ d m D F D D D H D S H } ' h a > : : : : : : : : : : : : : : : : : : : : : : : : # # > a h D D D D D F D h d / h.Z.Z.g.E b ",
"0.( d p f F H D D D D D F D D D D m a > > > : : : : : : : : : : : : : : : : : : : : > > > p m F F D D D F H | G p a ( i.i.( 3 : ",
"v d d f m D H D D D F D D D D D D D m g m a > : : : : : : : : : : : : : # : : : : > f d f h D H D D D D D ' *.@.G a p Z V 1 : # ",
"> p S H F D D D D D F F D D D D D D D D D h p : : : > : > : : : : > : : : : > : : p h m m D D D D D F S D ' 1.5.| G a > > > > > ",
"f h D F F D D D D D D D D D D D D D D D D D G D D D D D D G D D D D D D D F F F D D D D D D D D D D D F D m k ^ 3.#.G a a f h h ",
"m D D D F F G D D D D D D D D D D G D D D D D D D D D D D D D D D D D D D D F D D D D G D D D D D D D F D h p A y.j.} S h D m D "
};
