/* XPM */
static char *result[] = {
/* columns rows colors chars-per-pixel */
"64 64 225 2 ",
"   c #191E01",
".  c #251F03",
"X  c #3C1F08",
"o  c #082103",
"O  c #002D02",
"+  c #0A2C01",
"@  c #1E2604",
"#  c #172A05",
"$  c #013105",
"%  c #053606",
"&  c #153106",
"*  c #1A3107",
"=  c #1C3108",
"-  c #1B3908",
";  c #003D12",
":  c #1A3810",
">  c #262A05",
",  c #37280A",
"<  c #3B2C0E",
"1  c #243105",
"2  c #23330B",
"3  c #2C340C",
"4  c #253B0B",
"5  c #2B3D0D",
"6  c #34340E",
"7  c #3A330F",
"8  c #343B0C",
"9  c #2E3C16",
"0  c #363711",
"q  c #3C3510",
"w  c #333C14",
"e  c #3D3A11",
"r  c #441B0B",
"t  c #46240D",
"y  c #42290E",
"u  c #41310D",
"i  c #432B10",
"p  c #4D2C13",
"a  c #572612",
"s  c #562E15",
"d  c #5A2B16",
"f  c #5B2D18",
"g  c #443412",
"h  c #4C3314",
"j  c #413913",
"k  c #4C3A16",
"l  c #463C19",
"z  c #4E3B19",
"x  c #533416",
"c  c #5A3416",
"v  c #5C3419",
"b  c #563918",
"n  c #533D1B",
"m  c #5E3A1A",
"M  c #632B15",
"N  c #652917",
"B  c #613016",
"V  c #63351B",
"C  c #6B341C",
"Z  c #633A1C",
"A  c #6D3C1F",
"S  c #72351E",
"D  c #713B1F",
"F  c #6B3D21",
"G  c #753621",
"H  c #783621",
"J  c #733C21",
"K  c #7B3C24",
"L  c #014401",
"P  c #0A4705",
"I  c #004A02",
"U  c #034C0A",
"Y  c #0D4C0C",
"T  c #164805",
"R  c #14460B",
"E  c #1C440C",
"W  c #1D4C0F",
"Q  c #005300",
"!  c #015C02",
"~  c #01560E",
"^  c #0B530E",
"/  c #005D0C",
"(  c #17530B",
")  c #125A10",
"_  c #25430D",
"`  c #2A420E",
"'  c #254808",
"]  c #234B0E",
"[  c #30490D",
"{  c #205B0D",
"}  c #2D4310",
"|  c #254C10",
" . c #2C4E11",
".. c #344412",
"X. c #3B4512",
"o. c #344D13",
"O. c #3B4C14",
"+. c #285312",
"@. c #335214",
"#. c #3B5516",
"$. c #006200",
"%. c #006D00",
"&. c #00640C",
"*. c #006A0D",
"=. c #007200",
"-. c #007B01",
";. c #00730E",
":. c #007B0F",
">. c #0F7F08",
",. c #17700F",
"<. c #066715",
"1. c #006C11",
"2. c #176313",
"3. c #007412",
"4. c #007B11",
"5. c #007419",
"6. c #007B1B",
"7. c #276B1B",
"8. c #336419",
"9. c #0E4F25",
"0. c #134C23",
"q. c #194F26",
"w. c #1A532B",
"e. c #284E25",
"r. c #327123",
"t. c #367A26",
"y. c #434215",
"u. c #4C4216",
"i. c #414C16",
"p. c #49461B",
"a. c #4B4D19",
"s. c #53431A",
"d. c #5B451C",
"f. c #435217",
"g. c #45521A",
"h. c #49521A",
"j. c #475B1E",
"k. c #56501E",
"l. c #41691C",
"z. c #434F2A",
"x. c #4C5522",
"c. c #595423",
"v. c #6D4624",
"b. c #734326",
"n. c #7C4227",
"m. c #7D4429",
"M. c #675728",
"N. c #4D7C31",
"B. c #47764F",
"V. c #497952",
"C. c #547751",
"Z. c #873E2A",
"A. c #804028",
"S. c #008401",
"D. c #008A03",
"F. c #00850C",
"G. c #008B0D",
"H. c #009305",
"J. c #00960A",
"K. c #00990C",
"L. c #008410",
"P. c #008C12",
"I. c #048C19",
"U. c #168611",
"Y. c #009413",
"T. c #009C12",
"R. c #16931A",
"E. c #288917",
"W. c #00A20E",
"Q. c #00A515",
"!. c #00A817",
"~. c #00A51C",
"^. c #00A91B",
"/. c #009A22",
"(. c #2B8126",
"). c #398B2B",
"_. c #399726",
"`. c #359925",
"'. c #389F2B",
"]. c #00A724",
"[. c #00AD24",
"{. c #00B027",
"}. c #00B22A",
"|. c #00B632",
" X c #01B936",
".X c #0CB937",
"XX c #04BB38",
"oX c #14BB39",
"OX c #29A52F",
"+X c #23AD2F",
"@X c #3CA02C",
"#X c #25AE30",
"$X c #2EAE32",
"%X c #2FB134",
"&X c #2DBC3B",
"*X c #3CB136",
"=X c #3CB539",
"-X c #39BD3E",
";X c #468E2A",
":X c #4B8230",
">X c #46AC35",
",X c #47B43B",
"<X c #53B63E",
"1X c #32C03F",
"2X c #4BBC41",
"3X c #58B641",
"4X c #55B942",
"5X c #5ABA43",
"6X c #63B048",
"7X c #37C241",
"8X c #3CC242",
"9X c #43C444",
"0X c #4AC546",
"qX c #4EC648",
"wX c #4BCA4A",
"eX c #53C649",
"rX c #55C74A",
"tX c #5DCA4D",
"yX c #5BD052",
"uX c #65C94E",
"iX c #64CD51",
"pX c #6ACF53",
"aX c #65D355",
"sX c #6AD356",
"dX c #74D157",
/* pixels */
"Q.Q.Q.Q.~.Q.Q.Q.Q.Q.Q.Q.Q.Q.Q.^.!.^.!.Q.Q.Q.!.Q.Q.W.Q.}.9X8X{.Q.Q.^.!.!.Q.Q.Q.Q.Q.Q.Q.Q.Q.Q.Q.!.!.^.^.Q.!.W.Q.{.-X&X[.[.&X=X{.^.",
"Q.Q.Q.Q.Q.Q.Q.Q.Q.Q.Q.Q.Q.Q.Q.^.[.{.^.Q.Q.^.[.[.!.Q.^. X0X7X].Q.^.[.^.W.Q.Q.Q.Q.Q.Q.Q.~.Q.Q.Q.^.[.{.{.[.^.Q.W.{.$X+X].[.+X$X[.~.",
"Q.Q.Q.Q.Q.Q.Q.Q.~.^.Q.Q.Q.W.Q.[.XXXX{.W.W.{.oX X[.[. XeXtX&X[.].|.oX{.Q.Q.Q.Q.Q.Q.Q.Q.Q.Q.Q.Q.[. X9X9X X^.Q.Q.T.G.Y.T.Q.Y.P.T.Q.",
"~.Q.Q.Q.Q.Q.Q.~.Q.Q.Q.Q.Q.Q.Q.}.0X0X}.K.W.{.0X0X X}.8XpXsX9X|. X0X0X}.Q.Q.Q.Q.Q.~.Q.Q.Q.Q.Q.Q.{.9XdXdX9X{.Q.Q.J.S.S.K.K.S.S.K.T.",
"Q.Q.Q.Q.Q.Q.Q.Q.Q.Q.Q.^.Q.W.Q.}.0X0X}.W.W.{.9XtXqX9XrXiXiXrX9XeXtX9X{.Q.W.Q.Q.Q.Q.Q.Q.Q.Q.W.Q.{.9XdXdX9X[.Q.W.Q.J.J.K.Q.K.J.T.Q.",
"Q.Q.Q.Q.Q.Q.Q.Q.Q.Q.Q.Q.Q.Q.Q.[.$X$X[.Q.Q.].#X5XuXaXaXrX,X4X5XuX5X#X~.Q.Q.Q.Q.Q.Q.Q.Q.Q.Q.Q.Q.[.|.9X0X|.[.Q.W.Q.!.!.!.!.Q.^.Q.Q.",
"Q.Q.Q.Q.Q.~.Q.Q.Q.Q.Q.Q.Q.!.Q.T.Y.P.T.!.!.K.G._.3X6XN.y.q j p.x.j 0 3 5 5 6 5 ^ 4.T.Q.Q.Q.Q.Q.~.[.{.{.[.^.Q.Q.Q.!.!.!.Q.!.!.!.Q.",
"Q.Q.Q.Q.Q.Q.Q.Q.Q.Q.Q.Q.Q.!.!.K.S.S.K.!.^.J.S.F.).:Xk.h t t s h t < < q q < < 5 1.P.Q.Q.Q.Q.Q.Q.Q.W.Q.Q.Q.Q.Q.Q.Q.Q.Q.Q.Q.Q.Q.Q.",
"Q.Q.Q.Q.Q.Q.Q.Q.Q.Q.Q.Q.Q.^.!.T.J.J.Q.Q.!.W.J.F.( X.h M N N N M B B v V m B s h _ &.G.Q.Q.Q.Q.Q.W.Q.Q.Q.Q.Q.~.Q.Q.Q.Q.Q.Q.Q.Q.Q.",
"{.[.^.Q.Q.Q.Q.Q.Q.Q.Q.Q.~.Q.Q.!.!.!.Q.Q.Q.!.Y.;.` t a M N M B M V Z F J J A Z v g ` *.P.Q.Q.Q.Q.Q.Q.Q.Q.Q.Q.^.Q.Q.Q.~.Q.Q.^.Q.Q.",
"1XXX[.W.Q.Q.Q.Q.Q.~.Q.Q.Q.Q.Q.!.^.!.^.Q.Q.T.3.| h s p y y g i g g k Z J J J A A v g _ &.P.Q.Q.Q.Q.Q.Q.Q.Q.Q.Q.Q.Q.Q.Q.Q.Q.Q.Q.Q.",
"1X.X[.Q.Q.Q.Q.Q.Q.Q.Q.Q.Q.Q.Q.Q.Q.Q.Q.Q.Y.3.| g c x 7 = * * = & * 3 h Z D D D A Z v h ` *.P.T.Q.Q.Q.Q.Q.Q.Q.Q.Q.Q.Q.Q.Q.~.Q.Q.Q.",
"{.{.^.Q.Q.Q.Q.Q.Q.Q.Q.Q.Q.Q.Q.Q.Q.Q.Q.Y.;.] k c x 6 * O O O O O O + 3 k Z F A A A C v h ` &.P.Q.Q.Q.Q.Q.Q.Q.Q.Q.Q.Q.Q.Q.Q.Q.Q.Q.",
"Q.Q.Q.Q.Q.Q.Q.Q.Q.Q.Q.Q.Q.Q.Q.Q.Q.T.Y.5.| g x b 8 * O O O O O O O O + 3 h m A D D A Z d < Y L.Q.Q.Q.Q.Q.Q.Q.~.Q.Q.Q.Q.Q.Q.Q.Q.Q.",
"Q.Q.Q.Q.Q.Q.Q.Q.Q.Q.Q.Q.Q.~.Q.Q.Q.Y.1.| l x h 6 * O O O O O O O O O O + 3 g Z A D A Z d < Y :.Q.Q.Q.Q.Q.Q.Q.Q.Q.Q.Q.Q.Q.Q.Q.Q.~.",
"Q.Q.!.W.W.^.^.[.^.Q.Q.Q.Q.Q.Q.Q.Q.P.~ 7 c Z g 1 $ O O O O O O O O O O $ = q m A D A Z c h ..1.G.T.~.Q.Q.Q.Q.~.Q.Q.Q.Q.Q.Q.Q.Q.Q.",
"Q.Q.Q.W.W.{. XoX{.Q.W.Q.Q.Q.Q.Q.Q.P.~ g v F g * O O O O O O O O O O O $ 2 l d.A F F Z Z Z n o.&.P.Q.Q.Q.Q.Q.Q.Q.Q.~.Q.Q.Q.Q.Q.Q.",
"Q.Q.Q.^.{.XXqX1X[.!.[.{.^.W.Q.Q.Q.P.~ 0 v m h = O O O O O O O O O O O $ 9 s.Z A Z F v F b.F h 4 *.P.T.Q.Q.Q.Q.Q.Q.Q.Q.^.{.{.^.Q.",
"Q.Q.W.[.XXrXuX1X[.[. XoX}.W.Q.Q.Q.P.~ 0 v Z g 1 O O O O O O O O O O O $ w x.Z Z Z v v F b.F v g ` &.P.Y.Q.~.Q.Q.Q.Q.Q.{.oXoX{.!.",
"Q.W.Q.^.$X5XuXwXXX|.*X$X[.Q.W.!.Q.P.~ q v v g 9 e.q.; O O O O ; 0.0.; O 2 p Z Z Z c z v F F F f i E :.Y.Q.Q.Q.Q.Q.Q.Q.^.%X*X}.{.",
"Q.Q.Q.T.Y.;X<XyXwX=X`.P.T.Q.!.Q.Q.P.~ 0 v c u z.C.V.w.$ O O O 0.B.V.w.O @ < c A Z x g g s V V f i E 4.Y.Q.Q.Q.Q.Q.!.!.K.P.`.*X=X",
"!.!.!.J.S.G.@X<X<X@XG.S.J.!.!.Q.Q.P.~ 0 x x u z.C.V.w.+ O O O 0.B.V.w.O # , c C Z k 6 , t a d p w &.P.Y.Q.Q.~.Q.Q.!.!.J.S.I.2XtX",
"Q.!.!.W.J.J.G.E.E.U.G.K.W.Q.!.Q.Q.P.~ 0 x x u 9 e.q.; O O O O ; q.9.; O # 6 c A Z b 7 3 , < < } *.P.T.T.Q.Q.Q.Q.Q.!.!.K.H.].2XtX",
"Q.Q.Q.!.^.K.S.-.-.D.T.!.!.Q.Q.Q.Q.P.^ 7 p x q 2 O O O O O O O O O O $ + 3 g m Z Z x y 3 E R Y &.P.Q.Q.Q.Q.Q.Q.Q.Q.Q.Q.W.Q.[.#X*X",
"Q.Q.Q.^.!.Q.J.H.H.J.Q.!.!.Q.Q.Q.Q.I.^ 6 h x q > O O O O O O O O O O O 3 h b v F Z x y E *.L.L.Y.T.Q.Q.Q.~.Q.Q.Q.Q.Q.Q.!.!.Q.P.I.",
"Q.Q.Q.Q.Q.Q.!.!.Q.W.Q.Q.Q.Q.Q.Q.Q.Y.*.] q s h 3 & O $ O O O O O O O 2 g Z F m v d h ` &.P.Q.Q.Q.~.Q.Q.Q.~.Q.Q.Q.Q.Q.Q.^.!.K.S.-.",
"Q.Q.Q.Q.Q.!.!.!.Q.!.Q.Q.Q.Q.Q.!.Q.T.Y.;.W q h g 3 * & % $ O O O + 2 < z v F V c p 5 &.P.T.Q.Q.Q.!.Q.Q.Q.!.Q.Q.Q.Q.Q.Q.^.!.T.K.H.",
"Q.Q.Q.Q.Q.Q.Q.^.{.{.^.Q.Q.Q.Q.W.Q.Q.Q.Y.3.( e g q w 9 : $ O O $ 3 l v v x x h e ] *.P.Q.Q.Q.Q.Q.Q.Q.Q.Q.Q.Q.~.Q.Q.Q.Q.Q.!.!.!.!.",
"Q.Q.Q.~.Q.Q.W.{.oXoX{.Q.W.Q.!.Q.Q.Q.Q.Q.T.;.( q p z l 9 2 & & 3 l F Z b g < < _ *.P.Q.Q.Q.Q.~.Q.Q.Q.Q.~.Q.Q.Q.Q.Q.Q.Q.Q.!.Q.!.!.",
"Q.Q.Q.Q.Q.Q.Q.{.oXoX{.W.W.^.[.[.^.Q.Q.Q.T.:.Y 7 x m m z j 0 7 k v.v.F x q < 0 _ *.Y.Q.Q.Q.Q.Q.Q.Q.Q.Q.!.Q.Q.Q.Q.Q.Q.Q.Q.Q.Q.Q.!.",
"Q.Q.Q.Q.Q.Q.Q.^.{.{.!.W.W.{.oXoX{.Q.Q.Y.;.~ w x F Z F Z Z m m A m.m.F x h h h e W *.P.Q.Q.Q.Q.Q.Q.Q.Q.Q.Q.Q.Q.Q.~.Q.Q.Q.Q.Q.Q.Q.",
"~.Q.Q.Q.Q.Q.Q.Q.Q.Q.Q.W.!.{.oXoX{.T.J.3.W q x Z F C A A A A A b.K b.F Z Z V V v h ` *.I.T.Q.Q.Q.Q.Q.Q.Q.Q.Q.Q.Q.!.~.Q.Q.Q.Q.Q.Q.",
"Q.Q.Q.Q.Q.Q.Q.Q.Q.Q.Q.Q.Q.^.{.].^.Y.*.] j x V A D A D D D J J J J b.A A A A A C f h } &.L.Q.Q.Q.Q.Q.Q.Q.Q.Q.Q.Q.Q.Q.Q.Q.Q.Q.Q.Q.",
"Q.Q.Q.W.Q.Q.Q.Q.Q.Q.Q.Q.Q.Q.Q.Q.Q.P.~ 3 h v A A A A A A A A A A A A A D A A D A C f i Y 4.Q.Q.Q.Q.Q.Q.Q.Q.Q.Q.Q.Q.Q.Q.Q.Q.Q.Q.Q.",
"Q.Q.Q.Q.Q.Q.Q.Q.Q.Q.Q.Q.Q.Q.Q.Q.Q.P.^ 3 p Z A A A A A A A A A A A A D A A D D A A f y R :.Q.Q.Q.Q.Q.Q.Q.Q.Q.Q.Q.Q.Q.Q.Q.Q.Q.Q.Q.",
"Q.!.[.[.^.Q.Q.Q.Q.Q.Q.Q.Q.Q.Q.Q.Q.P.~ 6 h Z A A J A A v.A A A A A A A A A D D d.O.O.8 W L.Q.Q.Q.Q.Q.[.[.^.Q.W.^.[.{.^.Q.Q.Q.Q.!.",
"!.[..XoX{.Q.Q.Q.Q.Q.Q.Q.Q.Q.Q.Q.Q.P.~ 0 c A A A A A A A A A A A A A D F A G D h.3.1.| +.4.Q.!.Q.Q.[.XXoX[.K.W.[.oXoX{.Q.Q.Q.Q.Q.",
"{. XwX0X{.Q.W.Q.Q.Q.Q.Q.Q.Q.Q.Q.Q.P.~ 0 B D G A A A A A A A J A A A A A A G D h.3.3.@.O.*.G.Q.W.Q.{.9X9X{.Q.[.}.>X$X[.Q.Q.Q.Q.Q.",
"9XwXuX8X}.Q.Q.Q.Q.Q.Q.Q.Q.Q.Q.Q.Q.P.~ 0 B D J A A A A A A A A A F D A A A D D d.h.f.s.k } &.G.Q.Q.{.9X8X}.{. X=X`.Y.K.Q.^.Q.Q.Q.",
"iXuX5X#X~.Q.Q.Q.Q.Q.Q.Q.Q.Q.Q.Q.Q.P.) 5 @.f.d.A D A A A A A A A A A A A A D H H S A Z f p } &.G.Q.{.0X7X}.}.8X4XR.S.J.!.!.Q.Q.Q.",
"uX5X_.G.T.Q.Q.!.Q.Q.^.Q.Q.Q.Q.Q.Q.P.+.+.1.3.#.Z D D D A V Z Z A D F A A A D D S H D Z V f h ` &.P.}.9X7X{.{.9X0X].H.K.Q.!.Q.Q.!.",
">X'.F.S.J.!.!.Q.~.Q.Q.Q.Q.Q.Q.~./.7.O.@.5.5.#.Z D D K D C Z A C A A A D D d.h.f.d.C V n i.y.q 5 *.I.OX+X[.[.+X$X[.Q.Q.Q.Q.Q.!.Q.",
"U.G.J.J.Q.!.!.Q.Q.Q.Q.Q.Q.Q.Q./.t.#.n u.i.f.k.A D J A.n.Z V Z A A A A H D h.5.3.#.Z C i.1.1.o.g 5 / 5.F.T.T.Y.P.T.!.Q.Q.Q.Q.Q.Q.",
"-.S.K.^.Q.Q.Q.Q.Q.Q.Q.~.Q.Q.G.I.7.8.p.v C S A J b.v.M.c.s.x V A G H J G D h.3.3.#.C C @.G.Y.3.o.6 E $.=.K.K.S.S.K.^.!.Q.Q.Q.Q.Q.",
"J.K.Q.^.!.Q.Q.Q.Q.Q.Q.Q.Q.Q.&.&.6.5.@.b C C G H A.M.l.{ ] 7 x Z A S D D A d.h.f.k.C C @.G.Q.T.3._ R %.F.Q.K.J.J.T.^.Q.Q.Q.Q.Q.Q.",
"!.Q.Q.Q.Q.Q.Q.Q.Q.Q.Q.Q.Q.Q.R U &.1.@.u.i.g.s.K Z.M.8.$.$.W l u.g.h.d.A A D S H D S C u.1.G.L.;.&.&.P.Y.!.Q.!.!.!.Q.Q.Q.Q.Q.Q.Q.",
"!.!.^.Q.Q.Q.Q.Q.~.Q.Q.Q.Q.Q.E 4 ..i.u.h.(.(.j.F K b.a.$.:.;.@.@.3.3.#.m Z C S S C V V b i.#.@.) 4.P.T.Q.!.!.!.!.!.Q.Q.^.~.Q.Q.Q.",
"Q.Q.Q.Q.Q.Q.Q.Q.Q.Q.Q.Q.Q.Q.4 3 ..y.s.h.:X:Xx.d.k.k.n  .*.*.|  .*.3.#.Z C m a.f.u.u.i.O.k n a.8.5.P.T.T.Q.Q.Q.Q.Q.Q.Q.Q.Q.Q.Q.Q.",
"Q.Q.Q.Q.Q.Q.Q.Q.Q.Q.^.Q.Q.Q.E R &.&.#.s.c.M.d.i.{ { [ 4 I U - 5  .@.u.Z S a.3.1.@.@.1.1.O.a.t.(.<.&.F.T.Q.Q.Q.Q.Q.Q.Q.Q.Q.Q.Q.Q.",
"Q.Q.Q.Q.Q.Q.Q.Q.Q.Q.Q.Q.Q.Q.&.1.Y.G.) z c.c.d.O./ / T # o $ U W e x v m a.2.:.1.o.o.1.&. .x.N.).<.&.F.Y.Q.Q.Q.Q.Q.Q.Q.Q.Q.Q.Q.Q.",
"Q.Q.Q.Q.Q.Q.Q.!.Q.Q.Q.Q.Q.~.Y.Y.Q.G.~ ] 5.,.#.u.X.[ 5 > o % %.;.W g s i.3.:.*.@.u.y.| W l s.x.r.6.F.K.T.Q.Q.!.Q.Q.Q.Q.Q.Q.Q.Q.Q.",
"Q.Q.Q.Q.Q.Q.Q.Q.~.Q.Q.Q.Q.Q.Q.T.G.;./ &.;.;.| h d g } U I / ;.;.U < p X.5.6.&.X.h g } ` e h y.8.I.Q.Q.Q.Q.Q.Q.Q.Q.Q.Q.Q.Q.^.^.[.",
"Q.Q.Q.Q.Q.Q.Q.Q.Q.Q.Q.Q.Q.Q.Q.Y.*.&.*.;.$.P , X r , T ! ! Q L % # . X , 1 T T ' 6 3 $./ _ 5 ] ;.Y.^.!.Q.Q.Q.Q.W.Q.Q.Q.Q.W.[. X&X",
"Q.Q.[.[.^.Q.Q.Q.Q.Q.Q.Q.Q.Q.T.P.&.&.F.F.&.& > > > T $.=.-.$.I +   > > > 1 T $.! P Q :.-./ / =.S.K.!.^.Q.Q.Q.Q.^.[.^.Q.Q.^.|.0XrX",
"Q.[..XoX[.Q.W.Q.Q.Q.Q.Q.Q.Q.Q.Y.P.F.S.-.%.I + + L $.%.=.%.=.$.L + + L Q ! ! %.%.$.%.-.=.%.-.H.Q.Q.Q.Q.Q.Q.W.Q.{.oX X].^. X0XtXiX",
"}.XXwX0X}.Q.W.!.Q.Q.Q.Q.Q.^.[.{.Y.D.-.%.-.$.L % I ! %.=.=.=.=.! L L ! =.=.=.%.=.=.%.=.%.=.-.S.T.Q.Q.Q.Q.Q.Q.Q.}.0X0X X}.8XiXiXaX",
"8XqXuX0X[.Q.Q.Q.Q.Q.Q.Q.Q.[.oXoXS.-.%.=.=.%.$.Q % L ! =.=.=.=.%.$.$.%.=.=.=.=.%.=.=.%.%.=.=.-.S.T.Q.Q.Q.Q.W.Q.{.8XyXqX9XrXuXiXiX",
"iXuX4X+X].W.Q.Q.Q.Q.Q.Q.Q.[.oXoXS.-.=.=.=.=.=.$.L L ! =.=.=.=.=.=.=.=.=.=.=.=.=.=.=.%.%.%.-.-.D.T.Q.Q.Q.Q.W.Q.~.+X<XiXaXaXrX2X,X",
"uX5X_.P.K.!.!.Q.^.Q.Q.Q.Q.!.[.{.Y.S.-.=.=.=.=.%.$.! $.=.=.=.=.=.=.%.=.=.=.=.=.=.=.%.%.%.%.-.D.T.!.Q.Q.Q.Q.!.Q.K.G._.5XsXsX<X`.E.",
">X@XF.S.H.!.!.Q.Q.Q.Q.Q.!.Q.Q.Q.Q.T.D.-.-.-.=.=.%.%.%.=.=.=.=.=.=.=.=.=.=.=.=.=.%.-.-.-.-.S.T.!.!.Q.Q.Q.!.^.{.~.S.D.'.<X<X'.>.=.",
"U.G.J.J.K.!.!.Q.Q.Q.Q.Q.Q.Q.W.Q.Q.Q.T.K.K.G.-.=.=.=.=.=.=.=.=.=.=.%.=.=.=.%.=.%.=.-.J.J.H.T.Q.!.Q.Q.Q.Q.Q.{.oX.X~.S.S.E.E.>.=.%.",
"-.S.T.!.!.!.!.!.Q.Q.Q.Q.!.Q.Q.Q.Q.Q.Q.Q.Q.K.-.=.-.=.-.=.=.=.=.=.-.-.=.-.=.-.-.=.=.S.Y.T.K.Q.Q.Q.Q.Q.Q.Q.Q.[.%X=X|.~.S.-.-.-.-.-.",
"J.J.Q.!.~.!.Q.Q.Q.~.Q.Q.Q.Q.Q.Q.Q.Q.Q.Q.Q.Q.Q.Q.Q.Q.Q.Q.Q.Q.Q.Q.Q.Q.Q.Q.!.Q.Q.^.Q.Q.Q.Q.Q.Q.Q.Q.Q.Q.Q.Q.Q.T.Y.'.=X XQ.H.D.H.J.K.",
"K.Q.Q.Q.~.Q.Q.Q.Q.Q.Q.!.Q.Q.Q.Q.Q.Q.Q.Q.Q.Q.Q.Q.Q.Q.Q.Q.Q.Q.Q.Q.Q.Q.Q.Q.Q.Q.Q.Q.Q.Q.Q.Q.Q.Q.Q.Q.Q.Q.Q.!.!.J.-.E.,X1X{.W.K.Q.T.Q."
};
