/* XPM */
static char *result[] = {
/* columns rows colors chars-per-pixel */
"64 64 94 2 ",
"   c #006B00",
".  c #007300",
"X  c #007C00",
"o  c #0D7A04",
"O  c #137D07",
"+  c #187C05",
"@  c #187E09",
"#  c #008500",
"$  c #008B01",
"%  c #00860D",
"&  c #008B0C",
"*  c #009405",
"=  c #00960A",
"-  c #009A0C",
";  c #008D13",
":  c #0B8912",
">  c #088F18",
",  c #168611",
"<  c #009512",
"1  c #009C13",
"2  c #009A18",
"3  c #16931A",
"4  c #258715",
"5  c #2D8716",
"6  c #238814",
"7  c #2D8E1C",
"8  c #00A20E",
"9  c #00A515",
"0  c #00A817",
"q  c #00A51C",
"w  c #00A91B",
"e  c #009E21",
"r  c #2B9722",
"t  c #2F9924",
"y  c #319622",
"u  c #399726",
"i  c #369A25",
"p  c #399926",
"a  c #359D28",
"s  c #399E2A",
"d  c #00A522",
"f  c #00AD24",
"g  c #00A528",
"h  c #00AF2A",
"j  c #1BAC2E",
"k  c #00B126",
"l  c #00B22B",
"z  c #01B533",
"x  c #0AB636",
"c  c #01B936",
"v  c #05BA38",
"b  c #0EB938",
"n  c #14BB39",
"m  c #1DBB39",
"M  c #23AD2F",
"N  c #3CA12D",
"B  c #25AE30",
"V  c #2EAE32",
"C  c #2FB134",
"Z  c #2DBC3B",
"A  c #3CB136",
"S  c #3CB539",
"D  c #3BBB3D",
"F  c #409927",
"G  c #46AC35",
"H  c #41B138",
"J  c #4BB43C",
"K  c #4DB93F",
"L  c #53B63E",
"P  c #32C03F",
"I  c #46BD41",
"U  c #4CBB41",
"Y  c #56B640",
"T  c #54B942",
"R  c #5ABA43",
"E  c #37C241",
"W  c #3CC242",
"Q  c #44C445",
"!  c #4AC445",
"~  c #45C847",
"^  c #4DC648",
"/  c #44C948",
"(  c #4ECA4B",
")  c #53C649",
"_  c #59C549",
"`  c #54C94B",
"'  c #5DCA4D",
"]  c #5BD052",
"[  c #65C94E",
"{  c #64CD51",
"}  c #6ACF53",
"|  c #65D355",
" . c #6AD456",
".. c #74D157",
/* pixels */
"9 9 9 9 9 q 9 9 9 9 9 q 9 0 9 0 9 w 9 9 9 0 0 9 9 9 9 l Q W k 9 9 0 0 9 9 9 9 9 9 9 9 9 9 9 9 9 0 w w 0 0 8 9 k D Z k k Z D k q ",
"9 9 9 9 9 9 9 9 9 9 9 9 9 9 9 w f f w 9 9 w f w 0 9 w c ! E f 9 w f 0 9 9 9 9 9 9 9 9 q 9 9 9 0 f k k f 0 9 9 w V M d d B V d 0 ",
"9 9 9 9 9 9 q 9 9 9 9 9 9 9 9 f v v k 9 8 f n v f f c ) ' Z f f c n k 9 9 9 9 9 9 9 9 9 9 9 9 f c Q Q c w 0 9 1 ; < 1 1 ; ; 1 9 ",
"9 9 9 9 9 9 9 9 q 9 9 9 9 9 9 l / ~ k - 8 l ! / c l W }  .Q l c ! ! k 9 9 9 9 9 9 q 9 9 9 9 9 k Q ....Q k 0 9 - # # - - # # - 9 ",
"q 9 9 9 9 9 9 9 9 9 9 9 9 9 8 l ! ! k 8 8 l Q ' ! I ` { { ` Q ! ' Q k 9 9 9 9 9 9 9 9 9 9 9 9 k I ....Q f 9 8 1 * - 1 9 = = 9 9 ",
"9 9 9 9 9 9 9 9 9 9 9 9 9 8 9 f V V f 9 9 q M R [ | | _ U T [ [ R B q 9 9 9 9 9 9 9 9 9 9 9 9 f c Q Q c w 9 9 0 0 0 9 0 0 0 9 9 ",
"9 9 9 9 9 9 q 9 9 9 9 9 9 0 0 1 ; ; 1 0 0 1 & p R  . .J r a T R s ; - 9 0 9 9 9 9 9 9 9 9 9 9 w f f f f 0 9 9 0 0 0 0 9 9 0 9 9 ",
"9 9 9 9 9 9 9 9 9 9 9 9 9 0 0 - # # 1 0 0 * # % s L Y i o @ a N ; # = 0 0 9 9 9 9 9 9 9 9 9 9 9 9 9 9 9 9 9 9 9 9 9 9 9 9 9 9 9 ",
"9 9 9 9 9 9 9 9 9 9 9 9 9 0 0 9 = = 9 0 9 9 - & % 4 4 O .   + ; & - 9 9 0 9 9 q 9 9 9 9 9 9 9 9 9 9 9 9 9 9 9 9 9 9 9 9 9 9 9 9 ",
"k f 9 9 9 9 9 9 q 9 q 9 9 9 9 9 0 0 9 9 9 0 0 1 $ X . X X X X # - 0 0 9 9 9 9 9 9 9 9 9 9 9 9 9 9 9 9 0 9 9 9 9 9 9 9 q 9 9 9 q ",
"P v f 9 9 9 9 9 9 9 9 9 9 9 9 9 0 0 0 9 9 0 0 9 - * * = = = = = 9 0 0 9 9 9 9 9 9 0 9 q 9 9 9 9 9 9 9 9 9 q 9 9 9 9 9 9 9 9 9 9 ",
"P v f 9 9 9 9 9 9 9 9 9 9 9 9 9 9 9 9 q 9 9 9 9 9 9 0 0 0 0 w 0 9 9 9 9 9 9 9 9 9 9 9 9 9 9 9 9 9 9 9 9 9 9 q 9 9 9 9 9 0 9 9 9 ",
"k k 0 9 9 9 9 9 9 9 9 9 9 q 9 9 9 9 9 9 9 9 9 0 0 w 0 0 0 w 0 0 0 9 9 9 9 9 9 9 9 9 9 9 9 9 9 9 9 9 9 9 9 9 9 9 9 9 9 9 9 9 9 9 ",
"9 9 9 9 9 9 9 8 9 9 9 9 9 9 9 9 9 9 0 9 q 9 9 9 9 9 9 9 9 9 9 9 9 9 9 9 9 9 9 9 9 9 9 9 9 9 9 9 9 9 9 9 9 9 9 9 9 9 9 9 9 q 9 9 ",
"9 9 9 9 9 9 9 9 9 9 9 9 9 q 9 9 9 9 9 9 9 9 9 9 q 9 9 9 9 q 9 9 9 9 9 9 9 9 8 9 9 9 9 9 9 9 9 9 9 9 9 9 9 q 9 9 9 q 9 9 9 9 9 9 ",
"9 9 9 9 9 0 w f w 9 9 9 9 9 9 9 q 9 9 9 9 9 9 9 9 9 9 9 9 9 9 9 9 9 9 0 f f 0 9 9 9 9 w f f 0 9 9 9 q 9 9 9 9 9 9 9 9 9 9 9 9 9 ",
"9 9 9 9 8 k c n k 9 8 9 9 9 9 9 9 9 9 9 9 9 9 9 9 9 9 9 9 9 q 9 9 9 9 k v v f 9 9 9 9 k v v k 9 9 9 9 9 9 9 9 9 9 9 9 9 9 9 9 9 ",
"9 9 9 0 k c ) P f 9 f k w 9 9 9 9 0 9 9 q 9 9 9 q 9 9 9 9 9 9 9 9 8 9 l ! / l 9 8 8 9 l ! ~ k 9 8 9 9 9 q 9 9 9 9 9 9 w k k 0 9 ",
"9 9 8 f c ' [ P f f c n k 8 9 9 9 9 9 9 9 9 q 1 < 1 1 9 9 9 9 9 9 8 8 l ! / k 9 8 9 8 k / ^ k 9 8 9 9 9 9 9 9 9 9 9 9 f n n k 0 ",
"9 8 9 w V R [ / c z S C f 9 8 9 9 9 9 9 9 9 1 1 < 1 q 9 9 9 9 9 9 9 9 f V V f 9 0 8 9 f V V f 9 9 9 q 9 9 9 9 9 9 9 9 f V A z k ",
"9 9 9 1 < F R ] ( S y ; 1 0 0 9 9 9 9 9 9 9 q 9 q 1 9 9 9 9 9 9 9 0 0 1 ; ; 1 0 0 0 0 1 ; ; 1 9 9 9 9 9 9 9 9 q 9 0 0 - ; y A D ",
"0 0 0 * # % s L Y s % # = 0 0 9 9 9 9 9 9 9 9 9 9 9 9 9 9 9 9 9 9 0 0 - # # = 0 0 0 0 - # # - 0 0 9 9 9 9 9 9 9 9 0 0 = # > K [ ",
"9 9 0 9 - $ % 5 5 ; & - 9 9 0 9 9 q 9 q 9 9 9 9 9 9 9 9 9 9 9 9 9 0 9 9 - = 1 0 9 9 9 9 = = 1 0 9 9 9 9 q 9 0 9 9 0 9 - * d I ' ",
"9 9 9 0 0 1 $ . X $ - 0 9 9 9 9 9 9 9 9 9 9 9 9 9 9 9 1 1 9 9 q 9 1 1 1 9 0 0 9 9 9 9 9 0 0 0 9 9 9 9 9 9 9 9 9 9 9 9 8 9 f B A ",
"9 9 9 0 0 9 - * $ - 9 0 0 9 9 9 9 9 9 9 9 9 9 9 9 9 9 1 < 1 1 1 < < < 1 9 0 9 9 9 9 0 0 0 0 0 9 q 9 9 9 9 9 9 0 9 9 9 0 0 9 ; : ",
"9 9 9 9 9 0 9 0 9 9 9 9 9 9 9 9 9 9 q 9 9 9 9 9 9 q f q 1 < 1 < < & < < 9 9 9 9 q 9 9 9 9 9 9 9 9 9 9 9 9 9 9 q 9 9 9 0 0 1 # X ",
"9 9 9 9 9 0 0 0 0 0 9 9 9 9 9 9 9 9 9 9 9 9 9 9 9 f c x g 1 < = < 1 9 1 9 9 9 9 9 9 9 9 9 9 9 9 9 9 9 9 9 9 9 9 9 9 9 w 9 9 - = ",
"9 9 q 9 9 9 9 0 k f 0 9 8 9 9 9 9 9 9 9 9 9 9 8 9 h ! ! h - & 2 d w q 9 9 q 9 9 9 9 9 9 9 9 q 9 9 9 9 q 9 9 9 9 9 9 9 9 9 0 9 9 ",
"9 9 9 9 9 9 9 k n n k 9 8 9 9 8 9 9 9 9 9 9 9 8 9 k ! ! f = = e z x d < 8 9 q 0 9 9 9 q 9 q 9 9 9 0 9 9 q 9 9 9 9 9 9 9 9 9 0 0 ",
"9 9 9 9 9 9 9 f n n k 8 8 w k f w 9 9 9 9 9 9 9 9 k v b f - = g U U g - - 9 9 9 9 9 9 9 9 9 9 9 9 9 9 q 9 9 9 9 9 9 q 9 9 9 9 9 ",
"0 q 9 9 9 9 9 w f k w 9 8 k m m k 9 9 9 9 9 9 9 9 0 f f w - 8 h U U f 9 8 9 9 9 9 9 9 9 9 9 9 9 9 9 9 9 9 9 9 9 9 9 9 9 9 9 9 9 ",
"9 9 9 9 9 9 9 9 9 9 9 8 0 k n n k 9 8 9 9 9 q 9 9 1 9 9 9 9 9 k v v k 9 9 9 9 9 q 9 9 0 9 9 9 q 9 9 9 9 9 9 9 q 9 9 9 9 9 9 9 9 ",
"9 9 9 9 9 9 9 9 9 9 9 9 9 0 k f w 9 9 9 9 9 9 1 1 < 1 9 9 9 9 w f f 9 9 9 9 9 9 9 9 9 9 9 9 9 9 9 9 9 9 9 9 9 9 9 9 9 9 9 9 9 9 ",
"9 9 8 9 9 9 9 9 9 9 9 9 9 9 9 9 0 9 9 9 9 9 1 2 < 1 q 9 9 9 9 9 9 9 9 9 9 1 9 9 9 9 9 q 9 9 9 9 9 9 9 9 9 9 9 9 9 9 9 9 9 9 9 9 ",
"9 9 9 9 9 9 9 9 9 9 9 9 9 9 9 9 9 9 9 9 9 9 9 1 9 1 9 9 9 9 9 9 9 9 1 1 < 2 9 9 9 9 9 9 9 9 q 9 9 9 9 9 9 9 9 9 9 9 9 9 9 9 9 9 ",
"9 0 f k 0 9 9 9 9 9 9 9 9 9 9 9 9 9 q 9 9 9 9 9 9 9 9 9 9 9 9 9 9 9 9 1 < 2 9 9 9 q 9 9 9 9 0 9 9 0 f f 0 9 9 0 f k 0 9 9 9 9 9 ",
"9 k b n k 9 9 9 9 9 9 9 9 9 9 9 9 9 9 9 9 9 9 9 9 9 9 9 9 9 9 9 9 q 9 9 9 9 9 9 9 9 9 9 9 9 9 8 9 f x n k 8 8 f n n k 9 9 9 9 9 ",
"k c ( ! k 9 8 9 9 9 9 9 9 9 9 9 9 9 9 9 9 9 9 9 9 9 9 9 9 9 9 9 9 9 9 9 9 9 9 9 0 q 9 9 9 9 9 9 9 k Q Q k 9 f l H V f 9 9 9 9 9 ",
"Q ) { W k 9 9 9 9 9 9 9 9 9 9 9 9 9 9 9 9 q 9 9 9 9 9 9 9 9 9 9 9 9 9 9 9 9 9 9 9 9 9 9 9 9 9 8 9 l Q Q k k c A i ; 1 9 0 9 9 9 ",
"{ [ T B q 9 9 9 9 9 q 9 9 9 9 9 9 9 9 9 9 9 9 9 9 9 9 q 9 9 9 9 9 9 9 9 q 9 9 9 9 9 9 9 9 9 9 9 9 l Q P k l W T 3 # = 0 0 9 9 9 ",
"[ R u % 1 0 0 9 9 9 9 9 9 9 9 9 9 9 9 9 9 9 9 9 9 9 9 9 9 9 9 9 9 q 9 9 9 9 9 9 9 9 9 9 9 9 9 8 0 l W E l k Q ! d * - 0 0 9 9 9 ",
"G s % # * 0 0 9 9 q 9 9 9 9 9 0 k f 0 9 9 9 9 9 9 0 k k w 8 9 9 9 9 9 9 9 9 9 9 9 q 9 9 9 9 9 9 9 d V B d q M C f 9 9 9 9 9 9 9 ",
", % = - 9 9 0 9 9 9 9 9 9 9 9 k n n f 9 9 9 9 9 9 f n n k 9 8 9 9 q 9 9 q 0 9 9 9 9 9 9 9 9 9 0 0 1 ; ; 9 1 ; ; 1 0 0 9 9 9 9 9 ",
"X # 1 9 0 9 9 9 0 9 9 9 q 9 8 k n m f 9 8 8 9 0 f l H V f 9 9 9 9 9 9 9 9 9 9 9 9 q 9 9 9 9 9 0 0 - # # - - $ # - 0 0 9 9 9 9 9 ",
"= - 9 0 0 9 9 9 9 9 9 9 9 9 9 0 k f w 9 8 8 9 k c H a < 1 0 0 9 9 9 9 9 9 9 9 9 9 9 9 9 9 9 9 9 0 9 * = 9 1 = = 9 9 0 9 9 9 9 9 ",
"0 9 0 q 9 9 9 9 9 9 q 9 9 9 9 9 9 9 9 9 f w 0 l ~ L 3 # = 9 0 9 9 9 9 9 q 9 9 q 9 9 9 9 9 9 9 9 9 9 0 9 0 0 9 0 9 9 9 9 9 9 q 9 ",
"0 0 9 9 9 9 9 9 9 9 9 9 9 9 9 9 9 8 9 f n c k l Q I d * - 9 w 9 9 q 9 9 9 9 9 9 9 0 9 9 9 9 9 9 9 0 0 0 0 9 0 0 9 9 0 9 9 9 9 9 ",
"9 9 9 9 9 9 9 9 9 9 9 9 9 9 9 9 9 8 9 k ! Q l w M V f 0 9 9 9 9 9 9 9 0 9 9 9 9 9 q 9 9 9 w f f 0 9 9 9 9 9 9 9 9 9 q 9 9 9 9 9 ",
"9 9 9 9 9 9 9 9 9 0 9 9 9 9 9 9 9 8 9 k ! ~ l 1 & ; 1 0 0 9 9 9 9 9 9 9 9 9 9 9 9 9 9 9 9 k v v k 9 9 9 9 9 9 9 9 9 9 9 9 9 9 9 ",
"9 9 9 9 9 9 9 9 9 9 9 9 q 9 9 9 9 9 9 k v v k * # # - 0 0 9 9 9 9 9 9 9 9 9 9 9 9 9 9 9 9 l ! ~ k 9 8 9 9 9 9 9 9 9 9 9 9 9 9 9 ",
"9 9 9 9 9 9 9 9 9 q 9 9 9 0 9 9 9 9 9 0 f f w 8 * = 9 9 w 9 9 9 9 9 9 9 9 9 9 9 9 9 9 8 9 l ! ! l 0 9 9 9 9 9 9 9 9 9 9 9 9 9 9 ",
"9 9 9 9 9 9 9 9 9 9 9 9 9 9 q 9 9 9 9 9 9 9 9 0 0 0 9 9 9 9 9 9 9 9 9 0 k k 0 9 9 9 9 8 9 f V C w 8 9 9 9 9 9 9 9 9 9 9 9 0 w f ",
"9 9 9 9 9 9 9 9 9 9 9 9 9 9 9 9 9 9 9 9 9 9 9 w 0 0 0 9 9 9 9 9 9 9 9 k n n k 8 8 9 9 0 9 1 ; ; 1 0 0 9 9 9 9 9 9 9 9 9 9 f z Z ",
"9 9 f f 0 9 9 9 9 9 9 9 9 9 9 9 9 9 9 9 9 9 9 9 9 9 9 9 9 q 0 q 9 9 9 w V H l f 0 9 9 0 0 - # # - 0 0 9 9 9 9 0 f w 9 9 0 c ! ` ",
"9 f b n f 9 9 9 9 9 9 9 9 9 9 9 9 9 q 9 9 9 9 9 9 9 9 9 9 9 9 9 9 0 9 1 ; i H c k 9 9 0 0 1 = = 9 9 9 9 9 9 9 k n z f 9 z ^ ' { ",
"l c ( ~ l 9 8 9 9 9 9 9 9 w f f 0 9 9 9 9 9 9 9 9 9 9 9 9 9 9 9 9 0 0 * $ 3 T ~ l 9 8 9 9 0 0 0 9 9 9 9 9 9 9 k ! / c z W { | { ",
"W ) { ! l 8 8 9 9 9 9 9 9 f n n k 8 9 9 9 9 9 9 9 9 9 9 9 9 0 q 9 0 0 - * q ! ! l 9 8 9 9 9 0 0 0 9 9 9 9 8 9 l Q ' ) Q _ [ { ' ",
"{ [ T M q 9 9 9 9 9 9 9 9 f n n f 9 9 9 9 9 9 9 q 9 9 9 9 9 9 9 9 9 9 9 0 f V V f 9 9 9 9 9 9 9 9 9 9 9 9 8 9 q j T [ | | _ K K ",
"[ R p & < 0 0 9 q 9 9 9 9 w k f f 9 9 9 9 9 9 9 9 9 9 9 9 9 9 9 9 9 9 0 w 1 ; ; 1 9 0 9 9 9 9 9 9 9 9 9 9 9 9 = & u R  . .T t 3 ",
"G s % # - 0 w 9 0 9 9 9 9 9 9 9 9 9 9 9 9 9 9 9 9 9 q 9 9 9 9 9 9 9 9 0 0 = # # 1 0 0 9 9 9 9 9 9 9 9 9 0 w k q $ % a L L s +   ",
", % & = 9 9 9 9 9 9 9 9 9 9 8 9 9 9 9 9 q 9 9 9 9 9 q 0 9 q 9 9 9 9 9 0 0 9 * = 1 0 0 9 9 9 9 9 9 9 q 9 9 k n v 2 $ # 6 4 ,     ",
"X $ 8 0 0 9 9 9 9 9 9 9 9 9 9 9 9 9 9 9 9 9 9 9 9 9 9 9 9 9 9 9 9 9 9 9 9 0 0 9 0 9 9 9 9 9 9 9 9 9 9 9 9 d C D c q $ X X X # X ",
"= = 9 0 0 9 9 9 9 q 9 q 9 9 9 9 q 9 9 0 9 9 9 9 9 9 9 9 9 9 9 q 9 9 9 9 9 9 0 0 0 9 9 9 9 q 9 9 9 9 9 0 9 1 ; i S c 9 * * * = = ",
"1 9 9 9 0 9 9 9 0 9 9 9 9 9 9 9 9 9 9 9 9 9 9 q 9 9 9 9 9 9 9 9 9 9 9 9 9 9 0 0 9 9 9 9 9 0 9 9 9 9 9 0 9 = # 7 J P k - - 1 1 9 "
};
