/* XPM */
static char *result[] = {
/* columns rows colors chars-per-pixel */
"64 64 94 2 ",
"   c #006B00",
".  c #007300",
"X  c #007C00",
"o  c #0D7A04",
"O  c #137D07",
"+  c #187C05",
"@  c #187E09",
"#  c #008500",
"$  c #008B01",
"%  c #00860D",
"&  c #008B0C",
"*  c #009405",
"=  c #00960A",
"-  c #009A0C",
";  c #008D13",
":  c #0B8912",
">  c #088F18",
",  c #168611",
"<  c #009512",
"1  c #009C13",
"2  c #009B1C",
"3  c #16931A",
"4  c #258715",
"5  c #2D8716",
"6  c #238814",
"7  c #2D8E1C",
"8  c #00A20E",
"9  c #00A515",
"0  c #00A817",
"q  c #00A51C",
"w  c #00A91B",
"e  c #2B9722",
"r  c #2F9924",
"t  c #319622",
"y  c #399726",
"u  c #369A25",
"i  c #399926",
"p  c #359D28",
"a  c #399E2A",
"s  c #00A323",
"d  c #00AD24",
"f  c #00AF2A",
"g  c #1BAC2E",
"h  c #00B126",
"j  c #00B22B",
"k  c #03AF35",
"l  c #01B533",
"z  c #01B936",
"x  c #0BB937",
"c  c #05BA38",
"v  c #14BB39",
"b  c #1DBB39",
"n  c #2CA52F",
"m  c #23AD2F",
"M  c #3CA12D",
"N  c #25AE30",
"B  c #2EAE32",
"V  c #2FB134",
"C  c #2DBC3B",
"Z  c #3CB136",
"A  c #3CB539",
"S  c #37BF3F",
"D  c #3BBB3D",
"F  c #409927",
"G  c #46AC35",
"H  c #41B037",
"J  c #41B138",
"K  c #4BB43C",
"L  c #4DB93F",
"P  c #53B63E",
"I  c #32C03F",
"U  c #45BD42",
"Y  c #4BBB42",
"T  c #56B640",
"R  c #54B942",
"E  c #5ABA43",
"W  c #37C241",
"Q  c #3CC242",
"!  c #44C445",
"~  c #4AC445",
"^  c #45C847",
"/  c #4DC648",
"(  c #44C948",
")  c #4ECA4B",
"_  c #53C649",
"`  c #59C549",
"'  c #54C94B",
"]  c #5DCA4D",
"[  c #5BD052",
"{  c #65C94E",
"}  c #64CD51",
"|  c #65D355",
" . c #6AD456",
".. c #74D157",
/* pixels */
"9 9 9 9 9 q 9 9 9 9 q 9 9 9 9 9 w 0 9 9 9 0 0 w 9 8 9 j ! Q f 9 9 0 0 0 9 9 9 9 q 9 9 9 9 9 9 0 w w w 9 0 8 9 h I S d f C A f q ",
"9 9 9 9 9 9 9 9 9 9 9 9 w 9 9 w d d w 9 9 w h w 0 9 w z ~ I d 9 w d w 8 9 9 9 9 9 9 9 w 9 9 9 9 d h h d 0 9 9 w B m d d m B d w ",
"9 9 9 9 9 9 9 q q 9 9 9 9 9 9 h x c h 8 9 h v z f w z / ] I d d l v h 9 9 9 9 9 9 9 9 9 9 9 9 d l ! ! z w 9 9 1 & ; 1 1 ; ; 1 9 ",
"9 9 9 9 9 9 9 9 9 9 9 9 9 8 9 j ^ ^ j 8 - j ~ ~ z j D  . .! j z ^ ~ h 9 9 9 9 9 9 9 9 q 9 9 9 h ! ....! h 0 9 = # $ - - $ # = 1 ",
"q 9 9 9 9 9 9 9 9 9 9 9 9 8 9 j ~ ^ j - 9 j ! } _ ! ' } } ' ! / ] ! h 9 8 9 9 9 9 9 9 9 9 8 9 f ! ....! f 8 8 1 = = 1 8 = = 1 9 ",
"9 9 9 9 9 9 9 9 9 9 9 9 9 9 0 w B B d 9 9 q m T { | | ` L R { { E m q 9 9 9 9 9 9 9 9 9 9 8 9 f l ! ! z w 9 9 0 0 9 0 0 9 w 0 9 ",
"9 9 9 9 9 9 q 9 9 9 9 9 9 0 0 1 ; ; 1 0 9 - & y T  . .K e p R E a & - 0 0 9 9 9 9 9 9 9 9 9 9 w d h h d w 9 9 0 0 0 0 0 0 0 9 9 ",
"9 9 9 9 9 9 9 9 q 9 9 9 9 0 0 - # # - 0 0 = # % M P P u o @ p M ; # = 0 w 9 9 9 9 9 9 9 9 0 9 9 9 8 9 9 9 9 9 9 9 9 9 9 9 9 9 9 ",
"9 9 9 9 9 9 9 9 9 9 9 9 9 w 0 1 = = 9 9 0 9 = * & 6 4 O     + ; & = 8 0 w 9 9 9 9 9 9 9 9 9 9 9 9 9 9 9 9 9 9 9 9 0 9 9 9 9 9 9 ",
"h d w 9 9 9 9 9 9 9 9 9 9 q 9 0 0 0 9 9 9 9 w - # . X X X X X $ 1 w 0 9 9 9 9 9 9 9 9 9 9 9 9 9 9 9 9 9 9 9 9 9 9 9 9 9 q 9 9 9 ",
"I c d 9 9 9 9 9 9 9 q 9 9 9 9 0 w 0 w 9 9 0 w 9 - * * * - = * = 9 w 0 9 9 9 9 9 9 q 9 9 9 9 9 9 9 9 9 9 9 q 9 9 9 9 9 9 9 9 9 9 ",
"I c d 8 9 9 9 9 9 9 9 9 9 9 9 9 9 9 9 9 9 9 9 9 9 9 0 0 0 w 0 0 9 9 9 9 9 9 9 9 9 9 9 9 9 9 9 9 9 9 9 9 9 9 q 9 9 9 9 9 9 9 q 9 ",
"h d w 9 9 9 9 9 9 9 9 9 9 9 9 9 9 9 9 9 9 9 9 w w w w 0 w w w w 9 0 9 9 9 9 9 9 9 9 9 9 9 9 9 9 9 9 9 9 9 9 9 9 9 9 9 9 9 9 9 9 ",
"9 9 9 9 9 9 9 9 9 9 9 9 9 9 9 9 9 9 9 q 9 9 9 9 9 9 9 9 9 9 9 9 9 9 9 9 9 8 9 9 9 9 9 9 9 9 9 9 9 9 9 9 9 9 9 9 9 9 9 9 w 9 9 9 ",
"9 8 9 9 9 9 9 9 9 9 9 9 q 9 9 9 9 9 9 9 9 9 9 9 9 9 9 9 9 9 9 9 9 9 9 9 9 9 8 0 9 9 9 9 9 9 9 9 9 9 q 9 9 q 9 9 9 9 9 9 9 9 9 9 ",
"9 9 9 9 8 w w d w 9 9 9 9 9 9 9 9 q 9 9 9 9 9 9 9 9 9 9 9 9 q 9 9 9 9 w d d w 9 9 9 9 w d d 0 9 9 9 9 9 9 9 9 9 9 q 9 9 9 9 9 9 ",
"9 9 9 8 8 h z v d 9 8 9 8 0 9 9 9 9 9 q 9 w 9 9 9 9 9 9 w 9 9 9 9 9 9 h c c h 9 9 9 9 h c c h 9 9 9 9 9 9 9 9 9 9 9 9 8 9 9 9 9 ",
"9 9 9 0 h c _ I h 0 d h w 9 9 9 9 9 9 9 9 9 9 9 9 q 9 9 9 9 9 9 9 8 9 j ~ ^ j 9 8 8 9 j ~ ^ h 9 8 9 9 9 9 9 9 9 9 9 9 w h h w 9 ",
"9 8 9 d z ] } I f d z v h 8 9 9 9 9 9 9 9 9 9 9 9 9 9 9 9 9 9 9 9 8 1 s L ! h 9 8 9 8 h ^ ~ h 9 9 9 9 9 w 9 9 9 9 9 9 f v v h 0 ",
"9 9 9 w B E { ^ z l Z B d 9 8 0 9 9 9 9 9 9 9 9 9 9 9 9 9 9 9 q 9 9 < 2 n n d 9 9 8 9 d B V d 9 9 9 9 9 q 9 9 9 9 9 9 d V J h f ",
"9 0 9 1 = F E [ ) A t ; - 9 0 9 9 9 9 9 9 9 9 9 9 9 9 9 9 9 9 9 9 9 9 < ; ; < 9 0 0 9 9 ; ; 1 9 9 9 9 9 9 9 9 9 0 9 0 - ; t Z D ",
"0 0 0 = # % a P T F ; # = 0 w 9 w 9 9 q q 9 9 9 9 9 9 9 9 9 q 9 9 9 w = # # - 0 0 w 0 = # # - 0 0 9 9 9 9 q 9 q 9 0 0 = # > L { ",
"9 0 9 8 = & % 5 5 ; * = 9 9 9 9 9 9 9 9 9 9 9 9 9 9 9 9 9 9 9 9 9 0 9 1 = = 9 9 0 9 9 9 = = 1 w 9 9 9 9 9 9 9 9 9 0 0 - * s U ] ",
"9 9 0 0 0 1 $ . X # 1 0 0 9 9 9 9 9 9 9 9 9 9 q 1 9 < 1 1 9 9 9 9 9 9 0 0 9 9 9 9 9 9 9 0 0 0 9 9 9 9 9 9 9 9 9 9 9 9 8 9 d N Z ",
"9 9 9 w 0 9 = * $ = 9 0 0 9 9 9 9 9 9 9 9 9 9 9 1 = ; < < 9 < 1 1 9 9 9 0 0 9 9 9 9 9 w w w 9 9 9 9 9 q 9 9 9 9 9 9 9 0 0 9 ; : ",
"9 9 9 9 9 0 0 0 9 9 9 9 9 9 9 9 9 9 9 q 9 9 9 9 < 2 2 2 2 < < < < 1 9 9 9 9 9 9 9 9 9 9 9 9 9 9 9 9 9 9 9 9 9 9 9 9 9 w 0 - # X ",
"9 9 9 9 9 0 0 0 9 9 9 9 9 9 9 9 9 9 9 9 9 9 9 9 9 s k k s < < 1 9 9 9 9 9 9 9 9 9 9 9 9 9 9 9 9 9 9 9 9 q 9 q 9 9 9 9 w 9 9 - * ",
"9 9 9 9 9 9 9 w h h w 9 9 9 9 8 9 9 9 9 9 9 9 - 1 f ~ Y s = = q d d 0 9 9 9 9 9 q 9 9 9 9 9 9 9 q 9 9 9 9 9 9 9 9 9 9 9 9 9 w 9 ",
"9 9 9 9 9 9 8 h v v h 0 9 8 9 9 9 9 9 9 9 9 9 9 - s Y Y s ; - d c x d 9 9 9 9 9 9 9 9 9 q 9 9 9 w 9 9 9 w 9 9 9 9 9 9 9 9 9 0 0 ",
"9 9 9 9 9 9 9 f v v h 8 8 w h h w 9 9 9 9 9 9 1 1 s k l s = - h ~ ~ h 9 8 0 9 9 9 9 9 9 9 9 9 9 9 9 9 9 9 9 9 9 9 9 q 9 9 9 9 9 ",
"9 9 q 9 9 9 9 w h h w 8 8 h v v h 9 9 9 9 9 9 9 1 9 d d q - 8 h ~ ~ h 9 9 9 9 9 9 9 9 9 9 9 9 9 9 9 9 9 9 9 9 q 9 9 9 9 9 9 9 9 ",
"9 9 9 9 9 9 9 9 9 8 0 8 0 h v b h 9 8 9 9 9 9 9 9 9 9 9 9 9 9 d c c d 1 9 9 9 9 w q 9 9 9 9 q 9 9 9 9 9 9 9 9 9 9 9 9 9 9 9 9 9 ",
"9 9 9 9 9 w 9 9 8 9 9 9 9 w d f w 9 9 q 9 9 9 9 9 9 9 9 9 9 9 w d s 2 - 1 9 q 9 9 9 9 9 9 9 w 9 9 9 9 9 9 9 9 9 9 9 9 9 9 9 9 9 ",
"9 9 9 9 9 9 9 9 9 9 9 9 9 9 9 9 9 9 9 9 9 9 1 q 9 9 9 9 9 9 9 0 9 9 - < 1 1 9 9 9 q 9 9 9 q 9 9 9 9 9 9 9 9 9 9 8 9 9 9 9 9 9 9 ",
"9 9 9 9 9 9 9 9 9 9 9 9 9 9 9 9 9 9 9 9 9 9 < < 1 9 9 9 9 9 9 9 8 9 1 9 1 9 9 9 9 9 9 9 9 9 9 9 9 9 9 9 9 9 9 9 9 9 9 9 9 9 9 9 ",
"9 9 w d w 9 9 9 9 9 9 9 9 9 9 9 9 9 9 9 9 9 < 2 1 1 9 9 9 9 9 9 9 9 9 9 9 9 q 9 9 9 9 9 9 9 9 9 9 9 d d w 9 8 w h h w 9 9 9 9 9 ",
"0 h x v h 9 8 9 9 9 9 9 9 9 9 9 9 9 9 9 9 9 9 9 9 9 9 9 9 9 9 9 9 9 9 9 9 9 9 9 9 9 9 q 9 9 9 9 9 h x v h 8 8 d v v h 9 9 9 9 9 ",
"h z ) ~ j 9 8 0 9 9 9 9 9 0 9 9 9 9 9 9 9 9 9 9 9 9 9 9 9 9 9 9 9 q 9 9 9 9 9 9 9 9 9 9 9 9 9 8 9 j ~ I h 9 d j H B d 9 9 9 9 9 ",
"Q _ { Q h 9 9 9 9 q 9 9 9 9 9 9 9 9 9 9 9 9 9 9 9 9 q 9 9 9 9 9 9 9 9 9 q 9 9 9 9 9 9 9 9 9 9 9 8 j ~ ! h h z A u ; - 9 w 9 9 9 ",
"| { R N q 9 9 9 9 9 9 9 9 9 9 9 9 9 9 9 9 9 9 9 9 9 9 9 9 9 9 9 9 9 9 9 9 9 9 9 9 9 9 9 9 9 9 8 9 j ~ I h j Q R 3 # = 0 w 9 9 9 ",
"{ T y & < 0 9 9 9 9 9 9 9 q 9 8 9 9 9 9 9 9 9 9 9 9 9 9 8 9 9 9 9 9 9 w 9 9 9 9 9 9 9 9 9 9 9 9 9 h ! W j h ! ~ s * - 9 0 9 9 9 ",
"G M & # = 0 0 9 9 9 9 9 9 9 9 w d f w 9 9 9 9 9 9 w h h w 9 9 9 q 9 9 9 9 q 9 9 q 9 9 9 9 9 9 9 9 d B m d q m V d 9 9 9 9 0 9 9 ",
", & & = 9 0 0 9 9 q 9 9 9 9 9 h v v d 8 9 9 9 8 8 d v v h 9 8 9 9 9 9 9 9 9 9 9 9 9 9 9 9 9 9 0 9 1 ; ; 1 1 ; ; 1 0 0 9 9 9 9 9 ",
"X $ - w 0 9 9 9 9 9 9 9 9 9 9 d v C h 9 8 8 9 0 f j Z V d 9 9 9 9 9 9 9 9 9 9 9 9 9 q 9 9 9 9 0 0 - # $ - < $ # - 0 0 9 9 9 9 9 ",
"= - 9 w 9 9 9 9 w 9 9 9 9 9 9 w d d w 9 9 8 0 h z H u ; < 9 w 9 9 9 9 9 9 9 w 9 9 9 9 9 9 9 9 0 9 1 = = 9 - = = 9 9 w 9 9 w 9 9 ",
"0 9 9 9 9 9 9 9 9 9 9 9 9 9 9 9 9 9 9 w w w 0 j ^ P 3 # = 0 w 9 q 9 q 9 9 9 9 9 9 9 9 9 9 9 8 9 9 0 0 0 9 0 0 0 9 9 9 9 9 9 9 9 ",
"0 0 w 9 9 9 9 9 9 9 9 9 9 9 9 9 8 8 9 d v l h j ! ~ w * - 9 9 9 9 9 9 9 9 9 9 9 q 9 9 9 9 9 9 9 9 9 0 0 9 0 0 w 9 9 q 9 9 9 9 9 ",
"9 9 9 9 9 9 9 9 9 9 9 9 9 9 9 9 0 8 9 h ~ ! h d m B d 0 0 9 9 9 9 9 9 9 9 q 9 9 w 9 9 9 9 w d d w 9 9 9 9 9 9 9 9 9 9 9 9 9 9 9 ",
"9 9 9 9 9 9 9 9 9 9 9 9 q 9 9 9 9 8 9 h ~ ^ j - & ; 9 0 0 9 9 9 9 9 9 9 9 9 9 9 9 9 0 9 9 h c x h 8 0 9 9 9 9 9 9 9 9 9 9 9 9 9 ",
"9 9 9 9 9 9 9 9 9 9 9 9 9 9 9 w 9 9 9 h c c h = # # - 9 w 9 9 9 9 9 9 9 8 9 9 9 9 9 9 8 9 j ^ ^ j 0 8 9 9 9 9 9 9 9 9 9 9 9 9 9 ",
"9 9 9 9 9 9 9 9 9 q 9 9 9 9 9 9 9 9 9 w d d w 8 = = 1 0 w 9 9 9 9 9 9 9 9 9 9 9 9 9 9 8 9 j ~ ~ h 0 8 9 9 9 9 0 9 9 9 9 9 9 9 9 ",
"9 9 9 9 0 9 9 9 9 9 9 9 9 9 9 9 9 9 9 9 9 9 9 9 0 0 0 9 9 9 9 q 9 9 9 w h h w 8 9 9 9 9 9 w B B w 9 9 9 9 9 9 9 9 9 9 9 9 0 w d ",
"9 9 9 9 8 9 9 9 9 9 9 9 9 9 9 q 9 9 9 9 9 9 9 w 0 0 w 9 9 9 9 9 9 9 9 h v v h 9 8 9 9 0 9 1 ; ; 1 0 0 9 9 9 9 8 9 9 9 9 8 d z C ",
"9 9 d d w 9 9 9 9 9 9 9 9 9 9 9 9 9 9 9 9 9 9 9 9 9 9 9 9 9 9 9 9 9 9 w V G j d w 9 9 0 0 = # # - 0 w 9 9 9 9 w d w 9 9 w z ~ ' ",
"9 f x v h 9 8 9 9 9 9 9 9 9 9 9 9 9 9 9 9 9 9 9 9 9 9 9 9 9 9 9 9 0 9 - < y J c h 9 9 9 9 9 = = 9 9 9 9 9 8 9 h v l d 9 z / ] } ",
"j z _ ^ j 9 8 0 9 9 9 9 9 w d d w 9 9 9 9 9 9 9 9 9 9 9 9 9 9 9 9 0 0 = $ 3 L ( j 9 8 9 9 0 0 0 9 9 9 9 9 9 9 j ~ ^ z l Q } } } ",
"! _ { ^ h 9 9 9 9 9 9 9 9 d v v d 9 8 9 9 9 9 9 q 9 9 9 9 9 9 9 9 0 9 - * w ~ ~ h 9 9 9 9 0 w w 0 9 9 9 9 8 9 h ! ] ~ ! ` { | { ",
"} { R m q 9 8 9 9 9 9 9 9 d v v d 9 9 9 9 9 9 9 w 9 9 9 9 9 q 9 9 9 9 9 9 d B B d 9 8 9 9 9 9 9 9 9 9 9 9 8 9 q g R {  .| ` L K ",
"{ T i & 1 9 0 9 9 w 9 9 8 w d h d 9 9 9 9 9 9 9 9 9 9 9 9 9 9 9 9 9 9 0 w 1 ; ; 1 9 0 9 9 9 9 9 9 9 9 9 9 0 9 = & y E  . .R r 3 ",
"G M % # = 0 0 9 9 9 9 9 9 9 9 9 9 9 9 9 9 9 9 9 9 9 9 q 9 9 9 9 9 9 9 w 0 - # # - 0 w 9 9 9 9 9 9 9 9 9 0 w h q $ % p P P a + . ",
", % & = 9 9 9 9 9 9 9 9 9 9 9 9 9 9 9 9 9 9 9 q 9 9 9 9 9 9 9 9 9 9 9 0 0 9 = = 1 0 9 9 9 9 9 9 9 9 9 9 8 h v c q $ # 6 6 ,     ",
"X $ - 0 0 9 9 9 9 9 9 9 9 9 9 9 9 9 9 9 9 9 9 9 9 9 9 9 9 9 9 9 9 9 9 9 9 9 0 9 w 9 9 9 9 9 9 9 9 9 9 9 9 f V D l q $ X . X X # ",
"= = 9 w w 9 9 9 9 9 9 9 9 9 9 9 9 9 9 9 9 9 9 9 9 9 9 9 w 9 9 9 9 9 9 9 9 9 0 0 w 9 9 9 q 9 9 9 9 9 9 0 9 < ; p Z z q $ $ * = = ",
"8 9 9 0 w 9 9 q 9 9 9 9 9 9 9 9 9 9 w 9 9 q 9 9 9 q 9 9 q 9 9 9 9 9 9 9 9 0 9 9 9 9 9 9 9 9 9 9 9 9 9 w w = X 7 K I h 8 - 9 1 9 "
};
