/* XPM */
static char *result[] = {
/* columns rows colors chars-per-pixel */
"64 64 155 2 ",
"   c #1C4F02",
".  c #0D5705",
"X  c #005D00",
"o  c #085F0D",
"O  c #125101",
"+  c #1D5204",
"@  c #205905",
"#  c #006301",
"$  c #006B03",
"%  c #00620D",
"&  c #0E610E",
"*  c #006B0B",
"=  c #126502",
"-  c #166907",
";  c #13610D",
":  c #007200",
">  c #007B00",
",  c #00730D",
"<  c #007B0E",
"1  c #0F7F08",
"2  c #187C05",
"3  c #006D11",
"4  c #0E6C15",
"5  c #007411",
"6  c #007B12",
"7  c #007519",
"8  c #017D1B",
"9  c #0E781C",
"0  c #187A1F",
"q  c #26650E",
"w  c #20781F",
"e  c #027920",
"r  c #257B24",
"t  c #008501",
"y  c #008B04",
"u  c #00830D",
"i  c #008C0D",
"p  c #009305",
"a  c #00950B",
"s  c #00990C",
"d  c #008411",
"f  c #008C12",
"g  c #0B8912",
"h  c #00841C",
"j  c #008B1C",
"k  c #088F18",
"l  c #168611",
"z  c #009413",
"x  c #009C13",
"c  c #00921B",
"v  c #009C1C",
"b  c #16931A",
"n  c #19921A",
"m  c #258715",
"M  c #2D8716",
"N  c #238814",
"B  c #29871D",
"V  c #2D8E1C",
"C  c #00A20E",
"Z  c #00A515",
"A  c #00A817",
"S  c #00A41C",
"D  c #00A91B",
"F  c #018C23",
"G  c #118D28",
"H  c #009324",
"J  c #009B22",
"K  c #009D29",
"L  c #129B2E",
"P  c #238427",
"I  c #298126",
"U  c #258B26",
"Y  c #258D2A",
"T  c #288B2A",
"R  c #368C25",
"E  c #33872D",
"W  c #2F9924",
"Q  c #22982D",
"!  c #329523",
"~  c #369A26",
"^  c #399826",
"/  c #359D28",
"(  c #389E2B",
")  c #3D9D37",
"_  c #00A423",
"`  c #00AD24",
"'  c #00AD29",
"]  c #1BAC2E",
"[  c #00B027",
"{  c #00B22A",
"}  c #17A531",
"|  c #1BA231",
" . c #11AC34",
".. c #19AB34",
"X. c #00B632",
"o. c #0AB636",
"O. c #01B936",
"+. c #0CB937",
"@. c #05BB38",
"#. c #19B336",
"$. c #14BB39",
"%. c #2CA32F",
"&. c #23AD2F",
"*. c #3CA02C",
"=. c #25AE30",
"-. c #2EAE32",
";. c #3EAA36",
":. c #3EAC3C",
">. c #2FB134",
",. c #2DBC3B",
"<. c #3CB136",
"1. c #3DB43B",
"2. c #37BF3F",
"3. c #3BBB3D",
"4. c #45822E",
"5. c #48832F",
"6. c #409927",
"7. c #458931",
"8. c #4A8831",
"9. c #4A9D35",
"0. c #43A335",
"q. c #46AC35",
"w. c #41AD3C",
"e. c #4CAA3A",
"r. c #53AB3D",
"t. c #41B037",
"y. c #41B23B",
"u. c #4BB43C",
"i. c #4DB93F",
"p. c #53B63E",
"a. c #32C03F",
"s. c #43BB42",
"d. c #4DBC41",
"f. c #56B640",
"g. c #55B942",
"h. c #5ABA43",
"j. c #37C241",
"k. c #3CC242",
"l. c #43C444",
"z. c #4AC546",
"x. c #4EC648",
"c. c #44C948",
"v. c #4ECA4B",
"b. c #53C649",
"n. c #59C549",
"m. c #54C94B",
"M. c #5DCA4D",
"N. c #5BD052",
"B. c #60C34E",
"V. c #65C94E",
"C. c #64CD51",
"Z. c #69CE53",
"A. c #65D355",
"S. c #6AD356",
"D. c #74D157",
/* pixels */
"Z Z Z Z Z Z S Z Z Z Z Z Z Z Z D D A A Z Z A A D Z C Z { l.k.' Z Z A A Z A Z Z Z Z Z Z Z Z Z Z A A D D Z A C Z [ 3.,.` ' ,.3.` S ",
"Z Z Z Z Z Z Z Z Z Z S Z Z Z Z D ` ` D Z Z D ` ` Z Z D O.z.j.` Z D ` D Z Z Z Z Z Z Z Z S Z Z Z D ` [ { ` D C Z D >.=.` ` &.-.` D ",
"S Z Z Z Z Z Z Z D Z Z Z Z Z Z [ @.@.[ C C ` $.O.` ` O.x.M.,.` ` O.$.[ Z Z Z Z Z S Z Z Z Z Z Z ` X.l.l.O.[ Z Z x i z x x f f x Z ",
"Z Z Z Z Z Z D Z Z Z Z Z Z C Z { z.c.{ s C { z.z.O.{ 3.S.S.l.{ O.z.z.{ C C A Z Z Z Z Z Z Z Z Z [ l.D.D.l.[ C Z s t t s s t t s x ",
"Z Z Z Z Z Z Z Z A Z Z Z Z C Z { z.z.{ C s { k.V.x.l.n.V.C.m.l.x.M.l.{ C Z Z Z Z Z Z Z Z Z C Z { l.D.D.l.` Z C Z a s Z C s a Z Z ",
"Z D Z Z Z Z Z S Z Z Z Z A Z Z ` -.-.` Z Z ` =.f.V.A.S.n.i.i.B.V.h.=.S Z Z Z Z Z Z Z Z Z Z Z Z ` X.l.z.X.[ C C Z A Z Z Z A A Z Z ",
"Z Z Z Z Z Z Z Z Z Z Z Z Z Z Z x z f x A A s i ^ h.Z.B.0.V R e.r.R u z Z x z x x Z Z Z Z Z Z Z D ` { [ ` D Z Z Z A A A Z A A Z Z ",
"Z Z Z Z Z Z Z Z Z Z Z Z A A A s t t s A A s t u ^ e.9.r = - B R 6 > y x z f i z Z Z Z A Z Z Z Z Z C Z Z Z Z Z Z Z Z Z Z Z Z Z Z ",
"Z Z Z Z Z Z Z Z Z Z Z Z Z D Z Z a p Z A A C a i < w q +     @ ; * u a z d < 6 f x Z Z Z Z Z Z Z Z C Z Z Z Z Z Z Z Z Z Z Z Z Z Z ",
"[ [ D C Z Z Z Z Z Z Z Z Z Z Z Z A D Z Z Z A Z a : X O O   +   . * d z x f < < u z Z Z Z Z Z Z S Z Z Z Z Z Z Z Z Z Z Z Z Z Z Z Z ",
"a.@.` Z Z Z Z Z Z S D Z Z Z Z Z D A Z Z Z Z x f : # o & & o o % 3 d z x z f d d z x v Z Z Z Z Z Z Z Z Z Z Z Z Z Z Z Z Z Z Z Z Z ",
"a.@.` Z Z Z Z Z Z Z Z Z Z Z Z Z Z Z Z Z Z z f 6 3 3 3 3 3 3 3 5 5 6 f z x z f d f f f z x Z Z Z Z Z Z Z D S Z Z Z Z Z D Z D S Z ",
"[ [ D Z Z Z Z Z Z Z Z Z Z Z D Z Z Z Z v x f 6 5 3 3 3 3 * 3 3 3 3 5 6 d z x z f d 6 u d z Z Z Z Z Z Z Z Z S Z Z Z Z Z Z Z Z Z Z ",
"Z Z Z Z Z Z C Z Z Z Z Z Z Z Z Z Z Z Z x i 6 3 3 3 3 3 * * * * * * * 5 < d i f d d , , , u z Z Z Z Z Z Z Z Z D Z S Z Z Z Z Z Z Z ",
"Z Z Z Z Z Z Z Z Z Z Z Z Z Z Z Z Z Z Z z d 5 3 3 * * * * * * * * * * 3 5 6 6 < f f d , 3 , i x Z Z Z Z Z Z Z Z Z D Z Z Z Z Z Z Z ",
"Z Z A C Z A ` ` D Z Z Z Z Z Z Z Z Z Z z d < 3 3 * * * * * $ * * * * * 7 h h 6 d z f 6 3 8 j x Z Z Z Z Z Z Z Z Z Z Z Z Z Z Z Z Z ",
"Z Z Z C C [ O.$.` Z C Z Z Z Z Z Z Z x z f u , 3 * * * * * * * * * * , h L Q h d a i < 7 P L _ Z Z Z Z Z Z Z Z Z Z Z Z Z Z A Z Z ",
"Z Z Z D [ @.m.a.[ D ` [ ` C Z A Z x z f d < , * * * * * $ * * * * * : F y.w.F u i i 6 h ) y.' x Z Z Z Z Z D Z Z Z Z Z D [ [ D Z ",
"Z Z C ` O.M.V.a.` ` O.$.[ Z C Z x z < 5 5 5 3 * * * * * * * * * * * , F :.s.H d a i < F w.s.' x x x Z Z Z Z Z Z Z Z Z ` $.$.[ Z ",
"Z C Z D -.h.V.c.O.X.<.-.D Z Z A x f , 3 3 3 3 * * * $ * * * * * * * : 7 U T c a z i u j %.%.v i i z Z Z S Z Z Z Z Z Z ` >.t.{ [ ",
"A Z Z s z 6.f.N.v.<.! f x A A Z x z 6 5 3 5 * * * * * * * * * * * * $ * * , z x x f d d 6 u d u d d Z Z Z Z Z Z A A A s f ! <.3.",
"A A A a t i ( p.h.( i t a Z Z Z Z z f d d 6 * 3 * * * * * $ * * * * , $ $ > i x f f f u > > < u f f Z Z Z Z Z Z Z A A p t k i.M.",
"Z Z A Z a p i M M g i s C A Z A x x z z z i 5 * * * * * * * * * * , < u u a x z d d z a a i f z x x Z Z S D Z Z Z A A s p _ s.M.",
"Z Z Z A A x t : > y s Z A A Z Z Z x z z z f < 3 * * % $ $ * * * * , u z Z A x f 6 5 f z x Z z z x Z Z Z Z Z Z Z Z Z A C Z ` =.t.",
"Z Z Z D A Z s p p s Z A A Z Z Z x z d f f f < * % * * * * * * * , u z x Z Z x f , 5 6 f x x f z Z Z Z S Z Z Z S Z Z Z A A Z f g ",
"Z Z Z Z Z Z A Z C Z Z Z A Z Z Z x f 6 , < < , * * * 3 5 * * * * : u z x x z z f 6 3 * d z x z z x Z Z Z Z Z D Z Z Z Z D A s t t ",
"Z Z Z Z Z A A A A Z Z Z A A A Z x i 6 < 5 6 * * % 7 8 e 5 * * * , u a z f f f f , 3 , d x Z x v Z Z Z Z Z Z Z Z Z Z Z D Z Z a a ",
"Z Z D Z Z Z Z D [ [ D Z Z Z C C Z x f d d 6 5 * * 7 E r 7 % $ * 7 6 h i d f d 6 6 6 d z x Z Z Z Z Z Z Z Z Z Z Z Z Z Z Z Z A Z A ",
"Z Z Z Z Z Z C [ $.$.[ Z Z C Z Z Z Z x x z f 6 , * 8 E E 7 * * 5 r I 8 d i d 6 6 6 d x Z Z Z S Z Z Z Z S Z Z Z Z Z Z Z D Z Z A A ",
"Z Z D S Z Z Z ` $.$.[ C C D [ [ D Z Z Z Z x f , , 8 G F 5 * % 7 4.5.0 < < < < 5 u z x Z Z D Z Z Z Z Z Z Z Z Z Z Z Z Z S Z Z Z Z ",
"Z Z Z Z Z Z Z D [ [ D C C [ $.$.` C Z Z Z x f d 5 d c j 6 * 3 9 7.8.w * , 5 , 6 z x Z v Z Z Z Z Z S Z Z Z Z Z Z Z Z Z Z Z Z Z Z ",
"Z Z Z Z Z Z Z Z C Z Z C A [ $.$.` Z C Z Z z f d 6 u z f < * 3 8 Y T 9 3 3 3 , d z x z z Z Z Z Z Z Z Z Z D S Z Z Z Z Z Z Z Z Z Z ",
"Z Z Z A Z Z Z A Z Z Z Z Z D ` ` D Z Z Z v z 6 6 6 f a f 6 5 7 d j j 7 * 5 5 6 d z z f f x A Z Z Z Z Z Z Z Z Z Z Z Z Z Z Z Z Z Z ",
"Z Z Z C Z Z Z Z Z Z Z Z Z Z Z Z Z Z Z Z x f 6 6 d z x f 7 5 d f i 6 6 5 6 6 5 6 d f f f x Z Z Z Z Z Z Z Z Z Z Z Z Z Z Z Z Z Z A ",
"Z Z Z Z Z Z Z Z Z Z Z Z Z Z Z Z Z Z Z x x f 6 d z x z d 6 u f z d < 6 d z f d 6 6 f z x Z x Z Z Z Z Z Z Z Z Z Z Z Z C A Z Z Z Z ",
"Z A ` ` D Z Z Z Z Z Z Z Z A Z S Z Z Z x f f f z x x z 6 6 d z x f f f z x z f d f f x x z z Z Z Z Z ` ` A Z C D [ [ D Z Z Z Z Z ",
"Z [ $.$.[ Z C Z Z Z Z Z Z Z Z Z Z Z z f d f f x v z d 6 6 d z x x x x v x v x z z z x z f d x Z Z ` @.$.` C C [ $.$.[ Z Z Z Z Z ",
"{ O.x.l.[ Z C A Z Z Z Z Z Z Z Z Z z f d d f f x x z f 6 5 6 d z Z Z Z x z z x x x z x f < u z Z Z { l.s.{ Z ` { t.>.D Z Z Z Z Z ",
"k.m.V.k.{ Z Z Z Z Z Z Z Z Z Z x x f d d d f d i z x z f 6 6 6 f x Z Z z f f x x z f z z u d f s s ' l.l.{ [ O.<.~ f s Z A Z Z Z ",
"A.V.g.=.S Z Z Z Z D Z Z Z Z Z x i < , 7 6 d 5 7 u x s z d 6 6 d x Z Z z z z z x f z z x f f f i a K l.j.' { k.g.b t a A D D Z Z ",
"V.f.^ i z Z Z A Z Z Z Z Z Z x i u , 5 5 7 5 3 5 6 f x x z d 6 d x Z x c x x Z x z x x Z x f d < < F l.2.` { k.z._ a s A A Z Z Z ",
"q.*.i t p D A A Z Z Z D x z f f j j d < 5 3 4 3 5 f _ _ x i f z x x z x v Z Z x z z v Z Z z d < , 8 -.=.` ` &.>.` Z C Z A Z Z Z ",
"l i a p Z A A Z Z S Z Z x f u j | ..J u 5 3 3 5 < j  .o.J f a Z Z z f z Z Z Z x f f x Z x z f d u < f z x x z f Z A Z Z Z Z Z A ",
"> t s D Z Z Z Z Z Z Z Z z f < j  .#.J i u < 5 8 j K 0.%.c f x Z Z z f z x Z x z z z x x f f f f i u t t s s t t a A A A Z Z Z Z ",
"a s Z D A Z Z Z Z Z Z Z x i d f J _ c f i u < j } ;.~ d f a x Z Z x x x x x Z v x x x z d d d f z f a s Z s s a x D D Z Z Z Z Z ",
"A Z Z Z Z Z Z Z Z Z D Z x z z a x z a z v c d J s.g.n > t f z z x Z Z x c z Z Z Z Z Z z d d u i i z A Z A Z Z A A Z Z Z Z Z D Z ",
"A A A Z D Z Z Z S Z Z Z Z x Z x x s x _  .K j H y.z._ t < u d z x Z Z z f f x Z Z Z S Z x z z f i f A A A A A A A Z Z Z S Z Z Z ",
"Z Z Z Z Z Z Z Z Z Z Z Z Z Z Z Z Z C Z { z.s.J c | >._ z i u d z Z Z Z z z z x Z Z Z Z Z Z D ` v c a Z Z Z Z Z Z Z Z Z Z Z Z Z Z ",
"Z Z Z Z Z Z Z Z Z Z Z Z Z Z Z Z Z C Z [ x.l.` z i f x Z x z z z Z Z Z x x x Z x x Z Z Z Z [ @.o._ x Z Z Z Z Z Z Z Z Z Z Z Z Z Z ",
"Z Z Z Z Z Z A Z Z Z Z Z Z Z Z Z Z Z Z [ @.@.[ p t t s D Z x z z x Z Z Z Z Z x x z z x C Z { z.c.{ Z C Z A Z Z Z Z Z Z Z Z Z Z Z ",
"Z Z Z Z Z Z Z Z Z Z Z D Z Z Z Z Z Z Z Z ` ` D C p s x A Z z f i z Z Z Z Z Z Z z i f x C C { z.z.{ Z C Z Z Z Z Z Z Z Z Z Z Z Z Z ",
"Z Z Z Z Z Z Z Z Z Z Z S Z Z D S Z Z Z Z Z Z Z Z A A Z Z Z z f d f z Z D [ [ Z a i z Z Z Z ` -.>.D Z Z Z Z Z Z Z Z Z Z Z Z A D [ ",
"Z Z Z Z Z Z Z A Z Z Z Z Z Z Z Z Z Z Z Z x a t : > : : : : : $ # # # : : > : : $ $ > a s s x f f x A A Z Z Z A Z Z Z Z C C ` O.,.",
"Z A ` ` A Z Z Z Z Z Z Z Z Z Z Z Z A x s s y > : : : : : : : $ # X # $ : $ : : : $ t y a a a t y s A D Z Z Z C D D ` Z Z D O.z.m.",
"Z [ +.+.[ Z Z A A Z Z Z Z Z Z Z Z s y > t > : : : : : : : : : : : : : : : : : : : : > > > y s Z Z Z A Z Z C Z [ $.O.` D X.z.M.C.",
"{ O.m.z.{ C C A Z Z Z Z Z D [ ` z y > : : $ : : : : : : : : : : : : : : : : : : : : : $ : > t x Z Z Z Z Z Z Z { c.z.O.X.s.C.A.C.",
"l.v.V.z.{ C Z Z Z Z Z Z Z ` $.$.t : : : : : : : : : : : : : : : : : : : : : : : : $ $ : : : > t x Z Z Z Z Z Z { l.M.b.l.b.C.C.V.",
"C.V.g.&.D Z Z Z Z Z Z Z Z ` $.$.t > : : : : : : : : : : : : : : : : : : : : : : : : : $ : : > y x Z Z A Z C C S ] g.C.A.C.M.d.u.",
"V.f.^ i z Z Z A Z Z Z Z Z D [ ` z y : : : : : : : : : $ : : : : : : : : : : : : : : : $ $ > y s Z Z Z Z Z Z Z s i ^ h.S.S.i.W n ",
"q.*.u t s Z A Z Z Z Z D A C Z Z Z x y t > > : : : : : : : : : : : : $ : : : : $ : : > > > t x A Z A Z Z A D { Z t y ( p.p.( 2 $ ",
"l i a a x A A A Z Z Z Z Z Z Z C Z Z x a s y > : : : : : : : : : : : : : : : : : : > p i p x Z A Z A Z Z Z ` $.@.S t t N m 1 : $ ",
"> t s A D Z Z Z Z A Z Z Z Z Z Z Z Z Z Z Z a t : : : : : > : : : : : > : : : : : : t s x a Z Z Z Z Z Z C Z ` >.1.X.S t > > > > > ",
"a a Z D A Z Z Z Z Z Z Z Z Z Z Z Z Z Z Z Z Z D Z Z Z A Z Z Z Z Z Z Z Z Z Z A A A D Z Z Z Z Z Z Z A Z Z A A x f / 1.O.Z p y a s a ",
"C Z Z A A Z Z Z Z S A Z A A Z Z Z Z Z Z Z Z Z Z Z Z Z Z Z Z Z Z D Z Z Z Z Z A A S Z Z Z Z Z Z Z Z Z Z A Z a t V u.a.[ C s x Z Z "
};
