/* XPM */
static char *result[] = {
/* columns rows colors chars-per-pixel */
"64 64 225 2 ",
"   c #007300",
".  c #007C00",
"X  c #0E7D06",
"o  c #00730E",
"O  c #157D07",
"+  c #25771E",
"@  c #295D2F",
"#  c #385733",
"$  c #325E36",
"%  c #05762E",
"&  c #0B7B34",
"*  c #1A7231",
"=  c #316036",
"-  c #3B653D",
";  c #47623D",
":  c #555E5A",
">  c #467141",
",  c #58625A",
"<  c #61655C",
"1  c #71596E",
"2  c #765B73",
"3  c #765A78",
"4  c #7A5D78",
"5  c #008501",
"6  c #008B03",
"7  c #00860D",
"8  c #008C0C",
"9  c #009305",
"0  c #009907",
"q  c #00960A",
"w  c #00990C",
"e  c #008C12",
"r  c #0A8814",
"t  c #158C16",
"y  c #009C12",
"u  c #009419",
"i  c #009E1A",
"p  c #278916",
"a  c #00A30E",
"s  c #00A515",
"d  c #00A817",
"f  c #00A31B",
"g  c #00A91B",
"h  c #008524",
"j  c #008D22",
"k  c #009421",
"l  c #1A9432",
"z  c #319824",
"x  c #329A25",
"c  c #399926",
"v  c #3A9E2A",
"b  c #00A424",
"n  c #00AD23",
"m  c #00A72B",
"M  c #00B126",
"N  c #00B22A",
"B  c #08A538",
"V  c #00B532",
"C  c #00B935",
"Z  c #0DB937",
"A  c #02BC39",
"S  c #15BC39",
"D  c #1BBB39",
"F  c #25AD2F",
"G  c #3CA12C",
"H  c #25AE30",
"J  c #2EAE32",
"K  c #30AD32",
"L  c #2EB134",
"P  c #29BA39",
"I  c #3AB538",
"U  c #3CB439",
"Y  c #34BE3E",
"T  c #409A28",
"R  c #43A12D",
"E  c #46AC35",
"W  c #41B339",
"Q  c #49B43B",
"!  c #53B63E",
"~  c #14A74B",
"^  c #23A74D",
"/  c #33AC50",
"(  c #4BBB40",
")  c #56B640",
"_  c #54BA42",
"`  c #5ABA43",
"'  c #46A55D",
"]  c #60BC45",
"[  c #629D6B",
"{  c #4DA562",
"}  c #57A467",
"|  c #66A973",
" . c #70A77B",
".. c #37C341",
"X. c #3CC342",
"o. c #45C545",
"O. c #4AC546",
"+. c #4EC749",
"@. c #48C949",
"#. c #54C749",
"$. c #5AC74B",
"%. c #54CA4B",
"&. c #5BC94C",
"*. c #5BD052",
"=. c #63C94E",
"-. c #64CD51",
";. c #6ACA50",
":. c #67D355",
">. c #ABB95C",
",. c #AFAF6D",
"<. c #B3AE6E",
"1. c #ADB262",
"2. c #ACB26F",
"3. c #ADBC68",
"4. c #B1B16B",
"5. c #B1B86B",
"6. c #B2AF73",
"7. c #B2AC7B",
"8. c #AEB372",
"9. c #B2B475",
"0. c #B4BA77",
"q. c #B2B27A",
"w. c #AFC05C",
"e. c #B2C46D",
"r. c #B9C379",
"t. c #A535BC",
"y. c #A53CB8",
"u. c #9E699E",
"i. c #AB7291",
"p. c #AD769B",
"a. c #A84EAD",
"s. c #AC5AAA",
"d. c #A846B4",
"f. c #9966A6",
"g. c #AC65A5",
"h. c #B574AE",
"j. c #9C16C5",
"k. c #9004D5",
"l. c #9D28C7",
"z. c #A331C2",
"x. c #B83FD5",
"c. c #B648CC",
"v. c #C377D3",
"b. c #C779D1",
"n. c #CD7DD2",
"m. c #CE76EB",
"M. c #D47CE3",
"N. c #E678F6",
"B. c #7D9D85",
"V. c #8B9D91",
"C. c #AF8C8B",
"Z. c #B18C8B",
"A. c #B2988A",
"S. c #AE8A94",
"D. c #B08594",
"F. c #B48997",
"G. c #B89694",
"H. c #8CA594",
"J. c #97A59D",
"K. c #B6A785",
"L. c #BBB883",
"P. c #BFA59C",
"I. c #9EADA1",
"U. c #A5A7A7",
"Y. c #BDA9BD",
"T. c #C3A98F",
"R. c #C2BD8D",
"E. c #C4AB93",
"W. c #C3A899",
"Q. c #C6B595",
"!. c #CD99B8",
"~. c #D39FB7",
"^. c #CFAFAA",
"/. c #C9B3A5",
"(. c #D5BDAD",
"). c #D6A6BC",
"_. c #E2BFBE",
"`. c #BFC385",
"'. c #C3C688",
"]. c #C2D084",
"[. c #CAC796",
"{. c #D4C4A8",
"}. c #DAC0B2",
"|. c #E1C2BB",
" X c #BD96CB",
".X c #CD98C9",
"XX c #CC8FDA",
"oX c #D785D6",
"OX c #D595DC",
"+X c #DD92DC",
"@X c #E799DC",
"#X c #EB9BDB",
"$X c #C5A8C6",
"%X c #D7ABC3",
"&X c #DEB1C9",
"*X c #D5A3D6",
"=X c #DBA7DC",
"-X c #E1A9C7",
";X c #E4B8C9",
":X c #E8AFD8",
">X c #CF8FE0",
",X c #DA85E8",
"<X c #D493E2",
"1X c #D991E2",
"2X c #DB82F7",
"3X c #E48BE7",
"4X c #E693ED",
"5X c #EB97E9",
"6X c #F498EB",
"7X c #E585FC",
"8X c #EB83FF",
"9X c #F386FF",
"0X c #F986FF",
"qX c #F589FF",
"wX c #FB8CFF",
"eX c #E994F1",
"rX c #F597F9",
"tX c #F696FB",
"yX c #FD93FE",
"uX c #FD9AFE",
"iX c #E2A7E3",
"pX c #F3ACE5",
"aX c #F3A9EC",
"sX c #F4B1E7",
"dX c #FBA2F6",
/* pixels */
"s s s s s s s s f s s s s s s s s s g g g s s d d g s s g N X...M a a g d s s d s s s s s s s s s s s g g d s n I Y M m P I N g ",
"s s s s s s s s s s s s s s s s s g M M g s a s n g d s g C +./ M d M M g d s s s s s f s s s s a s n N N n d n H F n n F K n g ",
"s s s s g s s s s s f s s s s s a n S S M a w M Z V n g V #.&.Y M M C S M a a d f s s s s s s s s n C o.O.A n y e e y y e e y s ",
"f s s s s s s f s s s g s s s g M V W K g g M C +.o.V V o.:.-.X.V N I J n s s s s s s s s s s g g C #.;.%.A g w 5 5 w w 5 5 w y ",
"s s s s s s s s s s s s s s a M A W c e w M A @.-.$.o.o.&.-.-.%.o.U z e w s d s s s s s s a s n A $.;.#.C n d w 0 w y a w 9 s s ",
"s s s s s s s s s s s s s s s n L R e 5 9 f L ` =.:.:.$.( ( %.-.` v 7 5 w d d s s s f s s s s n S O.o.V g s s s s s d d g d s s ",
"s s s s s s f s s s s s s d s i u r 8 0 s y e c ! :.:.! z x ! _ R 7 5 w s d d s s s s s s s s g n M M n s s s s d d s d d g s s ",
"s s s s s s s s s s s s s d d w 5 5 w g d 0 5 8 G ! ! c X O v G e 5 w g s s s s s s s s s s s s s s s s s s s s s s s s s s s s ",
"s a s s s s s s s s s s g s g y 9 w s g d s 0 8 8 p p O     O e q 9 s g s s s f s s s s s s s s s a s s s s s s s s f s s s s s ",
"g g M n g s s s s f s s s s s d d d s s s s g w 5 .   . . . . 5 w g g s s s s s s s s s s s s s s s s s s s s s s s s s s s g f ",
"g M S D n s s s s s s s s s s d g g g s s d g s 9 9 9 q 9 q 9 w s g d s s s s s s s f g s s s s s s s s s s s f s s s s s s s s ",
"g n S S M a a s s s s f s s s s s s s s s s s s s g s g g s d s s s s s s s s s s s s s s s s s s s s s g f s s s s s s s s s s ",
"g g M n g s s s s s s s s s s s s f s s s s s g g g g d g g g d s s s s s s s s s s s s s s s s s s s s s s s s s s s s s s s f ",
"s s s s s s s s s s s s s s s s s s s s s s s s s s s s s s s s s s s s s s a s s s s s s s s s s s s s s s s s f s s s s s s s ",
"s s s s s s s s s s s s s s s s s s s s s s s s s s s s g s s s s s s s s s s s s s s s s s s s s s s s s s s s s s s s s s s s ",
"s s s s s a s g n g d s s s s f s s f s s s s s s s s s f s s s s s s s s g M M n s s s a g M M g s s s g f s s s s s s s s s s ",
"s s s s s a s M S C n a a s s s s s s s s f s s s s s s s g s s s s s a s n S S M s s a s M S S M s s s s s s s s s s s s s s s ",
"s s s g M n s M X.+.C M g s s s s s s s s s s s s s f s s s f s s s s g n C W L n a s d M V U K b s s s s g s s s s s s s g n n ",
"s s a n S C n M Y -.%.C n s a s s s s s s s s s s s s s s s s s s s s M A W c e w s s M A W c e w s s s s f s s s f s s s n C P ",
"s a s n L I N C @.;.` K g s s s s s s s s g f s s s s s s s s s s s s n L R 7 5 0 s d n L R e 5 0 d s s s s s s s s s s a n X.+.",
"s d s y e z U @.*.` T e y d g f s s s s s s s s s d s s s s s s s s s s u r 8 0 s s d i u r 8 0 s s g s s s s f s s s a s M X.$.",
"s d d 9 5 8 G ) ! G 7 5 9 d d s s s s s s s s s d d s s s s s s s d s w 5 6 y g d d s w 5 5 w g d s s s s s s s s s s s s M X.%.",
"s d s s q 9 e p p 7 6 0 s s s s s b b b s { $XY.} } Y.$X . .$X$X . .$XY.[ [ $X$X| m m b w 9 s d d s s s s s s s s s s a s N ..%.",
"s s s g g y 5     6 y g d s s s s B ^ ~ b ' *X=XH.H.=X=XJ.J.iX=XJ.J.=X=XH.H.=XiXJ.' ' ^ n d d d d s s s s s s s s s s a s g H W ",
"s s s g g s w 9 6 w s d g s s s s ' U.J.^ ' .XtX>X>XrXrXOX1XtXtX<X<XtXrX<X<XrXtX<X X$XI./ g d d s s s s s s s g s s s d d y e t ",
"s s s s s s s d d d a s s s s s s } *X*XV.B..XwX8X8XyXwX8X8XuXuX8X9XwXwX8X8XwXwX8X8XtXiXH.{ ' ^ m b s s s s s s s s s g d w 5 . ",
"s s s s s d s g d d s s s s s s s { OXrX>XXXeXwX8X8XwXwXN.9XwXwX8X8XqXwX8X8XyXwX8X8XwXuX<X X$XI.^ n s s s s s s s s f s s s w q ",
"s s s s s s s s s g M n g b / ' ' V.+XwX9XN.5X#X+X+X@X@X@XM.N.N.,X@X@X@X+X+X@X@X1X3XyX0X8X8XtX*X' m s f s s s f s s g s s d s s ",
"s s f s g s s s s M S S n s Y.$X XXXqXwX8X,X~.E.K.W.E.E.E.h.x.x.h.W.E.E.W.W.W.W.P.).6X0X8XN.wX*X| B s s s s s s s s s s s s d d ",
"s s s s s s s s a M D D M a dXtX8X8X4X#X+X!.A.1.1.<.4.w.w.i.j.j.p.5.3.2.,.<.8.2.8.E.%X@X1X3XtX@XJ. .s s s s s s s f s s s s s s ",
"s s s s s s s s s g M M g a uXwX8X,X!.E.T.K.6.1.1.1.1.>.w.i.j.j.p.0.3.2.2.8.8.2.8.q.E.P.W.~.6XwX1X Xs s s s s g s s s s s s s s ",
"s f s s s s s s s a s s s a 6XyX3X!.K.1.1.<.<.<.<.5.5.6.A.s.y.a.A.0.0.q.7.q.0.8.q.q.8.8.9.E.-XeX8X2Xs f s s s f s s s s s s s s ",
"s s s s s s s s s s a s s s 6X#X~.K.,.1.1.1.,.9.<.5.5.D.d.z.g.A.q.9.q.7.7.7.9.q.q.q.6.8.0.0.Q.).,X2Xs s s s s s s s s s s s s s ",
"s s s s s a s s s s s s s s 6X#XT.1.1.<.9.6.6.5.4.7.F.s.t.s.A.q.A.D.K.e.e.K.S.S.A.q.q.q.L.`.r./.1X,Xs s a s s s s s s s s s s s ",
"s s s s s s s s s s d s s s 6X#XT.1.1.,.6.6.q.9.9.D.d.z.s.A.0.S.d.d.D.e.e.D.d.y.D.q.0.L.R.'.'./.1X,Xs s s s s s s s s s s s s s ",
"s s s d g n d s s s s d s s 6X#XT.1.1.<.q.q.7.0.0.D.a.y.g.S.S.s.t.t.g.Z.S.s.z.d.F.0.r.`.[.[.{.&X1X2Xs g N M n f g n s s s s s s ",
"s a a n Z A n s s s s s s s eX#XT.1.1.6.q.7.q.q.q.K.Z.g.y.z.l.y.g.g.d.l.l.z.h.F.T.L.'.'.[.{.;XaX7X2Xa n S C M n C Z M s s s s s ",
"d s g C %.@.N s a s s s s s rXdX).T.P.P.L.8.8.8.q.7.C.g.t.l.l.s.A.D.l.k.k.a.G.'.].Q.{.{.[.{.sXuXtX7Xn N W F f M X.o.N s s s s s ",
"g g C %.-.o.M s s s s s s s 6XtX4X+X:X&XQ.0.8.9.6.C.a.y.s.F.F.A.0.F.l.k.d.G.'.].].(.:X;X{.(.pXuX9X2XA U x e q N o.@.N s s s s s ",
"n N @.;.` J f s s s s s s s n.b.7XwXdXpX%XW./.L.0.D.c.c.F.0.[.[.'.F.c.c.F.].[.{.[.}.sXaX;X-XdXwXM.v.@._ t 6 i C I L g s s s s s ",
"n N @.] T 8 w s d s s s s s u.f.m.qXyXtX4X1XiX_.R.^.oXoX/.[.|._.Q.^.+X@X/.[.;X;X}.(.pXuXeXeXuX3Xg.4 o.o.b f V W z 8 w s d s s s ",
"g n H v e 5 q s g s s s s s = : f.M.yXyXwXqXuXpX).).pXpX).).pXaX-X).pXpX;X&XaXaX;X;XdXwX0X9X3Xg., - J F n n H R e 5 0 d g s s s ",
"s i e e 8 w s s g s s s s s h % : g.3XyXwX9XyXtX4X5XdXuX5X4XyXyX4X4XdXdXeXeXyXuXeXeXuXyX0Xm.u., h h e e y s u r 8 0 y d s s s s ",
"y w 5 5 w s g s s s f s s s f k * , p.oXb.M.wXyX0XqXuXuXqXqXuXyXqXqXyXyXqXqXyXuXwXN.oXoXb.f.: % k u 5 5 y q 6 5 w g d s s s s s ",
"a s w 9 s d d s s f s s s s s s k * < 1 1 u.3XwX0X9XwXwX9XqXyXyX9X9XyXyX9X9XwXuXqXm.f.2 1 , & k s a 0 9 a s 9 9 s g g s s f s s ",
"s s g d s s s s s s s s f s s s g k * @ @ < h.oXb.v.n.oXv.v.n.n.v.v.n.n.v.v.n.oXb.f.: $ @ * k s s s g s s d s g s s s s s s s s ",
"s s g g d s s s s s s s s s s s s s u j j > < 4 4 4 4 3 3 3 4 4 3 3 4 4 3 3 4 4 4 : & j j u s s s s d d s d d g s s s s s g s s ",
"s s s s s s s s s s f s s s s s s s s g n l > > ; ; # # $ $ = $ $ $ $ $ $ = $ $ $ * k f s s s g M N g s s s s s s s s s s f s s ",
"s s s s s s s s s s g s s s s s s a s n S Y B l + + o h j j j j j j j j j j j j h k s s s a s M S S M s a s s s s s s s s s s s ",
"s s s s s s s s s s f s s s s s s s a M D D M e X 5 u b f i i i i i s i i i i i u u s s s d M V U K g s s s s s s s s s s s s s ",
"s s s s s s s s s s s s s f s s s s s g n n g 0 0 9 s g g s f s s s s s s s s s s s s s s M A W c e y s d s s s s s s s s s s f ",
"n n s s a s s s f s s s s s s s s s s s s s s s d d s s s s g s s s s s s s a d M M g a s n L R e 5 w d g s s s s s s s s s s s ",
"P C n s a s s s s s s s s s s f s s s s s s s s d d g s s s s s s f s s s a a M D D n s s y u r 8 0 s s s s s s s s s s s s s d ",
"O.Y n s g M g a s s s s s s s d a s s s s s s s s s s s s s s s s s s s s d g C Y S M d s 9 5 5 w g d s s s s s s d g n s s n M ",
"#...n n C S M s s s s s s s s s s s s s s s s s s s s s s s s s s s s s s M C P C n d s s s 9 w s g s s s s s a a n Z V n g V Y ",
"O.X.C V I L n s s s s s s s s g M n g s s s s s s s s s s s s f s s s s s N @.o.N a a s s s g s s s s s s s s g M C +.o.C V o.&.",
"$.%.@.U z e w s d s s s s s s n S D n a s s s s g f s s s s s s s s s a s N @.o.N a a s s s g g d s s s s s s n C @.=.%.o.o.$.-.",
"-.-.` v 7 5 w s g s s s s s s n S S M s s s s s s s s s s s s s s s s s s g J J n s s s s s s s s s s s s a a f J ` =.:.:.&._ Q ",
"&._ c 7 6 9 s s d s s s s s s g n n g s s s s s s s s s s s g s s s s g s y e e y s d s s s s s s s d s s s s w 8 c ` :.:._ x p ",
"E v 8 5 w g g s s s s s s s s s s s s s s s s s s s s f s s f s s s s g g q 5 5 w d d s s s s s s s d a s n N b 5 7 x ! ! G O   ",
"t 7 8 w s s d s s s f s s s s s s s s s s s s s s s s s s s s s s s s g d s 0 q y d g s f s s s s s s s s n S Z f 5 6 p p X     ",
". 5 w d g s s s s s g s s s s s s s s s s f s s s s s s f s s s s s s s s s s s g s s s s s s s s s s s s n L U V i 6 . . . . . ",
"9 9 s g g s s s s s s s s s s s s s s s s s s s s s f s s s s s s s s s s s g d s s s s s s s s s s s d s y e v U C f 9 9 9 q w ",
"s s s d g s s s s s s s s s s s s s g f s s s s g s s s s s s s s s s s s s d s s s s s g s s s s s s d s q 5 p Q ..N w 0 y s y "
};
