/* XPM */
static char *result[] = {
/* columns rows colors chars-per-pixel */
"64 64 246 2 ",
"   c #371804",
".  c #1E3402",
"X  c #3E2401",
"o  c #312C08",
"O  c #283701",
"+  c #271728",
"@  c #193929",
"#  c #37202E",
"$  c #32362E",
"%  c #353C2A",
"&  c #3E2E31",
"*  c #421E06",
"=  c #4B260B",
"-  c #512F0C",
";  c #5D331A",
":  c #63371C",
">  c #5C3823",
",  c #422432",
"<  c #482835",
"1  c #562D3B",
"2  c #463634",
"3  c #5B373C",
"4  c #683923",
"5  c #733F2A",
"6  c #61373E",
"7  c #62393E",
"8  c #194A06",
"9  c #065500",
"0  c #0D530E",
"q  c #374502",
"w  c #315008",
"e  c #026C02",
"r  c #166404",
"t  c #007300",
"y  c #007D01",
"u  c #02780B",
"i  c #076818",
"p  c #007610",
"a  c #2A6706",
"s  c #2E6D0B",
"d  c #0A4F29",
"f  c #344A2C",
"g  c #007A27",
"h  c #00613E",
"j  c #007D39",
"k  c #357C2E",
"l  c #584617",
"z  c #4B5210",
"x  c #466B16",
"c  c #544439",
"v  c #515330",
"b  c #694524",
"n  c #73462C",
"m  c #6C5236",
"M  c #4F6821",
"N  c #0B4D4D",
"B  c #285155",
"V  c #00684F",
"C  c #246B4D",
"Z  c #3D5F6C",
"A  c #00726B",
"S  c #356377",
"D  c #524E47",
"F  c #674A43",
"G  c #685447",
"H  c #70504D",
"J  c #7B584A",
"K  c #736A4D",
"L  c #757547",
"P  c #466771",
"I  c #6F7470",
"U  c #83554D",
"Y  c #865A4E",
"T  c #895D4F",
"R  c #8B5D52",
"E  c #8C6A56",
"W  c #926653",
"Q  c #897253",
"!  c #977858",
"~  c #9D795A",
"^  c #A07A5B",
"/  c #987664",
"(  c #907569",
")  c #A07967",
"_  c #008303",
"`  c #008B02",
"'  c #01870C",
"]  c #009303",
"[  c #009B02",
"{  c #00960A",
"}  c #009B0C",
"|  c #008D13",
" . c #00851A",
".. c #1F8814",
"X. c #009C12",
"o. c #009718",
"O. c #28891B",
"+. c #00A407",
"@. c #00A515",
"#. c #00A916",
"$. c #00A419",
"%. c #00AB1A",
"&. c #00B21C",
"*. c #008726",
"=. c #009C23",
"-. c #049A2D",
";. c #0C9231",
":. c #299B28",
">. c #309828",
",. c #2B9432",
"<. c #389434",
"1. c #00A324",
"2. c #00AC23",
"3. c #00A529",
"4. c #00A92A",
"5. c #1BAA2C",
"6. c #00B027",
"7. c #00B22C",
"8. c #00AA34",
"9. c #04B734",
"0. c #00B836",
"q. c #15B638",
"w. c #2DAD32",
"e. c #37B83C",
"r. c #529139",
"t. c #4CB63E",
"y. c #05924B",
"u. c #27B947",
"i. c #3DB443",
"p. c #548D53",
"a. c #678A45",
"s. c #79874B",
"d. c #45BD41",
"f. c #4EBA49",
"g. c #3CC041",
"h. c #41C243",
"j. c #48C647",
"k. c #59C84C",
"l. c #58C856",
"z. c #62CB50",
"x. c #63D355",
"c. c #71D055",
"v. c #8C8756",
"b. c #858575",
"n. c #B48978",
"m. c #005C87",
"M. c #005C94",
"N. c #00688D",
"B. c #006798",
"V. c #007A93",
"C. c #006CA2",
"Z. c #017AA8",
"A. c #006BBB",
"S. c #007FB3",
"D. c #0074BE",
"F. c #0079BE",
"G. c #357CA0",
"H. c #4C758B",
"J. c #006DC2",
"K. c #0074C3",
"L. c #007DC3",
"P. c #0076CB",
"I. c #007BCB",
"U. c #159D92",
"Y. c #0886AD",
"T. c #0082B3",
"R. c #0189BA",
"E. c #0094BC",
"W. c #298FB0",
"Q. c #5A888F",
"!. c #5589A7",
"~. c #5E93A1",
"^. c #789DAB",
"/. c #0084C4",
"(. c #008AC5",
"). c #0085CA",
"_. c #008DCD",
"`. c #0093C4",
"'. c #0092CD",
"]. c #009ACA",
"[. c #008FD0",
"{. c #0094D2",
"}. c #009BD4",
"|. c #049BD8",
" X c #199CD1",
".X c #289CC6",
"XX c #319ECE",
"oX c #00A4CC",
"OX c #15A1CF",
"+X c #00A1D6",
"@X c #03A9D4",
"#X c #00A5D9",
"$X c #00ACDC",
"%X c #16A1D7",
"&X c #00B1DF",
"*X c #2BA2CE",
"=X c #29A5D7",
"-X c #2AA5D9",
";X c #34A8D8",
":X c #3CAADA",
">X c #00B4E1",
",X c #21AEE3",
"<X c #49AEDA",
"1X c #50ABD2",
"2X c #55B2DE",
"3X c #5CB3DD",
"4X c #71B1CE",
"5X c #78B6DA",
"6X c #5BB3E0",
"7X c #6EBBE2",
"8X c #7BC1E4",
"9X c #94928E",
"0X c #AD988E",
"qX c #B7AB9B",
"wX c #92ADB4",
"eX c #A7A9A7",
"rX c #ADB3B8",
"tX c #AAB5BA",
"yX c #C2A49A",
"uX c #CBB3AE",
"iX c #BDD0AC",
"pX c #CBC1BB",
"aX c #8AB5CD",
"sX c #B1BCC5",
"dX c #8EC8D7",
"fX c #B8C4C8",
"gX c #B2CAD5",
"hX c #89C5E6",
"jX c #96CBE7",
"kX c #9CCEEA",
"lX c #9DD0EC",
"zX c #9BD8EF",
"xX c #8FC6F2",
"cX c #A7D4ED",
"vX c #B5D9EC",
"bX c #B4DAF0",
"nX c #BFE0F2",
"mX c #D0CFCF",
"MX c #C6CCD7",
"NX c #F2D8D0",
"BX c #FDE5DD",
"VX c #C3DFF0",
"CX c #C6E1EF",
"ZX c #C6E5F3",
"AX c #CCE6F4",
"SX c #D1EBFA",
/* pixels */
"_._.[._.[._._.[.).[.[.[._.[._._._._.[._.[._._.[._.[._._.[._._._._._._.).K.|.cXmXn.m s  .o.3.4.3.3.3.4.3.3.1.1.8.u.u.8.8.u.u.8.8.",
"_._._._._._._._.[.).)._._._._.[.[._._._._._._._._._.[._._._._.[._.[.[./.K.{.hXmXyXv.s ` ] #.#.#.2.7.7.2.#.@.@.%.w.5.2.%.5.w.2.1.",
"_._.[._.[._.[.[._._._._.[.[._._._._._.[.[._.[.[._.[.).[.[._._._._._._.(.).I.[.5XMXqXr.y ] @.#.%.9.h.j.9.6.#.@.o.| | X.X.| | o.@.",
"[.[._._._._._.{.{.}.{.{._.).[.).[._._._._._._._._.[.).).)._._._._.).(._.[.[.I.[.hXfXp.y ] #.#.6.g.c.c.h.6.+.@.} _ ` } } ` _ } =.",
"_._.[._._._.).{.#X>X$X+X[._.)._._._._._._.[.[.[._._.[.)._.)._._._./.R._.[.{.{.I.[.G.S i ' @.#.6.g.c.c.h.2.@.+.X.{ } } @.} { X.1.",
"[._._._._._._.{.#X>X>X>X+X}.}.{.[._._.[._._.).).).[.;X6X6X:X{._._._.)._.[.|.|.J.A.M.B f ' @.+.2.0.h.h.0.%.@.@.@.#.@.#.@.@.#.@.3.",
"_.[._.[._._.[.[.{.#X>X>X>X&X&X#X{._.)._.[._.[.I.).=XlXAXAXjX=X)._._._._.'.{.[.I.J.M.D M s ` } %.6.6.6.2.%.@.@.#.#.@.@.#.#.@.#.3.",
"_._._._.[._.)._._.{.#X$X&X&X&X#X{._._._._.{.:X<X<X7XbXAXCXkX-X)._._.R.T.'.[._.[.|.G.K b w u } @.#.@.@.@.@.@.@.@.@.@.@.@.@.@.@.3.",
"_.[.[._.[._._._._.[.{.}.}.}.}.'._._._.[.).-XlXAXAXbX7X2X<X<X]._._..XH.H..X_._.|.hXsX/ 4 % i | #.+.@.} @.@.@.@.@.$.@.#.@.@.$.@.3.",
"_._._._._._.[./.S.S.).[._.).(.(._._._.)._.-XlXAXAXkX%X).).{.:X2XXX!.D H 4X-X'.:XCXNX/ - . 0  .#.%.@.@.$.@.@.@.$.@.@.@.$.@.@.@.3.",
"_.[.[._._._.).S.P P S.)._.)._._._._._._._.{.:X2X6X;X[.).).%XkXgX^.c   J fXjX%X;XnXNX/ ;   8 ' #.&.@.@.#.@.$.@.@.@.@.@.@.@.@.@.3.",
"_._._._._.[.R.H.m F H.Z._._._.[._._._._._._._.).).[._._.). XaXeX/ m H 9XMXhX}.}.hXMX0XR : q _ #.%.@.@.@.@.@.@.@.@.$.@.@.@.@.@.3.",
"_._.[.)._.].Q.G 5 m G S S.[.).[._._._._.[.).).).).).[.)._.`.E.~.eXuXpXMXhX%X_._._.5XvXuXW l _ #.#.@.@.@.@.@.@.@.@.@.@.$.@.@.@.3.",
"[._.[.{.:X4X( n b n n 3 S Z.W.Y.(._._.[.[._.[.[.[.[.[.[.{.}.$X].5XZXZXcX&X}.'.I.A.'.dXiXv.x ' #.#.#.@.@.@.$.@.$.$.@.@.#.@.$.@.3.",
"_._.[.-XlXMX/ n 4 n n : 3 I rXaXR.[.[._._._._._._._._.{.$X$X+X].XX1X2X&X@X#X}.).K.Y.U.j.w.o.@.@.#.@.@.@.@.#.@.$.@.@.#.@.@.;.a.a.",
"_._._.%XlXfXb.G D J E ( / 0XeX^.T._._._._.[._.[.[._.[.{.#X$X+X`.E.E.].+X$X$X_.).I.V.-.+.+.&.#.@.@.@.@.@.@.@.@.@.@.@.@.#.o.<.s.s.",
"_._._.{.;X4XsXsXsX9XeXmXNXrX!.S.R._._._._._.[._.[._._.[.{.}.+XoXoX@X@X@X+X[./.P.I.N.g _ +.%.%.@.@.@.@.@.@.@.@.@.@.@.#.$.,.s.! Q ",
"_._._._.).-XkXZXSXgXcXAXVXaX/.[._._._._.[._.).)._.[.[._.(.'.oX@X@X@X$X+X_.L.F.P.P.B.h r _ } @.@.#.@.@.@.@.@.$.@.@.$.2.<.s.v.^ v.",
"_._._._._.{.;X:X<XhXVXnX7X|.)._._._._._._.).L.L.).[.'._.(.(.'.].oX}.|._.L.K.D.P.I.M.$ q r ` } #.%.@.@.@.@.$.@.$.$.o.<.s.! ^ ^ ~ ",
"_._._._.[.[.[.[._.;XcXlX<X_._._.[._.[.[.{._.I.L./.).)./.(.(._._._.(._././.L.F.F.Z.A d 8 r ` @.@.@.@.@.@.@.@.@.#.@.-.s.! ~ ^ ~ ! ",
"_._._._._._._.).).{.;X<X}._._._._._._._._._._.).L.D.F././._._._._._.)././.).L.Z.A g u _ ] } @.@.@.@.$.@.@.@.@.@.@.=.s.~ ~ ~ ^ ! ",
"_.[._.[._._._._.[._.).[._._._._._.[._.[._._._.).L.L.F.L.(._._._._._._.(./.I.P.m.d t [ &.%.@.@.@.@.@.@.@.@.@.@.@.@.=.v.~ ~ ~ ~ ~ ",
"[._._._._.[._.[._._.).)._._._._.[._._._._.[._._.).).).(._._.[._._._._.T.A.I.P.A d 8 ` &.&.%.@.@.@.#.$.@.$.@.@.@.@.-.v.~ ~ ^ ~ ~ ",
"[._.[._._._._._._.[.[._._._._.'.[._._.[._._._.[._.[.[._._._._._._._._.T.L.%X-XH.% q t @.%.#.@.@.#.@.@.@.@.@.@.$.#.,.L ! ~ ^ ^ ! ",
"_.[._._._._._.[._._._._._._.(._._._._._._.[._.[.[.[._._._._.[._._._._./.'.aXvXeXK z r ` @.@.#.@.$.@.@.@.@.$.@.@.$.,.L W ! ^ ^ ! ",
"_._._._._._._._._.[._.[._._._.(._._._.[._._._._._._._._.[._.[._._._._.(._.3XvXfX0XQ w e ] %.%.@.@.@.@.@.@.@.@.@.o.<.K Y W ! ^ ! ",
"_._.[._.(.(._._.[._._._._._._._._._._._._.[._._.[._._._._._._.[._._._._._.'.1X4XgXqXm 8 _ %.%.@.@.@.@.$.@.@.@.$.1.<.K U Y W ~ ! ",
"_._._.).(.(.).[._._.)._._.'._.(.(.)._._._.[._.[._._._.[.[._._._._._._._._.'.'.(.aXyXm O e } #.@.#.$.$.$.$.@.@.@.#.,.L J U T W W ",
"[._.[.(.).(.(.[._._._._._.{._.).L.L.).[.[._._._._._.[._._._._._._._._._.(.'.(.S.H.U n l a ` +.@.#.$.$.@.@.@.@.@.@.;.L U U U T T ",
"_._.[.(._.(._._.[.{.}.{.)./.L.R.L.L.)._.[._._.[._.[._._._.[.[._._._._.(./.`.'.G.D - ; M s ` } #.@.$.#.$.$.@.$.@.@.o.L U U U Y J ",
"[._._._.(.(.[.[._.}.$X+X(.K.D.F.L./._._._._._._._._._._._._._._.[._._./.F.XXjXeXG X q s | X.@.@.#.@.$.$.@.@.@.@.@.;.L J Y U U J ",
"_._._._._._._.).)._.}.+X'././._.{.}.{._._._.[._.[._.(._._._._._._._.).R.F.XXvXNX! - 8 _ } #.#.@.@.@.@.$.@.@.@.@.X.;.K J U T T J ",
"_._._._._._._.).L.L./.'.+X#X#X$X$X#X{._._.[.[.[._._././.(._._.(.(._./.R./.<XVXNX) l 8 _ [ %.%.@.@.#.$.o.$.@.$.@.@.*.v H U Y Y U ",
"_._._._._._._._.L.F.K.).+X&X>X&X$X$X+X{.[.)._.)._.(././._._._._._././.(.'.3XcXrXs.z r ] } %.#.@.@.@.@.$.X.@.@.@.#.*.v 7 H U U Y ",
"_._._._._._._._._.)./.).'.}.}.}.}.+X$X@X|._._._._._.(.(._._._._._.(.(._. X7X6XW.C a ` } #.#.@.@.#.@.o.@.$.@.@.$.@.*.v 6 7 H U J ",
"_._._._._._._.[._._.'._._._._.)._.}.`.R._._._._._._._.(.(._._._._._.[.[.|.-X).m.h y [ %.%.@.@.@.@.$.2.2.$.X.@.%.6.*.f 3 7 7 F J ",
"_._._._._._.[._._.[._._._._.)._.). XH.B C.).[.)._._._.'.'.'.{._._._.{._._._.K.M.N i ] #.%.1.#.@.@.2.q.q.3.} +.2.9.,.f 1 6 7 7 m ",
"_._._._._._._._._.[.[._._._.[.{.:XaXK   B Z.:X:X]._._.{.}.{.'._._._.{.{._.).A.N.N d u =.1.1.#.+.@.7.g.g.4.$.#.7.t.k % < 1 7 6 6 ",
"_._._.(._._._._.[._._._._._._.-XlXsXK   o I sXcX=X_._._.{.'._._.[._.'.}.[.K.J.m.@ . 8 g =.1.%.@.@.6.d.i.3.2.0.e.O.0 % < 1 7 6 3 ",
"_._._._._._._._._._._.[._._.(.OXjXsXI < & I eX4X_._.)._._._.[._._._._.}._.P.K.B.f X o d o.%.%.+.@.6.h.w.$.o.5.>._ r % < 1 7 3 3 ",
"_._._._._._._._._._._.[._.(.R.E..X4XwXtXeXwX!.T./.(._._._._.[.[.[._._.'./.K.K.B.D - * . ' %.&.@.@.6.e.5.o.` ' _ y r % < 1 3 1 2 ",
"_._._._._._._._._.[._._._._.(.R.R.W.jXZXZXbX8X<X<X:X{.)._._.(._._._.[.).D.A.C.H.D : - q y @.#.+.@.%.w.5.{ ' _ _ ` i % < 1 1 , & ",
"_._._._._._._._._.(._.[._._.(.(.(.'.:X<X<X8XbXAXAXkX=X_.)._.).)._._._.).L.C.Z m b : : l s ] +.%.#.X.| | o.' ' _ {  .f , , 2 , & ",
"_._._._._._.(._._.(._._._._.'._._._._.)._.%XlXAXAXcX-X).).(.(.(._._._._.'.H.D - = > n b w e ] %.%.} _ ` } } ` _ } o.f & , , , , ",
"_._._._._._.(._._._._._.[._.[._._._._.).).[.;X6X3X<X{._._.(._.(.(.[.[.=XaXeXG =   > n 4 - 9 ` %.%.X.{ } @.} } { @. .f , , , , , ",
"'._.[._.(.).).(.(._._._._._._._.[.[.[.'.[._.).I./.)._.[.[._._._.(.).(..XaXMX0Xm = = ; ; = q u X.#.#.#.#.#.@.@.%.@.*.$ # # # # # ",
"_._._._._.).).(._._.[._._._._.[._._.[.{.[.).K.D.D.L.)._._.[.[.)./.R./._.=X5XMXqXm * = ; 4 l s ` +.#.#.#.@.#.#.#.@.p @ + + + + + ",
"_._.(.}.:X2X2X;X[.).)._._.[._._.[._._._.[.).L.L.K.L./.).).)._.(./././.(.[.|.hXgX9XF > > 5 m s y { @.#.@.@.@.@.#.%.*.d . @ @ @ d ",
"_._._.-XlXAXAXkX%X).).[._._._._._._.[.[._._.).).).).L.D.F.L._._.(.(._._._._.{.7XfXyXW 4 n m s y { #.#.@.@.@.@.#.$.o.| p *.p *.*.",
"_.).).-XkXVXcXlXhX-X{.[._.[._.[._.[._._._._._.[.[._./.D.L.L.).[.'._._._._.I.J.;XSXBXn.n : l a y { #.#.@.$.@.@.@.@.@.@.@.#.$.@.-.",
"_._._.{.:X:X}.,XlXzX;X).)._._._._._._._.[._.[.[.[._.).).).)._._.(._._._._./.A.-XSXBXn.b z a e y { #.#.@.@.@.@.@.@.@.@.@.@.@.@.1.",
"_._._._._.(._.{.5XcX:X[._._._.[._.[._.[._._._.[._._.[._._.'._._._._._._.[.).A.|.xXgXb.x t y y ` X.#.#.@.@.@.@.@.@.@.@.@.@.#.2.8.",
"[._._.).).).)._.XX<X{._._.[.[._._._._._._.'._.'.[._.(.'._.'._._._.'.'._._.).K.).{.W.y.o.} o.o.X.@.@.@.@.#.$.$.@.@.@.@.@.+.%.9.u.",
"_._._._.[.[.[.)._._._._.[.)._._.[._.[._._._._.'._.(.Y.E.`._._.'.'.'.[.[._.).D.A.C.A -.%.%.4.%.#.@.@.@.@.@.@.@.%.2.2.@.@.2.9.h.l.",
"[.[._.[._._._._.)._._._._._._.[._._._._._._.].`._.Z.Z Q.W.`.'.'.|.}.{.{.{.K.K.B.V g X.%.%.%.#.%.#.@.$.@.@.@.@.2.q.0.2.%.9.f.k.l.",
"_._._._.[._.[.[.[.).).)._._._._.[._._._.'.'.*X1XW.Z v L 4X;X'.'.%X|.}.#X_.K.J.N.y.` [ #.@.$.@.@.@.#.@.@.@.@.+.7.h.j.0.7.g.z.x.l.",
"_._._._.[._._._.[.).L./.).[.[._._._._._._.*XdXwXs.c ; ! fXlX=X_.'.}.#X$X/.J.K.V.;.[ +.#.#.@.@.@.@.@.@.@.@.@.@.6.h.k.j.d.k.k.z.l.",
"[._.[._._.[.(.).)./.L.L./.)._.[.[._.[._.).`.1XwX9XE Q 0XMXlX=X_._.'.#X}.L.K.P.V.y.+.+.#.#.@.@.@.@.@.$.$.$.+.@.#.5.f.z.x.x.k.t.i.",
"_._._.[.[.)./.F.F.L././.L./.).[.'.{.'._._.(._..XsXmXmXmXhX;X{._._.'.}._.K.K.K.V.j ` +.#.#.@.@.@.@.$.#.$.$.$.#.} { >.f.c.c.f.:.;.",
"_._._.[.[.).L.F.F./.(.(./.K./.).I.L.).{.-X-X=X:XxXZXZXjX+X'._._._._._.).K.K.J.B.V t ` X.#.#.#.@.@.@.@.@.@.2.7.1._ ` >.t.t.>.y t ",
"(.(.'._._._.(./.).(._._.).).K.L.D.K./.%X<X{.oX3X7X:X;X%X{._._._._._._.(.).I.K.B.V 0 e ` +.#.#.@.@.@.#.@.@.2.q.0.$.` ' ...._ t u ",
"'._._._._._.'.'.'._._.'._.(.L.(.'.(.'.OX'._.'.7X<X_.(._._._._._._._._._._._.'.W.B 8 9 _ ` X.@.@.@.@.@.@.@.2.w.e.9.$.` y y _ y u ",
"'.(._._._._._.'._.[._._.(.(./.1X3XE.`.E.E.(.}.;X].(.(._._._._.[._._._._._.}.jXeXD O 9 t _ ' X.@.@.@.@.@.@.o.| >.e.9.$.] ] ] { o.",
"_._._._._._._.[.[._._._.`.R.(.3X7X`.E.E.E.(.(.`.`.E.(.`._._._._._._._.'.(.-XbXrXD . 9 u p  .=.3.3.3.1.3.3.=.p ,.i.u.8.=.=.1.-.3."
};
