/* XPM */
static char *result[] = {
/* columns rows colors chars-per-pixel */
"64 64 194 2 ",
"   c #0D0824",
".  c #140C25",
"X  c #1D0E26",
"o  c #1D1127",
"O  c #201226",
"+  c #261F27",
"@  c #261628",
"#  c #2B1829",
"$  c #2D2329",
"%  c #32242B",
"&  c #243E28",
"*  c #293A28",
"=  c #552B2F",
"-  c #5C322F",
";  c #512732",
":  c #552933",
">  c #5C2D34",
",  c #553332",
"<  c #5E3332",
"1  c #653632",
"2  c #693932",
"3  c #007300",
"4  c #007C00",
"5  c #0E7D06",
"6  c #157D07",
"7  c #21721D",
"8  c #175D26",
"9  c #264527",
"0  c #2C4229",
"q  c #35422C",
"w  c #106C25",
"e  c #007D20",
"r  c #48791D",
"t  c #4E492D",
"y  c #50492E",
"u  c #6B4236",
"i  c #714637",
"p  c #874739",
"a  c #96593A",
"s  c #BA5F3D",
"d  c #837B39",
"f  c #BE633F",
"g  c #C1653F",
"h  c #B70167",
"j  c #B90D63",
"k  c #B50069",
"l  c #BC1362",
"z  c #C81F5F",
"x  c #CB315C",
"c  c #C71B61",
"v  c #9E4646",
"b  c #9D5145",
"n  c #A24B46",
"m  c #BE4E4E",
"M  c #AB5245",
"N  c #B05248",
"B  c #BE5F4D",
"V  c #9E6D43",
"C  c #9A7342",
"Z  c #A36B44",
"A  c #A96B47",
"S  c #BA6042",
"D  c #BF624B",
"F  c #A17044",
"G  c #AA764B",
"H  c #BC7347",
"J  c #B97848",
"K  c #C3544F",
"L  c #C65E4D",
"P  c #C95C4F",
"I  c #C54356",
"U  c #C55750",
"Y  c #CA5750",
"T  c #C75A50",
"R  c #CC5C51",
"E  c #D15752",
"W  c #E45E50",
"Q  c #C46641",
"!  c #C76940",
"~  c #CB6B41",
"^  c #C5614E",
"/  c #CA614E",
"(  c #D5654E",
")  c #D4694D",
"_  c #DC684F",
"`  c #C97143",
"'  c #D67845",
"]  c #CC6250",
"[  c #D26052",
"{  c #D86D51",
"}  c #DC7352",
"|  c #E4654E",
" . c #E87744",
".. c #EE7C45",
"X. c #E67549",
"o. c #E77848",
"O. c #EE7A4A",
"+. c #F17F46",
"@. c #F87D45",
"#. c #F27D4B",
"$. c #E47654",
"%. c #008501",
"&. c #008B01",
"*. c #00860D",
"=. c #008B0C",
"-. c #009305",
";. c #00960A",
":. c #00990B",
">. c #008D13",
",. c #0A8C15",
"<. c #00851F",
"1. c #008A1F",
"2. c #168A14",
"3. c #009C12",
"4. c #009C19",
"5. c #278916",
"6. c #00A10D",
"7. c #00A515",
"8. c #00A817",
"9. c #00A41C",
"0. c #00A91B",
"q. c #008320",
"w. c #159726",
"e. c #3F8825",
"r. c #299626",
"t. c #369925",
"y. c #359329",
"u. c #3B922A",
"i. c #399D2B",
"p. c #00A724",
"a. c #00AD23",
"s. c #1BAC2E",
"d. c #00B027",
"f. c #00B22A",
"g. c #00B632",
"h. c #01B936",
"j. c #0CB937",
"k. c #04BB38",
"l. c #14BB39",
"z. c #23AD2F",
"x. c #3CA12D",
"c. c #25AE30",
"v. c #2EAE32",
"b. c #2DBA3A",
"n. c #3BB73B",
"m. c #4A952D",
"M. c #6F8735",
"N. c #6E983B",
"B. c #46AB35",
"V. c #48B43B",
"C. c #53B63E",
"Z. c #32C03F",
"A. c #4BBC41",
"S. c #56B640",
"D. c #55B942",
"F. c #5ABA43",
"G. c #78AF4B",
"H. c #3CC142",
"J. c #44C444",
"K. c #4AC546",
"L. c #4DC648",
"P. c #4BCA4A",
"I. c #53C649",
"U. c #55C74A",
"Y. c #5DCA4D",
"T. c #5BD052",
"R. c #65C94E",
"E. c #64CD51",
"W. c #6ACF53",
"Q. c #65D355",
"!. c #6AD456",
"~. c #74D157",
"^. c #8C8C41",
"/. c #D78547",
"(. c #DC8F49",
"). c #DF924A",
"_. c #E88F4E",
"`. c #F38345",
"'. c #FA8447",
"]. c #FC8A45",
"[. c #FE8648",
"{. c #F78949",
"}. c #FC8C49",
"|. c #EF914F",
" X c #FE934B",
".X c #FA974E",
"XX c #E98052",
"oX c #FF9D53",
"OX c #FFA04F",
"+X c #FFA452",
"@X c #FFAB51",
"#X c #FFB253",
"$X c #FFBD54",
"%X c #FFC256",
/* pixels */
"7.7.7.7.7.7.7.7.7.7.7.7.7.7.7.0.8.8.7.7.7.8.8.8.7.7.7.f.J.H.a.7.7.8.8.7.7.7.7.7.9.7.7.7.7.7.7.7.8.0.0.8.8.6.7.d.n.b.a.f.b.n.f.9.",
"7.7.7.7.7.7.7.9.7.7.7.7.7.7.7.0.a.a.0.7.7.0.a.0.8.7.0.h.K.Z.d.7.8.a.8.7.7.7.7.7.7.7.7.7.7.7.7.8.a.f.f.a.8.8.7.0.v.c.p.a.z.v.a.7.",
"7.7.7.7.7.7.7.7.7.7.9.7.7.7.7.a.k.k.a.7.7.d.l.h.a.0.g.I.Y.Z.d.0.g.l.a.7.7.7.7.7.7.7.7.7.7.7.7.a.g.J.J.g.0.8.7.3.>.>.3.7.>.>.3.7.",
"7.7.7.7.7.9.7.7.7.7.7.7.7.7.7.f.K.K.f.6.:.f.J.P.h.g.H.W.!.J.f.h.P.K.f.7.7.7.7.7.7.7.7.7.7.7.7.d.J.~.~.J.d.7.7.:.&.%.:.:.%.%.:.3.",
"9.7.7.7.7.7.7.7.7.7.7.7.7.6.7.f.K.K.f.6.7.f.H.R.L.J.U.W.E.I.J.L.Y.J.f.7.7.7.7.7.7.7.7.8.8.6.7.f.J.~.~.J.a.7.6.3.;.:.3.7.:.;.3.7.",
"7.7.7.7.7.7.7.7.7.7.7.7.7.7.7.0.v.v.a.7.7.0.c.F.R.Q.Q.U.V.D.Y.R.F.z.9.7.7.7.7.7.7.7.7.9.7.6.7.a.k.J.J.g.a.7.7.8.8.8.7.7.7.8.8.7.",
"7.7.7.7.7.7.7.7.9.7.7.7.7.8.8.3.>.>.3.8.7.:.*.t.F.!.!.V.r.i.D.F.i.=.:.7.7.7.7.7.7.7.7.7.7.7.7.9.a.f.a.a.8.7.7.7.8.8.8.8.8.8.7.7.",
"7.7.7.7.7.7.9.7.7.7.7.7.7.8.8.:.%.%.:.8.8.;.%.=.i.C.C.t.5 6 i.x.>.%.;.8.8.7.7.7.7.7.7.7.7.7.7.7.7.6.7.7.7.7.7.7.7.7.7.7.7.7.7.7.",
"7.7.7.7.7.7.7.7.7.7.7.7.7.8.8.7.;.;.7.7.8.7.:.=.*.5.5.5 3 3 6 >.;.:.7.7.8.7.7.7.9.7.7.7.7.7.7.7.7.6.7.7.7.7.7.7.7.7.7.7.7.7.7.7.",
"f.a.7.7.7.7.7.7.7.7.7.7.9.7.7.7.8.8.7.7.7.7.8.3.&.3 4 4 4 4 4 %.3.7.7.7.7.7.7.7.7.7.7.7.7.7.7.7.7.7.7.9.7.7.9.7.7.7.7.7.9.7.7.7.",
"H.h.a.7.7.7.7.7.7.7.7.7.7.7.7.7.0.8.8.7.7.8.0.7.;.-.-.;.;.;.;.:.7.8.8.7.7.7.7.7.7.7.7.7.7.7.7.7.7.7.7.7.7.7.7.7.7.7.7.7.7.7.7.7.",
"Z.k.a.6.7.7.7.7.7.9.7.7.7.7.7.7.7.7.7.7.7.7.7.7.8.7.8.7.9.7.8.7.7.7.7.7.7.7.7.7.7.7.7.9.7.7.7.7.7.7.7.7.7.7.7.7.7.7.7.7.7.7.9.7.",
"d.d.8.7.7.7.7.7.7.7.7.7.7.7.7.7.7.7.7.7.7.7.7.8.8.8.0.8.8.0.0.7.7.7.7.7.7.7.7.7.7.7.7.7.7.7.7.7.7.7.7.7.7.7.9.7.7.7.7.7.7.7.7.7.",
"7.7.7.7.7.7.7.7.7.7.7.7.7.7.7.7.9.7.7.7.7.7.7.7.7.7.7.7.7.7.7.7.7.7.7.7.7.7.7.7.7.7.7.7.7.7.7.7.7.7.7.7.7.7.7.7.7.7.7.7.7.7.7.9.",
"7.7.7.7.7.7.7.7.7.7.7.7.7.7.9.7.7.7.7.7.7.7.7.7.7.7.7.7.7.7.7.7.7.7.7.7.7.7.6.7.9.7.7.8.7.7.7.7.7.7.7.7.7.7.9.7.7.7.7.7.7.7.7.7.",
"7.7.7.7.6.7.a.a.0.7.7.7.7.7.7.7.7.7.7.7.9.7.9.7.7.7.7.7.7.7.7.7.7.7.7.0.a.a.8.7.7.7.7.8.a.a.8.7.7.7.7.7.7.7.7.7.7.7.7.7.7.7.7.7.",
"7.7.7.7.6.d.h.l.a.7.7.7.7.7.7.7.7.7.7.r.C B B B B B B D B B B B B B B L B B D B B B B C S.j.a.7.7.7.7.7.7.7.7.7.9.7.7.7.7.7.7.7.",
"7.7.7.8.d.h.I.Z.a.7.0.f.0.7.7.7.7.7.7.r.V U U U K K K K U U K U m U U U U U U U U U U A G.K.f.7.7.7.7.7.7.7.7.7.7.7.7.0.d.d.8.7.",
"7.7.6.a.h.U.R.Z.a.a.f.l.d.7.6.7.7.7.7.y.A U U U U U P K U U U U T U U U U U U U U U T G G.A.f.7.7.7.7.7.7.7.7.7.7.7.7.d.l.l.d.8.",
"7.6.7.0.v.F.R.P.k.f.n.B.i.u.y.u.u.u.u.M.J } } { } } } } } } } } } } } } } } } } } } } ` ^.N.m.y.u.u.u.w.9.9.7.7.7.7.7.9.v.n.f.f.",
"7.8.7.3.>.m.C.T.P.n.r.m.d F F F V V Z J _.+X+XoXoXoXoXoXoXoXoXoXoXoXoXoXoXoXoXoXoX+X+X_.H Z V V Z Z F d w.7.7.7.7.8.8.:.>.y.n.n.",
"7.8.8.;.&.*.x.C.D.m.=.r Z P P T U m K } +X$X%X$X$X$X$X$X$X$X$X$X$X$X$X$X$X$X$X$X$X$X$X+X} U m U P P P Z u.7.7.7.7.8.8.:.%.,.V.Y.",
"7.8.8.6.:.=.=.5.5.>.-.e.A P R T T m U } +X$X%X$X$X$X$X$X$X$X$X$X$X$X$X$X$X$X$X%X$X%X$X+X} m m R T P P A m.7.7.7.7.7.8.:.-.p.A.Y.",
"7.7.8.8.8.:.%.4 3 %.3.u.Z P T ] { } } $.oX@X@X+X+X@X+X+X+X+X@X+X+X@X+X+X@X+X+X+X+X@X+XoXXX} } { ] R T F y.7.7.7.7.7.8.6.7.a.c.B.",
"7.7.7.8.8.7.:.-.&.:.7.u.F K P { |.oX+XoX X{.}.}.}.}.}.}.}.}..X}.}.}.}..X{.}.}.}.{.}.}..XoXoX+X|.{ U U F u.7.7.7.7.7.7.8.8.7.>.,.",
"7.7.7.7.7.7.8.7.7.7.7.r.V m K { +X%X%X+X}. . .........`.......................`.+. .O.].@X%X%XOX} U m V r.7.7.7.7.7.7.8.8.3.%.4 ",
"7.7.7.7.7.8.8.8.8.8.7.r.V m U } +X%X%X@X{. . ...O.....................................{.@X%X%XOX} U m V r.7.7.7.7.7.7.8.7.7.;.-.",
"9.7.7.7.7.7.7.8.m.m.m.M.J } } $.oX@X@X+X X}.{.{.`...`.....`...`.`...`...`...`...+.....{.oX@X@XoX$.{ { J M.u.u.r.7.7.7.7.7.7.8.7.",
"7.7.7.7.7.7.7.d.G G F J _.+X+XoX X{.]. XOX@X@XoX{.......`.....#...`.O.`.....`.O.+.+.+.`.{.}.}. XoX+X+X_.J Z V C 9.7.7.7.7.7.8.8.",
"7.7.7.7.7.7.7.a.^ T T } oX$X$X@X X@.@. X@X%X$X@X X..O.`...`.`...`.#.`...`...`.`.+...+.`.`.@.'. X@X%X%XoX} U U L 7.7.7.7.7.7.7.7.",
"7.7.7.7.7.7.7.0.T U U } +X%X%X@X}.@... X@X%X%X@X{.......`...#.`.......`.`.....#.+.+.+.+.+.+.+.}.@X%X%X+X} U U T 7.7.7.7.7.7.7.7.",
"7.7.7.9.7.7.7.7.D U U } oX$X$X+X' f s g .X@X@XoX{.`...`...`.`...#.`.`.#...`...`.+.`.+.O.~ f f ' oX$X$XoX} T U B 7.7.7.9.7.7.7.7.",
"7.7.7.7.7.7.7.7.B U U } oX$X%X_.a = - p ' }. X{.`.+.+.+.`.`.`.`.`...`.`.`.....`.#.'.`.~ p - : a _.%X$X+X} U U B 7.7.7.7.7.7.7.7.",
"7.7.7.6.7.7.7.7.B U U } oX%X%X(.2 . . - Q '.].+.`.+.`.`.`.{.`.`.`.`.{.`.`.`...`.`.[.'.g 1 . . u ).%X%XoX} U K B 7.7.7.7.7.7.7.7.",
"7.7.7.7.7.7.7.7.B U U } oX%X%X(.u     - g @.'.+.+.+.+.+.`.`.`.`.`.`.`.`.`.`.`.`.`.[.'.f -     2 (.$X%XoX} U U B 7.7.7.7.7.7.7.7.",
"7.8.a.a.8.7.7.7.B U T } oX%X$X(.i X . 1 B O.#.X.o.o.X.X.| ( W W | W W | X.X.X.X.X.#...S 1 X X u (.$X%XoX} U U B a.d.0.7.7.7.7.7.",
"8.a.j.l.a.7.7.7.B U U } oX%X%X(.i O X > N _ _ ( ( ( ) E x c c c z c c x Y ) ) ) ( _ _ N < X O i (.%X%XoX} T U B l.l.d.7.7.7.7.7.",
"f.h.P.K.f.7.6.7.^ R R $.+X%X%X).i O X > n R R R T / P I l k k k k k k j x ^ ^ P P [ R n > X O i (.%X%X+X$.R R ] B.v.a.7.7.7.7.7.",
"J.L.R.J.f.7.7.7.^ Y E $.+X%X%X(.i O X > n T R P P ^ P I j k k k k k k j I P ^ T P R P n > X O i (.%X%X+X$.R Y ^ t.>.3.7.8.7.7.7.",
"E.R.D.z.7.7.7.7.b v v D |.#X#X/.u O O > M R R P P / P I l k k h k k k l I / / P P E [ n > X O u /.#X#X|.^ v v b w.%.;.8.7.7.7.7.",
"R.F.t.*.3.8.8.7., ; : p '  X X~ 2 O O > n [ R P P / / I l h h h k k k l I / / P P [ R n > o O 2 `  X.X' p : ; < 9.-.:.8.8.7.7.7.",
"B.i.*.%.;.7.8.7.$ o @ - f }.].g - . . : n P [ P P ^ / I l k h h h k h l I / / R P [ R n :   . - f [.[.g < @ o $ a.8.7.7.7.7.7.7.",
"2.*.-.:.7.8.7.7.# o O < f [.[.g 1 o . = n [ [ P P / / I l h h h h k k l I / / P P [ [ n > X o 1 f [.[.S < O o + 3.8.8.7.7.7.7.7.",
"4 %.3.8.7.7.7.7.$ @ # 1 g [.[.` p - - i N P [ P R / / I l h k h h h h l I / / P P P R N i , - p ` [.[.Q 2 # @ $ :.7.8.7.7.7.7.7.",
";.:.7.0.8.7.7.7.% + # 1 Q [.[. .` g Q Q L P P P P / / I l k k h h k k l I / / R P R P L Q f Q ` O.].[.Q 1 # @ $ 7.7.0.7.7.7.7.7.",
"7.8.7.7.7.7.7.7.# @ # 2 ~ [.}.[.[.}.[.#._ K K P T ^ P I j k k k k k k j I ^ ^ T T T P _ #.[.}.[.].[.[.~ 2 # @ # 7.7.7.7.7.7.7.7.",
"8.8.7.7.7.7.7.7.# @ # 1 ! [.[.{.[.}.[.#.( U U T T / P I l k k k k k k l I P / T T U U ) #.[.}.[.'.[.[.~ 1 # # # 7.7.7.7.7.7.7.7.",
"7.7.7.7.7.7.7.7.9 & 9 t a ~ ~ Q ! g g ~ / ( ( ( ( ) ( Y x c z z z c c x Y ( ) ( ( ( ( / Q Q g ! Q ~ ! a t & 9 9 7.7.7.7.7.7.8.9.",
"7.7.9.7.7.7.7.7.q.q.q.w y 2 2 1 2 < 1 p Q O.#.X.X.o.o.X.| W W | W W W | X.o.o.X.X.#.O.~ p 1 < 2 2 2 1 y w q.q.<.7.7.7.7.7.7.7.7.",
"7.7.7.7.7.7.7.7.7.8.0.q.0 # # # @ o O 1 ~ [.}.[.[.[.[.[.}.}.].].}.[.].].'.[.[.[.[.}.}.~ 1 O o # # # # * <.7.7.7.7.7.7.7.7.7.7.7.",
"7.7.7.7.7.7.7.7.7.7.7.q.& @ @ @ @ . o < ! [.}.'.'.'.'.'.].].].].].].].].'.'.'.'.'.}.[.g < o . @ @ @ @ & 1.7.7.7.7.7.7.7.7.7.7.6.",
"7.7.7.7.7.7.7.7.7.7.7.q.8 0 0 0 0 & 9 t a ~ ~ ! Q g Q Q g Q g Q g g Q Q Q Q Q ! ! ~ ~ a y * q q q 0 0 8 1.7.7.7.7.7.7.7.7.7.a.a.",
"7.7.7.7.7.7.7.7.7.7.7.4.1.q.q.q.q.q.q.w y 2 2 1 1 1 1 1 1 2 1 1 1 1 1 1 1 2 1 1 1 2 2 y w q.7 7 e q.q.q.7.7.7.7.7.7.7.7.6.a.h.b.",
"7.7.a.a.8.6.7.7.7.7.7.7.8.7.7.7.7.7.7.<.* # # # # # # # # # # # # # # # # # # # # # # * q.:.%.%.:.8.8.7.7.7.7.8.a.0.7.7.0.h.K.U.",
"7.d.l.l.d.7.7.7.7.7.7.7.7.7.7.6.7.7.8.q.& @ @ @ @ @ @ @ @ @ @ @ @ @ + @ @ @ @ @ @ O @ & q.7.;.:.3.7.8.7.7.7.7.d.l.h.a.0.g.L.Y.E.",
"f.h.P.K.f.7.6.7.7.7.7.7.7.8.a.d.0.7.7.q.9 $ $ % $ $ $ $ $ $ $ % $ $ $ $ $ % % % % $ $ 9 q.7.8.8.8.7.7.7.7.7.7.d.K.K.h.f.H.E.Q.E.",
"J.P.R.K.a.7.7.7.7.7.7.7.7.a.l.l.d.7.6.7.7.7.7.7.7.7.7.7.7.7.8.9.7.7.8.:.-.p.K.K.f.7.6.7.7.7.8.8.8.7.7.7.7.7.7.f.H.Y.L.J.U.R.R.E.",
"E.R.D.c.p.7.7.7.7.7.7.7.7.a.l.l.d.7.7.7.7.7.7.7.7.7.7.7.7.7.7.7.7.7.7.7.8.a.v.v.a.7.7.7.7.7.7.7.7.7.7.7.7.6.6.9.s.F.R.Q.Q.U.C.V.",
"R.F.u.=.;.7.8.7.7.7.7.7.7.8.a.d.0.7.7.7.7.7.7.7.9.7.7.7.7.7.7.7.7.7.7.8.8.3.>.=.4.7.8.7.7.7.7.7.7.7.7.7.7.8.7.:.=.t.F.!.Q.C.r.5.",
"B.i.*.%.;.8.8.7.9.8.7.7.7.7.7.7.7.7.7.7.7.7.7.7.7.7.9.7.7.7.7.7.7.7.7.8.8.:.%.%.:.8.8.7.7.7.7.7.7.7.7.7.8.0.d.p.&.*.i.C.C.x.6 4 ",
"2.*.-.;.3.8.8.7.7.7.7.7.7.7.7.6.7.7.7.7.7.7.7.7.7.7.7.7.7.9.7.7.7.7.7.7.8.7.;.;.7.7.7.7.9.7.7.7.7.7.7.7.7.a.l.j.9.&.%.5.5.*.3 3 ",
"4 %.3.8.8.7.7.7.7.7.7.7.7.7.7.7.7.8.7.7.7.7.7.7.7.7.8.9.7.7.7.7.7.7.7.7.7.7.8.7.7.7.7.7.7.7.7.7.7.7.7.7.7.a.v.n.g.9.%.4 4 4 4 3 ",
";.;.7.8.8.7.7.7.7.7.7.7.8.7.7.7.7.9.7.7.7.9.9.7.7.7.7.7.7.7.7.7.7.7.7.7.7.8.8.8.8.7.7.7.7.7.7.7.7.7.7.7.8.3.>.i.B.h.9.-.&.-.;.;.",
"3.7.7.7.8.7.7.7.8.9.7.8.7.7.7.7.7.7.7.7.7.7.7.7.7.7.7.7.7.7.7.9.7.7.7.7.7.7.8.7.8.9.7.7.7.7.7.7.7.7.7.8.7.;.%.5.V.H.d.6.:.7.3.7."
};
