/* XPM */
static char *result[] = {
/* columns rows colors chars-per-pixel */
"64 64 198 2 ",
"   c #010000",
".  c #0C0101",
"X  c #010D00",
"o  c #0F0C01",
"O  c #140001",
"+  c #1C0101",
"@  c #110A05",
"#  c #011100",
"$  c #011D00",
"%  c #0E1110",
"&  c #111111",
"*  c #191919",
"=  c #230102",
"-  c #2B0204",
";  c #2E0808",
":  c #330106",
">  c #3A0709",
",  c #231D03",
"<  c #3B160A",
"1  c #3C1C0C",
"2  c #002D02",
"3  c #122800",
"4  c #0A3400",
"5  c #003A00",
"6  c #183906",
"7  c #272A08",
"8  c #33230C",
"9  c #3A240D",
"0  c #332D0D",
"q  c #3D2A0F",
"w  c #243408",
"e  c #2E340C",
"r  c #32330E",
"t  c #3F2B12",
"y  c #3A3714",
"u  c #2A302E",
"i  c #343736",
"p  c #363939",
"a  c #45030A",
"s  c #4B040B",
"d  c #470C0C",
"f  c #4B0B0D",
"g  c #54030E",
"h  c #59040F",
"j  c #43160D",
"k  c #4B150E",
"l  c #5C0411",
"z  c #500E10",
"x  c #5D0D12",
"c  c #4C1714",
"v  c #571612",
"b  c #5B1313",
"n  c #63010C",
"m  c #630512",
"M  c #6C0615",
"N  c #630B14",
"B  c #6B0D16",
"V  c #720617",
"C  c #750718",
"Z  c #7B071A",
"A  c #750A19",
"S  c #7C0A1A",
"D  c #671216",
"F  c #6D1519",
"G  c #79101B",
"H  c #41230E",
"J  c #4C2413",
"K  c #492714",
"L  c #473919",
"P  c #482F32",
"I  c #64373D",
"U  c #014300",
"Y  c #004B01",
"T  c #06460A",
"R  c #0C450A",
"E  c #0B4D0C",
"W  c #12450B",
"Q  c #194609",
"!  c #144C0C",
"~  c #005201",
"^  c #005C00",
"/  c #00530B",
"(  c #005C0B",
")  c #184D11",
"_  c #294E16",
"`  c #304F18",
"'  c #2C5118",
"]  c #32531A",
"[  c #006200",
"{  c #006D00",
"}  c #00610C",
"|  c #006B0E",
" . c #007200",
".. c #007B00",
"X. c #00750D",
"o. c #00790D",
"O. c #0F7F08",
"+. c #056416",
"@. c #027417",
"#. c #007D12",
"$. c #3C5A21",
"%. c #316F25",
"&. c #48411C",
"*. c #445D25",
"=. c #444A48",
"-. c #4B4D4C",
";. c #4C504F",
":. c #545151",
">. c #75484F",
",. c #7A7D7C",
"<. c #8F051A",
"1. c #830A1C",
"2. c #8C0B1E",
"3. c #960217",
"4. c #900C1F",
"5. c #8F0C20",
"6. c #940C21",
"7. c #9B0D23",
"8. c #9E1025",
"9. c #A30E25",
"0. c #A41026",
"q. c #AA1027",
"w. c #AC1129",
"e. c #B4122B",
"r. c #BC142E",
"t. c #C1152F",
"y. c #C41630",
"u. c #80535A",
"i. c #008501",
"p. c #008A03",
"a. c #00850D",
"s. c #008B0C",
"d. c #009305",
"f. c #00960A",
"g. c #00990C",
"h. c #008212",
"j. c #008D13",
"k. c #068919",
"l. c #168611",
"z. c #009513",
"x. c #009C13",
"c. c #00911E",
"v. c #16931A",
"b. c #288917",
"n. c #00A20E",
"m. c #00A515",
"M. c #00A817",
"N. c #00A41C",
"B. c #00A91B",
"V. c #1D8724",
"C. c #109A2C",
"Z. c #359825",
"A. c #389F2B",
"S. c #388D31",
"D. c #00A424",
"F. c #00AD24",
"G. c #00AF29",
"H. c #1BAC2E",
"J. c #00B027",
"K. c #00B22A",
"L. c #00B532",
"P. c #01B936",
"I. c #0CB937",
"U. c #04BB38",
"Y. c #13B837",
"T. c #15BB39",
"R. c #23AD2F",
"E. c #25AE30",
"W. c #2EAE32",
"Q. c #3EA132",
"!. c #2DB939",
"~. c #3BB73B",
"^. c #41952E",
"/. c #46AC35",
"(. c #46B33A",
"). c #53B63E",
"_. c #32C03F",
"`. c #47B941",
"'. c #56B942",
"]. c #5ABA43",
"[. c #3CC242",
"{. c #43C444",
"}. c #4AC446",
"|. c #4CC94A",
" X c #53C649",
".X c #54C94B",
"XX c #5DCA4D",
"oX c #5BD052",
"OX c #65C94E",
"+X c #64CD51",
"@X c #68D456",
"#X c #74D157",
"$X c #8A7F80",
"%X c #929494",
"&X c #B4B5B5",
"*X c #BCBEBE",
"=X c #C0B6B8",
"-X c #CAC0C1",
/* pixels */
"m.m.m.m.m.m.m.N.m.m.m.m.m.m.m.B.M.M.m.m.m.M.m.M.m.m.m.K.`.[.K.m.m.m.m.m.m.m.m.m.m.m.m.m.m.m.m.m.M.M.B.M.M.n.m.K.~.!.G.G.!.~.J.B.",
"m.m.m.m.m.m.m.m.m.m.m.m.m.m.m.B.F.F.B.m.m.B.G.D.m.m.B.P.}.[.G.m.M.G.m.m.m.m.m.m.N.m.m.m.m.m.m.M.F.K.G.G.M.m.m.B.W.E.D.F.R.W.F.M.",
"N.m.m.m.N.m.m.m.m.m.N.m.m.m.m.G.P.U.G.n.m.J.Y.C.+.R _ $.*.] ) ) ' ' ) R R } j.m.m.m.m.m.N.m.m.F.L.{.{.P.B.M.M.x.z.z.x.x.j.j.x.m.",
"m.m.m.m.m.m.m.m.m.m.M.m.m.n.m.K.|.}.K.n.g.K.(.Q.' r y &.L ` y y L &.y e e ) @.x.m.m.m.m.m.m.m.J.{.#X#X{.J.M.m.g.i.i.g.g.i.i.g.x.",
"m.m.m.m.m.m.m.m.m.m.m.m.m.n.m.K.}.}.K.n.m.D.S.*.K D F F F F F F F F F F B J ) o.x.m.m.m.m.n.m.K.{.#X#X{.J.m.n.g.f.f.g.m.g.f.x.m.",
"m.m.m.m.m.m.N.m.m.m.m.m.m.m.m.F.W.W.F.m.g.#.` K B 5.7.7.0.8.5.5.5.6.2.6.6.S K ! #.x.m.m.m.n.m.G.L.{.}.L.F.n.m.M.M.M.M.M.M.M.M.m.",
"m.m.m.m.m.m.m.m.m.m.m.m.m.M.M.x.j.j.x.x.#.W j B 6.w.e.r.r.w.6.5.1.1.1.2.1.2.A J ! X.x.m.m.m.m.N.F.J.F.F.M.m.m.M.M.M.m.M.M.M.M.m.",
"m.m.m.m.N.m.m.m.m.m.m.m.m.M.M.g.i.i.s.h.E 1 B 6.w.r.y.y.r.7.A l l m N l m B 2.S K ! #.x.m.m.m.m.m.m.m.m.m.m.m.m.m.m.m.m.m.m.m.m.",
"m.m.m.m.m.m.m.m.m.m.N.m.m.M.M.m.f.p.X.E 9 B 6.q.r.y.y.r.0.Z s - - : - - - s V 5.A K ! X.x.m.m.m.m.m.m.m.m.m.m.m.m.m.m.m.m.m.m.N.",
"J.G.B.n.m.m.m.m.m.m.m.m.m.m.m.m.m.c./ 1 N 2.q.r.r.r.e.8.A a +     . .   . + s V 5.G J E #.z.m.m.m.m.m.m.m.m.m.M.m.m.m.N.m.m.m.M.",
"_.U.F.m.m.m.m.m.m.m.m.m.m.m.m.m.m.h.w s Z 9.r.y.y.e.7.V a +                 + s A 5.A J ) X.z.m.m.m.m.m.m.m.m.N.m.m.m.m.m.m.m.m.",
"_.I.F.m.m.m.m.m.N.m.m.m.m.m.m.m.j.| 9 m 2.9.e.y.y.w.5.s +                     + s 1.7.G H / j.m.m.m.m.N.m.m.m.m.m.m.m.m.N.m.m.m.",
"J.J.M.m.m.m.m.m.m.m.m.m.m.m.m.m.} Q c V 5.9.e.y.y.0.M ;                       . - A q.9.x e h.x.m.m.m.m.N.m.m.m.m.m.m.m.m.m.m.m.",
"m.m.m.m.m.m.m.n.m.m.m.m.m.N.m.m.w 8 N 5.7.q.e.y.y.8.M =     & &             & * ; M 9.9.M 9 @.x.m.m.m.m.m.m.m.m.m.m.m.m.m.m.m.m.",
"n.m.m.m.m.m.m.m.m.m.m.m.m.m.m.m.< f Z 6.7.7.q.r.r.8.m +   * ;.:.*         * ;.:.P M 9.9.M q h.x.m.m.m.m.m.m.m.N.m.m.m.m.m.m.N.m.",
"m.m.m.m.m.m.B.G.B.m.m.m.m.m.N.m.a l 1.7.6.6.7.e.r.q.m +   p %X%Xp         p %X%XI M 3.q.M H h.x.m.m.m.m.m.m.m.m.m.m.m.m.m.m.m.m.",
"m.m.m.n.m.F.P.T.F.m.n.m.m.m.m.m.f h 1.6.1.S 4.w.r.0.m O   -.*X*X-.        -.*X-Xu.n 3.0.V K k.x.m.m.m.m.m.N.m.m.m.m.m.m.m.m.m.m.",
"m.m.m.M.J.P. X_.J.M.F.J.B.n.m.m.f n 1.2.M m 1.w.r.0.m O   =.&X&X-.        =.&X=X>.n <.7.M L V.x.m.m.m.m.m.m.m.m.m.m.m.M.J.J.M.m.",
"m.n.m.F.P..X+X_.J.F.P.T.J.n.m.m.f m 2.1.m h Z w.r.q.m O   u ,.,.u         u ,.$XI m <.6.M L V.z.m.m.m.m.m.m.N.m.m.m.m.G.T.I.J.m.",
"m.m.m.B.W.].OX|.P.K.~.W.F.M.m.m.1 z Z Z h g Z w.r.0.C :   & i p &         % p p c m 5.5.M K l.x.m.m.m.m.m.m.m.m.M.m.m.F.W.(.K.K.",
"m.M.m.x.f.^.].oX.X~.Z.j.x.m.M.m.W 0 N m g g S 9.w.q.5.l - O X                 & ; l 5.5.m H @.x.m.m.m.N.m.m.m.m.M.M.M.g.z.Z.~.~.",
"M.M.M.d.i.a.A.).).^.s.i.f.M.M.m.X.( 0 j < d Z 7.q.0.8.S g =                   . : M 5.C f e o.x.m.m.m.m.m.m.m.m.m.M.M.d.i.k.(.OX",
"m.m.m.m.g.f.s.b.b.k.d.f.m.m.M.m.z.h./ T T e b 1.7.0.0.7.C a +                 = g C C x 0 ~ j.m.m.m.m.m.m.m.N.m.m.M.m.g.d.N.`.XX",
"m.m.m.M.M.g.i. ...i.x.M.M.m.m.m.m.x.a.X.X.} r v S 5.7.6.5.V s =             = a m B v 0 } h.x.m.m.m.m.m.m.m.M.m.m.m.m.m.M.F.R.(.",
"m.m.m.M.M.m.g.d.p.g.m.M.M.m.m.m.m.m.x.x.z.j.( e b V Z 1.2.2.V s = O . . . = s M M b e ( j.x.m.m.m.m.m.m.m.m.m.m.m.m.m.M.M.m.j.k.",
"m.m.m.m.m.M.M.m.m.m.m.m.m.m.m.m.m.m.m.m.m.m.#.R k m M V 2.7.2.V s : : : > g V 1.C k T o.m.m.N.m.m.m.m.N.N.M.m.m.m.m.m.M.M.x.i...",
"m.N.m.m.m.M.M.M.M.M.m.m.m.m.m.m.m.m.m.N.m.x.X.6 k M M C 2.9.q.6.S V M M V S 6.7.1.k 6 X.x.m.m.m.m.N.m.m.m.m.m.m.m.m.m.B.m.m.g.d.",
"m.m.m.m.m.m.m.M.J.J.M.m.m.m.m.n.m.m.m.m.x.#.E q B 1.2.1.6.0.w.w.0.7.7.7.7.q.w.e.6.D 9 E #.z.m.m.m.M.m.m.m.m.N.m.m.m.m.m.m.m.M.M.",
"m.m.m.m.N.m.m.F.T.T.J.m.n.m.m.m.m.m.m.x.X.E H D 5.7.9.7.9.w.e.r.e.r.e.e.e.r.r.r.w.5.D H E X.z.N.m.m.m.m.m.m.m.m.m.m.m.N.m.m.M.M.",
"m.m.m.m.m.m.m.J.T.T.J.m.n.M.F.J.B.m.m.j./ 8 N 2.w.e.e.e.e.e.r.r.y.r.y.r.r.r.r.r.e.w.5.N 8 / j.x.m.m.m.m.m.N.m.m.m.m.m.m.m.m.m.m.",
"m.M.m.m.m.m.m.M.F.J.M.n.n.J.T.T.G.n.m.h.r s Z 0.e.y.r.r.r.r.r.r.r.y.r.y.y.r.r.y.r.r.7.V s e k.x.m.m.N.m.m.m.m.m.m.N.m.m.m.m.m.m.",
"m.N.m.m.m.m.m.m.m.m.m.n.M.J.T.T.G.m.n.#.0 l 1.q.r.r.r.y.r.r.r.r.r.r.r.r.r.r.r.r.r.r.0.5.l t #.x.m.m.m.m.m.m.m.m.m.M.m.m.m.m.m.m.",
"m.m.m.m.m.m.m.m.m.m.m.m.m.M.F.G.B.m.m.#.8 l 5.e.r.y.r.r.r.r.r.r.r.r.r.r.r.r.r.r.r.t.e.4.l q #.x.m.m.N.m.m.m.m.m.m.m.m.m.m.m.m.m.",
"m.m.m.n.m.m.m.m.m.m.m.m.m.m.m.m.m.m.x.| 8 M 7.r.y.r.r.r.r.r.r.r.r.r.r.r.r.r.r.r.r.t.e.6.m 0 #.m.m.m.m.m.m.m.m.m.m.m.m.m.m.m.m.m.",
"m.m.m.m.m.m.m.m.m.m.m.m.m.m.m.m.m.z.X.R c S w.r.y.r.r.r.r.r.r.r.r.r.r.r.r.r.r.r.r.y.r.7.m r #.x.m.m.m.m.m.m.m.m.m.m.n.m.m.m.m.m.",
"m.M.F.G.M.m.m.m.m.m.m.m.m.m.m.m.x.j./ 8 N 5.e.r.r.r.r.r.r.r.r.r.r.r.e.r.r.r.r.r.r.y.y.0.M 8 | s.m.m.F.F.M.m.m.M.J.J.B.m.m.m.m.M.",
"M.F.I.Y.J.m.n.m.m.m.m.m.m.m.m.m.x.k.e s V 7.e.y.y.r.r.r.r.r.r.r.r.e.e.w.r.r.r.r.r.y.r.w.S c R ( m.F.U.Y.J.n.n.J.T.T.J.m.m.m.m.m.",
"K.P.|.}.K.m.n.M.m.m.m.m.m.m.m.m.x.#.t g 5.9.e.r.r.r.r.r.r.r.r.r.y.e.w.w.e.r.r.r.r.y.y.e.6.N 8 6 m.K.{.{.J.m.B.K.(.W.B.m.m.m.m.m.",
"{.|.OX[.K.m.m.m.m.m.m.m.m.m.m.m.x.#.t g Z 9.r.r.r.r.r.r.r.r.r.y.r.e.0.0.e.r.y.r.r.r.y.e.7.Z f < n.K.{.[.K.F.P.(.Z.j.x.m.M.m.m.m.",
"+XOX].E.N.m.m.m.m.m.N.m.m.m.m.m.x.#.0 g 5.0.e.r.y.r.r.r.r.r.r.r.r.w.6.7.w.r.r.r.r.r.r.e.9.1.h f m.K.|._.K.K.[.'.v.i.f.M.B.m.m.m.",
"OX].Z.j.z.M.M.m.m.m.m.m.m.m.m.m.x.#.e g S 9.r.r.y.r.r.r.r.r.r.r.e.7.1.1.6.e.y.y.r.r.e.q.0.1.l a m.K.{._.G.K.{.}.D.d.g.M.M.m.m.m.",
"/.A.s.i.d.M.M.m.M.m.m.N.m.m.m.M.c.@.9 l 5.7.e.r.r.r.r.e.r.r.r.r.w.2.M M 6.w.e.r.r.r.q.9.7.Z g d m.F.W.R.F.F.R.W.F.M.m.m.m.m.m.m.",
"l.s.s.g.m.m.M.m.m.m.m.m.m.m.m.J.%.] c V 6.7.w.e.r.e.e.e.r.r.e.w.9.1.h h 1.9.w.e.r.e.9.7.6.1.h d M.x.j.j.x.x.z.j.x.M.M.m.m.m.m.m.",
"i.i.g.M.M.m.m.m.m.N.m.m.m.m.m.F.e t D 5.7.7.9.9.e.e.w.w.e.e.w.9.4.V s s V 6.9.q.e.e.9.7.6.5.h d M.g.i.i.g.g.i.i.g.M.M.m.m.m.m.m.",
"f.g.m.B.M.m.m.m.m.N.m.m.m.m.m.B.1 s Z 6.7.7.7.7.q.w.w.w.w.q.9.4.1.h : - l S 6.9.w.w.7.7.7.1.l d m.g.g.g.m.x.f.f.m.m.B.m.m.m.m.m.",
"m.M.m.m.m.m.m.m.m.m.m.m.m.m.m.m.g m 1.7.6.5.6.7.9.q.w.w.q.9.6.1.n > O + a V 2.9.9.7.5.6.7.1.l s m.M.M.m.M.M.m.M.m.m.m.m.m.m.m.B.",
"M.M.m.N.m.m.m.m.m.m.m.m.m.m.m.m.s m 1.6.1.Z <.6.7.9.q.q.9.6.1.m > +   . - m 1.9.9.5.Z 1.5.5.g f m.M.M.M.M.m.M.M.m.m.m.m.m.N.m.m.",
"m.m.m.m.m.m.m.m.m.m.m.m.m.m.m.m.1 z Z 1.V M 1.7.6.6.9.9.9.2.M a +       = g Z 6.7.5.C C <.Z s 1 M.m.m.m.m.m.m.m.m.m.m.m.m.m.m.m.",
"m.m.m.m.m.m.m.m.m.m.M.m.m.m.m.m.W 0 x B g l 1.4.1.S 4.9.9.2.h :         O : m 1.6.2.Z V A b t ` J.m.n.M.m.m.m.m.m.m.m.m.m.m.m.m.",
"m.m.m.m.m.m.m.m.m.m.N.m.m.m.m.m.X.( q d s l S S b x S 6.6.1.h : . # X X   + s V 2.2.1.M v K %.S.K.m.n.m.m.m.m.m.m.m.m.m.m.m.m.m.",
"m.m.m.m.m.m.m.m.m.m.m.m.m.m.N.m.z.a.( 7 > h V v r e v Z 1.M s ; 2 Y Y 2 X O : h V Z Z x 0 +.Q.`.K.M.m.m.m.M.m.m.m.m.m.m.m.m.m.m.",
"m.m.m.m.m.m.m.m.N.m.m.m.m.m.m.m.m.x.j.( 7 < k r } ( 8 h h s < 7 ( #.o.} 2 . = a f k c 0 ( k.W.W.F.n.m.m.m.m.m.m.m.m.m.m.m.m.B.F.",
"m.m.m.m.m.m.m.M.m.m.m.m.m.m.m.m.m.m.x.o./ 6 6 W [ ~ , - - - 7 6 [ { { [ 5 $ + = , w 6 / o.z.j.z.x.m.M.m.m.m.m.m.m.m.m.m.m.F.P.!.",
"m.m.F.F.M.m.m.m.m.m.m.m.N.m.m.m.m.m.x.d...^ Y [ { ^ 3 . . o 4 ^ {  . .{ ^ 5 o @ 4 ^ [  .s.f.i.p.g.M.M.m.m.m.m.M.F.B.m.m.B.L.}..X",
"M.G.I.Y.J.m.n.m.m.m.m.m.m.m.m.m.m.x.p.....{ [ {  .[ U #   # Y {  . . . .{ U # o U { .. ...i.f.m.m.m.m.m.m.m.m.J.T.P.G.M.L.}.XX+X",
"K.U.|.}.K.m.n.M.m.m.m.m.m.M.F.J.z.p... . . . . . .{ ^ 2 X X Y  . . . . . .Y X X Y  . .{  ...p.x.m.m.m.m.m.m.n.K.|.}.L.L.[.+X@X+X",
"[. X+X}.J.m.m.m.M.m.m.m.m.J.T.T..... . . . . . . . .{ U X # Y  . . . . .{ Y # X Y  .{ {  . ...i.x.m.m.m.m.n.m.K.[.XX X{. XOX+X+X",
"+XOX'.E.N.m.m.m.m.m.m.m.m.F.T.T.i... . . . . . . . . .~ $ $ ~  . .{  . . .~ $ $ Y  .{  . . ...i.x.m.m.m.m.n.m.m.H.].OX@X@X.X`.(.",
"+X].Z.s.x.m.M.m.m.m.m.m.m.B.F.G.z.p... . . . . . . .{ ^ 5 5 ^  . . . . . .^ 5 5 ^  .{ {  ...p.x.M.m.m.m.m.M.M.g.s.Z.].@X@X'.Z.b.",
"/.A.s.i.d.m.M.m.N.m.m.m.m.n.m.m.m.g.s....... . . .{  .[ Y Y ^  . . . . . .^ Y Y [  .......i.x.M.M.m.m.m.M.B.K.N.i.p.A.).).A.O. .",
"l.s.s.g.m.m.M.m.N.m.m.m.m.m.m.n.m.m.x.g.g.s...{  . . . .{  . .{  . . . . . . . .{ ..f.f.f.g.m.M.m.m.m.m.m.J.T.I.m.i.i.b.b.O. .{ ",
"..i.g.M.M.m.m.m.m.m.m.m.M.m.m.m.m.m.m.x.m.f.i... . ... ..... ... . ... . . . . . .i.g.z.g.m.m.m.m.m.m.m.M.D.W.~.L.N.p...........",
"f.g.m.M.M.m.N.m.m.m.m.m.m.m.m.m.m.m.m.m.m.m.m.m.m.m.m.m.m.m.m.m.m.m.m.m.m.M.M.M.m.N.m.m.m.m.m.m.m.m.m.M.m.x.k.A.~.P.m.d.d.d.g.g.",
"x.m.m.m.M.m.m.m.m.m.m.m.m.m.m.m.m.m.m.m.m.m.N.m.m.m.m.m.m.m.m.m.m.m.m.m.m.m.M.M.m.m.m.m.m.m.m.m.m.m.m.M.m.f.i.b.(._.J.g.g.x.m.x."
};
