/* XPM */
static char *result[] = {
/* columns rows colors chars-per-pixel */
"64 64 226 2 ",
"   c #00380E",
".  c #013434",
"X  c #003A31",
"o  c #103435",
"O  c #004D12",
"+  c #006B00",
"@  c #007300",
"#  c #007C00",
"$  c #0E7D06",
"%  c #157D07",
"&  c #024C2E",
"*  c #005C2A",
"=  c #004538",
"-  c #174636",
";  c #025135",
":  c #234834",
">  c #324C3B",
",  c #295239",
"<  c #0F6E35",
"1  c #00783A",
"2  c #2D693C",
"3  c #26763D",
"4  c #2F3E4C",
"5  c #004644",
"6  c #004F4C",
"7  c #01574B",
"8  c #18544A",
"9  c #005B56",
"0  c #294A47",
"q  c #2A594A",
"w  c #335347",
"e  c #2C5C58",
"r  c #355656",
"t  c #006844",
"y  c #146347",
"u  c #007A47",
"i  c #00734C",
"p  c #036757",
"a  c #007056",
"s  c #007459",
"d  c #007A5A",
"f  c #157F55",
"g  c #2D6B4C",
"h  c #0C5D62",
"j  c #235F62",
"k  c #026865",
"l  c #1A6966",
"z  c #007C63",
"x  c #00776E",
"c  c #006A73",
"v  c #007A77",
"b  c #2D6C70",
"n  c #286C78",
"m  c #347C7B",
"M  c #417479",
"N  c #008500",
"B  c #008B01",
"V  c #00860D",
"C  c #008B0C",
"Z  c #009305",
"A  c #00960A",
"S  c #00990C",
"D  c #008D13",
"F  c #048815",
"G  c #168611",
"H  c #009C13",
"J  c #009519",
"K  c #009E1C",
"L  c #16931A",
"P  c #278916",
"I  c #00A20E",
"U  c #00A515",
"Y  c #00A817",
"T  c #00A31B",
"R  c #00A91B",
"E  c #00882A",
"W  c #009227",
"Q  c #009C24",
"!  c #00942D",
"~  c #009C2B",
"^  c #008B37",
"/  c #01813B",
"(  c #009433",
")  c #009B34",
"_  c #009339",
"`  c #009C3A",
"'  c #2D9823",
"]  c #369825",
"[  c #369A25",
"{  c #399E2A",
"}  c #2C833B",
"|  c #00A323",
" . c #00AD24",
".. c #00AB2A",
"X. c #1BAC2E",
"o. c #00B126",
"O. c #00B22B",
"+. c #00A636",
"@. c #00B632",
"#. c #01B936",
"$. c #0CB937",
"%. c #05BB38",
"&. c #14BB39",
"*. c #1BB83C",
"=. c #23AD2F",
"-. c #3CA12D",
";. c #25AE30",
":. c #2EAE32",
">. c #2FB134",
",. c #2DBC3B",
"<. c #3BB73B",
"1. c #409927",
"2. c #46AC35",
"3. c #41B138",
"4. c #4AB53C",
"5. c #53B63E",
"6. c #32C03F",
"7. c #008344",
"8. c #008B43",
"9. c #00854D",
"0. c #008D4C",
"q. c #158141",
"w. c #029843",
"e. c #00924C",
"r. c #008653",
"t. c #00825C",
"y. c #2F9455",
"u. c #12B140",
"i. c #33A944",
"p. c #008364",
"a. c #008966",
"s. c #00846D",
"d. c #05936F",
"f. c #018274",
"g. c #00847C",
"h. c #008C7C",
"j. c #009178",
"k. c #448A49",
"l. c #53A14C",
"z. c #4BBC41",
"x. c #56B640",
"c. c #55B942",
"v. c #5ABA43",
"b. c #4DAC58",
"n. c #4AB751",
"m. c #37C241",
"M. c #3CC242",
"N. c #43C444",
"B. c #4AC446",
"V. c #4CC549",
"C. c #4AC949",
"Z. c #53C649",
"A. c #55C74A",
"S. c #5DCA4D",
"D. c #5BD052",
"F. c #65C94E",
"G. c #64CD51",
"H. c #6ACF53",
"J. c #65D355",
"K. c #6AD456",
"L. c #74D157",
"P. c #007D82",
"I. c #008484",
"U. c #018987",
"Y. c #008A8B",
"T. c #168E8E",
"R. c #009183",
"E. c #00928D",
"W. c #009A8D",
"Q. c #008B91",
"!. c #009592",
"~. c #009A94",
"^. c #009498",
"/. c #009E9B",
"(. c #388D8E",
"). c #00A38E",
"_. c #00A294",
"`. c #00A39C",
"'. c #00AD9B",
"]. c #009DA1",
"[. c #00A4A3",
"{. c #00ACA4",
"}. c #0AA2AC",
"|. c #00ACAA",
" X c #00B2A4",
".X c #00B3AC",
"XX c #00BBAE",
"oX c #00B5B4",
"OX c #00BBB4",
"+X c #04B8B9",
"@X c #00BDB9",
"#X c #1AB1B3",
"$X c #2DA3A5",
"%X c #3AAFAB",
"&X c #26BAB6",
"*X c #519A9F",
"=X c #49A4A5",
"-X c #41BDBB",
";X c #00C2B5",
":X c #00C4BB",
">X c #00CCBA",
",X c #00C5C2",
"<X c #00CBC4",
"1X c #00CCCB",
"2X c #17CBC9",
"3X c #00D1C4",
"4X c #00D3CC",
"5X c #03D6D2",
"6X c #00DAD3",
"7X c #23CBCA",
"8X c #2ECECC",
"9X c #33D7D5",
"0X c #00E0D7",
"qX c #00E3DB",
"wX c #00ECE1",
"eX c #2FEBE6",
"rX c #57CFCB",
"tX c #5FD9D4",
"yX c #6BDFE3",
"uX c #4CECE8",
"iX c #53ECEA",
"pX c #68E9E7",
"aX c #7AEDEA",
"sX c #8BEAEA",
"dX c #95ECEC",
"fX c #A3F8F7",
/* pixels */
"U U U U U U U U U T U U U Y U Y Y Y U U U Y Y Y U U U o.N.i.O.Y Y Y Y Y Y U U U U U U U U U U Y Y R R U Y I U o.<.,. .o.,.<.O.R ",
"U U U U U T U U U Y U T U U U R  . .R U U R  .R Y U R #.C.<.o.Y R R Y Y U U U U U U T U U U U U  .o.O. .R I I  .:.;.|  .=.:. .T ",
"U U U U U U U U U U U U U U U  .%.%.o.U U o.&.#. . .@.Z.S.,. . .#.&. .I U U U U U U U U U U U  .@.N.N.#. .Y U H D D H U D D H U ",
"U U U U U U U T U U U U U U U O.B.C.o.S S O.N.C.@.O.M.J.K.N.@.@.C.B.o.Y U U U U U T U U U U U o.N.L.L.N.o.Y U S N N S S N N S H ",
"T U U U U U U U U U U U U I U O.B.B.o.I I o.N.S.Z.N.A.H.H.Z.N.V.S.N.o.U I U U U U U U U U I U O.N.L.L.N. .U I S A A S U A A H U ",
"U U U U U U U U U U U U U U U  .:.:. .U U | =.v.F.J.G.S.4.z.S.G.v.;.T U U U U U U U U U U U U  .@.N.N.@. .I U Y Y Y Y Y Y Y U U ",
"U U U U U T U U U U U U U U U H D D H Y Y H C ] v.J.J.4.' [ c.v.{ D S U Y U U U U U U U U U U R  . .O. .R U U U Y Y Y U Y Y Y U ",
"U U U U U U U U U U U U U Y Y S N N H Y Y Z N C { 5.x.] $ % { -.D N S Y Y U U U U U U U U U U U U U U U U U U U U U U U U U U U ",
"U U U U U U U U U U U T U Y Y U A A U U Y U A C C P P $ @ + % D C S U U Y U U U U U U U U U U U U I I U U U T U U U U U U U U U ",
"o. .U U U U U U U U U U U U U U Y Y U U U Y Y H N # @ # # # # N S Y Y U T U U U U T U U U U U U U U U U U U U U U T U Y U U U T ",
"6.%. .U U U U U U U U U U U U U R Y Y U U U Y U A Z Z A A A A S U Y Y U U U U U U U U U U U U U U U T Y U U U Y U U U T T U U U ",
",.%. .U U U U U T Y U U U U U U U U U U U U U Y Y U Y Y U Y Y U U U U U U U U U U Y T U U U U U U U U U U U U U U U U U Y U U U ",
"O.o.R U U U U U U U U U U U U T U U U U T U U Y Y R Y Y Y Y R ~ ^ u 7._ Q U U U U U U U U U U U U T U U U U T U U U U U U U U U ",
"U U U U U U U I U U U U U U U U U U T U U U U U U U U U U U | ( u u u _ W U U U U U U U U U U U U U U U U U U U U U U U U U U U ",
"U I U U U U U U U U U U U T U U U U T U U U U U T U U U U Q ) 9.i p d 0.~ U I Y T U U U U U U U U U U U U U U U U U U U U U U T ",
"U U U U U Y R  .R U U U U U U U U U Y U U U U U U U U U T ! 0.a.p.z p.0.+. .| ~ ` ) | Y  . .Y U U T U U U U T U U U U U U U U U ",
"U U U I I o.#.&.o.U I Y U U U U U U T Y U U U U U U U T ! 7.d.).).R.z 0.u.u.w.9.q.9.~ O.$.$. .U U U U U Y U U U U U U U U U U U ",
"U U U Y o.%.Z.6. .Y R O.R U U U U U U U U U U U U U | W u p._.XX XR.f 0.n.n.y.s.v t.^ +.C.B.O.U I U U U T U U U U U U R o.o.R U ",
"U I U  .%.A.F.6. . .#.&.o.I U U U U U U U U U T U K ! / t.W.XXXX~.f.d 0.n.b.d.~./.R.0.e.N.C.O.U I U U U U U U U U U U  .&.&.o.Y ",
"U U U R :.v.F.C.%.O.<.>. .U I U U U U U T U U U T ! 9.a._.OXOX~.x i 9.e.y.y.j.{.@X[.s.r.:.:. .U U Y T U U U U T U U I  .>.3.O.o.",
"U U U H D 1.v.D.C.<.[ D H U Y U U T U U Y U U | ! 7.p.`.9X9XoXg.9 t ` ( } u d. X,X|.f.s D D H U Y U U U U U U U Y Y Y S D ] <.<.",
"Y Y Y S N C { 5.v.1.V N A Y Y U U U U U U U U Q / i f.XXeXuX@XP.p u ` J 1 u p.~.|./.f.s N N S U Y U T U U U Y U U Y Y Z N F 4.F.",
"U Y Y I Z C C P P F A Z U U Y U U U U U U U U ! 1 p a.;XwXuX9X[.f.t.w.| J ^ d f.R.I.a.r.A A U Y Y U U U U U U U U Y U S Z K N.S.",
"U U Y Y Y H N @ @ N H Y Y U U U U U U U U U T _ i p j.XXqXiXaXrX`.s.9._ ..) e.z z p.e.w.Y U U U U U U U U T U U U U U U U  .=.3.",
"U U U Y Y U S Z B S U Y Y U U U U U U U U T ~ 8.z h._.OX1XpXfXsX&XI.9 t _ ` ` 0.9.9.` | R R U U U Y U U U U Y T U U U Y Y U D F ",
"U U U U U Y U Y U U U U U U U U U T Y U U T ( 9.R..X,X2X9XyXdXsX8XY.5 . 7 _ ~ ~ _ ( | R U U U U U T U U U U U U U U U Y Y H N # ",
"U U U U U Y Y Y Y U U U U U Y Y U T U U U Q 1 i W.rXdXdXyX9X7X7X,X].9 . . 1 ~ U | | T U U U U U U U U U U U U U U U U R U U S Z ",
"U U U U U U U Y o.o.Y U U U U I U U U U Q ! 1 a _.tXfXfXiX,X|..X@X+XY.9 . ; E | U U U U U U U T U U U T U U U U U U U U U U U R ",
"U T U U U U U  .&.&.o.U U U I U U U U U _ 8.d h.{.4XuXeX4X.X!.~.oX,X+XT.h 6 u ! T U U U U U T U U T U U U T Y U U U U U U U Y Y ",
"U U U U U U U o.&.&.o.I I Y  .o.R U U U 9.t.j.{.;X,X<X,X@X|./.^.{.<X5X,XT.p y 1 Q U U U U U U U U U U U U U U U U Y T U U U U U ",
"U U U U U U U R  .o.R I I o.*.&.o.U I U d s. X<X4X;X X`.`.{.{.[.{.:X0X6X'.k = * W Y U U U U U U U Y U U U U T U U U U U U U U U ",
"U U U T U U U U U U U I Y o.*.&.o.U U U p x &X6X6X;X~.g.I.!.[.|.|.OX3X<X`.k . & E T U Y T U U U U T U U U U U U U U U U T U U U ",
"U U U U U U U U U U U U U Y  . .R U U U p x %X9XqX:X!.x c v Q.[..XOXXX XR.k 7 8 / Q U U U U U U U U U U U U U U U U U U U U U U ",
"U U I U U U U U U U U U U U U U U U U U 6 k (.7X6X:X^.v k c P.].OXoX`.E.U.I.v g g E Q U U U U U U U U U U U U U U U U U U U U U ",
"U U U U U U U U U U U U U U U U U U U U = 6 U.OX<X:X[.P.c c P.[.OX XE.U.].}.$Xm 0 * J K U U U U U U U U U U U U U U U U U U U U ",
"U Y  . .Y U U U U U U U U U U U U U U U X 5 v  X:XOX|.^.Q.Q.^.[.oX[.E.~.+X5X-Xy.o   $ H U U T U U U  . .Y U U Y  .o.Y U U U U U ",
"Y  .$.&.o.U U U U U U U U U U U U U U U X 5 x '.;XXX X`.[.|.|.|.|./.~.{.5XqX8XP..   $ H U U U U U  .%.&. .I S o.&.&.o.U U U U U ",
"o.%.C.B.O.U I U U U U U U U U U U U U U X 5 g. X>X>X.X{.|.oX|.]./.~.`.@XqXwX#XM & O F H U U U U U O.N.N.o.U  .O.3.:. .U U U U U ",
"M.Z.G.N.o.U U U U U U U U U U U U U U U ; 6 f.{.3X3X;X.X{.{.^.!.E.!.{.<XqX4X].l ; * J U U U U I U O.B.M.o. .#.<.] D H U Y U U U ",
"H.F.c.=.T U U U U T U U U U U U U U U U t y k E.OX<X<XOX{.`.!.!.~.{.,X4X1X|.c j 1 E K U U U U I I O.N.m.O.O.M.c.L N A Y Y U U U ",
"F.v.] C H U Y U U U Y U U T U U U U U U ( q.q j Y.+X1X,X.X`.`.{..X>X4X1X}.n 0 < ^ Q U U U U U U U O.N.m.O.O.N.N.| Z S U Y U U U ",
"2.{ C N A U Y U U U U U U U U Y  . .R U | ( 3 w j Y.oX1X,X+X@X:X4X6X1X].n 0 0 1 ~ U U U U U U U U  .:.;.T  .=.>. .U U U Y U U U ",
"G C C S U Y U U U T U U U U U o.&.&.o.U U T ( 3 q h P.&X7X,X,X1X5X1X$Xn 4 > } ~ T U U U U U U U U H D D H H D D H Y Y U U U U U ",
"# N S R U U U U U U U U U U U  .&.*.o.I I I T ) g r b y.*X=X=X=X=X*XM r , 3 ~ U U T U U U U U Y Y S N N S S N N S Y Y U U U U U ",
"A S U R Y U U U U U T U U U U R o. .Y U U I U  .i.k.g w r e e e r r w 2 / ~ T U U U U U U U U U U H Z S U H A A U Y Y U U U U U ",
"Y U U U U U U U U U Y U U U U U U U U Y  .R R O.N.l.2 : - - - - - > , 3 ! Q U U U U U U U U U U U Y Y Y Y U Y Y U U U U U U T U ",
"Y Y Y U U U U U U U U U U U U U I I U o.&.@. .O.N.B.| Z S U R U T U T U U U U U U U T U U U U U U Y Y Y U Y Y Y U U T U U U Y U ",
"U U U T U U U U U U U U U U U U U I U o.B.B.O.| =.:. .U U U U U T U U U U U U U U U U U U R  . .Y U U U U U U U U U U U U U U U ",
"U U U U U U U U U U U U U Y U U U I U o.V.B.O.H C D H Y Y U U U U U U U U U U U U U U I U o.%.%. .U U U U U U U U U U U U U U U ",
"U U U U U U U U U U U U U T U U U U U  .%.%.o.Z N N S Y Y U U U U U U U U U U U U U U U U o.B.C.O.U I U U U U U U U U U U U U U ",
"U U U U U U U U U U U U U T U U U U U R  .o.Y I Z A H Y Y U U U U U U U U U U U U U U I U O.B.B.O.U I Y U U U U U U U U U U U U ",
"U U U U U U U U Y U T U U U U U U U U U U U U Y Y Y Y U Y T U U U U U R o. .Y I U U U I U  .:.:.R U U U U U U U U U U U U U R  .",
"U U U U U U U U U U U U U U U U U U U U U U U Y Y Y Y Y U U U U U U U o.&.&.o.U U U U Y Y H D D H Y Y U U U U U I Y Y I U  .#.,.",
"U U  . .Y U U U U U U U U U U U U U U U U U U U U U T U U U U U U U U R >.3.o. .Y U U Y U H N N S Y Y U U U U Y o. .Y I Y @.B.A.",
"U  .$.&.o.U U U U U U U U U U U U U U U U U U U U U U U U U U T U Y U S D [ <.%.o.U U U Y H A A U U U U U U U o.&.#.o.R @.B.S.G.",
"O.%.Z.N.O.U I U U U U U U R o. .R U U U U U U Y U U U U U U U U U Y Y A N L 5.C.O.U I U U U Y Y U U U U U U U o.B.B.#.#.i.H.J.G.",
"N.V.G.B.o.U I U U U U U U o.&.&.o.I U U U U U T U U U U U U U T U Y Y S Z | N.V.O.U I U U U Y Y Y U U U U I U O.N.S.V.N.A.F.F.D.",
"H.F.x.;.R U U U U U U U U  .&.&. .U I U U U U U U T U U U U U U U U U U Y  .:.:. .U U U U U U U U U U U U I U T X.5.F.K.G.S.5.4.",
"F.c.] C S U Y U U T U U U R  . . .U U U U U U U U U U U U T U U U U U Y Y H D C H U Y U U U U U U U U U U U U A A ] v.K.K.4.' P ",
"2.{ V N A R Y U U U U U U U U U U U U U U U U U U U U U U Y U U U U U Y Y S N N H Y Y U U U U U U U U U Y R o.T N V { 5.5.{ G @ ",
"G C C S U U U U U U Y U U U I U U U U U U U U Y U U U U T Y U U U U U Y Y U A A H Y Y U U U U U U U U U I o.&.%.T B N P P G + + ",
"# N S Y R U U U U U U T U U U U T U U U U U U T T Y U U U U U U U U U U U Y U U Y U U U U U U T U U U U U  .>.<.@.T N # # # N # ",
"A A U Y Y U U U U U U U U U U U Y U U U U U U U U U U U U U U T U U U U U U Y Y Y U U U U T U U U U U Y Y H D [ <.@.U Z B A A A ",
"H U U Y Y U U U U T U U U U U U U U U U U T U U U U T U U U U U U U U U U U Y Y U U U U U Y U U U U U Y Y A N ' 5.i.o.I S H H U "
};
