/* XPM */
static char *result[] = {
/* columns rows colors chars-per-pixel */
"64 64 220 2 ",
"   c #191E01",
".  c #251E03",
"X  c #3C1F09",
"o  c #042202",
"O  c #002D02",
"+  c #0B2C02",
"@  c #152C04",
"#  c #1E2C06",
"$  c #013105",
"%  c #053705",
"&  c #023309",
"*  c #0D380E",
"=  c #153006",
"-  c #1B3107",
";  c #1C3109",
":  c #1C3C08",
">  c #003C12",
",  c #1B3F19",
"<  c #232704",
"1  c #332506",
"2  c #3C2C0E",
"3  c #263607",
"4  c #243109",
"5  c #2C330C",
"6  c #2D3A0D",
"7  c #303305",
"8  c #35330E",
"9  c #3A330F",
"0  c #3C2C10",
"q  c #2C3B15",
"w  c #3D3411",
"e  c #333C14",
"r  c #3D3C13",
"t  c #441A0A",
"y  c #42260D",
"u  c #422B0F",
"i  c #42320F",
"p  c #432B11",
"a  c #4C2C13",
"s  c #5D2714",
"d  c #572D16",
"f  c #5A2B15",
"g  c #5C2D18",
"h  c #443412",
"j  c #4B3314",
"k  c #433A13",
"l  c #4A3B15",
"z  c #4B3819",
"x  c #533416",
"c  c #5A3316",
"v  c #523618",
"b  c #5D3419",
"n  c #543B1A",
"m  c #5C391A",
"M  c #612514",
"N  c #662A16",
"B  c #632D18",
"V  c #6D2E1A",
"C  c #613116",
"Z  c #64351B",
"A  c #6C341C",
"S  c #633A1C",
"D  c #6D3C1F",
"F  c #72341E",
"G  c #713B1F",
"H  c #633E22",
"J  c #6E3C20",
"K  c #753620",
"L  c #733D21",
"P  c #793923",
"I  c #014401",
"U  c #024C01",
"Y  c #034B08",
"T  c #0C4D0B",
"R  c #154400",
"E  c #194706",
"W  c #19440B",
"Q  c #124B0B",
"!  c #1C4C0E",
"~  c #005502",
"^  c #005D01",
"/  c #02550D",
"(  c #0A5309",
")  c #015C0C",
"_  c #17540A",
"`  c #135713",
"'  c #175C12",
"]  c #23440D",
"[  c #2A420E",
"{  c #244D0F",
"}  c #2D520D",
"|  c #264410",
" . c #2C4310",
".. c #244C10",
"X. c #2D4D12",
"o. c #364413",
"O. c #3C4412",
"+. c #374D14",
"@. c #3C4C14",
"#. c #2D5112",
"$. c #255813",
"%. c #345114",
"&. c #3B5416",
"*. c #3A591A",
"=. c #006201",
"-. c #006C00",
";. c #00630C",
":. c #006A0D",
">. c #007200",
",. c #007B00",
"<. c #00730E",
"1. c #007B0E",
"2. c #0F7F08",
"3. c #006512",
"4. c #006C11",
"5. c #146F10",
"6. c #007312",
"7. c #027919",
"8. c #306718",
"9. c #0E4F25",
"0. c #134C23",
"q. c #1B4D25",
"w. c #1A532B",
"e. c #264C26",
"r. c #2C7723",
"t. c #347924",
"y. c #454216",
"u. c #4B4317",
"i. c #424B15",
"p. c #4A461B",
"a. c #4D4D19",
"s. c #53441B",
"d. c #54461A",
"f. c #5C441C",
"g. c #425116",
"h. c #46531A",
"j. c #4A521B",
"k. c #43591C",
"l. c #67431E",
"z. c #464C28",
"x. c #4B5422",
"c. c #5C5A25",
"v. c #684322",
"b. c #744225",
"n. c #7E4227",
"m. c #625825",
"M. c #426A27",
"N. c #47764F",
"B. c #4A7851",
"V. c #547851",
"C. c #853C28",
"Z. c #88402A",
"A. c #008501",
"S. c #008B03",
"D. c #00830C",
"F. c #008B0D",
"G. c #009305",
"H. c #00960A",
"J. c #00990C",
"K. c #008511",
"L. c #008C12",
"P. c #068D18",
"I. c #168611",
"U. c #009413",
"Y. c #009C12",
"T. c #00961D",
"R. c #16931A",
"E. c #288917",
"W. c #00A20E",
"Q. c #00A515",
"!. c #00A817",
"~. c #00A51C",
"^. c #00A91B",
"/. c #009524",
"(. c #338829",
"). c #2D9727",
"_. c #359825",
"`. c #389F2B",
"'. c #00A223",
"]. c #00AD24",
"[. c #1BAC2E",
"{. c #00B027",
"}. c #00B22A",
"|. c #00B632",
" X c #01B936",
".X c #0CB937",
"XX c #04BB38",
"oX c #14BB39",
"OX c #23AD2F",
"+X c #25AE30",
"@X c #2EAE32",
"#X c #2FB134",
"$X c #2DBC3B",
"%X c #3CB136",
"&X c #3ABA3C",
"*X c #478B2D",
"=X c #44AA38",
"-X c #47B43B",
";X c #53B63E",
":X c #32C03F",
">X c #4BBC41",
",X c #56B640",
"<X c #55B942",
"1X c #5ABA43",
"2X c #37C241",
"3X c #3CC242",
"4X c #43C444",
"5X c #4AC546",
"6X c #4EC648",
"7X c #4BCA4A",
"8X c #53C649",
"9X c #55C74A",
"0X c #5DCA4D",
"qX c #5BD052",
"wX c #65C94E",
"eX c #64CD51",
"rX c #6ACF53",
"tX c #65D355",
"yX c #6AD356",
"uX c #74D157",
/* pixels */
"Q.Q.Q.Q.Q.Q.Q.Q.Q.Q.Q.Q.Q.Q.Q.^.^.!.Q.Q.Q.^.^.Q.Q.W.Q.}.4X3X].Q.Q.^.!.!.Q.Q.Q.Q.Q.Q.Q.Q.Q.Q.Q.Q.!.^.^.Q.!.W.Q.{.&X$X].].$X&X{.^.",
"Q.Q.Q.Q.~.Q.Q.Q.Q.~.Q.Q.Q.Q.Q.^.].].^.Q.Q.^.].].!.Q.^. X6X:X].Q.^.].^.W.Q.Q.Q.Q.Q.Q.^.Q.Q.Q.Q.^.].{.{.].^.W.W.].@XOX].'.OX@X].Q.",
"Q.Q.Q.Q.Q.Q.Q.Q.Q.^.Q.Q.Q.Q.Q.]. XXX].W.W.].oX X].]. X8X0X$X].'.|.oX{.Q.Q.Q.Q.Q.Q.~.Q.Q.Q.Q.Q.]. X4X4X X].Q.Q.Y.L.L.Y.Q.L.L.Y.~.",
"~.Q.Q.Q.Q.Q.Q.Q.Q.Q.Q.Q.Q.Q.Q.}.7X5X}.W.W.{.5X5X X}.3XrXyX4X|. X5X5X}.Q.Q.Q.Q.Q.Q.Q.Q.Q.Q.Q.Q.{.4XuXuX4X{.Q.Q.J.A.S.J.J.S.A.J.Y.",
"Q.Q.Q.Q.Q.Q.Q.~.Q.Q.Q.Q.Q.W.Q.}.5X5X}.W.W.{.4XwX6X4X9XeXeX8X4X6XqX4X{.Q.W.Q.Q.Q.Q.Q.Q.Q.Q.W.Q.{.4XuXuX4X].Q.W.W.H.H.Q.W.H.H.Q.Q.",
"Q.Q.Q.Q.Q.Q.Q.Q.Q.Q.Q.Q.Q.Q.Q.^.@X@X].Q.Q.^.+X;XwXtXtX8X>X<X0XwX1X+X~.Q.Q.Q.Q.Q.Q.Q.Q.~.Q.Q.Q.].|.4X5X|.].W.Q.Q.!.Q.Q.!.Q.^.Q.Q.",
"Q.Q.Q.Q.Q.Q.Q.Q.Q.Q.Q.Q.Q.!.!.Y.L.L.Y.!.!.Y.D.r.k.z.s.p.w w z.u.k 8 5 6 [ ) L.Q.Q.Q.Q.!.Q.Q.Q.^.].].{.].^.Q.Q.!.!.!.!.Q.Q.!.Q.Q.",
"Q.Q.Q.Q.Q.~.Q.Q.Q.Q.Q.Q.Q.^.!.J.A.A.J.!.^.G.>._ r v d a 2 y a d p y p 0 w { 6.U.Q.Q.Q.Q.Q.Q.Q.Q.Q.Q.Q.Q.Q.Q.Q.Q.Q.Q.Q.Q.Q.Q.Q.Q.",
"Q.Q.Q.Q.Q.Q.Q.Q.Q.Q.Q.Q.Q.^.!.Q.H.H.Q.!.!.F.) 5 y s N N M M N N B B b Z b k ..<.U.Q.Q.Q.Q.~.Q.Q.Q.W.Q.Q.Q.Q.Q.Q.Q.Q.Q.Q.~.Q.Q.Q.",
"{.].^.Q.Q.Q.Q.Q.~.Q.~.Q.Q.Q.Q.Q.!.!.Q.Y.U.:.| p M N V V F V N C Z S S Z b c h ..6.Y.Q.Q.Q.Q.Q.Q.Q.Q.Q.~.Q.~.Q.Q.Q.Q.Q.Q.Q.Q.Q.Q.",
":XXX].W.Q.Q.Q.Q.Q.Q.Q.Q.Q.Q.Q.Q.!.!.Q.L.;.[ h c A A F G F Z j p w k k k h x c l ..<.U.Q.Q.Q.~.Q.Q.Q.Q.Q.Q.Q.Q.Q.Q.Q.Q.Q.Q.Q.Q.~.",
":X.X].Q.Q.Q.Q.Q.Q.Q.Q.Q.Q.Q.Q.Q.Q.Y.L.:.[ h g D D b.b.D S j 5 ; # # ; ; ; 8 n c j { 7.U.Q.Q.Q.Q.Q.Q.Q.Q.Q.Q.Q.Q.Q.Q.Q.Q.Q.Q.Q.Q.",
"{.].^.Q.Q.Q.Q.Q.Q.Q.Q.Q.Q.Q.Q.Q.Q.L.;. .j b A l.D b.D S j 5 % O O O O O O - w j c l { :.U.Q.Q.Q.Q.Q.Q.Q.Q.Q.Q.Q.Q.Q.Q.Q.^.Q.Q.Q.",
"Q.Q.Q.Q.Q.Q.W.Q.Q.Q.Q.Q.Q.Q.Q.Q.Q.D.T 0 d S G G G D S h 5 % O O O O O O O O = 8 v v k ..<.U.Y.Q.Q.Q.Q.Q.Q.Q.Q.~.~.Q.Q.Q.Q.Q.Q.Q.",
"Q.Q.Q.Q.Q.Q.Q.Q.Q.Q.Q.Q.Q.Q.~.Q.Q.D.Q u d S D G l.m h 7 + O O O O O O O O O O - 8 x c l ..:.U.Q.~.Q.Q.Q.Q.Q.Q.Q.Q.Q.Q.Q.Q.Q.Q.Q.",
"Q.Q.Q.Q.Q.Q.].].^.Q.W.Q.Q.Q.Q.~.L.:.[ u c S G G G m 9 = O O O O O O O O $ $ O O 4 h m c k ' L.Q.Q.Q.Q.Q.Q.~.Q.Q.Q.Q.Q.Q.Q.Q.Q.Q.",
"Q.Q.Q.W.W.{. XoX{.Q.W.!.Q.Q.Q.L.;.] k x b Z S G D m 8 = O O O O O O O $ & & $ O # h Z Z z *.T.Q.Q.Q.Q.Q.Q.Q.Q.Q.Q.Q.Q.Q.Q.Q.Q.Q.",
"Q.Q.Q.^.{.XX6X:X].!.^.}.^.J.L.:.[ h c b S S S D D m w = O O O O O O O $ * * $ O # k m H z.M./.Q.Q.Q.Q.Q.Q.Q.Q.Q.Q.Q.Q.^.{.{.^.Q.",
"Q.Q.W.].XX9XwX:X{.]. XoX'.F.;.[ j c b S m S S S H m w - O O O O O O O $ * * $ O 4 h m S s.M./.!.Q.Q.Q.Q.Q.^.Q.~.Q.Q.Q.{.oXoX{.!.",
"Q.W.Q.^.#X1XwX7XXX|.%X#XT.1.W u g Z Z v x x m S S c w = O > 0.0.> O O O & , e.e.e h c Z z *.L.Q.Q.Q.Q.Q.Q.Q.Q.Q.~.Q.Q.^.#X-X}.].",
"Q.!.Q.Y.H.*X8XqX8X%X_.L.D.1.W y g S m j i i v S D m 8 = $ w.B.N.0.O O o O e.V.V.z.h c g 2 { K.Q.Q.Q.Q.Q.Q.Q.Q.Q.Q.!.!.J.L._.%X&X",
"Q.!.!.G.A.D.`.;X;X`.F.A.F.L.;.o.j g d p 8 9 x S S m 8 + $ w.B.B.0.O O O o e.B.V.*.p x c 2 W D.!.!.Q.Q.Q.Q.Q.Q.Q.Q.!.!.G.A.P.-X0X",
"Q.!.Q.Q.J.G.F.E.E.P.G.J.J.Y.F.;.[ 2 2 2 5 9 l S D c w @ $ > 9.0.> O O O O > q.e.q h c j 8 Y K.Q.!.Q.Q.Q.Q.Q.~.Q.Q.!.!.J.G.'.4X0X",
"Q.Q.Q.!.^.J.A.>.>.S.J.^.^.Q.Q.P.;.T Q E 5 u c S S b k 5 & O O O O O O O O O O O ; w j d w ( L.Q.Q.Q.Q.Q.Q.Q.Q.Q.Q.Q.!.W.!.].+X=X",
"Q.Q.Q.^.!.Q.J.G.S.J.Q.!.!.Q.Q.Q.L.K.D.:.] u g S Z S m h 5 O O O O O O O O $ O O # w x j 8 / L.~.Q.Q.~.Q.Q.Q.Q.^.Q.Q.Q.!.!.Q.L.P.",
"Q.Q.Q.Q.Q.!.Q.!.Q.W.Q.Q.Q.Q.Q.Q.Q.Q.Q.L.;.[ j d b S l.S j 4 O O O O O O O O O = 8 h d w { 4.U.Q.Q.Q.Q.Q.Q.Q.Q.Q.Q.Q.Q.^.!.J.A.,.",
"Q.Q.Q.Q.Q.!.!.!.!.!.Q.Q.Q.Q.Q.Q.Q.Q.Q.Y.L.;.[ u c D b.b.n w 4 + O O O O O O = 5 h j h ! <.U.Y.Q.Q.Q.Q.Q.Q.~.Q.Q.Q.Q.Q.^.Q.W.J.G.",
"Q.Q.Q.Q.Q.Q.Q.^.{.{.^.Q.Q.Q.Q.W.Q.Q.Q.Q.Q.L.:.] w v H v.H v w 5 + O O O O = 5 h h r _ <.U.Q.Q.Q.Q.Q.Q.Q.Q.Q.Q.Q.Q.Q.Q.Q.Q.!.Q.^.",
"Q.Q.Q.Q.Q.Q.W.{.oXoX{.Q.Q.Q.!.Q.Q.Q.Q.Q.Q.Q.U.:.] w v n H c v k e q ; = - 5 h j 9 _ 1.U.Q.Q.Q.Q.~.Q.Q.Q.Q.~.Q.Q.Q.Q.Q.Q.Q.!.^.!.",
"Q.Q.~.Q.Q.Q.Q.{.oXoX{.W.W.!.].].^.Q.Q.Q.Q.Q.F.:.] w h n n m m m m s.l w w j c x w ( <.Y.~.Q.Q.Q.Q.Q.Q.Q.Q.Q.Q.Q.Q.~.Q.Q.Q.Q.Q.Q.",
"~.Q.Q.Q.Q.Q.Q.^.{.{.^.W.W.{.oXoX{.Q.Q.Q.Q.L.:.! k j v n c m S L b.b.S m m S D S v e / <.U.Q.Q.Q.Q.Q.^.Q.Q.Q.~.Q.Q.Q.Q.Q.Q.Q.Q.Q.",
"Q.Q.Q.Q.Q.Q.Q.Q.Q.W.Q.W.!.{.oXoX].Q.W.Y.L.:.[ j g S S b S S D L n.n.b.G D D J J S v 9 ! 7.P.~.Q.Q.Q.Q.Q.Q.Q.Q.Q.Q.Q.Q.Q.Q.Q.Q.Q.",
"Q.Q.Q.Q.Q.Q.Q.Q.Q.Q.Q.Q.Q.^.{.].Q.Q.Q.L.;. .j Z A D D D S D D b.b.b.L G G b.D D D Z x w { :.T.Q.Q.Q.Q.~.Q.Q.Q.Q.Q.Q.Q.Q.Q.Q.Q.Q.",
"Q.Q.Q.W.Q.Q.Q.Q.Q.Q.Q.Q.Q.Q.Q.Q.Q.Q.Q.1.T 0 s A D G D L G D D D D D D D D D D D D D b j 5 / L.Q.Q.Q.J.Q.Q.Q.Q.Q.W.Q.Q.Q.Q.Q.^.Q.",
"Q.Q.Q.Q.Q.Q.Q.Q.Q.Q.Q.Q.Q.Q.Q.Q.Q.Q.Q.1.W p s Z D G G l.D G D D D D D D D D D G J D b a 8 ( P.Q.Q.Q.Q.Q.Q.Q.Q.Q.Q.Q.Q.Q.Q.Q.Q.Q.",
"Q.!.].].^.Q.Q.Q.Q.Q.Q.Q.Q.Q.Q.Q.Q.Q.Q.K.! e +.@.f.G G D D D D J D D D D D D D D D D S j 5 ) L.Q.Q.^.].].^.Q.W.^.{.{.^.Q.Q.Q.Q.Q.",
"!.]..XoX{.Q.Q.Q.Q.Q.Q.Q.Q.Q.Q.Q.Q.Q.Q.K...#.:.6.a.G G G D D J D D G D D D J D D D L S c 8 / L.Q.Q.].XXoX{.W.W.].oXoX{.Q.Q.Q.Q.Q.",
"{. X7X5X}.Q.W.Q.Q.Q.Q.Q.Q.Q.Q.Q.Q.Y.L.3.+.%.6.7.a.D K D D D D D D v.G D D D D J G L K Z 8 / L.W.Q.{.4X3X{.Q.].}.-X@X^.Q.Q.Q.Q.Q.",
"4X6XwX4X{.Q.Q.Q.Q.Q.Q.Q.Q.Q.Q.Q.Q.F.;. .j d.g.j.f.G G D D D D D D D D G G v.D D D L G b e / L.Q.W.}.4X4X{.{. X-X_.L.Y.Q.^.Q.Q.Q.",
"tXwX<XOX~.Q.Q.Q.Q.Q.~.Q.Q.Q.Q.Y.F.:.e a b Z D F P F D D D D L D D D S D D G D G D f.i.@.[ ' L.W.!.{.5X:X{.}.3X<XR.A.G.!.!.Q.Q.Q.",
"wX1X_.F.Y.!.!.Q.Q.Q.Q.Q.Q.Q.Q.L.;.[ j g b S K K P G G D D D D D D S S S D L G G S &.6.6...$.L.Q.Q.}.4X2X}.{.4X5X'.G.J.!.!.Q.Q.Q.",
"=X`.D.A.G.!.!.Q.Q.Q.Q.~.~.Y.L.4.o.k p.i.n Z S f.g.j.l.b.L D D D D D Z D F F G G S *.6.6.%.@.4.U.Q.'.@XOX].^.OX@X].!.Q.Q.Q.Q.!.Q.",
"I.F.S.J.Q.!.Q.Q.Q.Q.Q.Q.Y.D.;.o.n j.5.4.@.A D %.1.7.m.C.P G D L D S m Z D G G D D d.g.g.u.l { 4.U.Y.L.U.Y.Y.L.L.Q.!.!.Q.Q.Q.Q.Q.",
",.S.Y.^.!.Q.Q.Q.~.Q.Q.Q.L.1.W w x.(.'.K.} Z D *.7.t.m.C.P G G F D Z c u.g.h.l.G D K F F m k Q :.K.D.A.A.J.Y.S.A.H.Q.!.Q.Q.Q.Q.Q.",
"G.J.Q.^.Q.Q.Q.Q.Q.~.Q.Q.U.<.Q [ 7.'.^.K.%.A A f.c.m.l.F G G K A Z c w ! 6.7.j.G K G F V v +.6.<.;.) H.J.W.Y.J.H.Y.^.Q.Q.Q.Q.Q.Q.",
"!.!.Q.Q.Q.Q.Q.Q.Q.Q.Q.Q.U.L.;.;.6.K.K.4.a.A A n.Z.C.F A Z f.j.h.u.k ! 4.1.4.d.F K s.&.@.y.+.4.;.Y W ^.Q.!.Q.Q.!.!.Q.Q.Q.Q.Q.~.Q.",
"!.!.^.Q.Q.Q.Q.Q.Q.Q.Q.Q.Q.Y.L.1.' #.&.a.v.J D L Z.C.G C m &.6.6.%.%.:.D.4.i.m A Z &.6.6.%.l i. .3 : !.!.!.!.!.!.!.Q.Q.^.Q.Q.Q.Q.",
"Q.Q.Q.Q.~.Q.Q.Q.Q.Q.Q.Q.Y.Y.L.<.' @.z f.c.m.s.s.f.m.l.V S *.6.4.X.{ :.<.X.l @.g.d.&.4.4.+.f.d.O.6 ] Q.Q.Q.Q.Q.Q.Q.Q.Q.~.Q.Q.Q.Q.",
"Q.Q.Q.Q.Q.Q.Q.Q.Q.Q.Q.Q.Y.L.4.;.<.;.i.x.*X*Xk.@.$.8.a.V S u.&.X.e : I Y 6 { :.<.&.n i.@.y.z.t.r...W Q.Q.Q.Q.Q.^.Q.Q.Q.Q.Q.Q.Q.Q.",
"Q.Q.Q.Q.Q.^.Q.Q.Q.Q.Q.Q.U.K.;.) <.;.+.g.r.t.*.o.( =.$.a.m c x O.! Y $ o # T <.<.g.u.i.y.r %.>X%X7.;.Q.Q.Q.Q.Q.Q.Q.Q.Q.Q.Q.Q.Q.Q.",
"Q.Q.Q.Q.Q.Q.Q.Q.Q.Q.Q.Q.Y.U.K.<.) [ l y.o.X.l l o.;.A.6.i.d p ! <.:.% o # 6 %.@.u.%.4.;.! $.=X5X'.F.Q.Q.Q.Q.Q.Q.Q.Q.Q.Q.Q.Q.Q.W.",
"Q.Q.Q.Q.Q.Q.Q.Q.Q.Q.~.Q.Q.Q.Q.L.;.[ h w  .| k v @.3.<.:.o.a 2 Y <.<.) Y ` o.l f j #.<.<.) 3.r.).~.Q.Q.Q.Q.Q.Q.!.Q.Q.Q.Q.Q.Q.].].",
"Q.Q.Q.Q.Q.Q.Q.Q.Q.Q.Q.Q.Q.Q.Q.Y.D.;.[ ] ;.) 7 7 ] ( R < 1 1 X @ $ I ~ ^ ^ ] 7 t X 7 R ) <.:._ _ K.Q.!.Q.Q.Q.Q.W.Q.Q.Q.W.W.]. X$X",
"Q.Q.].].^.Q.Q.Q.Q.Q.Q.Q.Q.Q.Q.Q.Q.K.) ;.,.,.( U =.=.R 3 3 < <   + U =.>.>.=.R < . < : ^ 1.,.~ ~ 1.Q.!.Q.Q.Q.Q.^.].].Q.Q.^.|.5X9X",
"Q.]..XoX{.Q.W.Q.Q.Q.Q.Q.Q.Q.Q.Q.Q.U.,.>.,.>.=.=.-.-.=.~ ~ I + + I =.>.>.>.-.=.I + + U -.,.A.D.F.U.Q.!.Q.Q.W.Q.{.oX X].^.|.5XqXwX",
"}.XX7X5X{.Q.W.!.Q.Q.Q.Q.Q.^.{.].Y.S.>.>.>.>.>.>.>.>.>.>.>.~ I I =.>.>.>.-.-.^ U % I =.-.-.,.S.J.Q.Q.Q.Q.Q.Q.Q.}.4X5X X|.>XeXtXeX",
"4X8XeX4X{.Q.Q.Q.Q.Q.Q.Q.Q.{.oXoX,.,.>.>.>.>.>.>.>.>.>.>.>.-.=.=.-.>.>.>.-.^ I I U =.-.-.>.>.>.S.Y.Q.Q.Q.Q.W.Q.}.4X0X8X4X9XeXeXwX",
"eXwX,X+X~.W.Q.Q.Q.Q.Q.Q.Q.].oXoXA.,.>.>.-.>.>.>.-.>.>.>.>.>.>.>.>.>.>.>.>.~ I I =.>.-.>.>.>.,.S.Y.Q.Q.Q.Q.W.Q.~.[.1XwXtXtX9X>X-X",
"wX1X_.F.Y.Q.!.Q.Q.Q.~.Q.!.!.].{.U.S.,.>.>.>.>.>.>.>.>.>.>.>.>.>.>.>.>.>.>.=.~ =.-.>.-.-.-.,.S.Y.Q.Q.Q.Q.Q.!.Q.J.F._.1XyXyX>X_.R.",
"=X`.F.A.H.!.!.Q.Q.Q.Q.Q.Q.W.Q.Q.Q.Y.S.,.,.,.>.>.>.>.>.>.>.>.>.>.>.>.>.>.>.-.-.-.>.>.,.,.,.S.Y.!.!.Q.Q.Q.!.^.{.~.S.A.`.;X;X*X2.-.",
"I.D.S.J.Q.Q.Q.Q.Q.Q.Q.Q.Q.Q.Q.Q.Q.Q.Y.H.J.S.,.-.>.>.>.>.>.>.>.>.>.>.>.>.>.>.>.-.>.,.G.G.G.Y.Q.!.Q.Q.Q.Q.Q.].oXXX~.S.A.E.E.2.>.-.",
",.S.J.^.!.Q.Q.Q.Q.Q.Q.Q.Q.Q.Q.Q.Q.Q.Q.Q.Q.U.A.,.>.>.,.>.,.>.>.>.>.,.>.>.>.,.,.>.>.A.H.Y.U.Q.Q.Q.Q.Q.Q.Q.Q.].#X%X}.~.S.,.,.A.,.,.",
"G.J.Q.^.^.Q.Q.Q.Q.Q.Q.Q.Q.Q.Q.Q.Q.Q.Q.Q.Q.Q.Q.Q.Q.Q.Q.Q.Q.~.Q.Q.Q.Q.Q.Q.Q.Q.!.!.^.Q.Q.Q.Q.Q.Q.Q.Q.Q.Q.!.^.Y.L.`.%X X~.S.S.G.J.J.",
"Q.Q.Q.!.^.Q.Q.Q.~.Q.Q.Q.Q.Q.Q.Q.Q.Q.Q.Q.~.Q.Q.Q.Q.Q.Q.Q.Q.Q.Q.Q.Q.Q.Q.Q.Q.Q.!.Q.Q.Q.Q.Q.Q.Q.Q.Q.Q.Q.Q.!.Q.H.A.E.-X2X{.W.J.Q.Y.Q."
};
