/* XPM */
static char *result[] = {
/* columns rows colors chars-per-pixel */
"64 64 218 2 ",
"   c #007300",
".  c #007C00",
"X  c #0E7D06",
"o  c #09720F",
"O  c #157D07",
"+  c #2B5E31",
"@  c #315F36",
"#  c #0C792A",
"$  c #187632",
"%  c #316036",
"&  c #39633A",
"*  c #2F7B39",
"=  c #42623C",
"-  c #555E5A",
";  c #5E645C",
":  c #62655D",
">  c #5E5E61",
",  c #71596E",
"<  c #765B73",
"1  c #765A78",
"2  c #7A5D78",
"3  c #7D627F",
"4  c #008501",
"5  c #008B01",
"6  c #00860D",
"7  c #008B0C",
"8  c #009305",
"9  c #00960A",
"0  c #00990C",
"q  c #008D13",
"w  c #0A8C15",
"e  c #168D16",
"r  c #009312",
"t  c #009C13",
"y  c #00951E",
"u  c #009E1B",
"i  c #278916",
"p  c #00A20E",
"a  c #00A515",
"s  c #00A817",
"d  c #00A41C",
"f  c #00A91B",
"g  c #008524",
"h  c #008D22",
"j  c #009422",
"k  c #00992B",
"l  c #009E30",
"z  c #2E972A",
"x  c #369925",
"c  c #399E2A",
"v  c #00A423",
"b  c #00AD23",
"n  c #00A72B",
"m  c #00B027",
"M  c #00B22B",
"N  c #00B632",
"B  c #01B936",
"V  c #05BA38",
"C  c #0CB938",
"Z  c #14BB39",
"A  c #23AD2F",
"S  c #3CA12D",
"D  c #25AE30",
"F  c #2EAE32",
"G  c #2DBA3A",
"H  c #3BB73B",
"J  c #409927",
"K  c #46AC35",
"L  c #46B33A",
"P  c #53B63E",
"I  c #32C03F",
"U  c #3A9F59",
"Y  c #0AA34A",
"T  c #2BA551",
"R  c #3EA65A",
"E  c #4ABD42",
"W  c #56B640",
"Q  c #55B942",
"!  c #5ABA43",
"~  c #47A556",
"^  c #469E61",
"/  c #549D6C",
"(  c #5E9D74",
")  c #52A566",
"_  c #3BC242",
"`  c #44C445",
"'  c #49C546",
"]  c #4DC648",
"[  c #4AC949",
"{  c #53C649",
"}  c #55C74A",
"|  c #5DCA4D",
" . c #5BD052",
".. c #65C94E",
"X. c #64CD51",
"o. c #6ACF53",
"O. c #68D355",
"+. c #74D157",
"@. c #ACB65C",
"#. c #B0BF5C",
"$. c #B2AF6D",
"%. c #ADB163",
"&. c #ADB26E",
"*. c #AEBB6A",
"=. c #B1B16B",
"-. c #B2BA6C",
";. c #AEAC77",
":. c #B2AF71",
">. c #B3AC7C",
",. c #AEB271",
"<. c #B2B374",
"1. c #B4BA76",
"2. c #B2B27A",
"3. c #AFC05C",
"4. c #B2C46D",
"5. c #B8C576",
"6. c #A537BB",
"7. c #9E699E",
"8. c #AC7591",
"9. c #AB769A",
"0. c #AB59AA",
"q. c #A846B4",
"w. c #AD4EB5",
"e. c #9A66A6",
"r. c #AC65A5",
"t. c #AE76AA",
"y. c #B86FB1",
"u. c #C37DB4",
"i. c #9B15C5",
"p. c #9004D6",
"a. c #A017CD",
"s. c #9D28C8",
"d. c #A331C2",
"f. c #AE34CF",
"g. c #AB13E3",
"h. c #C33CF1",
"j. c #C377D3",
"k. c #C779D1",
"l. c #CD7DD2",
"z. c #D679DC",
"x. c #CD76EB",
"c. c #D479E5",
"v. c #DB6DF8",
"b. c #EB7DFD",
"n. c #7A978A",
"m. c #7F9891",
"M. c #839993",
"N. c #AE8D8B",
"B. c #B18C8B",
"V. c #B19789",
"C. c #AE8993",
"Z. c #B08594",
"A. c #B38896",
"S. c #B89A91",
"D. c #95A19D",
"F. c #B6A685",
"G. c #BAB186",
"H. c #BCBB84",
"J. c #BBA795",
"K. c #B498B0",
"L. c #A4AEA6",
"P. c #B7A1BD",
"I. c #BAA5BF",
"U. c #C2AB8A",
"Y. c #C2B98C",
"T. c #C3A695",
"R. c #C4AB98",
"E. c #C5B199",
"W. c #CA96B3",
"Q. c #D4BAAB",
"!. c #D6A5B9",
"~. c #D7B5B7",
"^. c #BEC382",
"/. c #C3C48B",
"(. c #C4CA8A",
"). c #CCD08D",
"_. c #C9C495",
"`. c #D4C5A7",
"'. c #E0C5B8",
"]. c #B98FCB",
"[. c #C996CA",
"{. c #C98DD9",
"}. c #D587D7",
"|. c #D396D7",
" X c #DC92DD",
".X c #D29EDA",
"XX c #E798DC",
"oX c #C5A6C9",
"OX c #DCA8C6",
"+X c #DEB1C6",
"@X c #D1A8D2",
"#X c #E0AAC6",
"$X c #E5BBCA",
"%X c #EEA5DE",
"&X c #CB8DE0",
"*X c #D986E8",
"=X c #DC9EE4",
"-X c #DD84F6",
";X c #E58BE7",
":X c #E593EC",
">X c #EA97EA",
",X c #F49BEB",
"<X c #E88CF3",
"1X c #E583FE",
"2X c #ED83FF",
"3X c #EC8AFE",
"4X c #F386FF",
"5X c #FA87FF",
"6X c #F58BFF",
"7X c #FB8DFF",
"8X c #E894F1",
"9X c #F697F5",
"0X c #F494FB",
"qX c #FD93FF",
"wX c #FA9CFD",
"eX c #EDAAE5",
"rX c #F3A8E7",
"tX c #F8A7F8",
/* pixels */
"a a a a d a a a a a a a a a a f f f a a a a f f a p a M ` H m a p f s a s a s a a a a a a d a s f f f f s p a m H G b n G H M f ",
"a a a a a a a a a a d a a a a f b b f a a f b f a a f B ' I m a f m f a a a a a a d a a a s a f b b m b s a a f F D b b A F b f ",
"a a a a a a a a d a a a a a a m V V b p a b Z B b b B { | I m f B Z m a a a a a a a a a a a a b N ` ` B b a a t r q t t q q t a ",
"d a a a a a a d a a a a a p a M ` [ M p p m ` ] B M _ o.O.` N B ' ' m p p a a a a a a a a a p m ` +.+.` m a p 0 4 5 0 0 5 4 9 t ",
"a a a a a a a a a a a a a p a M ' ' M p 0 M _ ..] ` } X.X.{ ` ' | ` M p a a a a a a a a a p a M ` +.+.E m a p a 9 9 0 a 9 9 t a ",
"a a a a a a a a a a a a a a a b F F b a a b D ! ..O.O.} L Q ....! A d a p s a a a a a d a p a b N ` ` B m p p a s s s s a f a a ",
"a a a a a d a a a a a a a a a t q q t s s 0 6 x W O.O.P z x P ! c 7 t a f a a a a a a s a a a d b b M b f a a a s s s a s s a a ",
"a a a a a a a a a a a a a s s 0 4 4 0 s s 0 4 6 c P P x X e x S q 4 9 s s a a a a a a a a a a a a p a a a a a a a a a a s a a a ",
"a a a a a a a a a a a a a f a a 9 9 a a s a 9 8 6 i i X     O 6 9 9 a a f a a a a a a a a a a a a p a a a a a a a a a d a a a a ",
"m b d p a a a a a a a a a a a a s a a a a a f 0 5   . . . . . 5 t a s a a a a a a a a a a a a a a a a d a d a a a a a a a a a a ",
"I V b a a a a a d a a a a a a a f f f a a s f a 9 8 8 8 9 9 8 9 a f a a a a a a a a a a a a a a a a a a a a a a a a a a a a a d ",
"I V b a a a a a f a a a a a a a a a a a a a a a s a s f d a s f a a a a a a a a a d a a a a a a a a a a a a a a a a a a a a a a ",
"m m f a a a a a a a a a a a a a a a a a a d a a s f f s f f f s a a a a a a a a a a a a a a a a a a a a a a a a a a a a a f a a ",
"a a a a a a p a a a a a a a a d a a a a a a a a a a a a a a a a a a a a a a a a a a a a a a a a a a a a a a a d a a a a a d a a ",
"a p a a a a a a a a a a a a a a a a a a a a a a a a a a d a a a a a a a a a a a a a a a a a a a a a a a a a a a a a a a a a a a ",
"a a a a a a b b f a a a a a a a a f d a a a a a a a a a a a a a a a a f f b f a a a a f b b f a a a a a d a a a a a a a a a a a ",
"a a a p p m B Z b a a a a a a a a a a a a d a a a d a a a a a a a a a m V V b a p a a m V V m a a a a a d f a a a a a a a a a a ",
"a a a s m V { I b f f M f a a a a a a a a a a a a a a a f a a d a p p N ' ' M a p p p N ' ' M p a a a a a a a a a a a f m m f a ",
"a p a b V } ..I b b B Z m p a a a a a a a f a a a a a d a a a a s p p M ' ' M a a p p M ' ' M a a a a a a a a a a a a m Z C m a ",
"a a a f F ! ..[ B M H F b a p s a a a a a d a a a a a a a a a a a a a b F F b a p s a b F F b a a a a a a a a d a a a f F K M M ",
"a a a t r J !  .[ H x q t a f a a a a a a a a a a a a a a a a a a a a a q q t a s s s a q q t a a a a a a a a a s s s 0 r x H H ",
"s s s 8 4 6 c P W S 6 4 9 f a a a a a a a a a a a a a a a a a a s s s 0 4 . 9 a s f s 0 5 5 0 f a a d a a a a a a s s 9 4 w E | ",
"a s a a 9 8 6 i i w 8 8 a a a a a a a a n l l ( oXP./ / P.P./ / P.P./ / P.P./ / I.oX) p j j a a a a a a a a a a a s a 0 8 u E | ",
"a a a f f 0 5     4 t s s a a a d a a d Y ) ^ M.=X.Xm.m..X.XM.M..X.XM.M..X.XM.m.@X@X^ d Y T n s a a a a a d a a a a a a a v A H ",
"a a a f s a 0 8 8 0 a a a a a a a a a Y D.[.].&X0X0X&X&X9X0X&X&X0X0X&X&X0X0X&X&X0X[.U Y D.L.R s a a a a a a a a a a a s s a q w ",
"a a a a a a s a p a a a a a v n T / ^ n. X7X2X2X7X7Xb.4X7X7X6X3XqX7X2X2X7X7X2X2X7X[.n.m..X@X) a a a d a a a a a a a a a f 0 4 . ",
"a a a a a s s s a a a a a a v T D.[.].{.0X7X4X4X7X7X2X2X5X7X4X4X7X7X2X2XqX7X2X2X6X:X{.&X0X|.^ a a a a a a d a a a a a f a a 0 8 ",
"a a a a a a a f m m f a a a a T [.7X2Xb.7X7X;X}.XXXX X XXX;Xc.v.;XXX X XXXXX X XXX:Xb.2X7X|.n.^ ^ ~ a a a a f a a a a a a a f a ",
"a a a d a a a b Z Z m a a p v ^ |.7X4Xb.7X,X!.T.U.T.T.R.R.u.f.f.u.R.E.T.T.T.R.R.R.!.-X2X7X<X{.].oXI.f a a a d a a d a a a a s s ",
"a a a a a a a b Z Z m p p f ( M. XqX;X XXX#XU.%.%.$.%.#.3.8.i.i.9.*.*.%.=.$.;.,.,.J.[. XXX:X1X2XtXtXa a a a a a a a a a a a a a ",
"a a a a a a a f m m s p p m [. X8X,XW.T.U.U.:.%.%.%.%.#.3.8.i.i.9.&.*.&.&.,.,.&.,.>.J.J.R.!.*X3XtXtXa d a a d a a a a a a a a a ",
"d a a a a a a a a a a p s m -X1X>X#XU.%.%.%.$.$.$.=.-.<.>.q.6.0.V.1.1.>.2.2.<.1.2.>.2.,.<.S.[.:XwXtXa f a a a a a a a a a a a a ",
"a a a a a a a a a a a a a f 1X*XW.U.$.%.%.%.=.=.$.-.<.B.q.d.0.V.2.2.2.2.>.;.2.2.2.2.,.-.,.H.J.!.rX>Xs a a a a a a a a a a a a a ",
"a a p a a a a a a a a a a a *X|.F.@.%.:.:.:.:.<.$.>.C.0.6.0.V.2.N.Z.F.4.4.F.C.Z.V.2.2.G.H.1.H.Q.>X,Xa a a a a a a a a a a a a a ",
"a a a a s a a a a a a a a a *X&XF.%.@.:.2.2.2.,.<.Z.q.d.0.V.1.V.w.q.Z.4.4.C.q.6.Z.2.H.H._.^.^.Q.eX,Xa a a a a a a a p s a a a a ",
"a a b b f a a a a a a a a a *X*X!.U.<.$.,.;.2.<.2.C.w.q.r.C.C.0.6.6.r.C.C.0.6.q.C.2.^.^.^._.(.'.,X,Xb f s a p f m m f a a a a a ",
"s b C Z m a p a a a a a a a -X1X%X~.Y.<.,.;.2.2.2.F.B.r.q.d.s.6.r.r.q.s.s.6.r.A.G.H./._._.(.(.Q.rX>XV Z b p a m Z Z m p a a a a ",
"M B { ` m a p a a a a a a a <X6XqX%XE.2.Y.E.G.2.<.:.V.9.6.s.s.0.>.Z.s.p.p.w.J.(.^.^._._.`.Q.~.+XtX9X` ` m a f M L F b a a a a a ",
"_ { X._ M a a a a d a a a a 1X4XqX%XR.E.~.#XE.<.&.C.0.6.r.9.Z.S.>.9.a.p.q.C.Y.(._.^.(.`.$XeX:X:XqX9X` ` M b B K x q t a f a a a ",
"X...! D d a a a a a a a a a j.c.7X,X!.!.rXeXE.1.H.y.a.i.y._.5.(.Y.W.w.w.K._.).).`.Q.Q.+XtXwX6Xb.}.z.` I M M _ Q e 4 9 a f a a a ",
"..! x 7 t a s a a a a a a d 3 e.;XqX:X;XqXrXR.Y.~.c.g.g.z.'.)._.$X#XW.W.+X$X`.`.$XeX>X8X9XqX5Xx.7.7.` I M M ` ` v 8 0 a s a a a ",
"K c 6 4 9 a f a a d a a a s = - t.;X2X5XqX,X!.~.eXb.h.h.b.rX~.OXrXrX+X!.rXrX+X+XrXtX6X6XqXqX*Xe.- & F A b v A F b s a a a s a a ",
"e 6 8 8 a a s a a a a a a a g z ; 7.x.5XqX9X;X:XwX6Xv.v.5XwX>X:XwX9X>X>XwXwX8X:XwXqX2X5X7X;Xe.- # o q q t t r q t s s a a a a a ",
". 4 t f s a a a a a a a a a t k * : r.j.}.*X1X6XqXqX7X0XqXqX6X6XqXqX6X6XqXqX6X5XqX0Xc.k.}.t.; # j 0 4 4 0 0 4 4 0 f s a a a s a ",
"9 0 a f a a a a a a a a a a a f k * - , < 7.x.5XqXqX6X6XqX7X4X4XqXqX4X4XqX7X4X5XqX;X7., , : $ y s a 8 9 a 0 0 9 t s f d a a a a ",
"a a a a a a a a a a a d a a a a a j $ + @ - r.k.}.l.k.j.}.l.j.k.l.l.j.j.l.l.j.l.l.t.; @ + $ j a a s s a a s s s s a a a a a a a ",
"f s f a a a a a a a a a a a a a a t j k z = > 1 3 2 1 1 < 2 1 1 2 2 < 1 2 2 < 1 2 : $ h q j a a a s f s s a s s s a a a a a a a ",
"a a a a a a a a a a a a a a a a a p a M ] ~ * @ = = % @ @ @ % % @ @ @ % % % % @ @ $ j a u a b b s a a a a a a a a a a a a d a a ",
"a a a a a a a a a a a a a a a d a p a M ' ` l g # $ w h j h h h h h h h h h h h g h a a s m V V m a p a a a a a a a a a a a a a ",
"a a a a a a a a a a a a a a a a a a a m V C n 9 4 4 r d j u d u u u a t u t u u j u a p a M ' ' M a p a a a a a a a a a a a a a ",
"a a a a a a a a d a a a a a a a a a a f b b f 0 8 9 t a f a a a a a a a a a a a f a a p p M ' ' M a a a a a a a a a a a a a a p ",
"a a a a a a a a f a a a d a a a a a a a a a a a s s a a a a a a a a a f m m f a a a a a a b F F b p a a a a a a a a a a a a b b ",
"a a a a a a a a a a a a a a a a a a a a a a a d s s f a a a a d a a a m Z C m p p a a s a t q q t a s a a a a a a a a a p b B G ",
"a a b b s a a a a a a a a a a a a a a a a a a a a s a a a a a a a a a f F L M b f a a s a 9 4 4 0 s s a a a a s b f a a f B ' } ",
"a b C C m a p a a a a a a a a a a a a a a a a a a a a a a a a a a s a t r x L B m a p s s a 9 9 a a s a a p a m Z B b f N ' | X.",
"M B { [ M a p s a a a a a f m b f a a a a a a a a a a a a a a a a s s 8 5 e Q ` N p a a a a s s a a a a a a a M ` ' N N _ X.O.X.",
"` { X.` m a a a a a a a a m Z Z m a p a a a a a a a a a a a a a a a s 0 8 v ` ] M a p a a a f f s a a a a p a M ` | { ` } ..X.| ",
"X...! D d p a a a a a a a b Z Z m a a a a a a a a a a a a a a a a a a a a b F F b a a a a a a a a a a a a p a a A ! ..O.X.| E L ",
"..W x 7 t a s a a a a a a s b b f a a a a a a a a d a a d f d a a a a s f t q 7 t a s a a a a a a a a a a s a 0 7 x ! O.O.P x i ",
"K c 6 4 9 s s a a a d a a a a a a a a a a a a a a a a a a a a a a a a f s 0 4 4 0 s s a a a a a a a a a s f M d 5 6 x P P x e   ",
"e 6 7 9 a a a a d a a a a a a p a a a a d a a a a a a a a a a a a a a f s a 8 8 a a a a a a a a a a a a p m Z C d 5 4 i i X     ",
". 4 0 s f a a a f a a a a a a a a a a d f a a a a a d a d a a a a a a a a s f s a a a a d a a a a a a a a b F H N d 5   . . . . ",
"8 0 a f a a a a a a a a a a a a a a a a a a a a a a a a a a a a a a a a a a s s f a a a a a a a a a a f a t 0 c H N a 8 5 9 9 9 ",
"t a a s f a a a a a a a a a a a a a a a a a a d a a a a a a a a a a a a a a s a d a a a a a a a a a a s s 0 4 i P T m p 0 t a t "
};
