/* XPM */
static char *result[] = {
/* columns rows colors chars-per-pixel */
"64 64 204 2 ",
"   c #1C2A1D",
".  c #1D3A1A",
"X  c #260C2B",
"o  c #271529",
"O  c #2D152C",
"+  c #2B1A2B",
"@  c #33192D",
"#  c #35192E",
"$  c #371331",
"%  c #1F2720",
"&  c #1B2D21",
"*  c #183325",
"=  c #183824",
"-  c #262922",
";  c #37222D",
":  c #243628",
">  c #343127",
",  c #383927",
"<  c #34342B",
"1  c #3A3A28",
"2  c #3E2231",
"3  c #3E2D31",
"4  c #411F34",
"5  c #412432",
"6  c #492636",
"7  c #452933",
"8  c #4B2B35",
"9  c #4D2739",
"0  c #4E2839",
"q  c #512D36",
"w  c #522D39",
"e  c #5A2E3C",
"r  c #453634",
"t  c #55323A",
"y  c #5C353B",
"u  c #553A38",
"i  c #5E3C3C",
"p  c #60373D",
"a  c #62393E",
"s  c #015C06",
"d  c #025709",
"f  c #0C570B",
"g  c #075B0A",
"h  c #195A0E",
"j  c #225D0F",
"k  c #22471A",
"l  c #006B00",
"z  c #086509",
"x  c #1C610C",
"c  c #007400",
"v  c #007B00",
"b  c #097D08",
"n  c #157D07",
"m  c #006B1F",
"M  c #007918",
"N  c #20610C",
"B  c #2E6B12",
"V  c #356A16",
"C  c #2C7916",
"Z  c #3A7717",
"A  c #3E7719",
"S  c #094B24",
"D  c #2E4F25",
"F  c #334828",
"G  c #33552B",
"H  c #3A7B20",
"J  c #514938",
"K  c #6D5D3C",
"L  c #566E2A",
"P  c #5D762F",
"I  c #6F673D",
"U  c #663E41",
"Y  c #683E41",
"T  c #6C4243",
"R  c #714645",
"E  c #754B47",
"W  c #784D48",
"Q  c #7B4F49",
"!  c #765A45",
"~  c #7E514A",
"^  c #7E5D4B",
"/  c #7D7B47",
"(  c #84554D",
")  c #86594E",
"_  c #895C4F",
"`  c #885451",
"'  c #8A5D50",
"]  c #915F55",
"[  c #85624D",
"{  c #836C4D",
"}  c #817947",
"|  c #84774B",
" . c #8D6251",
".. c #866A50",
"X. c #926554",
"o. c #936954",
"O. c #976658",
"+. c #976958",
"@. c #8D7352",
"#. c #8E7E53",
"$. c #977557",
"%. c #997257",
"&. c #947B56",
"*. c #987A57",
"=. c #9B7359",
"-. c #9D795A",
";. c #A2745D",
":. c #A17B5B",
">. c #008301",
",. c #008A02",
"<. c #00850C",
"1. c #008C0B",
"2. c #009305",
"3. c #009907",
"4. c #00960B",
"5. c #00990D",
"6. c #008D13",
"7. c #0B8912",
"8. c #00811E",
"9. c #008D1A",
"0. c #138316",
"q. c #009517",
"w. c #009C12",
"e. c #009D1A",
"r. c #13921A",
"t. c #258A16",
"y. c #00A20D",
"u. c #00A515",
"i. c #00A817",
"p. c #00A519",
"a. c #00A91B",
"s. c #008122",
"d. c #049527",
"f. c #009E24",
"g. c #009B2A",
"h. c #1E9C25",
"j. c #2B9721",
"k. c #339724",
"l. c #329A25",
"z. c #399926",
"x. c #3B9D2A",
"c. c #318930",
"v. c #289730",
"b. c #359533",
"n. c #3D9435",
"m. c #00A222",
"M. c #00AD23",
"N. c #0BA92C",
"B. c #19AB2D",
"V. c #00B126",
"C. c #00B22A",
"Z. c #00B532",
"A. c #01B935",
"S. c #0CB937",
"D. c #01BC39",
"F. c #15BC39",
"G. c #1CBB39",
"H. c #25AD2F",
"J. c #3CA22D",
"K. c #2EAE32",
"L. c #33A935",
"P. c #2EB134",
"I. c #2DBD3C",
"U. c #3AB639",
"Y. c #3CB539",
"T. c #34BE3E",
"R. c #578C3B",
"E. c #469238",
"W. c #4C9139",
"Q. c #52943D",
"!. c #6B8A3E",
"~. c #43A12D",
"^. c #47A938",
"/. c #41B339",
"(. c #4BB63D",
"). c #52B63E",
"_. c #52B83F",
"`. c #30C03F",
"'. c #5F8D40",
"]. c #6E8647",
"[. c #648B42",
"{. c #6C8945",
"}. c #748648",
"|. c #7C854B",
" X c #728848",
".X c #739748",
"XX c #4FBA40",
"oX c #54BA42",
"OX c #59BA43",
"+X c #3CC243",
"@X c #45C545",
"#X c #4BC446",
"$X c #4AC749",
"%X c #4FC749",
"&X c #54C749",
"*X c #58C94B",
"=X c #5BCA4C",
"-X c #63C94E",
";X c #64CD51",
":X c #66D355",
">X c #6BD456",
",X c #82834E",
"<X c #8A8352",
"1X c #938156",
/* pixels */
"u.u.p.u.p.u.u.p.u.u.u.u.i.u.u.u.u.u.i.i.i.u.u.u.i.p.u.u.i.Z.+XT.M.u.i.i.i.u.u.u.u.u.u.u.u.u.u.u.u.u.i.a.i.i.u.V.U.I.M.V.I.U.C.a.",
"u.u.u.u.u.u.u.u.u.u.u.u.u.p.u.u.u.i.V.C.a.u.y.i.M.M.i.y.a.Z.#XT.M.i.M.V.M.u.u.u.u.i.p.u.u.p.u.y.y.i.M.C.C.M.i.M.K.H.m.M.H.K.M.p.",
"u.u.u.u.u.u.u.u.u.u.u.u.u.u.u.y.y.V.F.F.C.y.y.M.S.Z.M.a.Z.&X=XT.M.M.A.F.V.u.u.u.u.u.u.u.u.u.u.u.u.M.A.#X$XD.V.w.<.6.e.u.6.6.w.u.",
"p.u.u.p.u.p.u.u.p.u.u.p.p.u.u.i.V.Z./.K.M.u.M.D.%X@XZ.A.@X>X:X+XA.Z.Y.K.M.y.u.u.p.u.u.p.u.u.u.i.M.A.&X;X&XD.a.4.>.,.3.5.,.>.4.e.",
"u.u.u.u.u.u.u.p.u.u.u.u.u.u.y.V.D./.z.6.w.M.D.%X;X*X@X@X=X;X;X&X@XY.k.6.5.u.i.u.u.p.u.u.u.u.u.M.S.&X;X&XA.M.i.5.2.4.w.y.4.4.w.u.",
"u.u.u.u.u.u.u.u.u.p.u.u.u.u.u.V.P.~.6.>.2.a.P.OX-X:X:X*X(.oX*X;XOXx.<.>.4.i.i.u.u.u.u.u.u.y.u.M.S.#X#XA.M.u.u.u.i.i.i.i.i.i.i.u.",
"u.u.u.u.u.u.u.u.u.u.u.u.u.i.i.e.9.7.4.3.u.5.6.z.oX:X>X).l.l.(.OX~.<.1.3.u.i.u.u.u.u.u.u.u.u.u.a.M.M.C.a.u.u.y.u.i.i.i.i.i.i.u.u.",
"p.u.u.u.u.u.p.u.u.p.u.u.u.i.i.4.>.>.5.a.a.2.>.1.x.).).z.b n x.J.6.>.4.i.u.u.u.u.p.u.u.u.u.u.u.u.u.u.u.u.u.u.u.u.u.u.u.u.u.u.u.u.",
"u.u.u.u.u.u.u.u.u.u.u.u.p.i.i.w.4.5.u.i.i.u.4.1.<.t.t.n l c n 6.4.4.u.i.p.u.u.u.u.p.u.u.u.u.u.u.u.y.u.u.u.u.p.u.u.u.p.u.u.p.u.u.",
"i.i.V.M.i.u.u.u.p.u.u.u.u.u.u.i.i.i.u.u.u.i.i.w.,.v c v v v v >.5.i.i.u.u.u.u.p.u.u.u.u.u.u.p.u.u.u.u.i.u.u.u.u.u.u.u.i.u.u.u.u.",
"a.V.F.F.V.u.u.u.u.i.u.p.u.u.u.i.i.i.i.u.u.i.i.u.4.2.2.2.4.5.4.4.u.i.i.u.u.u.u.u.p.u.u.p.u.p.p.u.u.u.u.u.u.u.u.u.u.u.u.u.p.u.u.p.",
"a.V.F.F.V.y.u.u.u.u.u.u.u.u.u.u.u.u.u.u.u.u.u.u.i.u.i.i.i.i.i.i.i.u.p.u.u.p.u.u.u.u.u.u.u.u.u.u.u.u.u.u.u.p.p.u.u.p.u.u.u.u.u.u.",
"i.a.V.M.i.u.u.u.u.u.u.u.u.u.u.u.u.u.u.u.u.u.u.i.i.i.i.i.i.i.i.i.i.u.u.u.u.u.u.u.u.u.u.u.u.u.u.u.u.u.u.u.u.p.u.u.u.u.p.u.u.u.p.u.",
"p.u.u.u.u.u.u.u.u.u.u.u.p.u.p.u.u.p.u.p.p.u.u.u.u.u.u.p.u.u.p.u.u.u.u.u.u.u.y.u.u.u.u.u.u.u.y.u.u.u.u.u.u.u.u.u.p.u.u.u.u.u.u.u.",
"'.R.g.u.u.u.u.u.u.u.u.u.u.u.u.u.u.u.u.p.u.u.u.p.u.p.u.u.p.f.n.[.{.W.g.u.u.u.u.u.u.u.u.u.u.u.u.u.u.u.p.u.p.u.u.p.u.u.u.u.p.g.[.{.",
" X Xb.e.y.u.u.a.M.a.i.y.u.p.u.u.u.i.u.u.u.u.u.u.u.u.u.p.f.v.[.}.|.{.b.f.u.i.V.C.a.i.u.u.u.i.V.V.a.u.u.u.u.u.u.u.u.u.u.u.m.n.}.|.",
"<X#. Xv.p.w.u.M.F.A.M.y.y.u.u.u.u.u.u.p.u.u.u.p.u.u.p.f.E. X#.*.&.&.|.W.f.M.F.F.V.u.u.y.u.M.F.F.M.u.u.u.u.u.u.u.u.u.u.p.v.}.*.#.",
"*.-.<X XL.N.i.M.+X&XD.V.i.u.u.u.u.u.u.u.u.u.u.u.p.p.p.v. X*.;.-.-.-.*.<XQ.P.Y.K.a.i.y.i.V.Z./.P.M.u.u.u.u.u.p.u.p.p.m.v.].&.-.*.",
"*.-.-.1X.X^.M.M.`.;X&XA.M.y.u.u.u.u.u.u.u.u.u.u.p.p.d.'.#.-.-.-.-.-.:.:.<X.Xz.6.w.u.i.V.D./.z.6.5.i.u.u.u.p.p.u.u.m.E. X#.-.-.*.",
"*.-.;.:.*.{.h.C.@X-XOXK.M.u.u.u.u.u.u.p.u.u.u.p.p.m.'.,X$.-.-.-.-.-.:.;.=.!.C >.2.u.i.M.P.~.6.>.3.u.i.u.u.u.u.u.u.g.].*.-.-.-.-.",
"*.;.:.;.O.I H h.#XOX~.6.w.i.i.p.u.u.u.u.p.u.u.p.u.g. X*.:.-.-.:.:.:.:.;.X.I V >.5.i.i.e.9.7.4.4.u.u.i.u.u.p.u.u.p.g.|.-.-.-.-.-.",
"*.-.=.O.' ! V v j.j.<.>.2.i.i.u.u.u.p.u.u.u.u.u.u.g.|.:.=.:.=.=.-.-.+.X.' K V v 2.w.u.4.>.>.5.i.i.u.u.u.u.u.u.p.p.g.|.-.;.-.-.-.",
"&.%.X.' ` K V c c v ,.2.u.u.u.u.p.u.u.u.u.u.u.u.u.g.,X:.:.-.-.:.:.=.X.] ` K V c v ,.u.5.4.5.u.a.u.u.u.u.u.u.u.u.p.g.|.-.-.-.-.1X",
"*.%. .` ( K B c c c ,.e.f.f.g.f.f.f.f.f.m.f.m.m.f.E.} %.=.:.-.:.:.=._ ` ` I B c c v ,.w.f.g.g.g.g.g.g.g.g.f.m.f.g.n.| =.-.:.:.-.",
"&.%.' ` ` K V c c c v 0.R.!.[.'.R.Q.W.E.E.n.n.E.'.|...X.%.-.:.:.:.+. .` ` I V c c c v n '.}.{.{.{. X X X{.Q.W.E.Q.].{  .$.:.:.*.",
"@.o._ ` ) ! L A Z Z A P } <X#.<X<X,X|.|.|. X X|.<X@.' _ o.%.-.:.%.o._ ( ( ! L A Z Z A P | -.-.&.*.*.*.$.<X<X|.|.,X@.[ ' X.$.:.*.",
"[ ' ) ( ( [ { | } } / | *.-.:.-.*.$.&.&.&.*.&.*.*.+.' ( ) X.=.=.o._ ( ( ) _ { } } } } | *.-.:.-.-.-.:.-.:.*.&.&.*.%.' ( ) X.%.&.",
"^ ) ) ) )  .+.=.=.=.=.;.-.-.%.%.-.:.:.-.%.%.-.:.:.$. .~ (  .o.o._ ) ) ) )  .O.=.;.+.;.-.-.=.=.%.-.-.:.-.%.%.-.:.-.%. .~ ~ _ O.@.",
"^ ( ( ) ) ' X.] ] ] ] O.=.%.o. .%.:.:.%.X. .%.:.1X;. .) ~ ) _ _ ( ( ( ` ) _  .X.X.] ] O.=.%.o.X.%.:.:.%. .o.%.-.:.%. .( ( ) ) [ ",
"^ ) ~ W E Q ~ ) ` ` )  .o.o._ ) O.=.%.o. ._ o.%.%.+._ ) ( ) ) ( ( ( ( ( E W ( ) ) ( ) _ o.o.) _ X.%.%.+. .) o.%.%.o._ ) ( ) ) ^ ",
"^ ~ R i t i W ) ) ( ( ) _ _ ) ) )  . ._ ) ) _  . .' ) ) ) ( ) ) ) ( E p t a E ( _ ) ( )  ._ ) ) _  . ._ ) ) )  . . .) ) ) ( ( ^ ",
"! R Y w 5 8 T ~ ( Q Q ~ ) ) ) ) ) ) ) ( ~ ~ ( ) ' ( ~ ~ ( ( ( ( ( R J q 5 8 T ~ ~ Q Q ~ ( ) ) ) ) ) ) ( ~ ~ ( ) ) ( ~ ~ ( ) ) ^ ",
"K a p q 5 7 i T T T T T ~ ( ) ( ( _ ( ~ R T Q ) ) ~ R R ~ ' _ ( R a p q 5 7 y K Y U U T Q ` _ ( ( _ ( Q T R ~ ) ) Q T R ~ ) ) ^ ",
"y p a t 7 6 t a U y a T W ( ( ( ~ ( ~ E T U E ( ) W a a T ( ` Q a p p e 7 8 e p U U U U W ( ( ~ ( ~ ~ W Y Y E ( ( W U U R ( ) ) ",
"y p p y 7 7 t p p y p a U T T T T T T U a a T T T a a y U E ( Q R e p e 8 6 q p a i a a Y T T T T T T U a a U T T Y p y Y E ~ ^ ",
"J p y q 7 5 6 0 9 9 0 0 9 9 9 9 9 6 9 9 0 9 0 0 9 w w y y U E W K e e q 5 4 6 9 0 0 0 0 9 9 9 9 9 9 9 9 0 9 9 9 9 0 w y e J R ! ",
"a y q 6 5 2 @ + O @ O O O O O O O O O O O O O o O O 5 0 y p Y Y a y 0 7 5 ; # @ + @ O O O O O O O O O O O O O O O @ 5 8 e p a K ",
"u q 5 5 5 ; -     &             %                 - ; 7 e y p p y q 7 5 5 ; -                   % %               % ; 6 p p p p ",
"r 5 5 5 2 < k s s d d d d d d d d d d d d d d s s k > 6 e U U y 8 7 2 2 5 > k s s d d d d d d d d d d d d d d s s k > 6 e a p y ",
"7 2 5 4 5 1 N v v c c v c c v c c v c c c c c v v x 1 6 e i y 0 7 2 2 4 5 1 N v v c c v c c c c v c c v c v c v v h , 9 e a y u ",
"3 2 5 4 2 1 x v v v v c v c v c v c v c v c v v v x 1 6 e y w 7 5 2 2 4 4 1 x v v c v c c v v v v c v c c v v v v x , 6 e y w r ",
"3 2 5 4 5 , j c c c c c v >.v v v >.>.>.v >.v >.>.z F 6 w w 8 2 2 2 5 4 4 , j c v c c c v >.v v v v <.>.>.v <.>.v z , 6 w w 7 7 ",
"3 5 5 5 5 1 j c c c c v 1.5.5.5.5.e.N.N.e.4.5.w.5.<.G 5 6 5 5 2 2 5 2 5 5 , j c c c c v 1.4.5.5.5.6.<.1.4.6.<.1.,.<.D 5 6 7 5 3 ",
"3 5 5 5 5 1 j c c c c v 5.u.u.u.u.M.F.G.M.u.y.y.u.q.G 5 4 5 5 5 5 7 5 4 7 1 j c v l c >.w.u.p.u.i.5.>.,.5.5.,.>.5.q.G 5 # 7 5 3 ",
"5 7 7 4 5 1 j c c c c >.5.u.u.i.u.i.M.M.a.u.u.y.w.d.J 2 5 5 5 7 5 5 5 5 5 1 j c c c c >.5.u.u.u.i.y.4.4.u.5.4.4.u.d.G 3 5 2 5 3 ",
"; # # $ $ > j c c c c v 5.u.u.u.u.u.u.y.u.u.V.V.C.c.F # ; ; ; # # # # $ $ > j c c c c v 5.u.u.u.u.u.i.u.i.i.i.i.u.s.< ; 2 ; ; 2 ",
"+ o o X X - h c c c c >.5.p.u.p.u.u.u.y.y.M.S.@X@XE.: o o o o o o o o X X - h c v c c v 5.u.u.u.u.u.i.i.i.u.i.i.u.M : o o + o o ",
".     % % . z c c c c v 5.u.u.u.u.u.u.i.V.C.`.#XOXc.k     * * *     -   - . z c c c l >.5.u.u.p.V.V.a.u.u.u.u.u.p.9.S = = * * S ",
"g f f g f s l c c c c v 5.u.u.u.u.u.y.V.F.`.A.m.r.0.M M M s.s.m g g z f f s l c c l c >.5.y.y.M.F.F.V.u.y.u.u.p.u.e.9.M s.8.8.8.",
"c v c c v c c c l c c v 5.p.u.u.u.u.u.V.I.F.V.2.>.,.5.u.i.u.u.9.c c v c v c c l c c c v 4.a.V.A.Y.P.a.u.u.u.u.u.u.u.u.u.u.p.u.i.",
"v v v v v c c c c c c >.5.p.p.u.u.u.u.i.M.V.i.3.2.4.u.u.p.u.p.5.v c v c c c c c c c c v 5.V.D./.z.6.w.u.i.u.u.u.u.u.u.u.u.u.u.u.",
">.v >.v v v v v v v v >.5.u.u.u.p.u.u.u.y.i.u.i.i.i.u.u.u.u.u.w.1.v v >.v >.>.v >.v v ,.w.M.P.~.6.>.4.i.i.u.u.u.u.u.u.u.u.u.u.u.",
"B.N.e.2.4.4.5.5.5.5.5.w.u.u.u.p.u.u.u.u.u.u.u.p.i.i.i.p.u.u.u.p.e.4.4.5.4.3.2.p.N.N.e.w.u.w.9.7.1.3.u.u.i.u.u.u.u.u.u.u.u.u.u.u.",
"%XI.M.p.V.V.a.y.u.u.u.u.u.u.u.u.y.u.u.u.u.u.u.u.u.u.p.m.p.p.p.u.u.u.u.u.u.i.M.Z.T.F.M.u.u.4.>.>.5.i.i.u.u.u.u.u.u.i.a.M.i.u.a.V.",
"%XT.M.M.A.F.V.u.e.u.u.u.u.u.u.u.u.u.u.u.u.u.p.u.u.p.m.m.m.p.p.p.u.u.u.u.u.M.A.`.Z.V.a.u.u.u.4.4.u.i.i.p.u.u.u.u.y.M.S.Z.M.a.A.T.",
"#X+XA.Z.U.K.a.u.u.u.p.u.u.u.u.i.M.V.i.u.u.u.p.p.p.p.m.m.m.M.p.p.p.u.u.y.i.C.@X$XC.y.y.u.u.i.i.i.p.p.u.u.u.u.u.i.V.D.%X@XZ.A.@X=X",
"*X*X$XY.k.6.5.i.u.u.u.u.u.u.u.M.F.F.M.u.u.u.p.m.p.p.p.p.p.p.p.p.u.u.u.u.y.C.$X@XC.y.y.u.u.i.i.i.i.u.u.u.u.u.u.M.D.%X;X*XXX@X*X;X",
":X-XOXJ.<.>.4.i.i.u.p.u.u.u.u.M.F.F.M.u.u.p.m.m.p.u.p.u.p.u.u.u.u.u.u.u.u.M.K.K.a.u.u.u.u.u.p.u.u.u.p.u.u.y.u.p.K._.-X:X:X=XXX(.",
"*XoXz.<.,.4.u.u.i.p.p.p.u.u.y.a.M.V.i.u.u.u.p.p.p.p.u.u.u.u.u.u.u.u.u.i.i.e.1.6.e.u.i.u.u.p.u.u.u.u.p.p.p.u.p.q.6.z.OX:X>XOXl.r.",
"^.x.<.,.4.i.i.p.p.p.p.u.u.u.u.i.u.u.u.u.u.u.u.u.u.u.p.u.u.u.u.p.p.u.u.i.i.5.>.>.5.i.i.u.u.u.u.u.p.u.u.u.u.M.C.p.,.>.l.oXoXx.n l ",
"7.6.1.4.u.i.i.p.p.u.u.u.u.u.u.u.u.u.u.u.u.u.u.p.p.p.p.u.u.i.u.u.u.u.u.i.i.y.2.4.u.u.p.u.u.u.u.u.u.u.p.u.u.M.F.S.p.,.<.t.t.7.l l ",
">.>.w.i.i.p.p.u.u.u.u.u.u.p.p.p.p.p.u.p.p.p.p.p.p.p.u.p.p.u.u.u.u.p.u.u.u.u.i.i.u.u.u.p.u.p.u.u.u.u.u.u.u.M.P.Y.C.p.,.c c v v v ",
"2.5.u.a.i.u.p.u.p.u.u.p.p.i.p.u.p.p.p.m.p.p.p.p.p.p.p.p.u.u.u.u.u.u.p.u.p.u.i.i.i.u.p.u.u.p.u.u.u.u.u.i.u.e.6.x.Y.A.p.2.,.2.5.5.",
"w.u.p.p.i.u.u.u.u.u.p.p.p.p.p.p.p.a.m.m.p.p.i.p.m.p.p.p.u.u.p.u.u.p.p.u.p.u.i.i.i.p.u.u.u.u.u.u.u.u.u.i.p.4.>.t.(.T.M.u.3.u.w.u."
};
