/* XPM */
static char *result[] = {
/* columns rows colors chars-per-pixel */
"64 64 245 2 ",
"   c #1D9A46",
".  c #1D9A47",
"X  c #179A48",
"o  c #179A49",
"O  c #14994D",
"+  c #14994E",
"@  c #019957",
"#  c #0C9954",
"$  c #00985F",
"%  c #149950",
"&  c #009766",
"*  c #009860",
"=  c #009768",
"-  c #009769",
";  c #00957C",
":  c #00957F",
">  c #0070BD",
",  c #0075BF",
"<  c #0076BF",
"1  c #0075C0",
"2  c #0077C0",
"3  c #0078C0",
"4  c #0079C0",
"5  c #0079C1",
"6  c #007AC1",
"7  c #0079C2",
"8  c #007AC2",
"9  c #007BC2",
"0  c #007CC3",
"q  c #007DC3",
"w  c #007CC4",
"e  c #007DC4",
"r  c #007EC4",
"t  c #007EC5",
"y  c #007FC5",
"u  c #007EC6",
"i  c #009484",
"p  c #009391",
"a  c #009392",
"s  c #009299",
"d  c #00929B",
"f  c #0090A1",
"g  c #0090A5",
"h  c #0091A5",
"j  c #0091AA",
"k  c #0090AE",
"l  c #0090AF",
"z  c #008FB7",
"x  c #008FB8",
"c  c #008ABC",
"v  c #008ABD",
"b  c #008FBC",
"n  c #008EBD",
"m  c #008FBD",
"M  c #008DBF",
"N  c #0090B1",
"B  c #0090B3",
"V  c #0090B5",
"C  c #0080C3",
"Z  c #0082C5",
"A  c #0080C6",
"S  c #0081C6",
"D  c #0080C7",
"F  c #0081C7",
"G  c #0082C7",
"H  c #0085C7",
"J  c #0086C6",
"K  c #0087C6",
"L  c #0089C7",
"P  c #008EC4",
"I  c #008EC5",
"U  c #0080C8",
"Y  c #0081C8",
"T  c #0082C8",
"R  c #0083C8",
"E  c #0083C9",
"W  c #0082CA",
"Q  c #0083CB",
"!  c #0084C9",
"~  c #0085C9",
"^  c #0086C9",
"/  c #0084CA",
"(  c #0085CA",
")  c #0084CB",
"_  c #0085CB",
"`  c #0086CA",
"'  c #0086CB",
"]  c #0087CB",
"[  c #0085CC",
"{  c #0086CC",
"}  c #0087CC",
"|  c #0086CD",
" . c #0087CD",
".. c #0089C9",
"X. c #008AC9",
"o. c #0089CA",
"O. c #0088CB",
"+. c #0089CB",
"@. c #008ACB",
"#. c #008EC9",
"$. c #008ECB",
"%. c #0088CC",
"&. c #0088CD",
"*. c #0089CD",
"=. c #008ACC",
"-. c #008ACD",
";. c #008BCD",
":. c #008BCE",
">. c #008CCD",
",. c #008CCE",
"<. c #008DCE",
"1. c #008ECE",
"2. c #008FCE",
"3. c #008ECF",
"4. c #008FCF",
"5. c #0090CC",
"6. c #0092CD",
"7. c #0090CF",
"8. c #0D97CF",
"9. c #008FD0",
"0. c #0090D0",
"q. c #0091D0",
"w. c #0092D0",
"e. c #0092D1",
"r. c #0093D1",
"t. c #0094D1",
"y. c #0097D0",
"u. c #0094D2",
"i. c #0095D2",
"p. c #0096D2",
"a. c #0097D2",
"s. c #0096D3",
"d. c #0097D3",
"f. c #0098D3",
"g. c #0099D3",
"h. c #0098D4",
"j. c #0099D4",
"k. c #0099D5",
"l. c #009AD4",
"z. c #009AD5",
"x. c #009BD5",
"c. c #009CD5",
"v. c #009FD5",
"b. c #009DD7",
"n. c #009ED7",
"m. c #009FD7",
"M. c #0B9BD1",
"N. c #00A0D5",
"B. c #00A0D7",
"V. c #00A1D7",
"C. c #00A1D8",
"Z. c #00A2D8",
"A. c #00A2D9",
"S. c #00A3DA",
"D. c #00A5D9",
"F. c #00A5DA",
"G. c #00A5DB",
"H. c #00A7DA",
"J. c #00A7DB",
"K. c #00A8D9",
"L. c #00A9D9",
"P. c #00A8DB",
"I. c #00ACDB",
"U. c #00A9DC",
"Y. c #00AADC",
"T. c #00ABDC",
"R. c #00ABDD",
"E. c #00ADDD",
"W. c #00AFDF",
"Q. c #11A1D7",
"!. c #14A2D7",
"~. c #00B0DF",
"^. c #00B1DF",
"/. c #2DA2D7",
"(. c #24A5D8",
"). c #26A5D8",
"_. c #29A5D8",
"`. c #30A7D9",
"'. c #30A7DA",
"]. c #33A7DA",
"[. c #36A7D8",
"{. c #32A8DA",
"}. c #33A9DA",
"|. c #36A9DA",
" X c #38A8DA",
".X c #3AA9DB",
"XX c #3BAADB",
"oX c #3CABDB",
"OX c #3FABDB",
"+X c #00B1E0",
"@X c #00B1E1",
"#X c #00B3E1",
"$X c #00B3E2",
"%X c #00B4E1",
"&X c #00B5E1",
"*X c #00B4E2",
"=X c #00B9E3",
"-X c #00BBE4",
";X c #43AEDC",
":X c #46AEDD",
">X c #4CAFDD",
",X c #4FAFDD",
"<X c #52B1DE",
"1X c #57B1DE",
"2X c #56B3DF",
"3X c #57B3DF",
"4X c #58B3DF",
"5X c #58B4DF",
"6X c #59B3E0",
"7X c #6DBBE2",
"8X c #78BFE4",
"9X c #7AC0E4",
"0X c #7EC1E4",
"qX c #86C5E7",
"wX c #8EC3E4",
"eX c #9BCEEB",
"rX c #9DCDEA",
"tX c #9CCFEB",
"yX c #9BD0EC",
"uX c #9DD0EC",
"iX c #9ED1EC",
"pX c #A2D2EC",
"aX c #A4D2ED",
"sX c #A6D3ED",
"dX c #A6D4ED",
"fX c #ABD6ED",
"gX c #AFD9EF",
"hX c #B2D9EF",
"jX c #B6DAEF",
"kX c #BBDAED",
"lX c #B7DBF0",
"zX c #B9DDF0",
"xX c #BEDFF2",
"cX c #C0DFF1",
"vX c #C9E5F4",
"bX c #CAE5F4",
"nX c #CBE6F4",
"mX c #CCE5F4",
"MX c #CDE5F4",
"NX c #CEE6F4",
"BX c #CEE7F5",
"VX c #CFE7F5",
"CX c #D0E9F6",
"ZX c #EDF5FA",
"AX c #EFF6FB",
/* pixels */
"<.<.<.<.<.<.<.<.,.>.>.,.<.<.<.<.<.<.<.<.<.<.<.<.<.<.<.<.<.<.<.<.<.<.<.<.<.<.<.<.<.<.<.<.<.<.<.<.<.<.<.<.<.<.<.<.<.<.<.<.<.<.<.<.",
"<.<.<.<.<.<.<.,.;.-.-.;.,.<.<.<.<.<.<.<.<.<.<.<.<.<.<.<.<.<.<.<.<.<.<.<.<.<.<.<.<.<.<.<.<.<.<.<.<.<.<.<.<.<.<.<.<.<.<.<.<.<.<.<.",
"<.<.<.<.<.<.<.<.>.;.;.>.<.<.<.<.<.<.<.<.<.<.<.<.<.<.<.<.<.<.<.<.<.<.<.<.<.<.<.<.<.<.<.<.<.<.<.<.<.<.<.<.<.<.<.<.<.<.<.<.<.<.<.<.",
"<.<.<.<.<.,.,.q.d.x.l.u.1.*.*.;.,.<.<.<.<.<.<.<.<.;.%.{ { %.;.<.<.<.<.<.<.<.<.<.<.<.<.<.<.<.<.<.<.;.} } ;.<.<.<.<.<.<.<.<.<.<.<.",
"<.<.<.<.<.;.;.p.G.+X^.F.t.=.*.>.<.<.<.<.<.<.<.<.<.>.=.&.&.=.>.<.<.<.<.<.<.<.<.<.<.<.<.<.<.<.<.<.<.>.*.*.>.<.<.<.<.<.<.<.<.<.<.<.",
"<.<.<.<.<.;.;.i.F.&X-X$XD.l.j.d.q.,.,.<.<.;.%.Q ) q.].4X3X.Xa.;.;.<.<.<.<.<.<.<.<.<.<.<.<.<.<.;.;.g.OXOXg.;.;.<.<.<.<.<.<.<.<.<.",
"<.<.<.<.<.,.,.3.i.D.*X=X%X^.W.G.p.;.;.<.<.>.=.Q _ Q.eXVXVXuX_.*.&.<.<.<.<.<.<.<.<.<.<.<.<.<.<.&.*.oXsXsXoX*.&.<.<.<.<.<.<.<.<.<.",
"<.<.<.<.<.<.<.-.-.t.S.W.^.^.^.G.p.;.;.;.;.a..X;X>X9XhXmXvXuX_.*.&.<.<.<.<.<.<.<.<.<.<.<.<.<.<.&.*.oXsXsXoX*. .<.3.4.4.3.<.<.<.<.",
"<.<.<.<.<.<.<.;.-.1.u.j.x.c.x.d.q.,.,.&.*._.uXvXmXhX9X>X;X.Xa.;.;.<.<.<.<.<.<.<.<.<.<.<.<.<.<.;.;.g.OXOXg.;.;.<.3.3.3.3.<.<.<.<.",
"<.<.<.<.<.<.<.<.<.<.>.;.;.;.;.>.<.<.<.&.*._.uXVXVXeXQ._ Q *.=.-.-.-.-.;.,.<.<.<.<.<.<.<.<.<.<.<.<.;.*.-.<.0.9.,.O.! ! ] ;.<.1.<.",
"<.<.<.<.<.<.<.<.<.,.;.-.-.-.-.;.,.<.<.;.;.a..X3X4X].q.) Q } -.>.>.;.;.>.<.<.<.<.<.<.<.<.<.<.<.<.<.;.}  .;.0.9.+.y 3 3 y %.3.4.1.",
"<.<.<.<.<.<.<.<.<.<.<.<.<.<.<.<.<.<.<.<.<.>.=.&.&.-.,.;.-.3.s.x.c.c.x.s.3.-.;.<.<.<.<.<.<.<.<.<.<.1.<.;.] ` ( R e 3 4 y %.3.4.1.",
"<.<.<.<.<.<.<.<.<.<.<.<.<.<.<.<.<.<.<.<.<.;.%.{ { &.;.-.;.t.F.~.^.^.~.F.t.-.-.<.<.<.<.<.<.<.<.<.<.4.3.%.y 4 3 e T ( ` ] ;.<.1.<.",
"<.<.<.<.<.;.%.{ { %.;.<.<.<.<.<.<.<.<.<.<.<.<.<.<.,.,.9.p.B.U.E.E.E.E.U.B.p.9.,.,.<.<.<.<.<.<.<.<.4.3.%.y 3 3 e /  .&.&.;.<.<.<.",
"<.<.<.<.<.>.=.&.&.=.>.<.<.<.<.<.<.<.<.<.<.<.<.<.<.;.;.d.H.T.C.f.d.d.f.C.T.H.d.;.;.<.<.<.<.<.<.<.<.1.<.;.] ! ! ' *.:.:.;.,.<.<.<.",
"<.<.<.;.;.a..X3X4X`.q.{ &.<.<.<.<.<.<.<.<.1.3.3.1.;.;.d.H.T.C.f.d.d.f.C.T.H.d.;.;.<.<.<.<.<.<.<.<.<.<.;.&.) [ w.{.4X4X.Xa.;.;.,.",
"<.<.<.&.*._.uXVXVXeXQ.{ { <.<.<.<.<.<.<.<.<.3.3.<.,.,.9.p.B.U.E.E.E.E.U.B.p.9.,.,.<.<.<.<.<.<.<.<.<.<.,.;.[ | !.tXBXVXuX_.*.&.;.",
"<.<.<.&.*._.uXvXmXlX0X'.r.;.;.<.<.<.<.1.<.=.] ] >.9.9.:.;.t.F.~.^.^.~.F.t.-.-.<.<.<.<.<.<.<.<.<.<.;.;.a..X;X>X9XhXmXvXuX_.*.&.;.",
"<.<.<.;.;.a..X;X>XqXzXpX}.*.&.<.<.<.<.4.3.] t t } 9.0.,.-.3.s.x.c.c.x.s.3.-.;.<.<.<.<.<.<.<.<.<.<.&.*._.uXvXmXhX9X>X;X.Xa.;.;.,.",
"<.<.<.<.<.>.=.Q _ {.aXdXOX*.&.<.<.<.<.4.3.] t w F ( ` ] ;.<.,.;.;.;.;.>.<.<.<.<.<.;.} } ;.<.<.<.<.&.*._.uXVXVXeXQ._ Q =.>.<.<.<.",
"<.<.<.<.<.;.%.Q ) r.|.OXj.;.;.<.<.<.<.1.<.>.%.T 0 3 4 y %.<.<.-.-.-.-.;.,.<.<.<.<.;.*.*.>.<.<.<.<.;.;.a..X3X4X].q.) Q %.;.<.<.<.",
"<.<.<.<.<.<.<.<.<.;.*.*.>.<.<.<.<.<.<.<.<.4.4.+.y 3 3 y %.3.4.<.<.<.<.<.<.;.%.Q ) r.|.OXj.;.;.<.<.<.<.>.=.&.&.=.>.<.<.<.<.<.<.<.",
"<.<.<.<.<.<.<.<.<.;.} } ;.<.<.<.<.<.<.<.<.3.4.,.O.! ! ] ;.<.1.<.<.<.<.<.<.>.=.Q _ {.aXdXOX*.&.<.<.<.<.;.%.{ { %.;.<.<.<.<.<.<.<.",
"<.<.<.<.<.<.<.<.<.<.<.<.<.<.<.<.<.<.<.<.<.<.<.<.3.3.3.3.<.<.<.<.<.<.<.;.;.a..X;X>XqXzXpX}.*.&.<.<.<.<.<.<.<.<.<.<.<.<.<.<.<.<.<.",
"<.<.<.<.<.<.<.<.<.<.<.<.<.<.<.<.<.<.<.<.<.<.<.<.3.4.4.3.<.<.<.<.<.<.<.&.*._.uXvXmXlX0X'.r.;.;.<.<.<.<.<.<.<.<.<.<.<.<.<.<.<.<.<.",
"<.<.<.<.<.<.<.<.<.<.<.<.<.<.<.1.3.3.1.<.<.<.<.<.<.<.<.<.<.<.<.<.<.<.<.&.*.(.rXMXNXeXQ.{ { <.<.<.<.<.<.<.<.<.<.<.<.<.<.<.<.<.<.<.",
"<.<.<.<.<.<.<.<.<.<.<.<.<.<.<.<.3.3.<.<.<.<.<.<.<.<.<.<.<.<.<.<.<.<.<.;.;.p. X1X4X`.q.{ &.<.<.<.<.<.<.<.<.<.<.<.<.<.<.<.<.<.<.<.",
"<.<.<.<.<.<.<.<.<.>.;.;.<.9.9.>.] ] =.<.1.<.<.<.<.<.<.<.<.<.<.<.<.<.<.,.<.q.u.e.;.{ &.;.<.<.<.<.<.<.<.<.<.<.<.<.<.<.<.<.<.<.<.<.",
"<.<.<.<.<.<.<.<.<.,.>.,.<.0.9.} t t ] 3.4.<.<.<.<.<.<.<.<.<.<.<.<.<.<.;.>.s.C.m.4.) } >.<.<.<.<.<.<.<.<.<.<.<.<.<.<.<.<.<.<.<.<.",
"<.<.<.<.<.<.<.,.3.u.z.p.@.R Y t 7 w ] 3.4.<.<.<.<.<.<.<.<.<.<.<.<.<.<.;.;.d.H.T.A.z.z.s.4.=.*.-.-.;.,.<.<.<.<.<.<.<.<.<.<.<.<.<.",
"<.<.<.<.<.<.<.;.,.z.Y.Z...< , 9 D ' >.<.1.<.<.<.<.<.<.<.<.<.<.<.<.<.<.,.,.4.p.B.R.+X+XF.t.=.*.;.;.>.<.<.<.<.<.<.<.<.<.<.<.<.<.<.",
"<.<.<.<.<.1.<.*.` 2.v.N.6.J H $.d.h.0.-.;.<.<.<.<.<.<.<.<.<.<.<.<.<.<.<.<.-.-.t.F.+X+XY.B.l.j.x.x.d.q.,.,.<.<.<.<.<.<.<.<.<.<.<.",
"<.<.<.<.<.4.3.} t 9 Z 5.v.K.L.I.~.J.i.-.-.<.<.<.<.<.<.<.<.<.<.<.<.<.<.<.<.;.-.3.s.z.z.B.Y.~.~.^.~.G.p.;.;.<.<.<.<.<.<.<.<.<.<.<.",
"<.<.<.<.<.4.3.%.y < < ^ V.@X#X^.~.R.B.p.4.,.,.<.<.<.<.<.<.<.<.<.<.<.<.<.<.<.<.<.>.*.=.t.F.^.^.^.~.G.p.;.;.<.<.<.<.<.<.<.<.<.<.<.",
"<.<.<.<.<.1.<.;.] R G +.i.b.n.z.z.A.T.H.d.;.;.<.<.<.<.<.<.<.<.<.<.<.<.<.<.<.<.,.;.*.*.4.s.x.c.x.x.d.q.,.,.<.<.<.<.<.<.<.<.<.<.<.",
"<.<.<.<.<.<.<.<.3.3.3.<.,.;.;.*.=.d.H.P.h.;.;.<.<.<.<.<.<.<.<.<.<.<.<.<.<.<.<.<.<.<.<.<.>.;.;.;.;.>.<.<.<.<.<.<.<.<.<.<.<.<.<.<.",
"<.<.<.<.<.<.<.<.3.4.4.<.;.-.-.*.=.4.d.f.w.,.,.<.<.<.<.<.<.<.<.<.<.<.<.<.<.<.<.<.<.<.<.,.;.-.-.-.-.;.,.<.<.<.<.<.<.<.<.<.<.<.<.<.",
"<.<.<.<.<.<.<.<.<.<.<.<.<.<.<.1.<.-.{ ) _ &.;.<.<.<.<.<.<.<.<.<.<.<.<.<.<.<.<.<.<.<.<.<.3.4.4.4.4.3.<.<.<.<.<.<.<.<.<.<.<.<.<.<.",
"<.<.<.<.<.<.<.<.<.<.<.<.<.<.<.<.<.;.%.{ &.-.,.<.<.<.<.<.<.<.<.<.<.<.<.<.<.<.<.<.<.<.<.<.3.3.3.3.3.3.<.<.<.<.<.<.<.<.<.<.<.<.<.<.",
"<.<.<.<.<.<.<.<.<.<.<.<.<.<.<.;.;.a..X4X4X].q.) Q %.;.<.<.<.<.<.<.<.<.<.<.<.<.<.<.1.<.;.] ~ ~ ! ~ O.,.4.3.<.<.<.<.<.<.<.<.<.<.<.",
"<.<.<.<.<.<.<.<.<.<.<.<.<.<.<.&.*._.uXVXVXeXQ._ Q =.>.<.<.<.<.<.<.<.<.<.<.<.<.<.<.4.3.%.y 5 5 5 5 y +.4.4.<.<.<.<.<.<.<.<.<.<.<.",
"<.<.<.<.<.<.<.<.<.<.<.<.<.<.<.&.*._.uXvXmXhX9X>X;X.Xa.;.;.<.<.<.<.<.<.<.<.<.<.<.<.4.3.%.y 5 5 5 6 0 T %.<.9.9.3.<.<.<.<.<.<.<.<.",
"<.<.<.<.<.<.<.<.<.<.<.<.<.<.<.;.;.a..X;X>X9XhXmXvXuX_.*.&.<.<.<.<.<.<.<.<.<.<.<.<.1.<.;.] ~ ~ ` ` F 0 y %.9.0.3.<.<.<.<.<.<.<.<.",
"<.<.<.<.<.<.<.<.<.<.<.<.<.<.<.<.<.>.=.Q _ !.yXCXCXiX).*. .<.<.<.<.<.<.<.<.<.<.<.<.<.<.<.3.3.3.7.4.%.y 0 F ( ` ] ;.<.1.<.<.<.<.<.",
"<.<.<.<.<.<.<.<.<.<.<.<.<.<.<.<.<.;.%.Q ) q.{.6X5XXXa.;.;.<.<.<.<.<.<.<.<.<.<.<.<.<.<.<.3.4.4.4.4.<.%.T 0 3 4 y %.3.4.<.<.<.<.<.",
"<.<.<.;.%.{ { %.;.<.<.<.<.<.<.<.<.<.<.1.<.=.! D D / ;.9.0.3.<.<.<.<.<.<.<.<.<.<.<.<.<.<.<.<.<.<.<.4.4.+.y 3 3 y %.3.4.<.<.<.<.<.",
"<.<.<.>.=.&.&.=.>.<.<.<.<.<.<.<.<.<.<.4.3.' 7 > > 8 } 9.0.3.<.<.<.<.<.<.<.<.<.<.<.<.<.<.<.<.<.<.<.3.4.,.O.! ! ] ;.<.1.<.<.<.<.<.",
",.;.;.a..X3X4X`.q.{ &.<.<.<.<.<.<.<.<.4.3.%.y 3 3 q T ( ` ] ;.<.1.<.<.<.<.<.<.<.<.<.<.<.<.<.<.<.<.<.<.<.3.3.3.3.<.<.<.<.<.<.<.<.",
";.&.*._.uXVXVXeXQ.{ { <.<.<.<.<.<.<.<.1.<.;.] ` ( R e 3 4 y %.3.4.<.<.<.<.<.<.<.<.<.<.<.<.<.<.<.<.<.<.<.3.4.4.3.<.<.<.<.<.<.<.<.",
";.&.*._.uXvXmXlX0X'.r.;.;.<.<.<.<.<.<.<.<.<.3.0.9.+.y 3 3 y %.3.4.<.<.<.<.<.<.<.<.<.<.,.;.;.,.<.<.<.<.<.<.<.<.<.<.<.<.<.<.<.<.<.",
",.;.;.a..X;X>XqXzXpX}.*.&.<.<.<.<.<.<.<.<.<.3.9.9.,.O.! ! ] ;.<.1.<.<.<.<.<.<.<.<.<.<.,.>.>.,.<.<.<.<.<.<.<.<.<.<.<.<.<.<.<.<.<.",
"<.<.<.>.=.Q _ {.aXdXOX*.&.<.<.<.<.<.<.<.<.<.<.<.<.<.3.3.3.3.<.<.<.<.<.<.<.,.;.-.-.*.=.7.d.f.w.,.,.<.<.<.<.<.<.<.<.<.<.<.<.<.<.<.",
"<.<.<.;.%.Q ) r.|.OXj.;.;.<.<.<.<.<.<.<.<.<.<.<.<.<.3.4.4.3.<.<.<.<.<.<.<.<.>.;.;.*.=.d.H.P.h.;.;.<.<.<.<.<.<.<.<.<.<.<.<.<.<.<.",
"<.<.<.<.<.<.<.;.*.-.<.3.1.<.<.<.<.<.<.<.<.<.<.<.<.<.<.<.<.<.<.<.<.,.;.*.*.4.s.x.c.j.l.A.T.H.d.;.;.<.<.;.%.{ { { { %.;.<.<.<.<.<.",
"<.<.<.<.<.<.<.;.} &.;.3.1.<.<.<.<.<.<.<.<.<.<.<.<.<.<.<.<.<.<.<.<.<.>.*.=.t.F.^.^.~.~.R.B.p.4.,.,.<.<.>.=.&.&.&.&.=.>.<.<.I x V ",
"<.<.<.<.<.<.3.9.9.;.] ] >.4.3.<.<.<.<.<.<.<.<.<.<.<.<.<.<.<.<.,.,.q.d.k.z.B.Y.~.~.^.^.F.t.-.-.<.<.;.;.a..X2X2X2X2X.Xa.;.;.P z B ",
"<.<.<.<.<.<.3.0.9.} t t } 4.4.<.<.<.<.<.<.<.<.<.<.<.<.<.<.<.<.;.;.p.G.+X+XY.B.l.j.c.x.s.3.-.;.<.<.&.*._.uXBXBXBXBXuX_.*.L b l j ",
"<.<.<.1.<.;.] ` ( G e 0 F %.<.9.9.4.1.;.} { { %.;.<.<.<.<.<.<.;.;.p.G.+X+XF.t.=.*.;.;.>.<.<.<.<.<.&.*._.uXBXBXBXBXuX_.o.c h a p ",
"<.<.<.4.3.%.y 4 4 r R F e y %.9.7.3.<.>.=.&.&.=.>.<.<.<.<.<.<.,.,.q.d.c.c.s.4.=.*.-.-.;.,.<.<.<.<.;.;.a..X2X2X2X2X.Xy.M g : & = ",
"<.<.<.4.3.%.y 3 4 S @.+.A e F E D u W q.{.4X3X.Xa.;.;.<.<.<.<.<.<.<.>.;.;.>.<.<.<.<.<.<.<.<.<.<.<.<.<.>.=.&.&.&.&.X.n h i $ . O ",
"<.<.<.1.<.;.] ! ~ O.<.1.+.T 0 2 , 1 U !.uXVXVXuX_.*.&.<.<.<.<.<.<.,.;.-.-.;.,.<.<.<.<.<.<.<.<.<.<.<.<.;.%.{ { { K v f : * o   X ",
"<.<.<.<.<.<.3.3.3.1.<.4.3.} t C #.8./.7XgXnXbXuX_.*.&.<.<.<.<.<.<.<.<.<.<.<.<.<.<.<.<.<.<.<.<.<.<.<.<.<.<.<.<.<.m j ; #         ",
"<.<.<.<.<.<.3.4.4.3.<.3.3.} / M.wXkXcXfX8X,X:X.Xa.;.;.<.<.<.<.<.<.<.<.<.<.<.<.<.<.<.<.<.<.<.<.<.<.<.<.<.<.<.<.<.N d &         o ",
"<.<.<.<.<.<.<.3.3.<.<.<.1.{ } [.jXZXAXxX<Xr.q.i.7.<.,.<.<.<.<.<.<.<.<.<.<.<.<.<.<.<.<.<.<.<.<.<.<.<.<.<.<.<.<.<.k s - % O + % @ "
};
