/* XPM */
static char *result[] = {
/* columns rows colors chars-per-pixel */
"64 64 105 2 ",
"   c #1C8233",
".  c #178239",
"X  c #1B8A3A",
"o  c #19903D",
"O  c #00844F",
"+  c #0E8348",
"@  c #0F8A49",
"#  c #0C9047",
"$  c #149043",
"%  c #1C9341",
"&  c #179A47",
"*  c #1D9A46",
"=  c #16934F",
"-  c #15994C",
";  c #1A9A4B",
":  c #008D5C",
">  c #059357",
",  c #039A56",
"<  c #0C9953",
"1  c #00965D",
"2  c #03995B",
"3  c #129650",
"4  c #149950",
"5  c #109A59",
"6  c #249742",
"7  c #229844",
"8  c #07A14C",
"9  c #0DA04B",
"0  c #11A14C",
"q  c #00A550",
"w  c #00AC56",
"e  c #00A758",
"r  c #00AD5A",
"t  c #00B15E",
"y  c #008B66",
"u  c #009665",
"i  c #009862",
"p  c #00976B",
"a  c #00996A",
"s  c #008C74",
"d  c #008D7C",
"f  c #009674",
"g  c #009A74",
"h  c #00957C",
"j  c #00AD65",
"k  c #00A36A",
"l  c #00A17C",
"z  c #007EAD",
"x  c #007DB0",
"c  c #0076BF",
"v  c #007AB8",
"b  c #007CC3",
"n  c #008787",
"m  c #008E86",
"M  c #00838D",
"N  c #008C8A",
"B  c #009483",
"V  c #009D85",
"C  c #00938C",
"Z  c #009889",
"A  c #008692",
"S  c #008A95",
"D  c #00849D",
"F  c #008C9C",
"G  c #009393",
"H  c #009E94",
"J  c #00929B",
"K  c #009D9B",
"L  c #00A186",
"P  c #00A590",
"I  c #00A895",
"U  c #0086A2",
"Y  c #008BA5",
"T  c #0083AB",
"R  c #008DAD",
"E  c #0091A3",
"W  c #0098A7",
"Q  c #0091AC",
"!  c #0082B2",
"~  c #008EB6",
"^  c #008EBC",
"/  c #0090B3",
"(  c #0092B9",
")  c #00AAAE",
"_  c #00B0AC",
"`  c #00A2BB",
"'  c #00ADBD",
"]  c #0083C6",
"[  c #008EC4",
"{  c #0085CA",
"}  c #008DCE",
"|  c #0092C5",
" . c #009AC7",
".. c #0091CD",
"X. c #0099CE",
"o. c #008FD0",
"O. c #0095D2",
"+. c #009AD5",
"@. c #00A3CF",
"#. c #00A0D7",
"$. c #00A5DA",
"%. c #00ABDC",
"&. c #00B1D2",
"*. c #00B1DF",
"=. c #00B1E0",
/* pixels */
"* * * * * * & - 4 - 4 - < < < < 4 - - - - - ; - - 4 4 4 - 4 4 4 - - - ; ; 4 - 4 4 4 4 4 4 4 = & ; ; 4 - - 4 4 - - - - 7 * * * * ",
"* * * * * * * * * 7 * * - 2 2 < & * * * * 7 * * * * * * * * * * * * * * * * * * * & & & * * * * * * * * * * * * * * * * * * * * ",
"* * * * * * * * * * * ; p B C h u - * * * * * * * * * * * * * * * * * * * * - 2 i i i u i < * * * 7 * * * * * * * * * * * * * * ",
"* * * * & * * * - 4 < a J ~ ^ Q J h u 1 a a i < & * * 7 * 7 * * & < 2 1 1 a B C G G G G G B p i p p 2 ; * * * * & 4 4 4 * * * * ",
"* * * - 5 5 4 , i k l P / [ } [ ^ R G G E E G h 1 - * * 7 7 * ; i f B G G J Q ( ^ ^ ^ ^ ^ R J J E E Z u 4 * * - i p p 2 - * * * ",
"* * * 4 u u a p V I _ ' @.+.+.O.O.[ ~ ^ [ } ^ J Z f i 2 2 e 2 u B J R ( ( [ } } } } o.o.o.[ ^ ^ } [ Q C f i i f C C B u ; * * * ",
"& * * < p h B G W @.&.*.=.*.*.$.O.} } } o.} } [ ~ Y J Z L L Z G Q [ [ [ } } } } } } o.} } } } } } } [ / J C C J / ~ J g < * * - ",
"- * * - u f Z F ^ | $.%.=.*.*.$...} } } } } } } [ [ E J K K J Q [ [ } } } } } } } } } } } } } o.} } o.[ ~ E E R ^ / J g 4 * 7 - ",
"4 * 7 - i B E ^ } } O.O.+.+.+.O.o.} } } } } } } } } } } } } } o.} } } } } } o.} } } } } } } } } } o.} } } } } } | Q C u & * * 4 ",
"4 * * & 2 h J ~ [ [ } { o.} } } o.} } } } } } } } } } o.} o.{ o.} } { } } } } } } } } } } } } } } } } } } o.| [ ~ F h 1 & * * - ",
"- * * & 2 f J Q ^ ^ } } o.{ } } } } } } } } } } } } } } o.} o.{ } } } } } } } } } } o.} } } } } } } } } o.o./ R U A d 1 - * * 4 ",
"4 * 7 * 2 f J Q ^ ^ [ o.} } } } } } } } } o.} } o.} } } { o.O.+.+.+.+.O.} { } } } } } } } o.} } } } } } { { R T D M s > - * * - ",
"- * * * 2 f J ~ [ } } } } } } o.} } } } } } } } } } } { o.O.#.*.%.=.=.$.O.} } } } } } } } } } } } } } } b b z T U n u 4 & * * 4 ",
"4 * * * , h E [ } } } } } } } } } } } o.} } o.} } } o.o.O.#.%.*.%.%.%.%.+.O.O.} o.} } } } } } } } O.o.{ b b v x D d > * 7 * * 4 ",
"- * * * < h R [ } } } } } } } } } } } } } } } } o.{ } O.$.%.$.+.+.+.O.$.%.$.O.} } } } } } } } } } } } } } ] ] ! m i & * * * * 4 ",
"4 * * * 4 f Q } } } } o.} } } } } } o.} } } } o.o.} } O.$.*.+.O.+.O.O.#.%.%.O.} } } } } } } o.} } } } } o.} | ~ d 5 ; * * * * 4 ",
"4 * * * & f E } o.} } } o.} } } } } } } } } o.} o.{ o.o.O.+.%.%.%.%.*.%.+.O.o.} } } } } } } } } } } } } } ..[ ~ m 2 ; * * * * - ",
"4 * 7 & * a E [ [ [ } } } } } o.} } } } } } { } o.o.o.} o.O.$.*.=.*.*.#.O.o.{ } } } } } } o.} } } } } o.} } [ ^ B i & * * * * 4 ",
"4 * * * & i G Q / / } } } } } } } o.} } o.{ b b o.o.o.o.{ o.O.+.+.+.+.O.o.} { o.} } } o.} } } } } } } } } } [ ~ G p - * * * * 4 ",
"4 & * * 6 > B E Q R } o.} } } } } } } o.o.} b b b { ] { o.} } { } o.} } } } o.} o.} } } } } } } } } } } } } ^ ~ J f < & * * * 4 ",
"5 * 7 % X @ f G Q / o.} } } } } } } } } o.} { ] b b b b { } } } } { } } } } } } } } } } } } o.} } o.} } } } / Q Q C 1 * * * * 4 ",
"4 * * o   . s J / [ } } } } o.} } } } } } o.o.} b b b b } o.} } } } } o.} } } } } } } } } } } } } } o.} } } ~ ^ ( E p - * * * 4 ",
"< 0 * o   + d Q [ } o.} } } } } } } } o.} } o.} { ] ] { } } o.} } } } } o.} } } } } } } } } } o.} } } } } } [ [ | Q Z > & * * - ",
"- 7 * % X : F ( } } } } } } } } o.} } } } } } } o.o.o.o.} } } } } } } } } } } } } } } o.} } } } } } } } } } o.} [ R G f < * * - ",
"- * * * = f Q } } } } } } o.} } } } } } } o.} } o.o.} o.} } } } } o.} } } } } } o.o.} } } } } } } } } } } } } [ / Q E C 2 * * - ",
"- * * ; u G ^ } } } } } } } } } o.} } } } } } } } } } } } } } } } } o.} } } o.{ { o.} } } } } } } } } } } } } [ E J E G i * * & ",
"- * * , B E ^ [ } } } } } } } o.o.o.} } } } } } } } } } o.} } } } } } } } } } } o.} } o.} } } } ..o.} } } } } ^ J G E G u * * - ",
"- * * i C ~ ( [ [ } } } } o.o.} { { } } } } } } } } } } } } } } } } } } } O.O.O.O.{ { } } o.} } } } } } } } ( E C C J C u * 7 ; ",
"; * * i G Q / ~ [ o.} } } ..o.{ b b { o.o.o.} o.} } } o.} } } } o.} o.{ { O.$.%.O.} } o.} } } o.} } } } } } E G B C G Z i * * & ",
"- * * i C E J E [ O.+.O.} { ] b b b ] o.o.o.} } } } } } } } } } } } } } o.O.$.%.$.+.O.O.o.} { } } } } } } } J J G G G h 2 * * - ",
"- * * i B G G F ~  .%.#.{ c c b ] { o.o.} } } } o.} } } } } } o.} } } } } o.O.#.%.=.=.$.O.{ { } } } } } } } Q Q Q E C p 4 * * - ",
"- 7 * 5 f C C G Y Q +.#...] { | O.+.o.o.{ o.} } } } } } } } } } } } } } } } } O.$.=.=.%.+.+.+.+.+.O.o.} } } ^ / E G f 1 & * * 4 ",
"4 * * & 1 h J F A A ] [ +.$.%.%.*.$.O.} { } } } } } } } } } } o.} } } } } } { o.O.O.+.+.%.=.*.*.*.$.O.o.} } [ ~ C p 2 & * * * 4 ",
"- * * * - a G F S A b { $.=.=.*.*.*.+.O.o.} } } } } } } } } } } } } } } o.} } } } } } O.$.=.*.*.*.$.O.{ } } [ R h < * * * * * 4 ",
"4 * * * * 2 h G Y Y ] } O.+.+.+.+.$.%.%.O.} } } o.} } } } } } } } } } } } } } o.} { { o.O.+.+.+.+.O.O.o.} } [ ~ B 2 * * * * * 4 ",
"4 * * * 7 < f G Q ^ o.} } } } } } O.$.$.O.} } o.} } o.} } } } } } o.} } } } } } o.} o.} } } } } } o.{ o.} o.} ^ G p * * * * * 4 ",
"4 * * * * , B Q [ ..} } } } } { { o.O.O.o.} } } } } } } o.} } } } } } } } } o.} } } } } } { } { { o.} } } } } [ E f < * * * * 4 ",
"4 * * * * i G ^ } } } } } } } } o.o.} } } } } } } } } } } } } } o.} } } } } } } } o.} } o.o.o.o.o.o.} } } } } [ / G i - * * * = ",
"4 * * * & f E } ..} } } } } } } } } } } } } } } } } o.} } } } } } } } } } } } } } } } o.o.o.o.o.} o.o.} } } } } | Q h < * * * - ",
"- * * & 2 h Q [ } } } } } } } o.} } } } } } o.} } } } } } } } } } } } o.} } } } } } } } { ] ] ] ] { o.o.o.} } } [ ^ C 1 * * * - ",
"- * * 4 a C Q | } } } } } } } } } } } } } o.} } } } } } } } o.} } } } } } } } } o.} o.} ] b b b b b { o.} } } } o.^ C i & * * = ",
"- * * , h C E Q ^ [ } } } } } } } } } } } } } } } } } } o.} } } } } o.} } } } } } o.} { b b b c b b ] o.} o...} [ ^ G f < * * - ",
"- * * 1 B G C C Q / } } } } } } } o.} } } } } } } } } } } } } } } } } } } } } } } } } } { { { { { ] b b } o...[ ^ Q E Z i * * - ",
"4 * * i C G Z h G E } } o.} } } } } } } } } o.o.o.o.} } } } } } } } } } o.} } } } } } } } } } O.o.{ b b ] { ! ~ R Q E G p & * 4 ",
"; * * i C G B h G J } } } o.} } } } } } } } } o.o.o.o.} } } } } } } o.} } } } } } } } o.o.} o.} o.o.{ ] b b z T Y Q E G f 4 * 4 ",
"; * * i C J B h G E } } } } } } } } } } } } { ] ] { o.o.o.o.} } } o.} } } } } } o.} } } } } } } o.o.o.} b b z ! R Q W G h - * 4 ",
"; * * i G J B h J Q } } } } } } } o.} o.o.} b b b b { O.o.} } } } } } } } } } } } } } } } } } o.} o.o.} } ] ] ] ^ ~ Q G f - * 4 ",
"; * * i C G B C Q ^ } } } } } } } } } o.o.{ b b b b ] { { { } } } } } } } } o.} } } } } } } } } } } } } ..} ..o.[ ( Y Z u * * - ",
"= * * 1 h G G J ^ [ } } } } } } } } } } o.} { { { ] b b b b } o.o.} o.} o.} } } } } } } } } } } } } } } o.} o.o.} ~ C u 4 * * - ",
"- & * < p Z E ~ [ [ o.} } } } } } } } } } } } o.o.} b b b b { } } } } } } } } } } } } } } } } } } } } } } } } } } ~ h 4 * * * - ",
"- * * & < f Q [ [ ( o.} } } } o.} } } } } } o.o.o.} { ] { { } } } } } } } } o.} } } } } } } } } } } } o.o.} } } } / f ; * * * 4 ",
"4 * * * * u J ( ^ ^ o.} } } } } } o.} } } } } } } o.o.o.o...} } } } } } } } o.{ { } } o.O.O.} } } } } } o.o.[ } } / B < * * * - ",
"4 * * * * 2 Z E ^ ( } } } } o.} } } } } } } o.o.} } o.o.} o.} } } } } } o.o.} o.} { } O.$.%.O.} } } } } } } [ [ [ / Z 1 & * * 4 ",
"4 * * 7 * , g J ( [ o.} } } } } } } } } } o.} o.} } } o.} } } } } o.} { { o.O.O.+.+.+.$.%.%.+.} { } o.o.} } { } [ / h > & * * 4 ",
"4 * * 7 7 e L W [ [ } ..} } } } o.} } ( ~ R ( [ } ^ Q J E E Y / ^ ..} { o.O.$.*.*.*.*.%.+.O.[ ^ ^ ~ [ [ } } [ } [ Q f - * * * - ",
"4 7 * 6 7 i H / [ [ ] { } o.o.} o.[ ^ R J J Q / ^ R J N C C G J Q ( | X.+.+.%.*.*.*.*.$...} [ ~ E E / ^ [ } o.o.[ J i * * * * - ",
"- * 7 7 & a J Q ( ~ T ! } [ O.[ ( Q J B a u f Z C m s y u i u a h Z I ' %.%.+.+.O.+.+.O.[ ~ J Z f h Z J E ^ [ } [ J i * * * * ; ",
"- * 9 9 4 p h C S C m N D R E E J Z f < & * 4 2 u 1 O + # * 0 & < 1 l P ) ` / ^ ^ ^ ^ ^ E G f i < < 1 p h G E ~ ^ J p & * * * & ",
"* 8 t r i u u p k j i 1 u u p p u 2 4 * * * * * ; $ .   X 7 * * * ; < 2 a g B G F J G C f u < & * * & 4 2 i p C Q Q h < * * * * ",
"0 q t j i 2 3 9 w w 0 * 7 * * * * * * * * * * * 7 % X X & 7 * * * * * * * 7 2 u f f p i 4 * * * * * * * * * < p C G h 2 - * * * ",
"* q t w , & * 0 0 0 & * 7 * * * * * * * * * * * * * % % * * * * * * * * * * * - 4 < 4 & * * * * * * * * * * * 4 i u i 4 7 * * * ",
"* 8 q 9 ; * * * 7 * * * * * * * * * * * * * * * * * * ; * * * * * * * * * * * * * * * * * * * * * * * * * * * * * * * * * * * * ",
"* ; 0 * * * * 7 * 7 7 * * * * * * * * * * * * * 7 0 * 7 * * * * * * * * * * * * * * * * * * * * * * * * * * * * * * * * * * * * ",
"* & * * 7 & - - - = 4 4 4 4 4 3 4 4 - 4 4 4 4 4 - 4 - < 4 4 4 4 4 4 4 4 4 4 - - 3 - - - - 4 4 4 4 4 4 - 4 4 4 - & * & * * * * * "
};
