/* XPM */
static char *result[] = {
/* columns rows colors chars-per-pixel */
"64 64 201 2 ",
"   c #000000",
".  c #050608",
"X  c #150E02",
"o  c #1A1301",
"O  c #1E1E00",
"+  c #000B1C",
"@  c #261D02",
"#  c #002201",
"$  c #002C02",
"%  c #2D2503",
"&  c #272D06",
"*  c #2C2A00",
"=  c #322706",
"-  c #322A06",
";  c #353400",
":  c #002222",
">  c #26282B",
",  c #004403",
"<  c #004C05",
"1  c #0B400D",
"2  c #005006",
"3  c #004B19",
"4  c #006B00",
"5  c #007300",
"6  c #007C00",
"7  c #077D0A",
"8  c #157D07",
"9  c #07562E",
"0  c #2E5E37",
"q  c #006523",
"w  c #51410F",
"e  c #534210",
"r  c #5E4C13",
"t  c #64540B",
"y  c #40670E",
"u  c #686600",
"i  c #727000",
"p  c #3B3D40",
"a  c #00625D",
"s  c #007572",
"d  c #414142",
"f  c #81681E",
"g  c #8C7114",
"h  c #937824",
"j  c #997C24",
"k  c #008500",
"l  c #008B03",
"z  c #00860D",
"x  c #008C0C",
"c  c #009305",
"v  c #009907",
"b  c #00960A",
"n  c #00990B",
"m  c #008C12",
"M  c #078A15",
"N  c #158C16",
"B  c #009717",
"V  c #009C12",
"C  c #278916",
"Z  c #00A30E",
"A  c #00A515",
"S  c #00A817",
"D  c #00A41B",
"F  c #00AA1B",
"G  c #009626",
"H  c #319824",
"J  c #329A25",
"K  c #399926",
"L  c #3A9E2A",
"P  c #309834",
"I  c #00AD24",
"U  c #00AA2A",
"Y  c #00B126",
"T  c #00B22A",
"R  c #00A737",
"E  c #00B532",
"W  c #00B935",
"Q  c #0DB937",
"!  c #02BC39",
"~  c #15BC39",
"^  c #1DBB39",
"/  c #25AD2F",
"(  c #3CA12C",
")  c #25AE30",
"_  c #2EAE32",
"`  c #30AD32",
"'  c #22B131",
"]  c #2DB134",
"[  c #2DBD3C",
"{  c #3AB538",
"}  c #3CB439",
"|  c #34BF3F",
" . c #6D911E",
".. c #459B33",
"X. c #7C9E37",
"o. c #43A12D",
"O. c #46AC35",
"+. c #41B339",
"@. c #49B43B",
"#. c #53B63E",
"$. c #32C03F",
"%. c #00B54B",
"&. c #798F48",
"*. c #758850",
"=. c #4BBB40",
"-. c #56B640",
";. c #54BA42",
":. c #5ABA43",
">. c #5D906B",
",. c #47BF65",
"<. c #37C341",
"1. c #3CC242",
"2. c #45C545",
"3. c #49C546",
"4. c #4EC749",
"5. c #48C949",
"6. c #55C749",
"7. c #5AC74B",
"8. c #55CA4B",
"9. c #5BC94C",
"0. c #5BD052",
"q. c #63C94E",
"w. c #64CD51",
"e. c #6ACA50",
"r. c #66D355",
"t. c #6BD456",
"y. c #56C46C",
"u. c #A49F14",
"i. c #A8A500",
"p. c #ACAA00",
"a. c #ACA80B",
"s. c #B9B600",
"d. c #A18327",
"f. c #A68829",
"g. c #B6942E",
"h. c #B9972E",
"j. c #BD9930",
"k. c #C2BE00",
"l. c #C59D35",
"z. c #CCAC2E",
"x. c #CEB12B",
"c. c #C6A234",
"v. c #CBA535",
"b. c #CDA834",
"n. c #D3AD36",
"m. c #D5AC39",
"M. c #CEB232",
"N. c #D6B037",
"B. c #DDB439",
"V. c #E6BC3D",
"C. c #DDD408",
"Z. c #D1C313",
"A. c #DFD81F",
"S. c #E2D705",
"D. c #E1DB17",
"F. c #E7E300",
"G. c #E8E400",
"H. c #ECE900",
"J. c #F2EE00",
"K. c #F6F200",
"L. c #FAF600",
"P. c #FCF800",
"I. c #D8C724",
"U. c #D4C63E",
"Y. c #EAE420",
"T. c #888556",
"R. c #8E8559",
"E. c #94835C",
"W. c #9B825F",
"Q. c #B59450",
"!. c #9E8661",
"~. c #A28261",
"^. c #A78D67",
"/. c #B78D61",
"(. c #BD8E6A",
"). c #C0A041",
"_. c #CCB64F",
"`. c #CFBB4B",
"'. c #D0BE46",
"]. c #CCB451",
"[. c #C29864",
"{. c #D2C341",
"}. c #005285",
"|. c #00728B",
" X c #0075BE",
".X c #0077C1",
"XX c #007AC4",
"oX c #98B99C",
"OX c #B9BEBC",
"+X c #8DD599",
"@X c #9AD8A3",
"#X c #A4DBAB",
"$X c #B6DCB1",
"%X c #B1E2B9",
"&X c #BDE4C2",
"*X c #C6C7C9",
"=X c #C6E9CA",
"-X c #D9F0DC",
";X c #DEF2E1",
":X c #F4FBF5",
">X c #FEFEFE",
/* pixels */
"A A A A A F A A A A D A A A A A A A F F F A A A F F A A A T 2.1.Y A S F S A A A D A A A A A A A A A A F F S A I | { I I [ } U F ",
"A A A A A A A A A A A A A A A A A F Y Y F A Z S I F A A F E 4.| Y A I Y F A A A A A A A A D A A Z A I T Y Y S I _ ' I I / _ I A ",
"D A A A D A A A A A A A A A A A Z I ~ ~ I Z Z I Q E I F E 4.9.$.I I W ~ Y Z A A A A D A A A A A A I W 3.3.W I n x m B A m m B A ",
"A A A A A A A A A D A A A A A F Y E } ` I A I W 4.2.E E 2.t.r.1.E E { _ I A A A A A A A A A A A I W 6.w.7.! I n k k n n l k b A ",
"A A A A A A D A A A A A A A Z Y ! @.K m b I ! 4.w.7.2.2.9.w.q.8.2.} H m n S S A A A A A A A A I Q 6.w.8.W I S V b b V Z b b V A ",
"A A A A A A A A A A A A A A A I ] o.m k b I ] :.q.r.r.9.=.;.7.q.:.L z k b S S A A A A A A Z A I ~ 2.2.E I Z Z A S S S S A F A A ",
"A A A A D A A A A A A A A A S V m M x v A b m K -.r.r.#.H J #.6.o.z l b A S A A A A A A A A A I I U Y I A A A A S S S A S F S A ",
"A A A A A A A A D A A A A F F n k l n F F b k x L #.#.K 7 8 K ( m k n F A A A A A A A A A A A A A Z A A A A A A A A A A A A A A ",
"A A A A A A A A A A A D A F .X.X X Xs F A A b l z C C 8 5 4 8 m x n A S F A A A A A D A A A A A A A A A A A A A A A A A A A A A ",
"S F I I F A A A F A A A A A  X.X X Xa B A S F V k 6 6 6 6 6 6 k n F S A A A A A A A A A A A A A A A A A A A A A A A A A A D F A ",
"F I ~ ~ Y A Z A A A A A A A .XXXXX X9 V A A A A b c c c n b c n A F S A A A A A A A A A A A A A A A A A A A A A A A A A A A A A ",
"F Y ~ ~ Y Z A A A A A A A A .XXXXX}.: # $ < V A A A S S F A S S A A A A A A A A A D A A A A A A A A D A A A A A A A A A A A A A ",
"A F Y I F A A A A A A A A A |.|.%.}.+ .     < A F F S S S F F S S A A A A A A A A A A A A A A A A A A A A A A F A A A A A A A A ",
"A A A A Z A A A A A A A A A S S S a + .       # $ $ $ < V S A A A A A A A A Z A A A A A A A A Z A A A A A A A D A A A A D A A A ",
"A A A Z A A A A A Z S A A A S S A G 3                   2 S A A A S A A A A A A A A A A A A A A A A A A D A A A A A A A A A A D ",
"A A A A A Z A F I I S Z Z A A S A D A q                   $ $ $ $ < V A A A Y Y I A A A A F Y Y F A A A A A A A A D A A A A A A ",
"A A A A A Z A I ~ W I Z Z A A A A S A I q # #                       2 A Z Y ~ ~ Y A S Z A U ~ ~ U Z A A A A F A A A A A A A A A ",
"A A A F Y Y S Y <.6.! Y F A A A A A A A A A A <                       , M E } _ F S Z F Y E +.] I A A A A A A A D A A A A F I I ",
"A Z A Y ~ W I I | w.8.W I A Z A A A A A A A A V <                       3 +.K m V A Z Y ! +.L M n A S A A A A A A A A A A I W [ ",
"A A A F ] } T W 2.e.:._ D A A A A %.@X#X,.A A A A <                     1 o.M k v A S y.$X$X..6 v S S A A D A A A A A A A Y 1.7.",
"A S A V m H } 4.0.:.o.m V S F A A #X:X>X%XA A A A <                     $ M c n A S S $X>X:X#XR A A F A A A A A A A A Z Z Y 1.7.",
"S S S c k x ( -.#.L z 6 b A E ,.%X:X>X>X=XA A V < .                       # $ < V A A =X>X>X:X;XS A A A A A A D A A A Z A Y 1.8.",
"A A A A v x m C C x l v A A %.#X>X>X>X>X&XA A 2                                 2 A A &X>X>X>X>XA A A A A A A A A A A Z A I <.8.",
"A A A S F V l 5 5 l V F A A %.#X>X>X>X>X:XoX0 .         @ = = = = - - o           0 oX:X>X>X>X>XA A A A A A A A A A A A A I ) +.",
"A A S F F A b l c n A F S A T ,.%X:X>X>X>XOXd         o t j d.h h j j t o         d OX>X>X>X:X-XA A A D A A A A A A A F A B B N ",
"A A A A A A S S S A Z A A A A A A +X:X>X>X*Xd   @ = = r f.V.V.v.v.V.B.g.r - = o   d *X>X>X:X+XU A A A A A A A A D A A F S n k 6 ",
"A A A A A A S F F S A A A A A A A U +X=X=XOXp o t j j f.v.B.N.n.n.N.B.v.f.j j r o p OX=X=X+XE A A D A A A D A A A A A A A A b c ",
"A S A A S A A S A F I I F A A A A A A A A >.> @ g B.B.j.f.j h.b.v.g.d.d.j.V.B.g @ > >.A A A A A A F A A A A A F A F A A A A A F ",
"A A A A A A A V Z Y ~ ~ I A A A A A A A A 9 . % h V.V.j e e h N.m.j w e d.V.V.j = . 9 A A A A A A A A A A A A A A A D A A A S S ",
"A A A A A D A A A Y ~ ^ Y Z Z F Y I F A Z ,   @ h B.V.f X X f B.V.f X X f B.B.h @   , A A A F D A A A A A A D A A A F A A A A A ",
"A S A A A A A A Z F Y Y F Z Z I ~ ~ I A A 7 , & h B.B.f X X f V.N.f X X f V.B.h & , 7 A A A A A A A A A A A A A A A A A A A A A ",
"A A A D A A S A A A A A A Z S Y ~ ~ I Z Z S A y d.m.n.j e e j n.n.j w w j N.N.j y A D A A A A A A D A A D A A A A A A A A A A A ",
"A A A A A A A A A A A A A A A I I Y F A A A A  .h.v.v.h.d.j g.b.v.h.d.j j.b.b.j. .A A A A A A A A A D A A A A A A A A A A A A A ",
"A A A A Z A A A A A A A A A A A A A A A A A A X.).v.c.l.b.b.v.c.l.v.b.v.l.c.c.l.X.A A A A A A D A A A A Z A A A A A A A A A A A ",
"A A A A A A A A A A A A A A A A A A A A A A A P &.Q.v.c.b.n.b.c.c.v.n.b.c.c.Q.&.P A A A A A A A A A A A A A A A A A A A A A A A ",
"A A Z F F I F A A A A A A A A A A A A A A A A D *./.n.z.l.l.l.l.l.l.l.l.M.n./.*.I A A A A A A A A A A D Y Y I D F I F A A A A A ",
"A A Z I Q ! I A A A A A A A D A A A A A A A S *.(.`.I.I.x.c.l.c.c.l.c.b.I.I.{.(.*.S A S A A A A A Z A I ~ W I I E ! Y A A A A A ",
"A A F W 6.5.T A A A A A A A A A A A A A A P R.(.U.H.H.S.x.x.x.x.x.x.x.I.C.H.H.{.(.T.P A A A A A A A I T +./ I Y 2.3.T A A A A A ",
"F I W 6.w.2.Y Z A A A A A A A A A A A A A T.[.U.F.H.H.F.S.D.C.S.C.C.C.S.F.H.H.F.{.[.T.A A A A A A Y ! +.H x b T 2.5.T A A A A A ",
"F Y 5.w.:._ D A A A A A A A A A A A A A S W.`.F.F.G.G.G.G.G.G.G.H.G.G.G.F.F.F.F.F.`.~.A A A A Z A T 5.=.N l B W } ) D A A A A A ",
"F T 2.:.o.m B A A A A A A A A A A A A A A ~.'.G.G.G.G.G.H.H.H.H.H.H.H.F.G.G.G.F.G.{.~.A A A A A A T 5.=.U A E +.H x V A S A A A ",
"F I ] L z k b S F A A A A A A A A F Y I F W._.G.G.G.G.G.S.H.J.J.H.F.F.F.G.G.G.G.G._.!.A A A A A A I _ / I I ) o.m k v S S A A A ",
"A B m m x v Z A F A A A A D A A Z I ~ ~ I W._.G.G.G.H.S.H.G.H.J.G.F.F.G.G.G.H.F.G.].W.A A A A S A V m b B B B M x v A A F A A A ",
"A b k k n S S A A A A A A A A A A I ~ ^ I W._.G.G.G.G.H.H.C.s.s.C.K.K.F.F.F.F.F.G.].W.A A A A F A b k l n n k k n F A A A A A A ",
"A A b b A S S A F A A A A A A A A F I I F W._.G.G.G.G.J.H.p.u u s.K.K.F.F.F.H.F.G.].W.A A A A A F n n b Z V n n A F F D A A A A ",
"A A S S S A A A D A A A A A A A A A A Z A ~._.G.G.G.G.P.L.i.* o i Z.F.H.H.F.F.G.G._.!.A A A A A A A S A S S A S A A A A A A A A ",
"A A F S F A A A A A A A A A A A A A A Z Z ~._.G.H.G.G.P.K.p.*   O u k.H.K.F.F.G.G._.W.A A A A A A A S S S A F S A A A A A D A A ",
"A A A A A A A A A A A A A A A A A A A F I !.].G.S.H.H.S.k. .*     ; s.L.L.F.F.G.G.].R.A A A V F Y Y F A A A A A A A A A A A A A ",
"A A A A A A A A A A A F A A A A A A Z Y ^ ^.].G.G.J.J.s.u * .     = p.K.P.G.F.F.G.].E.A A Z A Y ~ ~ Y A A A A A A A A A A A A A ",
"A Z A A A A A A A A A D A A A A A A A ..!.[.{.G.G.K.J.p.;         %  .Z.F.G.H.G.G.{.(.T.P F Y E } ] I A A A A A A A A A A A A A ",
"A A A A A A A A D A A A A A A A A A A R.[.{.A.G.G.K.J.a.-         . * u s.J.K.F.G.A.{.[.T.I ! @.K m n A S A A A A A A A A A A A ",
"I I D A Z A A A A A A A A D A A A A A ~.{.G.G.G.G.K.J.p.;             - p.J.K.G.F.G.G.U.~.U ` o.m k n S F A A A A A A A A A A A ",
"[ W I A Z A A A D A A A A A D A A A A ~.{.G.G.G.F.K.J.p.;             * i.J.K.G.G.G.G.{.~.V B M x b A A A A A A A A A A A A A A ",
"8.| I S F Y F Z A A A A A A A A Z A A W.].D.D.A.D.Y.Y.u.;             - u.Y.Y.A.A.D.D.].W.n k k n S F A A A A A Z A I I A A F I ",
"7.| I I W ~ Y A A A A A A A A A S A A A A A A A A A A A D A A D A A A A A Y W [ E I A A A V b b A F S A A A A Z A F Q E I F E [ ",
"8.1.W E { _ I A A A A A A A S F U Y F A A A A A A D A A A A A A A A A Z A Y 5.5.T Z A A A S A F A A A A A A A S Y ! 4.3.E E 2.0.",
"9.8.5.} H m V A S A A A A A A I ~ ~ I A A A A A A A A D A A A A A A A Z A T 5.2.Y Z Z A A A F F S A A A A A A I W 4.w.6.3.3.9.w.",
"r.q.:.L z k v A S A A A A A A I ~ ~ I A Z A A A A A A A A A A A A A A A A F _ _ I A A A A A A A A A A A A Z Z D ) :.q.r.w.9.=.@.",
"7.:.K z l b A A S A A A A A A F I Y F A A A A A A D A A A D A A A A A F S B m m V A F A A A A A A A A A A S A V m L :.r.t.;.J C ",
"O.L z k b F S A A A A A A A A A A A A A A A A A A F A A A A A A A A A F S n k k n S S A A A A A A A A A S F T D l k J -.;.L 8 5 ",
"N x x n A S S A A A A F A A A A A A A A A A F A A A A A A A A F A A A F S Z b b A A A A A A A A A A A A A Y ~ Q D l k C C M 4 4 ",
"6 k n S F A A A A A A D A A A A A A A A A A A D A A A A A A D A A A A A A S S A A A A A A D A A A A A A A I ] } E D l 6 5 6 6 6 ",
"b b A F S A A A A A A A A A A A A A A A A A A A A A A A A A A A A A A A A A S S S A A F A A A A A A A S A B m L } E A l l c n n ",
"V A A A F D A A A A A A A A A A A A D A A A A A A D A A D A A A A A A A A A S S A A A D A A A A A A A S A b k C @.<.Y Z n A V A "
};
