/* XPM */
static char *result[] = {
/* columns rows colors chars-per-pixel */
"64 64 233 2 ",
"   c #360A00",
".  c #371701",
"X  c #211E1F",
"o  c #1C3813",
"O  c #2C2803",
"+  c #312503",
"@  c #3A2506",
"#  c #273802",
"$  c #372E11",
"%  c #293616",
"&  c #321F20",
"*  c #2F302A",
"=  c #45250E",
"-  c #48280B",
";  c #462814",
":  c #452A17",
">  c #4A2915",
",  c #4D2C19",
"<  c #532C14",
"1  c #512E1A",
"2  c #4E3211",
"3  c #54321C",
"4  c #59351A",
"5  c #6D3615",
"6  c #663719",
"7  c #6A3B1D",
"8  c #4A3326",
"9  c #5E3923",
"0  c #563A2A",
"q  c #453C39",
"w  c #633C24",
"e  c #6B3E22",
"r  c #633C28",
"t  c #095B02",
"y  c #0F540F",
"u  c #145D00",
"i  c #1F5508",
"p  c #1A4918",
"a  c #254201",
"s  c #2C4D0E",
"d  c #066302",
"f  c #006B02",
"g  c #007300",
"h  c #007B00",
"j  c #007109",
"k  c #076313",
"l  c #31670A",
"z  c #144C26",
"x  c #33472D",
"c  c #5D4A1E",
"v  c #5B4538",
"b  c #6D4226",
"n  c #674128",
"m  c #6C442B",
"M  c #794525",
"N  c #71462C",
"B  c #744A2E",
"V  c #645425",
"C  c #694B3A",
"Z  c #754B31",
"A  c #794E33",
"S  c #714F3B",
"D  c #7D5136",
"F  c #74513D",
"G  c #2C4A5D",
"H  c #164D6B",
"J  c #274D63",
"K  c #355C72",
"L  c #30637E",
"P  c #544A4A",
"I  c #595555",
"U  c #695348",
"Y  c #6B584F",
"T  c #74594A",
"R  c #78635A",
"E  c #425A69",
"W  c #5B6064",
"Q  c #486678",
"!  c #6B7174",
"~  c #76797C",
"^  c #855238",
"/  c #805B48",
"(  c #8B6A58",
")  c #926B55",
"_  c #93725E",
"`  c #9D745B",
"'  c #A1725C",
"]  c #87756C",
"[  c #957662",
"{  c #987763",
"}  c #9B7B68",
"|  c #AA7E63",
" . c #008201",
".. c #008B05",
"X. c #009203",
"o. c #009A0E",
"O. c #008113",
"+. c #009D12",
"@. c #00971C",
"#. c #00A515",
"$. c #00A817",
"%. c #00AA19",
"&. c #00AC22",
"*. c #00A429",
"=. c #92817A",
"-. c #AA8168",
";. c #B2856A",
":. c #A98874",
">. c #00679A",
",. c #00719D",
"<. c #39718F",
"1. c #0065A1",
"2. c #006BA4",
"3. c #0276A5",
"4. c #0074AC",
"5. c #007CAD",
"6. c #187CA6",
"7. c #0065B7",
"8. c #0067B8",
"9. c #006BBB",
"0. c #007AB5",
"q. c #0073BE",
"w. c #4F768B",
"e. c #737A80",
"r. c #006EC1",
"t. c #0074C3",
"y. c #007BC3",
"u. c #0075C9",
"i. c #007CC9",
"p. c #1282AE",
"a. c #0082B4",
"s. c #0087BC",
"d. c #3A87AF",
"f. c #748895",
"g. c #518BAE",
"h. c #6F98AF",
"j. c #0083C5",
"k. c #008AC4",
"l. c #0085CB",
"z. c #008DCE",
"x. c #1C8FC0",
"c. c #0595CB",
"v. c #0192CE",
"b. c #1A9ACD",
"n. c #0086D0",
"m. c #008FD0",
"M. c #0094D2",
"N. c #009AD4",
"B. c #059CD7",
"V. c #199CD2",
"C. c #2C9ACC",
"Z. c #329CD1",
"A. c #01A0D7",
"S. c #0BA2D7",
"D. c #00A4DA",
"F. c #00ABDC",
"G. c #12A1D7",
"H. c #1AA2D8",
"J. c #00B1DF",
"K. c #39A0CE",
"L. c #2AA2D7",
"P. c #24A4D9",
"I. c #29A5D9",
"U. c #32A7DA",
"Y. c #38A4D8",
"T. c #33A8DA",
"R. c #3BAADB",
"E. c #00B1E0",
"W. c #06BAE2",
"Q. c #4D9DC6",
"!. c #42ACDB",
"~. c #4CAFDC",
"^. c #51A7D0",
"/. c #56B3DF",
"(. c #58B3DF",
"). c #72B1D1",
"_. c #75B6DB",
"`. c #53B2E1",
"'. c #71BBE2",
"]. c #7CC0E4",
"[. c #9E8C84",
"{. c #A3958F",
"}. c #B49E92",
"|. c #BDA79A",
" X c #949FA8",
".X c #A6B0B8",
"XX c #C5AFA4",
"oX c #CAB3A7",
"OX c #CFB9B2",
"+X c #CDC4BF",
"@X c #D3C5BE",
"#X c #85B4CE",
"$X c #8EB8D0",
"%X c #A8BBC9",
"&X c #B9BECA",
"*X c #80BFE0",
"=X c #87C0DF",
"-X c #B3C7D3",
";X c #BCCAD3",
":X c #B7CCDA",
">X c #86C4E6",
",X c #8DC5E5",
"<X c #96C7E5",
"1X c #94CCEA",
"2X c #9CCEEA",
"3X c #9DD0EC",
"4X c #A3D1EC",
"5X c #A4D3ED",
"6X c #ADD8EE",
"7X c #B5DAEE",
"8X c #BADDF1",
"9X c #C7C9CA",
"0X c #D1C9C4",
"qX c #DACEC8",
"wX c #DCD1CB",
"eX c #C3CDD3",
"rX c #CACFD2",
"tX c #C6D2D9",
"yX c #CAD4DA",
"uX c #D5D9DB",
"iX c #EEDACF",
"pX c #F3DCCF",
"aX c #E7DBD3",
"sX c #F4E2D6",
"dX c #CEDDE6",
"fX c #C1DFF0",
"gX c #D6E3EA",
"hX c #C4E2F3",
"jX c #CCE6F4",
"kX c #CBE9FA",
"lX c #D4ECFA",
"zX c #E8EDF0",
"xX c #EEF3F7",
/* pixels */
"+.+.&.&.$.%.&.&.$.#.#.#.#.#.#.$.$.o... . .d x ~ -X5XP.i.z.z.z.z.z.z.v.z.z.z.z.z.z.z.z.z.z.v.z.z.z.m.z.z.z.z.z.z.m.z.z.z.z.z.v.z.",
"*.#.#.#.#.#.#.#.#.#.#.#.#.#.#.#.o...h f u # @ R .X>XM.q.u.z.z.z.z.z.z.z.z.z.z.z.z.z.z.z.z.z.z.m.z.z.z.z.z.m.z.z.z.z.z.z.z.z.z.z.",
"*.#.#.#.#.#.+.#.#.#.#.#.#.$.$.+...h g u a @ - P d.M.i.q.q.l.z.z.z.z.k.l.z.z.z.z.v.z.z.z.m.z.z.z.z.z.z.v.z.z.z.z.z.m.z.z.z.z.z.z.",
"*.#.#.#.$.#.#.#.#.#.#.#.#.$.#.+...h g u a @ - q H 4.z.v.j.u.j.j.k.z.k.k.k.z.z.v.z.z.z.z.z.z.z.z.z.z.z.l.z.z.z.z.z.z.z.z.z.z.v.k.",
"*.#.#.#.#.#.#.#.#.#.#.#.#.$.#.#.+...h d u s c n P e.%X1XB.t.t.0.a.z.z.k.l.z.z.z.z.v.z.z.z.z.z.z.z.z.z.z.z.z.z.z.z.z.z.z.v.z.v.k.",
"*.#.#.#.#.#.#.#.#.#.#.#.#.#.#.$.$.+... .h l V 5 5 | sXlX!.r.r.4.a.v.z.z.v.z.z.z.z.z.z.z.z.z.z.z.z.M.!.!.M.z.z.z.z.z.z.z.z.z.z.v.",
"*.#.#.#.#.#.#.$.#.#.#.#.#.#.#.$.$.$.#.X. .l V 7 5 | pXzX!.r.9.y.j.z.z.z.z.z.z.z.v.z.z.z.z.z.z.l.z.R.5X5XR.l.z.m.v.z.z.z.z.v.z.z.",
"*.#.#.#.$.$.#.#.#.%.#.#.#.#.#.$.$.$.#.X. .l c ^ ' |.rX<XM.r.r.t.j.z.z.z.z.z.z.v.s.a.l.m.z.z.z.z.l.R.5X5XR.z.l.m.z.z.v.z.z.z.z.z.",
"*.#.#.#.$.$.#.$.%.%.$.$.#.#.#.$.$.#... .h l c ) OXeX_.z.y.t.t.4.0.z.m.z.z.z.z.L.f.E a.v.z.z.z.z.z.N.!.R.N.z.z.z.v.z.z.v.z.z.z.z.",
"*.$.$.#.o.o.#.$.+.o.+.#.%.%.$.$.+...h f t a c _ &X1XN.9.9.i.y.5.a.z.l.z.z.k.C.#X=.8 K p.Q.R.N.z.z.z.l.z.z.z.M.z.l.l.l.l.z.z.z.z.",
"*.$.$.o.....o.o.....o.$.%.%.%.+...h g t a - c R g.B.i.9.9.i.l.j.k.z.z.z.z.s.#XrX-.6 n e.-X2XI.z.z.z.l.z.z.z.v.l.j.q.y.j.z.z.M.z.",
"*.#.+...h h ....g h o.#.+.o.+... .g f y O 4 ) e.4.8.t.q.t.i.z.N.N.N.N.M.v.a.#XgXoX} } |.yX3XI.z.z.z.z.z.l.l.l.j.i.q.q.k.l.m.z.z.",
"*.#...g j g h h j  .+.+...h h h h f k o $ / XX%Xz.7.9.q.q.i.N.J.J.J.J.D.M.k.C.>XdXwXwXuX,XT.N.z.z.z.m.z.i.q.q.y.l.l.l.l.z.z.z.z.",
"@.X.h g g g g g g  ...X.h g g f d t z o & / XXtX_.z.y.q.y.z.D.F.F.F.F.F.A.M.v.v.).%X-X$XA.v.z.z.z.z.z.l.y.y.j.j.l.z.l.z.z.z.z.z.",
"O.h g g g g g f g h  .h g g g u a # p p : r ( XXtX,Xc.t.z.D.D.M.N.N.M.A.F.F.M.l.s.a.a.k.v.z.z.z.z.z.z.z.l.l.l.l.l.z.z.z.z.z.z.z.",
"k d d u u t f f u d f g g h j i $ . % % 8 < 6 | iXjX!.t.M.F.D.N.N.N.M.D.F.D.N.z.z.z.z.z.z.z.z.z.z.z.z.z.l.l.l.v.U.(.(.R.M.z.z.z.",
"z z # # # a p p # a u h h j k x $ @ + $ c 6 6 | iXlX!.r.z.N.F.E.J.J.D.F.N.M.m.z.l.z.m.z.m.z.z.z.z.z.z.z.v.l.l.G.2XjXjX3XI.l.m.z.",
"z % + . . @ % % + $ i g t u p % : = @ - 7 7 7 | iXlX!.r.l.M.D.E.W.J.F.D.M.z.z.z.v.k.z.z.z.z.z.z.z.z.z.N.R.!.~.].7XjXjX2XI.m.l.l.",
"% + @ = = @ O + @ $ p y a # O O : ; ; < n b e -.iXjXR.9.j.z.M.N.A.A.A.N.M.z.z.v.v.z.z.z.z.z.m.z.z.l.z.L.2XdXgX8X].~.!.R.M.z.m.m.",
"@ @ = , , - @ - > : % % O . + . = ; > 3 m D ( {.$X'.M.q.l.z.z.z.k.c.z.z.z.z.z.v.v.l.l.l.z.z.z.z.z.z.z.L.2XjXjX<Xd.4.s.l.l.l.z.z.",
": = > 1 , > = = > $ + O @ = = = > > , < e ` oX$Xv.j.y.q.l.z.z.z.z.l.z.z.z.z.z.z.z.z.z.l.z.z.z.z.z.z.z.N.R.(.(.^.w.H 1.i.i.j.z.z.",
"8 1 3 3 > > , 1 9 2 - - ; > , , 1 1 , - 6 :.sX3Xz.9.9.y.l.z.M.z.v.z.z.z.z.z.l.l.l.v.R.R.N.z.z.z.z.m.v.z.l.l.z.b.~ * H 1.9.t.l.z.",
"8 4 r r 1 ; , 3 r b n 6 1 > , 9 r w < - w :.sX8XB.r.9.y.l.z.z.z.z.z.z.z.z.z.z.l.l.U.5X5X!.l.z.m.z.m.M.z.l.l.l.H.! = * J >.t.l.z.",
"8 9 m N r , ; 9 n D D m 3 > ; 3 N N w - 4 | sXkX!.9.9.0.j.z.z.z.v.z.z.z.z.M.R.!.~.>X8X5XU.z.l.z.z.z.z.M.R.~.K.g.P     q <.N.z.z.",
"8 3 m A N 9 3 3 m D D m 3 ; ; 9 e Z N 6 w | iXjXR.r.r.4.a.m.z.m.z.z.z.l.z.I.3XjXjX7X].U.M.z.z.z.z.z.v.I.3X:Xf.I : .   U .X<XP.M.",
"0 9 N A D n 3 3 n A A n 3 ; ; 3 m Z Z D ) }.eX,XM.u.u.4.5.z.z.z.z.z.z.l.l.P.2XjXjX2XG.l.l.m.z.z.z.z.z.I.3XyX[.Y T Y R [.rX<XP.M.",
"C m Z A D n 3 3 n A A m 3 ; : 4 r N Z ` oX;X_.l.y.u.u.4.5.z.z.z.z.z.z.z.z.M.T.(.(.U.M.l.l.z.z.z.z.z.z.M.R.=X9XOX+X0X0XtX_.P.M.m.",
"S Z m N B m 9 9 m A A N 9 3 , 3 m 6 e | sXlXU.r.8.q.4.3.a.z.v.z.z.z.m.z.z.m.M.M.z.l.l.z.m.m.z.z.z.v.z.z.v.N.1XhXfXfXhX1XS.z.z.z.",
"S m 9 9 m B m m B B A B m w 1 3 e e b ;.sXkXP.r.8.4.3.a.k.z.z.z.m.l.n.i.l.M.D.N.m.l.l.m.z.z.z.z.z.z.v.z.z.z.B.!.!.!.!.G.M.m.z.z.",
"S r 1 , 9 N Z A A B B A m 9 3 < r ^ ) }.;X1XM.r.8.2.5.v.z.z.z.z.z.j.2.4.y.v.D.F.D.N.N.M.z.z.z.l.l.z.z.z.z.m.z.z.z.z.z.z.z.z.z.z.",
"S n 3 ; , 9 N A A A Z m n 1 > > w ` oX;X_.z.y.t.t.2.0.z.z.z.z.z.z.5.G J 2.i.m.D.F.E.E.D.M.z.z.z.z.z.z.z.z.v.z.z.z.z.m.z.z.z.z.z.",
"S m 9 , ; 3 n A A A Z n 3 ; , < e :.iXkXP.8.8.l.m.x.k.z.z.v.z.z.a.K * q >.n.z.M.D.E.E.D.D.M.N.N.N.M.M.z.z.z.z.m.z.z.z.z.z.z.z.m.",
"S Z m 9 , 3 n B A A Z n 3 , 9 7 e :.aXkXV.7.8.v.Y.N.v.z.z.z.v.k.w.8 @ * 1.m.B.n.M.N.N.N.F.E.E.E.E.D.M.z.z.z.z.z.z.z.z.z.m.z.z.z.",
"F A A m 9 4 7 b e m Z m 9 9 m 7 e | sXlX!.8.8.c.G.z.z.v.z.v.K.).!     X H 6.(.R.M.z.z.M.D.E.F.E.J.D.M.z.z.k.a.a.k.l.z.z.z.z.m.z.",
"F A A Z m m m b b N Z N m m B 7 e | iXkXR.7.8.c.S.z.z.z.z.H.2X;XR .   . * ! ;X3XI.z.l.M.M.N.N.N.N.M.M.z.l.a.Q Q 3.l.l.m.z.v.z.z.",
"0 6 7 7 e A ( } } ) A 7 7 7 7 M ) }.eX,XM.7.9.c.L.z.z.z.z.L.3XeX:.R T T T [.eX3XP.z.z.z.z.z.z.z.z.z.z.z.a.w.U U L 4.j.l.z.z.z.z.",
"8 4 7 7 b ) XXwXwXXX( e 7 7 w ) XXeX_.z.y.9.9.M.P.z.z.z.z.M.R.=XeX0X0X0X@X9X*XR.M.z.m.z.z.z.z.z.z.z.z.a.Q Y N B U E 4.i.z.m.z.z.",
"R ( [ _ [ }.tXhXhXtX|.[ _ [ [ |.yX5XV.9.8.8.q.v.N.z.z.z.z.z.z.D.1XhXhXhXfX2XB.m.z.z.z.z.z.z.m.m.v.l.0.<.Y B M ^ M I >.t.l.z.z.z.",
"9X0XqXqXqXyX].!.!.].eXwXqXqXqXtX'.`.M.8.8.q.j.z.v.z.z.z.z.m.z.v.G.R.!.!.!.G.m.z.z.z.z.z.m.z.m.m.z.a.Q Y A B B M M I >.u.l.z.z.z.",
"fXhXhXhXhX1XS.z.z.B.1XhXhXhXhX>XB.A.L.i.y.l.z.l.l.l.z.v.z.z.z.z.z.z.z.z.z.z.z.z.z.M.z.z.l.z.L.Q.p.L 0 e 7 n b 5 5 Y g.B.M.z.m.z.",
"R.!.!.!.!.G.z.z.z.M.V.!.!.R.!.N.z.L.,X<X<X'.G.l.l.l.z.z.z.z.z.z.z.z.z.z.z.z.z.z.z.M.z.l.j.c.<X%X~ v 6 b m b b 5 e ( .X3XP.m.m.z.",
"z.z.m.z.z.z.z.z.z.z.m.z.z.z.z.z.z.I.3XjXjX7X].~.!.R.N.z.z.z.z.z.z.z.z.z.z.z.M.z.z.z.z.z.i.c.<XrX|.{ _ } } } } _ [ }.yX<XV.m.z.z.",
"z.v.z.z.z.z.z.M.z.v.z.z.z.z.z.z.z.M.R.!.~.].6XjXjX2XL.z.l.z.z.z.z.z.z.v.z.z.z.z.z.z.z.z.l.v.Y.*XrXwXwXwXwXwXwXqXqXyX_.V.v.z.z.z.",
"z.z.z.z.z.z.z.z.z.z.z.z.z.m.z.z.z.z.l.l.l.G.3XlXlX3XP.l.z.z.z.z.z.z.z.z.m.z.z.z.z.z.z.z.z.z.z.S.1XhXfXfXfXhXfXhXhX1XG.M.z.z.z.z.",
"z.z.z.z.z.z.z.z.z.z.z.z.z.z.z.z.z.z.l.l.l.M.U.(.(.R.M.z.z.z.z.z.z.z.z.m.z.z.m.z.z.m.z.z.M.z.v.M.H.!.R.Y.Z.Z.Z.Z.R.H.M.z.z.z.z.z.",
"z.z.z.z.z.l.l.z.z.z.z.z.z.z.z.m.z.z.z.z.z.z.l.i.i.l.z.v.m.v.z.z.z.z.z.z.z.z.z.z.z.z.z.z.z.z.m.z.z.v.z.k.j.q.y.i.l.z.M.z.z.z.z.z.",
"z.m.z.z.z.l.l.z.z.v.z.z.k.z.z.z.z.z.z.M.v.l.y.9.q.y.z.z.M.z.z.z.v.m.z.z.z.z.z.z.z.z.m.z.z.z.z.z.z.z.z.z.z.l.l.l.z.z.v.z.z.z.k.v.",
"z.z.z.M.R././.U.v.l.l.z.k.z.v.z.z.z.z.z.z.l.j.y.4.3.y.l.l.l.z.z.z.z.z.z.v.m.z.z.z.z.z.z.z.m.z.z.z.m.z.z.z.z.v.z.z.z.z.z.z.z.z.v.",
"z.l.z.I.2XjXjX2XH.l.l.z.l.z.z.z.z.z.z.v.z.z.l.b.w.E ,.t.q.q.z.z.M.z.z.z.z.z.z.z.z.v.z.z.z.z.z.z.z.z.z.z.M.z.m.m.z.z.v.z.z.z.z.m.",
"z.l.z.I.2XjXjX8X].U.M.z.z.z.z.z.m.z.z.z.z.M.R.#X] 0 J 3.C.L.v.v.z.z.m.z.z.m.z.z.z.z.z.z.z.z.z.z.m.z.z.z.z.z.z.z.z.z.z.z.m.z.z.z.",
"z.z.z.M.R.!.~.>X8X5XU.z.z.z.z.z.z.z.m.z.m.I.3X9X` < 0 e.&X2XP.v.z.z.z.z.z.z.z.z.m.z.z.z.z.z.z.z.z.v.m.z.z.z.z.v.z.z.z.z.z.m.z.z.",
"z.z.z.z.z.l.l.U.5X5XR.z.z.z.z.z.z.z.z.z.z.I.3XyX}._ [ XXdX3XI.z.z.z.z.z.m.z.z.z.z.z.l.M.M.M.m.z.z.z.z.z.z.m.m.z.z.z.m.z.z.z.z.z.",
"z.z.z.z.l.l.l.M.Y.!.N.z.z.z.z.z.z.z.z.v.z.M.R.>XyXqXwXgX1XR.v.z.z.z.m.z.z.z.z.z.z.z.l.M.D.F.M.z.z.z.z.z.z.z.v.z.z.z.z.z.z.z.z.m.",
"z.z.z.z.z.m.z.z.m.z.n.l.z.z.z.z.z.z.z.z.z.z.z.A.<XhX:X#XM.z.z.v.z.z.z.z.l.z.M.N.N.M.N.D.F.F.N.z.z.m.z.z.k.l.l.l.l.z.z.z.z.v.z.z.",
"z.z.m.z.z.z.z.z.l.l.i.l.l.z.z.z.z.z.z.z.z.z.z.m.H.Y.d.s.v.z.z.z.z.z.z.z.z.M.D.E.J.E.E.F.N.M.v.z.m.M.z.z.l.l.z.l.z.l.z.z.z.z.z.z.",
"z.z.z.z.z.z.m.m.m.y.2.2.y.z.z.z.z.v.z.z.z.z.z.z.z.z.M.M.z.z.z.z.z.M.M.M.N.D.F.E.F.E.E.D.M.z.z.z.j.j.l.v.R././././.R.M.z.z.m.z.z.",
"z.z.z.z.z.z.m.m.z.3.G J 2.l.n.m.z.z.z.z.z.z.z.z.z.z.z.z.z.z.z.z.z.M.D.E.E.F.B.N.M.N.N.M.m.z.z.s.<.<.5.s.$XjXlXjXjX3XL.z.z.z.z.z.",
"z.v.z.z.v.j.5.6.3.H & q <.B.M.m.z.v.z.z.l.z.l.l.z.m.z.z.z.z.z.z.z.M.D.E.E.D.M.z.z.l.z.z.z.z.k.a.I U K >.h.-XdXgXjX3XL.z.l.z.m.z.",
"z.z.z.z.z.a.h. XW &   C .X<XP.z.v.z.z.z.z.l.z.z.z.z.z.z.z.z.z.z.z.M.M.N.N.M.m.z.z.z.z.z.m.z.z.p.Y Z U K ,.d.Q.(.(.R.M.z.l.m.z.z.",
"z.z.z.v.v.k.$XyX{.U T [.eX,Xb.l.i.i.l.m.U.(.(.R.M.z.z.z.z.z.z.z.z.z.z.z.z.z.z.z.z.z.z.z.M.k.a.L v 5 5 I g.d.s.z.z.z.z.l.z.m.z.z.",
"z.z.z.v.z.v.Y.,XyX+X+XeX_.B.j.t.t.q.j.G.3XjXjX2XI.z.l.z.z.z.z.z.z.z.z.z.z.z.z.z.z.v.z.M.`..X~ C r 5 5 ( %X<Xb.l.l.k.k.z.z.z.z.z.",
"m.z.z.z.M.z.z.S.1XhXhX1XV.m.y.y.z.c.U.'.6XjXjX2XI.z.z.z.z.z.z.m.z.z.z.z.z.z.z.z.z.z.z.M.(.;X}._ _ _ _ |.yX3XL.v.z.z.z.z.z.z.v.z.",
"z.z.z.m.z.z.z.M.H.!.!.H.M.l.l.V.,X8XhX5X].`.~.R.M.z.z.z.m.z.z.z.z.z.z.z.m.z.z.z.z.z.z.v.A./.;XqXqXqXqXtX_.P.M.z.z.z.k.z.l.z.z.z.",
"z.z.z.z.z.z.z.m.M.M.M.M.z.l.z.U.8XxXxX8X/.M.M.M.z.z.z.z.z.z.z.z.m.z.z.z.z.m.z.z.z.z.z.z.z.A.4XzXzXzXzX8X/.M.v.z.z.z.z.k.z.z.z.v."
};
