/* XPM */
static char *result[] = {
/* columns rows colors chars-per-pixel */
"64 64 236 2 ",
"   c #2E120B",
".  c #391701",
"X  c #2C2803",
"o  c #332302",
"O  c #392506",
"+  c #263602",
"@  c #38310D",
"#  c #392416",
"$  c #293717",
"%  c #243914",
"&  c #471B01",
"*  c #47270A",
"=  c #45240D",
"-  c #462914",
";  c #462915",
":  c #4B2A15",
">  c #4C2B19",
",  c #522E13",
"<  c #562D16",
"1  c #55321C",
"2  c #59371C",
"3  c #643619",
"4  c #6A3C1E",
"5  c #473326",
"6  c #593825",
"7  c #4F3D33",
"8  c #633D24",
"9  c #6B3F22",
"0  c #055801",
"q  c #165C01",
"w  c #0E4F11",
"e  c #1A4818",
"r  c #254201",
"t  c #2C4F10",
"y  c #384518",
"u  c #066302",
"i  c #006C01",
"p  c #007400",
"a  c #007C00",
"s  c #00740A",
"d  c #096311",
"f  c #1D6719",
"g  c #007A12",
"h  c #055624",
"j  c #334125",
"k  c #60571F",
"l  c #514A32",
"z  c #654427",
"x  c #6D4125",
"c  c #6B432B",
"v  c #71462C",
"b  c #74492C",
"n  c #634839",
"m  c #754B30",
"M  c #794D32",
"N  c #704F3B",
"B  c #6A583C",
"V  c #785139",
"C  c #2C3E49",
"Z  c #294352",
"A  c #27566F",
"S  c #375869",
"D  c #2C5971",
"F  c #564945",
"G  c #554E50",
"H  c #6C5545",
"J  c #755C4D",
"K  c #795A48",
"L  c #6B5950",
"P  c #726259",
"I  c #465B67",
"U  c #56646C",
"Y  c #476778",
"T  c #8B6B57",
"R  c #8A6D55",
"E  c #967258",
"W  c #88766C",
"Q  c #997966",
"!  c #A67C63",
"~  c #008502",
"^  c #008C05",
"/  c #009308",
"(  c #009A0E",
")  c #008618",
"_  c #009C11",
"`  c #00941C",
"'  c #00A10E",
"]  c #00A516",
"[  c #00A916",
"{  c #00A51B",
"}  c #00AA18",
"|  c #00A328",
" . c #00A628",
".. c #00A234",
"X. c #96816E",
"o. c #A68369",
"O. c #AB836B",
"+. c #A38574",
"@. c #0D698F",
"#. c #006599",
"$. c #006AA7",
"%. c #0074A3",
"&. c #0279A5",
"*. c #0073AC",
"=. c #007CAB",
"-. c #107BA9",
";. c #0066BB",
":. c #006CBA",
">. c #007EB2",
",. c #0073BD",
"<. c #0078B9",
"1. c #2273A3",
"2. c #4A758B",
"3. c #577E94",
"4. c #747C84",
"5. c #1A67CB",
"6. c #0075C3",
"7. c #007BC3",
"8. c #007AC9",
"9. c #326DCD",
"0. c #A17E89",
"q. c #837BDE",
"w. c #0082B4",
"e. c #0084BA",
"r. c #008ABC",
"t. c #1287B5",
"y. c #2F8AB2",
"u. c #5E8499",
"i. c #6F818E",
"p. c #5191B1",
"a. c #6793AF",
"s. c #7EA4B9",
"d. c #0083C5",
"f. c #008AC5",
"g. c #0085CB",
"h. c #008DCE",
"j. c #0092CE",
"k. c #0699CE",
"l. c #1A98CC",
"z. c #008ED0",
"x. c #0095D2",
"c. c #009AD4",
"v. c #029ED9",
"b. c #199CD4",
"n. c #2397CA",
"m. c #289CD3",
"M. c #3B99D0",
"N. c #01A0D6",
"B. c #0DA0D6",
"V. c #00A5DA",
"C. c #00ABDC",
"Z. c #12A2D6",
"A. c #1AA1D6",
"S. c #1DA6DA",
"D. c #00B1DF",
"F. c #28A5D7",
"G. c #29A5D9",
"H. c #34A3D4",
"J. c #36A6D4",
"K. c #31A7DA",
"L. c #38A6D9",
"P. c #34A9DA",
"I. c #3BAADB",
"U. c #1CAAE2",
"Y. c #00B3E1",
"T. c #00BAE4",
"R. c #34B8E1",
"E. c #479DC6",
"W. c #47ABD5",
"Q. c #42ACDC",
"!. c #4AABD9",
"~. c #57ABD4",
"^. c #56B3DF",
"/. c #58B3DF",
"(. c #70AFD0",
"). c #79B6D9",
"_. c #738DE4",
"`. c #52B9E3",
"'. c #69BAE4",
"]. c #74BEE5",
"[. c #38C1E6",
"{. c #51C6E9",
"}. c #7AC3E6",
"|. c #75D0F2",
" X c #9F8D85",
".X c #888E93",
"XX c #B49D91",
"oX c #BAA89A",
"OX c #BFB39F",
"+X c #99A1A7",
"@X c #B8B1AC",
"#X c #C6A3A0",
"$X c #CAB4A6",
"%X c #D2C5BE",
"&X c #85B6CD",
"*X c #8FB8D7",
"=X c #A6BDCD",
"-X c #9A89E3",
";X c #8DB4E4",
":X c #B3ACEE",
">X c #C6AFD0",
",X c #C1AFF1",
"<X c #E4BAEB",
"1X c #B8C8CC",
"2X c #ACC4D5",
"3X c #B6CAD6",
"4X c #85C4E5",
"5X c #8CC5E4",
"6X c #89C8EA",
"7X c #97C9E6",
"8X c #94CBE9",
"9X c #9BCEEB",
"0X c #9DD0EB",
"qX c #9FDAF2",
"wX c #A4D3ED",
"eX c #AED4EC",
"rX c #A5D9EE",
"tX c #BBD9EB",
"yX c #B9DDF0",
"uX c #BFE8F6",
"iX c #C8C7C8",
"pX c #D6CBC5",
"aX c #DCD3CB",
"sX c #C3CDD3",
"dX c #C9D2D8",
"fX c #D2D7DA",
"gX c #E6D7CE",
"hX c #F2DBCE",
"jX c #E6D9D3",
"kX c #F7E3D8",
"lX c #D0D6F0",
"zX c #C4E3F3",
"xX c #CDE7F2",
"cX c #CDE6F4",
"vX c #CDEBF9",
"bX c #D1ECFA",
/* pixels */
"h.h.h.h.h.h.z.h.h.h.h.h.h.h.h.h.z.h.h.h.h.z.j.h.z.h.h.h.h.h.h.h.h.h.d.6.6.8.g.1.L k f ) `  . . . .| | | | | | | | | | | | | | ..",
"h.h.h.h.h.h.h.h.z.h.h.h.g.h.h.h.h.h.h.h.h.h.h.h.h.h.z.h.h.h.h.h.h.d.<.6.<.z.l.a.P 2 t g ' } [ [ ' [ ] ] ] ] ] ] ] ] ] ] ] ] { { ",
"h.h.h.h.h.h.h.h.h.h.h.h.h.h.z.h.z.h.h.h.h.h.z.h.h.h.h.h.h.h.h.h.h.g.e.7.8.v.8X=XQ 2 $ g ` [ [ [ ] ] ] ] ] ] ] ] ] ] _ ] ] ] ] { ",
"h.h.j.h.h.h.h.h.h.x.x.c.x.x.h.h.g.h.h.h.h.h.h.h.h.h.h.g.g.g.g.g.h.h.h.g.8.z.7XaX#XP l w g ' [ [ ] ] ] ] ] ] ] ] ] ] ] ] ] ] ] | ",
"f.j.j.h.h.h.h.h.h.c.V.D.Y.V.x.h.z.h.h.z.h.h.z.z.h.h.g.g.g.z.h.h.h.h.h.g.8.6.j.;XdXoXB r 0 ^ ( [ [ ] ] ] ] ] ] ] ] ] ] ] ] ] ] | ",
"f.h.f.h.h.h.h.h.h.x.V.D.T.Y.V.x.c.x.z.h.h.h.h.g.g.x.P.~.(.E.I.H.w.>.g.h.g.8.,.n.1XOXB r 0 a ( [ [ ] ] ] ] ] ] ] ] _ ] ] ] ] ] | ",
"j.h.j.h.h.h.j.h.h.h.x.V.Y.T.Y.Y.D.V.x.g.h.h.h.g.g.A.9X3Xs.H.S.y.I @.d.h.z.g.6.*.i.X.k q u a ( } [ ] ] ] ] ] ] ] ] ] ] ] ] ] ] | ",
"f.h.h.h.h.h.h.h.h.h.h.x.V.D.C.D.Y.V.x.h.h.h.h.x.K.].yX3Xs.y.>.D 7 S d.z.g.z.g.#.F k t p a ^ ' } [ ] ] ] ] ] ] ] ] { ] ] ] ] ] | ",
"h.h.z.h.h.h.h.h.h.h.h.h.x.j.x.c.c.x.x.h.h.h.g.P.wXyX4X~.p.p.I 7 ; A <.h.g.z.8.#.G 2 y g ) ' [ ' ] ] ] ] ] ] ] ] ] ] ] ] ] ] ] | ",
"h.h.h.h.h.h.z.h.h.h.h.h.h.h.f.f.h.h.h.h.h.g.h.Q.wXwXG.d.<.2.l . . C %.h.c.v.z.#.F 6 j h ) ' [ [ ] ] ] ] ] ] } [ ] ] [ } } } ] | ",
"h.h.h.j.h.h.h.h.h.h.h.h.h.h.h.f.h.h.h.h.z.h.h.x.Q.P.x.w.a.+XL . . # C 3.*X|.v.#.F 3 l h g ^ ' } [ ] ] { ] ] { [ ] ] [ [ [ [ ] | ",
"h.h.h.h.h.z.h.z.h.h.h.z.h.h.h.h.h.x.h.h.h.h.h.h.h.h.h.r.*XxXXXJ K K R +.iX6Xz.*.4.R l w u a ^ _ ] } } } } ' ( _ ] ] _ / ( _ ]  .",
"h.z.h.h.h.h.h.h.h.h.h.h.j.x.h.h.h.x.h.h.h.h.h.h.g.g.h.f.m.8XdX%XpX%X%XiX(.f.6.l.=X@XB + 0 p a ^ _ [ } [ { ( ~ ^ _ _ ^ a a ^ _ | ",
"j.h.h.h.h.h.h.h.g.g.h.h.z.h.h.h.h.h.h.h.h.h.h.h.h.h.h.h.h.N.0XvXcXuXqX'.h.,.g.).dXoXN X w i p a / ( ( ] ] ( a a ^ / a i u a ^ ` ",
"h.h.h.h.z.h.z.h.h.g.h.h.h.h.h.h.h.h.h.h.h.h.h.h.h.h.h.h.h.j.F.`.Q.R.v.c.7.g.4XdXoXT 6 @ + h i a a a a ^ ] ( a p a a p i u p a g ",
"h.h.h.z.h.g.h.c.Q.P.x.g.g.h.r.=.f.h.h.h.h.h.h.h.h.h.h.f.h.h.h.h.c.c.x.g.,.Q.bXhXO.2 & 5 j h 0 u i p i a ^ ^ ~ p p p p p a a p g ",
"h.z.h.h.z.g.h.Q.rXwXK.h.g.l.i.S %.h.h.h.h.h.h.h.h.h.h.h.h.h.h.x.V.D.N.,.;.Q.bXhX! 3 * 5 j e + r q p p p a a a p p p p p p p p s ",
"h.h.h.h.h.h.g.P.wXrX}.`.}.=XQ 1 D y.W.n.f.h.h.h.h.x.h.h.h.f.h.x.V.D.j.;.;.L.zXjXo.4 , 5 $ $ X @ t s a a p i q u u u u q q q q d ",
"h.h.h.h.h.h.h.x.K.}.{.|.vXfXo.< 6 .X3X&Xw.h.h.h.h.h.h.h.h.h.h.j.c.c.7.:.:.L.zXjXO.x 3 2 @ X O @ e d s p s q r r e e r + + + + + ",
"j.h.z.h.h.h.z.g.h.V.[.|.vXfXoXE T oXfX*Xr.h.h.h.g.g.g.h.h.h.j.h.h.g.,.:.6.Q.bXhXo.4 4 z * . - ; j e 0 u i q @ X $ $ X o . o O O ",
"h.h.h.x.h.z.h.g.g.f.S.`.}.wXfXpXpXfX5XK.x.j.h.h.d.6.<.d.h.h.x.h.h.d.,.;.,.I.vXhXo.4 4 x < = > ; O X + + w t @ O o o O = * = = ; ",
"h.h.h.h.h.h.h.z.h.h.h.h.h.c.8XzXcX7XN.h.j.j.h.g.d.6.7.7.d.g.h.h.h.g.6.<.,.c.5XsXoXE b 3 , > : = o . o o % j ; = O . : > < > > 5 ",
"h.h.h.h.h.h.h.h.h.h.g.g.h.h.N.Q.Q.Z.x.h.h.h.h.h.g.g.g.d.7.7.g.h.z.h.h.d.<.7.j.(.iX$XE 3 : : : : = = = O X X # : : * : > > > > 5 ",
"z.h.h.h.h.h.h.h.h.h.h.h.h.h.h.h.h.h.h.h.z.h.h.h.z.z.z.h.d.8.g.h.j.h.h.g.7.:.,.M.:X<X#XR 2 : : 1 > > > : = * , 1 > > ; > 1 < > 5 ",
"h.h.h.h.h.h.h.h.h.h.h.h.h.h.h.h.h.h.h.h.x.h.h.h.z.z.x.h.g.h.h.h.h.h.h.h.7.<.,.9.,X<X<XoXL : 2 8 1 > : 1 3 x c 8 2 > ; 1 8 8 6 5 ",
"h.h.h.x.z.h.h.h.h.f.=.e.h.h.h.h.x.h.h.z.h.h.h.h.h.h.h.h.z.j.h.h.h.h.h.g.<.7.6.9.-X,X<XfXW 2 4 c 2 - ; 1 c V M c 1 > > 8 m c 6 6 ",
"h.h.h.h.x.h.h.h.h.=.S 2.l.h.h.h.h.h.z.j.h.h.h.h.h.h.h.h.z.z.h.h.z.h.h.w.*.7.7.;.9._.lXjXo.9 4 c 6 : ; 6 b M V c 1 1 6 v m m v n ",
"h.h.h.z.x.c.y.y.&.A # L &XI.x.h.h.g.g.g.h.h.h.h.h.h.h.h.h.h.h.z.h.h.h.w.&.>.,.:.6.U.zXjXo.b x x 6 = ; 1 c M M 9 < 1 9 M M m m V ",
"h.h.z.h.x.G.*X+XU #   K =XwXG.h.7.6.<.g.g.h.z.h.h.h.j.h.h.h.h.j.h.h.f.f.<.=.*.,.6.V.zXjXO.v 9 c 1 - = 1 c M M z 1 1 c M M m M N ",
"x.h.h.h.h.F.0XdX XH H  X3X2Xb.d.7.,.6.7.h.z.z.h.z.h.h.h.h.z.h.h.h.h.z.h.z.=.%.6.6.Q.bXhX! 4 9 c 1 > > 8 v M M c 6 6 c m m m m N ",
"h.h.h.h.h.x.P.5XfX%X%XsX*Xn.g.7.d.g.g.g.h.h.h.h.h.h.h.h.h.h.h.h.h.h.h.z.h.=.%.6.6.L.cXhXO.9 4 9 6 > 8 v m m m b x v b m m m m N ",
"h.h.h.h.h.h.h.N.7XzXyX7Xc.f.g.h.c.x.x.h.g.h.h.h.h.h.h.z.h.h.z.h.z.f.=.w.f.*.$.6.8.x.5XsXXXE V 9 < : < 8 9 x b m M m m m m m m N ",
"h.h.h.z.h.h.h.x.A.J.H.c.c.V.V.C.D.C.x.z.z.h.h.h.j.h.h.h.h.h.h.h.h.=.Y Y =.=.*.7.8.7.j.).3X$XE 4 < = : 1 8 m m b M M b m m m m H ",
"h.h.h.h.h.h.h.x.j.g.7.g.N.Y.Y.D.D.C.v.c.x.x.z.h.h.h.h.h.h.h.h.h.f.Y n H 2.%.%.*.,.;.:.P.bXkX! < & 3 K Q Q Q K 9 9 b M m M M M N ",
"z.h.h.h.h.h.h.h.h.h.g.h.c.c.c.c.c.v.C.D.Y.V.x.h.h.h.h.h.h.h.x.c.u.H 8 m L Y %.&.*.;.;.G.bXkXO.3 & T oXaXjX$XT 9 9 M b b M V M N ",
"h.h.h.h.h.h.h.z.h.h.z.h.h.h.h.h.h.x.N.Y.Y.V.x.h.h.h.h.c.I.!.J.a.P 4 3 4 8 L 2.y.e.7.6.x.8XsXoXE ! +X3X3X3X@XXXE M 9 9 9 9 9 9 n ",
"h.z.h.h.h.h.j.h.h.h.h.z.h.h.h.h.g.h.j.c.v.x.x.h.h.h.h.G.9X3X.XP c x x 3 x E @X~.h.d.6.7.h.(.iXaXgX3X/.y.p.a.@X$XE 4 4 8 8 1 1 6 ",
"h.h.h.h.z.h.h.h.h.h.h.h.z.h.h.h.h.f.h.h.g.g.h.h.h.h.z.G.9XdXXXQ Q +.o.Q Q $XfX).j.g.,.:.:.j.4XlX3X*XH.w.-.1.&XdXoXo.X.R 6 . . # ",
"h.h.j.h.h.h.h.h.h.h.h.h.h.h.h.z.h.h.h.g.g.g.h.h.z.h.h.x.I.4XpXpXaXjXgXpXgXfX6XN.h.g.,.,.;.7.x.E.y.y.k.c.w.$.r.).sXgXfXOXH .   . ",
"h.h.h.z.h.h.h.h.h.z.j.h.j.h.h.h.h.h.h.c.Q.L.z.g.g.g.g.h.z.B.8XtX3X3XzXtX2X).c.h.h.h.g.7.7.7.6.$.<.h.m.}.].g.,.h.6XlX<X>X0.J K P ",
"h.z.h.h.h.h.h.h.h.f.h.h.h.h.h.h.h.g.h.Q.wXwXK.g.g.g.z.h.h.z.A.H.l.t.L.J.y.j.j.h.h.x.h.g.g.g.6.,.<.6.;XxXbX].f.7.j._.-X-X>XiXiXiX",
"h.h.h.h.h.h.h.h.h.h.h.h.h.h.h.h.h.g.h.K.wXyX6X!.Q././.L.x.h.h.h.h.h.h.h.h.z.h.h.h.h.h.h.z.g.d.6.9.q.,XcXzX9Xk.<.,.5.9.9.:XyXzXzX",
"h.h.h.h.h.j.h.h.h.h.h.h.h.j.h.h.h.h.h.x.G.}.yXzXcXcXcX0XG.g.g.h.h.h.h.h.h.h.h.z.h.z.h.j.h.h.h.x.:X:X;XL.M.b.h.f.g.8.h.z.m.Q.Q.Q.",
"h.h.x.h.h.h.h.h.h.h.h.h.h.h.h.h.z.h.h.g.g.b.wXcXbXxXcX9XG.h.h.h.h.h.z.h.h.h.h.h.h.h.h.h.h.h.h.I.rXrXm.<.6.7.g.g.g.h.h.h.g.z.z.g.",
"h.h.h.h.h.h.h.h.h.h.h.h.h.h.h.h.h.h.h.h.g.z.P././.^./.L.x.h.h.h.h.h.h.h.h.h.h.h.h.h.h.h.h.h.x.c.I.L.j.g.g.d.7.6.6.d.h.h.z.z.h.h.",
"h.h.h.h.h.h.g.h.h.h.h.h.h.h.h.h.h.h.h.h.z.h.g.8.d.g.h.h.h.x.h.z.h.h.h.h.h.z.h.j.h.h.h.z.z.h.h.h.j.h.h.j.h.h.d.6.6.7.g.z.z.z.h.z.",
"h.h.h.h.h.h.h.g.h.h.h.h.h.h.h.h.h.h.h.z.h.g.6.,.,.6.g.h.h.z.z.h.j.h.h.z.h.h.h.h.z.h.h.j.h.h.h.h.h.h.h.j.h.h.h.g.g.h.h.h.h.z.h.h.",
"h.h.h.h.h.c.Q.L.x.d.g.h.h.f.h.h.h.h.h.j.h.h.d.6.6.6.d.g.g.g.d.h.g.x.h.h.h.h.z.h.h.h.h.h.h.h.h.z.z.h.h.h.h.h.h.h.h.h.h.h.h.h.h.h.",
"h.h.h.h.g.I.wXwXP.g.g.h.h.h.f.h.h.h.h.h.h.h.h.g.g.d.7.6.6.7.6.d.h.h.x.h.h.h.h.h.h.h.h.h.h.h.h.j.h.h.h.h.z.h.z.j.z.h.h.h.h.z.h.h.",
"h.h.h.h.h.P.wXyX6X!.Q.L.j.h.h.h.h.h.j.h.h.h.h.z.h.h.d.6.,.,.#.>.h.z.h.h.h.z.h.h.h.h.h.h.h.h.h.j.e.=.f.h.h.h.h.h.h.h.h.z.j.h.h.h.",
"h.h.h.h.h.j.K.}.yXcXcX9XG.g.g.h.h.h.h.h.h.h.j.j.z.h.h.g.g.$.Z 2.l.h.h.h.h.h.h.h.h.h.h.h.h.h.j.b.3.S =.h.x.z.h.h.z.h.h.h.h.h.h.h.",
"h.h.h.h.h.g.g.Z.9XcXcX9XG.h.h.f.h.f.h.h.h.h.h.h.h.x.I.E.=.A   L (.L.x.z.h.h.h.h.h.h.h.h.x.N.Q.&XW 6 I t.E.I.x.h.h.h.h.h.h.h.h.z.",
"h.z.h.z.h.h.g.j.K././.L.x.h.h.f.f.f.f.h.h.h.h.h.h.G.0X=XU #   K iX0XF.h.h.h.h.h.h.g.h.x.V.[.rXsXQ 3 6 4.1X9XG.h.h.h.h.h.h.h.h.h.",
"h.h.h.h.h.h.h.h.f.h.h.e.=.w.h.h.f.f.h.h.z.h.h.h.z.G.0XsX XH H  XsX7XF.h.h.z.x.c.c.c.c.v.C.[.rXfXXXT T XXdX9XB.g.g.g.g.g.h.h.h.h.",
"h.h.z.h.h.j.h.h.g.g.g.%.Y Y =.h.h.f.h.h.h.h.h.h.h.x.I.5XdX%XiXsX4XL.x.h.h.x.V.Y.D.D.D.C.N.V.I.5XdXpXpXfX5XL.j.h.h.d.e.e.g.h.h.j.",
"h.h.h.h.h.h.j.h.h.h.g.%.G n Y w.h.h.h.h.h.h.h.h.h.h.h.N.7XzXzX7XN.h.h.h.x.N.C.C.D.D.D.V.j.h.h.v.7XzXcX7Xc.c.I./.^.^.~.M.j.h.h.z.",
"h.h.h.h.h.h.h.h.h.h.g.#.F 9 n 3.j.h.j.h.h.h.h.h.h.h.h.h.A.Q.Q.A.h.h.h.x.V.C.N.c.x.c.c.x.j.h.h.h.A.Q.Q.v.h.G.wXcXcXcXxX7XF.f.g.h.",
"z.h.h.z.z.j.h.x.H.M.-.D 7 3 8 W ).J.j.h.h.g.g.g.g.h.h.h.h.h.h.h.h.h.h.x.C.V.c.h.g.h.h.h.h.h.h.h.h.h.h.g.g.G.9XcXcXcXxX9XG.g.g.h.",
"h.h.h.h.h.z.h.F.7X1X4.n 6 3 9 Q sXwXF.g.h.g.g.h.g.h.h.h.h.h.z.h.h.h.h.x.c.x.h.h.h.f.h.h.h.h.h.h.h.h.h.h.h.x.I./.^./.^.L.x.h.h.h.",
"h.h.h.h.h.j.h.A.7XdXXXQ E E Q oXsX7Xc.f.F./././.^.I.x.h.h.z.h.h.h.h.h.h.h.h.h.h.h.h.h.h.h.h.h.h.h.h.h.h.z.h.h.g.g.g.g.h.h.h.z.h.",
"h.h.h.h.z.j.h.x.K.5XfXaXpXaXaXsX).x.d.k.9XcXcXcXcX0XG.h.g.z.h.h.h.h.h.h.h.h.h.h.h.h.h.h.h.f.h.z.h.h.z.h.h.h.h.g.g.g.g.h.h.j.h.h.",
"h.z.h.j.h.h.h.h.z.N.8XzXzXzXzX6Xj.7.f./.eXcXcXcXcX0XG.g.h.h.h.h.h.h.h.h.h.h.h.h.h.h.h.h.h.h.h.h.h.h.h.h.h.z.h.h.z.h.h.h.h.h.h.h.",
"h.h.h.h.h.h.h.h.h.z.b.Q.Q.Q.Q.c.g.m.5XeX;X!.Q./.^.L.x.z.h.h.h.j.z.h.h.h.h.h.h.h.h.j.h.h.h.f.h.h.h.h.j.h.h.h.h.z.h.h.h.z.h.h.h.h.",
"h.h.h.z.h.h.z.h.h.h.x.x.x.x.x.z.h.!.yXzX'.c.x.x.c.x.x.h.h.z.h.h.h.h.h.h.h.h.h.h.h.h.h.h.h.h.h.h.h.h.z.h.h.h.h.h.h.h.j.h.h.h.z.h."
};
