/* XPM */
static char *result[] = {
/* columns rows colors chars-per-pixel */
"64 64 225 2 ",
"   c #29100F",
".  c #361C00",
"X  c #3A1803",
"o  c #1C3F1B",
"O  c #2C2703",
"+  c #322403",
"@  c #3B2303",
"#  c #312A05",
"$  c #3C2309",
"%  c #342909",
"&  c #2A3300",
"*  c #253A04",
"=  c #353603",
"-  c #262E10",
";  c #3D2615",
":  c #253512",
">  c #2A3618",
",  c #3D3216",
"<  c #421C04",
"1  c #432905",
"2  c #45240D",
"3  c #49250D",
"4  c #46290E",
"5  c #4A280F",
"6  c #572A0E",
"7  c #4E330C",
"8  c #452913",
"9  c #452815",
"0  c #4A2A15",
"q  c #4D2C19",
"w  c #542C12",
"e  c #512D1A",
"r  c #45331C",
"t  c #54311C",
"y  c #5B351A",
"u  c #62361A",
"i  c #65391D",
"p  c #693C1E",
"a  c #473224",
"s  c #4A3224",
"d  c #5B3620",
"f  c #5E3922",
"g  c #573B2A",
"h  c #4B3D32",
"j  c #623C24",
"k  c #6B3E22",
"l  c #653F28",
"z  c #0D5B00",
"x  c #135C00",
"c  c #1C5A06",
"v  c #194C17",
"b  c #0D5719",
"n  c #195F16",
"m  c #244201",
"M  c #224C00",
"N  c #21590C",
"B  c #274A1E",
"V  c #026502",
"C  c #0B6100",
"Z  c #006C01",
"A  c #006608",
"S  c #02690A",
"D  c #056A0C",
"F  c #007400",
"G  c #007C00",
"H  c #00730D",
"J  c #0D5227",
"K  c #44411A",
"L  c #564237",
"P  c #664020",
"I  c #6D4225",
"U  c #664029",
"Y  c #6C442B",
"T  c #724427",
"R  c #71462C",
"E  c #734A2E",
"W  c #644635",
"Q  c #674A38",
"!  c #754B30",
"~  c #794D32",
"^  c #7C5035",
"/  c #73513C",
"(  c #7B5239",
")  c #26495A",
"_  c #0D4162",
"`  c #34586A",
"'  c #35657B",
"]  c #574E49",
"[  c #6B5446",
"{  c #745949",
"}  c #655C57",
"|  c #775E50",
" . c #7A6457",
".. c #475C68",
"X. c #466575",
"o. c #4D6472",
"O. c #6A6969",
"+. c #797B7C",
"@. c #886753",
"#. c #8E6A55",
"$. c #886958",
"%. c #916D59",
"&. c #94735F",
"*. c #947562",
"=. c #967A69",
"-. c #9B7B68",
";. c #8E7B70",
":. c #008200",
">. c #008C05",
",. c #008F0A",
"<. c #009205",
"1. c #00960C",
"2. c #00990D",
"3. c #028914",
"4. c #009C11",
"5. c #009818",
"6. c #00A20D",
"7. c #00A516",
"8. c #00A817",
"9. c #00A51B",
"0. c #00AA19",
"q. c #009622",
"w. c #389926",
"e. c #00A326",
"r. c #00AE24",
"t. c #00A328",
"y. c #00A92D",
"u. c #00B229",
"i. c #00A635",
"p. c #02B735",
"a. c #15BC39",
"s. c #2EAE32",
"d. c #2AB939",
"f. c #42AE35",
"g. c #2DBD4B",
"h. c #46C646",
"j. c #346F87",
"k. c #0378A5",
"l. c #007DAC",
"z. c #007DB3",
"x. c #497086",
"c. c #7F7F80",
"v. c #0076C0",
"b. c #007CC3",
"n. c #0484AC",
"m. c #0082B3",
"M. c #0088BA",
"N. c #2685AD",
"B. c #638395",
"V. c #0083C4",
"C. c #0089C7",
"Z. c #0085CB",
"A. c #008CCE",
"S. c #0092CE",
"D. c #0798CF",
"F. c #1C9ACD",
"G. c #008FD0",
"H. c #0095D1",
"J. c #009AD4",
"K. c #099ED5",
"L. c #2498C9",
"P. c #289DD3",
"I. c #329FD4",
"U. c #02A0D7",
"Y. c #05A5D9",
"T. c #11A1D7",
"R. c #19A2D8",
"E. c #00B1DF",
"W. c #28A4D8",
"Q. c #2AA5D9",
"!. c #34A6D8",
"~. c #3AAADA",
"^. c #46A2CD",
"/. c #42ACDB",
"(. c #4BAEDC",
"). c #55B3DF",
"_. c #5BB4DE",
"`. c #7BADC8",
"'. c #68B4DC",
"]. c #7CBADB",
"[. c #53B9E8",
"{. c #6ABBE2",
"}. c #79BEE3",
"|. c #6FC2EB",
" X c #7DC1E4",
".X c #9C8C84",
"XX c #A99A92",
"oX c #B59E92",
"OX c #B7A59B",
"+X c #BBAFA8",
"@X c #C2AFA3",
"#X c #C6B3A8",
"$X c #C4BDBA",
"%X c #88B7D0",
"&X c #ABBDC9",
"*X c #81BFE1",
"=X c #90C0DA",
"-X c #AFC1CB",
";X c #B7C3CA",
":X c #BBCBD6",
">X c #8CC6E5",
",X c #94CBE9",
"<X c #9CCEEB",
"1X c #9ED0EC",
"2X c #A5D3ED",
"3X c #B4D9EE",
"4X c #BADDF0",
"5X c #C9C8C7",
"6X c #D4CAC5",
"7X c #D5CBC6",
"8X c #DACEC8",
"9X c #DCD1CB",
"0X c #C3CED4",
"qX c #C5D4DD",
"wX c #C9D2D8",
"eX c #D2D6D8",
"rX c #C5DAE6",
"tX c #C0DFF1",
"yX c #D0E1EB",
"uX c #C4E2F3",
"iX c #CEE7F5",
"pX c #C9EAFA",
"aX c #D8EEF9",
"sX c #E7F3FA",
"dX c #FCFDFE",
/* pixels */
"i.t.t.t.t.t.t.t.t.t.t.t.t.t.t.t.e.e.r.i.g.g.p.e.e.e.e.e.t.t.t.t.t.t.t.t.t.t.t.t.e.e.e.t.e.e.t.t.t.t.t.t.t.t.t.t.t.t.t.t.t.t.t.i.",
"9.7.7.7.7.7.7.7.7.7.7.7.7.7.7.7.6.8.r.p.d.p.r.6.7.7.7.7.7.7.7.7.7.9.7.7.9.7.7.7.7.7.7.7.7.7.7.7.7.7.7.7.7.7.7.7.7.7.7.7.7.7.7.e.",
"7.7.7.7.7.7.7.7.7.7.7.7.7.7.7.7.7.r.p.d.p.r.0.8.7.7.7.7.7.7.7.7.7.7.7.7.7.7.7.7.7.7.7.7.7.7.6.7.7.7.7.7.9.7.7.7.7.7.9.7.7.7.7.7.",
"t.7.7.7.6.7.7.7.7.7.7.7.7.7.7.7.7.p.h.h.u.6.6.8.7.7.7.7.7.7.7.9.7.7.7.7.7.7.7.7.7.7.7.0.r.r.0.7.7.7.7.7.7.7.7.7.7.7.7.7.7.7.7.t.",
"t.7.7.7.7.6.7.7.7.7.7.7.7.7.7.7.6.u.h.h.r.6.6.7.7.7.7.7.7.7.7.7.7.7.7.7.9.7.7.7.7.7.7.r.a.a.r.6.7.7.7.7.7.7.7.7.7.7.7.7.7.7.5.t.",
"t.7.7.0.u.r.0.7.7.7.7.7.7.7.7.7.7.r.s.s.r.7.7.7.7.7.7.7.7.7.7.7.7.7.9.7.7.7.7.7.7.6.6.u.a.a.r.7.7.7.7.7.7.7.7.7.7.7.7.9.7.7.7.t.",
"t.7.6.r.a.a.u.7.7.7.7.7.7.7.7.7.7.4.3.3.4.7.8.7.7.7.7.7.9.7.7.7.7.7.7.7.7.7.7.7.7.7.7.0.u.r.0.7.7.7.7.7.7.7.7.7.7.7.7.7.7.7.7.t.",
"t.9.r.p.s.s.r.7.7.7.7.7.7.7.7.7.8.2.>.:.2.0.0.7.7.7.7.7.7.7.7.7.5.7.7.7.7.9.7.7.7.7.7.7.7.7.7.7.7.7.7.7.7.7.7.7.9.7.7.7.7.7.7.t.",
"y.u.a.f.w.3.2.8.7.7.7.7.7.7.7.8.7.7.<.2.6.7.8.7.7.7.7.7.7.7.7.7.9.7.7.7.7.7.7.7.7.7.7.7.7.6.7.7.7.9.7.7.7.7.7.7.7.7.7.7.7.7.7.t.",
"y.u.d.w.,.>.2.0.0.8.8.7.7.7.7.8.8.0.8.0.0.8.7.7.7.7.0.0.0.0.7.7.0.0.0.0.0.0.7.7.0.0.0.7.8.7.7.7.7.7.7.7.7.8.8.8.7.0.0.0.7.0.0.t.",
"t.5.5.3.1.1.7.8.8.8.7.7.7.7.7.7.8.0.8.0.8.7.7.7.7.7.0.7.8.7.7.7.7.7.9.8.0.7.7.7.7.7.8.8.8.7.7.7.7.7.7.7.7.7.0.8.7.7.0.7.0.0.0.t.",
"q.<.:.:.1.2.2.2.2.4.7.8.0.0.0.7.2.2.2.1.2.4.7.0.0.7.2.2.2.4.7.7.4.2.2.1.2.2.9.7.4.2.2.2.7.0.0.8.8.0.0.8.7.7.2.4.7.7.4.2.2.2.2.q.",
"3.:.<.1.>.G :.F G >.4.0.8.0.0.2.>.:.G G G >.2.0.0.4.>.G G >.4.4.>.:.F G :.>.4.4.>.G G >.4.8.0.8.7.9.8.8.7.2.>.>.4.4.>.:.G :.G 3.",
"H :.<.<.:.F F F Z G >.4.4.4.4.>.F F F F F :.<.4.4.<.G Z Z G >.1.G F F F F :.1.<.G Z Z G >.4.2.2.2.2.1.7.9.2.G F >.1.G Z Z Z F D ",
"H F :.:.F F F F Z F G G G :.G G F F Z F F F G :.G G Z Z Z F G G F F F Z F F G G F F Z F F :.:.:.G G G >.4.4.G F F G F Z Z Z Z H ",
"H D S V x x x C Z F G F F F F F S A C x x C Z F F F G F G F F Z C C A A z C Z F F F F F F F F F F F Z G >.1.:.F F F F F G F G H ",
"J J J v & & & m C G F F F F F S b v * & & m C F F F F F F G F c m * v v * m x F G F F F F F F F F Z Z F G G G F F F F F F F F H ",
"o J v : + . . = c S V x x C S D J : + X X # M C S S C x x Z G c = + - : + = N S V x x x x x x C A S F F F Z C x A V C x x x x D ",
"> O O + $ < 2 , B v * & & * v v * + $ 2 2 @ = m v v * & & M C c 7 % @ + $ , B v m & & & & & & * v b H F F x m * v v m & & & & * ",
";   O + 9 q 0 , > : O . . O : : O . 4 e e 3 . O : : # . . & c n K 4 . @ 4 r > : O + . . + . . % : v z Z Z c = + - : % @ . + $ % ",
"9 2 4 4 0 e q 8 # O $ 2 4 $ O O $ 4 q e e q 2 $ O O $ < 2 , B B r 0 3 4 q 8 # O $ 2 2 2 2 4 2 X O O & * b B , $ + O $ 2 2 2 2 8 ",
"s q 9 q e d y 0 @ @ 4 q q 0 1 1 e t e 0 0 e t 0 @ @ 8 e q r > > , q e q 0 4 1 1 4 q q q q q 0 8 @ @ 1 = : : , 4 < $ 8 q q q 0 s ",
"s q q t l R Y j w 4 0 0 q e i I Y j t 9 9 t l l q 1 8 e q 8 + # 4 q e q 0 t y u t q q q q q 0 t y P k t % % 4 0 3 4 0 q q 0 q s ",
"a q e j R ~ ~ Y t 9 0 0 0 t Y ^ ^ Y t 0 e j E R j t q 0 q 8 @ @ 4 0 q 0 e j ! E j e 9 5 0 0 t j E ^ ^ U 7 1 0 t e 0 0 q t t q a ",
"s t j R ! ^ ~ Y d 0 0 8 0 t R ^ ^ Y t 0 f Y ~ ~ E U t 0 0 0 4 3 8 0 0 t j R ~ ~ E f t 8 0 t f Y ~ ^ ~ E U P U P d 9 9 t U j t s ",
"s t Y ~ ~ ~ ! Y f t q q t j Y ~ ~ Y f j Y ~ ~ ~ ~ U t 9 9 q q 0 0 0 q j Y ~ ( ~ ^ Y f q 9 t Y ~ ~ ! ! ! ~ ^ ~ Y d 0 e j R R j g ",
"s t Y ~ ^ ! E E Y j e t f Y ! ! ~ E Y Y ! ~ ! ~ ~ Y d 9 0 q q 0 0 e j E ! ~ ! ! ~ E Y f e t Y ^ ~ ! ! ~ ~ ^ ~ U t e j Y ! ~ Y Q ",
"g f Y ~ ~ E ~ ~ ~ U t t U ~ ~ ! E ~ ~ ~ ! ! ! ! ~ Y f t q 0 0 q t f Y ~ ~ ! ! ! E ~ ^ Y f f Y E ~ ~ E ~ E ~ ~ U e t U ~ ~ E ~ / ",
"Q Y E E ! ! E ~ ~ Y t t Y ! ~ ! ~ E ~ ~ ~ ! ! ! ~ E Y P t 9 0 t j R E ~ ! ! ! ! E ~ ~ E Y Y E ! ~ ~ ! ! E ~ ! U t t U ~ ~ ~ ~ / ",
"/ ~ ! ! E ! E ~ ~ U t t U ! ~ ! ~ E Y Y ! ~ ! ! E ~ ~ Y t 9 9 t Y ~ ~ ! ! ! ! ! ~ E E ! ~ ! ! E U R E ~ ! ~ ! Y f d Y ~ ! E E / ",
"/ ! E ! ! E ! ~ ! U t t Y ! ~ ! ~ Y f d U ~ ~ ! ! ~ ~ Y t 9 9 y Y ~ ~ ! ! ! ! ! ! ! E ~ ! ~ ! Y f f Y ~ ~ ! E E Y Y E ~ E E ~ / ",
"/ ~ ~ E ! ~ ~ ~ ~ Y d f Y E ~ ! Y f y d j Y E ! ~ ! E Y f t 9 t U ~ ! E ! ! ! E ! E ~ E ! ~ ~ U t q f Y E ! ! E ~ ~ E ~ E E Y Q ",
"/ ! ! ! E ~ ! ~ ! E Y Y E ~ ! Y d d j l d d Y ! ~ E E E Y f e t U ~ ~ E ! ! E ! ! ! ! ! ! ! ! U d 9 q f Y ~ E ~ ~ ~ E ~ ~ Y f g ",
"W R E ~ ~ E Y Y E ! ~ ! E ~ ! Y j y j l d d Y ! ~ ~ E ~ ~ Y j d Y ~ ~ E ! ! ! ! E ! ! E ! ! ! Y f q 9 e Y ! ~ E E E E ~ ~ Y y s ",
"g d Y ~ ~ Y d j Y E ~ ~ ! E ! E Y j d d j U ! ! ~ E ! ~ ~ E R Y Y E ~ ! ! ! ! E ! ! ! ! ! ! ! E R f e e l ! ~ ! ~ E ! ~ ! Y t s ",
"9 3 u T R d 2 2 y T E ! ~ ~ E ~ ! Y d f Y ~ ~ ~ E ~ E R I I E ~ ~ ~ ~ E E ! ! ! ! ! ! ~ ! R k R E Y f j Y E T k k I E ! Y j 0 ; ",
"9 q j Y j q 2 9 i R ~ ! E ! ! ~ ~ E Y Y E ~ ~ ! E E E E R T ! ~ ! ~ E ~ ! E ~ E E ~ E ~ ~ E T R E ! R Y E E R T T R E R j e 3 9 ",
"$.*.-.| t 9 Q $.*.#.^ p p I E E ! E ! ~ ! E Y Y E R I ^ %.&.^ p i p u i Y ^ ~ ~ E ~ ! k k ( %.%.^ p p p p ~ #.-.-.%.~ 6 < q [  .",
"7X9X9XXXW W XX7X9X@X#.j i Y E ! E ~ ~ ~ ~ Y f d I I I &.#X#X&.I p j t y Y ~ ~ E E ! E k k &.#X#X*.k p p k #.@X9X9X#X#.6 X [ XX$X",
"pXaXaX;X.X.X;XuXuXqXoX*.*.#.~ p p k k T E Y t e k ~ #.+XrXyX+X*.&.*. .{ j u i P k p k R #.OXqXrXOX*.*.&.*.oXqXuXuXqXoX@.{ .X0X4X",
"[.|.{. X:X0X>X~./. XwX8X8X@X#.k i T T R ! l e 5 i #.@XqX}.}.qX9X8X8X6XXX[ w y T T i p @.@X:X'.'.:X8X8X8X9XqX}././.}.wX6X6X0X}.).",
"H.J.K.R.,X<XQ.A.A.K.,XuXuXqXoX*.%.-.=.#.R w < < 6 =.0X}.J.S.*XuXuXuXuXqX.X .#.-.-.&.*.oXqX].A.C.}.tXtXuXuX,XT.A.A.J.,XuXtX,XK.A.",
"A.H.A.A.U.W.H.A.A.H.T././. XwX9X8X9X9X+X{ < X < y XX=XS.C.G.H././././.}.0X6X6X9X9X9X9XwX}.H.Z.Z.J.!.I.I.~.R.H.A.A.A.T.~.~.R.G.A.",
"A.A.A.A.A.A.A.A.A.A.A.A.A.K.,XuXuXuXuX:X.X{ { | *.+X'.A.Z.G.A.A.A.A.A.K.,XuXuXuXuXuXuX,XT.S.A.A.A.Z.b.b.V.Z.Z.H.~.!.S.A.A.A.A.A.",
"A.A.A.A.A.A.A.A.A.A.A.A.A.S.T.(././.!.{.:X6X$X8X8XqX(.A.A.A.A.A.A.A.A.G.T././././././.T.H.A.H.A.A.A.Z.Z.b.b.b.I.2X1XT.G.A.A.A.G.",
"A.A.A.A.A.Z.Z.Z.A.A.A.A.A.A.A.A.A.A.A.K.,XuXtX4X3X].S.S.z.M.A.A.A.A.S.A.A.A.A.A.A.A.A.A.A.A.A.A.A.S.S.Z.b.v.v.I.2X4X>X_._.~.H.S.",
"A.A.A.A.A.Z.A.A.A.A.A.A.A.A.A.A.A.A.A.H.R.!.P.S.S.C.Z.m.` x.F.A.A.A.A.A.A.A.A.S.A.A.A.A.A.A.A.A.A.A.G.A.Z.Z.Z.H.~.}.4XiXiX<XQ.H.",
"A.A.A.H.~.)./.T.G.Z.A.G.A.A.A.A.A.A.A.S.A.Z.V.b.A.L.k._   } `.~.J.A.A.A.A.A.A.A.A.A.A.A.A.A.A.S.A.H.M.l.C.A.A.G.G.T.1XiXiX<XQ.H.",
"A.Z.A.W.<XiXuX,XU.A.Z.A.A.A.A.A.A.A.G.A.A.A.A.H.>X&X..    { $X<XQ.A.A.A.A.A.A.A.A.A.A.A.A.A.A.A.A.L.B...l.H.G.G.A.H.!.).).~.H.H.",
"A.Z.A.R.<XsXdXsX>XQ.H.A.A.V.l.m.C.A.A.A.A.A.G.Q.<X0X.X[ [ .X0X<XQ.A.A.A.A.A.A.A.A.A.A.A.A.A.A.H.~.%X;.s ` N.^.!.H.A.A.A.G.A.A.A.",
"A.A.A.G.Q.,XsXdXsX<XR.Z.A.n...o.l.C.A.A.A.A.H.H.~.>X0X$X5X0X*X~.J.A.A.A.A.S.S.A.A.A.A.A.A.A.A.Q.<X5X*.6 g c.-X1XQ.A.A.A.A.A.A.A.",
"A.A.A.Z.Z.U.,XuXiX<XW.A.Z.k.] [ x.z.A.A.A.A.A.A.A.J.,XiXuX,XK.A.A.S.A.C.m.z.M.A.Z.A.A.H.H.H.H.Q.<XwXoX#.#.oXwX<XQ.A.A.A.A.A.A.A.",
"A.A.A.A.Z.G.T.(.).~.H.G.A.k.[ E [ X.m.A.A.G.A.A.A.H.R.(./.R.H.A.A.A.A.l.X.o.n.C.A.A.Z.H.Y.Y.J.H.~.>XwX8X8XeX>X~.H.A.A.A.A.A.A.A.",
"A.A.A.A.A.A.A.Z.A.H.~.^.N.j.h u k g j.N.^.~.H.A.A.A.A.A.A.G.A.A.A.C.m.X.[ } n.U.J.J.J.Y.E.Y.H.A.A.K.,XuXuX>XJ.Z.Z.A.A.A.G.A.A.A.",
"G.A.A.A.A.A.Z.Z.Z.K.1X-Xc.L 9 e i i ] c.-X<XQ.A.A.A.A.A.A.A.A.G.A.m.X.[ ^ ] n.E.E.E.E.E.J.J.G.A.A.A.R.~.~.J.A.Z.Z.A.A.A.A.G.A.S.",
"A.A.G.A.A.A.G.G.G.Q.,XwXoX%.| $.*.&.&.oXwX<XQ.G.A.A.A.A.A.A.A.A.A.m.} ^ ^ ] j.C.E.E.E.Y.H.Z.A.A.A.A.A.H.~.).).).).~.H.A.A.A.A.A.",
"S.A.A.A.A.G.G.G.G.G.P.*XeX8X6X6X8X8X9XeX>X~.H.A.A.A.A.A.A.A.A.A.A.n.} ^ ~ W L ' M.J.J.H.H.A.A.A.A.A.Z.Q.1XiXiXiXiX<XQ.Z.Z.A.G.A.",
"A.A.A.A.A.A.Z.Z.Z.Z.b.S.>XrXtXiXuXuXuX,XJ.Z.Z.A.A.A.A.A.A.A.A.Z.m.j.} ~ Y U t ] j.z.V.A.A.A.A.A.A.Z.A.Q.1XiXiXiXiX1XQ.A.A.A.A.A.",
"A.A.A.A.G.Z.b.b.v.b.Z.Z.H.!.~././././.J.A.A.Z.Z.A.A.G.A.A.A.A.z.X.} / Y f y P W [ X.l.A.A.A.A.G.A.A.A.H.~.).).).).~.H.G.A.G.A.G.",
"A.S.M.l.Z.Z.b.v.v.V.A.Z.b.b.b.Z.Z.b.Z.H.T.(.).~.H.A.C.A.m.k.k.' [ ~ E f e t Y E ! O.m.G.A.A.A.A.A.A.A.A.A.A.A.Z.A.V.l.M.A.A.A.A.",
"S.F.x.) k.A.Z.Z.Z.A.A.A.A.Z.b.v.v.v.b.J.,XuXiX<XW.A.Z.m.X.] ] ] U E j e 8 t Y R ! +.L.G.A.A.G.A.A.A.A.A.Z.Z.Z.A.Z.k...B.L.G.A.A.",
"'.%X .X ) l.^.(.H.A.A.A.A.Z.b.b.A.D.!.>XaXdXaX1X{.^.N.X.W f r e P P t 9 0 t j i R ;.`.~.H.A.A.A.A.A.A.A.A.H.~.^.N...j ;.%X~.H.G.",
"rX;X .X ; O.-X1XQ.A.A.H.G.Z.Z.K.*XrX4XaXdXsX>X{.2X;XB.Q e t 0 t s t 0 0 0 q t w k -.wX<XQ.G.A.A.A.A.A.A.A.Q.<X-X.Xg i -.5X1XQ.H.",
"yX5X .  $ O.;X3X~.A.A.A.A.Z.Z.!.3XdXsXdXdXiX_./.3X0X;.U e a q e s s a a a a a e U ;.0X3X~.A.G.A.A.A.A.A.G.~.3X0X;.g j =.0X3X!.H."
};
