/* XPM */
static char *result[] = {
/* columns rows colors chars-per-pixel */
"64 64 11 1 ",
"  c black",
". c #000100",
"X c #000200",
"o c #000300",
"O c #000400",
"+ c #010400",
"@ c #000500",
"# c #000501",
"$ c #010501",
"% c #000A00",
"& c #000B00",
/* pixels */
"&ooooooooooooooooooooooooooo+OooooooooooooooooooooooooooOOooOOo&",
".                                                              .",
"                                                                ",
"o                                                              o",
"o                                                              o",
"o                                                              o",
"o                                                              o",
"o                                                              o",
"o                                                              o",
"o                                                              o",
"O                                                              o",
"O                                                              o",
"o                                                              o",
"o                                                              o",
"o                                                              o",
"o                                                              o",
"o                                                              o",
"o                                                              o",
"o                                                              o",
"o                                                              o",
"o                                                              O",
"o                                                              $",
"o                                                              #",
"o                                                              o",
"o                                                              X",
"o                                                              X",
"o                                                              X",
"o                                                              o",
"o                                                              o",
"o                                                              o",
"o                                                              o",
"o                                                              o",
"o                                                              o",
"o                                                              o",
"o                                                              o",
"o                                                              o",
"o                                                              o",
"o                                                              o",
"+                                                              o",
"$                                                              o",
"$                                                              o",
"o                                                              o",
"X                                                              o",
"X                                                              o",
"X                                                              o",
"o                                                              o",
"o                                                              o",
"o                                                              o",
"o                                                              o",
"o                                                              o",
"o                                                              o",
"o                                                              o",
"o                                                              O",
"o                                                              @",
"o                                                              $",
"o                                                              $",
"+                                                              $",
"$                                                              o",
"$                                                              X",
"o                                                              .",
"X                                                              .",
"                                                                ",
"                                                                ",
"%ooooooooooooooooooooooooooooooooooooooooooooooooooooXXXoOooooo%"
};
