/* XPM */
static char *result[] = {
/* columns rows colors chars-per-pixel */
"32 32 3 1 ",
"  c #1C7E2F",
". c #1D9A46",
"X c #00B761",
/* pixels */
"................................",
"................................",
"................................",
"............X.X.................",
".........XX.XXX......... .......",
".........X...X.........  . . ...",
"..........  ......... . ..   ...",
"..................... ....  ....",
"........................... ....",
"................................",
".. .............................",
".. . . .........................",
"....   ...................X.....",
"....  ....................XX....",
"..... .................... .....",
".........................  .....",
"....................... . ......",
"......X.X...X.. ....... ........",
"......XXX.XXX.. ................",
".......X...X.X..................",
".........  .....................",
".......... .....................",
".....................X.X........",
"......................X.........",
"...................X..X.........",
".......... ........X............",
".......... . . .................",
"...X.X......   .................",
"....X.......  ..................",
".X..X........ ..................",
".X..............................",
"................................"
};
