/* XPM */
static char *result[] = {
/* columns rows colors chars-per-pixel */
"64 64 233 2 ",
"   c #371804",
".  c #1E3402",
"X  c #2E2C07",
"o  c #3E2301",
"O  c #293700",
"+  c #1A3C2E",
"@  c #393332",
"#  c #451E05",
"$  c #4B270D",
"%  c #572A09",
"&  c #4D330C",
"*  c #5D311C",
"=  c #63371C",
"-  c #583725",
";  c #423B31",
":  c #673A24",
">  c #733F2A",
",  c #194A06",
"<  c #065500",
"1  c #1B5605",
"2  c #085112",
"3  c #374502",
"4  c #354F0A",
"5  c #026C02",
"6  c #176400",
"7  c #007300",
"8  c #007D01",
"9  c #02790B",
"0  c #006A18",
"q  c #007810",
"w  c #2A6706",
"e  c #39670A",
"r  c #257308",
"t  c #286E11",
"y  c #07562E",
"u  c #2F4E2D",
"i  c #007829",
"p  c #00633E",
"a  c #007D39",
"s  c #43570C",
"d  c #584617",
"f  c #515516",
"g  c #466B16",
"h  c #564835",
"j  c #694524",
"k  c #73462C",
"l  c #6C5236",
"z  c #4F6821",
"x  c #453F41",
"c  c #06504B",
"v  c #264D56",
"b  c #00684F",
"n  c #236C4D",
"m  c #3B5D71",
"M  c #00726B",
"N  c #356379",
"B  c #5A4C46",
"V  c #4F504A",
"C  c #6A5447",
"Z  c #6C574E",
"A  c #7B6458",
"S  c #79785B",
"D  c #445C6A",
"F  c #5D676E",
"G  c #486676",
"H  c #707476",
"J  c #8C5F53",
"K  c #8D6A56",
"L  c #8F7154",
"P  c #8E756A",
"I  c #987663",
"U  c #A07967",
"Y  c #008302",
"T  c #008B01",
"R  c #02870B",
"E  c #009303",
"W  c #009C03",
"Q  c #009709",
"!  c #009B0C",
"~  c #008417",
"^  c #008E12",
"/  c #1F8814",
"(  c #009C12",
")  c #019419",
"_  c #00A502",
"`  c #00A20E",
"'  c #00A515",
"]  c #00A916",
"[  c #00A41B",
"{  c #00AB1B",
"}  c #00B21C",
"|  c #009B23",
" . c #059030",
".. c #238E2B",
"X. c #2C9A23",
"o. c #349A26",
"O. c #00A324",
"+. c #00AC23",
"@. c #00A429",
"#. c #1EAD2F",
"$. c #00B027",
"%. c #00B22B",
"&. c #00A335",
"*. c #00AD34",
"=. c #00B836",
"-. c #07B835",
";. c #11BC39",
":. c #2AAC31",
">. c #30AF32",
",. c #3AB237",
"<. c #60903C",
"1. c #4CB73E",
"2. c #50B83F",
"3. c #05924B",
"4. c #27B847",
"5. c #3DB044",
"6. c #548D53",
"7. c #48BD41",
"8. c #4EBA49",
"9. c #39C242",
"0. c #42C243",
"q. c #48C647",
"w. c #59C84C",
"e. c #57C756",
"r. c #62CB50",
"t. c #63D355",
"y. c #71D055",
"u. c #8B8D64",
"i. c #B48978",
"p. c #005B8B",
"a. c #005C94",
"s. c #006B8D",
"d. c #006798",
"f. c #007A93",
"g. c #366E90",
"h. c #006CA6",
"j. c #017BA8",
"k. c #006ABA",
"l. c #0074BE",
"z. c #0079B8",
"x. c #2C7FA4",
"c. c #4D748B",
"v. c #006DC1",
"b. c #0074C4",
"n. c #007BC3",
"m. c #0076CB",
"M. c #007BCB",
"N. c #149D92",
"B. c #0083AC",
"V. c #0082B3",
"C. c #0D8CB6",
"Z. c #0087BB",
"A. c #2B8CAE",
"S. c #5389A6",
"D. c #6991A6",
"F. c #0083C6",
"G. c #0089C6",
"H. c #0085CA",
"J. c #008DCE",
"K. c #0097C7",
"L. c #0091CE",
"P. c #1899CB",
"I. c #008FD0",
"U. c #0094D1",
"Y. c #009BD4",
"T. c #049CD9",
"R. c #269CCC",
"E. c #349ECC",
"W. c #219ED2",
"Q. c #00A5CC",
"!. c #00A1D7",
"~. c #00A4DA",
"^. c #00ABDC",
"/. c #0DAADB",
"(. c #15A1D7",
"). c #00B1DE",
"_. c #24A4D8",
"`. c #2AA5D9",
"'. c #31A6DA",
"]. c #3FA7D9",
"[. c #33A9DA",
"{. c #3AAADB",
"}. c #22B1DE",
"|. c #18ADE4",
" X c #00B2E1",
".X c #00BAE3",
"XX c #47AEDC",
"oX c #4BABD8",
"OX c #55B2DE",
"+X c #5AB3DF",
"@X c #7AAEC8",
"#X c #79B4D8",
"$X c #5BB3E0",
"%X c #67B9E3",
"&X c #73BBE2",
"*X c #7DC1E4",
"=X c #938985",
"-X c #AC988F",
";X c #BAAD9B",
":X c #8C9BA5",
">X c #8DA7B5",
",X c #93A8B3",
"<X c #ADADB0",
"1X c #ABB3B9",
"2X c #C2A49A",
"3X c #C7B1A9",
"4X c #BDD0AC",
"5X c #CBC1BB",
"6X c #8AB4CA",
"7X c #ADB9C3",
"8X c #AAC2C7",
"9X c #B8C2C9",
"0X c #B2C9D9",
"qX c #84C3E5",
"wX c #8BC8E9",
"eX c #95CBEA",
"rX c #9DCFEB",
"tX c #95D6ED",
"yX c #9DD1EC",
"uX c #97CDF1",
"iX c #A7D4ED",
"pX c #A9D4F0",
"aX c #B8DCF0",
"sX c #D4CDCA",
"dX c #C6CCD7",
"fX c #CBD4D8",
"gX c #F2D8D0",
"hX c #FDE5DD",
"jX c #C6E1EF",
"kX c #C7E6F5",
"lX c #CDE6F4",
"zX c #D3EAF6",
"xX c #D5EEFC",
/* pixels */
"J.J.J.J.J.J.J.J.J.J.J.H.J.J.J.J.J.J.J.I.J.J.J.J.J.J.J.J.J.J.I.J.J.J.J.F.n.Y.pXsXi.l w R ) @.@.@.@.@.@.@.@.O.O.*.4.4.*.*.4.4.*.&.",
"J.J.J.J.I.J.J.J.J.I.J.J.J.J.J.J.J.J.J.J.J.J.J.J.J.I.J.J.J.J.J.J.J.J.J.G.b.U.wXdX2Xu.g Y W ] ] ] $.%.%.$.] ' ' +.>.#.+.{ #.:.+.O.",
"J.J.J.J.J.J.J.J.J.J.J.J.J.J.J.J.I.J.J.J.J.J.I.J.J.J.J.J.I.J.J.J.J.J.J.G.F.M.I.#XdX;X<.8 E ' ] { =.9.0.=.{ ] ' ( R ^ ( ( ^ ^ ( ( ",
"J.J.I.J.J.J.J.J.J.U.U.Y.Y.U.J.H.H.J.J.J.J.J.J.J.J.J.H.J.H.H.H.J.J.H.G.J.I.I.M.U.wX8X6.7 E ' ] $.0.y.y.0.$.' ' ! Y T ! ! T Y ( | ",
"J.J.J.I.J.J.J.J.J.U.~.).).~.U.J.H.J.I.J.J.J.J.J.J.J.J.H.H.I.H.H.J.G.Z.J.I.Y.I.M.I.S.N 0 R ] ] %.0.y.y.9.$.' ` ( Q ! ( ' Q Q ( @.",
"L.J.J.J.J.J.J.J.J.U.~.)..X X~.Y.Y.Y.U.J.J.J.J.J.H.U.[.$X+X$X+X].Y.H.G.J.I.T.T.v.k.a.c u R ` ` +.=.0.0.=.{ ` ' ' ] ' ' ] ' ] ' @.",
"J.J.J.J.J.J.I.J.J.L.U.!. X.X).).).~.U.J.J.J.J.H.H.(.rXlXlXlXlXrX`.H.H.J.L.U.I.M.v.a.V f w E ! ] $.$.$.+.{ ' ' ] ] ' ] ' ' ] ] O.",
"J.I.J.J.J.J.J.J.L.H.J.L.~.).).).).~.U.J.H.J.J.U.'.*XaXlXjXjXlXrX`.J.Z.V.L.J.J.J.I.x.A j e 9 ( ] ] ` ' ' ' ' ' ' ' ' ' ' ' ' ' @.",
"J.J.J.J.J.J.J.J.J.J.J.L.U.Y.Y.U.Y.U.L.J.J.H.H.[.iXaXqXOXXX+XOX{.Y.P.c.c.R.J.J.!.wX1XI j X i ) ] ` ( ' ' ' ' ' ' ' ' ' ' ' ' [ @.",
"J.J.L.J.J.J.J.J.z.B.H.I.J.H.G.G.J.J.L.J.L.H.J.{.iXiX[.H.H.U.[.XXE.S.V Z @X[.U.{.aXgXI % X 2 ~ ] } ' ' ' ' ' ' ' ' ' [ ' ' ' ' @.",
"J.J.J.J.J.J.L.j.G G j.I.J.J.J.H.H.J.J.J.J.J.J.Y.{.[.U.H.H.!.tX0X=Xx   Z 9XtX/.'.aXgXU *   , R { ] ] ' ' ' ' ' ' ' ' ' ' ' ' ' @.",
"J.I.J.J.J.L.G.G l C G V.H.J.J.L.J.J.J.J.J.J.J.J.H.J.J.J.J.P.>X<XP l l -XfXtX^.~.qXdX-XJ * 3 Y { ] ' ' ' ' ' [ ' ' ' ' ' ' ' ' @.",
"J.J.J.J.L.Y.S.l j k Z m V.J.J.J.J.J.J.J.J.J.J.J.H.J.J.J.J.K.Z.D.<X1X5XfXwX}.^.!.L.#XdX3XJ f Y ] ] ] ' ' ' ' ' ' ' [ ' ' ' ' [ @.",
"J.J.J.Y.{.@XP k > k k h N j.A.C.G.J.J.J.J.J.J.J.J.J.J.H.J.U.^.Q.qXzXlXtX).!.^.U.l.U.tX4Xu.z R ] ] ] ' ' [ ' ' ' ' ' ' ' ' ' ' @.",
"J.J.J.`.yXdXI k : k > * l H <X@XZ.U.J.J.J.J.I.J.J.J.J.I.J.J.Y.Y.~.XXXX).^.^.!.J.b.B.N.9.>.) ' ' ] ' ' ' ' ' ' [ ' ' ' ' ' ' ' @.",
"J.J.J.`.iX8XH B B Z K I I -X1XD.V.J.J.J.I.J.J.J.J.J.J.J.J.J.J.J.L.Y.!.!.^.!.L.F.n.f.&._ _ ] ] ' ' ' ' ' ' ' ' ' ' ' ' ' ' ' ' @.",
"J.J.J.Y.{.E.C.S.>X:X<XsXgX<XS.B.Z.J.L.J.J.J.J.J.J.J.J.J.J.J.H.U.~.^.^.^.!.J.n.M.b.f.a Y _ ] { ' ' ' ' ' ' ' ' ' [ ' ' ' ' ' ' O.",
"J.J.L.J.J.H.H.[.iX0X0XzXzX0XP.J.J.J.J.J.J.J.J.J.J.U.L.I.J.J.J.U.~.). X!.H.F.l.m.m.d.y 6 Y ( ' ' ' ' ' ' ' [ ' ' ' ' ' { $.$.{ O.",
"J.J.J.J.J.J.J.U.`.qXjXxXzXpX'.J.H.J.J.J.J.J.J.J.J.J.L.J.J.J.J.U.Y.Y.T.J.H.n.l.M.m.a.+ O 6 T ` ] ] ' ' ' ' ' ' ' ' ' ' +.;.;.$.@.",
"I.J.J.J.J.I.U.J.J.(.rXlXzXeX`.H.H.J.J.J.J.L.J.J.H.H.H.H.J.J.J.J.J.J.J.H.n.n.b.z.j.M y , 6 T ! ] ] ' ' ' ' ' ' [ ' ' ' +.>.,.%.*.",
"J.J.J.J.J.J.U.J.H.I.'.+X+X{.U.J.J.J.J.I.I.J.U.H.M.n.l.F.H.U.U.J.J.J.J.G.G.H.M.j.M i 9 Y T ( ' ' ' ' ' [ ' ' ' ' ' ] ] ( ^ X.,.4.",
"J.J.I.J.J.J.J.J.J.J.J.H.H.J.J.J.J.J.J.J.J.I.U.H.n.n.l.F.G.H.H.J.J.J.J.G.F.M.m.p.y 7 E } } ] ' ' ' ' ' ' ' ' ' ' ' ] ] E Y ^ 1.e.",
"J.J.J.J.J.J.J.J.I.J.J.H.H.J.J.J.J.J.J.J.J.L.J.H.H.H.H.F.n.n.H.L.J.J.J.z.z.M.M.p.+ 1 T } } ] ' ' ' [ ' ' ' [ ] ' ' ' ] ! E [ 1.e.",
"J.J.J.J.J.J.J.J.J.J.J.J.J.J.I.J.J.J.J.J.J.J.I.J.I.U.I.H.F.n.H.L.L.J.L.V.C.T.'.c.; O 7 ] { ' ' ' ' ' ' ' ' ' ' ' ' ' ' ' ' [ #.5.",
"I.J.J.J.J.J.L.I.J.J.J.J.L.J.J.J.J.J.J.J.J.J.J.J.J.U.I.H.H.H.J.L.J.J.J.G.P.%XiX1XA & 6 E ` ] ] ' ' [ ' ' ' [ ' ' ' ' ' ] ] [ ^ ~ ",
"J.J.J.J.J.J.J.J.J.J.J.J.J.J.J.J.I.U.I.J.J.J.U.J.J.J.J.I.I.J.I.J.J.J.J.L.J.Y.&X0X<XL s 7 E { ] ' ' ' ' ' ' ' ' ' ' ' ' ] ] ( Y ~ ",
"J.J.J.U.J.J.J.J.J.J.I.J.J.J.J.J.J.J.J.I.J.J.J.J.J.L.J.J.U.J.J.J.J.J.J.J.J.J.U.XX0X2Xl , 8 { } ' ' ' ' ' ' ' ' ' ' ' ' [ ] ( ! | ",
"J.J.J.J.J.I.J.J.J.J.J.J.J.J.U.J.J.H.H.H.J.J.J.J.J.J.J.J.J.J.J.J.J.J.J.J.J.J.J.G.@X3Xl O 5 ! ] ' ] ' [ ' ' ' ] [ ' ' ' ' ' ' [ @.",
"J.J.J.J.I.J.J.J.J.I.J.J.J.U.J.H.n.n.b.F.H.J.I.J.I.J.J.J.J.J.J.L.J.J.J.J.J.I.H.k.G J k d w T ! ] ] ' ' ' ' ' ' ' ' ' ' ' ' ' ] @.",
"J.J.J.J.J.J.J.J.J.J.L.L.H.F.F.F.n.l.n.F.H.J.L.J.J.J.J.J.J.I.J.J.J.J.J.J.J.I.U.x.V $ = z r T ! ] { ' ' ' ' [ ' ' ' [ ' ' ' ' ' O.",
"J.I.J.J.J.L.J.I.J.U.J.H.n.l.b.n.F.H.H.H.J.J.J.J.J.J.J.J.J.J.J.J.J.J.J.J.J.(.eX<XC o 4 r ^ ( ' ' ' ' ' ' ' ' ' ' ' ' ' ' ' ' ' @.",
"J.J.J.J.J.J.J.J.J.J.H.H.G.G.G.J.U.Y.L.H.J.J.J.J.J.J.I.J.J.J.J.J.J.J.J.J.J.{.aXgXK & , Y W { ] ' ' ' ' [ ' ' ' [ ' ' ' ' ' ' ' @.",
"J.J.J.J.J.J.J.U.U.H.n.G.Y.~.^.^.).^.Y.J.J.J.J.J.L.J.J.J.J.J.J.J.J.J.J.J.J.{.jXgXU d 1 Y W { ] ] [ ' ' ' ' ' ' ' ' ' ' ' ' ' ' @.",
"J.J.J.J.J.J.J.J.J.H.n.G.!. X X X).^.Y.Y.U.U.I.I.J.J.J.J.J.J.J.J.J.J.J.J.Y.+XpX7XS s 6 E ! ] ] ' ' ' ' ' ' ' ' ' ' ' ' ' ' ' ' @.",
"I.J.J.I.J.J.J.J.J.J.H.J.U.Y.Y.Y.Y.Y.^.). X~.U.J.H.L.J.J.J.J.J.J.J.J.J.U.(.%X$XA.n r T ! ' ] ' ' [ ' ' ' ' ' ' ' ' ' ` ' ' ' ' @.",
"J.J.J.J.J.J.J.U.J.J.J.J.J.J.J.H.H.Y.Q.Z.^.~.U.J.J.J.J.L.G.G.L.J.J.J.U.J.Y.`.G.p.p 8 W } ] ] ] ' ' ] +.{ ' ' ' ] +.$.{ ' ' ' ' @.",
"J.J.L.J.J.J.J.J.J.J.J.I.J.J.J.J.J.P.c.v j.U.I.H.J.J.J.L.L.L.U.J.J.J.U.J.J.J.n.a.c 0 Q ] { O.] ` ' +.;.-.$.` ' +.-.;.$.' ' ' ' O.",
"J.J.I.J.J.J.J.J.J.J.J.J.J.L.J.U.{.6XA o v j.].].U.J.J.U.Y.U.U.J.J.L.U.L.L.M.l.d.c 2 q | O.O.] ] ' %.q.9.%.' { %.1.>.+.' ' ' ' @.",
"J.J.J.J.J.J.J.J.J.I.J.J.J.J.L.`.uX9XA   o H 7XrX`.I.J.U.U.U.I.J.J.L.L.T.L.b.k.a.+ X 2 i | { ] ` ` %.q.,.$.$.=.,.o.R ( ' ' [ ' @.",
"J.J.J.J.J.L.J.J.J.J.J.J.J.J.J.`.yX7XF @ ; F ,X6XL.H.H.H.J.J.J.J.J.J.J.Y.J.m.b.d.@ $ X 2 ) { ] ` ' %.0.9.$.%.9.2.) Y E ] ' ' ' @.",
"I.J.J.J.J.J.J.J.J.J.J.J.J.J.J.L.[.E.j.S.:X>XS.V.F.J.H.I.J.J.J.J.J.J.J.J.F.n.m.d.V % # , R { } ' ' %.9.9.%.$.9.7.O.E W ' ' [ ' @.",
"J.J.J.J.J.J.J.J.J.J.J.L.J.J.J.J.I.I.J.[.uXaXqXOXXXOXOX{.U.H.J.I.J.J.J.H.l.k.h.g.B = % 3 8 ` ] ` ' +.>.#.{ +.#.>.+.' ' [ ' ] ' @.",
"J.J.J.I.J.J.J.J.J.J.J.J.J.J.J.J.J.J.H.U.'.*XaXkXkXlXlXrX`.I.H.H.J.J.J.H.b.h.D C : - = d r E ` ] ] ( ^ ^ ( ( ^ ^ ( ] ] ] ' ' ' @.",
"J.L.J.J.J.J.G.J.J.H.J.J.J.J.J.L.J.J.I.H.J.(.yXzXzXlXzXrX`.H.I.I.J.J.J.U.L.S.B % $ * k j 4 5 E { { Q Y Y ! ! T Y ! ] ] ' ' ' ' @.",
"L.J.L.J.J.J.J.G.J.J.J.J.J.J.J.J.J.J.J.J.H.I.'.+X$X$X$X].U.J.J.J.J.J.J._.eX1XA # # * k : & < Y { { ` E ! ' ! Q Q ( ' ' ' ' [ ' @.",
"U.L.J.J.J.G.H.H.H.J.J.J.J.I.J.J.J.I.L.L.I.I.H.M.F.F.J.J.J.I.J.J.I.J.J._.eXfX-Xl $ $ * - $ 3 8 ' ] ] ] ' ] ' ] ] ' ' ' [ ' ' ' @.",
"J.J.J.J.L.H.J.J.I.I.J.J.J.J.J.J.J.J.I.U.J.H.n.l.l.n.F.J.U.J.J.I.J.J.J.U._.*XdX-Xl   $ * : d t T ! ] { ] ' ' ] ] ] ' ] ' ' ' ' | ",
"J.J.J.J.J.Y.XX[.U.H.F.J.J.J.J.J.I.J.J.J.I.J.n.l.b.n.F.H.H.H.G.H.J.J.J.J.J.!.wX0X=XC - : > k e Y Q ] ] ' ' [ ] ' ' ' ' ' ' [ ] @.",
"J.J.J.J.H.{.pXiX'.H.F.J.J.I.J.J.J.J.J.L.J.J.H.H.H.H.n.n.n.l.n.F.J.J.J.J.J.I.I.&X0X2XK : k k e 8 W ] ] ' ' ' ' ' ' ' ' ' ' ' ' @.",
"J.J.J.J.J.XXqXyXwXXXXX{.U.J.J.J.J.L.J.J.J.J.I.U.I.H.n.n.b.n.n.n.H.J.L.J.J.M.v.'.xXhXi.> = f w 8 ! ] ] ' ' ' ' ' ' ' ' ' ' ' ' | ",
"J.J.J.J.J.U.T.|.uXlXkXyX`.H.H.I.J.J.J.J.J.I.J.I.I.J.H.H.F.H.H.G.G.J.L.J.J.M.k.`.xXhXi.j s w 5 8 ! ] ] ' ' ' ' ' ' ' ' ' ' ' ' O.",
"J.J.J.J.I.H.U.U.&XzXlXyX`.I.H.J.J.J.J.J.J.J.J.J.J.J.L.L.I.L.J.J.G.J.L.J.J.H.l.T.uX7Xu.g 7 8 Y Y ( ] ' ' ' ' ' ' ' ' ' ' ' ' +.*.",
"J.I.J.J.J.J.H.H.E.+X+X{.U.J.J.J.J.J.L.J.J.J.J.J.J.J.I.I.I.I.L.J.J.L.L.J.J.H.b.H.U.A.3.| ! ) ( ( ( ' ] ' [ ' ' ' ' ' ' ' ` { =.4.",
"J.J.J.J.J.J.J.J.J.J.H.J.J.U.J.J.J.J.J.J.J.J.J.J.J.G.j.V.L.J.J.J.L.U.L.L.I.F.l.k.h.M &.] { +.+.' ] ' ' ' ' ' ' { { +.' ' { =.0.e.",
"J.J.J.I.I.J.J.J.H.H.H.J.J.J.J.J.J.J.J.J.J.J.G.J.J.j.D S.R.J.I.U.T.Y.U.Y.L.b.b.h.b i ) ] { +.+.] ' ' ' ' ' ' ' +.;.=.+.{ =.8.w.e.",
"J.J.J.J.J.J.J.I.I.J.H.G.H.H.J.J.J.J.J.J.J.Y.[.oXA.m - P 6X[.U.U.(.Y.U.Y.J.b.v.d. .T W ] ' ' ' ' ' ' ' ' ' ' ' %.q.q.=.%.9.r.t.e.",
"J.J.J.I.J.J.J.L.J.J.F.l.n.F.H.L.J.J.J.J.J._.uX0Xc.- % I dXrX`.U.L.L.J.L.G.m.v.f. .W _ ' ] ' ' ' ' ' ' ' ' ' ' %.9.w.q.0.w.r.r.e.",
"J.J.J.J.J.J.J.J.H.F.n.b.l.l.F.H.J.U.U.J.H.U.$X7X-XI L -XfXrX`.J.J.J.J.J.l.b.b.f.3.W _ ] ] ' [ ' ' ' ' ' ' ` ` ' :.8.r.t.w.w.1.5.",
"L.J.J.J.J.U.J.H.n.n.F.n.l.l.l.F.H.U.L.J.J.H.I.W.9XgXsXfX6X[.U.I.J.J.J.H.l.m.m.f. .T W ' ] ' ' ' ' ' ' ' ' ] ' ! T o.8.t.y.8.X. .",
"J.J.J.J.J.J.L.H.M.F.J.J.G.l.n.n.G.M.F.J._.`._.XXrXzXkXeXY.U.J.J.J.J.J.H.l.m.v.s.b 7 T ' ] ] ' ' ' ' ' ' ' { %.[ Y Y o.2.2.o.8 9 ",
"I.J.J.J.J.L.J.J.H.J.J.J.H.H.H.H.n.l.l.L.XXY.Y.*XkXaX&XY.J.I.J.J.J.J.J.J.F.M.b.d.b 1 5 T ` ] ] ' ' ' ' ' ' $.;.=.( T R / / Y 7 5 ",
"J.J.J.J.J.I.I.J.J.J.J.J.L.L.L.L.J.n.H.Y.U.H.U.qXlXiX`.J.H.J.J.J.J.J.J.J.I.I.U.x.v , < Y T ( ' ' ] ' ' ' ' O.>.,.-.[ T 8 8 8 8 Y ",
"J.J.J.I.J.J.L.J.I.J.J.J.I.I.I.Y.Y.H.J.I.J.H.Y.OX$X{.U.J.H.U.I.J.L.J.J.J.J.!.eX,XV O < 5 Y T ( ] ] ' ' ' ' ( ) o.,.=.] E T E ( ) ",
"J.J.J.J.J.J.J.J.L.J.J.J.J.I.I.Y.Y.J.J.U.I.I.J.Y.Y.U.J.J.J.J.J.J.J.J.J.J.J.[.aX1XB . < q q ~ | @.@.@.@.@.@.| ~ ..5.4.*.| | @.| &."
};
