/* XPM */
static char *result[] = {
/* columns rows colors chars-per-pixel */
"64 64 230 2 ",
"   c #371804",
".  c #2E2C07",
"X  c #3E2301",
"o  c #293700",
"O  c #2F351B",
"+  c #1A3C2E",
"@  c #451E05",
"#  c #4B270D",
"$  c #572A09",
"%  c #4D330C",
"&  c #5D311C",
"*  c #63371C",
"=  c #583725",
"-  c #423932",
";  c #673A24",
":  c #733F2A",
">  c #194A06",
",  c #065500",
"<  c #1B5605",
"1  c #085112",
"2  c #374502",
"3  c #354F0A",
"4  c #026C02",
"5  c #176400",
"6  c #007300",
"7  c #007D01",
"8  c #02790B",
"9  c #006A18",
"0  c #007810",
"q  c #2A6706",
"w  c #39670A",
"e  c #257308",
"r  c #286E11",
"t  c #07562E",
"y  c #2F4E2D",
"u  c #007829",
"i  c #00633E",
"p  c #007D39",
"a  c #43570C",
"s  c #584617",
"d  c #515516",
"f  c #466B16",
"g  c #694524",
"h  c #73462C",
"j  c #6C5236",
"k  c #4F6821",
"l  c #453F41",
"z  c #0B4E4D",
"x  c #285155",
"c  c #00684F",
"v  c #236C4D",
"b  c #3B5D71",
"n  c #00726B",
"m  c #356379",
"M  c #5E4D46",
"N  c #4F504A",
"B  c #685347",
"V  c #6C574D",
"C  c #7B6959",
"Z  c #445C6A",
"A  c #486676",
"S  c #6F7274",
"D  c #8C5F53",
"F  c #8D6A56",
"G  c #8F7154",
"H  c #8D756A",
"J  c #987663",
"K  c #A07967",
"L  c #008302",
"P  c #008B01",
"I  c #02870B",
"U  c #009303",
"Y  c #009C03",
"T  c #009709",
"R  c #009B0C",
"E  c #008417",
"W  c #008E12",
"Q  c #1F8814",
"!  c #009C12",
"~  c #019419",
"^  c #00A502",
"/  c #00A20E",
"(  c #00A515",
")  c #00A916",
"_  c #00A41B",
"`  c #00AB1B",
"'  c #00B21C",
"]  c #009B23",
"[  c #059030",
"{  c #2A9725",
"}  c #349A26",
"|  c #00A324",
" . c #00AC23",
".. c #00A429",
"X. c #1EAD2F",
"o. c #00B027",
"O. c #00B22B",
"+. c #00A335",
"@. c #00AD34",
"#. c #00B836",
"$. c #07B835",
"%. c #11BC39",
"&. c #2AAC31",
"*. c #30AF32",
"=. c #3AB237",
"-. c #60903C",
";. c #4CB73E",
":. c #50B83F",
">. c #05924B",
",. c #28B847",
"<. c #3DB144",
"1. c #548D53",
"2. c #48BD41",
"3. c #4EBA49",
"4. c #39C242",
"5. c #42C243",
"6. c #48C647",
"7. c #59C84C",
"8. c #57C756",
"9. c #62CB50",
"0. c #63D355",
"q. c #71D055",
"w. c #8F905D",
"e. c #858575",
"r. c #B48978",
"t. c #005B8B",
"y. c #005C94",
"u. c #006B8D",
"i. c #006798",
"p. c #007A93",
"a. c #366E90",
"s. c #006CA6",
"d. c #017BA8",
"f. c #0062BA",
"g. c #006CBB",
"h. c #0074BE",
"j. c #0079B8",
"k. c #2C7FA4",
"l. c #4E748B",
"z. c #006DC1",
"x. c #0074C3",
"c. c #007CC3",
"v. c #0076CB",
"b. c #007BCB",
"n. c #0082B3",
"m. c #088CB3",
"M. c #0289BA",
"N. c #2B8CAE",
"B. c #548AA2",
"V. c #5589A7",
"C. c #6991A6",
"Z. c #0083C6",
"A. c #008AC6",
"S. c #0085CB",
"D. c #008DCE",
"F. c #009AC7",
"G. c #0092CE",
"H. c #1B9CCF",
"J. c #008FD0",
"K. c #0094D1",
"L. c #009BD4",
"P. c #039CD8",
"I. c #2A9DCE",
"U. c #00A1CA",
"Y. c #01A1D7",
"T. c #00A4D9",
"R. c #0DA1D9",
"E. c #00ACDC",
"W. c #18A2D7",
"Q. c #00B1DF",
"!. c #29A4D7",
"~. c #24A4D8",
"^. c #2BA5D9",
"/. c #32A7DA",
"(. c #33A8DA",
"). c #3BAADB",
"_. c #00B5E1",
"`. c #4DA8D3",
"'. c #44ADDC",
"]. c #4CAFDC",
"[. c #46B2DF",
"{. c #53B1DE",
"}. c #5CB4DF",
"|. c #79ACC7",
" X c #7EB1CB",
".X c #66B3DA",
"XX c #75B2D9",
"oX c #5BB3E0",
"OX c #6ABBE3",
"+X c #75BCE2",
"@X c #6DC4EF",
"#X c #7AC0E3",
"$X c #8F9092",
"%X c #AC988F",
"&X c #BAAD9B",
"*X c #8FA7B4",
"=X c #A7AAAF",
"-X c #A8A9A8",
";X c #ABB3B9",
":X c #B5B7BB",
">X c #C2A49A",
",X c #C7B1A9",
"<X c #BDD0AC",
"1X c #CBC1BB",
"2X c #8EB5CA",
"3X c #B2BBC3",
"4X c #8BCDD6",
"5X c #B6C3CB",
"6X c #B1C9D5",
"7X c #89C6E7",
"8X c #9DCCE6",
"9X c #94CBE9",
"0X c #9CCEEB",
"qX c #9DD0EC",
"wX c #9BD8EF",
"eX c #8FC6F2",
"rX c #A9D4EE",
"tX c #B3D9EF",
"yX c #A9D4F0",
"uX c #BBDEF1",
"iX c #BFE1F4",
"pX c #D4CDCA",
"aX c #C6CCD7",
"sX c #CAD3D9",
"dX c #F2D8D0",
"fX c #FDE5DD",
"gX c #C6E1EF",
"hX c #C5E4F3",
"jX c #CCE5F4",
"kX c #D2EBF9",
/* pixels */
"D.D.D.D.D.D.D.D.D.D.D.D.D.D.J.D.D.D.J.D.D.D.D.D.D.D.D.J.J.D.D.D.D.D.D.A.c.L.yXpXr.j q E ~ ............@...| | @.,.,.@.@.,.,.@.+.",
"D.D.D.D.J.D.D.D.D.D.S.D.D.D.D.D.D.D.D.D.D.D.J.D.D.D.D.D.D.D.D.D.D.J.D.Z.x.K.7XsX&Xw.w L Y ) ) ) o.o.o. .) / )  .*.X. .` X.&. .| ",
"D.D.D.D.D.D.D.D.D.D.D.D.D.J.D.D.D.D.D.D.J.D.D.D.D.D.D.D.D.D.D.D.D.D.D.Z.S.b.J.XXsX&X-.7 U ) ) ` #.4.5.#. .( ) ! W W ! ! W W ! ! ",
"D.D.J.D.D.D.D.J.K.L.K.K.D.S.D.D.D.D.J.D.D.D.D.D.D.D.S.D.S.S.D.D.D.D.A.D.J.J.b.J.7X3X1.7 P ) ) o.5.q.q.5. .( ( R L L R R L L T ..",
"D.D.D.D.D.D.D.K.E.Q.Q.Y.K.D.S.D.D.D.D.D.D.J.D.J.D.D.D.S.S.D.D.D.D.A.M.D.D.P.K.b.J.N.b 9 U ) ) o.5.q.q.4.o.( ( R T T ! ( R R ! | ",
"J.G.D.D.D.D.D.K.T._.Q.Q.Y.L.L.K.G.D.D.D.D.D.S.S.Z.K./.oX}.).K.D.D.D.D.D.D.P.K.z.f.y.z y I / /  .#.5.5.#.` ( ! ) ) ) ) ( ) ( ) ..",
"D.D.D.J.D.D.D.J.K.T._._.Q.Q.Q.T.K.D.S.D.D.D.D.Z.S.W.qXjXjX8X^.D.S.D.D.D.G.K.K.b.z.y.N s q P R )  .o.o.` ) ) ( ) ) ( ( ) ( ( ) | ",
"D.D.D.D.D.D.D.D.D.G.T.Q.Q.Q.Q.T.K.D.D.D.D.K.).'.].+XtXkXgX8X!.S.D.D.M.n.G.D.D.D.J.V.C g w 8 ! ) ) ( ( ( ( ( ( ( ( ( ( ( ( ( ( ..",
"D.D.D.D.D.D.D.D.D.D.K.K.L.L.L.G.G.D.D.D.S.^.0XjXjXtX+X{.].).L.G.D.I.l.l.I.D.D.L.7X:XJ g O 9 ~ ) / ! R ( ( ( ( ( ( ( ( ( ( ( ( ..",
"D.D.D.D.D.D.D.D.n.n.S.J.D.D.D.A.A.D.D.S.D.^.0XkXjX0XW.S.D.K.).{.I.B.M V |.^.G.).iXdXJ # . 1 E ` ' ) ) ( ( ( _ ( ( ( ( ( _ ( ( ..",
"G.D.D.D.D.D.D.d.Z A d.J.D.D.S.D.D.D.D.D.D.K.).{.oX(.D.Z.A.W.9X6X$Xl   V :X9XP./.uXdXK $   > I ` ) ) _ ( ( ( ( ( ( ( ( ( ( ( ( ..",
"D.D.D.D.D.G.M.A j B l.d.A.D.D.D.D.D.D.D.D.D.D.S.S.D.D.D.S.H.2X-XH j j %XsX9XP.L.7X6X>XD & 2 L ) ) ( ( ( ( ( ( ( ( ( _ ( ( ( ( ..",
"J.D.D.D.D.F.B.B : j B l.d.J.J.D.D.D.D.D.D.D.S.S.S.S.D.D.D.G.m.C.-X,X1XsX7XW.J.D.D.XXsX,XF d 7 ) ) ) ) ( ( ( ( _ ( ( ( ( _ ( ( ..",
"D.D.J.K.).|.H h : h ; = m d.k.m.A.D.D.D.D.D.J.D.J.J.D.J.K.P.E.U.#XhXjXwXE.K.J.S.g.L.wX<Xw.k W ) ) ) ( ( ( ( ( ( ( ( ( ( ( ( ( ..",
"G.D.D.^.0XaXJ g ; h h * M S ;X2XM.D.D.D.D.J.D.D.D.D.D.K.T.E.Y.K.E.[.[._.E.T.L.S.x.n.>.4.&.~ ! ) ( ( ( ( ( _ ( ( ( ( ( ( ) _ ( ..",
"J.D.D.W.8X5X$XB M V F F J %X;XC.M.D.D.D.D.D.J.D.J.D.D.K.E.E.Y.L.K.L.L.Y.E.T.D.Z.v.p.>.' ^ ) ) ( ( ( ( ( ( ( ( ( _ ( ( ( ( ( ( ..",
"D.D.D.K./.XX2X:X3X$X=XpXpX,XB.n.M.D.D.D.D.D.D.D.D.D.D.J.K.Y.E.E.E.E.E.E.Y.G.c.v.b.u.u P ^ ) ) ( ) ) ( ( _ ( ( ( ( ( ) ( ( ( ( | ",
"D.D.J.S.D.!.rXjXjX6XrXkXhX2XA.D.D.D.D.D.D.D.D.S.D.D.J.D.D.K.T.E._.Q._.Y.D.c.c.b.v.i.i < 7 ! ) ) ( ( ( ( ( ( ( ( ( ( (  . .o.) | ",
"D.D.J.D.D.K.).'.].7XgXuX@XL.D.D.J.D.D.J.D.D.c.c.S.K.D.D.D.D.K.L.P.L.P.D.b.h.h.v.b.y.+ o 5 P ! ) ( ( ( ( ( ( ( ( ( ( (  .%.%. ...",
"D.D.D.D.D.D.D.D.D.^.yXrX).D.S.D.D.D.D.J.J.S.Z.c.Z.S.S.D.D.D.D.D.D.D.D.Z.Z.c.c.j.s.n t 2 4 P R ) ( ( ( ( ( ( _ ( _ ) ( ` *.=.@.@.",
"D.D.D.D.D.D.D.S.S.K.(.'.L.D.D.D.D.D.D.J.D.D.S.S.c.h.h.c.D.D.D.D.D.S.D.Z.Z.S.b.d.n u I L U ! ( ) ) ( ( ( ( ( ( ( ( ) ) ! W { =.,.",
"D.G.D.D.D.D.D.D.D.D.D.S.D.D.D.D.D.D.D.D.D.D.G.S.Z.x.c.Z.S.D.J.D.D.D.D.A.Z.b.v.t.t 6 Y ` ` ( ( ( ( ( ( ( _ ( ( ( ( ) ) U L W ;.8.",
"J.D.D.D.D.D.D.D.D.D.S.S.D.D.G.D.D.J.D.D.D.J.J.D.D.Z.S.S.D.D.D.G.D.D.D.n.j.b.b.t.+ < P ' ' ) ( ( ( ( ( _ ( ( ( _ ( ( ) R U _ ;.8.",
"D.D.D.D.D.D.G.D.D.D.J.D.D.D.D.D.D.D.D.D.D.D.D.D.J.D.D.D.D.D.D.D.D.D.D.n.m.R.^.l.- o 6 ( ) ( ( ( ( ( ( ( ( ( ( ( _ ( ( ) (  .X.=.",
"D.D.J.D.J.D.D.D.D.D.D.D.D.D.D.D.D.D.D.D.D.D.D.J.D.K.D.J.D.D.K.G.D.D.D.M.G.7XiX:XC % 5 U / ) ) ( ( ( ( ( ( ( ( ( ( ( ( ) ) ! W [ ",
"D.D.D.D.D.D.D.D.D.J.D.D.D.D.D.D.K.D.D.D.D.D.D.D.D.D.D.D.D.D.D.D.D.D.D.D.S.}.uXsX&XH a 4 U ) ) ) _ ( ( ( _ ( ( ( ( ( ) ( ) R L 0 ",
"D.D.D.D.D.D.D.J.D.D.D.D.D.D.D.D.D.D.D.D.D.J.D.D.D.D.D.D.J.D.D.D.D.D.D.D.D.K.'.OX6X&Xj > 7 ` ) ) ) ( ( _ ( ( ( _ ( _ ( ) ) ! R ~ ",
"D.J.D.D.D.D.D.D.D.D.D.D.D.J.D.D.S.D.D.D.G.D.D.D.J.D.D.D.D.D.D.D.D.D.D.D.J.K.J.S.2X>Xj o 4 ! ) ) ( ( ( ( ( ( ( ( ( ( ( ( ) ) ) ..",
"D.D.D.D.D.D.D.D.D.D.D.D.D.G.D.D.c.c.D.D.D.D.D.J.D.D.D.D.J.D.D.D.D.D.D.D.D.K.J.j.l.D h s q P R ) ) ( ( _ _ ) ( ( _ ( ( ( ( ) ) ..",
"D.D.D.D.D.J.D.D.J.K.L.K.D.S.Z.c.c.c.S.D.J.D.D.D.D.D.D.D.D.D.D.D.D.D.D.D.D.K.T.a.l # * k e P R ) ) ( ( ( ( ( ( ( ( ( ( ( ( ( ( ..",
"D.D.D.D.D.D.D.D.D.L.E.T.A.h.h.c.S.S.D.D.D.D.D.D.D.J.D.D.D.D.D.D.D.D.D.D.J.W.0X=XB X 2 e W R ) ) ) _ ( ( ( ( _ ( ( ( _ ( ( ( ( ..",
"K.D.D.D.D.D.D.D.S.D.L.Y.G.Z.A.D.K.P.D.D.D.D.D.D.D.D.D.D.D.G.D.D.J.D.D.J.J./.uXdXF % < L R ) ) ( ( ( ( ( ( ( ( ( ( ( ( ( ( ( ( ] ",
"D.D.J.D.D.D.J.S.Z.c.Z.D.L.T.E.E.E.E.G.D.D.J.D.D.D.D.D.G.D.D.D.D.S.J.D.D.D.).gXdXr.s < L ^ ) ` ( ( ( ( _ ( ( ( ( ( ( ( ( ( ( ( ..",
"D.D.D.D.D.J.D.D.c.h.h.D.Y._.Q.Q._.E.Y.L.D.D.D.D.D.D.D.D.D.D.D.D.J.J.D.J.K.}.rX3XC a 5 P R ) ) ( ( ( ( ( ( ( ( ( ! ( ( ( ( ( ( ] ",
"D.D.D.D.D.G.D.D.D.Z.Z.S.K.L.P.L.L.Y.Q.E.K.D.S.J.D.D.D.D.D.D.D.D.S.J.J.J.H.OXoXN.v e P R ) ( ) ( ) ( ( ( ( ) ( ) ( ( / ) ( ( ( ..",
"D.J.D.D.D.J.D.D.D.D.K.D.D.D.D.S.D.L.M.M.G.D.D.J.D.D.D.D.A.A.D.D.J.J.J.D.K.!.D.t.i 7 Y ' ) ( ( ( ( (  . .) ( ! ) o.o.` ) ( ( ( ..",
"D.D.D.D.D.D.J.D.D.G.J.D.D.D.D.D.S.H.l.x s.S.J.S.D.D.D.G.G.L.G.D.D.D.K.G.K.D.c.y.z 9 U `  ._ ( ( (  .%.$. ./ /  .%.%. .( ( ( _ | ",
"D.D.D.J.D.D.D.D.D.D.D.D.D.D.D.K.). XC   x j.`./.L.D.D.K.K.L.K.D.D.D.K.G.J.b.x.i.z 1 8 ]  .| ) / ( o.5.4.O.) ) O.=.*.| ( ( ( ( ..",
"D.D.D.D.G.D.D.D.D.J.D.D.D.D.D.^.qX3XC   . S 5XqX^.J.D.D.K.G.K.D.D.G.G.L.G.v.g.y.+ . 1 u ] _ ) / ( o.5.4.O. .#.;.} I ! ) ) _ ( ..",
"J.D.D.D.D.D.D.D.D.D.D.D.D.D.D.W.qX3XS - - C *X|.G.S.D.D.D.D.D.D.D.J.G.K.D.v.z.i.- # . 1 ~ ` ' / ( o.5.4. .O.4.3.~ L U ) ) ( ( ..",
"D.D.D.J.D.D.D.D.D.D.D.D.D.D.D.G./.XX2X;X=X*XV.d.Z.D.D.D.D.D.D.D.D.D.D.D.Z.b.v.i.N $ @ > I ) ' / ( O.4.4.o.o.5.2.| U T ) ( ( ( ..",
"D.D.D.D.D.D.D.D.D.D.D.D.D.D.D.D.S.~.0XhXjXtX+X[.'.).G.D.D.D.D.D.D.D.D.S.x.g.s.a.M * $ 2 7 ( ) ( ( ` *.X. . .X.*. .) ( _ ( ( ( ..",
"D.J.D.D.D.D.D.D.D.D.D.D.D.D.G.D.J.K.).'.].#XtXjXjXqX^.S.D.D.D.D.D.D.D.S.v.s.Z B ; ; * s e P / ) ) ! W W ! ! W W ! ) ) ) ( ( ( ..",
"G.D.D.D.D.D.D.A.A.D.D.D.D.D.D.D.J.S.J.S.S.W.0XkXjXyX^.D.S.D.D.D.D.D.D.K.P.l.M $ # = g g 3 6 U ` ` R L L R R P L R ) ) ( ( ( ( ..",
"K.G.D.D.D.D.D.A.D.D.D.D.D.D.D.D.D.D.D.S.S.J./.oX}.).L.D.D.D.D.D.D.D.D.~.9X;XV @ @ & h : % , P ) ` ! T R ( R T T ! ( ( ( ( ( _ ..",
"D.D.D.D.A.S.Z.D.D.D.D.D.D.D.J.D.D.D.K.D.J.J.Z.Z.Z.S.D.J.J.J.D.D.D.J.D.~.9XsX%Xj # # & & $ o 8 ! ) ) ) ) ( ) ) ) ) ( ( ( ( ( ( ..",
"D.D.D.D.D.S.S.D.D.D.D.D.D.D.D.D.D.D.D.K.K.S.c.z.g.c.S.K.J.D.D.D.D.D.D.K.~.#XaX&Xj   # & ; s r P R ) ) ) ( ( ) ) ( ( ( _ ( ( ( ..",
"D.D.D.L.).{.'.W.J.S.D.D.J.D.D.D.J.D.D.J.D.S.c.c.c.c.Z.S.S.S.D.D.D.D.D.J.D.Y.7X6X$Xj = & h j w 7 U ) ) ) ( _ ) ( ( ( ( ( ( ( ( ..",
"D.D.S.^.yXhXhX9XY.S.S.D.D.D.D.D.D.D.D.D.D.D.S.S.S.Z.c.x.j.Z.D.J.D.D.D.D.D.D.K.+X5X>XF ; h h w 7 T ) ) ) ( ( ( ( ( _ ( ( ( ( ( | ",
"D.S.D.W.qXkXjXhX9X^.K.D.D.D.D.D.D.D.J.D.D.D.D.J.K.D.Z.h.h.c.S.J.D.D.D.D.D.b.z./.kXfXr.: * d q 7 T ) ) ) ( ( ( ( ( ( ( ( ( ( ) ] ",
"D.D.D.J.^.#XOX@XiX0XW.S.D.D.D.J.D.D.D.D.D.D.J.K.J.D.D.Z.S.D.D.D.A.D.J.D.D.Z.g.^.kXfXr.g a q 4 7 T ) ) ( ( ( ( ( ( ) ( ( ( ( ( | ",
"D.D.J.S.S.L.~.].9XqX!.D.S.D.D.D.D.J.G.D.D.D.D.D.D.D.D.D.D.D.D.D.D.D.D.J.J.Z.g.P.eX5Xe.f 6 7 7 P R ) ) ( ( ( ( ( ( ! ( ( ( )  .@.",
"D.D.D.D.S.J.P.!.`.).G.D.D.D.D.D.D.D.D.D.D.D.D.J.D.D.D.G.G.J.D.D.D.G.G.D.D.S.h.S.P.N.>.~ R ~ ! ! ! ( ) ( ( ( ) ( ( ( ) / R ` #.,.",
"D.D.D.D.J.D.D.S.D.D.D.D.D.D.D.D.D.D.J.D.D.D.D.D.D.D.n.A.G.D.D.D.G.G.G.G.D.Z.x.g.s.n +.' ` ..` ) ( ( ( ( ( ( (  . . .) ) ` #.5.8.",
"D.D.D.D.D.D.S.S.S.S.D.D.D.D.D.D.D.D.D.D.D.J.D.D.D.d.Z l.I.D.D.K.R.L.K.K.G.v.x.s.c u ! ) ` ` ` ` ) ( _ ( ( ( (  .$.$.` ` @.6.8.8.",
"D.J.D.D.D.D.J.J.D.D.D.S.D.J.D.D.D.J.D.D.D.K.(.`.N.b = H 2X(.K.K.W.L.L.T.D.x.z.i.[ P Y ( ) _ _ ( ( ( ( ( ( ( ( o.5.6.#.O.5.9.0.8.",
"D.J.D.D.D.D.D.G.J.S.c.Z.S.D.D.D.D.D.D.D.D.~.qX5Xe.= $ J aX0X~.D.K.L.T.E.A.v.z.p.[ Y ^ ) ) ) ( ( ( ( _ ( ) / ) o.5.7.6.;.7.7.7.8.",
"D.D.D.D.D.D.S.S.S.Z.c.c.Z.D.D.K.J.D.D.D.D.K.OX2X%XG G %XaXqX^.D.D.K.T.L.x.x.v.p.>.^ ^ ) ( ( ( ( ( ( ( ( ( / ( _ X.3.9.0.0.7.;.<.",
"D.D.D.D.D.D.c.c.c.c.S.c.c.c.S.D.K.J.D.D.S.D.D.I.3XsXpXsX4X/.K.J.D.G.K.D.x.x.x.p.p P ^ ) ) ( ( ( ( ( ( ( ( ) ) T I } 3.0.q.:.{ [ ",
"D.D.D.K.D.S.Z.h.c.c.D.D.Z.c.Z.Z.Z.c.S.K.R.Y.W.).eXhXgX9XP.D.D.D.D.D.D.S.x.v.z.u.c 6 P ! ) ) ( ( ( _ ( ( ( ` o._ L P } :.:.} L 8 ",
"D.D.D.D.D.D.D.S.Z.D.D.G.D.Z.c.x.h.x.Z.R.'.K.L.OXOX)./.W.K.D.D.D.D.J.D.S.Z.b.v.u.z 1 6 P R ) ( ) ( ( ( ( ( O.%.#._ P I Q Q I 6 4 ",
"D.K.D.D.D.D.D.K.J.J.D.D.J.S.c.D.G.D.K.~.K.S.K.OX[.S.S.J.D.D.D.D.D.D.D.J.D.J.K.k.x > 5 7 U ! ( ) ) ( ( ( (  .*.=.@._ P 7 7 7 7 L ",
"D.D.D.D.D.D.D.K.D.J.D.J.D.D.S.].OXG.K.K.J.J././.K.S.J.J.D.D.D.J.D.D.D.D.J.Y.9X*XN o , 6 7 P ! ( ( ) ( ( ( ! ~ } =.#._ U P T T ~ ",
"J.D.D.D.D.D.D.D.J.D.D.D.D.S.S..XOXK.K.K.K.L.^.K.S.J.J.J.D.D.D.D.D.D.D.D.D.(.tX:XN o , 0 0 E ] ....| ..| ] ] E { <.,.@...~ ] ..+."
};
