/* XPM */
static char *result[] = {
/* columns rows colors chars-per-pixel */
"64 64 230 2 ",
"   c #2E160A",
".  c #1D2003",
"X  c #3E2301",
"o  c #2E3102",
"O  c #293803",
"+  c #193C2D",
"@  c #451E05",
"#  c #4B260D",
"$  c #572A09",
"%  c #4D3211",
"&  c #63361A",
"*  c #593623",
"=  c #493E36",
"-  c #673A24",
";  c #733F2A",
":  c #194A06",
">  c #08530C",
",  c #1A5704",
"<  c #374502",
"1  c #335205",
"2  c #026C00",
"3  c #176400",
"4  c #007400",
"5  c #007E01",
"6  c #007B0D",
"7  c #0D790F",
"8  c #006A18",
"9  c #2A6706",
"0  c #35670C",
"q  c #247307",
"w  c #07562E",
"e  c #304F2E",
"r  c #007829",
"t  c #007D39",
"y  c #43570C",
"u  c #594617",
"i  c #515516",
"p  c #466B16",
"a  c #574C2E",
"s  c #6A4524",
"d  c #73452D",
"f  c #6C5236",
"g  c #487022",
"h  c #06514B",
"j  c #274F55",
"k  c #00684A",
"l  c #30714F",
"z  c #184965",
"x  c #325B70",
"c  c #00726B",
"v  c #386379",
"b  c #594E48",
"n  c #4E504B",
"m  c #6C5346",
"M  c #70574A",
"N  c #6A615A",
"B  c #445D6D",
"V  c #576B76",
"C  c #787573",
"Z  c #8E5F53",
"A  c #8B6857",
"S  c #917156",
"D  c #8B776B",
"F  c #987864",
"G  c #A67964",
"H  c #008301",
"J  c #008B01",
"K  c #00860D",
"L  c #008C0C",
"P  c #009202",
"I  c #009C03",
"U  c #009609",
"Y  c #009B0C",
"T  c #008C12",
"R  c #008718",
"E  c #009B11",
"W  c #00951A",
"Q  c #2D8716",
"!  c #00A500",
"~  c #00A20E",
"^  c #00A515",
"/  c #00A916",
"(  c #00A61C",
")  c #00AB1B",
"_  c #00B21C",
"`  c #009A23",
"'  c #00953C",
"]  c #369B27",
"[  c #00A423",
"{  c #00AE24",
"}  c #00A428",
"|  c #00B229",
" . c #00BA36",
".. c #04B936",
"X. c #15BB39",
"o. c #1EB938",
"O. c #3CA12C",
"+. c #27AE30",
"@. c #2DAB32",
"#. c #3AB63A",
"$. c #409A28",
"%. c #05924B",
"&. c #5AA54C",
"*. c #56B640",
"=. c #5BBC44",
"-. c #40BE58",
";. c #39C041",
":. c #44C545",
">. c #4BC849",
",. c #56C94B",
"<. c #5DCE51",
"1. c #67C94F",
"2. c #67CC51",
"3. c #8F905D",
"4. c #8D846B",
"5. c #B38776",
"6. c #005A8A",
"7. c #005B95",
"8. c #006B8C",
"9. c #006394",
"0. c #006999",
"q. c #007A93",
"w. c #386F91",
"e. c #006CA3",
"r. c #006EAA",
"t. c #0076A6",
"y. c #007BAB",
"u. c #0066BA",
"i. c #006CBC",
"p. c #0079B3",
"a. c #0074BE",
"s. c #0079BE",
"d. c #2E7EA2",
"f. c #4D768F",
"g. c #617F8F",
"h. c #006DC1",
"j. c #0074C4",
"k. c #007BC3",
"l. c #0075CA",
"z. c #007BCA",
"x. c #0085B7",
"c. c #108AB3",
"v. c #2F8EAD",
"b. c #50879E",
"n. c #748890",
"m. c #4D85A6",
"M. c #6B96AC",
"N. c #0084C5",
"B. c #0089C5",
"V. c #0085CB",
"C. c #008CCE",
"Z. c #0091CF",
"A. c #0798CB",
"S. c #0086D1",
"D. c #008FD0",
"F. c #0094D2",
"G. c #009BD5",
"H. c #0399D8",
"J. c #019AD9",
"K. c #1A99D0",
"L. c #1DA3CF",
"P. c #01A0D7",
"I. c #0AA3D6",
"U. c #00A4DA",
"Y. c #00ABDC",
"T. c #15A1D7",
"R. c #00B0DF",
"E. c #39A0CF",
"W. c #28A5D8",
"Q. c #2AA5D9",
"!. c #36A2D1",
"~. c #33A7DA",
"^. c #34A9DA",
"/. c #3CAADB",
"(. c #00B2E0",
"). c #4FA2CB",
"_. c #43ABDC",
"`. c #4BAFDD",
"'. c #53ACD9",
"]. c #56B3DF",
"[. c #58B4DC",
"{. c #74A8C6",
"}. c #68B6DC",
"|. c #7AB5D8",
" X c #64B3E0",
".X c #74BCE2",
"XX c #46C2E6",
"oX c #7CC1E5",
"OX c #998C85",
"+X c #AD998E",
"@X c #BAAD9B",
"#X c #8DABBA",
"$X c #A7AAAD",
"%X c #ACB2B6",
"&X c #B6B6BA",
"*X c #C1A49B",
"=X c #C7B0A8",
"-X c #BDD0AC",
";X c #CBC0BC",
":X c #84B2C8",
">X c #AABDC9",
",X c #87BEE3",
"<X c #96CDD8",
"1X c #B8C4CA",
"2X c #ACC8D0",
"3X c #B9C9D4",
"4X c #87C4E6",
"5X c #93CAEA",
"6X c #9CCEEB",
"7X c #9DD0EC",
"8X c #91C8F1",
"9X c #A5D3ED",
"0X c #A9D4ED",
"qX c #B1D9F0",
"wX c #B9DDF0",
"eX c #BFE0F1",
"rX c #CBC6C3",
"tX c #DACEC8",
"yX c #DDD1CB",
"uX c #C7CDD6",
"iX c #CAD2D8",
"pX c #D1D5DA",
"aX c #F9DBD1",
"sX c #FBE3D9",
"dX c #C9D8E3",
"fX c #CBE2EF",
"gX c #C4E2F3",
"hX c #CDE6F5",
"jX c #CDE8F9",
"kX c #D6EDFA",
/* pixels */
"} } } } } ` } } } } } } } } } } } W R 0 f 5.yXqXW.l.h.r.y.C.D.C.C.C.D.C.C.C.Z.C.C.Z.C.C.D.C.C.C.C.C.C.C.C.C.F.C.C.C.C.Z.C.D.C.C.",
"^ ^ ^ ^ ^ ^ ( ^ ^ ^ ^ ^ ^ ^ ^ ( / P 5 p S @XuX4XF.l.l.e.t.C.C.C.D.C.C.C.C.C.C.C.C.C.C.C.C.C.C.Z.C.D.C.C.C.C.C.C.C.C.C.C.C.C.C.C.",
"^ ^ ^ ^ ^ ( ^ ^ ^ ^ ( ^ ^ ^ ^ ) ) P 6 g -XiX|.C.k.k.j.e.y.S.C.Z.C.C.C.C.C.C.C.D.C.C.Z.C.C.D.C.C.C.C.Z.C.D.C.C.Z.C.C.D.C.C.C.C.C.",
"^ ^ ^ ^ ^ ^ ^ ^ ^ ^ ^ ^ ^ ^ ^ ) ( J 6 &.%X4XJ.a.i.a.e.e.x.V.V.V.C.C.C.C.C.C.C.C.C.C.C.C.C.C.C.C.C.C.C.C.V.V.C.C.C.C.C.C.C.C.F.C.",
"^ ^ ^ ^ ^ ^ ^ ( ^ ^ ^ ^ ^ ^ ^ ) ) L 8 l v.H.z.h.i.e.9.p.N.B.V.V.C.C.C.C.C.C.C.C.Z.C.C.C.C.C.C.C.C.C.C.C.B.V.C.C.D.C.C.C.C.C.C.C.",
"^ ^ ^ ^ ^ ^ ^ ^ ^ ^ ^ ^ ^ ^ ^ / ^ K 0 z 7.h.j.j.j.e.v.m.!.E.'./.G.C.C.C.F.C.C.C.C.C.C.C.C.C.C.C.C.C.B.G._._.G.V.V.C.C.C.C.C.D.C.",
"( ^ ^ ^ ^ ( ^ ^ ^ ( ^ ^ ^ / / Y J 9 u B 7.h.l.j.a.p.c.E.T.).1X7XW.B.C.C.C.C.C.C.C.C.C.Z.D.C.C.C.C.V.V./.9X0X/.D.V.F.C.C.C.C.C.C.",
"^ ^ ^ ^ ^ ^ ^ ^ ^ ^ ^ ^ ^ / ) E 6 1 s N f.F.V.i.a.a.r.K. X5XdX7XQ.B.V.D.C.C.C.C.C.C.C.C.C.C.C.C.C.B.C./.9X9X/.V.V.C.C.F.C.F.C.C.",
"^ ^ ^ ^ ^ ^ ^ ^ ^ ^ ^ ^ ^ / / W 8 O % Z >X5XH.l.z.e.x b.|..X[./.H.C.C.C.B.C.D.D.C.C.C.C.C.C.B.C.C.C.C.H./._.H.V.D.C.D.D.D.C.C.C.",
"{ { ) ^ ^ ^ ^ ^ ^ ^ ( ^ ^ ) / R > .   F aXkX_.S.J.f.= b m.L._.Q.F.C.B.F.G.F.D.V.C.C.C.C.D.B.C.B.C.C.C.B.x.y.B.F.D.C.B.V.V.V.C.C.",
"X.X.{ ^ ^ ^ ^ ^ ^ ^ ^ ^ / / / L :   # G aXhX~.H.4X%Xf # n n.3X7XW.B.S.H.U.Y.G.B.V.C.C.Z.C.C.C.C.C.C.V.y.B B y.F.F.V.z.s.s.z.V.C.",
"X.X.{ ^ ^ ^ ^ ^ ( ^ ^ ^ ^ ) ) H < & Z *XuX.XS.~.9XiX+Xm m 4.$X#XL.G.G.P.Y.Y.J.G.F.C.C.C.C.C.D.S.D.B.y.f.M f v x.V.V.k.s.k.N.V.C.",
"{ { ) ^ ^ ^ ^ ^ ^ ^ ^ ^ ^ / / H i Z =XpX|.N.a.K.`.}.uX;X=X$Xb.L.U.R.R.Y.G.P.Y.U.H.V.C.C.C.C.D.D.C.x.v m d d f f.B.z.V.B.V.V.D.D.",
"^ ^ ^ ^ ^ ^ ^ ~ ^ ^ ^ ^ ^ / / L g 3.-X<XA.u.u.C.H.H.4XgXfX|.A.R.R.Y.Y.U.G.P.Y.U.G.C.C.C.C.B.c.v.t.v a - s $ & D {.F.D.V.B.V.V.C.",
"~ ^ ^ ^ ^ ^ ^ ^ ^ ^ ^ ^ ^ ^ / E W @.-.%.x.u.h.z.C.Z.G./._.P.G.G.G.G.F.P.Y.Y.P.G.C.C.C.D.C.x.#X%Xg.a - ; d & & F 1X5XI.S.C.V.D.C.",
"^ ^ ^ ~ ^ ^ { { ( ^ ~ ^ ^ ^ ^ ) _ / ) ` x.j.j.j.V.C.C.Z.Z.C.V.C.F.G.G.P.Y.Y.F.V.V.Z.C.C.C.x.M.%X+XF F F F F F +XpXeX4X].]./.F.F.",
"^ ^ ^ ~ ^ { ..X.{ ^ ^ ^ ^ ^ ^ / _ ! H t 8.j.l.k.V.C.C.C.C.C.C.F.U.Y.R.Y.J.F.D.C.C.C.C.C.D.x.x.b.&XtXtXyXyXyXyXpXfXkXjXjXhX7XW.Z.",
"^ ^ ^ ) {  .>.;.{ ) ) | ( / ^ ^ E 5 3 w 0.z.l.k.N.V.C.C.F.V.V.F.U.R.R.U.F.C.V.C.C.C.C.C.D.C.C.B.:XfXgXfXgXhXkXgXgXhXhXjXhX9XW.Z.",
"^ ^ ^ { ..,.2.#.{ {  .X.{ ^ ^ ~ J , O + 9.z.z.a.k.z.B.C.C.C.C.F.G.G.G.H.Z.V.C.C.C.C.C.C.C.C.D.Z.T._._.~./.oXeXhX5X`._.].]./.G.Z.",
"^ ^ ^ ^ @.,.2.:...| #.@.{ / ~ ~ J 2 1 w c t.s.j.k.z.V.V.C.C.D.C.C.B.V.C.C.F.C.C.C.C.C.V.V.C.V.D.C.D.S.V.C./.0X9X^.N.V.B.V.B.C.C.",
"^ ^ ^ Y L $.*.<.>.#.] T E ) ^ ^ E J H 6 r c q.j.k.j.k.N.B.C.D.C.C.V.C.C.C.C.C.D.C.C.C.V.V.C.C.D.C.C.C.C.C.H././.F.V.V.V.V.V.C.C.",
"^ ) ^ U H L ] *.*.O.K H U ^ / ^ / _ _ P 2 w 6.j.k.a.j.k.V.V.C.D.C.C.C.C.C.C.C.V.V.F.~.[.]./.H.B.C.C.D.C.C.C.V.S.V.C.D.C.D.D.C.C.",
"/ ^ / ^ I L T Q Q T L I ^ ^ / ^ ) _ _ J , + 6.j.z.V.N.N.z.k.V.D.F.C.C.Z.C.C.D.V.C.H.6XhXhX7XQ.C.V.C.C.C.C.C.V.B.C.D.C.D.C.C.D.C.",
"^ / ^ ^ ) E J 4 4 J E / ^ ^ ^ ^ ^ / ^ 4 O a f.K.S.z.V.s.s.N.B.D.C.C.C.C.C.C.C.F.~.,XwXhXhX7XQ.V.V.F.C.C.C.C.C.C.C.C.C.C.Z.C.C.C.",
"Y ^ ) ^ ) ^ U P L Y ^ / / ^ ^ / ) Y P 3 u A %X6XH.j.j.r.p.B.V.C.C.C.C.C.C.S.C.^.9XwX4X`._./.F.C.C.D.C.C.C.C.C.C.C.C.C.C.D.C.C.C.",
"Y ^ ) ^ ^ / ^ / ~ ^ ^ ^ ^ ^ ^ ) ) P 2 y S *XpX5XF.j.h.0.y.D.F.D.C.C.C.C.C.V.V._.9X9X^.V.V.D.C.C.C.C.C.C.C.C.D.C.C.C.C.C.C.C.C.C.",
"^ / ^ ^ ^ / / / / ^ ^ ^ ^ ^ ^ _ ( H : f =XdX,XZ.z.j.j.0.y.C.Z.C.C.F.C.C.C.C.C.G././.G.V.V.V.C.C.C.C.D.C.C.Z.C.C.C.C.C.Z.C.C.F.C.",
"^ ^ ^ ^ ^ ^ ^ ( { { ) ^ ^ ^ ~ ~ Y 4 < f *X>XB.u.i.k.j.r.x.C.C.C.C.C.C.C.C.C.C.C.V.V.V.V.V.D.D.C.C.C.C.C.C.C.C.C.D.C.C.C.C.C.C.C.",
"^ ^ ^ ^ ^ ^ ^ { X.X.{ / ^ / ^ ~ J 9 u d A V e.u.h.a.a.s.N.C.C.C.C.C.C.C.C.C.C.V.V.V.V.Z.C.C.C.D.C.Z.C.C.C.C.C.D.C.C.D.C.C.C.D.C.",
"^ ^ ^ ^ ^ ^ ^ { X.X.{ ~ ~ ) | { L q i u $ n d.F.V.k.k.z.B.C.C.C.C.D.C.Z.Z.C.C.F.G.G.G.G.H.F.D.C.V.C.V.C.C.C.C.C.Z.C.C.C.C.C.C.C.",
"^ ^ ^ ^ ^ ^ ^ ( { { ) ~ ~ { X.o.[ U q < X m %X8XH.k.z.B.B.C.C.C.C.C.C.C.C.C.C.F.U.R.R.R.R.U.Z.B.B.C.C.C.C.C.C.D.C.C.C.C.C.C.C.C.",
"^ ^ ^ ^ ^ ^ ^ ^ ^ ^ ^ ^ ^ { X...| I 5 : % G aXkX_.z.V.D.D.C.C.C.C.C.C.C.C.C.V.G.U.R.R.R.R.Y.P.H.G.G.G.G.F.C.C.C.C.C.C.C.D.C.Z.C.",
"^ ^ ^ ^ ^ ^ ^ ^ ^ ^ ^ ^ ^ ) { | ) I 5 , & G aXkX_.z.V.Z.C.B.C.C.Z.C.C.C.C.C.C.F.H.H.G.H.G.P.Y.(.R.R.R.U.F.C.V.Z.C.C.C.C.D.C.C.C.",
"^ ^ ^ ~ ^ ^ ^ ^ ^ ^ ^ ^ ^ ^ ^ ^ / Y J q i 3.>X5XJ.k.B.C.C.C.C.C.C.C.C.C.Z.C.C.C.Z.V.C.B.B.F.U.(.R.R.(.U.G.V.C.C.C.C.C.C.C.C.C.C.",
"^ ^ ^ ^ ^ ^ ^ ^ ^ ^ ^ ^ ^ ^ ^ ^ ^ ^ Y J q l v.Z.z.j.V.C.C.C.C.C.C.Z.C.C.D.C.C.V.V.D.C.S.V.D.G.G.P.J.G.H.F.C.C.C.C.C.C.Z.C.C.F.C.",
"^ ^ { { ( ^ ^ ^ ^ ^ ^ ^ ^ ^ ^ ^ ^ ) / I 5 t 9.l.j.j.z.Z.F.Z.C.C.C.B.C.C.C.C.C.F.C.B.y.N.F.C.V.C.C.V.B.C.C.C.D.C.D.C.C.C.C.C.C.C.",
"~ { X. .{ ^ ^ ^ ^ ^ ^ ^ ^ ^ ^ ^ [ ) _ U 8 h 7.h.j.i.j.Z.P.C.C.F.Z.Z.C.C.C.C.C.C.D.r.j f.K.C.C.V.V.C.V.D.C.C.C.C.C.C.C.C.C.C.D.C.",
"(  .,.:.{ ^ ~ ^ ^ ^ ^ ^ ^ ^ ^ ) ( } ` 7 > h 9.l.z.i.a.Z.G.C.C.F.G.G.F.C.C.F.^.).x.z   N {.^.H.C.C.F.C.C.C.C.C.Z.C.C.D.C.C.C.C.C.",
" .,.2.:.| ^ ^ ^ ^ ^ ( ^ ^ ^ ^ / ( ` r : . + 6.l.k.a.a.s.V.Z.C.F.Z.Z.F.C.B.W.7X2XC     M rX7XW.C.C.D.D.D.D.C.C.C.C.C.C.C.C.C.C.C.",
":.2.=.+.( ^ ^ ( ^ ^ ^ ^ ^ ^ ^ _ ) T w o X e 0.z.z.a.k.a.V.C.C.C.C.Z.C.C.S.K.:X%X4.f m OXuX7XW.V.V.B.V.F.D.C.C.C.C.Z.C.C.C.C.F.C.",
":.=.$.T Y ^ / ^ ( ^ ^ ^ ^ ^ ^ / ) K : X $ n e.l.k.j.z.N.B.C.C.C.C.Z.C.C.C.B.x.M.%X;XrXuX4X~.B.s.s.k.B.F.D.D.Z.V.C.C.C.Z.C.C.C.C.",
"@.O.L H U ^ ) ^ ^ ^ ^ ^ ^ ( ^ / ^ 5 < $ & m w.e.i.N.Q./.F.C.C.C.C.C.C.C.C.D.C.x.:XgXgX5XI.V.z.s.k.z.V.N.V.B.C.D.Z.D.C.C.C.C.C.C.",
"T L L U ^ ^ ^ ^ ^ ^ ( ^ ^ ) / ~ J q u - & - a v e.C.6X7XQ.C.V.D.C.C.Z.C.C.C.D.B.A._._.I.F.V.V.V.V.N.k.s.a.N.B.D.D.C.C.C.C.C.Z.C.",
"J H Y ) ^ ^ ^ ^ ^ ^ ^ ^ ^ ( ) U 4 1 s d * $ $ b m.'.0X7XQ.V.C.C.C.C.Z.C.C.C.D.C.C.C.C.Z.C.C.C.F.D.B.z.s.a.k.N.N.V.V.C.C.Z.C.C.C.",
"U U ^ ( ) ^ ^ ^ ^ ^ ^ ^ ^ ) ( J : % ; ; * @ @ M %X9X.X/.G.V.C.C.C.C.C.D.C.F.F.C.C.Z.C.C.C.C.D.D.D.V.V.B.V.N.k.a.a.N.V.C.F.Z.C.C.",
"/ ) ^ ^ ^ ^ ^ ^ ^ ^ ^ ^ ^ / ^ 5 < # & * # # m +XiX5XP.C.C.C.F.C.C.C.C.C.C.C.C.C.C.C.Z.Z.D.C.Z.C.D.D.D.F.Z.C.k.s.s.N.V.F.F.C.C.C.",
") / ^ ^ ( ^ ^ ^ ^ ^ ^ / / Y J 9 u * * @ @ f +XuX}.B.C.V.F.C.C.C.D.C.C.Z.C.D.C.C.C.Z.C.Z.C.C.C.C.C.D.D.D.F.V.V.V.V.B.C.C.C.F.C.C.",
"^ ^ ^ ^ ^ ^ ^ ^ ^ ^ ^ ) / I 5 0 f ; * * m OX3X,XZ.k.V.V.V.V.V.B.C.C.C.C.C.C.C.C.C.C.C.C.C.C.C.C.C.D.V.D.C.C.C.D.D.D.C.C.C.C.C.C.",
"^ ^ ^ ^ ^ ^ ( ^ ^ ^ ^ / / P H 0 s d ; Z @X3X.XF.V.V.k.k.k.a.k.z.V.D.C.C.C.D.C.C.C.C.C.C.C.C.Z.C.C.D.C.C.D.D.D.C.D.C.C.C.C.C.C.C.",
"^ ^ ^ ^ ^ ^ ^ ^ ^ ^ ^ ) / Y 5 0 i & d 5.sXkX~.h.V.V.z.k.s.s.a.N.V.C.F.C.C.C.C.C.C.C.D.C.C.C.V.C.C.C.C.C.V.F.G.F.F.C.C.C.D.C.C.Z.",
"^ ^ ^ ^ ^ ^ ^ ^ ( ^ ^ ) ^ Y 5 2 9 y s 5.sXkXQ.i.V.V.B.V.N.N.N.B.C.C.C.C.C.C.D.C.C.Z.Z.C.C.C.V.C.C.C.C.C.C.G.J.F.F.C.C.C.C.C.C.C.",
"^ ^ ^ ^ ^ ^ ^ ^ ^ ^ ^ ( ) E H 5 H 5 p 4.1X8XJ.h.z.F.F.D.Z.C.C.C.Z.C.F.C.C.C.B.C.C.V.V.Z.F.G.G.H.F.C.D.C.C.B.S.F.V.D.D.C.C.D.C.C.",
"{ ^ ~ ^ ^ ^ ^ ^ ^ ^ ^ ) ^ ^ Y E W Y T %.v.F.z.i.a.A.G.D.Z.D.Z.C.C.C.C.C.C.C.C.C.C.V.C.F.U.(.(.U.F.C.C.C.C.B.C.Z.D.F.C.C.C.C.C.C.",
"{ ^ ( { ^ ^ ^ ^ ^ ^ ^ ^ ^ ^ ^ ^ [ ) / ' c e.i.i.i.K./.D.F.Z.C.C.C.Z.x.y.B.Z.F.G.G.H.G.P.Y.(.(.U.G.V.V.C.C.C.V.S.V.V.V.V.C.C.C.Z.",
"{ { ..X.{ ^ ^ ^ ^ ^ ^ ^ ^ ^ ^ ^ ) ) _ Y R c 0.i.j.A.Q.F.G.H.Z.Z.C.W.b.B y.Z.Y.R.R.R.R.Y.J.G.G.G.Z.B.D.F.C.C.B.V.V.S.V.C.C.C.C.C.",
"| ..:.:.| ^ ~ ^ ^ ^ ^ ^ ^ ( { | / / ^ I P k q.h.l.B.H.D.G.T.G.Z./.:XD * v v.[.XX(.R.R.U.G.V.B.C.C.C.C.V.V.G./.].].].]./.G.C.V.D.",
";.>.2.:.| ~ ^ ^ ^ ^ ^ ^ ^ { X.X.{ ^ ~ ! ! ' q.j.j.k.C.C.F.F.F.W.6XrXF $ a C 3X0X^.U.H.F.C.V.V.C.C.C.F.V.C.W.7XhXhXhXjX7XW.V.C.C.",
"<.1.=.+.( ^ ^ ^ ( ^ ^ ^ ^ { X.X.{ ^ / ! ! %.q.j.l.a.N.C.V.C.C.Q.7XuX+XS A +X<X XF.C.C.C.C.Z.C.C.C.C.C.V.V.W.7XhXhXgXjXwX`.Z.V.C.",
"=.=.] L E ^ / ^ ^ ^ ^ ^ ^ ) { { ) / / I J t q.j.l.i.V.C.D.C.C.F.^.4XuXtXtX2X!.D.V.C.V.C.C.C.C.C.C.C.C.C.D.G./.].].oXgXwX].F.C.C.",
"O.O.T H U ^ ^ ^ ^ ^ ^ ( ^ ^ ^ ^ / / E J 4 k 9.a.z.N.C.C.C.C.C.C.Z.U.5XgXgXoXH.V.V.F.F.C.C.Z.C.C.C.C.C.C.C.C.C.V.V.^.9X9X/.G.C.C.",
"K K U U ^ ^ ^ ^ ^ ^ ^ ^ ^ ^ ~ / / ~ J 2 , h 9.V. X.XK.S.V.F.C.C.C.C.T./._.`.J.V.V.D.D.D.C.C.D.C.C.C.Z.C.C.C.V.V.V.F.W.~.F.Z.C.C.",
"5 H Y ) ) ^ ^ ^ ^ ^ ^ ^ ^ ^ ^ ^ Y L 5 3 : j v.[.0X6XQ.C.V.C.D.C.C.Z.C.C.S.G.P.V.V.C.V.C.C.F.F.C.C.C.C.C.C.C.F.C.C.D.C.C.C.C.C.C.",
"U Y ^ / ) ^ ( ^ ^ ^ ^ ^ ^ / ^ Y J 5 4 > O n #X0X.X/.H.C.V.F.C.C.C.F.C.C.C.F.F.C.V.D.V.z.V.G.U.C.C.C.C.C.C.C.F.C.C.C.C.C.C.C.C.C.",
"` ` } } } } } } } } } } } } } ` R 6 7 , O b &XqX`.F.Z.C.C.C.C.C.C.C.C.C.C.C.C.C.V.D.C.V.V.U.T.C.C.Z.C.C.C.C.C.C.C.Z.Z.C.C.D.C.C."
};
