/* XPM */
static char *result[] = {
/* columns rows colors chars-per-pixel */
"64 64 231 2 ",
"   c #2E160A",
".  c #1D2003",
"X  c #3E2301",
"o  c #2E3102",
"O  c #283803",
"+  c #193C2D",
"@  c #451E05",
"#  c #4B260D",
"$  c #572A09",
"%  c #4D3211",
"&  c #63361A",
"*  c #593623",
"=  c #493E36",
"-  c #673A24",
";  c #733F2A",
":  c #194A06",
">  c #08530C",
",  c #1A5704",
"<  c #374502",
"1  c #335205",
"2  c #026C00",
"3  c #176400",
"4  c #007400",
"5  c #007E01",
"6  c #007B0D",
"7  c #117A0F",
"8  c #006A18",
"9  c #2A6706",
"0  c #35670C",
"q  c #247307",
"w  c #07562E",
"e  c #304F2E",
"r  c #007829",
"t  c #007D39",
"y  c #43570C",
"u  c #594617",
"i  c #515516",
"p  c #466B16",
"a  c #574C2E",
"s  c #6A4524",
"d  c #73452D",
"f  c #654B3C",
"g  c #6F5434",
"h  c #487022",
"j  c #06514B",
"k  c #274F55",
"l  c #00684A",
"z  c #30714F",
"x  c #184965",
"c  c #2F5971",
"v  c #00726B",
"b  c #366278",
"n  c #594E48",
"m  c #4E504B",
"M  c #6C5346",
"N  c #735A4D",
"B  c #5F666A",
"V  c #516875",
"C  c #8E5F53",
"Z  c #8B6857",
"A  c #917156",
"S  c #87766C",
"D  c #987864",
"F  c #A67964",
"G  c #008301",
"H  c #008B01",
"J  c #00860D",
"K  c #008C0C",
"L  c #009202",
"P  c #009C03",
"I  c #009609",
"U  c #009B0C",
"Y  c #008C12",
"T  c #008919",
"R  c #009B11",
"E  c #00951A",
"W  c #2D8716",
"Q  c #00A500",
"!  c #00A20E",
"~  c #00A515",
"^  c #00A916",
"/  c #00A61C",
"(  c #00AB1B",
")  c #00B21C",
"_  c #009B24",
"`  c #00953C",
"'  c #369B27",
"]  c #00A423",
"[  c #00AE24",
"{  c #00A428",
"}  c #00B126",
"|  c #00B229",
" . c #00BA36",
".. c #04B936",
"X. c #15BB39",
"o. c #1EB938",
"O. c #3CA12C",
"+. c #27AE30",
"@. c #2DAB32",
"#. c #3AB63A",
"$. c #409A28",
"%. c #5BA33D",
"&. c #05924B",
"*. c #5AA54C",
"=. c #5ABB43",
"-. c #40BE58",
";. c #39C041",
":. c #44C545",
">. c #4BC849",
",. c #56C94B",
"<. c #5DCE51",
"1. c #67C94F",
"2. c #67CC51",
"3. c #8F905D",
"4. c #8D846B",
"5. c #B38776",
"6. c #005A8A",
"7. c #005B95",
"8. c #006B8C",
"9. c #006394",
"0. c #006999",
"q. c #007A93",
"w. c #386F91",
"e. c #006CA3",
"r. c #006EAA",
"t. c #0076A6",
"y. c #007AAB",
"u. c #0066BA",
"i. c #006CBC",
"p. c #0075B6",
"a. c #0073BE",
"s. c #0079BE",
"d. c #2F7EA2",
"f. c #4E768F",
"g. c #617F8F",
"h. c #006DC1",
"j. c #0074C4",
"k. c #007BC3",
"l. c #0075CA",
"z. c #007BCA",
"x. c #0482AD",
"c. c #0082B3",
"v. c #0087BA",
"b. c #178EB7",
"n. c #2E8FB0",
"m. c #50879E",
"M. c #748791",
"N. c #4D85A6",
"B. c #6B96AC",
"V. c #0084C5",
"C. c #008AC5",
"Z. c #0085CB",
"A. c #008DCE",
"S. c #0697CA",
"D. c #0091CE",
"F. c #1B99CE",
"G. c #0086D1",
"H. c #008ED0",
"J. c #0094D2",
"K. c #009AD4",
"L. c #069AD6",
"P. c #019AD9",
"I. c #239DD4",
"U. c #1DA3CF",
"Y. c #01A0D7",
"T. c #00AAD3",
"R. c #00A4DA",
"E. c #00ABDC",
"W. c #14A1D7",
"Q. c #00B1DF",
"!. c #27A5D8",
"~. c #2AA5D9",
"^. c #36A2D1",
"/. c #33A7DB",
"(. c #35A9DA",
"). c #3CAADB",
"_. c #00B2E0",
"`. c #459AC2",
"'. c #43AAD7",
"]. c #43ABDC",
"[. c #4AADDC",
"{. c #56B3DF",
"}. c #59B4DD",
"|. c #77ADC9",
" X c #69B6DC",
".X c #7BB7D9",
"XX c #56BAE2",
"oX c #66B9E2",
"OX c #75BBE2",
"+X c #46C2E6",
"@X c #998C85",
"#X c #AD998F",
"$X c #BAAD9B",
"%X c #8DABBA",
"&X c #A7AAAD",
"*X c #ACB2B6",
"=X c #B6B6BA",
"-X c #C1A49B",
";X c #C7B0A8",
":X c #BDD0AC",
">X c #CBC0BC",
",X c #84B2C9",
"<X c #AABDC9",
"1X c #87BEE3",
"2X c #94D6D3",
"3X c #B8C4CA",
"4X c #ADC8D0",
"5X c #BBCAD4",
"6X c #86C4E6",
"7X c #92C9E9",
"8X c #9BCEEB",
"9X c #9DD0EC",
"0X c #91C8F1",
"qX c #A5D3ED",
"wX c #B1D8F0",
"eX c #BADDF1",
"rX c #CBC6C3",
"tX c #DACEC8",
"yX c #DDD1CB",
"uX c #C7CDD6",
"iX c #D9CFD2",
"pX c #CAD3D9",
"aX c #D1D5DA",
"sX c #F9DBD1",
"dX c #FBE3D9",
"fX c #D0D7E0",
"gX c #CBE2EF",
"hX c #C4E2F3",
"jX c #CCE6F4",
"kX c #CDE8F9",
"lX c #D7EDF9",
/* pixels */
"{ { { { _ { { { { { { { { { { { { E T 9 g @XiXwXI.l.j.r.y.A.A.A.A.D.A.A.D.A.A.A.A.A.A.A.A.H.A.A.A.A.A.D.A.A.A.A.A.A.A.A.A.D.A.A.",
"~ ~ ~ ~ ~ ~ / ~ ~ ~ ~ ~ ~ ~ ~ / ~ P 5 p A -XuX7XJ.z.l.e.t.A.A.A.A.A.A.A.A.A.A.H.A.H.A.A.A.A.H.A.A.A.A.A.A.A.J.A.A.A.A.A.A.A.H.A.",
"~ ~ ~ ~ ~ / ~ ~ ~ ~ ~ ~ ~ ~ ~ ( ~ L 2 %.:XpX.XC.k.l.j.e.t.A.A.A.A.A.A.A.A.A.A.A.A.A.A.A.A.A.A.A.H.A.A.H.A.A.A.A.A.A.A.H.A.A.A.A.",
"~ ~ ~ ~ ~ ~ ~ ~ ~ ~ / ~ ~ ~ ~ ( ~ H 2 *.*X7XK.i.i.p.e.e.s.A.A.A.A.A.A.H.J.A.A.A.A.D.A.A.A.D.A.A.A.H.C.Z.A.A.A.A.A.A.A.A.A.A.A.A.",
"~ ~ ~ ~ ~ ~ ~ / ~ ~ ~ ~ ~ ~ ~ ( ( K 8 z n.P.Z.h.a.e.9.s.C.A.A.H.A.A.A.A.A.A.A.A.A.A.A.A.A.A.A.A.A.A.Z.C.A.A.A.A.A.A.A.A.A.A.A.A.",
"~ ~ ~ ~ ~ ~ ~ ~ ~ ~ ~ ~ ~ ~ ~ ^ ! K e k 7.u.l.j.j.e.n.N.^.F.C.A.A.A.D.A.A.A.A.A.A.D.A.A.A.A.H.A.C.J.'.].J.A.A.A.A.A.A.A.H.A.A.D.",
"/ ~ ~ ~ ~ / ~ ~ ~ / ~ ~ ~ ( ~ ! H 9 a m 7.h.h.j.a.p.b.`.W.`.n.Z.A.A.A.A.A.H.A.A.A.A.A.A.A.A.A.Z.H.).qXqX).C.G.A.A.H.A.A.A.H.A.A.",
"~ ~ ~ ~ ~ ~ ~ ~ ~ ~ ~ ~ ~ ^ ~ R 6 1 s B f.H.Z.j.a.p.r.S.oX.X^.G.A.C.A.J.A.A.A.A.A.A.A.A.A.A.A.Z.Z.).qXqX).A.Z.H.H.D.A.J.A.A.A.A.",
"~ ~ ! ~ ~ ~ ~ ~ ~ ~ ~ ~ ~ ^ ^ E 8 O % Z <X1XP.l.z.e.x g.|. XT.S.A.A.H.A.A.A.A.A.A.A.A.A.A.A.C.A.A.K.].).J.A.A.H.A.H.A.H.A.A.A.A.",
"[ } ( ~ ~ ~ ~ ~ ~ ~ / ~ ~ ( ^ T > .   D sXlX].G.J.N.= n n.U.[.).J.H.A.A.A.A.H.A.A.A.H.A.H.C.A.C.C.A.A.Z.c.c.C.H.C.Z.Z.C.A.A.A.A.",
"X.X.} ~ ~ ~ ~ ~ ~ ~ ~ ~ ~ ) ^ J : X # F sXkX).P.6X*XN # n @XpX9X/.A.A.A.A.A.A.A.A.A.A.A.A.A.A.Z.H.A.Z.y.V V y.H.z.k.a.z.Z.J.J.A.",
"X.X.] ~ ~ ~ ~ ~ / ~ ~ ~ ~ ^ ( G o & C -XuXOXG./.qXpX#XM n S &X,XU.K.K.J.A.A.A.A.D.A.A.A.A.A.A.A.A.A.c.b M f V y.V.a.s.V.A.A.A.A.",
"} [ ( ~ ~ ~ ~ ~ ~ ~ ~ ~ ~ ^ ^ G i C ;XaX.XV.a.L.[.OX5X>X>X&Xm.b.T.Q._.R.J.A.A.A.A.A.A.A.A.A.A.H.A.c.b M d s f m.A.V.Z.A.A.A.A.A.",
"~ ~ ~ ~ ~ ~ ~ ~ ~ ~ ~ ~ ~ ^ ^ K h 3.:X2XD.u.i.C.P.K.6XhXhX.XS.T.E.E.E.E.Y.J.A.A.A.A.A.A.A.C.b.n.t.b a ; s $ & S |.!.J.Z.A.A.A.A.",
"~ ~ ~ ~ ~ ~ ~ ~ ~ ~ ~ ~ ~ ^ ^ R E @.-.&.x.i.h.z.A.A.Y.].XXQ.P.K.K.K.K.Y.E.E.J.A.A.A.A.A.A.v.%X*Xg.a * ; d & - D 3X8XW.A.A.A.A.A.",
"~ ~ ~ ! ! ( ( [ ] ~ ! ~ ~ ~ ~ ^ ) ^ ) &.q.j.j.j.Z.A.D.K.E.E.Y.K.J.J.J.Y.E.R.J.A.A.A.A.A.A.v.B.*X#XD D D D D D #XaXeX1X).J.A.A.A.",
"~ ~ ~ ! ~ [  .X.[ ~ ! ~ ~ ~ ^ ^ ^ Q H t 8.j.l.k.V.H.A.H.J.Y.E.E.E.E.E.E.K.J.H.A.A.A.D.A.A.C.c.m.=XtXtXyXyXtXtXaXgXlXkX8X~.Z.A.A.",
"~ ~ ~ ~ [  .>.;.[ ( [ } ( ~ ! ~ R G , w 0.z.l.s.V.A.A.Z.H.J.Y._._.Q._.R.J.A.A.A.A.A.A.A.A.A.D.C.,XgXhXgXlXlXlXjXhXgXjX8X~.A.Z.A.",
"~ ! ~ [  .,.2.;.[ [  .X.} ^ ~ ! H 3 o + 9.z.z.j.k.z.C.A.A.H.J.J.K.K.K.J.H.A.A.A.A.A.A.A.A.A.A.A.W./.).OXeXlXlXhX6X[.].).J.A.A.A.",
"~ ~ ~ ( @.=.2.:. .| #.@.] ^ ^ U H 2 1 w v t.s.a.j.z.V.Z.A.A.A.A.C.A.A.A.A.A.A.A.A.A.Z.Z.A.A.A.A.A.G.Z.~.9XjXlX8XU.Z.Z.A.A.A.A.A.",
"~ ^ ~ R I $.=.<.>.#.' Y R ( ~ ~ R H G 6 r v q.j.k.j.s.V.A.A.A.A.A.A.A.A.A.A.A.A.A.A.A.Z.A.H.A.A.A.A.A.J.).{.{.(.H.Z.Z.A.A.A.A.A.",
"~ ( ~ L G J ' =.=.O.J G L ~ ^ ~ ^ ) ( P 2 w 6.j.z.k.s.z.Z.A.D.A.A.A.A.A.A.A.Z.Z.Z.J.).].J.A.A.A.A.A.A.A.Z.A.Z.A.A.A.A.A.A.A.A.A.",
"~ ^ ^ ~ P K J W W Y K I ~ ~ ^ ~ ^ ) ) H : w 6.j.z.z.V.Z.A.C.A.A.A.A.A.A.A.A.A.Z.Z./.qXqX].A.Z.A.A.A.A.A.A.Z.Z.Z.A.A.A.A.A.A.A.A.",
"~ ~ ~ ( ~ R H 4 4 H U ( ^ ~ ~ ~ ~ ( ~ 4 o = f.I.G.z.V.V.C.A.D.A.A.A.A.A.A.J.).].[.6XeXqX/.Z.H.A.A.A.A.A.A.A.H.A.A.A.A.A.A.H.A.A.",
"U ( ~ ^ ( ~ I L K U ~ ^ ^ ~ ~ ^ ^ ! H 9 % Z =X9XP.j.j.t.c.A.H.A.A.A.A.Z.A.~.9XhXjXeXOX/.J.A.A.A.A.A.A.A.D.A.A.A.A.A.A.A.H.A.A.A.",
"U ~ ( ~ ~ ^ ~ ^ ! ~ ~ ~ ~ ~ ~ ( ( L 2 y A ;XaX7XK.j.h.0.y.A.A.H.A.A.A.A.Z.!.8XkXjX8XW.Z.Z.A.A.A.A.H.A.A.A.A.A.A.A.A.A.A.A.A.A.A.",
"~ ~ ~ ~ ~ ~ ^ ~ ^ ~ ~ ~ ~ ~ ~ ) ( G : g -XfX1XS.z.j.j.0.y.H.A.A.A.A.A.A.A.J.).{.{./.J.Z.A.A.A.A.A.D.A.A.A.A.A.H.A.H.A.A.A.A.A.A.",
"~ ~ ~ ~ ~ ~ ~ ( [ [ ( ~ ~ ~ ! ! U 2 < g $X<XA.u.i.j.j.r.c.A.A.A.A.A.A.A.A.H.J.J.A.Z.Z.A.H.A.A.A.A.A.A.A.H.A.A.A.A.A.A.A.A.A.A.H.",
"~ ~ ~ / ~ ~ ~ [ X.X.} ~ ~ ~ ~ ! H 9 u d C B e.u.i.j.a.k.V.A.A.A.A.A.A.A.A.J.Y.P.J.Z.Z.A.A.H.A.A.A.A.A.A.A.D.A.A.A.A.A.A.D.A.A.A.",
"~ ~ ~ ~ ~ ~ ~ [ X.X.[ ! ! ( } [ K q i u $ m d.J.Z.s.s.z.C.A.A.A.A.A.A.A.A.J.E.E.Y.K.P.J.H.A.Z.A.A.A.A.A.A.A.A.A.A.A.A.A.A.A.A.H.",
"~ ~ ~ ~ ~ ~ ~ ( } [ ( ! ! [ X.o.] K 7 < # M *X0XP.z.V.V.C.A.A.A.A.A.A.A.A.A.J.Y.E._._.R.J.A.A.A.A.C.A.A.A.H.A.A.A.H.A.A.A.A.A.A.",
"~ ~ ~ ~ ~ ~ ~ ~ ~ ~ ~ ~ ^ } X...| P 5 : % D sXlX[.z.Z.H.H.A.A.A.A.A.A.A.A.A.A.D.R.E._.E.Y.J.K.K.K.J.D.A.A.A.A.A.A.A.A.A.J.A.A.A.",
"~ ~ ~ ~ ~ ~ ~ ~ ~ ~ ~ ~ ~ ( [ } ( Q G , & F sXlX].z.C.A.A.A.A.C.A.A.A.D.A.A.A.A.J.K.J.P.E._.E._._.R.J.A.A.A.A.A.A.A.A.A.H.A.A.A.",
"~ ~ ~ ~ ~ ~ ~ ~ ~ ~ ~ ~ ~ ~ ~ ~ ^ U H 3 i 3.<X7XP.j.A.A.A.A.A.A.A.A.A.A.A.A.A.A.A.A.A.J.R.Q.Q.Q.Q.R.J.A.A.A.A.A.D.A.A.A.A.A.A.D.",
"~ ~ ~ ~ ~ ~ ~ ~ ~ ~ ~ ~ ~ ~ ~ ~ ^ ~ R H q $.n.A.Z.j.Z.A.A.A.A.A.D.A.A.A.A.A.A.A.A.Z.Z.H.J.K.K.K.K.J.J.A.A.A.A.A.A.A.A.A.A.A.A.A.",
"! ~ ( [ ( ~ ~ ~ ~ ~ ~ ~ ~ ~ ~ ~ / ( ^ L 6 l 0.h.l.a.z.D.J.A.A.A.C.A.A.A.A.A.H.A.H.C.y.c.D.A.A.A.A.A.A.A.A.A.H.A.A.H.A.A.A.H.A.A.",
"~ [ X...] ~ ~ ~ ~ ~ ~ ~ ~ ~ ~ / / ( ( I 8 j 7.h.j.i.a.J.K.A.D.J.D.D.D.A.A.A.H.A.H.t.k f.F.A.A.A.A.A.A.A.A.A.A.A.A.A.A.A.A.A.A.J.",
"(  .,.:.| ~ ! ^ ~ ~ ~ / ~ ~ ~ ( ] ] _ 6 > j 7.l.l.i.a.C.K.A.A.J.K.J.J.A.A.J.(.'.v.x   B |.).J.H.A.H.A.A.A.A.A.A.D.A.A.A.A.A.A.A.",
" .,.2.:.| ~ ~ ~ / ~ ~ ~ ~ ~ ^ ^ / _ r : o + 7.j.z.a.a.k.A.A.A.J.D.J.D.A.C.~.8X<XB     N rX8X~.H.H.A.A.A.H.A.A.A.A.A.A.H.A.A.A.A.",
":.1.=.+./ ~ ~ ~ ~ ~ ~ ~ ~ ~ ~ ^ ( T w o X e 9.z.z.a.k.k.Z.A.A.A.A.A.A.A.A.F.,X*X5.M f @XuX8XI.V.Z.Z.A.D.A.A.D.A.H.A.A.A.A.A.A.A.",
":.=.$.I R ^ ^ ~ ~ ~ / ~ ~ ~ ~ ) ^ J : X $ m 0.l.z.k.V.Z.C.H.A.A.A.A.A.A.A.C.c.B.*X>X>XuX.XI.V.s.s.z.C.H.D.A.C.A.A.A.A.H.A.A.D.A.",
"@.O.J G I / ^ ~ ~ ~ ~ ~ ~ ~ ~ ^ ~ G < $ & n w.r.i.z.A.A.A.H.A.A.D.A.A.A.A.A.D.v.,XhXjX7XS.k.j.k.k.z.V.C.A.H.H.A.A.A.A.A.A.A.A.A.",
"Y J K I R ~ ^ ~ ~ ~ ~ ~ / ~ ~ ~ H q u & & - n c r.H.J.A.Z.A.H.A.J.A.D.A.A.A.A.A.S.].).Y.Z.Z.Z.Z.Z.V.k.V.Z.A.D.A.A.A.A.A.A.A.A.A.",
"H G U ( ^ / ~ ~ ~ ~ ~ ~ ~ ( ( L 2 1 g d * $ $ M f.].!.Z.Z.H.A.A.A.A.A.A.D.A.A.A.D.A.A.A.D.A.A.A.A.Z.z.k.V.V.Z.C.C.H.A.A.D.A.H.A.",
"I I ~ / ^ ~ ~ ~ ~ ~ ~ ~ ^ ^ ( G : % - ; * @ @ N *XqX).A.A.A.A.A.A.A.A.J.A.A.A.A.A.A.A.A.H.A.H.J.J.A.A.V.s.s.s.k.C.A.J.A.H.H.A.A.",
"^ ~ ~ ~ ^ ~ / ~ ~ ~ / ( ^ ~ ~ 6 < # - * @ # d #XuX7XU.J.J.A.A.A.A.A.A.H.A.H.D.A.A.D.D.D.H.A.A.D.A.A.H.Z.z.s.s.k.Z.A.A.A.D.D.A.A.",
"^ ^ ^ ~ ~ ~ ~ ~ ~ ~ ~ ~ ~ ! H q u * * @   M $X5X XD.A.J.H.A.A.A.A.A.A.A.A.A.A.H.A.A.D.H.A.A.A.A.A.H.A.A.Z.Z.Z.C.A.H.A.D.A.J.A.A.",
"~ ^ ~ ~ / ~ ~ ~ ~ ~ ~ ^ ~ P G 0 s d - & M @X5X1XC.z.V.Z.Z.Z.A.A.A.A.A.A.A.A.A.A.A.A.A.A.A.A.A.A.A.A.A.A.H.H.H.H.A.A.A.A.A.A.A.A.",
"~ ~ ~ ~ ~ ~ / ~ ~ ~ ~ ( ~ L 5 0 s d ; C -X5XOXJ.Z.V.z.j.s.z.C.H.J.A.A.A.A.H.A.A.A.A.A.A.A.A.A.A.A.A.A.J.H.H.A.H.H.A.H.A.A.A.A.A.",
"~ ~ / ~ ~ ~ ~ ~ / ~ ~ ~ ( P 5 0 i & s 5.dXlX/.h.Z.A.z.s.s.k.A.A.A.A.A.A.A.A.A.A.A.A.A.A.A.A.A.A.A.A.A.A.H.J.J.J.J.A.A.A.A.A.A.A.",
"~ ~ ~ ~ ~ ~ ~ ~ ~ ~ ~ ( ( I 5 2 9 y s 5.dXlX~.i.V.A.C.Z.V.V.C.A.A.A.H.A.A.A.A.A.A.A.A.A.A.A.A.A.A.A.A.A.H.J.P.J.J.A.A.A.A.A.H.A.",
"/ ^ U ~ ~ ~ ~ ~ ~ ~ ~ ( ~ R H 5 G 5 h 4.4X0XP.h.z.D.J.D.D.A.H.A.A.A.A.A.A.A.A.A.Z.A.A.D.J.J.J.A.A.A.A.A.H.Z.H.H.A.A.A.A.A.A.A.A.",
"[ ~ ! ~ ~ ~ ~ ~ ~ ~ ~ ~ ~ ~ R R E U Y &.n.J.z.i.a.J.K.J.A.H.D.A.D.A.A.A.A.A.C.A.A.A.Z.J.E.R.K.A.A.A.A.A.A.V.C.J.A.A.A.A.A.A.A.A.",
"[ ! ( ] ( ~ ~ ~ ~ ~ ~ ~ ~ ~ ~ ~ ] ( ^ ` v e.i.i.i.F.(.H.J.D.C.A.A.D.v.y.C.D.K.K.K.K.K.R.E.R.J.A.A.A.H.C.A.Z.Z.Z.Z.Z.A.A.H.A.A.A.",
"[ [ ..X.[ ~ ! ~ ~ / ~ ~ ~ ~ ~ ( ( ( ^ U r v 0.i.j.S./.J.K.L.D.A.H.I.M.c y.J.R._._.E._.E.K.J.H.A.A.H.A.A.A.Z.Z.Z.A.A.A.A.A.A.A.A.",
"| ..>.:.| ~ ! ^ ~ ~ ~ ~ ~ ( [ [ ( ^ ^ P H t q.h.j.A.J.H.K.W.K.J.).,XS * b n.}.+X_._._.R.J.A.A.A.A.C.A.J.).{.{.{.{.).K.A.A.A.H.A.",
";.>.2.:.| ! ~ ~ ~ ~ ~ ~ ~ [ X.X.[ ~ ~ Q Q ` q.j.j.k.A.A.J.J.H.!.8XuXD $ a g.rXqX/.K.K.J.J.A.C.H.A.H.A.~.qXkXjXjXjX8X~.A.A.A.A.A.",
"1.1.=.+./ ~ ~ ~ ~ ~ ~ ~ ~ [ X.X.} ~ ~ Q Q &.q.j.l.j.V.A.A.A.A.!.9XuX#XA A #X<XoXJ.A.A.A.A.A.A.A.A.Z.C.~.8XjXjXjXjX8XoX(.J.H.A.A.",
"=.=.' K R ~ ~ ~ ~ ~ ~ ~ ~ ( [ [ ( ^ ^ P H t q.j.j.h.V.H.A.A.A.J.(.6XpXtXtX4XI.H.A.A.Z.A.A.A.A.A.A.A.A.J.).{.{.{.{.oXwXqX(.J.H.A.",
"O.O.Y G U ~ ( ~ / ~ ~ ~ ~ ~ ~ ~ ^ ^ U H 4 l 9.a.j.j.Z.A.A.A.A.A.C.R.7XgXhX6XJ.A.Z.J.H.A.A.A.A.A.A.A.A.A.Z.A.A.Z.Z.(.qXqX].J.A.A.",
"J Y K P ~ ~ ~ ~ ~ ~ ~ ~ ~ ~ ~ ~ / ~ H 4 , j 9.V.A.V.Z.H.A.A.J.A.A.A.W.].).[.P.Z.z.J.H.A.A.A.A.A.A.A.A.A.A.Z.Z.Z.A.J.).).K.J.A.A.",
"5 G U ( ( ~ ~ ~ ~ ~ ~ ~ ~ ~ ~ ~ R L 5 , : k d.[.~.Z.Z.H.A.A.A.A.A.A.A.A.H.P.K.Z.Z.A.A.A.A.J.J.A.A.A.A.A.A.D.H.J.A.H.A.A.A.A.A.A.",
"K U ~ ^ ( ~ ~ ~ ~ ~ ~ ~ ~ ^ ^ U H 5 4 > O m %XqX/.A.A.H.A.A.A.A.A.A.A.A.A.J.J.A.Z.A.A.z.Z.K.P.D.A.H.A.A.A.A.A.A.A.A.A.A.A.A.A.A.",
"] _ { { { { { { { { { { { { { _ T 7 7 , : n =XwX(.A.A.A.A.A.H.A.A.A.A.A.A.A.H.A.Z.A.A.Z.A.Y.W.A.A.A.A.A.A.A.A.A.A.A.D.A.A.A.A.A."
};
