/* XPM */
static char *result[] = {
/* columns rows colors chars-per-pixel */
"64 64 234 2 ",
"   c #2D160B",
".  c #2D2F04",
"X  c #3E2301",
"o  c #283701",
"O  c #193C2D",
"+  c #451E05",
"@  c #4B270D",
"#  c #572A09",
"$  c #4B310D",
"%  c #5D311C",
"&  c #64371A",
"*  c #593623",
"=  c #493E36",
"-  c #673A24",
";  c #733F2A",
":  c #194A06",
">  c #08530C",
",  c #1A5704",
"<  c #374502",
"1  c #354F0A",
"2  c #026C00",
"3  c #176400",
"4  c #007400",
"5  c #007D01",
"6  c #007B0D",
"7  c #117A0F",
"8  c #006918",
"9  c #2A6706",
"0  c #39670A",
"q  c #247307",
"w  c #2C6412",
"e  c #07562E",
"r  c #2F4E2D",
"t  c #007829",
"y  c #007D39",
"u  c #43570C",
"i  c #584617",
"p  c #515516",
"a  c #466B16",
"s  c #574C2E",
"d  c #694524",
"f  c #73452D",
"g  c #654B3C",
"h  c #6F5434",
"j  c #487022",
"k  c #05514B",
"l  c #274F55",
"z  c #00684A",
"x  c #31714F",
"c  c #184965",
"v  c #00726B",
"b  c #366278",
"n  c #594E48",
"m  c #4E504B",
"M  c #6C5346",
"N  c #765A49",
"B  c #70615C",
"V  c #516875",
"C  c #5A6972",
"Z  c #8D5F53",
"A  c #8D6956",
"S  c #907156",
"D  c #87766C",
"F  c #997865",
"G  c #A37564",
"H  c #008301",
"J  c #008B01",
"K  c #00850D",
"L  c #008C0C",
"P  c #009202",
"I  c #009C03",
"U  c #009609",
"Y  c #009B0C",
"T  c #008B13",
"R  c #008818",
"E  c #009B11",
"W  c #009518",
"Q  c #2D8716",
"!  c #00A502",
"~  c #00A20E",
"^  c #00A515",
"/  c #00A916",
"(  c #00A61C",
")  c #00AB1B",
"_  c #00B21C",
"`  c #009B24",
"'  c #00953C",
"]  c #369B27",
"[  c #00A423",
"{  c #00AE24",
"}  c #00A428",
"|  c #00B126",
" . c #00B229",
".. c #00BA36",
"X. c #04B936",
"o. c #15BB39",
"O. c #1EB938",
"+. c #3CA12C",
"@. c #27AE30",
"#. c #2DAB32",
"$. c #3AB63A",
"%. c #409A28",
"&. c #05924B",
"*. c #5AA54C",
"=. c #5ABB43",
"-. c #40BE58",
";. c #39C041",
":. c #44C545",
">. c #4BC849",
",. c #56C94B",
"<. c #5DCE51",
"1. c #67C94F",
"2. c #67CC51",
"3. c #8F905D",
"4. c #8D846B",
"5. c #B28671",
"6. c #005A8A",
"7. c #005B95",
"8. c #006B8C",
"9. c #006797",
"0. c #007A93",
"q. c #386F91",
"w. c #006CA3",
"e. c #006EAA",
"r. c #0076A6",
"t. c #007AAB",
"y. c #0066BA",
"u. c #006CBC",
"i. c #0075B6",
"p. c #0073BE",
"a. c #0079BE",
"s. c #2F7EA2",
"d. c #4E768F",
"f. c #617F8F",
"g. c #006DC1",
"h. c #0074C4",
"j. c #007BC3",
"k. c #0075CA",
"l. c #007BCA",
"z. c #00B484",
"x. c #0482AD",
"c. c #0082B3",
"v. c #0087BA",
"b. c #178EB7",
"n. c #2E8FB0",
"m. c #50879E",
"M. c #748791",
"N. c #4E86A6",
"B. c #6B96AC",
"V. c #0084C5",
"C. c #008AC5",
"Z. c #0085CB",
"A. c #008DCE",
"S. c #0697CA",
"D. c #0091CE",
"F. c #1B99CE",
"G. c #0086D1",
"H. c #008ED0",
"J. c #0094D2",
"K. c #009AD4",
"L. c #069AD6",
"P. c #019AD9",
"I. c #239DD4",
"U. c #1DA3CF",
"Y. c #01A0D7",
"T. c #00AAD3",
"R. c #00A4DA",
"E. c #00ABDC",
"W. c #14A1D7",
"Q. c #00B1DF",
"!. c #27A5D8",
"~. c #2AA5D9",
"^. c #37A4D7",
"/. c #32A7DA",
"(. c #35A9DA",
"). c #3CAADB",
"_. c #00B2E0",
"`. c #459AC2",
"'. c #43AAD7",
"]. c #43ABDC",
"[. c #4AADDC",
"{. c #56B3DF",
"}. c #59B4DD",
"|. c #77ADC9",
" X c #69B6DC",
".X c #7BB7D9",
"XX c #56BAE2",
"oX c #66B9E2",
"OX c #75BBE2",
"+X c #46C2E6",
"@X c #7FC2E5",
"#X c #998C85",
"$X c #AD998F",
"%X c #BAAD9B",
"&X c #8DABBA",
"*X c #A7AAAD",
"=X c #ACB2B6",
"-X c #B7B6B9",
";X c #C1A39B",
":X c #C6AFA7",
">X c #BDD0AC",
",X c #CBC0BC",
"<X c #84B2C9",
"1X c #8FBBD2",
"2X c #AFBDC8",
"3X c #87BEE3",
"4X c #94D6D3",
"5X c #B8C4CA",
"6X c #ADC8D0",
"7X c #BBCAD4",
"8X c #87C5E7",
"9X c #92C9E9",
"0X c #9BCEEB",
"qX c #9DD0EC",
"wX c #91C8F1",
"eX c #A5D3ED",
"rX c #AAD7EE",
"tX c #B1D8F0",
"yX c #BADDF1",
"uX c #CBC6C3",
"iX c #DACEC8",
"pX c #DDD1CB",
"aX c #C7CDD7",
"sX c #D9CFD2",
"dX c #CBD4D8",
"fX c #D1D5DA",
"gX c #FBDCD4",
"hX c #FDE3D7",
"jX c #D0D7E0",
"kX c #CBE2EF",
"lX c #C4E2F3",
"zX c #CCE6F4",
"xX c #CCE8F9",
"cX c #D6EDF9",
/* pixels */
"} } } } ` } } } } } } } } } } } } W R w h 5.pXtXI.k.h.e.t.A.A.A.A.A.A.A.A.A.A.A.A.A.A.A.A.A.A.A.H.A.A.A.A.A.D.A.A.A.A.A.A.A.A.H.",
"^ ^ ^ ^ ^ ^ ( ^ ^ ^ ^ ^ ^ ^ ^ ( / P H a S %XaX8XJ.k.k.w.r.A.A.A.A.A.A.A.A.J.A.A.A.A.A.D.A.A.A.A.A.A.A.A.A.A.A.A.A.A.A.A.A.A.A.A.",
"^ ^ ^ ^ ^ ( ^ ^ ^ ^ ^ ^ ^ ^ ^ ) ) P 6 j >XaX.XA.l.k.h.w.r.A.A.A.A.D.A.A.A.A.A.A.A.A.D.A.A.A.A.A.A.A.D.A.A.A.A.A.A.A.D.H.A.A.A.A.",
"^ ^ ^ ^ ^ ^ ^ ^ ^ ^ ( ^ ^ ^ ^ ) ( P 4 *.=X9XP.p.u.i.w.w.a.A.A.A.A.A.A.A.A.A.A.A.A.A.A.A.A.A.D.A.A.A.Z.A.A.A.A.A.A.A.A.A.A.A.A.D.",
"^ ^ ^ ^ ^ ^ ^ ( ( ^ ^ ^ ^ ^ ^ ) ) L 8 x n.P.l.g.p.9.9.i.A.A.A.A.D.A.A.A.H.A.A.A.A.A.A.A.A.A.A.A.A.A.V.A.A.A.A.A.A.A.A.A.A.A.A.A.",
"^ ^ ^ ^ ^ ^ ^ ^ ^ ^ ^ ^ ^ ^ ^ / ^ H w c 7.g.h.h.h.w.n.N.^.F.C.A.A.A.D.A.A.A.A.A.A.A.A.A.A.A.A.A.A.J.'.'.D.A.A.A.H.A.A.A.H.A.A.A.",
"( ^ ^ ^ ^ ( ^ ^ ^ ^ ^ ^ ^ / / Y P 0 s m 7.g.h.h.h.i.b.`.W.`.n.A.Z.A.A.A.A.A.D.A.A.D.A.A.A.A.A.Z.A.).eXeX).A.Z.A.A.A.A.A.A.H.A.D.",
"^ ^ ^ ^ ^ ^ ^ ^ ^ ^ ^ ^ ^ / / E 6 u d B N.H.Z.h.p.i.e.S. X.X^.Z.A.A.D.H.A.H.A.A.A.A.A.A.A.A.A.Z.Z.).eXeX).A.Z.A.A.J.D.H.A.A.A.A.",
"^ ^ ^ ^ ^ ^ ^ ^ ^ ^ ^ ^ ^ / / W e 1 * F 2X9XP.h.k.w.c f.|. XY.S.A.A.D.A.A.A.A.A.A.A.A.A.A.A.V.A.A.K.].).K.A.A.A.A.H.A.A.A.A.A.A.",
"{ { ) ^ ^ ^ ^ ^ ^ ( ^ ^ ^ ) / R > . % 5.gXcX].G.L.s.s n n.U.[.).J.A.A.A.A.A.A.A.H.A.A.A.A.A.A.C.A.A.A.V.t.x.A.A.Z.Z.Z.Z.A.A.A.A.",
"o.o.{ ^ ^ ^ ^ ^ ^ ^ ^ ^ ^ _ ) K : X # 5.gXxX(.P.8X=XN @ n M.dXqX~.A.A.A.A.A.A.A.A.A.A.D.A.A.A.A.A.A.V.t.V V x.Z.V.a.a.V.A.A.D.A.",
"o.o.{ ^ ^ ^ ^ ^ ^ ^ ^ ( ^ / / H . & Z ;XdX.XH.~.eXfX$XM M F *X<XU.K.K.J.H.Z.A.A.A.A.A.A.A.A.A.A.A.C.t.q.M g V c.j.j.h.j.Z.A.J.A.",
"{ { ) ^ ^ ^ ^ ^ ^ ^ ^ ^ ^ / / H p Z :XaX.XV.h.S.[. XaX,X,X*Xm.b.T.Q._.R.J.A.A.A.A.A.A.A.A.A.A.A.A.c.b M h ; g d.D.Z.Z.Z.A.A.A.A.",
"^ ^ ~ ^ ^ ^ ~ ^ ^ ^ ^ ^ ^ / / L j 3.>X4XD.y.y.A.P.P.8XlXzX.XS.T.E.E.E.E.Y.J.A.A.A.A.A.H.A.C.b.n.r.b g d & & & D |.!.J.Z.A.A.A.A.",
"~ ^ ^ ^ ^ ^ ^ ^ ^ ^ ^ ^ ^ ^ / E W #.-.z.x.u.g.j.A.A.K.].XX_.Y.K.K.J.K.Y.E.E.J.A.A.A.A.A.A.v.&X=Xf.s % d f & & F 5X0XW.A.A.A.A.A.",
"^ ^ ^ ^ ^ ^ { { ( ^ ~ ^ ^ ^ ^ ) _ ! I &.0.h.k.a.Z.A.J.K.R.E.Y.J.J.K.J.Y.E.R.K.A.A.A.A.A.A.v.B.=X$XF F F F F F $XfXyX8X).J.A.A.A.",
"^ ^ ^ ~ ~ { X.o.{ ^ ~ ^ ^ ^ ^ / / ! J t 0.k.k.h.V.A.A.G.J.Y.E.E.E.E.E.E.K.J.G.A.A.A.A.A.A.C.c.m.:XsXiXpXiXiXpXfXkXcXcX0X~.Z.Z.A.",
"^ ^ ^ ) | ..>.;.{ ) { | ) ^ ^ ~ E H 3 e 9.k.k.a.V.A.A.A.A.J.R.Q._._.Q.R.J.A.A.A.A.D.A.A.A.A.A.C.<XlXlXzXcXcXcXkXkXzXlX0X~.A.Z.A.",
"^ ^ ^ { ..,.2.;.| { ..o.| ^ ^ ~ J , o O 6.l.k.h.a.l.A.A.A.A.J.K.K.K.K.J.D.A.A.A.A.A.S.G.A.A.H.A.W./.^.OXyXcXcXlX8X[.].).J.A.A.A.",
"^ ^ ~ ( #.=.1.:... .$.#.{ ^ ^ ~ J 2 1 e v r.a.j.h.l.V.Z.A.A.A.A.A.A.A.A.A.A.A.A.A.A.Z.Z.A.A.A.A.A.G.G.~.qXzXcX0XW.Z.Z.A.A.A.A.A.",
"^ ^ ^ E W %.=.<.>.$.] T E / / ^ Y P H 6 t v 0.k.j.h.a.l.A.A.A.A.A.A.A.Z.A.A.A.A.A.A.Z.A.A.A.A.A.A.A.A.J.).{.{./.H.Z.Z.A.A.A.A.A.",
"^ ) / P H K ] =.=.+.K H U / ^ ^ ^ ) _ I 2 e 6.h.l.j.a.V.Z.A.A.A.A.A.A.A.A.A.A.Z.Z.J.(.].J.A.A.A.A.A.A.A.A.A.A.Z.A.A.A.A.A.A.A.A.",
"/ ^ ^ ^ U U L Q Q T U U E / / ^ ) _ _ J , O 6.j.l.l.Z.Z.A.A.D.A.A.A.A.A.A.A.A.Z.Z./.eXeX].A.A.A.A.A.A.A.Z.Z.Z.A.A.A.A.A.A.A.A.A.",
"^ / ^ / ) Y H 4 4 H Y ) / ^ ^ ^ ^ ) ^ 4 o = d.I.G.h.Z.v.C.A.A.A.A.A.A.A.A.J.).].[.8XyXeX/.A.Z.A.A.A.A.A.A.A.A.H.A.A.A.D.A.A.A.A.",
"Y ^ ) / ) ^ U P P U ^ ) / ^ ^ / / ~ J 3 $ A -X0XP.h.h.e.c.A.D.A.A.A.A.A.A.!.0XzXzXyX@X~.J.A.A.A.A.A.D.A.A.A.A.A.A.A.A.A.A.H.A.A.",
"Y ^ ^ ^ ^ / ^ ^ ^ ^ ^ ^ ^ ^ ^ / ) P 2 u A :XfX9XP.h.h.9.t.A.A.H.A.A.A.Z.Z.!.0XzXzXqXW.Z.Z.A.A.A.A.A.A.A.A.H.A.A.A.A.A.A.A.A.A.A.",
"^ ^ / ^ ^ ^ / / / ^ ^ ^ ^ ^ ^ ) ) 5 : h %XjX3XS.l.h.h.9.t.A.A.A.A.A.A.A.A.J.(.{.}./.J.Z.Z.A.A.A.A.A.A.A.A.A.A.D.A.A.A.A.A.A.A.D.",
"^ ^ ^ ^ ^ ^ ^ ) { { ) ^ ^ ^ ^ / E 4 < h %X2XA.y.u.h.h.e.c.A.A.A.A.A.D.A.A.A.J.J.G.Z.Z.A.H.A.H.A.A.A.H.A.A.A.A.A.A.A.H.A.H.A.A.A.",
"^ ^ ^ ^ ^ ^ ^ { o.o.{ ^ ^ ^ ^ I J 9 i f A C w.y.h.a.a.a.V.A.A.A.A.A.A.A.A.J.Y.P.J.Z.Z.A.A.A.A.A.A.A.A.A.A.A.H.A.A.A.H.A.A.A.A.A.",
"^ ^ ( ^ ^ ^ ^ | o.o.| ~ ~ ) | { L q p & # m s.J.Z.a.j.l.V.A.A.A.A.A.A.A.A.J.E.E.Y.K.K.J.A.Z.A.A.A.A.A.A.A.A.A.A.A.A.A.A.A.A.A.A.",
"^ ^ ^ ^ ^ ^ ^ ( { { ) ~ ~ | o.O.[ L 7 < X M =XwXP.h.Z.V.A.A.A.A.A.A.A.A.A.A.J.Y.E._.Q.R.J.A.Z.A.A.A.A.A.A.A.H.A.A.A.A.A.A.A.J.A.",
"^ ^ ^ ^ ^ ^ ^ ^ ^ ^ ^ ^ / | o.X. .I 5 , $ G gXcX[.k.Z.A.A.A.A.A.A.A.A.A.A.A.A.J.R._._.E.K.K.K.K.K.K.D.A.A.A.A.A.A.D.A.A.A.A.A.A.",
"^ ^ ^ ^ ^ ^ ^ ^ ^ ^ ^ ^ ^ ) {  ._ I H , i 5.gXcX].l.A.A.A.C.A.A.A.A.A.A.A.A.A.A.J.J.K.K.E._.Q.Q.Q.R.J.A.A.A.A.A.A.H.A.A.A.A.A.A.",
"^ ^ ^ Y ^ ^ ^ ^ ^ ^ ^ ^ ^ ^ ^ ^ ^ Y J 3 p 4.-X9XJ.j.Z.A.A.A.A.A.A.A.A.A.A.A.A.A.A.A.A.J.R.Q.Q.Q.Q.R.J.A.A.A.A.A.A.A.H.A.A.A.J.A.",
"^ ^ ^ ^ ^ ^ ^ ^ ^ ^ ^ ^ ^ ^ ^ ^ ^ ^ Y J q x n.A.G.h.Z.A.A.A.A.A.A.D.A.A.A.A.A.A.A.Z.Z.H.J.K.K.K.K.J.J.A.A.A.A.A.A.A.D.A.A.A.A.A.",
"^ ^ { { ) ^ ^ ^ ^ ^ ^ ^ ^ ^ ^ ^ / ) / I 5 y 9.k.h.p.l.D.J.A.A.A.A.C.A.A.D.A.A.A.A.A.t.V.A.A.A.A.A.A.A.A.A.A.A.A.A.A.A.A.A.A.A.A.",
"~ { o.X.{ ^ ^ ^ ^ ^ ^ ^ ^ ^ ^ ( [ { ) U 8 k 7.g.h.u.a.J.K.D.A.J.D.D.D.A.A.H.A.A.H.r.l d.F.A.A.A.A.A.A.A.A.A.A.A.H.A.A.A.A.A.A.H.",
") ..,.:. .^ ~ ^ ^ ^ ^ ^ ^ ^ ^ ( ( [ ` 6 > k 7.k.k.u.p.A.K.A.A.J.K.K.D.A.A.J.^.'.b.c   B |.).J.A.A.H.A.A.A.A.D.A.A.A.A.A.A.A.A.A.",
"X.,.2.:. .^ ^ ^ ^ ^ ^ ^ ^ ^ / / ( ` t : . O 6.h.l.u.p.a.A.A.A.J.D.D.D.A.A.!.qX2XC     N uX0X~.H.H.A.A.A.A.A.A.A.A.A.A.A.A.D.A.A.",
":.2.=.@.( ^ ^ ^ ^ ( ^ ^ ^ ^ ^ / ) T e . + r 9.l.l.a.j.j.Z.A.A.A.D.A.A.A.A.F.<X=XF N g #XaX0XI.V.Z.A.A.A.H.A.A.A.A.A.H.A.A.A.A.A.",
":.=.%.U E ) ^ ^ ^ ( ^ ^ ^ ^ ^ _ / K : X # m 9.k.l.j.V.Z.A.A.A.A.A.A.A.A.A.C.c.B.=X,XuXaX3XF.V.h.j.V.A.A.D.A.A.A.D.A.A.A.A.A.D.A.",
"#.+.K H U ^ ) ^ ^ ^ ^ ^ ( ^ ^ / ^ H < # & n q.e.u.l.A.A.A.A.H.A.A.A.A.A.A.A.D.v.<XlXkX9XD.a.a.a.a.a.l.A.A.D.A.A.A.A.A.A.A.A.A.A.",
"W K L U ^ ^ ^ ^ ^ ^ ^ ^ ^ ^ ^ ~ J q i & % - n b e.H.K.Z.Z.A.A.A.A.A.D.A.A.A.A.A.S.].).Y.A.Z.Z.Z.Z.V.j.V.V.A.A.A.A.A.A.A.A.A.A.A.",
"H H Y ) / ^ ^ ^ ^ ^ ^ ^ ^ ) ) U 2 1 h f % # # g d.'.!.A.Z.A.A.A.A.A.A.H.A.D.A.A.D.A.A.A.D.A.A.D.H.Z.j.j.V.V.V.A.A.A.A.A.A.D.A.A.",
"U U ^ ( ^ ^ ^ ^ ^ ^ ( ^ ^ ) ) H > $ - ; - + + N =XeX).A.A.A.A.A.D.A.A.H.A.H.A.A.A.A.A.A.A.J.D.H.A.A.A.V.a.a.a.j.A.A.H.D.D.D.A.A.",
") ) / ^ ^ ^ ^ ^ ^ ^ ^ ) / / ^ 6 < @ - * + @ M $XaX9XU.A.H.J.A.A.A.A.D.A.J.A.A.A.A.D.A.J.A.A.H.A.A.H.A.Z.l.a.a.j.Z.A.D.A.H.D.A.A.",
"^ / ^ ^ ^ ^ ^ ^ ^ ^ ^ ^ ^ ~ J q i - % + X g $XaX XD.D.A.J.A.A.A.A.A.H.A.A.A.A.A.A.A.D.A.A.A.A.A.A.A.J.A.Z.Z.V.A.A.A.D.A.A.H.A.A.",
"^ ^ ^ ^ ^ ( ^ ^ ^ ^ ^ / ^ I H 0 d ; - * M #X7X3XA.j.Z.Z.Z.Z.A.A.A.A.A.A.A.A.A.A.A.A.A.A.A.A.A.A.A.A.A.A.H.A.A.A.A.A.A.A.A.A.A.H.",
"^ ^ ^ ^ ^ ^ ^ ( ^ ^ ^ ) ^ I 5 0 h ; & A ;X7XOXH.G.Z.j.h.a.V.Z.A.D.A.A.A.A.A.A.A.A.A.A.A.A.A.A.A.A.A.A.A.H.H.A.H.A.A.A.A.A.A.A.A.",
"^ ^ ^ ^ ^ ^ ^ ^ ^ ^ ^ ^ ) U 5 9 p & f 5.hXcX/.u.Z.A.l.a.a.a.Z.H.A.A.A.A.A.A.A.A.A.A.A.A.A.A.A.A.A.H.A.A.H.J.K.J.J.A.A.A.H.A.A.A.",
"^ ^ ^ ^ ^ ^ ^ ^ ^ ^ ^ ) ^ U 5 2 9 u d 5.hXcX~.g.Z.A.C.Z.V.V.A.A.D.A.A.A.A.A.A.A.A.A.A.A.A.A.A.A.A.A.A.A.A.J.P.J.J.A.A.A.A.A.A.A.",
"^ ^ ^ ^ ^ ^ ^ ^ ^ ( ^ ) ) E J 5 H 4 j 4.6XwXP.g.l.D.J.A.D.C.A.A.A.A.A.A.A.A.A.A.Z.A.A.J.J.J.D.A.A.H.A.A.A.V.H.H.A.A.A.A.A.A.H.A.",
"{ ^ ~ ^ ^ ^ ^ ^ ^ ^ ^ / ^ ^ E E W Y W &.n.P.l.u.p.D.L.D.D.A.A.A.A.A.A.A.A.A.A.A.A.A.Z.J.R.E.J.A.A.A.A.A.A.V.A.A.A.A.A.A.A.A.H.A.",
"{ ^ ( { ^ ^ ^ ^ ^ ^ ^ ^ ^ ^ ^ ^ [ ) ~ ' v 9.p.u.p.F./.A.J.J.D.A.A.D.v.t.C.D.K.K.K.K.K.Y.E.E.J.A.A.A.A.A.A.V.Z.Z.Z.A.A.A.A.A.A.A.",
"{ { ..o.{ ^ ^ ^ ^ ^ ^ ^ ^ ^ ^ ^ ) ) / Y t v 9.g.h.S./.J.K.L.D.A.A.I.M.b t.D.R._._._._.E.Y.J.A.A.A.A.A.A.A.Z.A.Z.Z.A.A.A.A.A.A.A.",
" .X.>.:. .^ ~ ^ ( ^ ^ ^ ^ ( {  .) / / I J y 0.g.g.A.K.H.K.W.K.D.).|.D * b n.}.+X_._._.R.D.A.A.A.A.A.A.D.(.{.{.{.{.).J.A.A.A.D.A.",
":.>.2.:. .^ E ^ ^ ^ ^ ^ ^ { o.o.{ ^ ~ ! ! ' 0.h.h.j.A.A.J.J.A.!.qXuXF # s M.5XeX/.K.K.K.H.A.A.A.A.A.A.!.eXzXzXzXzX0X!.A.Z.A.A.A.",
"<.1.=.@.[ ^ ^ ^ ^ ^ ^ ^ ^ { o.o.{ ^ / ! I &.0.h.h.p.Z.A.A.A.A.!.qXdX$XS A $X1X XJ.A.A.A.A.A.A.A.A.Z.A.!.qXzXzXzXxX0XoX).J.H.A.A.",
"=.=.] L Y ^ / ^ ^ ( ^ ^ ^ ) { { ) / / ! J ' 8.h.k.u.Z.A.A.A.A.K.(.8XdXiXiX6X^.A.Z.A.Z.A.A.A.A.A.A.A.A.J.).{.{.{.{.oXtXeX(.J.A.A.",
"+.+.T H U / / ^ ^ ^ ^ ^ ^ ^ ^ ^ / / E J 4 z 9.u.h.h.Z.A.A.A.A.A.A.Y.9XlXlX8XL.Z.A.D.H.A.A.A.A.A.A.A.A.A.A.G.Z.A.A./.eXeX].J.A.H.",
"7 K U U E ) / ^ ^ ^ ^ ^ ^ ^ ^ ~ ) E J 4 , k 9.V.H.Z.Z.A.A.A.A.A.A.A.W.].).[.K.Z.l.J.H.A.A.A.A.D.A.A.A.A.A.Z.Z.Z.A.J.).).K.J.A.A.",
"5 J Y ) / ^ ^ ^ ^ / / ^ ^ ^ ^ ^ E P 5 , : l s.[.~.Z.Z.A.A.A.H.A.A.A.A.A.A.K.K.A.Z.A.A.A.A.J.J.A.A.A.A.A.A.A.J.A.A.A.A.A.A.A.A.A.",
"U U ^ ^ ) / ^ / ^ ^ ^ ^ ^ ) / Y J 5 4 > o m &XrX/.A.G.A.D.A.A.H.A.A.A.A.A.A.J.A.Z.A.Z.Z.Z.K.Y.A.A.A.A.A.A.H.A.D.A.A.A.A.A.D.A.A.",
"` } } } } ` } } } } } } } } } ` R 7 7 , : n -XtX(.A.A.A.A.A.A.A.A.A.H.A.A.A.A.A.A.A.G.Z.Z.Y.W.A.A.A.A.A.A.A.A.A.A.A.A.A.A.A.A.A."
};
