/* XPM */
static char *result[] = {
/* columns rows colors chars-per-pixel */
"64 64 72 1 ",
"  c #1C8235",
". c #178239",
"X c #1B8A39",
"o c #19903D",
"O c #239B3E",
"+ c #0E8346",
"@ c #00844F",
"# c #0C9047",
"$ c #149043",
"% c #1D9441",
"& c #1D9A46",
"* c #15994C",
"= c #1B9A4A",
"- c #099652",
"; c #019957",
": c #0C9953",
"> c #00955E",
", c #04995C",
"< c #149950",
"1 c #219A42",
"2 c #11A14C",
"3 c #02A050",
"4 c #00AD57",
"5 c #008B66",
"6 c #009465",
"7 c #009863",
"8 c #00966B",
"9 c #00996A",
"0 c #008B74",
"q c #009574",
"w c #009B74",
"e c #00957D",
"r c #00A46A",
"t c #0076BF",
"y c #007CC3",
"u c #008E86",
"i c #008A8C",
"p c #009484",
"a c #00938C",
"s c #00988A",
"d c #008F94",
"f c #008C9E",
"g c #009293",
"h c #00929B",
"j c #00A590",
"k c #0084A9",
"l c #008DAB",
"z c #0091A3",
"x c #0090AD",
"c c #0082B2",
"v c #008EB5",
"b c #008EBD",
"n c #0090B3",
"m c #0092BA",
"M c #00AAAE",
"N c #00ACBD",
"B c #0082C7",
"V c #008EC3",
"C c #0085CA",
"Z c #008DCE",
"A c #0097C3",
"S c #0090CE",
"D c #0099CE",
"F c #008FD0",
"G c #0095D2",
"H c #009AD5",
"J c #00A0D7",
"K c #00A5DA",
"L c #00ABDC",
"P c #00B1DF",
"I c #00B2E1",
"U c #00BAE4",
/* pixels */
"ZZZZZZZZZZZZZZZZZZZZZZZZZZZZZZZZZZZZZZZZZZZZZZZZZZZZZZZZZZZZZZZZ",
"ZZZZZZZZCZCZZZZZZZZZZZZZZZZZZZZFZZZZZSZZZZZZZZZZZZZZZZZZZZFZZZZZ",
"ZZZZZZZZZZZZZFZZZZZZZZZZZZZFZZZZZZZZZZZZZZZZZFZZZZZZZZZZSZZZZZZZ",
"ZZZZZZZFGHHGZZCZZZZZZZZZZZZZZZZZZZZZZFZZZZZZZZZZZZZZZZZZZZZZZZZZ",
"ZZZZZZZGKIPKGZCZZZZZZZZZZZZZZZZZZZZZZZZZZZFZZZZZSZZZZZZFZZZZZZZZ",
"ZZZZZZZGKIUIJHHGFZZZZZZZZZZZZZZZZZGZZZZZZZZZZZZZZZZZZZZZZZZZZZFZ",
"ZZZZZZZZGKIUIPPKGZZZZZZZZZZZFZZZZZZZZZZZZZZZZZZZFZZZZZZZZZZZZZZZ",
"ZZZZZZZZFGKPIIPKGZZZZZZZZZZZZZZZZZZZZZZZZZZZZZFZZZZZZZZZGZZGZZZZ",
"FZZZZZZZCFGGHHHGGZZZZZZZZZZZZZZFZZZZZZZZZZZZZZZZZZZZZZFZZZFZZZZZ",
"ZZZZZZZZZFZZFZZZZZZZZZZZZZZZZZZCZZZCZZZZZZZZZZZZZZZZFFFFZBCCZZZZ",
"ZZZZZZZZZZZCCZCFZZZZZZZZZZZZZZFZZZZZZZZZZZZZZZZZZZZZZFFCyytyZZFZ",
"ZZZZZZZZZZZZFZZZZZFZZZZZZZFZCFGHHHHGZZZZZZZZZZZZZZZZCCCByyyyCFSZ",
"ZZZZZZZZZZZZZZZZZZZZZZZZZZZCFGJPLIIKGZZZZZZZZZZZZFZZyyyyBBCCZZZZ",
"ZZZZZZZZZZZZZZZZZZZZZZZZZZFFGJLPLLLLJGZZZZZZZZZZZFFCyyyyZFGFZZZZ",
"ZZZZZZZZZZZZZZZFZZZZZZZZFCZGKLJHHGGJLKGZZZZZZZZZZZZZCBBCZFFFZZZZ",
"ZZZZZZFZZZZZZZZZZZZZZZFFZZFGKLKGGHHJLKHZZZZZZZZZZZZZFFFFZZZZZZZZ",
"ZZZZZZZZZZZZZZZZZZZZZZZZZZZFGHLLLLPLHGFZZZZZZZZZZZZZZGZZZZZZZFZZ",
"ZZZZZZZZZZZZZZZZZZZZZZCCFFFZZGKPIPPJGZCZZZZZFZZZZZZZFZZZZZZZZZZZ",
"ZZZZZZZZZFZZZZZSFZZZFCyBCFGZZFGHHHHGFZZZZZZZZZZZZZZZZZZZZZZZZZZZ",
"FZZZZZZZZZZZZZZZZZZGFZyyBBCCZZZCZZZZZZZFZZZZZZZZZZZZSZZZZZZZZZZZ",
"ZZZZFZZZZZZZZZZZZZZZFZCByytBZZZZZCFZZZZZZZZFZZZZZZZZZZZZZZZZZZZZ",
"ZZZZZZZZZZZZZZZZZZZZZFFCyytyCFFZZZZZZZZZZZZZZZZZZZZZZZZZZZZZZZZZ",
"ZFZSZZZZZZZZZZZZZZZZZFFZCCCCZZZZZZZZZZZZZZZZZZZZZZZFZZZZZZZZZFZZ",
"ZZZZZZZZSZZZZZZZZZZZZZZZFFZZZZZZZZZZZZZZZZZZZZZFZZZZZZZZZZZZZZZZ",
"ZZZZZZZZZZZZZZZZZZZZZZZZFFZFZZZZZZZFZZZZZZZZZZZZZZZZZZZZZZZZZZZZ",
"ZZZZZZZZZZZZZZZZGZZZZZZZZZZZZZZSZZZZZZZCZZZZZZZZZZZZZZZZZZZZZZZZ",
"ZZZZZZZZZZZZZZZZFZZZZZZZZZZZZZZZZZZZZZZZZZZFZZZZZZZZZZZZZZZFZZZZ",
"ZZZZZZZZZZZZZFFZCCZZZZZZZZZZZZZZZZZZZGGGFFCZZZZZZZZZZFZZSZZZZZZZ",
"ZZZZZZZZZZZZZGGCyyCFFFZZZZZZZZZZZZFCZGKLHZCFZZFZZZZZZZZZSZZZZZZZ",
"ZZZZZZZZZGHGCBByyyBFFZZZZZZZZZZZZZZZZGKLJHHGFZCCZZZZZZZZZZZZZZZF",
"ZZFZZZZZZHLJCttyBCFFZZZZZZZZZZFZZZZZZZGJLIIKGZZZZZZZZZZZZZZZZZZZ",
"ZZZZZSZZCZHJDBBSGHFFZZZZZZZZZZZZFZZZZZZGJPILJGGHHGGZZZFZZZZZZZZZ",
"ZZZZZFFCBtBSJKKLILGZCZZZZZZZZZFZZZZZZZZZGHHHLPPPPKGFZZZZZZZZZZZZ",
"ZZZZZZFZBttCJIIPPLHGFZZZZZZZZZZZZZZZZZZZFCZGKIPPPKGCZZZZZZZZZZZZ",
"ZZZZZZZZCBBCGHHHHJLKGZZZZZZZZZZZZZZZZZZZZCZFGHHHGGGFZZZZZZZZZZFZ",
"ZZZZZZZZZZGZZZZZZGLKGZZZZZZZZZZZZZZZZZZZZZZZZZZZFZZZZZZZZZZZZZZZ",
"ZZZZZZZZSSFZZZZCZFGGGZZZSZFZZZZZZZZZZZZZZZZZZZZZCFZZZZZZZZZZZZZZ",
"ZZZSZZZZZZZZZZZZZZZZZZZZZZZZZZZZZZZZZZFZZZZZZZZZFFZZZZZZZZZZZZZZ",
"ZZZZZZZZZZZZZZFZZZZZZZZZZZZZZZZZZZZZZZZZZZZFZFZFZFFZZZZZZZFZZZZZ",
"ZZZZZZZZZZZZZZZZZZZZZZZZZZZZZZZZZZZZZZZZZZZZCBCBBCZFFZZZZZZZZZZZ",
"ZFZZZZZZZZZZZZZZZZZZZZZZZZZZZZZZZZZZZZZZZZZZyyytyyCGFZZZZZZZZZZZ",
"ZZZZZZZZZZZZZZZZZZZZZZZZZZZZZZZFFZZZZZZZZGFCyyyyyyBCZFFFZZZZZZZZ",
"ZZZZZZZZZZZZZZZSZZZZZZZZZZZZZZZZZZZZFZZZZZZZCCCCCByBZZGZZZZZZZZZ",
"ZZZZZGZZZFZZZZZZZZZZZZFFZFZZZZZZZZZZZZZZZZZZZGZZFCyyBBCCZZZZZZZF",
"ZZZZZZZZZZZZZZFZZZZZZZZFFFZZZZZZZZZZZZZZZZZZFZGZFFCByytyZZGZZZZZ",
"ZZZZZZZZZZZZZZZZZZZZZZCBCCZFFZZZZZZFZZZZZZZZZZZZFFFZyyyyCFZZZZZZ",
"ZZZZZZZZZZZZZZZZZZZZFCBytyZFGZZZZZZZZZZZZZZZZZZZZFFZCCCCZZZZZZZZ",
"ZZZZZZZZSZZZZZZZZZZFFCyyyyBCCCZZZZZZZZZZZZZZZZZZZZZZZFFZZZZZSZZZ",
"ZZZZZSZFZZZZZZZZZFZZZZCCCByyyyZFFZZZZZZZZZZZZZZZZZZZZSSZZZZZZZZG",
"ZZZZZZZZZZZZZZZZZZZZZZZFGCyyyyCZZZZZZZZZZZZZZZZZZZZZZZZZZZZZZZZZ",
"FZZZZZZZZZZZZZZZZZZZZZZGFZCCCCZZZZZFZZZZZZZZZZZZZZZZZSZZZZZZZZZZ",
"ZZZZZZZZZZZZZZZFZZZZZZZZZZZFFZZZZZZZZZCZZZZSGGSZZZZZZZZZZZZZZZZZ",
"ZZZZSZZZZZZZZZZZZZZZZZZZZZFZFZZZZZZZZZZZCZZGKLGZZZZZZZZZZZZZZZZZ",
"ZZZZZZZZZZZFZZZZZZZZZZZZZZZZZZZZZZZZZZGHHHHHLKGSZZZZZSZZZZZZZZZZ",
"ZZZZZZZZZZFZZZSZZZZmlxAZZmlhzzzxmSCCZGKIPPILJGSVvvVCZZZZZZZZZZZZ",
"ZZZZZZZSZZVCZZFZZVVxhhznbxhaagghxmADHJLLPPIKGCblzzvbVZZZZZZZZZZZ",
"ZZZZZZbmnvkcCSZVbzhe87qsau057779esjAPPJHGHHGSvhsqeshznZZZZZZZZZZ",
"VZZSZbfdaauiflzzhsq,=&*>7>@+#===:>wjMNmnbVbvzaq>::>8egxVZZZZZZZZ",
"nAZZmdq8rr,>68997,<&&&&&=$. o&&&&=:,9qpahddse7:=&&=<;7ehAZZZbmVV",
"afbbz8-3442&1&&&&&&&&&&&=%XX%1&&&&&&&=:9qq87*&&&&&&&&&;ezvvxzhzz",
"78ee8:&&2*=&&&&&&&&&&&&=&&%1&&&&&&&&&&&*<:<=&&&&&&&&&&&:8qepe88q",
"&&11%&&&&&&&&&&&&&&&&&&&&&&&&&&&&&&&&&&&&&&&&&&&&&&&&&&&&&*<:&&=",
"&1OO1&&&&&1&&&&&&&&&&&&&&&&&&&&&&&&&&=&&&&&&&&&&&&&&&&&&&&&&&&&&",
":=1&=<<<==<<<<<<<<<<<*<<<<*:<<<<<<<<<<***<***<<<<<<*<<*<=***<*=:"
};
