/* XPM */
static char *result[] = {
/* columns rows colors chars-per-pixel */
"64 64 151 2 ",
"   c #1D9A46",
".  c #179A48",
"X  c #179A49",
"o  c #179A4B",
"O  c #14994D",
"+  c #14994E",
"@  c #0C9955",
"#  c #079859",
"$  c #149951",
"%  c #009763",
"&  c #009861",
"*  c #009862",
"=  c #00976A",
"-  c #00957C",
";  c #00957E",
":  c #0075BF",
">  c #0076BF",
",  c #0078C0",
"<  c #0079C0",
"1  c #0079C1",
"2  c #007AC1",
"3  c #0079C2",
"4  c #007BC2",
"5  c #007CC3",
"6  c #007CC4",
"7  c #007DC4",
"8  c #007EC4",
"9  c #007EC5",
"0  c #007FC5",
"q  c #009580",
"w  c #009585",
"e  c #009488",
"r  c #00948B",
"t  c #009298",
"y  c #00929B",
"u  c #00929F",
"i  c #0092A0",
"p  c #0090A2",
"a  c #0092A3",
"s  c #0092A9",
"d  c #0090AC",
"f  c #008CB2",
"g  c #0089BE",
"h  c #008ABF",
"j  c #008FBF",
"k  c #0090B0",
"l  c #0091B0",
"z  c #0091B3",
"x  c #0090B9",
"c  c #0080C0",
"v  c #0080C2",
"b  c #0082C5",
"n  c #0080C6",
"m  c #0081C6",
"M  c #0080C7",
"N  c #0081C7",
"B  c #0082C7",
"V  c #0085C5",
"C  c #0085C7",
"Z  c #0086C6",
"A  c #008FC1",
"S  c #008FC5",
"D  c #0081C8",
"F  c #0082C8",
"G  c #0083C8",
"H  c #0084C9",
"J  c #0085C9",
"K  c #0086C9",
"L  c #0085CA",
"P  c #0086CA",
"I  c #0086CB",
"U  c #0087CB",
"Y  c #0087CC",
"T  c #0089C9",
"R  c #0088CB",
"E  c #0089CB",
"W  c #008ACB",
"Q  c #008BCB",
"!  c #008EC9",
"~  c #008ECB",
"^  c #0088CC",
"/  c #0089CD",
"(  c #008ACC",
")  c #008ACD",
"_  c #008BCD",
"`  c #008BCE",
"'  c #008DCC",
"]  c #008CCD",
"[  c #008CCE",
"{  c #008DCE",
"}  c #008ECE",
"|  c #008FCE",
" . c #008ECF",
".. c #008FCF",
"X. c #0090CC",
"o. c #0092CD",
"O. c #0090CF",
"+. c #008FD0",
"@. c #0090D0",
"#. c #0091D0",
"$. c #0092D0",
"%. c #0094D1",
"&. c #0094D2",
"*. c #0095D2",
"=. c #0096D2",
"-. c #0096D3",
";. c #0097D3",
":. c #0098D3",
">. c #0098D4",
",. c #0099D4",
"<. c #0099D5",
"1. c #009AD4",
"2. c #009AD5",
"3. c #009BD5",
"4. c #009CD5",
"5. c #009FD5",
"6. c #009DD7",
"7. c #009ED7",
"8. c #00A0D5",
"9. c #00A0D7",
"0. c #00A1D7",
"q. c #00A1D8",
"w. c #00A2D8",
"e. c #00A2D9",
"r. c #00A3DA",
"t. c #00A5D9",
"y. c #00A5DA",
"u. c #00A5DB",
"i. c #00A7DA",
"p. c #00A7DB",
"a. c #00A8D9",
"s. c #00A9D9",
"d. c #00A8DB",
"f. c #00ACDB",
"g. c #00A9DC",
"h. c #00AADC",
"j. c #00ABDC",
"k. c #00ABDD",
"l. c #00ADDD",
"z. c #00AFDF",
"x. c #00B0DF",
"c. c #00B1DF",
"v. c #00B1E0",
"b. c #00B1E1",
"n. c #00B3E1",
"m. c #00B3E2",
"M. c #00B4E1",
"N. c #00B5E1",
"B. c #00B4E2",
"V. c #00B9E3",
"C. c #00BBE4",
/* pixels */
"{ { { { { { { { [ ] ] [ { { { { { { { { { { { { { { { { { { { { { { { { { { { { { { { { { { { { { { { { { { { { { { { { { { { { ",
"{ { { { { { { [ _ ) ) _ [ { { { { { { { { { { { { { { { { { { { { { { { { { { { { { { { { { { { { { { { { { { { { { { { { { { { ",
"{ { { { { { { { ] _ _ ] { { { { { { { { { { { { { { { { { { { { { { { { { { { { { { { { { { { { { { { { { { { { { { { { { { { { ",
"{ { { { { [ [ #.;.3.1.&.} / / _ [ { { { { { { { { { { { { { { { { { { { { { { { { { { { { { { { { { { { { { { { { { { { { { { { ",
"{ { { { { _ _ =.u.v.c.y.%.( / ] { { { { { { { { { { { { { { { { { { { { { { { { { { { { { { { { { { { { { { { { { { { { { { { { ",
"{ { { { { _ _ *.y.N.C.m.t.1.,.;.#.[ [ { { { { { { { { { { { { { { { { { { { { { { { { { { { { { { { { { { { { { { { { { { { { { ",
"{ { { { { [ [  .*.t.B.V.M.c.z.u.=._ _ { { { { { { { { { { { { { { { { { { { { { { { { { { { { { { { { { { { { { { { { { { { { { ",
"{ { { { { { { ) ) %.r.z.c.c.c.u.=._ _ { { { { { { { { { { { { { { { { { { { { { { { { { { { { { { { { { { { { {  ..... .{ { { { ",
"{ { { { { { { _ ) } &.,.3.4.3.;.#.[ [ { { { { { { { { { { { { { { { { { { { { { { { { { { { { { { { { { { { { {  . . . .{ { { { ",
"{ { { { { { { { { { ] _ _ _ _ ] { { { { { { { { { { { { { [ _ ) ) ) ) _ [ { { { { { { { { { { { { { { {  .+.+.[ R H H U _ { } { ",
"{ { { { { { { { { [ _ ) ) ) ) _ [ { { { { { { { { { { { { { ] _ _ _ _ ] { { { { { { { { { { { { { { { {  .@.+.E 0 , , 0 ^  ...} ",
"{ { { { { { { { { { { { { { { { { { { { { { { { { { { _ )  .-.3.4.4.3.-. .) _ { { { { { { { { { { } { _ U P L G 7 , < 0 ^  ...} ",
"{ { { { { { { { { { { { { { { { { { { { { { { { { { { ) ) %.y.x.c.c.x.y.%.) ) { { { { { { { { { { .. .^ 0 < , 7 G L P U _ { } { ",
"{ { { { { { { { { { { { { { { { { { { { { { { { { [ [ +.=.9.g.l.l.l.l.g.9.=.+.[ [ { { { { { { { { .. .^ 0 , , 0 E +.@. .{ { { { ",
"{ { { { { { { { { { { { { { { { { { { { { { { { { _ _ ;.i.j.q.:.;.;.:.q.j.i.;._ _ { { { { { { { { } { _ U H H R [ +.+. .{ { { { ",
"{ { { { { { { { { { { { { { { { { { { { { }  . .} _ _ ;.i.j.q.:.;.;.:.q.j.i.;._ _ { { { { { { { { { { {  . . . .{ { { { { { { { ",
"{ { { { { { { { { { { { { { { { { { { { { {  . .{ [ [ +.=.9.g.l.l.l.l.g.9.=.+.[ [ { { { { { { { { { { {  ..... .{ { { { { { { { ",
"{ { { { { { { { { { { { { { { { { { { } { ( U U ] +.+.` _ %.y.x.c.c.x.y.%.) ) { { { { { { { { { { { { { { { { { { { { { { { { { ",
"{ { { { { { { { { { { { { { { { { { { .. .U 9 9 Y +.@.[ )  .-.3.4.4.3.-. .) _ { { { { { { { { { { { { { { { { { { { { { { { { { ",
"{ { { { { { { { { { { { { { { { { { { .. .U 9 6 N L P U _ { [ _ _ _ _ ] { { { { { { { { { { { { { { { { { { { { { { { { { { { { ",
"{ { { { { { { { { { { { { { { { { { { } { ] ^ F 5 , < 0 ^ { { ) ) ) ) _ [ { { { { { { { { { { { { { { { { { { { { { { { { { { { ",
"{ { { { { { { { { { { { { { { { { { { { { ....E 0 , , 0 ^  ...{ { { { { { { { { { { { { { { { { { { { { { { { { { { { { { { { { ",
"{ { { { { { { { { { { { { { { { { { { { {  ...[ R H H U _ { } { { { { { { { { { { { { { { { { { { { { { { { { { { { { { { { { { ",
"{ { { { { { { { { { { { { { { { { { { { { { { {  . . . .{ { { { { { { { { { { { { { { { { { { { { { { { { { { { { { { { { { { { ",
"{ { { { { { { { { { { { { { { { { { { { { { { {  ..... .{ { { { { { { { { { { { { { { { { { { { { { { { { { { { { { { { { { { { ",
"{ { { { { { { { { { { { { { { }  . .} { { { { { { { { { { { { { { { { { { [ _ _ [ { { { { { { { { { { { { { { { { { { { { { { { ",
"{ { { { { { { { { { { { { { { {  . .{ { { { { { { { { { { { { { { { { { { [ ] ] [ { { { { { { { { { { { { { { { { { { { { { { { ",
"{ { { { { { { { { ] _ _ { +.+.] U U ( { } { { { { { { { { { { { { { { [ [ $.:.;.O./ / _ [ { { { { { { { { { { { { { { { { { { { ",
"{ { { { { { { { { [ ] [ { @.+.Y 9 9 U  ...{ { { { { { { { { { { { { { _ _ >.d.i.;.( / ] { { { { { { { { { { { { { { { { { { { { ",
"{ { { { { { { [  .&.2.=.W G D 9 3 6 U  ...{ { { { { { { { { { { { { { _ _ ;.i.j.e.2.2.-...( / ) ) _ [ { { { { { { { { { { { { { ",
"{ { { { { { { _ [ 2.h.w.T > : 4 M I ] { } { { { { { { { { { { { { { { [ [ ..=.9.k.v.v.y.%.( / _ _ ] { { { { { { { { { { { { { { ",
"{ { { { { } { / P | 5.8.o.Z C ~ ;.>.@.) _ { { { { { { { { { { { { { { { { ) ) %.y.v.v.h.9.1.,.3.3.;.#.[ [ { { { { { { { { { { { ",
"{ { { { { .. .Y 9 4 b X.5.a.s.f.x.p.*.) ) { { { { { { { { { { { { { { { { _ )  .-.2.2.9.h.x.x.c.x.u.=._ _ { { { { { { { { { { { ",
"{ { { { { .. .^ 0 > > K 0.b.n.c.x.k.9.=...[ [ { { { { { { { { { { { { { { { { { ] / ( %.y.c.c.c.x.u.=._ _ { { { { { { { { { { { ",
"{ { { { { } { _ U G B E *.6.7.2.2.e.j.i.;._ _ { { { { { { { { { { { { { { { { [ _ / / ..-.3.4.3.3.;.#.[ [ { { { { { { { { { { { ",
"{ { { { { { { {  . . .{ [ _ _ / ( ;.i.d.>._ _ { { { { { { { { { { { { { { { { { { { { { ] _ _ _ _ ] { { { { { { { { { { { { { { ",
"{ { { { { { { {  .....{ _ ) ) / ( O.;.:.$.[ [ { { { { { { { { { { { { { { { { { { { { [ _ ) ) ) ) _ [ { { { { { { { { { { { { { ",
"{ { { { { { { { { { { { { { { { { [ ] ] [ { { { { { { { { { { { { { { { { { { { { { { {  ......... .{ { { { { { { { { { { { { { ",
"{ { { { { { { { { { { { { { { { { [ _ _ [ { { { { { { { { { { { { { { { { { { { { { { {  . . . . . .{ { { { { { { { { { { { { { ",
"{ { { { { { { { { { { { { { { { { { { { { { { { { { { { { { { { { { { { { { { { { } { _ U J J H J R [ .. .{ { { { { { { { { { { ",
"{ { { { { { { { { { { { { { { { { { { { { { { { { { { { { { { { { { { { { { { { { .. .^ 0 1 1 1 1 0 E ....{ { { { { { { { { { { ",
"{ { { { { { { { { { { { { { { { { { { { { { { { { { { { { { { { { { { { { { { { { .. .^ 0 1 1 1 2 5 F ^ { +.+. .{ { { { { { { { ",
"{ { { { { { { { { { { { { { { { { { { { { { { { { { { { { { { { { { { { { { { { { } { _ U J J P P N 5 0 ^ +.@. .{ { { { { { { { ",
"{ { { { { { { { { { { { { { { { { { { { { {  ..... .{ { { { { { { { { { { { { { { { { {  . . .O...^ 0 5 N L P U _ { } { { { { { ",
"{ { { { { { { { { { { { { { { { { { { { { {  . . . .{ { { { { { { { { { { { { { { { { {  .........{ ^ F 5 , < 0 ^  ...{ { { { { ",
"{ { { { { { { { { { { { { { { { { { { } { _ U H H R [ +.+. .{ { { { { { { { { { { { { { { { { { { ....E 0 , , 0 ^  ...{ { { { { ",
"{ { { { { { { { { { { { { { { { { { { .. .^ 0 , , 0 E +.@. .{ { { { { { { { { { { { { { { { { { {  ...[ R H H U _ { } { { { { { ",
"{ { { { { { { { { { { { { { { { { { { .. .^ 0 < , 7 G L P U _ { } { { { { { { { { { { { { { { { { { { {  . . . .{ { { { { { { { ",
"{ { { { { { { { { { { { { { { { { { { } { _ U P L G 7 , < 0 ^  ...{ { { { { { { { { { { { { { { { { { {  ..... .{ { { { { { { { ",
"{ { { { { { { { { { { { { { { { { { { { { {  .@.+.E 0 , , 0 ^  ...{ { { { { { { { { { [ _ _ [ { { { { { { { { { { { { { { { { { ",
"{ { { { { { { { { { { { { { { { { { { { { {  .+.+.[ R H H U _ { } { { { { { { { { { { [ ] ] [ { { { { { { { { { { { { { { { { { ",
"{ { { { { { { { { { { { { { { { { { { { { { { { { {  . . . .{ { { { { { { [ _ ) ) / ( O.;.:.$.[ [ { { { { { { { { { { { { { { { ",
"{ { { { { { { { { { { { { { { { { { { { { { { { { {  ..... .{ { { { { { { { ] _ _ / ( ;.i.d.>._ _ { { { { { { { { { { { { { { { ",
"{ { { { { { { { { }  . .} { { { { { { { { { { { { { { { { { { { { [ _ / / ..-.3.4.,.1.e.j.i.;._ _ { { { { { { { { { { { { { { { ",
"{ { { { { { { { { {  . .{ { { { { { { { { { { { { { { { { { { { { { ] / ( %.y.c.c.x.x.k.9.=...[ [ { { { { { { { { { { { { { { { ",
"{ { { { { {  .+.+._ U U ] .. .{ { { { { { { { { { { { { { { { [ [ #.;.<.2.9.h.x.x.c.c.y.%.) ) { { { { { { { { { { { { { { { { { ",
"d k j ' { {  .@.+.Y 9 9 Y ....{ { { { { { { { { { { { { { { { _ _ =.u.v.v.h.9.1.,.4.3.-. .) _ { { { { { { { { { { { { { { { { { ",
"t y k S ! Q U P L B 7 5 N ^ { +.+. .{ { { { { { { { { { { { { _ _ =.u.v.v.y.%.( / _ _ ] { { { { { { { { { { { { { { { { { { { { ",
"= = e s x h v < < 8 G N 7 0 ^ +.@. .{ { { { { { { { { { { { { [ [ #.;.4.4.-...( / ) ) _ [ { { { { { { { { { { { { { { { { { { { ",
"O X % w u f c , < m W E n 5 N L P U _ { } { { { { { { { { { { { { { ] _ _ ] { { { { { { { { { { { { { { { { { { { { { { { { { { ",
".   o & q p g V J R { } E F 5 , < 0 ^  ...{ { { { { { { { { { { { [ _ ) ) _ [ { { { { { { { { { { { { { { { { { { { { { { { { { ",
"        * r z A  .} { .. .E 0 , , 0 ^  ...{ { { { { { { { { { { { { { { { { { { { { { { { { { { { { { { { { { { { { { { { { { { ",
".       # - a z .. .{  . .[ R H H U _ { } { { { { { { { { { { { { { { { { { { { { { { { { { { { { { { { { { { { { { { { { { { { ",
"@ + + $ * ; i l  .{ { { } { ] ( ( _ [ { { { { { { { { { { { { { { { { { { { { { { { { { { { { { { { { { { { { { { { { { { { { { "
};
