/* XPM */
static char *result[] = {
/* columns rows colors chars-per-pixel */
"32 32 12 1 ",
"  c #1D9A46",
". c #179A49",
"X c #009672",
"o c #009578",
"O c #0075BE",
"+ c #00938E",
"@ c #00929A",
"# c #0091A6",
"$ c #0090AF",
"% c #008EC0",
"& c #008DCE",
"* c #00B7E2",
/* pixels */
"   +&&&&&&&&&&&&&&&&&&&&&&&&&&&&",
"  X%&&&&&&&&&&&&&&&&&&&&&&&&&&&&",
".o#&**&&&&&&&&&&&&&&&&&&&&&&&&&&",
"@$&&&***&&&&&&&&&&&&&&&&&&&&&&&&",
"&&&&&&&&&&&&&&&&&&&&&&&&&&&&&&&&",
"&&&&&&&&&&&&&&&&&&&&&&&&&&&&OO&&",
"&&&&&&&&&&&&&&&***&&&&&&&&OO&&&&",
"&&&&&&&&&&&&&&*&&&*&&&&&&&&&&&&&",
"&&&&&&&&&&&&&&&***&&&&&&&&&&&&&&",
"&&&&&&&&&&&O&&&&&&&&&&&&&&&&&&&&",
"&&&&&&&&&&&&OO&&&&&&&&&&&&&&&&&&",
"&&&&&&&&&&&&&&&&&&&&&&&&&&&&&&&&",
"&&&&&&&&&&&&&&&&&&&&&&&&&&&&&&&&",
"&&&&&&&&&&&&&&&&&&&&&&&&&&&&&&&&",
"&&&&&&&&O&&&&&&&&&&*&&&&&&&&&&&&",
"&&&&&*OO&&&&&&&&&&&&**&&&&&&&&&&",
"&&&&OO***&&&&&&&&&&&&&***&&&&&&&",
"&&&&&&&&&*&&&&&&&&&&&&&&&&&&&&&&",
"&&&&&&&&&&&&&&&&&&&&&&&&&&&&&&&&",
"&&&&&&&&&&&&&&&&&&&&&&&&&&&&&&&&",
"&&&&&&&&&&&&&&&&&&&&&&OOO&&&&&&&",
"&&&&&&&&&&&&&&&&&&&&&&&&&O&&&&&&",
"&&&&&&&&&&&&&&&&&&&&&&&&&&OO&&&&",
"&&&&&&&&&&&OO&&&&&&&&&&&&&&&&&&&",
"&&&&&&&&&&&&&OO&&&&&&&&&&&&&&&&&",
"&&&&&&&&&&&&&&&&&&&&&&&&&&&&&&&&",
"&&&&&&&&&&&&&&&&&&&&&&*&&&&&&&&&",
"&&&&&&&&&&&&&&&&&&&***&&&&&&&&&&",
"&&&&&O&&&&&&&&&&&**&&&&&&&&&&&&&",
"&&&OO&O&&&&&&&&&&&&&&&&&&&&&&&&&",
"&&&&&&&OO&&&&&&&&&&&&&&&&&&&&&&&",
"&&&&&&&&&&&&&&&&&&&&&&&&&&&&&&&&"
};
