/* XPM */
static char *result[] = {
/* columns rows colors chars-per-pixel */
"32 32 40 1 ",
"  c #1C7E2F",
". c #1D9A46",
"X c #179A48",
"o c #14994D",
"O c #14994E",
"+ c #008155",
"@ c #009557",
"# c #0C9952",
"$ c #0C9953",
"% c #00985B",
"& c #149950",
"* c #009764",
"= c #009766",
"- c #009862",
"; c #009670",
": c #009671",
"> c #009673",
", c #009674",
"< c #009677",
"1 c #009578",
"2 c #00B761",
"3 c #0075BE",
"4 c #009487",
"5 c #008296",
"6 c #009395",
"7 c #00929C",
"8 c #00929F",
"9 c #00AA99",
"0 c #0091A7",
"q c #0091A9",
"w c #0091AA",
"e c #0091AB",
"r c #0090AD",
"t c #0090AF",
"y c #008FB8",
"u c #0090B4",
"i c #008EC0",
"p c #008EC4",
"a c #008DCE",
"s c #00B7E2",
/* pixels */
"aaaaaaaaaaaaaaaaaaaaaaaaaaaaaaaa",
"aaaaaaaaaaaaaaaaaaaaaaaaaaaaaaaa",
"aaaassaaaaaaaaaaaaaaaaaaaaaaaaaa",
"aaaaasssaaaaaaaaaaaaaaaaaaaaaaaa",
"aaaaaaaaaaaaaaaaaaaaaaaaaaaaaaaa",
"aaaaaaaaaaaaaaaaaaaaaaaaaaaa33aa",
"aaaaaaaaaaaaaaasssaaaaaaaa33aaaa",
"aaaaaaaaaaaaaasaaasaaaaaaaaaaaaa",
"aaaaaaaaaaaaaaasssaaaaaaaaaaaaaa",
"aaaaaaaaaaa3aaaaaaaaaaaaaaaaaaaa",
"aaaaaaaaaaaa33aaaaaaaaaaaaaaaaaa",
"aaaaaaaaaaaaaaaaaaaaaaaaaaaaaaaa",
"aaaaaaaaaaaaaaaaaaaaaaaaaaaaaaaa",
"aaaaaaaaaaaaaaaaaaaaaaaaaaaaaaaa",
"aaaaaaaa3aaaaaaaaaasaaaaaaaaaaaa",
"aaaaas33aaaaaaaaaaaassaaaaaaaaaa",
"aaaa33sssaaaaaaaaaaaaasssaaaaaaa",
"aaaaaaaaasaaaaaaaaaaaaaaaaaaaaaa",
"aaaaaaaaaaaaaaaaaaaaaaaaaaaaaaaa",
"aaaaaaaaaaaaaaaaaaaaaaaaaaaaaaaa",
"aaaaaaaaaaaaaaaaaaaaaa333aaaaaaa",
"aaaaaaaaaaaaaaaaaaaaaaaaa3aaaaaa",
"aaaaaaaaaaaaaaaaaaaaaaaaaa33aaaa",
"aaaaaaaaaaa33aaaaaaaaaaaaaaaaaaa",
"aaaaaaaaaaaaa33aaaaaaaaaaaaaaaaa",
"aaaaaaaaaaaaaaaaaaaaaaaaaaaaaaaa",
"aaaaaaaaaaaaaaaaaaaaaasaaaaaaaaa",
"aaaaaaaaaaeaa80qaaasssaauaaaaaaa",
"aaatq5aiw,X->+$O*9saaay<%17aaaaa",
"7a6@2........ .....;4<&....:aarp",
"............................#*=o",
"................................"
};
