/* XPM */
static char *result[] = {
/* columns rows colors chars-per-pixel */
"32 32 39 1 ",
"  c #1C7E2F",
". c #1D9A46",
"X c #1D9A47",
"o c #179A48",
"O c #019957",
"+ c #0C9954",
"@ c #00976B",
"# c #008E70",
"$ c #009671",
"% c #009676",
"& c #00B761",
"* c #0075BE",
"= c #008689",
"- c #009580",
"; c #009485",
": c #009487",
"> c #00948A",
", c #009391",
"< c #009393",
"1 c #009397",
"2 c #00929A",
"3 c #00929D",
"4 c #00AC82",
"5 c #0092A1",
"6 c #0091A3",
"7 c #0091A6",
"8 c #0091AA",
"9 c #0090AD",
"0 c #0090AE",
"q c #008FB6",
"w c #008FB7",
"e c #008FB8",
"r c #008FBC",
"t c #008FBF",
"y c #0090B4",
"u c #00B1BE",
"i c #008DCD",
"p c #008DCE",
"a c #00B7E2",
/* pixels */
"...rpppppppppppppppppppppppppppp",
"...$pppppppppppppppppppppppppppp",
"...+uapppppppppppppppppppppppppp",
"...>paaapppppppppppppppppppppppp",
"...-pppppppppppppppppppppppppppp",
"....yppppppppppppppppppppppp**pp",
"...%pppppppppppaaapppppppp**pppp",
"...0ppppppppppapppappppppppppppp",
"...;pppppppppppaaapppppppppppppp",
"....2pppppp*pppppppppppppppppppp",
".. X7ppppppp**pppppppppppppppppp",
".. <pppppppppppppppppppppppppppp",
"..oppppppppppppppppppppppppppppp",
"...wpppppppppppppppppppppppppppp",
"...5pppp*ppppppppppapppppppppppp",
"....ta**ppppppppppppaapppppppppp",
"....#*aaapppppppppppppaaappppppp",
"....:ppppapppppppppppppppppppppp",
"...@pppppppppppppppppppppppppppp",
"...3pppppppppppppppppppppppppppp",
"...1pppppppppppppppppp***ppppppp",
"...O8pppppppppppppppppppp*pppppp",
"....6ppppppppppppppppppppp**pppp",
"....ypppppp**ppppppppppppppppppp",
"....ppppppppp**ppppppppppppppppp",
"....9ppppppppppppppppppppppppppp",
"....qpppppppppppppppppappppppppp",
"...4pppppppppppppppaaapppppppppp",
"...,p*pppppppppppaappppppppppppp",
".&.=*p*ppppppppppppppppppppppppp",
".&epppp**ppppppppppppppppppppppp",
"..ippppppppppppppppppppppppppppp"
};
