/* XPM */
static char *result[] = {
/* columns rows colors chars-per-pixel */
"32 32 90 1 ",
"  c #1C7E2F",
". c #1C7E31",
"X c #07984E",
"o c #1D9A46",
"O c #1D9A47",
"+ c #179A48",
"@ c #179A4B",
"# c #14994E",
"$ c #1D9A48",
"% c #008155",
"& c #0D9750",
"* c #019957",
"= c #0C9952",
"- c #0C9953",
"; c #00985B",
": c #00985C",
"> c #00985E",
", c #149950",
"< c #149951",
"1 c #009764",
"2 c #009861",
"3 c #009862",
"4 c #00976A",
"5 c #00976B",
"6 c #00976C",
"7 c #00966D",
"8 c #00976D",
"9 c #008E70",
"0 c #009670",
"q c #009671",
"w c #009672",
"e c #009673",
"r c #009674",
"t c #009675",
"y c #009676",
"u c #009677",
"i c #009578",
"p c #00957B",
"a c #00957C",
"s c #00957D",
"d c #00B761",
"f c #00A37B",
"g c #0075BE",
"h c #009580",
"j c #009582",
"k c #009484",
"l c #009485",
"z c #009487",
"x c #00948B",
"c c #00938D",
"v c #008294",
"b c #008296",
"n c #008897",
"m c #008199",
"M c #009390",
"N c #009392",
"B c #009393",
"V c #009394",
"C c #009395",
"Z c #009397",
"A c #00929A",
"S c #00929C",
"D c #00929D",
"F c #00929E",
"G c #00929F",
"H c #00AC82",
"J c #00A997",
"K c #00A09E",
"L c #00AA99",
"P c #0092A0",
"I c #0092A1",
"U c #0091A3",
"Y c #0091A5",
"T c #0091A6",
"R c #0091A7",
"E c #0091A9",
"W c #0091AA",
"Q c #0091AB",
"! c #0090AC",
"~ c #0090AD",
"^ c #0090AE",
"/ c #008FB6",
"( c #008FB7",
") c #008FB8",
"_ c #008FBF",
"` c #0090B2",
"' c #0090B4",
"] c #008EC0",
"[ c #008DCE",
"{ c #00B7E2",
/* pixels */
"oooooooooooooooooooooooooooooooo",
"ooooooFRqoooooooooo7pay+oooooOoo",
"ooo$fJ[[[P[S:oooiT![[[[T[k=,6ooo",
"ooot[{{{[[[[[UKG[[[[[[[[[[ERxooo",
"oooh[[[[[[[[[[[[[[[[[[[[[[[[wooo",
"oooo'[[[[[[[[[[[[[[[[[[[[[[TXooo",
"oooy[[[[[[[[[[[{{{[[[[[[[[gv.ooo",
"ooo^[[[[[[[[[[{[[[{[[[[[[[[[2ooo",
"oool[[[[[[[[[[[{{{[[[[[[[[[n8ooo",
"ooooA[[[[[[g[[[[[[[[[[[[[[[R>ooo",
"oo OT[[[[[[[gg[[[[[[[[[[[[[Msooo",
"oo B[[[[[[[[[[[[[[[[[[[[[[[[cooo",
"oo+[[[[[[[[[[[[[[[[[[[[[[[[[Nooo",
"ooo([[[[[[[[[[[[[[[[[[[[[[[[wooo",
"oooI[[[[g[[[[[[[[[[{[[[[[[[Voooo",
"oooo_{gg[[[[[[[[[[[[{{[[[[[Zoooo",
"oooo9g{{{[[[[[[[[[[[[[{{{[[W<ooo",
"ooooz[[[[{[[[[[[[[[[[[[[[[[[rooo",
"ooo5[[[[[[[[[[[[[[[[[[[[[[[[xooo",
"oooD[[[[[[[[[[[[[[[[[[[[[[[[[4oo",
"oooZ[[[[[[[[[[[[[[[[[[ggg[[[FOoo",
"ooo*W[[[[[[[[[[[[[[[[[[[[g[W<ooo",
"ooooU[[[[[[[[[[[[[[[[[[[[[gmoooo",
"oooo'[[[[[[gg[[[[[[[[[[[[[[[looo",
"oooo[[[[[[[[[gg[[[[[[[[[[[[[Cooo",
"oooo~[[[[[[[[[[[[[[[[[[[[[[[Yooo",
"oooo/[[[[[[[[[[[[[[[[[{[[[[`2ooo",
"oooH[[[[[[Q[[GRE[[[{{{[['[[[pooo",
"ooohEb[]Wr+3e%-#1L{[[[)u;iS[Mooo",
"odo&doooooooo ooooo0zu,oooo>jooo",
"odoooooooooooooooooooooooooo@ooo",
"oooooooooooooooooooooooooooooooo"
};
