/* XPM */
static char *result[] = {
/* columns rows colors chars-per-pixel */
"32 32 37 1 ",
"  c #1C7E31",
". c #07984E",
"X c #1D9A46",
"o c #1D9A47",
"O c #00985E",
"+ c #149951",
"@ c #009861",
"# c #00976A",
"$ c #00976C",
"% c #00976D",
"& c #009672",
"* c #009674",
"= c #00957B",
"- c #00957C",
"; c #00957D",
": c #0075BE",
"> c #009482",
", c #009582",
"< c #009485",
"1 c #00948B",
"2 c #00938D",
"3 c #008294",
"4 c #008897",
"5 c #008199",
"6 c #009390",
"7 c #009392",
"8 c #009394",
"9 c #009395",
"0 c #009397",
"q c #00929E",
"w c #0091A5",
"e c #0091A6",
"r c #0091A7",
"t c #0091AA",
"y c #0090B2",
"u c #008DCE",
"i c #00B7E2",
/* pixels */
"uuuuuuuuuuuuuuuuuuuuuuuuuuuuu&XX",
"uuuuuuuuuuuuuuuuuuuuuuuuuuuuu-XX",
"uuuuiiuuuuuuuuuuuuuuuuuuuuuuwXXX",
"uuuuuiiiuuuuuuuuuuuuuuuuuuuu1XXX",
"uuuuuuuuuuuuuuuuuuuuuuuuuuuu&XXX",
"uuuuuuuuuuuuuuuuuuuuuuuuuuue.XXX",
"uuuuuuuuuuuuuuuiiiuuuuuuuu:3 XXX",
"uuuuuuuuuuuuuuiuuuiuuuuuuuuu@XXX",
"uuuuuuuuuuuuuuuiiiuuuuuuuuu4%XXX",
"uuuuuuuuuuu:uuuuuuuuuuuuuuurOXXX",
"uuuuuuuuuuuu::uuuuuuuuuuuuu6;XXX",
"uuuuuuuuuuuuuuuuuuuuuuuuuuuu2XXX",
"uuuuuuuuuuuuuuuuuuuuuuuuuuuu7XXX",
"uuuuuuuuuuuuuuuuuuuuuuuuuuuu&XXX",
"uuuuuuuu:uuuuuuuuuuiuuuuuuu8XXXX",
"uuuuui::uuuuuuuuuuuuiiuuuuu0XXXX",
"uuuu::iiiuuuuuuuuuuuuuiiiuut+XXX",
"uuuuuuuuuiuuuuuuuuuuuuuuuuuu*XXX",
"uuuuuuuuuuuuuuuuuuuuuuuuuuuu1XXX",
"uuuuuuuuuuuuuuuuuuuuuuuuuuuuu#XX",
"uuuuuuuuuuuuuuuuuuuuuu:::uuuqoXX",
"uuuuuuuuuuuuuuuuuuuuuuuuu:ut+XXX",
"uuuuuuuuuuuuuuuuuuuuuuuuuu:5XXXX",
"uuuuuuuuuuu::uuuuuuuuuuuuuuu<XXX",
"uuuuuuuuuuuuu::uuuuuuuuuuuuu9XXX",
"uuuuuuuuuuuuuuuuuuuuuuuuuuuuwXXX",
"uuuuuuuuuuuuuuuuuuuuuuiuuuuy@XXX",
"uuuuuuuuuuuuuuuuuuuiiiuuuuuu=XXX",
"uuuuu:uuuuuuuuuuuiiuuuuuuuuu6XXX",
"uuu::u:uuuuuuuuuuuuuuuuuuuu8,XXX",
"uuuuuuu::uuuuuuuuuuuuuuuuuuu>XXX",
"uuuuuuuuuuuuuuuuuuuuuuuuuuuu$XXX"
};
