/* XPM */
static char *result[] = {
/* columns rows colors chars-per-pixel */
"32 32 37 1 ",
"  c #1D9A46",
". c #179A48",
"X c #179A4B",
"o c #0C9952",
"O c #07985A",
"+ c #00985C",
"@ c #149950",
"# c #00966D",
"$ c #009671",
"% c #009672",
"& c #009676",
"* c #009578",
"= c #00957B",
"- c #00957C",
"; c #00957E",
": c #00957F",
"> c #0075BE",
", c #009484",
"< c #00929A",
"1 c #00929C",
"2 c #00929E",
"3 c #00929F",
"4 c #00A78C",
"5 c #00A997",
"6 c #00A09E",
"7 c #0092A0",
"8 c #0091A3",
"9 c #0091A5",
"0 c #0091A6",
"q c #0091A7",
"w c #0091A9",
"e c #0091AA",
"r c #0090AC",
"t c #0090AE",
"y c #0090B4",
"u c #008DCE",
"i c #00B7E2",
/* pixels */
"                                ",
"      2q$          #=-&.     X:<",
"wy%O45uuu7u1+   *0ruuuu0u,o@;tuu",
"uue9uiiiuuuuu863uuuuuuuuuuwquuuu",
"uuuuuuuuuuuuuuuuuuuuuuuuuuuuuuuu",
"uuuuuuuuuuuuuuuuuuuuuuuuuuuu>>uu",
"uuuuuuuuuuuuuuuiiiuuuuuuuu>>uuuu",
"uuuuuuuuuuuuuuiuuuiuuuuuuuuuuuuu",
"uuuuuuuuuuuuuuuiiiuuuuuuuuuuuuuu",
"uuuuuuuuuuu>uuuuuuuuuuuuuuuuuuuu",
"uuuuuuuuuuuu>>uuuuuuuuuuuuuuuuuu",
"uuuuuuuuuuuuuuuuuuuuuuuuuuuuuuuu",
"uuuuuuuuuuuuuuuuuuuuuuuuuuuuuuuu",
"uuuuuuuuuuuuuuuuuuuuuuuuuuuuuuuu",
"uuuuuuuu>uuuuuuuuuuiuuuuuuuuuuuu",
"uuuuui>>uuuuuuuuuuuuiiuuuuuuuuuu",
"uuuu>>iiiuuuuuuuuuuuuuiiiuuuuuuu",
"uuuuuuuuuiuuuuuuuuuuuuuuuuuuuuuu",
"uuuuuuuuuuuuuuuuuuuuuuuuuuuuuuuu",
"uuuuuuuuuuuuuuuuuuuuuuuuuuuuuuuu",
"uuuuuuuuuuuuuuuuuuuuuu>>>uuuuuuu",
"uuuuuuuuuuuuuuuuuuuuuuuuu>uuuuuu",
"uuuuuuuuuuuuuuuuuuuuuuuuuu>>uuuu",
"uuuuuuuuuuu>>uuuuuuuuuuuuuuuuuuu",
"uuuuuuuuuuuuu>>uuuuuuuuuuuuuuuuu",
"uuuuuuuuuuuuuuuuuuuuuuuuuuuuuuuu",
"uuuuuuuuuuuuuuuuuuuuuuiuuuuuuuuu",
"uuuuuuuuuuuuuuuuuuuiiiuuuuuuuuuu",
"uuuuu>uuuuuuuuuuuiiuuuuuuuuuuuuu",
"uuu>>u>uuuuuuuuuuuuuuuuuuuuuuuuu",
"uuuuuuu>>uuuuuuuuuuuuuuuuuuuuuuu",
"uuuuuuuuuuuuuuuuuuuuuuuuuuuuuuuu"
};
