/* XPM */
static char *result[] = {
/* columns rows colors chars-per-pixel */
"32 32 14 1 ",
"  c #1D9A46",
". c #179A4B",
"X c #00985B",
"o c #149950",
"O c #009672",
"+ c #0075BE",
"@ c #009397",
"# c #00929A",
"$ c #00929B",
"% c #00929C",
"& c #008FB8",
"* c #0090B5",
"= c #008DCE",
"- c #00B7E2",
/* pixels */
"============================#O. ",
"============================&%o ",
"====--=======================@X ",
"=====---======================*$",
"================================",
"============================++==",
"===============---========++====",
"==============-===-=============",
"===============---==============",
"===========+====================",
"============++==================",
"================================",
"================================",
"================================",
"========+==========-============",
"=====-++============--==========",
"====++---=============---=======",
"=========-======================",
"================================",
"================================",
"======================+++=======",
"=========================+======",
"==========================++====",
"===========++===================",
"=============++=================",
"================================",
"======================-=========",
"===================---==========",
"=====+===========--=============",
"===++=+=========================",
"=======++=======================",
"================================"
};
