/* XPM */
static char *result[] = {
/* columns rows colors chars-per-pixel */
"64 64 252 2 ",
"   c #057402",
".  c #007D00",
"X  c #097511",
"o  c #295F34",
"O  c #076D3A",
"+  c #0F7734",
"@  c #04763A",
"#  c #3B384F",
"$  c #3C3A51",
"%  c #443C57",
"&  c #533859",
"*  c #4E3E63",
"=  c #683D6E",
"-  c #005858",
";  c #2B5846",
":  c #2B5B46",
">  c #375647",
",  c #344A55",
"<  c #3C5653",
"1  c #007254",
"2  c #327249",
"3  c #085965",
"4  c #345771",
"5  c #057173",
"6  c #28797A",
"7  c #4B574C",
"8  c #45415A",
"9  c #44425A",
"0  c #45565B",
"q  c #446B52",
"w  c #4B4562",
"e  c #4C4C67",
"r  c #524266",
"t  c #53446A",
"y  c #584668",
"u  c #554B6C",
"i  c #54546C",
"p  c #5C4673",
"a  c #584C73",
"s  c #5C4B74",
"d  c #495471",
"f  c #555573",
"g  c #5B5475",
"h  c #5A5C75",
"j  c #5C5A79",
"k  c #64467B",
"l  c #644A78",
"z  c #644C7B",
"x  c #704C77",
"c  c #65547A",
"v  c #4B6962",
"b  c #556868",
"n  c #5D6275",
"m  c #64687B",
"M  c #65717D",
"N  c #008501",
"B  c #008A09",
"V  c #009406",
"C  c #00960A",
"Z  c #00990C",
"A  c #008E13",
"S  c #068B17",
"D  c #168A14",
"F  c #009C12",
"G  c #009F1D",
"H  c #268B17",
"J  c #00A10D",
"K  c #00A515",
"L  c #00A817",
"P  c #00A51B",
"I  c #00A91B",
"U  c #008927",
"Y  c #008B2B",
"T  c #009425",
"R  c #00952C",
"E  c #009732",
"W  c #2D9823",
"Q  c #379B28",
"!  c #00AD24",
"~  c #00A828",
"^  c #1BAC2E",
"/  c #00B027",
"(  c #00B22A",
")  c #00A435",
"_  c #00AB35",
"`  c #00AD3C",
"'  c #04B636",
"]  c #01B936",
"[  c #11B33B",
"{  c #14BB39",
"}  c #23AD2F",
"|  c #2DAE32",
" . c #39A430",
".. c #2DBA3A",
"X. c #3BB83B",
"o. c #4DB13B",
"O. c #4AB53C",
"+. c #32C03F",
"@. c #00AD41",
"#. c #00B145",
"$. c #00B34C",
"%. c #00B84B",
"&. c #07B155",
"*. c #00B757",
"=. c #27BD5E",
"-. c #008E77",
";. c #00A46D",
":. c #00B866",
">. c #00A877",
",. c #00BA7A",
"<. c #569949",
"1. c #4BB547",
"2. c #58BA43",
"3. c #00C65D",
"4. c #3DC142",
"5. c #00C365",
"6. c #00C67C",
"7. c #43C444",
"8. c #4BC647",
"9. c #59C84B",
"0. c #65C94E",
"q. c #64CD51",
"w. c #6ACF55",
"e. c #68D355",
"r. c #74D157",
"t. c #58C96C",
"y. c #0A7482",
"u. c #2B7089",
"i. c #4A5E81",
"p. c #674D80",
"a. c #694E82",
"s. c #784581",
"d. c #6C5085",
"f. c #6B5887",
"g. c #72558A",
"h. c #725B8F",
"j. c #755C91",
"k. c #7A5D96",
"l. c #526B8D",
"z. c #6A6987",
"x. c #78678D",
"c. c #697483",
"v. c #6E6A91",
"b. c #786896",
"n. c #7C639A",
"m. c #6D7592",
"M. c #787599",
"N. c #7D70A1",
"B. c #865D92",
"V. c #876797",
"C. c #84749C",
"Z. c #826DA5",
"A. c #8776A7",
"S. c #847BAC",
"D. c #9275AE",
"F. c #8C76B0",
"G. c #8D7BB4",
"H. c #937CB8",
"J. c #977FC0",
"K. c #008586",
"L. c #1C8F99",
"P. c #009590",
"I. c #00A888",
"U. c #00BC84",
"Y. c #00AA94",
"T. c #00B699",
"R. c #00B8A7",
"E. c #00ADB5",
"W. c #4E8CAD",
"Q. c #698EA3",
"!. c #01C788",
"~. c #00C694",
"^. c #00CD9B",
"/. c #00D298",
"(. c #00C8A3",
"). c #00D4AA",
"_. c #00C6B6",
"`. c #00D8B4",
"'. c #3DDAA7",
"]. c #05E2B1",
"[. c #44DAA0",
"{. c #4DE2B6",
"}. c #08B5C1",
"|. c #5E9DC4",
" X c #729CC9",
".X c #52A5C9",
"XX c #73A5CB",
"oX c #00DEC8",
"OX c #00E7CC",
"+X c #00EFD2",
"@X c #37EFCA",
"#X c #50E8C4",
"$X c #66E7DF",
"%X c #64F6E5",
"&X c #868F9D",
"*X c #9089AB",
"=X c #8994A3",
"-X c #8C85B6",
";X c #9384BD",
":X c #9388B9",
">X c #9895B5",
",X c #A696B9",
"<X c #9DA5B9",
"1X c #AAA9BB",
"2X c #A4B1BE",
"3X c #9787C1",
"4X c #9A8BC4",
"5X c #9D8DC9",
"6X c #9895C6",
"7X c #A68BC7",
"8X c #A294CB",
"9X c #B499C4",
"0X c #A596D4",
"qX c #AA95D6",
"wX c #A699D6",
"eX c #A89BD5",
"rX c #A798D8",
"tX c #AB9CDB",
"yX c #B698DC",
"uX c #93B6C9",
"iX c #AAAAC7",
"pX c #AAB4C5",
"aX c #B2B6CC",
"sX c #ADA3D8",
"dX c #AEA9DA",
"fX c #B1A6D8",
"gX c #B1ACDC",
"hX c #ADB0DD",
"jX c #B4B4D6",
"kX c #BBBDDC",
"lX c #AF9FE0",
"zX c #B997E1",
"xX c #AEA2E1",
"cX c #B1A4E2",
"vX c #B6ADE3",
"bX c #ABB2E3",
"nX c #BBB8E3",
"mX c #C2B0E5",
"MX c #92D2D6",
"NX c #BEC3DE",
"BX c #A7D0D3",
"VX c #9EE6D3",
"CX c #ADE8C9",
"ZX c #B6E9CA",
"AX c #BCC6E3",
"SX c #B4D9F0",
"DX c #B7EBED",
"FX c #C0CBDC",
"GX c #C3C9E4",
"HX c #CAD1E7",
"JX c #C6E2EA",
"KX c #C7F9F7",
/* pixels */
"K K K K K P K K K K P K K K K I I I L K K L I I K J K ( 4.+./ J K L L L K K K K K K P K K K L L L L I L L J K / X...! ! ..X.( I ",
"K K K K K K K K K K K K K K K I ! / I K K I ! I L K I ] 8.+./ L I ! I J K K K K K K K K K K K I ! / / ! I K J ! | } ! ! } | ~ K ",
"K K K K K K P K K K K K L J K ! ] ] ! J J ! { ] ! I ] 8.0.+.! I ' { ! K K K K K K K K K K K K ! ' 7.8.' I L K F A A K F A A F K ",
"K K K K K K K K P K K K K K K ( 8.8.( J J ( 8.8.] ( 7.w.w.4.] ] 8.8.( L K K K K K K P K K K J ! 7.r.r.7./ K K Z N N Z Z N N Z K ",
"K P K K K K K K K K K K K J K ( 8.7.( Z Z ( 7.0.8.7.9.q.q.9.7.8.9.7.( K J K K K K K K K K J K / 7.r.r.7.! K J K C Z Z K Z C K K ",
"K K K K K K K K P K K K K K K ! | | ! K K P } 2.0.e.w.9.O.2.0.0.2.} P K K K K K P K K K K K K ! ] 7.7.] ! J J K L K L L K K K K ",
"K K K K K K K K K K K K P P P U < 0 0 0 0 0 0 q <.w.e.O.W Q o.o.Q A Z K L K K K K K K K K K K L ! ! ( ! I K K L L L K L K I K K ",
"K K K K K K P K K K K P T Y Y O v m j n z.c.c.b q o.o.Q . D Q o.S N Z L L K K K K K K L K K K K K J K K K K K K K K K K K K K K ",
"K K K K K K K K K K K T O ; ; q &X<X>X:X<XpX2X=Xb o + X   X X A C V K K I K K K K K K K K K P K K K K K K K K K K K K K K K K K ",
"/ ! I K K K K K K G T + v n h M.pXnXvXtXiXaXaX>Xm 7 o X X X X X F I L K K K K K K K P K K K K K K K K K K K K K K K K K P K K K ",
"+.' ! K K K K K K T O v =X<X>X3XeXvXcX8XG.A.C.C.x y , ; ; ; ; O T I L K K K K K K K K K K K K K K K K K K K P K K K K K K K K K ",
"+.' ! K Z K K G T @ v Q.aXGXvXrX0XwXwX4XZ.g.l l k s w 9 * * w < @ Y Y T P K K K K K K K K K K K K K K K K P K K K K K K K K K P ",
"( ! I L K K K T O v &XBXHXGXnXrX0X0X0X0X4XZ.a.k k z l a s s s a < : : O R L K K P K K K K K K L K K K K K K K K K K K K K K P K ",
"L L K K K K K U ; c <XGXGXjXsX0X0X0X0XtXtX4XZ.n.j.n.n.j.g.a.d.z e w w < @ Y U U Y Y Y U U T G P K K K K K P K K K K K K K K K K ",
"J K K K K K K Y ; h >XvXvXsX0X0X0X0X0XwXtX0X5X;X;X4X4XF.b.a.p.a.c l s u < ; ; ; : ; ; ; ; @ T P K K K K K K K K K K K K K K K K ",
"L K L J K P E + v v.;XwXwX0X0X0X0X0XwX0X0X0XtXtXcXcXcX4Xn.p.k a.a.d.g.s 9 , e m z.c.M c.c.b Y R F K K P K K K K P K K K K K K K ",
"L L L J F E 2 b m.3X0X0X0X0X0X0XrX0XrX0X0XrXtXlXsXcXxX5Xn.p.z a.a.g.d.s $ e b.>X1X2X2XpXpX=Xv O T K K K K P K K K K K K K L K K ",
"K K K I ~  .7 i.-XlXlX0XyXqXqX0X0XrXtXlXtX0X-XS.S.S.S.b.g p k a.a.z z g n M.6XtXaXiXpXaXaX>Xm < @ T G K K K K K K K L I ! / I K ",
"K K J ! [ 1.q f.-XlXlXrXqXqXqX0X0X0XwXlXtX;Xv.i e g g e w r s d.d.p t n =XpXgX8XH.C.C.A.A.M.f.t 7 1 T K K L K K K K K ! { { ! L ",
"K J K I  .<.7 c H.zXlX6X|.|.5XzXyX0X-XS.S.M.z.f n M M M c.n g p.p.t $ n >XGXvX3XZ.j.h.g.z z p.s 8 : Y K K K K P K K J ! | O._ / ",
"K K K F S Q 7 l H.zXzX|.E.E.XXzXzX;Xz.u e f.m.-X,X<X2X2X2X&Xn t p t % h :XvXcX8X;XH.H.Z.d.k z z 8 : R L L L K K K L L F A W X.X.",
"L L L V . @ 1 5 L. XyXuX_.`.}. X-XM.z.b i v.3XsXaXiX2XaXaX>Xm w t s g v.;XrXtXeXrXtXtX5XA.j.a.z u < @ S G K K K K L L V N S O.0.",
"K K K K A Y ;.I.T.E. XbXMX+X`.P.6 z.&X>X-X;X0X8X*XC.C.A.A.M.c t w f N.3X0X0XwX0XtXtXtXeX5XF.j.z s i < 1 T P K K K L L Z V P O.9.",
"K K K I $.:.^.).`.E.}.MXVX#XT.-.3 m.iXAXvXtXrX3XZ.j.h.g.z k k t , h ;XxXsX0X0XwXtXtXtXcXcX5Xn.a.z c 8 : Y K K K K K L J L ! } O.",
"K K K I !.^.OX%X%XOX(.(.6.=.>.5 l.;XfXvXdXtXwX8X3XH.H.N.d.k k t % j ;XxXlX0X0XrXeXtXtXxXxX5Xn.a.a.s e : Y K K K K K K L L K A S ",
"K K K K 6.~.{.CXCX).~.:.~ ) q a F.tXtX0X0X0XrX0XrXtXlX5XZ.n.b.a.u g M.3X0XwXtX0X;XN.S.S.S.b.c p k c t : Y K K K K K K I L Z N . ",
"K K K K #.&.&.3.3.*.#._ L ~ 7 g -XlXtX0X0X0XwXwXwXtXtX0X4X4X3XF.f.u u v.3XxXxX3Xv.f i i f d 8 t z s e : Y P K K K K K I K K C C ",
"K K K K L L L I ^ / I L T @ 0 b.4XtXlXtXwX0X0X0X0X0X0X0XrXtXtX5Xn.t $ h -XrX4Xb.n f b n n c.M m g u 9 : Y K K K K K K K K L K K ",
"K P K K K K K ! { { ! T O 0 m.4XwXtXtXwXwXwXwX0XrXwX0X0XwXxXsX5XV.* # h -X6Xv.i.b.-X<X<X<X2XpX=Xm 9 $ : R L K K P K K K K K L L ",
"K K K K K K K ! { { ! U ; i N.3XJ.G.G.3X0XtXwXwX0X0X0XeXdXdX8XF.j.p w g M.N.c.m.:XcXAXkXaXaXpX*Xj % 9 < @ R K K K K K K K K K K ",
"K K K K K K K I ! ! I U > y f.n.k.f.j.Z.4XeXtX0X0X0X0XdXkXiXG.h.p.p.l s g M =XiXsXfXvXeX*XC.C.x.c s s i < O T K K K K K K K K K ",
"K K K P K K K K J L L U : 0 f.C.A.M.b.n.F.;X8XwXwXwXsXhXaX>Xx.z k d.d.t # h <XnXvXrXqX4XZ.x.h.k.n.j.a.s r < @ T ~ K K K K K K K ",
"K K K L K L K K K K K U : h &XpXBXBX6XZ.k.Z.4X0XwXgXjXaX*Xx.z l p.d.g.t $ f >XvXcXwX0X5X3XG.G.3X3XF.j.z p u < O R K K K K K K K ",
"K K K J K K K K K K K U ; m uXKXKXDXAX7XZ.Z.3XrXwXgXnXiXC.k k a.a.z s a j v.4XtXtXtXwX0XtXwXwXsXtX5XA.j.p.= w ; T K K K K K K K ",
"K K K K K K K K K K K U ; M BXKXKXJXGXjX8X4X5X0XwXdXdX4Xn.p k d.a.p w g N.4X0XwXtXwXwXwXwXtXwXtXtXwX5XF.j.p 8 : U K J K K K K K ",
"K K ! ! L K K K K K K U > c.BXKXJXkXkXaX6X;X8XwXtXrX5XF.j.z z d.g.t 9 e N.3X3XG.G.;X0XeXtX0XwX0XrXrXqX8X*Xx.g < 1 ~ ~ K K K K K ",
"L ! { { ! K K K K K K U > M BXKXAXsXsX>Xm.v.-XtXlX5XZ.h.d.z d.d.a.p , e f.n.n.h.h.N.4XtXeX0X0XwX0X0XrXdXjX>Xx.e 7 2 E K K K K K ",
"( ] 8.7.( K J K K K K R 1 -._.$XbXzXzXG.f f -XtX0XF.j.p.z d.d.z p t s p.f.b.b.M.V.C.G.;X0XwXwX0XrXeXdXjXaX,Xb.s w q Y J K K K K ",
"7.8.q.7.( K K K K K K ) ;.Y.^._.XXzXzXS.d i F.0XF.h.p.k z d.d.s w a n.G.3X:X9XpXpX>XN.N.3X0XwX0X0XdXnXjX>Xn.d.s w > U K K K K K ",
"q.0.2.} K K K K K ~ ` :.^.`.)._.}. X3Xv.e e v.M.f.r * l z a.s u h m.uXbXxXsXjXNXAXiXZ.n.J.wXtXtXtXdXaX>Xx.p.k z 8 > + L L K K K ",
"0.2.Q B F K L K K ` :.^.+X%X%XOX_.P.u.y 8 9 e i w $ , t z s t h &XBXSXSXbXtXsXvXgXeX:X;X7XwXtXsXtX8XG.x.z k l s w > @ K K L K L ",
"o.Q B N C K I K K _ :.~.{.ZXZX@X`.I.- % y h h i f h j g a * & z.pXKXKXDXAXgXfXgXdXdXgXgXgXeX4X;X-XA.f.z z d.a.l w : T P K K L J ",
"D B B V K L K K K ~ ` $.*.=.=.!.).>.- 8 V.-X-XS.S.;X-XM.f % * C.BXKXKXHXFXNXkXkXkXNXNXGXNXiXA.h.g g z k a.d.d.l 8 1 ) F K K K K ",
". N F I L K K K K K P K L K J #.U.-.6 M.4XtXtXwX0XlXtX3Xv.w * Q.VXKXFX1X,X1XiXaXaXkXNXGXNXiXb.* $ 8 s d.d.d.z = & 1 &.$.` _ I K ",
"C Z K I K K K K K K K K K F J R 1 -.=XiXfXtXtXtXyXlXtXeX;Xx.e Q.VXDX>Xx.c m b.*X8XgXdXvXgX6Xk.* $ % l d.a.d.a.k & 3 >.!.!.:._ P ",
"K K K K K K K K K K P K K G T O 7 x >XaXgXfXfXfXgXgXvXvXcX-Xc n XXuXQ.5 3 , t V.7XgXxXlXyX7XD.g.y * y l s.s.s.z 4 -.>.~.).^.:.$.",
"I L I K K K K K K K K K K T o > = s.V.>XaXmXNXNXkXNXGXAXvX4Xh.l b 6 P.I.I.5 4 b.9XNXdX0XqX7X7XF.g.l w y p s.s.d K.:.*.:.`.OX^.U.",
"K K K K K K K K K P K K K R 1 5 6 d l B.,XGXHXkXpX1X1X9X7XD.j.= & - -./.^.Y.K.m.,X9X9X-X|.|.|.|.u.4 % , 4 u.y.K.T.,._ _ !.{.^.U.",
"K K K K K K K K K K K K K ` ;.I.Y.K.4 c :XmXvX0XM.m x.V.V.k.g.= & - I.).).~.T.P.m.V.B.l.Y.R._.(.R.K., , K.Y.Y.Y.T.,._ K #.*.$.$.",
"K K K K K K K K K K K ~ ` :.^.`.!.;.1 y.W..X.Xl.f w 4 u.u.i.p.k 4 5 T.oX`.).^.T.K.i.i.P.R.).!.!.!.>.-.K.T.`.`.).(.,.@.K K K K K ",
"K K K K K K K K K P K ` :.^.OX].:.$.;.I.Y.R.R.P.4 d K.I.Y.K.l.4 K.T.OXVXVX+X).T.Y.P.P.R.oX`.6.3.%.$.;.T.OX%X%X+X).,.` K K K K K ",
"K K K K K K K K K K K ` :./.{.!._ ` ,.(.).`.`.R.P.K.I.6.!.I.K.y.I.~.].CXCX#X).T.T.!.,.~.{.[.%.| ~ ` U.`.#XCXCX'.!.:._ F K I I ! ",
"K K K K K K K K K K K ! @.$.*.#.K _ ,.).OX%X%XOXR.I.&.@.#.:.I.>.*.#.*.t.t.[.^.~.~.6.*.%.*.@.S A F @.!.^.!.4.=.*.#._ I J J ! ] ..",
"K K ! / L K K K K K K K K K K K K _ *.~.'.CXCX#X).,.@.K K _ :.:.` K K I ..1.6.U.T.,.` K L C N N Z ` :.,.$.! K I ! ! L L I ] 7.9.",
"K ! { { / K J L K K K K L L K K K ! _ %.*.=.=.!.).,.@.K K P ` _ I L K Z A Q *.:.U.,.@.K L F C C K ~ ` ` ~ K K ! { ' I L ] 8.9.q.",
"( ] 8.7.( K J L K K K K K I ! ! I K P ~ ~ ~ _ 5.~.,.` K K K P ! K L L V V D 1.5.,.,.` K K L L L K K ! P P K J ( 8.8.' ! =.q.q.e.",
"7.8.q.1.! K J K K K K K K ! { { ! K J K K K K K K K K K K K K K K K L Z V ! 1.8.( K J K K L L L L K K K L J K / 7.q.8.7.9.0.q.q.",
"w.9.2.| I K K K K K K K K ! { { / K K K K K K K K K K P P K K K K K K K L I | | ! K K K K K K K K K K K K J K I } o.q.e.e.9.O.O.",
"0.2.Q B F K L K K K K K J I / ! I L K K K K K K K P K K K K P K K K K L L K A A F L L K K K K K K K K K K L K Z C Q 2.r.w.O.W H ",
"o.Q B N C L L K K K K K L K K K K K K K K K K K K I K K K K K K K K K I L Z N N C L L K K K K P K P K K L I ( I N B Q o.o.o.    ",
"D B B Z F L L K P K K K L K J K K K K K K K K K K K K K K K K K K K K I L K V C F L L K K K K K K K K K K / { ' P N N H H X     ",
". N Z I L K L K K K K K L L K K K K K P K P K K K K K K K P K K K K K K K K L K L K K K K K P K K K K K K ~ | X.( G B . . . . . ",
"V C K I L K K K K K K K K K K K K K P K K K K K K K K K K K K K K K K K K K L L L K K K K K K K K K K K K F A Q X.] K V N V C Z ",
"F K K K L K P K K K P K K K K K K K K K K K K K P K K K K K K K K K K K K K L L K K K P K K K K K K L L K Z N H o.+./ Z J K F K "
};
