/* XPM */
static char *result[] = {
/* columns rows colors chars-per-pixel */
"64 64 188 2 ",
"   c #000000",
".  c #020B02",
"X  c #150E02",
"o  c #001401",
"O  c #001C01",
"+  c #1A1301",
"@  c #1E1E00",
"#  c #261E02",
"$  c #003402",
"%  c #003B03",
"&  c #2D2503",
"*  c #2C2A00",
"=  c #322706",
"-  c #322A06",
";  c #253707",
":  c #333201",
">  c #393700",
",  c #26292B",
"<  c #004204",
"1  c #004C06",
"2  c #005907",
"3  c #005D07",
"4  c #075812",
"5  c #006B00",
"6  c #00610A",
"7  c #007300",
"8  c #007C00",
"9  c #0E7D06",
"0  c #157D07",
"q  c #00701F",
"w  c #357110",
"e  c #006A24",
"r  c #23682E",
"t  c #51410F",
"y  c #534210",
"u  c #5E4C13",
"i  c #64540B",
"p  c #686600",
"a  c #727000",
"s  c #3B3D40",
"d  c #414242",
"f  c #817F00",
"g  c #81681E",
"h  c #8C7114",
"j  c #937823",
"k  c #997C24",
"l  c #008501",
"z  c #008B01",
"x  c #00860D",
"c  c #008B0C",
"v  c #009305",
"b  c #00960A",
"n  c #00990B",
"m  c #008D13",
"M  c #0A8C15",
"N  c #168D16",
"B  c #009412",
"V  c #009C13",
"C  c #278916",
"Z  c #00A20E",
"A  c #00A515",
"S  c #00A817",
"D  c #00A51C",
"F  c #00A91B",
"G  c #009A2E",
"H  c #009B31",
"J  c #2D9823",
"K  c #369925",
"L  c #399E2A",
"P  c #00A422",
"I  c #00AD24",
"U  c #00A02A",
"Y  c #00AD29",
"T  c #1BAC2E",
"R  c #00B026",
"E  c #00B22B",
"W  c #00B532",
"Q  c #01B936",
"!  c #09B738",
"~  c #05BA38",
"^  c #14BB39",
"/  c #1DBB39",
"(  c #23AD2F",
")  c #2EAE32",
"_  c #2AA936",
"`  c #3BA130",
"'  c #2DBA3A",
"]  c #3BB73B",
"[  c #5C941D",
"{  c #409927",
"}  c #46AC35",
"|  c #47B43B",
" . c #53B63E",
".. c #64A131",
"X. c #32C03F",
"o. c #00B344",
"O. c #16B341",
"+. c #29BA57",
"@. c #569446",
"#. c #4D935F",
"$. c #67904C",
"%. c #6B914E",
"&. c #7E8F56",
"*. c #4BBC41",
"=. c #56B640",
"-. c #55B942",
";. c #5ABA43",
":. c #4EBE5F",
">. c #37C241",
",. c #3CC242",
"<. c #44C444",
"1. c #49C546",
"2. c #4DC648",
"3. c #4AC949",
"4. c #53C649",
"5. c #55C74A",
"6. c #5DCA4D",
"7. c #5BD052",
"8. c #65C94E",
"9. c #64CD51",
"0. c #6ACF53",
"q. c #65D355",
"w. c #6AD456",
"e. c #74D157",
"r. c #A49F14",
"t. c #A8A500",
"y. c #ACAA00",
"u. c #B9B600",
"i. c #9E8126",
"p. c #A18327",
"a. c #A68829",
"s. c #B6942E",
"d. c #B8972E",
"f. c #BD9930",
"g. c #B3A23F",
"h. c #C2BE00",
"j. c #C59D35",
"k. c #CCAC2E",
"l. c #CEB12B",
"z. c #C6A234",
"x. c #CBA535",
"c. c #CDA834",
"v. c #D3AD36",
"b. c #D5AC39",
"n. c #CDB232",
"m. c #D6B037",
"M. c #DDB439",
"N. c #E6BC3D",
"B. c #DDD408",
"V. c #D1C313",
"C. c #DFD81F",
"Z. c #E2D705",
"A. c #E0DB17",
"S. c #E7E300",
"D. c #E8E400",
"F. c #ECE900",
"G. c #F2EE00",
"H. c #F6F200",
"J. c #FAF600",
"K. c #D8C724",
"L. c #D2C73C",
"P. c #EAE420",
"I. c #858E5A",
"U. c #84975A",
"Y. c #A79856",
"T. c #959B63",
"R. c #AB9764",
"E. c #B69E61",
"W. c #CCBC49",
"Q. c #CAB94C",
"!. c #C7B551",
"~. c #D1C341",
"^. c #75CD86",
"/. c #85B78C",
"(. c #A9BBB1",
"). c #BEBFBC",
"_. c #88D395",
"`. c #97D297",
"'. c #A5D69E",
"]. c #98D7A2",
"[. c #A5DBAC",
"{. c #B3E1B9",
"}. c #C6C7C9",
"|. c #C6EACB",
" X c #E6F5E8",
".X c #ECF6EC",
"XX c #EFF8F0",
"oX c #FEFFFE",
/* pixels */
"A A A A D A A A A A A A A A A F F F A A A A S F A Z A E <.+.I S Z S S S A A A A A A A A A A A A F F F A S Z A R ] ' Y Y ' ] E F ",
"A A A A A A A A D A D A A A A F I I F A A F R F S A F W 1.>.I Z F R S S A A A A A A D A A A A F I R R I F Z A F ) ( P I ( ) I F ",
"A A A A A A A A A A A A A Z A I ~ ~ I Z A R ^ W I F Q 4.8.' I I ~ ^ I S A A A A A A A A A A A I W <.<.Q I A A V B B V V m m V A ",
"D A A A A A A D A A A A A A A E <.3.R Z n E 1.3.Q E ,.q.q.<.E W 2.1.R Z A A A A A D A A F A Z R <.e.e.<.R A A b l l n n l l n V ",
"A A A A A A A A A A A A A Z A E 1.1.E Z A R ,.8.2.<.5.9.9.5.<.1.8.<.R A Z A A A A A A A A A A Y <.e.e.<.I A Z A b b A Z n b V A ",
"A A A A A A A A A A A A A A A I ) ) I A A I ( =.8.q.q.6.| -.8.8.;.( D A A A A A A A A A A Z A I W <.<.~ I Z Z S S A A S A F A A ",
"A A A A A A A A A A A A A S S V m m V S A b c L ;.w.w.| J L -.5.L c n A S A A A A A A A A A A F I R R I F A A A S S S A S S S A ",
"A A A A A D A A A A A A A S S n l l n F S b l x L =. .K 9 0 L L m l n F S A A A A A A A A A A A A A Z A A A A A A A A A A A A A ",
"A A A A A A A A A A A A A F         < A S A n z x C C 9 7 5 0 m b b A A A A A A A A D A A A A A A A A A A A A A A A A A D A A A ",
"R I A A A A A A A D A D A A         1 A A S F n l 8 8 8 8 8 8 l V A S A A A A A A A A A A A A A A A A A A A A A A A A A A A A A ",
">.~ I A A A A A A A A A A A         < A A S F A b v v v b b v n A F S A A A A A A D A A A A A A A A A A A A A A A A A A A A A A ",
"' ~ I A A A A A A A A A A A       . o $ % 2 V A A A S F A F F A A A A A A A A A A A A A A A A A A A A A A D D A A A A A A A A D ",
"E R F A A A A A A A A A A A < < < O       . 6 A F F S S F F F S A A A A A A A A A A A A A A A A A A A A A A A A A A A A A A D A ",
"A A A A A A A Z A A A A A A A D A 6 .       . $ % < < 3 V A A A A A A A Z A A A A A A A A A A A A A A A A D A A A A A A A A A A ",
"Z A A A A A A A A A A A D A A A A B 1 .               . 6 A A A A A A A A A A A A A A A A A A A A A D A A A A A A A A A A A A A ",
"A A A A A A F I F A A A A A A A A A A q .               o % < < < 3 V F I I S A A A A F I I F A A A A A A A A A A D A A A A A A ",
"A A A Z A I Q ^ R A Z A A A A A A A A P q % $ .                   . 6 R ~ ~ R A Z A A R ~ ~ I A A A A A A A A A A A A A A A A A ",
"A A A S R Q 4.X.Y A I R F A A A A A D A A A A 3 .                   o 4 ` 1.R A Z Z A E 1.1.R A Z A A A A A A D A A A F R R F A ",
"A Z A I Q 5.9.X.I I Q ^ R Z A A A D A D A A A V 3 o                   . r 1.R A Z S Z E 3.<.E A A A D A A A A A A A A I ^ ^ R S ",
"A A A F ) ;.8.3.Q E ] ) I A Z A A Q ^._.+.A A A A 2                     4 ) I A S Z A :.'.'.O.D A A A A A D A A A A A I ) | E I ",
"A S A V B { ;.7.3.| J m n S A A A _.XXXX].A A A A 2                     % m V A S S A ]..X.X`.W A A A A A A A A A S S n m J ] ] ",
"A S S b l x L  .=.{ m l n S Y +.]..XoXoX[.F A V 3 o                     . $ % 3 A A A [.oXoX X|.A A A A A A A A A S S n l M | 8.",
"A S S Z n c x C C m c b A A o._.XXoXoXoX[.D A 6 .                             . 6 A A [.oXoXoXoXS A A A A A A A A A A n v P *.6.",
"A A S S S n z 7 8 z n S S A o._.XXoXoXoX X/.r o         # = - & & - - +         o r /. XoXoXoXoXA A A A A A A D A A A Z A I ( ] ",
"A A A F S A n v z n Z F S A Y +.]. XoXoXoX).d         + i k p.j k k k i +       . d ).oXoXoX X|.A A A A A A A D A A A S S A m M ",
"A A A A A S A S A A A A A A A A A ^. XoXoX}.d   + = = u a.N.N.x.x.N.M.s.u - = + X d }.oXoX.X^.P F D A A A A A A A A A F S n l 8 ",
"A A A A A S S S S A A A A A A A A Y ^.[.{.(.s X i k i.a.x.M.m.v.v.M.M.x.a.k k u + , (.{.[.^.Y A A A A A A A A A A A A F A A b v ",
"A A A A A A A F R R F A A A A Z A A A A A #., # h M.M.f.p.p.s.c.x.s.k p.f.N.M.h # , #.A A A D A A A A A A D A A A A D A A S A F ",
"A A D A A A A I / ^ R S Z A A A A A A A A e . & j N.N.p.y t k v.v.k y y p.N.N.k & . e A A A A A A A A A A D A A A A A A A A S S ",
"A A A A A A A I ^ ^ R Z Z F I R F A A A A 1 . # j M.M.g X X g M.N.g X X g M.M.j # . 1 D A A A A A A A A A A A A A D A A A A A A ",
"A A A A A A A F R R F Z Z R / ^ R A Z A A x 2 ; j N.M.g X X g N.M.g X X g N.M.j ; 1 m A A D A D A A A D A A A D A A A A A A A A ",
"D A A A A A A A Z A A Z S R ^ ^ R A A A A A A w k b.v.k y t k b.v.k t t k b.b.k w A D A A A A A A A A A A A A A A A A A A A A A ",
"A A A A A A A A A A A A A F I I I A A A A A A [ d.x.x.d.i.p.s.c.x.s.p.k s.c.x.s.[ A A A A D D F A A A A A A A A A A A A A A A A ",
"A A A Z A A A A A A A A A A A A A A A A A A A ..g.z.z.j.x.c.x.z.z.x.c.x.x.x.z.g...A A A A A A A A A A A A A A A A A A A A A A A ",
"A A A A A A A A A A A A A A A A A A A A A A A U @.Y.z.x.x.v.c.z.z.x.v.c.z.z.Y...U A A A A A A A A A A A A A A A A A A A A A A A ",
"A A I I F A A A A A A A A A A A A A A A D A A P @.Y.n.k.j.j.j.j.j.j.j.j.c.x.T.@.D A D A A A A A A F I F A A A A I R F A A A A A ",
"S R ! ^ R A A A A A A A A A A A A A A A A A A @.R.Q.K.K.k.j.j.j.j.j.z.c.K.K.~.R.@.A A A A A A A A I ~ ^ I Z A I ^ ^ R A A A A A ",
"R Q 4.<.R A Z A A A A A A A A A A A A A A H %.R.L.F.F.Z.K.n.l.l.l.l.l.K.Z.F.F.~.R.%.H A A A A Z A R <.<.R A F E } ) I A A A A A ",
",.3.8.<.R A A A A A A A A A A A A A A A A %.E.L.S.D.F.D.Z.B.B.B.Z.B.B.Z.S.F.F.S.L.E.%.A A A A Z A E <.,.R R Q ] K B n A F A A A ",
"0.8.;.( D A A A D A A A A A A A A A A A D &.~.D.D.D.D.D.D.D.F.D.D.D.D.D.S.S.S.S.S.W.I.A A A A A Z E 1.>.E E ,.-.N l b S F A A A ",
"8.;.K x n A S A A D A A A A A A A A A A A I.W.D.D.S.F.D.F.F.F.D.F.F.F.D.D.D.D.D.D.~.I.A A A A Z A R <.>.R R <.1.P b n S S A A A ",
"} L x l n S S A A A A A A A A F I I F A A I.Q.D.D.D.S.S.S.F.H.J.F.S.S.S.D.D.D.D.S.Q.&.A A A A A A I ) ( I P ( ) I S A A A A A A ",
"N x v b A A S A A A A D A A A R ^ ^ I A A &.Q.S.S.S.S.S.S.S.F.F.F.S.S.D.D.D.S.D.D.Q.&.A A A A S A V m m V V m m V S S A A A A A ",
"8 l V F S A A A A A A A A A A I ^ / I A Z &.Q.D.S.F.S.F.F.B.u.u.B.H.H.S.S.D.D.D.D.!.&.A A A A S S n l l V n z l n F S A A A A A ",
"b n A F A A A A A A A A A A A F R I F A A &.Q.S.D.D.D.H.F.y.p p u.H.H.S.S.S.S.D.D.Q.&.A A A A A A V b n A n n b V S F A A A A A ",
"S A A A A A A A A A A A A A A A A Z A F F I.Q.S.D.S.S.J.J.t.* + a V.S.F.F.S.S.F.D.!.I.A A A A Z A S S A S S A S S A A D A A A A ",
"S S F A D A A A A A A A A A A A A Z A I ^ T.Q.S.S.S.D.J.J.y.*   @ p h.F.H.S.S.S.D.Q.I.A A A A A A S S S S A S S S A A A A A A A ",
"A A A A A A A A A A A A A A A A A Z A R 1.T.!.D.S.F.F.S.V.a *     : u.J.J.S.S.D.D.!.%.A A F I I S A A A A A A A A A A A A A D A ",
"A A A A A A F A A A A A A A A A A A A E 2.T.!.D.D.G.G.h.p * .     * y.J.J.S.S.S.S.!.&.A A R ~ ~ R A Z S A A A A A A A A A A A A ",
"A A A A A A A A A A D A A A A D A A A _ U.E.~.D.D.H.G.t.-         * f h.S.F.F.S.S.L.R.$.G R 3.<.E A Z A A A A A A A A A A A A A ",
"A A A A A A A A A A A A A A A A A A A %.E.~.C.D.D.H.G.t.*         . * p u.G.H.S.S.C.~.E.$.R 1.3.E A A A A A A A A A A A A A A A ",
"A A A A A A A A A A A A A A A A A A A I.~.D.D.D.D.H.G.y.>             : y.G.J.S.S.S.D.~.I.I ) ) I Z A A A A A A A A A A A S F I ",
"A A A A A A A A A A A A D A A A A A A I.~.D.D.D.D.G.G.y.>             * t.H.H.S.D.D.S.~.I.V m m V S S A A A A A A A A A Z I Q ' ",
"A A I I F A A A A A A A A A A A A A A &.!.A.A.C.C.P.P.r.>             - r.P.P.C.C.A.A.!.&.n l l n S S A A A A S I F A A F W 1.5.",
"A I ^ ^ I A A A A A A A A A A A A A A A A A A A A A A A A A D A A S S V m K | Q R A A S S V b b V A S A A Z A R ^ W I F W 2.7.9.",
"E Q 3.<.R A Z A A A A A A F R I F A A A D A A A A A A D A A A A A S A b z N *.1.E A Z A A A S S S A A A A A A E <.3.W W ,.9.9.9.",
",.4.9.<.E Z Z A A A A A A I ^ ^ I A A A A A D A A A A A A D A A A A S n v P 1.1.E A Z A A S F F F A A A A Z A E <.6.4.*.4.9.9.9.",
"9.8.-.( D A A A A A A A Z R ^ / R A Z A A A A A D A A A A A A A A A S Z S I ) ) I A A A A A A A A A A A A Z A D T ;.9.q.q.5.*.| ",
"8.;.K x V A S A A A A A A F R I F A A A A A A A A A A A A A A A A A A S F V m m V A F A A A A A A A A A A S A b c L =.w.w.*.J C ",
"} L x l n S F A A A A D A A A A A A A A A A A A A A A F A A A D A A A F S n l l n A F A A A A A A A A A S F R D z l L  .=.L 0 7 ",
"N x z n A A A A D A A A A A Z A A A A A A A A A A A A D A A A A A A A S A A b b A A A A A A A A A A A A Z R / ~ D z l C C x 7 5 ",
"8 l V F S A A A A A A A A A A A A F A A A D A A A A A A A A A A A A A A A S A A A A A A A A A A A A A A A I ) ] W D z 8 7 8 8 8 ",
"b b A S F A A A A A A A A A A A A A D A A A A A D A A A D A A A A A A A A A S S F A A A A D A A A A A A S V b { | W D z z v b b ",
"n A A S S D A A A A A A A A A A A A A A A A A A A A A A A A A A A A A A A A S S A A A A A A A A A A A F A b l C | +.R Z n A V A "
};
