/* XPM */
static char *result[] = {
/* columns rows colors chars-per-pixel */
"64 64 198 2 ",
"   c #010000",
".  c #0C0101",
"X  c #010D00",
"o  c #0F0C01",
"O  c #140101",
"+  c #1C0101",
"@  c #110A05",
"#  c #011100",
"$  c #011D00",
"%  c #0E1110",
"&  c #111111",
"*  c #191919",
"=  c #230102",
"-  c #2B0204",
";  c #2E0808",
":  c #330106",
">  c #3A0709",
",  c #241D03",
"<  c #3B160A",
"1  c #3B1D0C",
"2  c #002C02",
"3  c #122800",
"4  c #0A3702",
"5  c #003B00",
"6  c #173D06",
"7  c #262B08",
"8  c #34230C",
"9  c #3C230D",
"0  c #342C0C",
"q  c #3C2B0F",
"w  c #233507",
"e  c #21360A",
"r  c #2D340C",
"t  c #33330E",
"y  c #3A3714",
"u  c #2A302E",
"i  c #343736",
"p  c #363939",
"a  c #45030A",
"s  c #4B040B",
"d  c #470D0D",
"f  c #4A0B0D",
"g  c #54030E",
"h  c #59040F",
"j  c #500D0F",
"k  c #43130C",
"l  c #4B150E",
"z  c #4E0E10",
"x  c #5C0411",
"c  c #5C0D12",
"v  c #4C1813",
"b  c #561512",
"n  c #5B1313",
"m  c #63010C",
"M  c #630512",
"N  c #6C0615",
"B  c #620C13",
"V  c #6B0D16",
"C  c #720617",
"Z  c #750718",
"A  c #7B071A",
"S  c #750A19",
"D  c #7C0A1A",
"F  c #651215",
"G  c #691317",
"H  c #6E171A",
"J  c #75141B",
"K  c #7A111C",
"L  c #41220E",
"P  c #4A2211",
"I  c #5C291A",
"U  c #463B1A",
"Y  c #59301D",
"T  c #482F32",
"R  c #64373D",
"E  c #024201",
"W  c #004B01",
"Q  c #06440A",
"!  c #0C450B",
"~  c #044B0B",
"^  c #0B4D0C",
"/  c #144509",
"(  c #134B0C",
")  c #015101",
"_  c #005C01",
"`  c #00530B",
"'  c #005C0B",
"]  c #174D11",
"[  c #344A15",
"{  c #2C5218",
"}  c #37541D",
"|  c #006201",
" . c #006D00",
".. c #00610B",
"X. c #006B0E",
"o. c #007200",
"O. c #007B00",
"+. c #00750D",
"@. c #007B0C",
"#. c #0F7F08",
"$. c #007C12",
"%. c #21691E",
"&. c #3C7028",
"*. c #40561F",
"=. c #435822",
"-. c #444A48",
";. c #4B4D4C",
":. c #4C504F",
">. c #545151",
",. c #75484F",
"<. c #7A7D7C",
"1. c #8F051A",
"2. c #830A1C",
"3. c #8C0B1E",
"4. c #960217",
"5. c #900C1F",
"6. c #8F0C20",
"7. c #940C21",
"8. c #9B0D23",
"9. c #9E1025",
"0. c #A30E25",
"q. c #A41026",
"w. c #AA1027",
"e. c #AC1129",
"r. c #B4122B",
"t. c #BC142E",
"y. c #C1152F",
"u. c #C41630",
"i. c #80535A",
"p. c #008501",
"a. c #008A03",
"s. c #00850D",
"d. c #008C0C",
"f. c #009305",
"g. c #00960A",
"h. c #00990C",
"j. c #008212",
"k. c #008D12",
"l. c #058C18",
"z. c #168611",
"x. c #009412",
"c. c #009C13",
"v. c #009E1C",
"b. c #16931A",
"n. c #288917",
"m. c #00A20E",
"M. c #00A515",
"N. c #00A817",
"B. c #00A41C",
"V. c #00A91B",
"C. c #098421",
"Z. c #359825",
"A. c #389F2B",
"S. c #00A423",
"D. c #00AD24",
"F. c #00AF29",
"G. c #00B027",
"H. c #00B22A",
"J. c #00B532",
"K. c #01B936",
"L. c #0CB937",
"P. c #04BB38",
"I. c #14BB39",
"U. c #25A02C",
"Y. c #23AD2F",
"T. c #25AE30",
"R. c #2EAE32",
"E. c #2DB939",
"W. c #3CB136",
"Q. c #3ABA3C",
"!. c #43922C",
"~. c #46AC35",
"^. c #46B33A",
"/. c #53B63E",
"(. c #32C03F",
"). c #4ABA41",
"_. c #56B942",
"`. c #5ABA43",
"'. c #59BB45",
"]. c #37C241",
"[. c #3CC242",
"{. c #43C444",
"}. c #4AC546",
"|. c #4CC94A",
" X c #53C649",
".X c #54C94B",
"XX c #5DCA4D",
"oX c #5BD052",
"OX c #65C94E",
"+X c #64CD51",
"@X c #68D456",
"#X c #74D157",
"$X c #929494",
"%X c #A09697",
"&X c #AFB4B4",
"*X c #B4B5B5",
"=X c #BCBEBE",
"-X c #CAC0C1",
/* pixels */
"M.M.M.M.M.M.M.M.M.B.M.M.M.M.B.V.N.V.M.M.M.M.N.M.M.m.M.H.{.[.F.M.M.M.M.M.M.M.M.M.M.M.M.M.B.M.M.V.V.V.V.V.N.M.m.H.Q.E.D.F.E.Q.F.B.",
"M.M.M.M.M.B.M.M.M.M.M.M.M.M.M.V.D.D.V.M.M.V.D.D.V.M.V.K.|.].F.M.S.D.V.M.M.M.M.M.M.M.M.M.M.M.M.M.D.D.D.D.V.m.M.V.R.T.D.D.Y.R.D.V.",
"M.M.M.M.M.M.M.M.M.M.V.M.M.M.M.D.P.P.D.m.m.G.I.K.D.l.%.} =.} ] ] { [ ] ~ ~ Q Q ..l.M.M.M.M.M.M.D.K.{.{.K.D.M.M.c.x.x.c.c.x.k.c.M.",
"B.M.M.M.M.M.M.M.M.M.M.M.M.m.M.H.|.}.H.m.m.H.{.}.J.C.=.U U U y y U *.t 7 e 0 7 ( +.c.M.M.M.M.M.D.{.#X#X{.G.M.m.h.p.p.h.h.p.p.g.c.",
"M.M.M.M.M.M.B.M.M.M.N.M.M.m.M.H.|.}.H.m.c.F.}.'.!.*.I H J H H H H H G F G F c v ( $.c.M.M.m.M.F.{.#X#X{.D.M.m.M.g.g.h.M.g.g.M.M.",
"M.M.M.M.M.M.M.M.M.M.M.M.M.M.M.D.R.R.D.M.M.S.U.!.=.Y K 6.7.6.6.6.6.7.8.0.9.8.6.F 9 ` $.c.M.m.M.D.J.{.{.P.D.M.m.M.N.N.N.N.M.V.M.M.",
"M.M.M.M.M.M.M.M.M.M.M.M.N.M.M.c.k.k.c.N.N.g.| [ I K 6.6.6.6.6.D 6.6.e.t.t.r.e.7.V k ^ +.c.M.M.B.D.G.H.V.V.M.M.M.N.N.N.M.M.N.M.M.",
"M.M.M.M.B.M.M.M.M.M.M.M.M.N.N.h.p.p.h.N.c.X./ v K 6.N x x x h h x S 9.t.u.t.t.e.7.V 9 ^ $.c.M.M.M.m.M.M.M.M.M.M.M.M.M.M.M.M.M.M.",
"M.M.M.M.M.M.M.M.M.M.M.M.B.M.N.M.g.g.M.c.$.( P K 3.C s : - - : - - s S q.t.u.t.t.e.7.V L ~ +.c.M.M.M.M.M.M.V.M.M.M.M.B.M.M.M.M.M.",
"G.D.V.M.M.M.M.M.M.M.M.M.V.M.M.M.M.M.x.$.^ P S 3.C s +     . .     + a S 9.r.t.u.r.e.7.B 8 ` k.M.M.M.M.M.M.M.M.B.M.M.M.M.M.M.M.V.",
"(.P.D.m.M.M.M.M.M.M.M.M.M.M.M.M.M.c.+.] P K 3.Z s +                 + a C 9.r.u.u.r.0.A f e j.c.M.M.M.M.M.M.M.M.M.M.M.M.M.M.M.M.",
"(.L.D.M.M.M.M.M.M.B.M.M.M.M.M.M.c.l.` 9 K 8.2.s O                     + s 6.e.u.u.r.0.6.M 9 X.l.M.M.M.M.M.M.M.M.M.M.M.M.B.M.M.M.",
"G.G.V.M.M.M.M.M.M.M.M.M.M.M.M.M.c.$.r c 8.w.Z :                         : C q.u.u.t.0.7.Z z / ..M.M.M.M.M.B.M.M.M.M.M.M.M.M.M.M.",
"M.M.M.M.M.M.M.M.M.M.M.M.M.M.M.M.v.$.q C q.0.N : * %             & %     = M q.u.u.r.0.8.6.B 1 6 M.M.M.M.M.M.M.M.M.M.M.M.M.M.M.M.",
"M.m.M.M.M.M.M.M.M.M.M.M.M.M.M.M.c.$.q N w.0.m T >.:.*         * >.:.*   + M q.t.t.w.8.8.6.C s < M.M.M.M.M.M.M.B.M.M.M.M.M.M.B.M.",
"M.M.M.M.m.M.D.D.V.M.M.M.M.M.B.M.c.$.q N 0.4.m ,.%X$Xp         p $X$Xp   + M q.t.e.9.7.7.7.6.x d M.M.M.M.M.M.M.M.M.M.M.M.M.M.M.M.",
"M.M.M.m.M.D.K.I.G.M.m.M.m.N.M.M.c.$.q N 9.4.m ,.-X=X-.        ;.=X=X;.  O N 0.t.e.5.A 2.5.2.h f M.M.M.M.M.M.M.M.B.M.M.M.M.M.M.M.",
"M.M.M.V.G.K. X(.D.N.D.G.V.M.M.M.c.$.q N 9.1.m i.*X&X-.        ;.*X&X-.  O M q.y.e.2.M N 3.3.M f M.M.M.M.M.M.M.M.M.M.M.V.G.G.V.M.",
"M.m.M.D.K..X+X(.G.D.K.I.G.m.M.N.v.$.q N 7.1.M R $X<.u         u <.<.u   O M q.t.e.A h x 2.3.M f c.M.M.M.M.M.M.M.M.M.M.H.I.I.G.M.",
"M.M.m.V.R.`.OX|.K.J.W.R.D.M.m.M.c.$.q M 7.6.x v T p %         & p i &   : C q.t.w.2.h h A Z z 1 M.M.M.M.M.V.M.M.M.M.M.V.R.^.H.G.",
"M.M.M.c.g.!.`.oX.XQ.Z.k.c.M.N.N.v.$.q M 2.3.x : @                 @ . = h 3.q.e.0.2.g g M B 0 / N.M.M.M.M.M.M.B.M.N.N.h.k.Z.W.Q.",
"N.N.N.f.p.s.A././.!.d.p.g.N.N.M.c.j.r z A 6.M : .                   = g D q.w.w.8.Z d < k 9 ` +.V.M.M.M.M.M.M.M.M.N.N.f.p.l./.XX",
"M.N.N.M.h.d.d.n.n.l.f.g.M.M.N.M.M.k...r c A Z g =                 + a Z 8.w.w.5.2.n 7 Q 4 ` $.x.M.M.M.M.M.M.M.M.M.V.M.h.f.B.{.XX",
"M.M.M.N.N.h.p.O.O.p.c.N.N.M.M.M.M.v.j.' t n V M s =             = a C 6.8.8.5.K n t ' +.@.j.c.M.M.M.M.M.B.M.M.M.M.M.M.M.M.D.Y.W.",
"M.M.M.V.N.M.h.f.f.h.M.N.N.M.M.M.M.M.c.k.' r n C N s = . . . . = s C 3.3.2.A Z n t ' l.c.c.v.M.M.B.M.M.M.M.M.B.M.M.M.M.N.N.M.k.l.",
"M.M.M.M.M.M.N.M.m.M.M.M.M.N.M.M.M.M.M.c.@.Q l S 2.C g : : > > s N 6.8.3.Z M M l ! +.M.M.M.M.M.M.M.M.M.M.M.N.M.M.M.M.M.V.N.h.p.O.",
"M.M.M.M.M.N.N.N.M.M.M.M.N.M.M.M.M.M.M.v.+.6 l 2.8.7.2.N N N C D 7.0.0.3.Z C N l 6 +.c.M.M.M.M.M.M.M.M.M.M.M.M.M.M.M.M.V.M.M.h.f.",
"M.M.M.M.M.M.M.V.G.G.V.M.M.M.m.M.M.M.c.$.^ 9 V 5.e.r.q.8.8.7.8.q.e.r.0.7.2.2.2.V q ^ $.c.M.M.M.M.M.M.B.M.M.M.M.M.M.M.M.M.M.N.M.N.",
"M.M.M.M.B.M.m.G.I.I.G.M.M.m.m.M.c.c.+.^ L G 5.w.t.t.t.r.r.t.r.t.t.r.e.q.0.q.8.7.G L ^ +.x.N.M.M.M.B.N.M.M.M.B.M.M.M.M.M.M.M.N.N.",
"M.M.M.M.M.M.M.G.I.I.G.m.M.V.D.G.M.k.` 8 B 6.e.r.t.t.t.t.t.t.t.y.y.t.r.e.r.r.r.e.7.B 8 ` l.M.B.M.M.M.M.M.M.M.M.M.M.B.M.M.M.M.M.M.",
"M.B.M.M.M.M.M.V.G.G.V.m.m.G.I.I.S.$.r s A 8.t.t.u.y.t.u.u.t.u.t.t.t.t.t.t.t.t.r.0.A f r j.M.M.M.B.M.M.M.M.M.B.M.M.M.M.M.M.M.M.M.",
"M.M.M.M.M.M.M.M.M.m.M.m.M.G.I.I.S.$.q x 2.w.t.t.t.t.t.t.t.t.t.t.t.t.t.t.t.u.t.t.q.2.x q $.M.M.M.M.M.M.M.M.M.N.M.M.M.M.M.M.N.N.M.",
"M.M.M.N.M.M.M.M.M.M.M.M.M.V.G.D.v.$.q x 3.r.t.y.t.t.t.t.t.t.t.t.t.t.t.t.t.y.t.y.e.5.x 0 $.M.M.M.M.M.M.M.M.M.M.M.M.M.M.M.M.M.M.M.",
"M.M.M.m.M.M.M.M.M.M.M.M.M.M.M.M.M.$.0 c 5.t.y.t.t.t.t.t.t.t.t.t.t.t.t.t.t.t.t.y.t.8.N 0 X.x.M.M.M.M.c.M.M.M.M.M.m.M.M.M.M.M.M.M.",
"M.M.M.M.M.M.M.M.M.M.M.M.M.M.M.M.c.$.t m 8.y.u.t.t.t.t.t.t.t.t.t.t.t.t.t.t.t.t.y.t.e.D l ( +.c.M.M.M.M.M.M.M.M.M.M.M.M.M.M.M.M.V.",
"M.M.D.D.V.M.M.M.M.M.M.M.M.M.M.M.k.X.9 N q.y.u.t.t.t.t.t.t.t.t.t.t.t.t.t.t.t.t.y.t.r.7.M 8 ` l.c.M.V.D.D.V.M.m.V.G.G.V.M.M.M.M.M.",
"N.D.L.I.D.M.M.M.M.M.M.M.M.M.M.M.' ! l D e.y.y.t.t.t.t.r.r.r.r.t.t.t.t.t.t.t.t.t.y.t.8.Z f r $.c.M.D.P.I.D.m.M.D.I.I.G.m.M.M.M.M.",
"H.K..X{.H.M.m.M.M.M.M.M.M.M.M.M.e 8 B 7.r.y.y.t.t.t.t.t.e.e.r.y.y.t.t.t.t.t.t.y.t.r.0.2.h q $.c.M.G.{.{.G.M.V.H.^.R.D.M.M.M.M.M.",
"[.|.OX[.H.M.M.M.M.M.M.M.M.M.M.M.< f S 8.r.y.y.t.t.y.t.r.0.0.r.t.t.t.t.t.t.t.t.t.t.t.0.2.h q $.c.m.H.{.{.H.G.K.W.Z.k.c.N.N.M.M.M.",
"+XOX`.T.B.M.M.M.M.M.M.M.M.M.M.M.f h 2.0.r.t.y.t.t.t.t.w.8.5.w.t.y.t.t.t.t.t.t.y.t.t.0.2.g 0 j.c.M.H.{.].H.H.].`.b.p.f.M.V.M.M.M.",
"OX`.Z.d.c.N.N.M.M.M.M.M.M.M.M.M.f h 2.0.w.r.t.t.t.t.r.8.2.A 8.r.t.t.t.t.t.t.t.t.t.t.0.6.g t $.h.M.H.{.(.H.H.{.}.S.f.h.M.N.N.M.M.",
"~.A.s.p.f.N.N.M.B.M.M.M.M.M.M.V.f g 2.8.0.w.t.t.t.t.e.7.N N 5.e.t.t.t.t.t.t.t.t.t.r.0.A x 8 X.k.M.D.R.Y.D.S.Y.R.D.N.M.M.M.M.N.M.",
"z.d.d.h.M.N.M.M.M.M.M.M.M.M.M.G.f h 2.8.8.0.r.t.r.e.0.2.h h 2.0.e.r.t.t.r.r.r.t.r.e.8.6.C l / ..M.c.k.x.c.c.x.k.c.N.N.M.M.M.M.M.",
"p.p.h.V.N.M.M.M.M.M.M.B.B.M.m.G.l h 2.7.8.0.r.r.e.8.7.C s s Z 7.q.e.r.r.e.e.r.r.0.0.8.8.6.B 8 e N.h.p.p.h.h.p.p.h.N.N.M.M.M.M.M.",
"f.h.M.V.M.M.M.M.M.M.M.M.M.M.M.V.d h 2.7.8.8.w.e.0.7.2.h : : h 2.7.0.w.e.e.e.e.w.8.8.7.8.7.A z < M.m.g.h.M.h.h.g.M.N.M.V.M.M.M.M.",
"N.N.M.M.M.M.M.M.M.M.M.M.M.M.M.M.a h 6.7.7.7.8.0.0.3.N a + + : M 2.7.0.w.e.e.w.0.8.7.6.6.8.2.x s M.M.N.M.M.N.N.N.M.M.M.B.M.M.M.M.",
"N.N.V.M.M.M.M.M.M.B.M.M.M.M.M.M.s x 6.6.A A 7.0.8.3.M :     O > M D 7.8.w.w.0.8.8.6.Z 6.7.1.x g M.N.N.N.M.N.N.N.M.M.M.M.M.M.M.M.",
"M.M.M.B.M.M.M.M.M.M.M.M.M.M.M.M.1 z A 6.Z Z 1.8.8.A s =       + a C 6.0.w.0.7.7.8.6.M N 2.A j 1 V.M.M.M.M.M.M.M.M.M.M.M.M.M.B.M.",
"M.M.M.M.M.M.M.V.M.M.M.M.M.M.M.M./ 0 c Z C A 5.7.2.m : O       . : M 3.0.0.7.2.2.6.6.x h N B y { D.M.m.N.M.M.M.M.M.M.M.M.M.M.M.M.",
"M.M.M.M.M.M.M.M.M.M.B.M.M.M.M.B.+.' 0 b N 2.3.3.C s =     # # X - x A 8.7.S b n A A x a d y &.&.H.M.m.M.M.M.M.M.M.V.M.M.M.M.M.M.",
"M.M.M.M.M.M.M.M.M.M.M.M.M.M.M.M.x.k.' t c Z A C c : .   2 ~ W 2 ; g V D A b t t b C x > 7 X.~.).H.M.M.M.M.M.M.N.M.M.M.M.M.M.M.m.",
"M.M.M.M.M.M.M.M.M.M.M.M.B.M.M.M.M.c.s.` 8 v b k > = . 2 ..@.@.' 7 < s h h q ' ..r l < 7 ` C.R.R.D.m.M.M.M.M.M.M.M.M.M.M.M.M.D.D.",
"M.M.M.M.M.M.M.M.M.M.M.M.V.M.M.M.M.M.c.s.` / w , = + $ 5 |  . ._ 4 7 - - - , ) _ / 6 6 ~ @.x.k.x.c.M.N.M.M.M.M.m.M.M.M.M.m.D.K.E.",
"M.M.D.D.V.M.M.M.M.M.M.M.M.M.M.M.M.M.c.g.O.| ) 4 o o 2 _  .o.o. ._ 4 o . O 3 _  ._ ) |  .d.f.p.a.h.N.N.M.M.M.M.V.V.D.M.M.V.J.{.XX",
"M.D.L.I.G.M.M.M.M.M.M.M.M.M.M.M.M.c.a.O.O.o. .E # X E o.o.o.o.o. .W #   # E | o. . .o.o.O.a.g.M.M.M.N.M.M.M.M.G.I.K.D.V.J.}.XX+X",
"H.P..X{.H.m.m.N.M.M.M.M.M.V.D.D.x.a.O.o. .o.o.W X X W o.o.o.o.o.o.W #   2 _  .o.o.o. . .o.O.p.c.M.M.M.M.M.M.m.H.|.}.J.J.[.+X@X+X",
"[. X+X{.H.m.m.M.M.M.M.M.M.G.I.I.O.O.o.o.o.o.o.W # # W o.o.o.o.o.o.) # X E  .o.o.o. . . .o.o.O.p.c.M.M.M.M.M.M.H.[.XX X)..X+X+X+X",
"+XOX`.T.B.M.M.M.M.M.M.M.M.D.I.I.p.O.o.o.o.o.o.W $ $ ) o.o.o.o.o.o.) $ $ ) o. .o.o.o. .o.o.o.O.p.c.M.M.M.M.m.m.B.Y._.+X@X+X.X).^.",
"OX`.Z.d.c.N.N.M.M.M.M.M.M.V.D.G.x.a.O.o.o.o.o._ 5 5 _  .o.o.o.o.o._ 5 5 _ o.o.o.o.o. . .o.O.a.c.M.M.M.M.M.N.M.g.d.Z.`.@X@X/.Z.n.",
"~.A.d.p.f.N.N.M.M.M.M.M.M.M.M.M.M.c.a.O.O.O.o.| W E | o.o.o.o.o.o.| E W | o.o.o.o.o.O.O.O.a.c.M.N.M.N.M.M.V.H.B.p.a.A././.A.z.o.",
"z.k.d.f.M.M.M.M.M.M.M.M.M.M.m.M.M.M.c.g.c.a.O.o.o.o.o.o.o.o.o.o.o.o.o.o.o.o.o.o.o.O.f.f.f.h.M.N.M.M.M.M.M.G.I.L.B.p.p.n.n.#.o. .",
"O.p.h.V.V.M.M.M.M.M.M.M.M.M.M.M.M.M.M.M.M.x.p.o.o.o.o.O.O.o.o.o.o.O.o.o.o.o.o.o.o.p.x.c.c.M.M.M.M.M.M.M.M.D.R.Q.J.B.p.O.O.O.O.O.",
"f.g.M.V.V.M.M.M.M.B.M.M.M.M.M.M.M.M.M.M.M.M.M.M.M.M.M.M.M.M.M.M.M.M.M.M.M.N.N.N.M.M.M.M.M.M.M.M.M.M.M.M.M.c.k.A.Q.J.M.f.a.f.g.g.",
"M.M.M.N.V.M.M.M.M.M.M.M.M.M.M.M.M.M.M.M.M.M.M.M.M.M.M.M.M.M.M.M.M.M.M.M.M.M.N.N.M.M.M.M.M.M.M.M.M.N.M.N.M.g.p.n.^.].G.m.h.c.M.M."
};
