/* XPM */
static char *result[] = {
/* columns rows colors chars-per-pixel */
"64 64 191 2 ",
"   c #000000",
".  c #040800",
"X  c #1D0106",
"o  c #150E02",
"O  c #001501",
"+  c #001A01",
"@  c #1A1301",
"#  c #30020E",
"$  c #281E00",
"%  c #340310",
"&  c #3C0614",
"*  c #002401",
"=  c #002B01",
"-  c #003408",
";  c #1F3806",
":  c #2F2404",
">  c #322806",
",  c #430716",
"<  c #770D2E",
"1  c #004B05",
"2  c #004A07",
"3  c #005A07",
"4  c #006808",
"5  c #007300",
"6  c #007C00",
"7  c #0E7D06",
"8  c #00730B",
"9  c #007B0D",
"0  c #157D07",
"q  c #1D442A",
"w  c #34533B",
"e  c #51410F",
"r  c #534210",
"t  c #5E4C13",
"y  c #66510E",
"u  c #414542",
"i  c #8F1338",
"p  c #81681E",
"a  c #8C7114",
"s  c #947923",
"d  c #997C24",
"f  c #8A7B31",
"g  c #BF294F",
"h  c #C21E4F",
"j  c #C61F51",
"k  c #D82259",
"l  c #E1235C",
"z  c #F42866",
"x  c #FF2C6F",
"c  c #FE346C",
"v  c #FF2572",
"b  c #FF2D72",
"n  c #FF3176",
"m  c #FF3872",
"M  c #FF3179",
"N  c #987047",
"B  c #A9654E",
"V  c #B37254",
"C  c #D64E5C",
"Z  c #D84D5D",
"A  c #D2515B",
"S  c #C67849",
"D  c #ED6954",
"F  c #DE4860",
"G  c #E54462",
"H  c #E94364",
"J  c #F34663",
"K  c #FF4167",
"L  c #FB4D62",
"P  c #008501",
"I  c #008B01",
"U  c #00850E",
"Y  c #008B0D",
"T  c #009305",
"R  c #00960A",
"E  c #00990B",
"W  c #008C12",
"Q  c #038A17",
"!  c #168D16",
"~  c #009C13",
"^  c #009619",
"/  c #278916",
"(  c #00A20E",
")  c #00A515",
"_  c #00A817",
"`  c #00A41C",
"'  c #00A91B",
"]  c #008A26",
"[  c #009920",
"{  c #009D3A",
"}  c #2D9823",
"|  c #2B942A",
" . c #369925",
".. c #399E2A",
"X. c #04A325",
"o. c #00AD24",
"O. c #00AD2A",
"+. c #1BAC2E",
"@. c #00B026",
"#. c #00B22B",
"$. c #00AD31",
"%. c #00B632",
"&. c #01B936",
"*. c #09B738",
"=. c #05BA38",
"-. c #14BB39",
";. c #1DBB39",
":. c #23AD2F",
">. c #25AE30",
",. c #2EAE32",
"<. c #3BA130",
"1. c #2DBA3A",
"2. c #3BB73B",
"3. c #458F2E",
"4. c #49922E",
"5. c #5E8735",
"6. c #598A34",
"7. c #7D8122",
"8. c #658537",
"9. c #688638",
"0. c #7A8A36",
"q. c #46AC35",
"w. c #47B43B",
"e. c #53B63E",
"r. c #32C03F",
"t. c #00B548",
"y. c #15B851",
"u. c #2EAE53",
"i. c #2CBB59",
"p. c #3BB75A",
"a. c #3CBE61",
"s. c #49BB41",
"d. c #56B640",
"f. c #55B942",
"g. c #5ABA43",
"h. c #45B45A",
"j. c #6BAF52",
"k. c #40BE61",
"l. c #65B770",
"z. c #37C241",
"x. c #3CC242",
"c. c #44C444",
"v. c #49C546",
"b. c #4DC648",
"n. c #4AC949",
"m. c #53C649",
"M. c #55C74A",
"N. c #5DCA4D",
"B. c #5BD052",
"V. c #65C94E",
"C. c #64CD51",
"Z. c #65D355",
"A. c #6AD456",
"S. c #74D157",
"D. c #52C26D",
"F. c #65C97A",
"G. c #9E8126",
"H. c #909E26",
"J. c #819532",
"K. c #A38528",
"L. c #B5932D",
"P. c #B8942E",
"I. c #AA9437",
"U. c #B79634",
"Y. c #BEAD2B",
"T. c #BAA032",
"R. c #D3923E",
"E. c #C2AB2D",
"W. c #C5A332",
"Q. c #CBA634",
"!. c #CCA933",
"~. c #D2AC36",
"^. c #CBB130",
"/. c #D5B136",
"(. c #DDB439",
"). c #E6BC3D",
"_. c #819447",
"`. c #8DA551",
"'. c #D98844",
"]. c #9AB99C",
"[. c #8AD497",
"{. c #95D59E",
"}. c #9BD9A5",
"|. c #ABC9AB",
" X c #C9EBCD",
".X c #CEEDD2",
"XX c #D1EAD2",
"oX c #DBF1DE",
"OX c #DFF2E1",
"+X c #E4F4E5",
"@X c #FDFEFC",
/* pixels */
") ) ) ) ) ) ) ` ) ) ) ) ` ) ) _ ) _ ) ) ) _ _ _ ) ) ) #.c.r.@.) ) _ _ ) ) ) ) ) ) ) ) ) ) ) ) ) _ _ ' _ _ ) ) @.2.1.o.o.1.2.#.' ",
") ) ) ) ) ) ) ) ) ) ) ) _ ) ) ' o.o.' ) ) ' @.' _ ) ' %.b.r.o.) ' o._ ) ) ) ) ) ` ) ) ) ) ) ) _ o.#.O.o._ ( ( o.,.>.X.o.:.,.o.) ",
") ) ) ) ` ) ) ) ) ` ) ) ) ) ) o.=.=.@.( ) @.-.&.o.' &.m.V.1.@.' &.-.@.) ) ) ) ) ) ) ) ` ) ) ) o.%.c.v.&.@._ ) ~ W W ~ ) W W ~ ` ",
"` ) ) ) ) ) ) ) ) ) ) ) ) ) ) #.n.n.#.E E #.c.v.&.#.x.Z.Z.c.%.&.b.v.#.( ) ) ) ) ) ) ) ) ` ) ) @.c.S.S.c.@.( ) E P I E E P P E ) ",
") ) ) ) ) ) ` ) ) ) ) ) ) ( ( #.n.v.#.( ( #.x.V.b.c.M.C.C.M.c.b.N.c.@.) ) ) ) ) ) ) ) ) ) ( ) #.c.S.S.c.o.) ( ~ R E ~ ) R R ~ ) ",
") ) ) ) ) ) ) ) ) ) ) ) ) ) ) o.,.,.o.) ) X.:.g.V.Z.C.N.s.f.N.V.g.:.` ) ( ) ) ) ) ) ) ) ) ) ) o.%.c.c.&.o.) ) _ _ _ ) ) ) _ ) ) ",
") ) ) ) ) ) ) ) ) ) ) ) ) _ _ ~ W W ~ _ _ E Y  .g.A.A.w.}  .f.g...W ~ ) _ ) ) ) ) ) ) ) ) ) ) ' o.@.#.' _ ) ) ) _ _ _ _ _ _ _ ) ",
") ) ) ) ` ) ) ) ) ) ) ) ) _ _ E P P E _ _ R P W ..e.d. .7 0 ..<.W P E _ _ ) ) ) ) ) ) ) ) ) ) ) ) ( ) ) ) ) ) ) ) ) ) ) ) ) ) ) ",
") ) ) ) ) ) ) ) ` ) ) ) ) _ .     * 9 ) _ ) R I U / / 7 4 5 0 W Y E ( _ ` ) ) ) ) ` ) ) ) ) ) ) ) ( ) ) ) ) ) ) ) ) ) ) ) ` ) ) ",
"@.o.' ) ) ) ) ) ) ) ) ) ` )       + U ) ) ) _ ~ P 6 6 6 6 6 6 P E ' _ ) ) ) ) ) ) ) ) ) ) ) ) ) ) ) ) ` ) _ ` ) ) ) ) ) ) ) ) ) ",
"r.=.o.( ) ) ) ) ) ) ) ) ) )       + 9 ) ) _ _ ) R T T T E R R E ) _ _ ) ) ) ) ) ) ) ) ) ) ) ) ) ) ) ) ) ) ) ) ) ) ) ) ) ) ) ) ) ",
"r.=.o.) ) ) ) ) ) ) ` ) ) ) = * = - 3 8 9 U ) ) ) ) _ _ _ ) _ _ ) ) ) ) ) ) ) ) ) ` ) ) ) ) ) ) ) ) ) ) ) ) ) ) ) ) ) ) ) ) ` ) ",
"@.o.' ) ) ) ) ) ) ) ) ) ) ` 9 9 9 4 - + * 2 Y _ _ _ ' _ _ _ ' ) _ ) ) ) ) ) ) ) ) ) ) ) ) ) ) ) ) ` ) ) ) ) ) ) ) ) ) ) ) ) ` ) ",
") ) ) ) ) ) ) ) ) ) ) ) ) ) ) ) ) W 2 .   . 1 8 9 9 9 W ) ) ) ) ) ) ) ) ) ) ) ) ) ) ) ) ) ) ) ) ) ) ) ) ) ) ) ` ) ) ) ) ) ) ) ) ",
"( ) ) ) ) ) ) ) ) ) ) ) ) ) ) ) ) ~ U 2 .   . * * * * 2 W ) ) ) ) ) ) ) ) ) ( ) ` ) ) ) ) ) ) ) ) ) ) ) ` ) ) ) ) ` ) ) ) ) ) ) ",
") ) ) ) ( ) o.o.' ) ) ) ) ) ) ` ) ) ` ^ 2 * * .       O 3 9 9 9 9 W ) ) o.o._ ) _ ) ) _ o.o._ ) ) ) ) ) ) ) ) ) ) ) ) ) ) ) ) ) ",
") ) ) ( ) o.&.-.o.) ( ) ) ) ) ) ) ) ) ` ^ 8 8 1 .       O * * * * 2 W %.=.*.@.) ) ) ) @.*.*.@.) ) ) ) ) ) ) ) _ ) ) ) ) ) ) ) ) ",
") ) ) _ @.&.m.r.@._ @.@.' ( ) ) ) ) ) ) ` ` ) Y 2 +               O 3 ] s.v.#.( ( ( ( #.n.b.#.) ) ) ) ) ) ) ) ` ) ) ) ' @.@._ ) ",
") ) ( o.=.M.V.r.o.o.&.;.@.) ( ) ) ) ) ) ) ) ) ) W 3 +               O 2 <.n.#.) ( ( ) #.v.c.#.) ( ) ) ) ` ) ) ) ) ) ) #.-.-.@.) ",
") ) ) ' ,.g.V.n.&.O.2.,.o.) ) ) ) o.t.y.$.) ) ) ) U =                 * ! ,.o.) ( _ ) &.l.V.#.( ) ` ) ) ) ) ) ) ) ) ) ' ,.2.#.#.",
") _ ) ~ R 3.e.B.b.2.} W ~ ) ) ) ) y.}.}.i.) ) ` ) Q =                 + 4 Y ~ ) _ _ _ h.|.|.u.' ) ) ) ) ) ) ) ) ) _ _ E W  .2.2.",
"_ ) _ R P W ..e.e.q.U P R _ ' $.i.}.+XXXa.) ) ) W 3 O                 + 2 4 4 W _ _ _ h.XX+X{.F._ ) ) ) ) ) ` ) ) _ _ R P Q w.V.",
") ) _ ) E I Y / / Q T R ) ) O.y.}.+X@XXXa.) ) W 2 +                     O * * 2 W _ _ p.XX@X+X X_ ) ) ) ) ) ) ) ) ) ) E T ` s.N.",
") ) ) _ _ ~ P 6 5 P ~ _ _ ) O.y.}.+X@X+X[.u.] 3 O       @ > > > > > > @       O 3 ] u.[.+X@XOX X) ) ) ) ` ) ) ) ) ) ) ) ) o.:.w.",
") ) ) _ _ ) E T I E ) _ _ ) ' $.i.[.OX@XoX].w O       @ y G.G.s s K.d y @       O w ].OX@XOX[.F.` ) ) ) ) ) ) ) ) ) ) _ _ ) W Q ",
") ) ) ) ) ) _ ) ) ) ) ) ) ) ) ) ) t.{. XXX|.u   @ > > t L.(.(.Q.Q.(.(.L.t > > @ . u |..X X[.t.` ) ) ) ) ) _ ` ) ) ) ) _ _ ~ P 6 ",
") ) ) ) ) _ _ _ _ _ ) ) ) ) ) ) ) ' t.a.D.l.w @ t d G.K.Q.(.(.~.~.(.(.Q.K.d d y X u l.k.a.t.o.) ) ) ` ) ) ) ) ) ) ) ) ' ) ) E T ",
"` ) ) ) ) ) ) _ o.@.' ) ) ) ) ( ) ) ) ) ~ { q $ a (.).U.G.G.U.!.!.P.d K.U.(.(.a : q { ) ) ) ) ) ) ) ) ) ) ) ) ) ) ) ) ) ) ) ) ' ",
") ) ) ) ) ) ) @.-.-.@._ ) ( ) ) ) ) ) ) ) Q - : s ).).K.r r G././.G.e r K.).).d : - ] ) ) ) ` ) ) ` _ ) ) ) ) ` ) ) ) ) ) ) _ _ ",
") ) ) ) ) ) ) o.-.-.@.( ( ' o.@._ ) ) ) ) U 2 ; s (.).s o o p (.(.p o o p ).(.s ; 2 U ) ) ) ) ) ) ) ) ) ) ) ) ) ) ) ) ) ) ) ) ) ",
") ) ` ) ) ) ) ' @.o.' ( ( @.;.-.@.) ( ) ) ^ W 4 7.(.(.y o o y ).(.p o o p (.(.7.8 U ^ ) ) ) ) ) ) ` ) ) ` ) ) ) ` ) ) ) _ ) ) ) ",
") ) _ ) ) ) ) ) ) ) ) ( _ @.-.-.@.) ) ) ) ) ) W 7.^./.G.r r K.(./.G.e e G./.^.7.W ) ) _ ` ) ) ) ) ) ) ) ) ) ) ) _ ) ) ) _ ) ) ) ",
") ) ) ) ) ) ) ) ) ) ) ) ) _ @.o.' ) ) ` ) ) ` ` H.!.Q.P.G.K.P.Q.!.L.K.K.P.!.^.H.~ _ _ ) ) ) ) _ ) ) ) ) ) ) ) ) ) ) ) ) ) ) ) ) ",
") ) ) ( ) ) ) ) ) ) ) ) ) ) ) ) ) ) ) ) ) ) ) X.J.I.T.E.!.Q.Q.W.W.Q.Q.E.E.U.I.J.X.) ) ) ) ) ) ) ` ) ~ ) ) ) ) ) ) ) ) ) ) ) ) ) ",
") ) ) ) ) ) ) ) ) ) ) ) ) ) ) ) ) ) ) ) ` ) ) ^ | 0.I.^.^.!.!.W.W.Q.~.^.!.I.0.| X.) ) ) ` ) ) ) ) ) ) ) ) ) ) ) ) ) ) ) ) ) ) ) ",
") ) o.@._ ) ) ) ) ) ) ) ) ) ) ) ) ) ) ) ) ) ) ) | f S R.E.E.Y.E.Y.Y.E.W.'.S f | ` ) ) ) ) ) ) ) ) ' o.o._ ) ( _ @.@._ ) ) ) ) ) ",
"_ o.*.-.@.) ) ) ) ) ) ) ) ) ) ) ) ) ) ) ) ` ) | B F J D R.Y.Y.E.Y.Y.Y.R.D J F B | ` ) ) ) ) ) ) ) o.=.-.o.( ) @.-.-.@.) ) ) ) ) ",
"#.&.b.n.#.( ( ) ) ) ` ) ) ) ) ) ) ) ) ) ) [ 3.N H v v m D '.'.'.'.'.'.D K b v G N 4.^ ) ) ) ) ( ) @.c.c.@.) ' #.w.,.' ) ) ) ) ) ",
"x.m.V.c.#.) ) ) ) ) ) ) ) ) ) ) ) ) ) ) ) 3.B H x b v n c L L L L L L K x v v b H B 3.) ) ) ) ) ) #.v.c.#.o.%.w. .W ~ ) _ ` ) ) ",
"C.V.f.:.` ) ) ` ) ) ) ) ) ) ) ) ) ) ) ) ) 8.Z x x x x x b v b v v v v b x x x b b F 8.) ) ) ) ( ( #.c.r.#.#.x.f.! P R _ _ ) ) ) ",
"V.g. .Y ~ ) _ ) ) ) ` ) ) ) ) ) ) ) ) ) ) 8.G c x x x b v v v v v v v v b x x x x G 8.) ) ) ) ) ) #.c.z.#.O.x.v.o.R E _ _ ) ) ) ",
"q...Y P R ) _ ) ) ) ) ) ) ) ) _ o.o._ ) ) 8.C x x x x x x b b b b x x x x x x x x C 5.) ) ) ) ) ) o.,.:.o.o.:.,.o.) ) ) ) ) ) ) ",
"! U I E ) _ ) ) ) ) ) ) ) ) ) @.;.-.@.( ) 5.C b x x x b x x b b x b x x x x x x b Z 5.) ) ) ) _ ) ~ W W ~ ~ R Q ~ _ _ ) ) ) ) ) ",
"6 I ~ _ ) ) ) ) ) ` ) ) ) ) ) o.;.;.o.) E 5.C x x x x b x z k k x n b x x x x x x Z 5.) ) ) ) ) ) E P P E E P P E ) _ ) ) ) ) ) ",
"R E ) ' _ ) ) ) _ ) ) ) ) ) ) _ o.@.' ) ) 6.C x x x x b b j < < k b b b x x x x x Z 5.` ) ) ) ) _ ) R R ) ~ R R ) _ _ ` ) ) ) ) ",
"_ ) ) ) ) ) ) ) ` ) ) ) ) ) ) ) ) ) ) _ o.9.C x x x x M M h % X i k x x b x x x x Z 8.) ) ) ) ( ) ) _ ) _ ) _ _ ) ) ) ) ) ` ) _ ",
"_ _ _ ) ` ) ) ) ) ) ) ) ) ) ) ) ( ( ( @.-._.Z x x x x M M j %   X < l b b x x x x C 5.) ) ) ) ) ) ) _ _ ) _ _ _ ) ) ) ) ) ` ) ) ",
") ) ) ) ) ) ) ) ) ) ) ) ) ) ) _ ) ( _ #.v.`.Z x x b b b l i %     & k M M b x b x C 4.) ) _ o.o._ ) ) ) ) ) ) ) ) ) ) ) ) ) ) ) ",
") ) ) ) ) ) ) ` _ ) ) ) ) ) ) ) ) ) ( O.b.`.Z x x b b k < %       & j M M x x x x C 6.) ) #.=.=.@.) ) ) ) ) ) ) ) ) ) ) ) ) ) ) ",
") ) ) ) ) ) ) ) ) ) ) ) ) ` ) ) ) ) ) O.j.V H x x n n j &         % i l x b b x x F N 3.^ #.v.v.#.) ( ) _ ) ) ) ) ) ) ) ) ) ) ) ",
") ) ` ) ) ) ) ) ) ) ) ) ) ) ) ) ) ) ` 4.B H c x x n b h %           # < k b b b x c G B 3.#.n.v.#.( ( ) ) ) ) ) ) ) ) ) ) ) ) ) ",
") ) ) ) ) ) ) ) ) ) ) ` ) _ ` ) ) ) ) 9.J x x x x n n j ,             & j b n x x x x G 8.o.,.,.o.) ) ) ) ) ) ) ) ) ) ) ) ) o.o.",
") ) ) ) ) ) ) ) ) ) ) ) ) ) ) ) ) ) ) 8.H x b b x n b j ,             % h b M x x x x G 9.~ W W ~ _ _ ) ) ) ) ) ( _ _ ( ( o.&.1.",
") ) o.o._ ) ) ) ) ) ) ) ) ) ) ) ) ) ) 5.A c c c c m m g ,     .   . . , g m m c c c c A 6.E P P E _ _ ) ) ) ) _ @.o._ ( ' %.v.M.",
") o.-.-.o.) ( ) ) ) ) ) ) ) ) ) ) ) ) ) ) ) ) ` ) ) ) ) _ ) ) ) ) _ ) ~ W  .w.&.@.) ( ) _ ~ R R ) ) ) ) ) ) ) @.-.%.o._ &.b.N.C.",
"#.&.n.v.#.) ( _ ) ) ) ) ) ' o.o._ ) ) ) ) ) ) ) ) ) ) ) ) ) ) ) ) _ ) R I ! f.n.#.( ) ) ) ) _ ' ) ) ) ) ) ) ( #.n.v.%.@.p.C.C.Z.",
"x.m.C.v.@.) ) ) ) ` ) ) ) o.-.-.@.) ( ) ) ) ) ) ) ) ) ` ` ) ) ) ) ) _ E T X.v.c.#.) ( ) ) ) _ _ _ ) ) ) ) ) ) #.x.N.m.c.m.C.C.N.",
"C.V.f.:.` ) ) ) ) ) ) ) ) o.-.-.@.) ) ) ) ) ) ) ) ) ) ) ) ) ) ) ) ) ) ) _ o.,.,.o.) ) ) ) ) ) ) ) ) ) ) ) ( ( ` +.g.C.Z.C.N.f.w.",
"V.g. .Y ~ ) _ ) ) ) _ ) ) _ @.o.' ) ) ) ) ) ) ) ) ` _ ) ) ) ` ) ) ) ) _ _ ~ W Y ~ ) _ ) ) ) ) ) ) ) ) ) ) _ ) E Y  .g.A.A.s.} / ",
"q...U P R ) _ ) ) ) ) ) ) ) ) ) ) ) ) ) ) ) ) ) ) ) ) ) ) ) ) ) ) ) ) _ _ E P I ~ _ _ ) ) ) ) ) ) ) ) ) _ ' #.` I P ..e.d...0 5 ",
"! U I E ) ) ) ) ) ) ) ) ) ) ) ) ) ) ) ` ) ` ) ) ) ) ) ) ) ) ) ) ) ) ) _ _ ) R R ~ _ _ ) ) ) ) ) ) ) ) ) ) O.-.*.` I P / / 7 5 4 ",
"6 P ~ _ _ ) ) ) ) ) ) ) ) ) ) ) ) ) ) ) ) ) ) ) ) ) ) ` ` ) ) ) ) ) ) ) ) ) _ ) _ ) ) ) ) ` ) ) ) ) ) ) ) o.,.2.%.` I 5 6 6 6 P ",
"T E ) _ ' ) ) ) ) ` ) ) ) ) ) ) _ ) ) ` ) ) ) ) ) ) ) ) ) ) ) ) ) ) ) ) ) _ _ _ _ ) ) ) ) ) ) ) ) ) ) _ ) ~ W ..2.&.) T I R R E ",
"~ ) ) _ _ ) ) ) ) ) ) ) ) ) ) ) ) ) ) ) ) ) ) ` ) _ ) ) ) ) ) ` ) ) ) ) ) ) ) _ ) ) ) ` ) ) ) ) ) ) ) _ ) R P / e.1.@.( E ~ ) ~ "
};
