/* XPM */
static char *result[] = {
/* columns rows colors chars-per-pixel */
"64 64 194 2 ",
"   c #000100",
".  c #000803",
"X  c #150E02",
"o  c #001C01",
"O  c #051109",
"+  c #1A1301",
"@  c #03021B",
"#  c #281E00",
"$  c #002101",
"%  c #002D02",
"&  c #003603",
"*  c #2B2304",
"=  c #322806",
"-  c #06032B",
";  c #090436",
":  c #252E2B",
">  c #004700",
",  c #004E06",
"<  c #1C4A09",
"1  c #005406",
"2  c #005B06",
"3  c #006506",
"4  c #006C0A",
"5  c #007300",
"6  c #007C00",
"7  c #0E7D06",
"8  c #00730B",
"9  c #157D07",
"0  c #16691B",
"q  c #007A1C",
"w  c #3D463F",
"e  c #007728",
"r  c #51410F",
"t  c #534210",
"y  c #5E4C13",
"u  c #66510E",
"i  c #3A3F40",
"p  c #180D68",
"a  c #1C1174",
"s  c #424243",
"d  c #487C59",
"f  c #5A6E6B",
"g  c #557566",
"h  c #587169",
"j  c #5E6B70",
"k  c #73796A",
"l  c #81681E",
"z  c #8C7114",
"x  c #8E7B23",
"c  c #937824",
"v  c #997C24",
"b  c #008501",
"n  c #008B01",
"m  c #00860D",
"M  c #008B0C",
"N  c #1C800D",
"B  c #009305",
"V  c #00960A",
"C  c #00990B",
"Z  c #008D13",
"A  c #0A8C15",
"S  c #168D16",
"D  c #009011",
"F  c #009C13",
"G  c #278916",
"H  c #00A20E",
"J  c #00A515",
"K  c #00A817",
"L  c #00A41C",
"P  c #00A91B",
"I  c #009327",
"U  c #049835",
"Y  c #2D9025",
"T  c #369925",
"R  c #399E2A",
"E  c #00A927",
"W  c #00AD24",
"Q  c #00B026",
"!  c #00B22B",
"~  c #00B533",
"^  c #01B936",
"/  c #09B738",
"(  c #05BA38",
")  c #14BB39",
"_  c #1DBB39",
"`  c #23AD2F",
"'  c #25AE30",
"]  c #2EAE32",
"[  c #3CA632",
"{  c #2DBA3A",
"}  c #3BB73B",
"|  c #439B2E",
" . c #46AC35",
".. c #47B43B",
"X. c #53B63E",
"o. c #32C03F",
"O. c #35864C",
"+. c #329750",
"@. c #00B345",
"#. c #32B84D",
"$. c #4BBC41",
"%. c #56B640",
"&. c #55B942",
"*. c #5ABA43",
"=. c #778B72",
"-. c #68B375",
";. c #37C241",
":. c #3CC242",
">. c #44C444",
",. c #49C546",
"<. c #4DC648",
"1. c #4AC949",
"2. c #53C649",
"3. c #55C74A",
"4. c #5DCA4D",
"5. c #5BD052",
"6. c #65C94E",
"7. c #64CD51",
"8. c #65D355",
"9. c #6AD456",
"0. c #74D157",
"q. c #4FC26B",
"w. c #50C26B",
"e. c #65C678",
"r. c #A28C17",
"t. c #9E8126",
"y. c #9F8128",
"u. c #A38528",
"i. c #B59C24",
"p. c #B5942E",
"a. c #BD9930",
"s. c #D2AD17",
"d. c #D1AC1C",
"f. c #CEA924",
"g. c #CBA729",
"h. c #D2AC27",
"j. c #DBB328",
"k. c #C5A133",
"l. c #CBA635",
"z. c #CDA833",
"x. c #D1AC36",
"c. c #D6B037",
"v. c #D8B133",
"b. c #DDB439",
"n. c #E6BC3D",
"m. c #948D51",
"M. c #B1904F",
"N. c #AE8D58",
"B. c #B59252",
"V. c #A88766",
"C. c #84CA7E",
"Z. c #211482",
"A. c #2E1EAD",
"S. c #311FB2",
"D. c #3A20A9",
"F. c #3221B9",
"G. c #755496",
"H. c #6F46A3",
"J. c #7546A7",
"K. c #684EBC",
"L. c #3523C4",
"P. c #3C28D7",
"I. c #3A25F4",
"U. c #3D29F1",
"Y. c #6C36C6",
"T. c #6632CF",
"R. c #6A35C9",
"E. c #653FCA",
"W. c #6231D3",
"Q. c #412BE5",
"!. c #4E2DE4",
"~. c #422CEB",
"^. c #5531EE",
"/. c #452EF4",
"(. c #4730FA",
"). c #4831FE",
"_. c #5840D0",
"`. c #654CC0",
"'. c #8C6B8E",
"]. c #76CB85",
"[. c #7ED08E",
"{. c #94B89E",
"}. c #B7BEB6",
"|. c #8ACF8F",
" X c #82D08F",
".X c #9FDAA8",
"XX c #A6DEAE",
"oX c #C2C6C6",
"OX c #C8EACD",
"+X c #CFEDD3",
"@X c #D3EED7",
"#X c #D9EEDA",
"$X c #F4FAF4",
"%X c #FCFEFC",
/* pixels */
"J J J J L J J J J J L J J J J P P J K J J J K K J H J ! >.o.Q J J K K J J J J J J J J J J J J J P P P J K H J Q } { W E { } ! P ",
"J J J J J J J J J J J J J J J P W W P J J P Q P J J P ^ ,.o.W K P W P H J J K J L J J J J J J P W Q ! W K J J P ] ' W E ' ] W P ",
"J J J J J J J J L J J J J J J Q ( ( W H J Q ) ^ W P ^ 2.6.{ W P / ) Q J J J J J J J J J J J J W ~ >.>.^ W J J F D D J F Z Z F J ",
"L J J J J J J L J J J J J H J ! 1.,.! H C ! >.1.^ ! :.8.8.>.^ ~ ,.,.Q J J J J J J J J J J J J Q >.0.0.>.Q H J C b b C C b b C F ",
"J J J J J J J J J J J J J H J ! ,.,.! H C Q :.6.<.>.3.7.7.3.:.2.4.>.! J H J J J J J J L J H J ! >.0.0.>.W J H J V C C J V V F J ",
"J J J J J J J J L J J J J J K P ] ] W J J E ' *.6.8.8.3.$.&.6.6.*.` L J J J J J J J J J J J J W / >.>.^ W J H J K K K J J P K J ",
"J J J J J J J J J J J J J K K F Z Z F K K C M T *.9.9...Y T &.3.R M C J K J J J J J J J J J J P P Q Q P P J J J K K K K K K J J ",
"J J J J J L J J J J J J J J K C b b C K P C b m R %.%.T 7 9 T [ Z b V K P J J J J J J J J J J J J J J J J J J J J J J J J J J J ",
"J J J J J J J J J J J L P J       . 2 K K J V B m G G 9 5 5 9 Z M C J J P J J J J J J J J J J J J H J J J J J J J J J J L J J J ",
"! W J J J J J J J J J J J J         2 J J K P C b 6 6 6 6 6 6 b C P K J J J J J J J J J J J J J J J J J J J J J J J J J J J J J ",
"o.( W J J J J J J J J J J J         2 J J J P J V n B V V V B C J P K J J J J J J J J J J J J J J J J J J J J J J J J J J J J L ",
"o.( W J J J J J L J J J J J .   . . & , 1 8 F K J P P J J J P J J J J J J J J J J J J L J J J J J J J J P L L J J J J J J J J J ",
"Q W P J J J J J J J J J J J 2 2 2 & .     o 8 K K P P K J P P K J J J J J J J J J J J J J J J J J J J J J J J J J J J J J L J J ",
"J J J J J J J H J J J J J J J J J 4 o       $ , 1 2 2 8 J J J J J J J J H J J J L J J J J J J J J J J J J J J J J J J J J J J J ",
"H J J J J J J J J J J J J J J J J F 2 o         .     o 8 J J J J J J J J J J J J J J J J J J J J J J J J L J J J L J J J J J J ",
"J J J J H J W W P J J J J L J J J J J I $               % 1 2 2 2 8 J J W W K J J J J P W P P J J J J J J J J J J J J J J J J J ",
"J J J H J W ^ ) W J H J J J J J J J J E q 1 , $               .   o 8 W ( ( Q J H J J Q ( ( W J J J J J J L J J J J J J J J J J ",
"J J J K Q ^ 2.o.Q J W Q P J J J J J J J J J J 8 o                   % q } 1.! H H H J ! 1.,.E J J J J J J J P J J J J P ! Q P J ",
"J H J W ^ 3.7.o.W W ^ ) Q J J J J J J J J J J J 8 %                   $ 0 4.! J H J H ! ,.,.! J J J J J J J J L J J J W ) ) Q K ",
"J J J P ] *.6.1.^ ~ } ] P K H J J ~ w.e.@.J J J J 4 .                 . 0 ] W J H J H #.|.C./ K J J J J J J J J J J J P ] } ! W ",
"K K J F D | X.5.1.} T Z F J J F P e.#X#X].J J J J 4 .                   , Z F J K K J ].#X#X-.! J J J J J J J J J K J C Z T } } ",
"K K K V b M R X.%.| m b V P E @.].@X%X$X[.J J F 8 %                     $ > 1 8 K P J  X$X%X#XXXJ J L J J J J J J K K V b A ..4.",
"J J K H C n M G G m B V H J ~ e.@X%X%X$X[.L L 8 o                           . o 8 J H [.$X%X%X$XJ J J J J L J J J J J C B L $.4.",
"J J K K P F b 5 6 b F P K J ~ e.#X%X%X%XOX-.e %         + = = = * = = #         % e -.OX%X%X$X$XJ J J J J J J J J J J J J W ' ..",
"J J J K K J V n B V J K K J W @.].OX$X%X%X}.w         + u v y.c c u.v u +         w }.%X%X%XOX.XJ J J L J J J J J J J K K J Z A ",
"J J J J K J K K J J J K J J J J J q.+X$X%XoXs   + = = y p.b.b.z.z.b.b.p.y = = +   s oX$X$X+Xq.W J J J J L J J J J J J P K C b 6 ",
"J J J J J K K K K K J J J J J J J W q. X|.{.i X y v t.u.l.b.b.x.x.b.b.l.u.v v u + i {.|.[.w.E J J J J J J J L J J J J P J J V V ",
"J J J J K J J P W W K J J J J H J J J J J +.: # z b.b.a.u.t.p.z.z.p.v u.a.b.b.z * : +.J J J J J L J J J J J J J J J L J J J K J ",
"L J J J J J J W _ ) Q J H J J J J J J J J e O * v n.n.u.t t v c.c.v r t u.n.n.v * O e J J J J J P J J J J J J J J J L J J J K K ",
"J J J J K F J W ) ) Q H H P Q Q P J J J J 4 o * c v.b.l X X l b.b.l X X l b.b.c * o 4 J L J J J J J J J J J J J J J J J J J J J ",
"J J J K J J J P W W P H H W _ ) Q J H J J V 4 < x n.v.l X X l b.n.u X X l b.n.x < 4 D J J J J J J J J J J J J P J J J J J J J J ",
"J J J L J J J J K J J J K Q ) _ W J J J J J J 9 r.j.v.v t t v c.b.u.r r v c.j.r.N J J J J J L J J J J J J J J L J J J J J J J J ",
"J J J J J J J J F J J J J P W W P J J J J K K T i.h.h.p.y.y.p.z.l.a.v u.p.z.x.i.T K K J J J J J L J J J J J J J J J J J J J J J ",
"J J J H J J K J J J J J K J J J J J J J J K K | m.N.k.h.h.z.z.k.k.l.z.h.f.k.M.m.| J K J J J J J K J F J J J J J J J J J J J J J ",
"J J J J J J J J J J J K J J J F J J J J J J J I O.k B.d.j.z.l.k.k.z.x.j.h.B.k O.I J J J J J J J J J K J J J J J J J J J J J J J ",
"J K W W K J J J J J J K J J J J J J J J J J L F d k '.B.g.d.d.f.f.d.d.g.B.'.k O.L L J J J J J J J K W W J J H P W Q P J J J J J ",
"J W ) ) W J J J K J J J K J J J J J J J J J J O.H.W.E.'.B.d.s.g.g.d.d.B.'.E.W.H.O.J J J J J K H J W ( ) W H J W ) ) Q J J J J J ",
"Q / <.,.! J H K J J J J J K J J J K J J J U d G.W.I.I._.'.V.N.V.V.N.V.'.W.I.I.W.G.d U J J J J J J Q >.>.W J P !  .] W J J J J J ",
":.2.6.:.Q J J J J J J J K J J J J J J L J d J.W.~.I.I.U._.K.K.`.`.K.K._.~.I.I.~.W.J.d J J J J H J ! ,.>.! W ^ } T D C J P J J J ",
"8.6.&.' L J J J J J J J J J J J F J J J J f T.~.~.~.~.U.U.U.I.I.U.I.I.~.~.~.~.~.~.T.h J J J J H H ! ,.o.! ! :.&.S b V K P J J J ",
"6.*.T M F J K J J J J J J J J J K J H J J j R.~.~.~.~.~.I.I.I.I.I.I.I.I.U.~.~.~.~.W.j J J J J J J ! :.;.E ! >.,.E V C J K J J K ",
" .R M b V J K J J L J J J J J P W W P J J h R.~.~.~.~.~.Q././././.~.~.~.~.~.~.~.~.R.h J J J J J J E ] ' W W ` ] W J J J K J J J ",
"S m M V J J K J J J J J L F J W ) ) W J J h R.~.~.~.~.~.~././././.~.~.~.~.~.~.~.~.R.h J J J J J J F Z D F F D Z F K K J J J J J ",
"6 b C P K J J J J J J J K J J W _ _ Q J H h Y.~.~.~.~.~.~.P.F.L.P././.~.Q.~.~.~.~.Y.h J J J J J K C b b C C b b C K K J J J J J ",
"B C J P K J J J J J J J J J J K W W P J J h Y.~.~.~.~././.S.p p F.).(.~.~.~.~.~.~.R.h J J J J J K H V C J C C V F K P J J J J J ",
"K P J J J J J J J J J L J J J J K J J P P f R.~.~.~.~.).).A.- @ a L.Q.~./.~.~.~.~.Y.h J J J J J J J K J K K J K K J J L J J J J ",
"K K J J J J J J J J J J J J J J H H H Q @.k Y.~.~.~.~.).(.A.-   - p L././.~.~.~.~.R.h J J J J J J K K K K J K K K J J J J J J J ",
"J J L J J J J J J J J J K J K K K H K ! 3.=.Y.~.~./.~.Q.L.Z.-     ; F.).).Q.~.~.~.Y.d J J P W W P J J J J J J J J J J J J J J L ",
"J J J J J J J J L J J J J J J J J H J ~ $.V.Y.~.~././.L.p -       ; F.).).~.~.~.U.Y.g J J Q ( ( W J H K J J J J J J J J J J J J ",
"J J J J J J J J J J J J J J J J J J J ` =.H.W.~.~.(./.A.;         - a L.~.~.~.~.U.T.G.d U ! ,.,.! J H J J J J J J J J J J J J J ",
"J J J J J J J J J J J P J J J J J J L O.K.T.!.Q.~.(./.A.;           - p L.~.(.~.Q.!.W.H.d ! ,.,.! H J J J J J K J J J J J J J J ",
"J J J J J J J J J J J L J L J J J J L j _.U.U.Q.~././.F.;           . - A.(.(.~.Q.Q.Q.W.j W ] ] W J J J J J J J J J J J J J W W ",
"J J J J J J J J J J J J J J J J J J J j W.~.~.~.~.(./.S.;             - A./.(.~.~.~.~.W.j F Z Z F K K J J J J H J J J J H W ^ { ",
"J J W W P J J J J J J J J J J J J J J h Y.!.!.!.!.^.^.D.;             ; D.^.^.!.!.!.!.Y.g V b b C K K J J J J P W P J J P ~ ,.4.",
"J W ) ) W J H J J J J J J J J J J J J J J J J J K J J K K J J J J K J F D T ..^ Q J H K K J V V F J K J J J J Q ) ^ W P ~ <.4.5.",
"! ^ 1.,.! J H K J J J J J P W W P J J J J J J J K J J J J J J J J K J V b S X.1.~ H J K J J K K K J J J J J H ! ,.,.^ ! :.7.7.7.",
">.<.7.,.Q J H J J J J J J Q ) ) W H J J J J L P J L J J J J J J J J K C B W $.,.! J H J J J P P K J J J J H J ! :.6.<.>.3.6.8.6.",
"7.6.%.' P J J J P L J J H W ) ) Q J H J J J J J J J J J J J J J J J J J J W ] ] W J J J J J J J J J J J J H J J ` &.6.9.8.3.$...",
"6.*.T M F J J J J J J J J P W Q W J J J J J J J J J J J J J J J J J J K P F D Z F J K J J J J J J J J J J J J C M T *.9.9.&.T S ",
" .R m b V K P J J J J J J J J J J J J J J J J J J J J J L J J J J J J P K C b b C K K J J J J J J J J J J W ! L n m T X.X.R 9 5 ",
"S m M V J J J J L J J J J J J H J J J J J J J J J L J J J J J J J J J K K J V V F K K J J J J J J J J J H Q _ / L b b G G 7 5 3 ",
"6 b C K K J J J J J J J J J J J J L J J J J J J J J J J J J L P J J J J J J K J K J J J L J J J J J J J J E ] } ~ L b 6 6 6 6 b ",
"V V J P P J J J J J J J J J J J J J J J J J J J J P J J J J J J J J J J J J K K P J J J J J J J J J J K K F D T } ^ J B n V V C ",
"C J J K K L J J J J J J J J J J J J J J J L J J J L J J J L J J J J J J J K J J J L J J J J J J J J J K K V b Y ..{ Q H C F F J "
};
