/* XPM */
static char *result[] = {
/* columns rows colors chars-per-pixel */
"64 64 242 2 ",
"   c #371804",
".  c #1E3402",
"X  c #362905",
"o  c #283701",
"O  c #271728",
"+  c #193929",
"@  c #37202E",
"#  c #32342E",
"$  c #353C2A",
"%  c #3E2E31",
"&  c #421E06",
"*  c #4B260B",
"=  c #512F0C",
"-  c #5D331A",
";  c #63371C",
":  c #5C3823",
">  c #422432",
",  c #482835",
"<  c #562D3B",
"1  c #4A3435",
"2  c #5B373C",
"3  c #683923",
"4  c #733F2A",
"5  c #61373E",
"6  c #62393E",
"7  c #194A06",
"8  c #065500",
"9  c #0D530E",
"0  c #374502",
"q  c #315008",
"w  c #026C02",
"e  c #166404",
"r  c #007300",
"t  c #007D01",
"y  c #02780B",
"u  c #046E15",
"i  c #2A6706",
"p  c #2E6D0B",
"a  c #0A4F29",
"s  c #344A2C",
"d  c #007A27",
"f  c #00613E",
"g  c #357C2E",
"h  c #584617",
"j  c #4B5210",
"k  c #466B16",
"l  c #544439",
"z  c #515330",
"x  c #694524",
"c  c #73462C",
"v  c #6C5236",
"b  c #4F6821",
"n  c #683E41",
"m  c #074F4A",
"M  c #264D56",
"N  c #00684F",
"B  c #246B4D",
"V  c #3D5F6C",
"C  c #00726B",
"Z  c #356377",
"A  c #524E47",
"S  c #674A43",
"D  c #6A5447",
"F  c #70504D",
"G  c #7B584A",
"H  c #736A4D",
"J  c #757547",
"K  c #4A6770",
"L  c #707672",
"P  c #83554D",
"I  c #865A4E",
"U  c #895D4F",
"Y  c #8C6A56",
"T  c #926653",
"R  c #897253",
"E  c #977858",
"W  c #9D795A",
"Q  c #A07A5B",
"!  c #987664",
"~  c #90756A",
"^  c #A07967",
"/  c #008302",
"(  c #008B02",
")  c #01870C",
"_  c #009303",
"`  c #009B02",
"'  c #00960A",
"]  c #009B0C",
"[  c #008D13",
"{  c #00851B",
"}  c #1F8814",
"|  c #009C12",
" . c #009718",
".. c #28891B",
"X. c #00A407",
"o. c #00A515",
"O. c #00A916",
"+. c #00A419",
"@. c #00AB1A",
"#. c #00B21C",
"$. c #008726",
"%. c #009C24",
"&. c #04992B",
"*. c #0B9431",
"=. c #299B28",
"-. c #309828",
";. c #2B9432",
":. c #389434",
">. c #00A325",
",. c #00AC23",
"<. c #00A429",
"1. c #00A92A",
"2. c #1BAA2C",
"3. c #00B027",
"4. c #00B22C",
"5. c #00AC36",
"6. c #04B734",
"7. c #00B836",
"8. c #15B638",
"9. c #30B035",
"0. c #529139",
"q. c #4CB63E",
"w. c #05924B",
"e. c #26B948",
"r. c #3DB444",
"t. c #548D53",
"y. c #678A45",
"u. c #79874B",
"i. c #45BD41",
"p. c #4EBA49",
"a. c #3CC041",
"s. c #41C243",
"d. c #48C647",
"f. c #59C84C",
"g. c #58C857",
"h. c #62CB50",
"j. c #63D355",
"k. c #71D055",
"l. c #8C8756",
"z. c #86896A",
"x. c #B48978",
"c. c #005C87",
"v. c #005C94",
"b. c #00688D",
"n. c #006798",
"m. c #007A93",
"M. c #006CA2",
"N. c #007AA7",
"B. c #006ABA",
"V. c #007FB3",
"C. c #0074BE",
"Z. c #0079BE",
"A. c #357CA0",
"S. c #4C758A",
"D. c #006DC2",
"F. c #0074C4",
"G. c #007CC3",
"H. c #0076CB",
"J. c #007BCB",
"K. c #159D92",
"L. c #0082AA",
"P. c #0082B3",
"I. c #0087BB",
"U. c #1587B5",
"Y. c #0093BC",
"T. c #2A91B2",
"R. c #5A888F",
"E. c #548AA6",
"W. c #789DAB",
"Q. c #0084C4",
"!. c #008AC5",
"~. c #0085CA",
"^. c #008DCD",
"/. c #0092C5",
"(. c #0092CD",
"). c #009ACA",
"_. c #1898CA",
"`. c #008FD0",
"'. c #0094D1",
"]. c #009BD4",
"[. c #069CD8",
"{. c #289AC9",
"}. c #309ECF",
"|. c #00A4CD",
" X c #00A1D7",
".X c #00A4DA",
"XX c #04ACD8",
"oX c #00ABDC",
"OX c #15A1D6",
"+X c #00B1DE",
"@X c #2CA6CE",
"#X c #28A4D7",
"$X c #2AA5D9",
"%X c #39A8D5",
"&X c #31A6DA",
"*X c #33A9DA",
"=X c #3BAADA",
"-X c #15ACE1",
";X c #00B2E0",
":X c #00BAE3",
">X c #4EAAD0",
",X c #47ADDC",
"<X c #56B2DC",
"1X c #5AB3DF",
"2X c #75B1CD",
"3X c #78B7DC",
"4X c #5BB3E0",
"5X c #6FBAE1",
"6X c #7DC1E5",
"7X c #989086",
"8X c #AC9990",
"9X c #BBAD9C",
"0X c #8C9BA5",
"qX c #94ADB4",
"wX c #AAAEB0",
"eX c #C2A49A",
"rX c #CBB3AE",
"tX c #BDD0AC",
"yX c #CBC1BB",
"uX c #8EB6CB",
"iX c #ADBBC6",
"pX c #91C8D8",
"aX c #B9C2C6",
"sX c #B0C8D4",
"dX c #84C3E4",
"fX c #8BC8E9",
"gX c #95CAE7",
"hX c #9DCFEB",
"jX c #95D6ED",
"kX c #9CD1EC",
"lX c #97CDF1",
"zX c #A6D3EC",
"xX c #B5DAEE",
"cX c #B8DCF0",
"vX c #D0D0CF",
"bX c #C6CCD7",
"nX c #F2D8D0",
"mX c #FDE5DD",
"MX c #C5E1ED",
"NX c #C8E6F4",
"BX c #CCE6F4",
"VX c #D4ECF8",
/* pixels */
"^.^.`.^.^.^.`.^.`.^.^.^.^.^.^.`.^.`.^.`.^.^.`.^.^.~.`.`.^.^.`.^.`.^.^.~.F.[.zXvXx.v p {  .1.<.<.<.1.1.<.>.>.>.5.e.e.5.5.e.e.5.5.",
"^.^.^.^.`.^.^.^.`.~.`.~.~.`.^.^.^.^.^.^.^.`.^.^.^.`.^.^.^.`.^.^.^.^.`.Q.G.`.fXbXeXl.p / _ @.O.@.,.3.4.,.O.o.o.,.9.2.@.,.2.9.>.>.",
"^.^.`.^.^.^.^.`.`.^.^.^.~.^.^.`.`.`.^.`.^.^.^.^.^.`.^.`.`.`.`.^.^.^.^.!.~.J.`.3XbX9X0./ _ o.O.@.7.s.s.7.3.O.o.| [ [ ] | [ [ | +.",
"^.`.^.^.`.^.^.^.^.`.'.].].'.`.~.~.^.^.^.^.`.^.`.`.^.~.~.~.~.~.~.~.^.Q.^.^.`.J.`.fXaXt.r _ O.O.3.s.k.k.s.3.X.o.' / / ] ] ( / ] %.",
"`.^.^.`.^.^.^.^.^.'..X+X;X.X'.^.~.^.`.^.`.^.`.`.^.^.~.`.~.~.~.`.^.Q.I.^.`.].'.H.`.A.Z u ) o.O.3.s.k.k.a.3.o.o.] ' ' | X.' ' | <.",
"^.^.^.^.`.^.`.~.^.(..X+X:X;X.X].].].`.^.~.^.`.~.~.`.&X4X4X4X4X=X].^.~.^.^.[.].D.B.v.M s ) o.X.3.7.s.s.7.@.o.o.o.O.O.O.o.O.O.o.<.",
"`.`.^.`.^.`.^.`.^.^.'..X;X:X;X;X;X.X'.~.`.^.^.~.~.OXhXBXBXMXBXhX#X^.~.^.^.'.'.J.D.v.A b p ( ] O.,.3.3.,.@.o.o.O.O.O.o.o.O.O.o.>.",
"^.^.^.^.^.^.^.^.^.^.^.'..XoX+XoX;X.X'.^.`.~.^.'.&XdXcXBXMXBXBXhX#X^.I.P.(.^.^.`.[.A.H x q y ' O.O.o.o.o.o.o.o.o.+.O.o.o.+.+.O.<.",
"^.`.^.`.`.^.^.^.^.^.^.^.'.].].].].'.'.^.^.~.`.&XzXcXdX<X,X4X4X=X'._.S.S.{.'.^.[.fXiX! 3 $ u { O.X.o.o.o.o.+.o.o.+.+.o.o.o.+.o.<.",
"^.^.^.^.^.^.^.^.P.P.~.^.^.~.~.!.~.^.^.^.^.`.~.=XzXzX&X~.~.].*X,X}.E.A F 2X*X].%XcXnX! = . 9 { O.O.o.o.o.o.o.o.o.o.o.+.o.o.o.o.<.",
"^.`.^.^.^.`.~.N.K K P.^.^.^.~.^.^.^.^.^.^.~.`.].=X*X'.~.~.[.gXsXW.A   G aXjXXX&XcXnX^ =   7 ) O.O.O.+.O.o.o.o.+.o.+.o.o.o.o.o.<.",
"^.^.`.^.^.^.I.S.l D S.N.~.^.^.^.^.^.^.^.`.^.^.^.~.`.^.^.'._.uX9XY v D 7XvXjXoX.XfXbX8XT - 0 / O.O.o.o.o.o.o.o.o.o.O.o.o.o.+.O.%.",
"^.^.`.^.^.).R.D c v D Z P.^.^.^.^.^.^.^.`.^.`.^.~.~.`.~.^./.Y.E.8XrXyXvXfX-XoX[.`.3XbXrXT j / @.O.O.O.o.o.o.o.o.o.o.o.o.o.o.o.<.",
"`.^.^.'.%X2X~ c 4 c x 2 Z N.T.U.!.^.^.`.^.^.^.^.`.`.`.`.^.'..X|.6XVXNXkX+XXX.X].D.'.pXtXl.b ) O.O.O.o.o.o.+.o.+.o.o.o.o.o.+.o.<.",
"^.^.`.$XhXbX! c ; c c 3 2 L wX2XI.`.`.^.^.^.^.^.^.`.^.^.^.^.'.).@X>X<X+XXXoX X^.D.L.K.r.9. .o.O.O.o.o.o.o.o.+.o.o.o.o.o.o.&.y.y.",
"^.^.^.$XzXsXL A A G Y E ! 8XwXW.P.^.^.`.~.`.`.^.^.`.~.`.^.^.^.!././.). XoX.X^.~.J.m.5.X.X.#.@.o.o.o.o.o.o.o.o.o.o.o.o.o. .:.u.l.",
"^.^.^.].=X}.U.E.qX0X8XvXnXwXE.N.Q.^.^.^.`.^.`.^.^.^.^.^.^.^.!.Y.).|.XXoX[._.G.J.J.b.d / X.#.O.o.o.o.o.o.o.o.o.o.o.o.O.+.;.u.E E ",
"^.^.^.^.^.^.^.&XhXxXxXVXVXiX_.`.^.^.^.^.^.^.^.^.`.^.'.^.^.!.!./.|.XX+X X~.Q.Z.H.H.n.f e / ] o.o.o.o.o.o.o.+.o.+.o.+.>.:.u.l.E E ",
"^.^.^.^.^.^.^.^.$XdXNXVXVXzX&X~.^.^.^.^.^.`.`.^.^.^.^.^.!.!.!./.).].].^.J.G.C.J.J.v.+ o e / o.o.@.o.o.o.o.o.o.O.o.%.:.u.E Q W E ",
"^.^.^.^.^.(.'.^.~.OXhXBXBXzX$X^.~.`.^.`.^.^.^.^.^.~.~.Q.!.!.^.^.^.^.^.Q.G.G.Z.Z.N.C a q w ( ] O.O.+.o.o.o.o.o.+.+.%.y.W Q Q Q l.",
"^.^.^.^.^.^.(.^.~.'.&X4X1X%X].^.^.`.^.`.^.^.`.~.Q.F.Z.Q.!.^.^.^.^.^.Q.!.Q.~.H.N.C d y / ( ] o.O.o.o.o.+.o.o.o.o.o.%.u.W Q W W W ",
"^.`.^.`.^.^.^.^.`.^.^.~.~.^.^.^.^.^.^.^.`.`.`.~.G.G.Z.Z.Q.^.^.^.^.^.^.!.Q.~.F.c.a r ` #.#.+.o.o.o.o.o.o.o.o.o.o.o.%.l.W Q W W W ",
"`.^.^.^.^.^.`.^.^.~.~.~.~.^.^.^.^.^.^.^.^.`.`.^.~.~.~.G.G.G.~.^.^.^.^.V.B.J.H.C a 7 ( #.#.@.o.o.o.o.o.o.o.o.o.+.o.&.l.W Q W W W ",
"^.^.^.`.^.`.^.^.`.^.`.`.^.`.^.^.^.`.`.^.^.^.^.^.^.`.'.^.G.G.~.'.(.^.^.P.G.[.$XS.$ 0 r o.O.o.o.o.o.o.+.o.+.o.o.o.o.;.J E W W W E ",
"`.`.^.^.^.^.^.^.^.^.^.^.^.^.!.^.^.^.`.^.^.^.^.^.`.`.`.^.~.^.^.^.^.^.^.!._.1XsXwXH j 8 _ X.+.O.@.o.+.o.o.o.o.o.o.+.;.J T E Q Q E ",
"^.^.^.^.^.^.^.^.^.^.'.^.^.^.(.!.^.^.^.`.`.^.`.^.^.^.^.^.`.^.^.^.^.^.^.^.^.].5XqX8XR j w _ O.O.o.o.o.o.o.o.+.o.o.+.:.H P T E Q E ",
"^.^.^.^.Q.!.^.^.^.^.^.^.^.^.^.!.^.^.^.`.^.^.^.^.^.^.^.^.`.`.^.^.^.^.^.^.^.!./.>XsX9Xv 7 t O.#.o.o.o.o.+.o.o.+.o.>.:.H P I T W E ",
"^.`.^.~.!.!.^.^.^.^.^.^.^.(.^.^.!.~.~.~.^.`.^.`.^.`.^.^.^.^.`.^.^.^.^.^.^.(.!.!.2X9XG X w ] O.+.O.+.+.+.o.+.o.o.+.;.J G P U T T ",
"`.^.^.^.Q.!.!.^.`.^.^.^.(.'.^.Q.G.Z.F.G.^.^.^.^.`.^.^.^.^.^.^.`.^.^.^.!.^.!.G.N.S.I c h i ( ] O.O.+.o.+.o.o.+.o.o.*.J P P P U U ",
"^.^.^.^.^.!.^.^.^.`.^.^.~.Q.Q.Q.Z.Z.G.G.^.^.`.^.^.^.^.^.`.^.^.^.`.^.^.!.!.!.^.A.A * ; b p ( ] O.O.+.+.+.+.o.o.o.o.*.J I P P I G ",
"`.^.^.^.^.^.^.^.^.`.^.~.G.G.C.Z.Q.Q.~.~.^.`.^.`.`.^.^.^.^.^.^.^.^.^.^.!.C.{.gXwXS X q p [ o.o.o.O.o.o.+.+.o.o.o.o...J v P I P G ",
"^.^.^.^.!.^.^.^.^.^.^.~.Q.Q.Q.^.'.'.'.^.~.^.^.^.^.^.^.~.^.^.^.^.^.^.Q.Q.V.}.xXnXE = 7 / ` O.O.o.o.o.+.+.+.o.o.o.o.*.H G P U U G ",
"^.^.^.^.^.^.^.`.`.~.G.Q.].oXoXoX+X.X'.^.~.`.^.^.^.^.!.I.!.^.^.^.^.!.Q.!.Q.%XMXnX^ h q / ` O.@.o.o.+.+.+.O.+.o.o.o.$.z F G P P P ",
"^.^.^.^.^.^.^.`.^.~.Q.!.].;XoXoXoXoX X].[.'.`.`.^.Q.Q.!.!.^.^.^.^.!.!.!._.1XxXwXJ k e ( ] @.O.o.o.o.o.| | +.o.o.o.$.z n F P I I ",
"^.^.^.^.^.^.^.^.^.^.~.^.(. X].].]. XoX+X;X.X'.^.^.^.!.Q.^.^.^.^.^.!.~.^.OX5X4XT.B i ( ] o.o.O.o.o.+.| +.+.+.+.O.o.{ z n 6 F P G ",
"^.^.^.^.^.^.^.`.^.^.^.^.^.^.^.^.^.(./.Y.oX.X'.^.^.^.^.^.!.^.(.^.^.^.^.^.].$X~.c.f t ` O.O.@.+.o.o.+.,.>.+.o.| @.3.$.s 2 5 6 S G ",
"^.^.^.^.^.^.`.^.^.^.`.`.^.^.^.~.^._.S.M N.'.`.~.^.^.^.^.(.(.'.^.^.^.'.(.`.^.F.v.m u _ @.@.>.+.o.o.,.8.8.<.| X.,.6.;.s < 5 6 6 v ",
"^.^.^.^.^.^.^.^.`.^.^.^.^.^.^.'.%XuXL   M N.%X,X(.^.^.(.'.].(.^.^.^.'.(.`.J.C.v.m a y &.>.+.@.X.o.4.s.a.<.o.@.6.q.g $ , < 6 5 5 ",
"^.^.^.^.^.^.^.^.^.`.^.^.^.^.^.#XgXbXI     L iXgX#X^.^.^.'.(.^.^.^.(.(.].(.F.B.c.+ o 7 d &.@.O.o.o.3.s.9.<.,.7.9.p u $ , < 5 5 6 ",
"^.!.^.^.^.^.^.^.^.^.^.`.^.^.!.#XpXwXK # % L qXuX(.~.~.^.^.^.^.^.^.`.^.].^.H.H.n.# X o a  .O.O.X.o.3.s.9.+. .2.-.) e $ , < 5 2 2 ",
"^.^.^.^.^.^.^.^.!.^.^.^.^.!.Y.Y.}.T.N.E.0XqXE.P.Q.~.~.~.^.^.^.^.^.`.^.^.Q.J.F.v.A - & 7 ) O.#.o.o.3.a.2.' ( ) / t e $ , < 2 < 1 ",
"^.^.^.^.^.^.^.^.^.^.^.^.(.^.!.I.I.I.!.=XkXcXfX,X,X<X<X=X'.^.Q.^.^.^.^.~.Z.B.M.S.A ; * 0 t o.O.o.o.@.9.2. .) / / / u $ , < < , % ",
"^.^.^.^.!.^.^.!.^.^.^.^.^.^.!.!./.!.!.'.&XdXcXNXBXBXBXhX$X~.Q.^.^.^.^.~.F.n.K z : 3 ; h p _ X.@.O. .[ ) ' [ ) / ' { s > > , > % ",
"^.^.^.^.^.^.^.^.^.!.^.^.^.^.(.^.^.^.(.~.~.[.hXVXVXBXBXhX$X~.Q.!.^.`.^.^.(.S.A = * - c x q w _ #.#.' / / ] ] ( / '  .s % > % > % ",
"^.^.^.^.^.^.^.!.^.^.^.^.^.^.^.^.^.^.'.^.~.'.&X4X1X1X1X,X(.^.Q.^.^.^.^.}.uXqXG * * - c 3 = 8 ( O.O.o.' ' o.] ' ' ] { s @ > > > % ",
"(.^.(.^.^.!.~.Q.^.^.^.^.`.^.`.^.^.`.^.^.`.^.~.G.Q.~.~.^.^.^.(.^.^.Q.^.{.uXbX8Xv * * - : * 0 y | O.O.o.O.O.o.O.@.O.$.# @ @ @ @ @ ",
"^.^.^.^.^.^.^.^.~.`.^.`.^.^.^.`.`.^.`.'.^.~.G.C.C.F.Q.^.^.^.(.^.Q.I.G.(.#X6XbX8Xv   * : 3 h i ( ] O.O.O.o.O.O.@.O.d + O O O O O ",
"^.^.^.^.^.'.=X%X'.~.~.~.^.^.^.`.^.^.^.^.`.^.G.F.G.G.G.~.~.~.~.Q.I.Q.!.Q.^.].fXsX7XS : : 4 v p t ` O.O.o.o.o.o.o.o.[ 9 + + + + + ",
"^.^.^.^.^.=XzXzX&X~.~.~.^.^.^.`.`.^.^.^.^.^.~.~.~.Q.F.G.Z.G.C.G.!.!.^.^.^.`.[.5XaX9XU 4 c c p t ` O.O.o.o.o.o.o.o.| { { { d { $.",
"^.^.^.~.^.,XdXhXfX,X,X=X].^.^.^.^.^.^.`.`.^.`.`.`.^.G.G.F.G.G.G.^.^.^.^.^.J.B.&XVXmXx.4 ; h i t ' @.O.o.o.o.o.o.+.+.o.o.o.o.o.%.",
"^.^.^.^.^.(.].-XkXNXNXzX$X`.~.`.`.^.`.^.^.`.`.`.`.^.^.~.~.~.~.~.!.^.^.^.^.Q.B.$XVXmXx.x j i w t ' @.@.o.o.o.o.o.o.o.o.o.o.o.o.>.",
"`.^.^.^.^.~.^.'.3XBXBXkX$X~.~.^.^.^.^.^.^.^.^.^.^.^.^.^.^.'.^.^.!.^.^.^.`.~.B.[.lXsXz.k r / / ( | o.o.o.o.o.o.o.o.o.o.o.o.o.@.5.",
"^.^.`.^.^.^.~.^.{.4X4X%X].~.^.`.`.^.^.^.^.^.^.(.^.^.!.(.(.(.^.(.^.^.(.^.^.~.F.~.`.T.w. .]  .| | o.o.o.+.o.o.o.o.o.o.o.o.o.,.7.e.",
"`.^.^.^.^.^.^.^.`.~.^.^.^.`.^.^.^.^.^.`.^.^.^.(.^.!.L.Y./.^.^.^.(.'.'.(.^.~.C.B.M.C *.#.O.1.,.+.o.o.o.o.o.o.o.@.,.@.O.o.@.4.s.g.",
"^.^.^.^.^.^.^.^.~.~.~.^.^.^.^.^.^.^.^.^.^.^.)./.^.N.V R.T./.(.'.[.].'.].(.F.F.n.N d | #.O.,.@.@.O.o.o.o.o.o.o.3.8.7.,.@.5.d.f.g.",
"^.`.^.`.^.`.^.`.`.`.~.~.~.~.^.`.`.`.^.^.^.).@X>XT.V z J 2X%X(.).OX].`.].^.F.D.b.w.( ` +.o.o.o.o.o.+.o.o.o.o.o.3.s.d.7.4.a.h.j.g.",
"^.^.^.^.^.^.^.^.^.^.Q.C.Z.Q.^.^.`.^.^.^.`.{.pXqXu.l - E aXhX$X(.'.^.^.(.Q.D.F.m.*.` X.o.O.o.o.o.o.o.o.o.o.o.o.3.s.f.d.d.f.f.h.g.",
"^.`.^.`.`.(.^.^.~.Q.Z.C.C.C.Q.~.^.^.'.^.~.).>XqX0XY Y 8XvXkX$X^.^.^.^.^.F.F.H.m.w.X.X.O.O.o.+.o.o.o.+.+.o.o.o.+.2.p.h.j.j.f.q.r.",
"^.^.^.^.^.^.^.!.G.Z.!.Q.C.C.F.G.^.`.^.^.^.^.!.{.iXvXvXvXdX=X'.`.^.^.^.^.C.H.F.m.$.( ` O.@.o.o.o.o.o.o.+.o.+.@.] ' -.q.k.k.p.=.*.",
"^.^.^.^.`.(.^.!.Q.Q.Q.^.Q.G.G.G.~.~.G.^.$X$X#X,XzXVXNXgX X^.^.^.^.^.^.~.C.H.D.b.N r ( | o.O.o.o.+.o.o.o.o.,.3.>./ ) -.q.q.-.t r ",
"^.^.^.^.^.(.^.!.!.!.^.^.^.Q.^.Q.G.C.C.).,X].].6XNXxX5X].~.`.^.^.^.^.(.~.~.J.F.n.N 9 r ( ] @.O.o.o.o.o.o.o.,.8.7.+.( / } } / r u ",
"!.^.(.^.^.^.(.^.^.^.^.^.^.^.(.^.!.Z.!.).(.Q.).dXMXgX@X^.^.^.^.^.^.^.^.(.^.^.^.T.M 7 e t _ ] o.O.O.o.o.o.o.,.9.9.5.+.( t t t t / ",
"^.(.!.^.^.^.^.^.^.(.^.^.(./.!.].].!.Y.Y.I.!.).<X>X%X).!.^.^.^.`.^.^.^.!.^.].gXqXA o 8 r t ( ] +.@.o.o.O.o.| [ -.9.7.+.' ( ' ' | ",
"^.^.^.^.(.^.^.`.^.^.^.(.!.!./.].].!.Y.Y.Y.!./.).)././.^.^.^.^.^.^.(.^.(.!.#XxXwXA . 8 y u { %.<.<.<.>.>.<.&.{ ;.i.e.5.%.%.<.<.*."
};
