/* XPM */
static char *result[] = {
/* columns rows colors chars-per-pixel */
"64 64 240 2 ",
"   c #2E160A",
".  c #1D2E18",
"X  c #392A01",
"o  c #293904",
"O  c #2B142C",
"+  c #3B1932",
"@  c #1B3328",
"#  c #2E2829",
"$  c #363627",
"%  c #393928",
"&  c #3F2531",
"*  c #451E05",
"=  c #4B260D",
"-  c #572A09",
";  c #4D3211",
":  c #63361A",
">  c #411F34",
",  c #593623",
"<  c #422332",
"1  c #462A34",
"2  c #562C3B",
"3  c #463835",
"4  c #5A393A",
"5  c #673A24",
"6  c #733F2A",
"7  c #62383D",
"8  c #194B04",
"9  c #075A09",
"0  c #1C5A0C",
"q  c #085112",
"w  c #2C4D08",
"e  c #374502",
"r  c #225E0F",
"t  c #046901",
"y  c #176401",
"u  c #007400",
"i  c #007C01",
"p  c #00780C",
"a  c #006A15",
"s  c #0A7512",
"d  c #1C7D18",
"f  c #2A6706",
"g  c #2C6F0E",
"h  c #376A17",
"j  c #07562E",
"k  c #007829",
"l  c #007D39",
"z  c #3F7D21",
"x  c #594617",
"c  c #4C5612",
"v  c #466B16",
"b  c #515225",
"n  c #594338",
"m  c #6A4524",
"M  c #6F4F2D",
"N  c #73452D",
"B  c #654B3C",
"V  c #6B5C3A",
"C  c #75573E",
"Z  c #71653D",
"A  c #673B41",
"S  c #06504B",
"D  c #1D5A5D",
"F  c #275055",
"G  c #00674A",
"H  c #2F5971",
"J  c #00726B",
"K  c #366278",
"L  c #4A4E4B",
"P  c #594E48",
"I  c #724B49",
"U  c #6C5346",
"Y  c #7A5A4A",
"T  c #4E6C4A",
"R  c #5F666A",
"E  c #516875",
"W  c #85554D",
"Q  c #895C4F",
"!  c #8A5551",
"~  c #8B5B51",
"^  c #925F54",
"/  c #886E4D",
"(  c #8C6756",
")  c #946854",
"_  c #8D7A54",
"`  c #987758",
"'  c #A0785C",
"]  c #87766C",
"[  c #987864",
"{  c #A67964",
"}  c #008101",
"|  c #008B01",
" . c #00850D",
".. c #008C0C",
"X. c #009302",
"o. c #009B03",
"O. c #00960C",
"+. c #009A0C",
"@. c #008A18",
"#. c #168114",
"$. c #009B11",
"%. c #009619",
"&. c #23811A",
"*. c #00A304",
"=. c #00A515",
"-. c #00AA16",
";. c #00A519",
":. c #00AB1B",
">. c #00B21C",
",. c #009825",
"<. c #009333",
"1. c #2F9928",
"2. c #00A423",
"3. c #00AE24",
"4. c #00A428",
"5. c #00B228",
"6. c #01B935",
"7. c #15BB39",
"8. c #1EB938",
"9. c #2FA932",
"0. c #39B73A",
"q. c #588D3E",
"w. c #5C9E3C",
"e. c #05924B",
"r. c #3CBE40",
"t. c #728C47",
"y. c #53BD4A",
"u. c #48C647",
"i. c #5FCB4F",
"p. c #65C84F",
"a. c #8F865B",
"s. c #8F8670",
"d. c #B38776",
"f. c #005B90",
"g. c #006F8D",
"h. c #006797",
"j. c #007C92",
"k. c #386F90",
"l. c #006CA3",
"z. c #006EAA",
"x. c #0076A6",
"c. c #007AAB",
"v. c #0066B9",
"b. c #006CBC",
"n. c #0075B6",
"m. c #0074BE",
"M. c #0079BE",
"N. c #327CA0",
"B. c #4E768F",
"V. c #617F8F",
"C. c #006DC1",
"Z. c #0074C4",
"A. c #007BC3",
"S. c #0076CB",
"D. c #007BCA",
"F. c #0082B3",
"G. c #0E88B2",
"H. c #0087BA",
"J. c #2E8CAD",
"K. c #50879E",
"L. c #748791",
"P. c #4D85A6",
"I. c #6B96AC",
"U. c #0084C5",
"Y. c #008AC4",
"T. c #0085CB",
"R. c #008DCD",
"E. c #0697CA",
"W. c #0091CE",
"Q. c #1B98CE",
"!. c #0086D1",
"~. c #008ED0",
"^. c #0095D1",
"/. c #009AD4",
"(. c #039AD8",
"). c #2A9DD0",
"_. c #1DA3CF",
"`. c #00A0D7",
"'. c #00AAD3",
"]. c #00A5D9",
"[. c #00ABDC",
"{. c #14A1D7",
"}. c #00B1DF",
"|. c #2FA5CE",
" X c #28A4D7",
".X c #2BA4D9",
"XX c #34A7D9",
"oX c #3CAADB",
"OX c #00B6E1",
"+X c #459AC2",
"@X c #42AAD6",
"#X c #43ABDC",
"$X c #48ACDA",
"%X c #56B3DE",
"&X c #59B4DC",
"*X c #6EB2D4",
"=X c #7BB7D9",
"-X c #56BAE2",
";X c #6FBAE2",
":X c #46C2E6",
">X c #998C85",
",X c #AD998F",
"<X c #BAAD9B",
"1X c #8BAAB7",
"2X c #A7AAAD",
"3X c #ADB3B6",
"4X c #B6B5B9",
"5X c #C1A49B",
"6X c #C7B0A8",
"7X c #BDD0AC",
"8X c #CBC0BC",
"9X c #84B2C8",
"0X c #8FBBD2",
"qX c #AABDC8",
"wX c #87BEE2",
"eX c #94D6D3",
"rX c #B8C4CA",
"tX c #ADC8D0",
"yX c #BBCAD4",
"uX c #85C4E6",
"iX c #95C9E7",
"pX c #9BCEEA",
"aX c #9DD0EC",
"sX c #91C8F1",
"dX c #A5D3ED",
"fX c #ABD6E9",
"gX c #B6DBF0",
"hX c #D0CECF",
"jX c #DACEC8",
"kX c #DDD1CB",
"lX c #C7CDD6",
"zX c #CAD3D9",
"xX c #F8DAD0",
"cX c #FBE3D9",
"vX c #D0D7E0",
"bX c #C7E2ED",
"nX c #C4E2F3",
"mX c #CCE6F4",
"MX c #CDE8F9",
"NX c #D7ECF9",
/* pixels */
"4.4.4.4.4.4.4.4.4.4.4.4.,.4.4.4.4.%.@.g V d.hXgX XS.Z.l.c.R.R.R.R.R.~.R.R.W.R.R.R.R.R.R.R.R.^.R.R.R.R.~.R.R.R.R.R.R.R.R.~.R.R.W.",
"=.=.=.=.=.=.=.;.=.=.=.=.;.=.=.:.=.o.i v / <XlXiX^.S.S.l.x.W.R.~.~.R.R.R.R.R.R.~.R.~.R.~.~.R.R.R.R.R.R.R.~.R.R.~.R.W.R.R.R.R.R.R.",
"=.=.=.=.=.=.=.;.=.;.=.;.=.=.=.-.-.X.} q.6XzX*XY.A.Z.S.l.x.R.R.R.R.R.R.R.R.R.R.R.R.R.R.^.R.R.~.R.R.R.R.R.R.R.R.R.R.R.R.~.R.~.~.R.",
"=.;.=.=.;.=.=.=.=.=.=.=.=.=.=.:.2.X.u q.qXiX(.m.b.b.l.l.M.T.R.^.R.R.~.R.R.R.~.R.R.R.R.R.R.R.R.R.R.R.T.R.R.R.R.R.R.~.R.R.R.R.R.R.",
";.=.=.=.=.=.=.=.=.=.=.=.;.=.=.:.-...a D J.(.D.C.m.l.h.M.R.R.R.R.R.R.~.R.~.R.R.R.R.R.~.R.R.R.R.R.R.R.T.T.R.R.R.R.R.R.R.R.R.R.R.R.",
"=.=.=.=.=.=.;.=.=.;.=.=.=.-.=.-.=...h F f.v.S.Z.Z.l.N.P.|.Q.Y.!.R.W.R.R.R.R.R.~.R.R.R.R.~.R.R.R.R.^.@X@X^.R.R.R.R.~.R.R.R.~.R.R.",
";.=.=.=.;.=.;.=.;.=.=.;.=.-.=.*.| f n L h.C.Z.Z.M.n.G.|._.+XJ.T.R.R.R.R.R.~.R.R.R.R.R.R.R.R.R.R.R.oXdXdXoXT.R.R.R.~.R.R.R.R.~.R.",
"=.=.=.=.=.=.=.=.=.=.=.=.;.-.;.$. .w m R B.~.!.Z.m.n.z.Q.&XwXoXT.T.R.W.~.R.R.R.W.R.W.R.R.R.R.T.R.T.oXdXdXoXR.T.W.~.R.^.R.~.W.R.R.",
"=.=.=.=.=.=.=.=.=.;.;.=.=.-.-.%.a o ; ( qXiX(.S.D.l.D V.9X&X`.E.R.W.R.R.R.R.R.R.R.R.R.~.R.R.Y.Y.R.^.#XoX^.R.R.R.R.^.R.R.R.R.R.R.",
"3.3.-.=.=.=.=.=.=.=.=.=.=.-.-.@.9     [ xXMX#X!.(.N.3 P P._.$XoX^.R.R.R.R.R.~.R.W.R.R.R.R.R.T.R.R.R.R.R.F.F.T.^.T.T.T.R.R.R.R.~.",
"7.7.3.=.=.=.=.=.=.=.=.=.=.>.:. .8   = { xXMXXX(.uX4XY = L I.yXaX.XR.R.R.R.R.R.R.^.R.R.R.R.R.R.R.R.R.!.c.E E c.!.A.M.M.A.R.R.^.R.",
"7.7.3.=.$.=.=.=.;.=.;.=.=.-.:.} X : ^ 5XlX=X~..XdXzX,XU B [ 2X1X_./././.!.R.R.R.R.R.R.R.R.R.R.~.R.R.F.E U n K H.U.Z.A.A.T.~.R.R.",
"3.3.-.=.=.=.=.=.=.=.=.=.=.-.-.} c ) 6XvX=XU.Z.E.%X;XyX6X8X2XK._.'.[.}.].^.R.R.R.R.R.~.R.R.R.!.~.R.F.K U M : B V.R.T.T.R.R.R.R.R.",
"-.=.=.=.=.=.=.=.=.=.=.=.=.-.-...z a.7XeX^.v.v.W././.uXMXnX=XE.'.[.[.[.[.(.^.^.R.R.R.R.R.R.Y.G.J.x.K n m 6 : : ] *X X^.T.R.R.R.~.",
"q.q.,.;.=.=.=.=.=.=.=.=.=.-.-.$.%.9.u.e.F.b.C.Z.R.R.].#X-X}.'.^././.^.`.[.].^.R.R.R.R.R.R.H.9X2XR n : m N : : [ hXiX(.R.R.R.R.R.",
"t.t.1.;.=.=.3.3.;.=.=.=.=.=.=.-.>.-.3.e.j.Z.Z.Z.T.~.~.(.[.[.(.^./.^./.`.[.[.^.R.R.R.~.R.R.F.I.4X<X[ [ [ [ ` [ ,XhXgXuXoX/.R.R.R.",
"_ _ t.1.%.3.6.7.5.=.=.=.=.=.=.-.>.*.| l g.Z.D.A.T.R.R.~.^.`.].[.[.[.[.[.(.^.R.R.R.~.R.R.R.Y.F.K.4XkXjXkXkXjXkXhXmXNXMXpX.XT.R.R.",
"` { a.t.9.8.u.r.3.;.:.5.:.=.=.=.+.} y S h.D.S.M.U.T.R.R.R.^.'.}.}.}.}.].^.R.R.R.R.R.R.R.R.R.R.Y.0XnXnXnXNXNXNXmXbXmXmXpX.XR.T.R.",
"` ` ` a.t.p.p.r.3.3.6.7.5.-.=.+...y o @ f.D.S.Z.M.D.R.R.T.W.W./.(././.^.W.R.R.R.R.R.R.R.R.R.R.W.{.XXoX;XgXNXNXnXuX$X$XoX^.T.R.T.",
"` ' ' ' ` t.w.0.6.5.0.0.2.-.=.*.| t w q J x.M.M.Z.D.U.T.R.R.R.R.R.R.R.R.R.R.R.R.R.R.T.R.R.R.R.R.~.T.R..XaXMXNXpX{.T.T.R.W.R.R.R.",
"` ' ' ' ) Z &.1.0.0.1...$.-.=.=.+.| | p k J j.Z.A.A.M.U.T.R.R.R.T.R.T.R.R.R.R.R.R.R.R.T.R.R.R.R.~.R.R.^.oX%X%XXX^.T.T.T.R.R.Y.R.",
"` ' ` ) ~ V v } 1.1.| } O.=.-.=.-.>.:.o.t j f.Z.Z.A.M.A.T.R.R.R.W.R.R.R.R.R.Y.U.T.^.XX#X/.R.R.!.R.R.R.R.R.T.T.R.R.R.R.R.R.R.R.Y.",
"` ` ) ~ ~ U h u u i ..o.=.=.=.;.-.>.>.| w j f.M.D.D.T.T.R.R.W.R.R.R.R.W.R.R.R.U.U.XXdXdX#XR.T.R.R.R.~.R.T.T.T.T.R.R.R.R.R.R.W.R.",
"` ` ~ ! W Z h u u u | %.;.=.=.;.=.:.=.u X 3 B._.!.Z.T.H.Y.W.W.R.R.R.W.T.R.E.XX@X$XuXgXdXXXT.R.R.R.R.R.R.~.~.~.R.R.R.R.W.R.R.R.R.",
"` ` Q W ! V h u u u u @.2.=.=.-.-.=.| y ; ( 4XaX(.Z.A.z.F.R.~.R.R.R.R.T.R. XpXbXbXgX=X.X^.R.R.R.R.~.R.R.R.R.R.R.R.R.R.R.R.R.R.R.",
"/ ) ~ W ! Z h u u u u d ,.=.=.-.:.X.t c / 6XvXiX^.Z.m.h.c.R.R.~.R.W.R.R.T. XiXbXbXiX{.R.T.R.R.R.R.R.R.R.R.R.^.R.R.R.R.~.~.R.R.W.",
"Q Q Q ! ! V h u u u u z ,.=.=.:.>.} 8 V 6XvXwXE.M.Z.Z.h.c.~.R.R.R.~.R.R.R.W.XX&X%XXXR.R.R.R.R.R.R.R.R.~.R.R.R.R.R.~.R.R.R.R.R.~.",
"Y W ~ ! ! Z h u u u u &.,.=.=.-.+.t o C 5XqXY.v.b.Z.Z.z.F.~.R.R.R.R.R.R.R.W.W.R.R.T.R.T.R.R.R.~.R.R.R.R.R.~.~.R.R.R.R.R.R.R.R.R.",
"Q W W ! ~ C h t u t u d ,.=.-.o.| f x N ) R l.v.m.M.M.M.U.R.~.R.R.R.R.T.Y.W.`.`.W.T.T.R.R.R.R.R.W.R.R.R.R.R.~.R.R.R.R.R.R.W.R.R.",
"Y W W W I V h u u u u d ,.3.5.2.X.g b x - L N.^.T.M.A.A.U.R.R.R.R.R.W.Y.R.W.'.[.].(./.^.W.T.R.R.R.R.R.R.R.R.R.R.R.R.R.^.R.R.R.R.",
"Y W B 7 2 b r u i u u d %.3.7.7.2...d e X U 2XsX/.Z.T.U.Y.R.R.R.R.R.R.R.R.R.^.(.[.}.}.].^.R.R.R.R.T.R.R.~.R.R.~.~.R.R.R.R.R.R.T.",
"Y I 7 2 < $ 0 u u u u d ,.4.7.7.5.o.i 8 ; { xXNX#XD.T.R.R.R.R.R.R.R.R.R.R.T.R.^.].}.}.[.`.^.^././.^.^.R.R.R.R.R.R.R.R.R.R.R.R.W.",
"A A A 2 < $ r u u u u d ,.-.3.5.:.*.} 0 x d.xXNX$XD.T.R.R.Y.R.R.R.W.R.R.R.R.R.R.^.(.^.(.[.}.}.}.}.].^.R.R.R.R.R.R.W.R.R.~.R.W.R.",
"4 7 7 2 1 % 0 u i i u s @.=.=.=.-.+.| y c ` qXiX(.D.T.R.R.R.R.R.R.R.W.R.R.R.R.R.R.R.R.^.].}.}.}.}.[.W.R.R.R.R.R.R.R.R.R.R.R.R.R.",
"4 7 A 2 1 % 0 u u u u a @.;.=.=.=.=.+.| f T J.R.D.Z.R.R.R.R.R.R.R.R.R.R.W.R.R.R.R.T.R.R.^./.(.(.(.^.W.R.R.R.~.R.R.R.R.R.R.R.R.R.",
"n 7 7 2 < $ r i u i u a @.;.=.;.;.-.-.o.i l h.C.Z.Z.A.~.^.R.R.R.R.Y.R.R.R.R.R.T.R.Y.x.M.W.R.R.T.R.R.R.R.R.R.R.R.~.R.R.~.R.R.R.T.",
"n 4 1 < < % r u i i u a @.=.=.;.;.:.:.O.a S h.C.Z.b.M.^.(.R.R.^.E.W.W.R.R.W.R.R.!.x.F B.Q.R.R.R.R.R.R.R.R.R.R.R.R.R.R.R.R.R.Y.T.",
"4 2 1 > + % r u u u u p @.=.=.;.4.4.,.p q S f.S.D.b.m.T./.R.~.^.(.^.W.R.R.W.oX+Xc.D   R 9XXX/.~.W.R.R.R.R.~.R.R.R.W.R.R.W.R.R.R.",
"3 1 < + < % r u u u u i %.=.=.-.:.,.k 8 o @ h.Z.Z.m.m.M.R.~.~.E.^.^.W.R.Y. XaXtXR #   Y qXdX.X~.R.W.R.R.R.R.R.R.R.R.R.R.W.R.R.R.",
"1 < < < < % r u u u u i +.=.=.>.:.@.j X X % h.D.D.M.M.M.U.R.~.R.R.R.R.R.T.Q.9X2X[ I C >XlXpX).U.T.T.R.W.R.R.W.R.R.~.R.R.R.R.R.Y.",
"& & < < + % r u i u t } +.=.=.:.>. .8 X - P l.S.D.M.U.U.R.R.~.R.R.R.R.T.T.Y.F.I.3X8X8XlXwXQ.U.M.Z.U.R.R.W.R.R.R.R.R.R.R.R.R.R.R.",
"1 & < < < % r u u u u } O.=.;.-.=.i e - : P k.l.b.A.R.R.R.R.R.R.R.R.R.Y.Y.R.W.H.9XbXnXiXW.A.M.M.A.A.A.R.R.R.W.R.R.R.W.R.R.R.R.R.",
"& < < + < % r i u u u i O.-.;.*.| g c : : 5 P H l.R.^.R.T.R.R.R.R.Y.Y.T.Y.R.R.R.E.#XoX`.T.T.T.T.T.U.A.U.U.R.R.R.R.R.R.R.R.R.R.R.",
"% < 1 < < % r u u u u } +.-.:.O.u e M N 5 * - I N.#X XT.T.R.R.R.R.R.R.R.R.R.R.R.W.R.R.W.~.R.R.^.^.T.A.A.U.U.U.T.R.R.R.R.W.R.R.R.",
"< + > > < % r u i u t i +.-.-...8 ; 5 N , * * Y 3XdXoXR.R.R.R.R.R.R.T.W.R.W.W.R.R.~.R.R.^.R.^.R.R.R.R.U.A.M.M.A.T.R.W.R.R.R.R.R.",
"& + + O + # r p u u u } +.=.=.i e ; : , = = B ,XzXiX{.~.^.~.R.R.R.R.W.R.R.R.R.R.R.W.R.^.~.R.R.R.R.~.~.T.A.M.M.A.T.R.R.W.W.W.R.R.",
"O O O O O . 0 u u u u } $.+.| f x , , *   B ,XlX*XW.R.^.~.R.R.R.R.R.R.R.R.R.W.R.R.~.R.R.R.R.R.R.R.~.~.R.R.T.T.R.R.W.W.R.R.W.R.R.",
"@ . . @ . @ y u i t u } +.o.i h M N 5 : U >XyXuXR.A.U.T.T.T.R.R.R.R.R.R.R.R.R.R.R.R.R.~.R.R.~.R.R.R.R.R.R.R.R.W.R.R.R.R.R.R.R.R.",
"9 9 9 q 9 9 t u u u u i $.O.i h M m 6 ) <XrX;X~.!.T.Z.A.M.U.R.R.~.R.R.R.R.R.R.R.R.R.R.R.R.R.R.R.R.~.R.R.~.^.R.~.R.R.~.R.R.~.R.R.",
"i u i u u u u u u u u i +.o.i f c : 6 d.cXNXXXv.T.R.A.A.M.M.T.R.R.R.^.R.R.R.R.R.R.R.R.R.R.R.R.R.R.R.R.R.R.^./.~.^.R.R.R.R.R.R.R.",
"i i u i i u u u t u u i +.O.i t f c m d.cXNX.XC.T.R.T.T.U.U.Y.R.R.R.R.R.R.R.R.R.R.R.R.R.R.R.R.R.~.R.~.R.R.^.(.^.^.R.R.R.R.~.R.R.",
"i i i i i i i i i i i | $.$.| i } u v s.tXsX(.C.Z.^.^.W.W.R.R.R.W.R.R.R.R.R.R.R.R.T.R.~.^./.^.!.R.R.R.R.W.T.!.^.R.R.~.R.R.R.R.R.",
"$.o.O.O.o.$.O.O.O.$.O.+.=.=.$.$.%.O.%.e.J.^.T.b.M.^.`.~.W.R.R.R.R.R.R.R.R.R.R.R.R.R.R.^.'.]./.R.R.R.R.R.R.Y.T.~.R.R.R.R.R.R.R.R.",
"3.;.-.3.;.=.=.=.=.=.;.=.=.=.=.;.4.:.-.<.J h.b.b.b.Q.XXR.^.^.R.R.~.W.H.c.U.W././.(.^.^.].[.[./.T.R.R.R.R.T.T.T.R.T.R.R.~.R.~.~.R.",
"3.2.6.7.3.=.=.=.;.=.=.=.=.;.=.=.:.:.-.O.<.J h.m.Z.E..X~./.(.W.R.R. XL.H c.E.].}.}.}.}.[.(.^.W.R.R.R.R.R.R.R.T.!.T.R.R.R.R.R.R.R.",
"6.6.u.u.5.=.=.=.=.=.=.=.=.:.3.3.-.-.=.o.} l g.n.Z.R.(.~./.{.^./.XX9X] , K J.&X:XOX}.}.[.^.R.R.R.R.T.R.^.XX&X%X%X%XoX^.R.R.R.W.R.",
"u.u.i.u.3.=.=.=.;.;.=.=.=.3.7.7.3.=.=.*.*.<.F.z.Z.A.R.R.^.^.^. XpXlX[ : n t.yXdX.X`.(.^.W.R.R.R.W.T.R. XaXmXmXmXMXpX.X~.!.R.R.R.",
"p.p.y.9.;.=.=.=.;.;.=.=.=.3.7.7.5.=.=.*.*.e.j.Z.Z.m.T.R.R.R.R. XpXzX,X( / ,XwX;X^.R.R.R.R.R.R.R.R.R.T. XaXmXmXmXmXpX-XoX^.^.R.R.",
"i.y.1.O.+.=.=.;.=.=.;.=.=.-.3.3.:.-.=.*.| <.g.Z.Z.Z.T.R.R.R.~.^.oXuXzXjXjXqXXX!.R.T.R.R.~.R.R.R.R.R.R.W.oX%X%X%X%X;XdXdXoX^.R.R.",
"1.1...} O.-.-.;.;.;.;.;.=.=.=.=.-.-.+.| u G h.C.Z.m.T.!.R.R.R.R.T.`.iXbXnXuX/.!.R.W.R.R.R.R.R.R.R.R.R.R.R.T.Y.T.T.XXdXdXoX^.R.R.",
"&...O.O.=.=.;.;.;.=.=.;.=.=.=.=.-.+.| t 0 j h.U.R.U.T.R.R.R.R.R.R.R.{.#X#X$X].T.T.R.R.R.R.R.R.W.R.R.R.R.R.T.T.T.T.W.oX#X/.W.R.R.",
"i | $.;.-.;.=.;.=.=.=.;.=.-.=.=.$...} t 8 F J.$X).Y.Y.R.R.W.~.R.R.R.R.R.!.(.(.!.T.R.T.R.R.^.^.R.R.R.R.R.R.W.R.^.W.R.R.R.W.R.R.R.",
"X.+.=.;.-.=.=.=.;.=.;.;.;.:.;.$... .i 9 o L 1XeX|.Y.Y.R.R.R.~.R.~.R.R.~.R.W.^.R.T.R.T.T.T.(.`.~.R.R.R.R.R.R.R.W.W.R.R.R.R.W.R.R.",
",.4.4.4.4.4.4.4.4.4.4.4.4.4.4.,.@.#.d 0 w T 4XfX|.Y.Y.Y.R.R.R.R.R.R.R.R.R.R.R.R.T.R.R.T.T.`.{.R.R.R.W.R.R.R.R.R.R.R.R.R.R.R.R.R."
};
