/* XPM */
static char *result[] = {
/* columns rows colors chars-per-pixel */
"64 64 243 2 ",
"   c #2E160A",
".  c #1D2E18",
"X  c #392A01",
"o  c #293904",
"O  c #2B142C",
"+  c #3B1932",
"@  c #1B3328",
"#  c #2E2829",
"$  c #363627",
"%  c #393928",
"&  c #3F2531",
"*  c #451E05",
"=  c #4B260D",
"-  c #572A09",
";  c #4D3211",
":  c #63361A",
">  c #411F34",
",  c #593623",
"<  c #422332",
"1  c #462A34",
"2  c #562C3B",
"3  c #463835",
"4  c #5A393A",
"5  c #673A24",
"6  c #733F2A",
"7  c #62383D",
"8  c #194B04",
"9  c #075A09",
"0  c #1C5A0C",
"q  c #085112",
"w  c #2D4D08",
"e  c #374502",
"r  c #225E0F",
"t  c #046901",
"y  c #176401",
"u  c #007400",
"i  c #007C01",
"p  c #00780C",
"a  c #1B750F",
"s  c #006A15",
"d  c #047714",
"f  c #1A7C18",
"g  c #2C6C0C",
"h  c #376A17",
"j  c #07562E",
"k  c #304F2E",
"l  c #007A31",
"z  c #3F7D21",
"x  c #594617",
"c  c #4C5612",
"v  c #466B16",
"b  c #515225",
"n  c #594238",
"m  c #6A4524",
"M  c #73452D",
"N  c #6E5137",
"B  c #6B5C3A",
"V  c #487022",
"C  c #71653D",
"Z  c #673B41",
"A  c #06504B",
"S  c #225559",
"D  c #00674A",
"F  c #00726B",
"G  c #386379",
"H  c #4A4E4B",
"J  c #594E48",
"K  c #704B48",
"L  c #6C5346",
"P  c #7A5A4A",
"I  c #4E6C4A",
"U  c #6A615A",
"Y  c #445D6D",
"T  c #576B76",
"R  c #787573",
"E  c #85554D",
"W  c #895C4F",
"Q  c #8A5851",
"!  c #925F54",
"~  c #886E4D",
"^  c #8C6756",
"/  c #946854",
"(  c #8D7A54",
")  c #987758",
"_  c #A0785C",
"`  c #8B776B",
"'  c #987864",
"]  c #A67964",
"[  c #008101",
"{  c #008B01",
"}  c #00850D",
"|  c #008C0C",
" . c #17800D",
".. c #009302",
"X. c #009B03",
"o. c #00960C",
"O. c #009A0C",
"+. c #008918",
"@. c #009B11",
"#. c #009619",
"$. c #23811A",
"%. c #00A304",
"&. c #00A515",
"*. c #00AA16",
"=. c #00A519",
"-. c #00AB1B",
";. c #00B21C",
":. c #009825",
">. c #009333",
",. c #2F9928",
"<. c #00A423",
"1. c #00AE24",
"2. c #00A428",
"3. c #00B228",
"4. c #01B935",
"5. c #15BB39",
"6. c #1EB938",
"7. c #2FA932",
"8. c #39B73A",
"9. c #588D3E",
"0. c #5C9E3C",
"q. c #05924B",
"w. c #3CBE40",
"e. c #5F9F4E",
"r. c #728C47",
"t. c #53BD4A",
"y. c #39C041",
"u. c #48C647",
"i. c #5FCB4F",
"p. c #65C84F",
"a. c #8F865B",
"s. c #8F8670",
"d. c #B38776",
"f. c #005B90",
"g. c #006F8D",
"h. c #006797",
"j. c #007C92",
"k. c #386F90",
"l. c #006CA3",
"z. c #006EAA",
"x. c #0076A6",
"c. c #007BAB",
"v. c #0066B9",
"b. c #006CBC",
"n. c #0079B3",
"m. c #0074BE",
"M. c #0079BE",
"N. c #307CA0",
"B. c #4D768F",
"V. c #617F8F",
"C. c #006DC1",
"Z. c #0074C4",
"A. c #007CC3",
"S. c #0076CB",
"D. c #007BCA",
"F. c #0085B7",
"G. c #108AB2",
"H. c #2E8CAB",
"J. c #50879E",
"K. c #748890",
"L. c #4D85A6",
"P. c #6B96AC",
"I. c #0083C5",
"U. c #0089C5",
"Y. c #0085CA",
"T. c #008CCD",
"R. c #0696C9",
"E. c #0091CE",
"W. c #1A99CF",
"Q. c #0086D1",
"!. c #008FD0",
"~. c #0095D1",
"^. c #009BD4",
"/. c #0299D9",
"(. c #2A9DCF",
"). c #1DA3CF",
"_. c #01A0D7",
"`. c #0AA3D6",
"'. c #00A4DA",
"]. c #00ABDC",
"[. c #15A1D6",
"{. c #00B0DF",
"}. c #39A4CF",
"|. c #2BA4D6",
" X c #26A6D9",
".X c #2AA5D9",
"XX c #35A8D7",
"oX c #33A7DA",
"OX c #3CAADB",
"+X c #00B2E0",
"@X c #4EA2CA",
"#X c #43ABDC",
"$X c #4AAEDB",
"%X c #54A8D1",
"&X c #53ACD8",
"*X c #56B3DF",
"=X c #58B4DC",
"-X c #74A8C6",
";X c #68B5DB",
":X c #79B6D9",
">X c #75BCE2",
",X c #46C2E6",
"<X c #7CC1E4",
"1X c #998C85",
"2X c #AD998E",
"3X c #BAAD9B",
"4X c #8BAAB7",
"5X c #AFAFB3",
"6X c #ADB3B6",
"7X c #C1A49B",
"8X c #C7B0A8",
"9X c #BDD0AC",
"0X c #CBC0BC",
"qX c #84B1C8",
"wX c #8FBBD2",
"eX c #AABDC8",
"rX c #87BEE2",
"tX c #96CDD8",
"yX c #B8C4CA",
"uX c #ACC8D0",
"iX c #B9C9D4",
"pX c #87C4E6",
"aX c #95CAE8",
"sX c #9CCEEA",
"dX c #9DD0EC",
"fX c #91C8F1",
"gX c #A7D3E8",
"hX c #A5D3ED",
"jX c #B2D9ED",
"kX c #BFE0F1",
"lX c #D0CDCF",
"zX c #DACEC8",
"xX c #DDD1CB",
"cX c #C7CDD6",
"vX c #CAD2D8",
"bX c #F8DAD0",
"nX c #FBE3D9",
"mX c #C9D8E3",
"MX c #CBE2EF",
"NX c #C4E2F3",
"BX c #CDE6F4",
"VX c #CDE8F9",
"CX c #D6EDFA",
/* pixels */
"2.2.2.2.2.2.2.2.2.2.2.2.2.2.:.2.2.#.+.g B d.xXjX XS.S.z.c.T.T.T.T.T.T.T.T.T.T.T.T.T.T.T.T.!.T.~.T.T.T.T.!.T.T.T.T.T.T.T.T.T.T.!.",
"&.&.&.&.&.&.&.=.&.&.&.&.&.&.*.-.*...i v ~ 3XlXpX!.S.S.l.x.T.!.T.T.!.!.T.!.T.T.!.T.!.!.T.T.T.T.T.T.T.T.!.T.T.T.!.!.T.T.!.!.T.T.T.",
"&.&.&.&.&.&.&.=.&.=.&.=.&.&.=.*.=...u 9.3XvX:XT.A.A.S.l.x.!.!.T.T.T.!.T.T.T.T.T.T.T.T.T.T.T.T.!.T.T.T.T.T.T.E.T.T.T.!.T.!.T.T.T.",
"&.=.&.&.=.&.&.&.&.&.&.&.&.&.&.-.-.{ u e.uXaX^.b.b.b.l.l.M.Y.Y.Y.T.T.T.T.!.T.T.!.T.!.T.T.T.!.T.T.T.T.T.T.T.Y.T.T.T.T.T.T.T.T.T.!.",
"=.&.&.&.&.&.&.&.&.=.&.&.=.&.&.-.-.| s S H./.D.Z.b.l.h.n.T.Q.Y.T.T.T.!.T.T.!.T.T.T.T.T.!.T.T.T.T.T.T.T.U.T.T.U.Q.T.T.T.T.T.!.T.T.",
"&.&.&.&.&.&.=.&.&.&.&.=.&.&.&.*.%.} h S f.C.Z.Z.Z.l.N.L.}.}.&XOX~.T.T.!.T.T.T.T.~.T.T.T.T.T.!.T.T.T.U.^.#X#X/.T.T.T.!.T.T.T.!.T.",
"=.&.&.&.=.&.=.&.&.=.&.&.&.*.*.O...g m Y f.C.C.Z.m.b.G.}.[.%XyXsX.XU.U.!.T.T.~.T.T.T.T.T.!.T.T.!.T.Y.T.OXhXhXOXT.Y.!.T.T.T.T.T.T.",
"&.&.&.&.&.&.&.&.&.&.&.=.&.*.*.O.d w x U B.~.Y.Z.m.n.x.W.=XaXmXsX.XT.T.Q.T.T.T.T.T.T.T.T.T.T.T.T.T.T.Y.OXhXhXOXY.Y.T.~.T.!.~.T.T.",
"&.&.&.&.&.&.&.&.&.=.&.=.&.*.*.#.s o ; ^ eXfX/.S.A.l.S V.:X>X=XXX^.T.T.T.T.U.!.T.T.!.T.T.T.T.U.U.T.T.T.^.#X#X~.T.!.T.T.!.T.!.T.T.",
"1.1.*.&.&.&.&.&.&.&.&.&.&.*.*.+.9     / bXCX#XQ./.L.3 H L.).$XXX~.T.T.E.^.~.~.Y.T.T.!.T.!.U.T.T.T.T.Q.U.F.n.U.~.!.!.Y.Y.Y.Y.T.T.",
"5.5.1.&.&.&.&.&.&.&.&.&.&.;.-.| w   = d.bXVXOX/.pX6XP = H K.uXsX.XT.T.~.].'.~.T.T.T.T.T.T.T.!.Q.T.T.T.c.Y Y c.~.!.U.A.A.A.A.T.T.",
"5.5.1.&.@.&.&.&.&.=.&.=.&.*.-.i o : W 7XcX>X!..XhXvX2XL L ` 5X4X).^.^.^.].]._.~.!.T.T.T.T.!.!.!.T.T.c.B.L N Y F.Y.Y.A.A.A.A.Y.T.",
"1.1.-.&.&.&.&.&.&.&.&.&.&.*.*.[ c / 8XvX:XU.Z.W.*X;XiX0X8X5XJ.).'.{.{.].^._.].'./.U.T.T.T.T.!.!.T.F.G L M m L B.U.A.I.Y.Y.Y.T.T.",
"*.&.&.&.&.&.&.&.&.&.&.&.&.*.*.| V a.9XtXE.v.v.T././.pXNXMX:XR.{.{.].].'.^._.].'./.T.T.T.T.U.G.H.x.G n m 5 : : R -X~.T.T.Y.T.T.T.",
"9.9.:.=.&.&.&.&.&.&.&.&.&.&.*.@.#.7.u.q.F.v.b.A.T.T._.#X#X_.^.^.^.~.^._.].]._./.T.T.T.Q.T.F.4X6XR n : m M : : ' yXaX/.T.T.T.T.Q.",
"r.r.,.=.&.=.-.1.-.&.&.&.&.&.&.-.;.*.-.>.F.Z.S.Z.Y.T.T.!.!.T.U.T.E.^.^._.].].~.U.T.T.T.T.T.F.P.6X2X' ' ' ' ) ] 2XvXNXpX*X*XOX~.E.",
"( ) r.,.#.1.4.5.1.&.&.&.&.&.&.-.*.%.{ l g.Z.S.A.Y.T.T.T.T.T.U.~.'.].].].^.~.T.T.T.T.T.T.T.U.F.J.6XxXzXxXxXxXxXvXMXCXVXBXBXsX|.E.",
") ) a.r.7.6.u.y.1.=.-.3.-.*.&.&.O.[ 0 D h.S.S.A.Y.U.T.!.T.T.T.~.'.+X+X'.~.T.T.T.T.T.T.T.T.T.T.U.wXNXNXNXNXBXCXNXBXBXBXBXVXhX|.E.",
") ) _ a.r.p.p.w.1.1.4.5.3.&.&.%.{ y o @ h.A.S.A.Z.D.Y.~.T.T.T.E.^.^.^.^.~.U.T.T.!.T.!.!.T.T.T.T.[.#XOXoXOX<XNXBXpX$X$X*X*XOX~.E.",
") _ _ _ ) r.0.8.4.3.8.8.<.*.*.O.{ t w q F x.M.Z.A.A.Y.U.U.!.T.T.U.T.T.T.Q.!.T.T.T.T.Y.T.Y.U.T.!.T.T.~.Q.Q.OXhXhXOXY.Y.T.U.T.E.U.",
") _ _ _ / C $.,.8.8.,.| @.*.&.&.O.{ [ p l F j.Z.A.Z.m.A.U.!.T.T.T.T.T.T.T.T.T.T.T.T.U.Q.Y.T.T.T.T.T.!.T.T.^.OXOX~.Y.Y.Y.Y.U.T.U.",
") ) ) / W B v [ ,.,.{ [ o.&.*.&.*.;.;.X.t j f.Z.A.A.M.A.Y.U.T.T.T.T.T.T.T.T.T.U.Y.~.oX=X*XOX~.T.T.!.T.T.T.T.Y.T.T.T.!.T.T.T.T.T.",
") ) / ! Q B h u u i | X.&.&.&.&.-.;.;.{ 8 k f.m.D.D.I.I.A.A.Y.T.!.T.T.T.T.T.T.U.Y.[.sXBXBXdX.XY.Y.Q.T.E.T.T.Y.Y.T.T.E.T.T.T.T.T.",
") ) W E E P h u u u { #.=.&.&.&.&.-.&.u o 3 B.W.T.S.Y.I.M.A.T.T.!.T.T.!.T.T.U.E.|.rXjXBXBXdX.XT.T.T.T.T.T.T.!.T.T.T.T.T.T.T.T.T.",
") ) W E E B h u u u i +.2.&.&.-.&.&.{ y x ^ 6XsX/.Z.Z.z.n.U.T.!.T.T.T.!.T.U.Y.XXsXjXpX$X#XOX~.T.T.T.T.T.!.T.T.!.Q.T.T.T.!.T.T.!.",
"~ / Q Q E B h u u u u f :.&.&.*.-...u c ^ 7XvXsX~.Z.C.h.c.T.!.!.T.T.T.T.T.T.U.OXgXhXXXU.Y.T.T.T.T.T.~.T.T.T.T.T.T.T.T.!.T.T.T.T.",
"W W Q Q Q P h u u u u z :.&.&.-.-.[ 8 B 3XmXrXW.A.Z.Z.h.c.!.T.!.!.T.T.T.T.T.U.^.#XoX~.Y.Y.Y.T.T.T.T.T.!.T.T.T.T.E.!.T.T.E.T.T.!.",
"P E Q Q Q C h u u u u $.:.&.&.&.O.t o N 3XeXU.v.v.A.Z.z.F.T.T.T.T.T.!.T.U.U.T.T.Y.Y.Y.T.Y.T.T.T.T.T.T.T.T.!.T.!.T.T.T.T.T.T.T.T.",
"P W E Q Q P h t u u u f :.&.&.%.{ g x M / T l.v.m.m.m.M.I.T.T.T.T.T.!.U.T.T.T.T.Y.Y.T.U.T.T.T.T.T.T.T.T.T.T.T.T.T.T.!.T.T.T.T.T.",
"P W E K K N h u u u u f :.-.3.<...g b x ; n N.~.Y.M.A.A.U.T.T.T.T.!.T.T.U.T.T.~.^.^.^.^.^.~.!.T.T.T.T.T.Q.T.T.E.~.T.T.T.T.T.T.T.",
"P E N Z 2 b 0 u u u u f :.1.5.6.=.o.a e X L 5XfX/.A.D.U.U.!.T.T.!.T.T.T.T.U.T.~.'.{.{.{.{.'.~.T.U.T.Y.T.T.T.T.!.T.T.T.T.T.T.T.T.",
"P K Z 2 > $ 0 u u u u f :.<.5.5.3.O.i 8 ; _ bXCX$XD.Y.T.T.T.T.T.T.T.T.T.T.Y.T.~.'.{.{.{.{.].^.^.^.^.^.~.~.T.T.T.T.T.T.E.T.T.T.T.",
"K Z Z 2 < $ r u u u u f :.-.1.1.;.X.[ 0 : d.bXCX#XD.T.T.T.U.T.T.T.T.T.T.E.T.T.~././.^./.^.`.].+X+X].+X'.~.T.T.T.T.T.T.T.T.T.T.~.",
"4 7 Z 2 1 $ r u u u u d +.&.&.&.*.O.{ y c a.6XaX/.D.Y.T.T.T.T.T.T.T.T.T.T.T.T.T.U.T.U.Q.T.E._.+X+X+X+X'.~.T.T.T.T.T.T.!.!.T.T.T.",
"4 7 Z 2 1 $ 0 i u u u d +.=.&.&.&.&.@.{ a I H.R.D.Z.Y.!.E.T.T.T.T.E.T.T.T.T.U.T.T.T.Q.Q.U.!./.^.^.^.^.^.~.T.T.T.T.T.!.T.T.T.U.T.",
"7 4 2 2 1 $ r u u i u s +.=.&.=.=.*.*.X.i l h.Z.Z.m.A.E.~.T.T.T.T.U.T.T.T.T.T.T.Q.U.c.F.~.T.U.T.T.T.T.T.T.T.!.T.T.T.T.T.!.T.T.U.",
"4 4 2 < < % 0 u u i u s +.=.=.=.=.-.-.o.s A h.b.S.b.m.E._.T.T.~.E.E.E.T.T.T.T.T.!.z.S B.W.Q.T.T.T.Y.T.T.T.T.!.T.T.T.T.T.T.T.T.U.",
"4 1 < < > % r u i u u p +.&.&.=.2.2.:.p . A h.m.D.b.b.T.^.T.T.~.^.^.~.T.T.~.oX@Xn.S   U -XOX~.!.!.T.T.T.T.T.T.T.T.!.T.!.T.T.T.T.",
"3 < < & < % r u u u u i #.&.&.*.=.:.l 8 o @ f.D.A.m.n.A.T.T.T.~.E.~.T.T.U.(.dXuXT     P cXsX.X!.T.!.!.T.T.T.T.T.T.!.T.T.T.T.T.U.",
"1 & < > < % r u u u u [ X.&.&.;.-.:.q X = k h.S.S.m.M.m.Y.T.T.T.T.T.T.T.U.W.qX5Xs.L P s.cXsX).Y.Y.U.Q.~.!.T.T.T.T.T.T.T.!.T.T.T.",
"1 & & > & % r u u u u [ o.&.&.*.-.} 8 X - J l.D.A.Z.A.I.U.!.T.T.T.T.T.U.U.U.F.P.5X0X0XvXpX.XU.m.A.A.U.E.E.T.T.T.T.T.T.T.T.T.T.T.",
"& & < > > % r u u u u i O.&.&.*.&.i e - : J k.l.b.I.|.OX~.T.T.T.T.T.T.U.U.T.T.F.qXNXNXaXW.Y.I.A.Z.A.Y.Y.Y.Y.T.!.T.~.T.T.T.T.T.T.",
"% & < > < % r u u u u i o.=.*.&.{ g x : : 5 n G l.T.sXdX.XY.T.Q.T.T.U.T.T.T.T.T.R.#XOX`.~.T.Y.Y.Y.U.A.Z.M.A.U.!.~.T.T.T.T.T.T.T.",
"1 < < < < % r u u u u i O.-.-...u w N M , - - J L.&XhXsX.XT.Y.!.T.T.U.T.T.T.T.T.E.T.E.E.T.T.T.~.!.Y.I.M.M.M.A.U.Y.Y.T.T.E.T.T.T.",
"1 + > > < % r i i u u i X.;.*.| 8 ; 5 M , * * P 6XgX>XOX~.T.T.T.T.U.T.T.T.!.E.T.T.T.T.T.T.!.!.!.~.T.Y.Y.Y.I.A.m.M.A.T.!.E.~.T.T.",
"# + + O + # r u u u u i o.*.@.i e = , : = = N 2XcXaX_.T.T.T.~.T.T.T.T.T.~.T.T.T.T.!.E.T.!.T.!.T.T.T.T.~.!.U.A.A.m.I.Y.!.E.E.T.T.",
"O O O O O # 0 u u u u [ @.O.{ g c 5 , * * J 2XcX;XE.T.Q.!.T.T.T.T.T.T.T.T.T.T.T.T.T.!.~.T.T.!.T.T.T.T.!.!.T.Y.Y.Y.U.T.E.T.T.T.T.",
"@ . . @ . . t u u u u i @.X.i h m 6 5 , K 1XiXrXT.A.Y.Y.U.Y.Y.Y.T.T.T.!.T.T.T.T.T.!.T.T.T.T.T.T.T.!.T.T.!.T.T.T.!.~.T.T.!.!.U.T.",
"9 9 9 q 9 9 t u u u u i @.X.i h m m 6 / 3XyX>X~.Y.Y.A.Z.m.A.A.I.Y.!.~.T.T.T.T.T.T.T.T.T.!.T.T.T.!.T.T.!.T.T.T.T.T.!.!.T.T.!.T.T.",
"u u i u i u u u u u u i o...u g c : 6 d.nXCXoXC.Y.T.A.A.A.M.m.A.T.!.T.E.T.T.T.T.T.T.T.T.T.Y.T.T.T.T.T.T.T.~./.!.~.T.T.T.T.T.T.T.",
"i i u i u u u u u u u i @.X.i t g c m d.nXVX.XC.Y.T.U.Y.U.A.U.U.T.T.T.T.E.T.T.T.T.T.T.T.T.T.T.T.!.T.T.!.T././.~.~.T.T.T.T.T.T.T.",
"i i i i i i i i i i u { #.@.{ [ i u V s.yXfX/.C.A.~.~.~.T.T.T.T.T.T.T.T.T.T.T.T.U.T.T.!.~.^.^./.~.T.T.T.!.Y.!.!.T.T.T.!.T.T.~.T.",
"@.X...O.o.o.o.O.@.o.@.O.&.&.O.@.#.X.#.q.H.~.D.b.m.~./.E.E.T.E.T.T.T.!.T.T.T.T.T.Q.T.T.~.'.+X+X'.~.T.T.T.!.U.U.~.!.T.T.Q.T.!.T.T.",
"1.=.-.1.-.&.&.&.&.&.&.&.&.&.&.=.2.-.*.>.F l.b.b.b.W.oX!.~.~.T.T.T.E.F.c.U.T.~.^.^.^.^.^.].+X+X'.~.T.U.T.T.T.Q.Y.Y.T.Y.T.T.T.!.T.",
"1.<.4.5.1.&.&.&.&.=.&.&.&.=.&.&.=.-.*.O.>.D h.b.C.R.oX~.^./.E.T.!.(.J.Y x.^.].+X{.{.+X].^.^.^./.T.T.T.T.T.T.Y.Y.Y.T.Y.T.T.T.T.T.",
"4.4.u.u.3.&.&.&.&.&.&.&.&.-.1.1.-.*.*.%...D j.m.S.U./.!.^.[.~.^.OXqX` , G H.=X,X+X{.+X'.~.T.Y.U.T.T.T.T.T.~.OX*X*X*X*XOX~.T.T.T.",
"u.u.i.u.1.&.&.&.=.=.&.@.&.1.5.5.1.&.&.%.%.>.F m.Z.A.T.T.~.~.~. XsXcX' : , K.yXhXoX_.^./.T.T.T.T.T.T.T.Y.T..XsXBXBXBXVXdX.XQ.T.T.",
"p.p.t.7.=.&.&.&.=.=.&.&.&.1.5.5.1.&.*.%.%.q.F.Z.Z.b.Y.T.T.T.T..XsXcX2X~ / 2XtX;X~.Y.!.T.T.T.T.T.T.T.T.T.T.|.sXBXBXNXVXjX$X!.Y.T.",
"i.t.,.o.@.&.&.=.&.&.=.&.&.-.1.1.-.&.*.%.{ >.g.Z.S.b.Y.T.T.T.T.~.XXpXcXzXzXuX(.E.T.T.T.T.T.T.T.T.T.T.T.T.U.~.OX*X*X<XNXkX*X~.T.T.",
",.,.| [ o.*.*.=.=.=.=.=.&.&.&.*.*.*.O.{ u D h.C.D.I.T.T.T.T.T.!.T._.aXNXNXpX^.U.T.T.!.!.T.T.T.T.T.T.T.T.T.T.T.U.Y.oXhXhXOX~.T.T.",
" .| | O.&.&.&.&.=.&.&.&.&.&.&.&.*.O.{ t 0 j h.T.;X:X).T.Y.!.T.T.T.!.[.#XOX$X^.Q.Y.T.T.T.T.T.T.T.!.T.T.~.T.T.U.Y.U.~. XXX~.E.T.T.",
" .{ O.*.*.=.=.=.&.=.&.=.&.*.&.&.#.o.[ t 8 S H.&XsXaX|.Y.T.T.T.T.T.T.!.T.Q.^.^.T.Y.T.T.U.T.E./.T.T.T.T.T.T.~.!.!.!.T.T.T.T.T.E.T.",
"o.O.&.-.=.&.&.&.&.&.=.=.=.-.=.@.| [ u 9 o H 4XtX;X}.R.U.T.T.T.T.T.T.T.T.T.!.~.T.Y.T.Y.Y.Y.^._.!.T.T.T.T.T.T.T.T.T.T.T.T.T.T.T.T.",
":.:.2.2.2.2.2.2.2.2.2.2.2.2.2.:.+.d f 0 w I 9XgX@XR.U.E.T.T.!.T.!.T.T.!.T.T.T.T.Y.T.T.Y.Y._.[.!.T.T.!.T.T.T.!.T.T.!.T.T.E.T.T.T."
};
