/* XPM */
static char *result[] = {
/* columns rows colors chars-per-pixel */
"64 64 200 2 ",
"   c #0070BD",
".  c #0071BD",
"X  c #0073BC",
"o  c #0072BD",
"O  c #0072BE",
"+  c #0076BF",
"@  c #0078BF",
"#  c #0076C0",
"$  c #0077C0",
"%  c #0078C0",
"&  c #0079C0",
"*  c #0078C1",
"=  c #0079C1",
"-  c #007AC1",
";  c #0078C2",
":  c #0079C2",
">  c #007AC2",
",  c #007BC3",
"<  c #007CC2",
"1  c #007CC3",
"2  c #007DC3",
"3  c #007CC4",
"4  c #007DC4",
"5  c #007EC4",
"6  c #007EC5",
"7  c #007FC5",
"8  c #007FC6",
"9  c #0080C6",
"0  c #0080C7",
"q  c #0081C7",
"w  c #0082C6",
"e  c #0082C7",
"r  c #0085C7",
"t  c #0086C6",
"y  c #0087C6",
"u  c #0080C8",
"i  c #0082C8",
"p  c #0083C8",
"a  c #0082C9",
"s  c #0083C9",
"d  c #0083CB",
"f  c #0084C9",
"g  c #0085C9",
"h  c #0086C8",
"j  c #0086C9",
"k  c #0087C9",
"l  c #0084CA",
"z  c #0085CA",
"x  c #0084CB",
"c  c #0085CB",
"v  c #0086CA",
"b  c #0086CB",
"n  c #0087CB",
"m  c #0085CC",
"M  c #0086CC",
"N  c #0087CC",
"B  c #0087CD",
"V  c #0088CB",
"C  c #0089CB",
"Z  c #008ACB",
"A  c #008CC8",
"S  c #008ECB",
"D  c #0088CC",
"F  c #0088CD",
"G  c #0089CD",
"H  c #008ACC",
"J  c #008BCC",
"K  c #008ACD",
"L  c #008BCD",
"P  c #0089CE",
"I  c #008BCE",
"U  c #008CCD",
"Y  c #008CCE",
"T  c #008DCE",
"R  c #008DCF",
"E  c #008ECE",
"W  c #008ECF",
"Q  c #008FCF",
"!  c #0093CD",
"~  c #0090CF",
"^  c #008FD0",
"/  c #0090D0",
"(  c #0091D0",
")  c #0092D0",
"_  c #0093D0",
"`  c #0093D1",
"'  c #0094D1",
"]  c #0094D2",
"[  c #0095D2",
"{  c #0096D2",
"}  c #0097D2",
"|  c #0096D3",
" . c #0097D3",
".. c #0099D2",
"X. c #0098D3",
"o. c #0099D3",
"O. c #0098D4",
"+. c #0099D4",
"@. c #0099D5",
"#. c #009AD4",
"$. c #009AD5",
"%. c #009BD5",
"&. c #009CD5",
"*. c #009DD6",
"=. c #009DD7",
"-. c #009ED7",
";. c #009FD7",
":. c #239DD3",
">. c #00A0D6",
",. c #00A0D7",
"<. c #00A0D8",
"1. c #00A1D8",
"2. c #00A2D9",
"3. c #00A3DA",
"4. c #00A5D9",
"5. c #00A5DA",
"6. c #00A5DB",
"7. c #00A7DA",
"8. c #00A8DA",
"9. c #00A9DA",
"0. c #00A8DB",
"q. c #00A9DB",
"w. c #00AADB",
"e. c #00ACDB",
"r. c #00A8DC",
"t. c #00A9DC",
"y. c #00AADC",
"u. c #00ABDC",
"i. c #00ABDD",
"p. c #00ADDD",
"a. c #00AEDE",
"s. c #00AFDE",
"d. c #00AFDF",
"f. c #11A1D7",
"g. c #10A3D8",
"h. c #00B0DF",
"j. c #00B1DF",
"k. c #29A5D8",
"l. c #2CA5D8",
"z. c #30A7D9",
"x. c #30A7DA",
"c. c #32A8DA",
"v. c #33A9DA",
"b. c #36A9DA",
"n. c #3AA9DB",
"m. c #3CABDB",
"M. c #3FABDB",
"N. c #00B1E0",
"B. c #00B1E1",
"V. c #00B3E1",
"C. c #00B3E2",
"Z. c #00B4E1",
"A. c #00B5E1",
"S. c #00B4E2",
"D. c #00B9E3",
"F. c #00BBE4",
"G. c #43AEDC",
"H. c #46AEDD",
"J. c #4AADDC",
"K. c #4CAFDD",
"L. c #4FAFDD",
"P. c #56B3DF",
"I. c #57B3DF",
"U. c #58B3DF",
"Y. c #59B3DF",
"T. c #58B4DF",
"R. c #60AFD9",
"E. c #59B3E0",
"W. c #64B7E0",
"Q. c #7EC1E4",
"!. c #7DC2E4",
"~. c #81C2E5",
"^. c #86C5E7",
"/. c #93C6E5",
"(. c #97C9E7",
"). c #9BCEEB",
"_. c #9DCFEB",
"`. c #9CCFEC",
"'. c #9BD0EC",
"]. c #9DD0EC",
"[. c #A2D2EC",
"{. c #A4D2ED",
"}. c #A6D3ED",
"|. c #A6D4ED",
" X c #ACD4EC",
".X c #AFD4EC",
"XX c #B7DBF0",
"oX c #B9DDF0",
"OX c #BFDEF0",
"+X c #C6E2F2",
"@X c #C9E5F4",
"#X c #CAE5F4",
"$X c #CBE6F4",
"%X c #CCE5F4",
"&X c #CEE7F5",
"*X c #CFE7F5",
"=X c #CFE8F5",
"-X c #CFE8F6",
";X c #D0E8F6",
":X c #D0E9F6",
/* pixels */
"T T T T T T T T T T Y U U Y T T T T T T T T T T T T T T T T T T T T T T T T T T T T T T T T T T T T T T T T T T T T T T T T T T ",
"T T T T T T T T T Y L K K L Y T T T T T T T T T T T T T T T T T T T T T T T T T T T T T T T T T T T T T T T T T T T T T T T T T ",
"T T T T T T T T T T U L L U T T T T T T T T T T T T T T T T T T T T T T T T T T T T T T T T T T T T T T T T T T T T T T T T T T ",
"T T T T T T T Y Y (  .%.#.] E G G L Y T T T T T T L D M M M M D L T T T T T T T T T T T T T T T T T T L N N L T T T T T T T T T ",
"T T T T T T T L L { 6.N.j.5.' H G U T T T T T T T U H F F F F H U T T T T T T T T T T T T T T T T T T U G G U T T T T T T T T T ",
"T T T T T T T L L [ 5.A.F.C.4.#.+. .( Y Y T T F M ( z.U.I.P.P.n.} L L T T T T T T T T T T T T T T L L o.M.M.o.L L T T T T T T T ",
"T T T T T T T Y Y W [ 4.S.D.Z.j.d.6.{ L L T T M M f.).*X*X&X&X].k.G F T T T T T T T T T T T T T T F G m.}.}.m.G F T T T T T T T ",
"T T T T T T T T T K K ' 3.d.j.j.j.6.{ L L L L ` x.Q.XX%X@X&X&X].k.G F Y L L Y T T T T T T T T T T F G m.}.}.m.G B T W Q Q W T T ",
"T T T T T T T T T L K E ] +.%.&.%. .( Y Y F G v.[.oX^.K.G.P.P.n.} L L Y U U Y T T T T T T T T T T L L o.M.M.o.L L T W W W W T T ",
"T T T T T T T T T T T T U L L L L U T T T F G M.|.{.c.c d F M N G G H ~  . .~ K L T T T T T T T T T T L G K T / ^ Y V f f n L Y ",
"T T T T T T T T T T T Y L K K K K L Y T T L L +.M.b.` x d c x M G G K  .7.7. .K K T T T T T T T T T T L N B L / ^ C 7 % % 7 D L ",
"T T T T T T T T T T T T T T T T T T T T T T T U G G L Y T /  .%.%.+.#.<.q.w.1.{ ^ Y Y T T T T T T T T E T L n v z p 4 % & 7 D L ",
"T T T T T T T T T T T T T T T T T T T T T T T L N N L L U { 6.h.j.h.h.0.*.,.t.7. .L L T T T T T T T T Q W D 7 % % 2 i z v n L Y ",
"T T T T T T T L N N L T T T T T T T T T T T T T T T T L L { 6.h.s.p.p.5.*.,.y.7. .L L T T T T T T T T Q W C 7 + O ; a B F F L T ",
"T T T T T T T U G G L T T T T T T T T T T T T T T T T Y Y (  .%.#.X.X.;.0.w.1.{ ^ Y Y T T T T T T T T E T L n p q s F I I L Y T ",
"T T T T T L L +.M.b.` x d D L T T T T T T T T T T T T T T U L Q [ O.+.1.u.7.| K K T T T T T T T T T T T T G M ) c.Y.Y.P.P.n.} ~ ",
"T T T T T F G M.|.{.c.c d H U T T T T T T T T T T T T T T K G _ 2.a.s.t.,.[ R K L T T T T T T T T T T T T M B g.'.;X=X&X&X].k._ ",
"T T T T T F G v.[.oX^.K.G.n.} L L T T T T T T T W Q Q W T L L { 6.N.N.5.' K K T T T T T T T T T T T T L L ` x.!.XX%X@X&X&X].k._ ",
"T T T T T L L ` x.Q.XX%X@X].k.G F T T T T T T T W W W W T Y Y (  .&.&.| W K L T T T T T T T T T T T T F G v.[.oX^.K.G.P.P.n.} ~ ",
"T T T T T T T M M f.).*X*X].k.G F T T T T E T L n f f V Y Q W T U L L U T T T T T L D M M D L T T T T F G M.|.{.c.c d F F H U T ",
"T T T T T T T F M ( z.U.I.n.} L L T T T T Q W D 7 % % 7 C Q Q Y L K K L Y T T T T U H F F H U T T T T L L +.M.b.` x d M M D L Y ",
"T T T T T T T T T U H F F H U T T T T T T Q W D 7 & % 1 i D U T E T T T T T T F M ( z.U.I.n.} L L T T T T U G G L T T T T T T T ",
"T T T T T T T T T L D M M D L T T T T T T E T L n v z q 3 6 n W Q T T T T T T M M f.).*X*X].k.G F T T T T L N N L T T T T T T T ",
"T T T T T T T T T T T T T T T T T T T T T T T T W / ^ N 6 6 n W Q T T T T L L ` x.Q.XX%X@X].k.G F T T T T T T T T T T T T T T T ",
"T T T T T T T T T T T T T T T T T T T T T T T T W ^ ^ U n n H T E T T T T F G v.[.oX^.K.G.n.} L L T T T T T T T T T T T T T T T ",
"T T T T T T T T T T T T T T T T W Q Q W T T T T T T T T W W T T T T T T T F G M.|.{.c.c d H U T T T T T T T T T T T T T T T T T ",
"T T T T T T T T T T T T T T T T W W W W T T T T T T T E W W E T T T T T T L L +.M.b.` x d N L T T T T T T T T T T T T T T T T T ",
"T T T T T T T T T T T T W ^ ^ Y V f f n L T E T T T T T T T T T T T T T T T T L N N G K K L Y T T T T T T T T T T T T T T T T T ",
"T T T T T T T T T T T T W / ^ C 7 % % 7 D W Q T T T T T T T T T T T T T T E T K M c G U U U T T T T T T T T T T T T T T T T T T ",
"T T T T T T T T T W Q U v p i 9 > + % 7 D W Q T T T T T T T T T T T T T T Y Y (  .%.%.&.%.| Q H G K K L Y T T T T T T T T T T T ",
"T T T T T T T T T Q Q C 5 $ # , q f g n L T E T T T T T T T T T T T T T T L L { 6.h.j.j.j.5.' H G L L U T T T T T T T T T T T T ",
"T T T T T T T E T L n j h t y S  .O.( K G L Y T T T T T T T T T T T T T T L L { 6.h.j.h.h.y.,.#.+.%.%. .( Y Y T T T T T T T T T ",
"T T T T T T T Q W v 5 r ..8.9.e.h.r. .L P U Y T T T T T T T T T T T T T T Y Y (  .%.%.+.#.,.y.h.h.j.h.6.{ L L T T T T T T T T T ",
"T T T T T T T Q W g 4 k >.B.V.j.h.y.,.$.@. .( Y Y T T T T T T T T T T T T T T T U L L G H ' 5.j.j.j.h.6.{ L L T T T T T T T T T ",
"T T T T T T T E T H v J { =.-.$.$.,.y.N.N.6.{ L L T T T T T T T T T T T T T T Y L K K G H Q | %.&.%.%. .( Y Y T T T T T T T T T ",
"T T T T T T T T T T W T Y L L G H ' 5.N.N.6.{ L L T T T T T T T T T T T T T T T T T T T T T U L L L L U T T T T T T T T T T T T ",
"T T T T T T T T T E W W U K K G H Q | &.&. .( Y Y T T T T T T T T T T T T T T T T T T T T Y L K K K K L Y T T T T T T T T T T T ",
"T T T T T T T T T T T T T T T T T T U G c M K T E T T T T T T T T T T T T T T T T T T T T T W Q Q W T T T T T T T T T T T T T T ",
"T T T T T T T T T T T T T T T T T T L G M N L T T T T T T T T T T T T T T T T T T T T T T T W W W W T T T T T T T T T T T T T T ",
"T T T T T T T T T T T T T T T T T L L +.M.b.` x d M M D L T T T T T T T T T T T T T T E T L n f f V Y ^ ^ W T T T T T T T T T T ",
"T T T T T T T T T T T T T T T T T F G M.|.{.c.c d F F H U T T T T T T T T T T T T T T Q W D 7 % % 7 C ^ / W T T T T T T T T T T ",
"T T T T T T T T T T T T T T T T T F G v.[.oX^.K.G.P.P.n.} L L T T T T T T T T T T T T Q W D 7 & % 4 p z v V Y ^ ^ W T T T T T T ",
"T T T T T T T T T T T T T T T T T L L ` x.Q.XX%X@X&X&X].k.G F T T T T T T T T T T T T E T L n v z p 4 % % 7 C ^ / W T T T T T T ",
"T T T T T T T T T T T T T T T T T T T M m f.`.:X:X-X*X_.k.G F T T T T T T T T T T T T T T T W / ^ C 7 % % 4 p z v n L T E T T T ",
"T T T T T T T T T T T T T T T T T T T F M ( c.E.T.I.U.n.} L L T T T T T T T T T T T T T T T W ^ ^ Y V v z p 4 % & 7 D W Q T T T ",
"T T T T T L N N L T T T T T T T T T T E T H f 0 0 s F Y W Q Q W T T T T T T T T T T T T T T T T T T W / ^ C 7 % % 7 D W Q T T T ",
"T T T T T U G G L T T T T T T T T T T Q W b :     ; a P W W W W T T T T T T T T T T T T T T T T T T W ^ ^ Y V f f n L T E T T T ",
"T T T L L +.M.b.` x d D L T T T T T T Q W D 7 % % 2 i v v g g n L T E T T T T T T T T T T T T T T T T T T T W W W W T T T T T T ",
"T T T F G M.|.{.c.c d H U T T T T T T E T L n v z p 4 - = = = 7 D W Q T T T T T T T T T T T T T T T T T T T W Q Q W T T T T T T ",
"T T T F G v.[.oX^.K.G.n.} L L T T T T T T T W / ^ C 7 = = = = 7 D W Q T T T T T T T T Y L K K L Y T T T T T T T T T T T T T T T ",
"T T T L L ` x.Q.XX%X@X].k.G F T T T T T T T W ^ ^ Y V g f g g n L T E T T T T T T T T T U L L U T T T T T T T T T T T T T T T T ",
"T T T T T M M f.).*X*X].k.G F T T T T T T T T T T T W W W W W W T T T T T Y L K K G H Q | &.&. .( Y Y T T T T T T T T T T T T T ",
"T T T T T F M ( z.U.I.n.} L L T T T T T T T T T T T W Q Q Q Q W T T T T T T U L L G H ' 5.N.N.6.{ L L T T T T T T T T T T T T T ",
"T T T T T T T U H G K I W W E T T T T T T T T T T T T T T T T T T T T L K W | %.&.+.#.,.y.N.N.6.{ L L T T L D M M M M D L T T T ",
"T T T T T T T L N M M G Y W E T T T T T T T T T T T T T T T T T T T T K K ' 5.j.j.h.h.y.,.$.@. .( Y Y T T U H F F F F H U T T T ",
"T T T T T T T W W U V g z C T W W T T T T T T T T T T T T T T T T Y Y Q { ,.i.h.h.j.j.5.' H G U T T T L L } n.P.P.P.P.n.} L L Y ",
"T T T T T T T Q Q C 7 % * 9 G W Q T T T T T T T T T T T T T T T T L L  .7.u.2.#.+.&.%.| Q G G L Y T T F G k.].&X&X&X&X].k.G F L ",
"T T T T T E T U D p 2 + X + 9 D E / / Y F M M M M D L T T T T T T L L O.0.7. .H G L L U T T T T T T T F G k.].&X&X&X&X].k.G F L ",
"T T T T T Q W n 6 5 e 9 @ X + 7 H ^ / Y K F F F F H U T T T T T T Y Y ) X. .~ H G K K L Y T T T T T T L L } n.P.P.P.P.n.} L L Y ",
"T T T T T Q W n 6 9 D H w - * 4 p u 8 J l.U.I.P.P.n.} L L T T T T T T Y U U Y T T T T T T T T T T T T T T U H F F F F H U T T T ",
"T T T T T E T H n V U T Z n z p 4 . o ! (.*X*X&X&X].k.G F T T T T T T Y L L Y T T T T T T T T T T T T T T L D M M M M D L T T T ",
"T T T T T T T T W E T T E / ^ N 5 < A R..X$X#X&X&X].k.G F T T T T T T T T T T T T T T T T T T T T T T T T T T T T T T T T T T T ",
"T T T T T T T E W W T T W ^ ^ N l :./. X~.L.H.P.P.n.} L L T T T T T T T T T T T T T T T T T T T T T T T T T T T T T T T T T T T ",
"T T T T T T T T E T T T T W W M N J.OX+XW.` ( X.X.[ ~ T Y T T T T T T T T T T T T T T T T T T T T T T T T T T T T T T T T T T T "
};
