/* XPM */
static char *result[] = {
/* columns rows colors chars-per-pixel */
"64 64 176 2 ",
"   c #040404",
".  c #0B0B0B",
"X  c #0E0E10",
"o  c #131312",
"O  c #181715",
"+  c #181817",
"@  c #1C1C1B",
"#  c #21201F",
"$  c #232322",
"%  c #292927",
"&  c #2B2B2A",
"*  c #31312E",
"=  c #343433",
"-  c #3A3836",
";  c #3B3C3A",
":  c #006B00",
">  c #007300",
",  c #007C00",
"<  c #0D7A04",
"1  c #0F7F08",
"2  c #137D07",
"3  c #187C05",
"4  c #187E09",
"5  c #344E37",
"6  c #3A443A",
"7  c #364E38",
"8  c #2D5B35",
"9  c #325C36",
"0  c #365038",
"q  c #39573B",
"w  c #00772C",
"e  c #116D30",
"r  c #107031",
"t  c #1C7C33",
"y  c #2C7C3E",
"u  c #3C793D",
"i  c #40403F",
"p  c #40543D",
"a  c #3D6B44",
"s  c #454544",
"d  c #494744",
"f  c #454B45",
"g  c #4A4A46",
"h  c #4D4D4B",
"j  c #504F4D",
"k  c #4D564B",
"l  c #53534E",
"z  c #525A4E",
"x  c #565452",
"c  c #585654",
"v  c #535A50",
"b  c #5B5A56",
"n  c #5E5D5A",
"m  c #605F5C",
"M  c #4C634C",
"N  c #466D49",
"B  c #576054",
"V  c #576C54",
"C  c #4C7653",
"Z  c #587458",
"A  c #61615E",
"S  c #656564",
"D  c #696763",
"F  c #676B64",
"G  c #6A6966",
"H  c #6C6C69",
"J  c #706E6C",
"K  c #657D63",
"L  c #687E64",
"P  c #73736E",
"I  c #737A6E",
"U  c #777670",
"Y  c #787771",
"T  c #7B7973",
"R  c #008500",
"E  c #008B01",
"W  c #00860D",
"Q  c #008B0C",
"!  c #009305",
"~  c #00960A",
"^  c #00990C",
"/  c #008D13",
"(  c #0B8912",
")  c #088F18",
"_  c #168611",
"`  c #009C13",
"'  c #00931E",
"]  c #009E19",
"[  c #16931A",
"{  c #258715",
"}  c #2D8716",
"|  c #238814",
" . c #218D18",
".. c #2D8E1C",
"X. c #00A20E",
"o. c #00A515",
"O. c #00A817",
"+. c #00A41C",
"@. c #00A91B",
"#. c #008425",
"$. c #008A25",
"%. c #008E2E",
"&. c #009622",
"*. c #009825",
"=. c #00922D",
"-. c #009C2B",
";. c #188137",
":. c #009533",
">. c #129638",
",. c #2D9823",
"<. c #319622",
"1. c #399726",
"2. c #369A25",
"3. c #399926",
"4. c #359D28",
"5. c #399E2A",
"6. c #358039",
"7. c #2F9B3A",
"8. c #00A422",
"9. c #00AD23",
"0. c #00AD2B",
"q. c #1BAC2E",
"w. c #00B126",
"e. c #00B22B",
"r. c #00B632",
"t. c #01B936",
"y. c #0CB937",
"u. c #05BB38",
"i. c #14BB39",
"p. c #23AD2F",
"a. c #3CA12D",
"s. c #25AE30",
"d. c #2EAE32",
"f. c #2FB134",
"g. c #2DBC3B",
"h. c #3CB136",
"j. c #3CB539",
"k. c #37BF3F",
"l. c #3BBB3D",
"z. c #409927",
"x. c #46AC35",
"c. c #41B138",
"v. c #4BB43C",
"b. c #4DB93F",
"n. c #53B63E",
"m. c #32C03F",
"M. c #2D8E45",
"N. c #338841",
"B. c #378548",
"V. c #309047",
"C. c #428C4D",
"Z. c #479D43",
"A. c #59835B",
"S. c #45BE41",
"D. c #4DBB42",
"F. c #56B640",
"G. c #55B942",
"H. c #5ABA43",
"J. c #37C241",
"K. c #3CC242",
"L. c #44C445",
"P. c #49C546",
"I. c #46C847",
"U. c #4DC648",
"Y. c #44C948",
"T. c #4ECA4B",
"R. c #53C649",
"E. c #59C549",
"W. c #54C94B",
"Q. c #5DCA4D",
"!. c #5BD052",
"~. c #65C94E",
"^. c #64CD51",
"/. c #65D355",
"(. c #6AD456",
"). c #74D157",
/* pixels */
"o.o.o.o.+.o.o.o.o.o.o.o.o.o.o.@.o.O.O.o.o.O.@.@.o.X.o.e.L.l.e.o.o.O.O.o.o.o.o.o.o.o.o.o.o.o.o.O.@.@.@.o.O.o.X.e.l.k.9.0.g.l.9.+.",
"o.o.o.o.o.o.o.o.+.o.o.+.o.o.o.@.9.9.@.o.o.@.9.@.o.o.@.t.I.J.9.o.@.9.O.o.o.o.o.o.o.@.o.o.o.o.o.o.9.w.e.9.@.X.o.@.d.p.9.9.p.d.9.@.",
"o.o.o.o.o.o.o.o.o.o.o.o.o.o.o.w.u.u.w.X.o.w.i.r.9.9.t.R.Q.g.9.9.r.i.9.o.o.o.o.o.o.+.o.o.o.o.o.9.r.L.L.t.9.o.o.` Q / ` ` / / ` o.",
"o.o.o.o.o.o.o.+.o.o.o.o.o.X.o.e.I.I.e.X.^ e.I.U.t.e.l.(.(.L.e.t.U.I.e.o.o.o.o.o.o.o.o.o.o.o.o.w.L.).).L.w.o.X.^ R E ^ ^ R R ~ ` ",
"+.o.o.o.o.o.o.o.o.o.o.o.o.X.o.e.I.I.e.^ o.e.L.Q.U.L.R.^.^.W.L.U.Q.L.w.o.X.o.o.o.o.o.o.o.O.X.o.0.L.).).L.9.o.X.o.~ ~ ^ o.^ ~ o.o.",
"o.o.o.o.o.o.o.o.o.o.o.o.o.o.o.9.d.d.9.o.o.+.p.H.~././.E.b.G.Q.~.H.s.+.o.o.o.o.o.o.o.+.o.o.X.o.9.r.L.L.r.9.o.X.o.O.O.O.O.o.@.o.o.",
"o.o.o.o.o.+.o.o.o.o.o.o.O.o.o.` / / ` O.o.^ W 3.H.(.(.v.,.4.G.H.5.Q ^ o.O.o.o.o.o.o.o.o.o.o.o.@.9.9.e.9.@.o.o.o.O.O.O.o.o.O.o.o.",
"o.o.o.o.o.o.o.o.o.o.o.o.o.O.O.^ R R ^ O.O.~ R W 5.n.n.3.< 4 4.a./ R ~ O.@.o.o.o.o.o.o.o.o.o.o.o.o.X.o.o.o.o.o.o.o.o.o.o.o.o.o.o.",
"o.o.o.o.o.o.o.o.o.o.o.+.@.o.O.o.~ ~ ` O.O.X.~ ! W { { 2 > : 2 / ~ ~ o.o.@.o.o.o.o.o.o.o.o.o.o.o.X.o.o.o.o.o.+.o.o.o.+.o.o.o.o.o.",
"e.9.o.o.o.o.o.o.o.o.o.o.o.o.o.o.@.O.o.o.o.O.@.^ R , , , , , , R ` o.O.o.o.o.o.o.o.o.o.o.o.o.o.o.o.o.o.o.o.o.o.o.o.o.o.o.o.o.+.o.",
"m.u.9.o.o.o.o.o.o.o.o.o.o.o.o.o.@.O.@.o.o.@.@.o.~ ! ! ! ~ ~ ! ^ o.@.o.o.o.o.o.o.o.o.o.o.o.o.o.o.o.o.+.o.o.o.o.o.o.o.o.o.o.o.o.o.",
"m.u.9.X.o.o.o.o.+.o.o.o.o.o.o.o.o.o.o.o.o.o.o.O.@.o.O.@.o.@.O.O.o.o.o.o.o.o.o.o.o.+.o.o.o.o.o.o.o.o.o.o.o.o.o.o.o.o.o.o.o.o.o.o.",
"w.9.@.o.o.o.o.o.o.o.o.o.o.o.o.o.o.o.o.o.o.o.o.@.o.@.@.O.@.@.@.@.o.o.o.o.o.o.o.o.o.o.o.o.o.o.o.o.o.o.o.o.o.o.+.o.o.o.o.o.+.o.o.o.",
"o.o.o.o.o.o.o.o.o.o.o.o.o.o.o.o.o.o.+.o.o.o.o.o.o.o.o.o.o.o.o.o.o.o.o.o.o.o.o.o.o.o.o.o.o.o.o.o.o.o.o.o.o.o.o.o.o.o.o.o.@.o.o.o.",
"X.o.o.o.o.o.o.o.o.o.o.o.o.o.o.o.o.o.o.o.o.o.o.o.o.o.o.o.o.o.o.o.o.o.o.o.o.o.o.o.o.o.o.o.o.o.o.o.o.+.o.o.o.o.o.o.o.o.o.o.o.o.o.o.",
"o.o.o.o.X.o.9.9.@.o.o.o.o.o.+.o.o.o.+.o.o.o.o.o.o.o.o.o.+.o.o.o.o.o.o.@.@.9.@.o.o.o.o.@.9.9.@.o.o.o.o.o.o.o.+.o.o.o.o.o.o.o.o.o.",
"o.o.o.X.o.9.t.i.w.o.X.o.o.o.o.o.o.o.o.o.o.o.+.o.o.o.o.o.o.o.o.o.O.o.o.w.u.u.9.o.X.o.o.9.u.u.w.o.o.o.o.o.o.o.o.+.o.o.o.o.o.o.o.o.",
"o.o.o.O.w.t.R.m.9.O.w.w.@.X.o.o.o.o.o.o.o.o.o.o.+.o.o.o.o.+.o.o.o.X.X.e.I.I.e.o.X.X.o.e.I.I.e.X.o.o.o.o.o.o.o.o.o.o.o.@.w.w.@.o.",
"o.X.o.9.t.Q.^.m.w.9.t.i.w.o.X.o.o.o.o.o.@.+.o.o.o.o.o.o.o.o.o.+.o.X.o.e.P.P.e.o.o.X.o.e.U.P.e.o.o.o.o.o.o.o.o.o.o.o.o.e.i.i.w.o.",
"o.o.o.@.d.H.~.I.t.r.h.f.9.o.o.o.o.o.o.o.o.o.o.o.o.o.o.o.o.o.o.o.o.o.o.@.d.d.9.o.X.o.o.@.d.d.9.o.o.o.o.o.o.o.o.o.o.o.o.@.f.c.e.w.",
"o.o.o.` ~ z.H.!.T.j.<./ ` O.o.O.o.o.o.o.o.o.o.o.o.o.o.o.o.o.o.o.o.O.O.` / / ` O.O.O.O.o./ / ` o.o.o.o.o.o.o.+.@.O.o.O.^ / <.h.l.",
"O.O.o.^ R W 5.n.F.5.W R ~ O.O.o.o.+.o.o.o.o.o.o.o.o.o.o.o.o.o.o.o.O.O.^ R R ^ o.@.O.o.^ R R ~ @.o.o.o.o.o.o.o.o.o.O.O.~ R ) b.Q.",
"o.O.O.X.~ Q W } } ( ! ^ ` o.o.o.o.o.o.o.+.o.o.o.o.o.o.o.o.o.o.o.o.o.o.o.~ ~ o.o.O.o.o.o.~ ~ ` o.o.o.o.o.+.o.o.o.o.O.o.^ ! 8.S.Q.",
"o.o.o.O.O.` E > , R ` O.O.o.o.o.o.o.o.o.o.o.o.o.o.o.o.o.o.o.o.O.o.o.o.o.O.o.o.o.o.o.o.o.O.O.@.o.o.o.o.o.o.o.o.o.o.o.o.o.o.9.s.x.",
"o.o.o.@.O.o.^ ! ! ^ o.o.O.o.o.o.o.o.+.+.+.%.a v v z z z l l k z v v z z v v v z B a :.8.8.8.o.o.o.o.o.o.o.o.o.o.o.o.o.O.O.o./ ( ",
"o.o.o.o.o.o.O.o.o.X.o.o.o.o.o.o.+.+.*.=.=.t k v x x x x x h i i j c c x x c c c n V M.:.:.-.+.o.o.o.o.+.+.o.o.o.o.o.o.@.O.^ R , ",
"o.o.o.o.o.O.O.O.o.o.o.o.o.o.o.o.O.*.a a N M l x x x x b c i # $ s n b c b b n n A S V C C B.-.o.o.+.o.o.o.o.o.o.o.o.o.@.o.o.^ ! ",
"o.o.o.o.o.o.o.@.w.w.@.o.o.o.o.o.*.;.V B c x x x x x x m m ;     - m m b b m m A S S S S S Z M.-.o.@.o.o.o.o.o.o.o.o.o.o.o.o.o.@.",
"o.o.o.+.o.o.X.w.i.i.w.o.o.o.O.*.y M x c x x x x x x x n S -     - m S n n m m S S S S S S G K C.-.@.o.o.@.o.o.o.o.o.o.o.o.o.O.O.",
"o.o.o.o.o.o.o.w.i.i.w.X.X.O.>.6.M x x x x x x x x c n b d & + $ h S S n m S G H H S S S S G P L V.:.o.o.+.o.o.o.o.o.+.o.o.o.o.o.",
"o.o.o.o.o.o.o.@.w.w.O.X.X.w.Z V v x x x x x x c b A A d $ O * h m m A n A S S H S S S S S S P Y A.A.o.o.o.o.o.o.o.o.o.o.o.o.o.o.",
"o.+.o.o.o.o.o.o.o.o.o.X.O.w.B b c x x x x x x b n c d & + & j n h i c S H n h h b S S S S G P T T U o.o.o.o.o.+.o.o.o.o.o.o.o.o.",
"o.o.o.o.o.o.o.o.o.o.o.o.o.@.c x x x x l x c b A A s # O & x S h # # s G G g # $ h S H S S S P Y Y P o.o.o.o.o.o.o.o.o.o.o.o.o.o.",
"o.o.o.X.o.o.o.o.o.o.o.o.o.o.z x x x x x c b b A A g $ @ = s s & + @ = d d & + $ h G H S S H P Y Y I o.o.o.o.o.o.o.o.o.o.o.o.o.o.",
"o.o.o.o.o.o.o.o.o.o.o.o.o.o.z x x x c c b b m m n b h = @ O X # - - # o o O = h m S D D H U U U Y I o.o.o.o.o.o.o.o.X.O.o.o.o.o.",
"o.O.9.9.@.o.o.o.o.o.o.o.o.o.v c x x x c b n n m n b h - @ X X = b h X     % x H J G G H Y Y Y Y Y I 9.@.O.o.X.@.w.w.@.o.o.o.o.o.",
"o.9.y.i.9.o.o.o.o.o.o.o.o.o.v c x x x x b n n m m g % # = s f c S s .   $ j S J U P P P Y Y Y Y Y I u.i.9.X.X.w.i.i.w.X.o.o.o.o.",
"e.t.W.L.w.o.X.o.o.o.o.o.o.o.k x x c c b n n A G S -     i J P H H h % & x H P H P Y Y U I Y Y Y H F L.L.w.o.9.e.c.d.9.o.o.o.o.o.",
"K.W.~.K.e.o.o.o.+.o.o.o.o.o.f g c m m m S S S H G ;   . i P U H S m b B H U U U P T T Y Y T Y H b l L.S.e.9.r.c.2./ ` o.@.o.o.o.",
"/.~.G.s.+.o.o.o.o.o.o.o.o.o.; s j b m A S S S H S h $ $ h G H G H J T T T U U U U Y T T T Y H n f 6 L.m.e.e.K.G.[ R ~ o.@.o.o.o.",
"~.H.3.Q ` o.o.O.o.o.o.o.o.o.6 ; i j n S G S H S D n h h n G P P J U T T T Y Y Y Y Y Y T Y J b s ; 6 L.J.e.e.L.P.8.~ ^ o.O.O.o.o.",
"x.a.W R ~ O.O.o.o.o.+.@.o.o.8 0 ; s x n n A H H J J P J H P Y T T T T T T T T T T Y J G D n d ; 5 9 d.p.@.8.p.d.9.o.o.o.o.o.o.o.",
"_ W Q ~ o.O.O.o.o.o.o.o.o.o.#.t q i s d s x S U Y Y Y T U Y U T T T T T Y Y Y T T H b h h f ; 5 w #./ / ` ` / / ` O.O.o.o.o.o.o.",
", E ^ @.o.o.o.o.o.+.o.o.o.o.o.*.u p ; - ; s A S G G G G G G G S G S H S D G S G G n s - - ; 7 r &.~ R R ` ^ E R ^ o.O.o.o.o.o.o.",
"~ ^ o.@.O.o.o.o.+.o.o.o.o.o.o.@.-.t 0 - ; i h h l h h h h j h j h h h h h h h k j d ; - - 0 w ' o.` ~ ^ o.^ ^ ~ o.o.@.o.@.o.o.o.",
"o.@.o.o.o.o.o.o.o.o.o.o.o.o.o.o.o.&.e 9 9 7 ; ; ; ; ; ; ; ; ; ; ; ; ; ; ; ; ; ; ; ; 0 8 8 e ' o.o.o.O.o.O.o.o.O.o.o.o.o.o.o.o.o.",
"O.O.o.o.o.o.o.o.o.o.o.o.o.o.o.o.o.^ $.=.7.N.7 ; ; ; ; - ; ; ; ; - ; ; ; ; ; ; ; - 5 w $.$.&.o.o.o.O.O.O.o.O.O.@.o.o.o.+.o.o.o.o.",
"o.o.o.o.o.o.o.o.o.o.o.o.o.o.o.o.o.X.] 0.D.Z.9 6 i 6 6 6 6 6 6 6 6 6 6 6 6 6 6 6 6 8 $.] ] 8.9.9.@.o.o.o.o.o.o.o.o.o.o.o.o.o.o.o.",
"o.o.o.o.o.o.o.o.o.o.o.+.@.o.o.o.o.o.X.e.P.I.w.` Q / ` @.O.o.o.o.o.o.o.o.o.o.o.o.o.o.o.o.o.9.y.u.9.o.X.O.o.o.o.o.o.o.o.o.o.o.o.o.",
"o.o.o.o.o.o.o.o.o.o.o.o.o.o.o.o.o.X.o.w.u.u.w.~ R R ^ O.@.o.o.o.o.o.o.o.o.X.o.o.o.o.o.X.o.e.I.I.e.o.X.o.o.o.o.o.o.o.o.o.o.o.o.o.",
"o.o.o.o.o.o.o.o.o.o.o.o.o.o.o.o.o.o.o.@.9.9.@.X.~ ~ ` O.@.o.o.o.o.o.o.o.o.o.o.o.o.o.o.X.o.e.I.I.e.X.o.o.o.o.o.O.o.o.o.o.o.o.o.o.",
"o.o.o.o.o.o.o.o.+.o.o.o.o.o.o.o.o.o.o.o.o.o.o.o.o.O.O.o.o.o.o.o.o.o.o.@.w.w.@.o.o.o.o.o.o.@.d.d.9.o.o.o.o.o.o.o.o.o.o.o.o.O.@.9.",
"o.o.o.o.o.o.o.o.o.o.o.o.+.o.o.o.o.o.o.o.o.o.o.@.O.O.O.o.o.o.+.o.o.o.X.w.i.i.w.X.o.o.o.o.o.` / / ` O.O.o.o.o.o.X.o.o.o.o.o.9.r.g.",
"o.o.9.9.@.o.o.o.o.o.o.o.o.o.o.o.o.o.o.o.o.o.o.+.o.o.o.o.o.o.o.o.o.o.o.9.d.c.e.9.O.o.o.O.o.~ R R ^ O.O.o.o.o.o.@.9.@.o.o.@.r.I.W.",
"o.9.y.i.9.o.X.o.o.o.o.o.o.o.o.o.o.o.o.o.o.o.o.o.o.o.o.o.o.o.o.o.o.O.o.^ / 2.c.t.w.o.X.O.O.o.~ ~ ` o.O.o.o.X.o.w.i.r.9.@.r.U.~.^.",
"e.t.W.Y.e.o.X.O.o.o.o.o.o.@.w.9.@.o.o.o.o.o.o.o.o.O.o.o.o.o.o.o.o.O.O.~ E [ G.I.r.X.o.o.o.o.O.O.o.O.o.o.o.o.o.e.I.I.r.r.K.^.^.^.",
"L.R.^.L.9.o.o.o.o.o.o.o.o.9.i.i.w.o.X.o.o.o.o.o.o.o.o.o.o.o.o.o.o.o.o.^ ! @.P.I.e.o.X.o.o.o.@.@.O.o.o.o.o.o.o.e.L.Q.U.L.E.^.^.~.",
"^.~.F.s.+.o.o.o.o.o.o.o.X.w.i.i.w.o.o.o.o.o.o.o.o.o.o.o.o.o.o.o.o.o.o.o.o.9.d.d.9.o.o.o.o.o.o.o.o.o.o.o.o.X.X.+.q.H.~././.E.D.v.",
"~.H.1.Q ` o.O.o.o.o.o.o.o.O.w.9.@.o.o.o.o.o.o.o.o.+.o.o.+.@.o.+.o.o.o.O.@.` / / ` o.@.o.o.o.o.o.o.o.o.O.o.o.o.~ Q 1.H.(.(.D.,. .",
"x.5.W R ~ o.O.o.o.o.o.+.o.o.o.o.o.o.o.o.o.o.o.o.o.o.o.o.o.o.o.o.o.o.o.@.O.~ R R ^ @.o.o.o.o.o.o.o.o.O.o.X.9.e.+.E W 2.n.n.5.3 > ",
"_ W Q ~ ` o.O.o.o.o.o.O.o.o.o.o.o.o.o.o.o.o.o.o.o.o.o.o.o.o.o.o.o.o.o.@.O.o.~ ~ o.o.o.o.o.o.o.o.o.o.o.o.o.e.i.u.+.E W | | 1 > : ",
", E ` O.O.o.O.o.o.o.o.o.o.o.o.o.o.o.+.o.o.o.o.o.o.o.+.o.+.o.o.o.o.o.o.o.o.o.O.o.o.o.o.o.o.o.o.o.o.o.o.o.o.8.f.j.r.o.E > , , , , ",
"~ ~ o.O.O.o.+.o.o.o.o.o.o.o.o.o.o.o.o.+.o.o.o.o.o.o.o.o.o.o.o.o.o.o.o.o.o.o.O.O.@.o.o.o.o.+.o.o.o.o.o.O.o.` / 4.h.r.o.! E ! ~ ~ ",
"^ o.o.O.O.o.O.o.o.o.o.o.o.o.o.o.o.o.o.o.o.o.@.+.o.o.o.o.o.o.o.o.o.o.o.o.o.o.O.o.o.o.o.o.o.o.o.o.o.o.o.O.o.~ R ..v.J.w.X.^ ` o.o."
};
