/* XPM */
static char *result[] = {
/* columns rows colors chars-per-pixel */
"64 64 197 2 ",
"   c #000000",
".  c #040905",
"X  c #150E02",
"o  c #001501",
"O  c #001A01",
"+  c #1A1301",
"@  c #150219",
"#  c #150419",
"$  c #281E00",
"%  c #002401",
"&  c #002B01",
"*  c #003408",
"=  c #1F3806",
"-  c #2F2404",
";  c #322806",
":  c #1C0621",
">  c #330A3C",
",  c #004B05",
"<  c #004A07",
"1  c #005705",
"2  c #005A07",
"3  c #006808",
"4  c #007300",
"5  c #007C00",
"6  c #057609",
"7  c #007B0D",
"8  c #157D07",
"9  c #1D442A",
"0  c #34533B",
"q  c #51410F",
"w  c #534210",
"e  c #5E4C13",
"r  c #66510E",
"t  c #3A0C43",
"y  c #451150",
"u  c #5E196B",
"i  c #601A6E",
"p  c #641C74",
"a  c #6B1F7B",
"s  c #5E2469",
"d  c #414542",
"f  c #48794F",
"g  c #4B6C5A",
"h  c #6C4979",
"j  c #6D4979",
"k  c #71487D",
"l  c #4F6461",
"z  c #576164",
"x  c #647068",
"c  c #81681E",
"v  c #8C7114",
"b  c #8B7A23",
"n  c #947923",
"m  c #997C24",
"M  c #8D7758",
"N  c #96497D",
"B  c #A76768",
"V  c #008501",
"C  c #008B01",
"Z  c #00850E",
"A  c #008B0D",
"S  c #009305",
"D  c #00960A",
"F  c #00990B",
"G  c #008C12",
"H  c #038A17",
"J  c #168D16",
"K  c #009517",
"L  c #009C13",
"P  c #278916",
"I  c #00A20E",
"U  c #00A515",
"Y  c #00A817",
"T  c #00A51B",
"R  c #00A91B",
"E  c #008A26",
"W  c #009927",
"Q  c #05883B",
"!  c #008D39",
"~  c #009536",
"^  c #299224",
"/  c #369925",
"(  c #399E2A",
")  c #00A222",
"_  c #00AD24",
"`  c #00AD2A",
"'  c #00B026",
"]  c #00B22B",
"[  c #00AB31",
"{  c #00B632",
"}  c #01B936",
"|  c #09B738",
" . c #05BA38",
".. c #14BB39",
"X. c #1DBB39",
"o. c #23AD2F",
"O. c #25AE30",
"+. c #2EAE32",
"@. c #3BA130",
"#. c #2DBA3A",
"$. c #3BB73B",
"%. c #409927",
"&. c #7D8122",
"*. c #689439",
"=. c #46AC35",
"-. c #47B43B",
";. c #53B63E",
":. c #32C03F",
">. c #028940",
",. c #168641",
"<. c #1C8444",
"1. c #208344",
"2. c #2C8945",
"3. c #00B548",
"4. c #15B851",
"5. c #2EAE53",
"6. c #2CBB59",
"7. c #3BB75A",
"8. c #3CBE61",
"9. c #508841",
"0. c #4B9950",
"q. c #49BB41",
"w. c #56B640",
"e. c #55B942",
"r. c #5ABA43",
"t. c #45B45A",
"y. c #62AC5C",
"u. c #40BE61",
"i. c #65B770",
"p. c #37C241",
"a. c #3CC242",
"s. c #44C444",
"d. c #49C546",
"f. c #4DC648",
"g. c #4AC949",
"h. c #53C649",
"j. c #55C74A",
"k. c #5DCA4D",
"l. c #5BD052",
"z. c #65C94E",
"x. c #64CD51",
"c. c #6ACF53",
"v. c #65D355",
"b. c #6AD456",
"n. c #74D157",
"m. c #52C26D",
"M. c #65C97A",
"N. c #87911C",
"B. c #9E8126",
"V. c #9F8128",
"C. c #969E25",
"Z. c #99933E",
"A. c #A38528",
"S. c #B5942E",
"D. c #BD9930",
"F. c #B8A033",
"G. c #CCAB29",
"H. c #CCAC2B",
"J. c #D4B32C",
"K. c #C6A132",
"L. c #CBA634",
"P. c #CDA933",
"I. c #D1AC36",
"U. c #D6B036",
"Y. c #D9B431",
"T. c #DDB439",
"R. c #E6BC3D",
"E. c #B9894D",
"W. c #BE9244",
"Q. c #B68450",
"!. c #7C1E99",
"~. c #7C2A8D",
"^. c #743E82",
"/. c #7D308E",
"(. c #7E2296",
"). c #7D2098",
"_. c #754181",
"`. c #8F3D86",
"'. c #812794",
"]. c #832895",
"[. c #87299A",
"{. c #8A2A9D",
"}. c #853395",
"|. c #8D2BA1",
" X c #854380",
".X c #9AB99C",
"XX c #8AD497",
"oX c #95D59E",
"OX c #9BD9A5",
"+X c #ABC9AB",
"@X c #C9EBCD",
"#X c #CEEDD2",
"$X c #D1EAD2",
"%X c #DBF1DE",
"&X c #DFF2E1",
"*X c #E4F4E5",
"=X c #FDFEFC",
/* pixels */
"U U U U U U U U U U U T U U U R R U R U U U U R U I U ] s.:.' U I Y U U U U U U U U T U U U U U R R R U Y I U ' $.#._ ' #.$.' _ ",
"U U U U U U U T U U U U U U U R _ _ R U U R _ _ U U R } d.:._ U R _ U Y U U U U U U U U U U U R _ ' ' _ R U I _ +.O.) _ o.+._ U ",
"U U U U T U U U U U U U U I U _  . ._ I I ' ..} _ _ } h.z.:.' R } .._ Y U U Y U U U U U U U U _ } s.s.} R Y U L G G U L G G L U ",
"T U U U U U U U U T U U U U U ] s.g.] I I ' s.f.} ] a.c.b.s.{ ] f.d.' Y I U U Y U T U U U U U ' s.n.n.s.' U U F C V F F C V F L ",
"U U U U U U U U U U U U U I U ] d.d.] I U ] s.z.f.s.j.x.x.j.7.d.k.s.' U I U U U U T U U U I U ' s.n.n.q.' U I U D F L I D D L U ",
"U U U U U U T U U U U U U U U _ +.+._ U U T o.w.z.v.v.j.-.e.z.z.r.o.T U U Y U U U U U U U U U _ } q.s.} R Y I U Y U Y Y U R U U ",
"U U U U U U U U U U U U U Y U L G G L Y U F A / w.b.b.;.^ ( r.k.( A F U Y U U U U U U U U U U R _ ' ' _ R U U U Y Y U Y Y R Y U ",
"U U U U T U U U U U U U U Y Y F V V F Y Y F V A ( ;.;./ V 8 ( %.G V F Y R U U U U U U U U U U U U I U U Y U U U U U U U U U U U ",
"U U U U U U U U U T U U U R       % 7 U U U F A A P P 8 4 4 8 G D D U U U U U U T U U U U U U U U U U U U U U U U U U U T U U U ",
"' _ R I U U U U U U U U U T       O Z U U Y R F V 5 4 5 5 5 5 V L U Y U U U U U U U U U U U U U U U U U U U U U U U U U U U U U ",
"p. ._ U U U U U U U U U U U       O 7 U U U R U D S S S D D D D U R U U U U U U U U T U U U U U U U U U U T T U U U U U U U T U ",
"#. ._ U U U U U U U T U U U & & & * 2 6 7 Z U U Y U R R U U Y U U U U U U U U U U U U U U U U U U U U U U U U U U U U U U U U U ",
"' ' R U U U U U U U U U U U 7 7 7 3 * O % , G U Y R R U R U R R Y U U U U U U U U T U U U U U U U U U U T U U U U U U U U U U U ",
"U U U U U U I U U U U U U U T U U H < .     , 6 7 7 7 A U U U U U U U U U U U U U U U U U U U U U U U U U U U U U U U U T U U U ",
"U U U U U U U U U U U U U U U U U U Z <     o O % % % , G U U U U U U U U U U U U U U U U U U U U U U U U U T U U U U U U U U T ",
"U U U U U U _ _ R U U U U U U U U U U K < % O o       o 2 7 7 7 7 A U U _ _ U U U U U R _ _ Y U U U U U U U U U U U U U U U U U ",
"U U U I I ' } ..' U I U U U U U U U U T E 7 6 ,         O % % % % , A `  . ._ U U I U ' |  .' U U U U U U U U T U U U U U U U U ",
"U U U R '  .h.:._ R R ] R U U U U U U U Y Y U A , O               o 1 W q.d.] U I U U ] g.f.' U U U U U U U U U U U U R ' ' R U ",
"U U I _  .j.z.:._ _ } ..' I U U U U U U U U U U G 1 O               o < @.g.' U I U I ' d.d.] U U U U U U T U U U U U _ ..| ' Y ",
"U I U R +.r.z.g. .] $.+._ U I Y U _ 3.4.[ U U U U H &                 O ^ +._ U U I U } i.z.' U U U U U U U U U U U U _ +.-.] _ ",
"U Y Y F G %.w.l.h.$./ G L U Y U T 4.OXOX6.U U U U Z &                 O 3 Z L Y Y Y U t.+X+X5.R U U T U U U T U Y Y U F K / $.$.",
"Y Y Y F C A ( ;.;.( Z V D R R [ 6.OX*X#X8.U U U H 2 O                 O , 3 3 G Y R Y t.$X*XoXM.U U U U U U U U U Y Y F V H -.z.",
"U Y U I F A A P P H A F I U ` 4.OX*X=X$X8.U U H < O                     O % % , G Y U 7.$X=X*X@XU U U U U U U U U Y U F D ) -.l.",
"U U U Y Y L V 4 5 C F R Y U _ 4.OX*X=X*XXX5.E 2 o       + ; ; ; ; ; ; +       o 1 E 5.XX*X=X&X@XU U U U U T U U U U Y I U R O.-.",
"U U U R Y U F S C F U Y Y U R [ 6.XX&X=X%X.X0 o       + r m A.n n B.m r + .     o 0 .X&X=X&XXXM.U U T U U U U U U U U Y Y U G H ",
"U U U U U Y U Y U U U U U U U U U 3.oX@X#X+Xd   + ; ; e S.T.T.L.P.T.T.S.e ; ; +   d +X#X@XoX3.R U U U U Y U U U U U U R Y F V 5 ",
"U U U U U Y Y Y U Y U U U U U Y U R 3.7.m.i.0 + e m V.A.K.T.U.U.I.U.T.K.A.m m r + 0 i.u.8.3.) U U U U U U T U T U U U R U I F S ",
"U U U U U U U R ' _ R U U U U I U U U U R >.9 $ v T.T.D.A.A.S.L.P.S.A.A.D.T.U.v - 9 >.U U U Y U U T U U U U U U U U U U U Y T Y ",
"U U U U U U U _ X...' U U I I U U U U U U H * - m R.R.A.w q m U.R.Z.w w A.R.R.m - * H U U U U U U U U U U T U U T U U U U Y Y Y ",
"U T U U U U U _ ....' I I R ' ' R U U U U H < = b T.T.c X X c T.R.r X X c R.T.b = , H U U Y T U U U U T U U U U U U U U U U U U ",
"U U U T U U U R ' ' Y I U ' X...' I U U U L Z 3 &.R.U.c X X c T.T.c + X r T.T.r 3 H L T U U U U U U U U U U T U U U U U U U U T ",
"U U U U U U U U U U U I U ' ....' U I U U U U G N.J.Y.m q w m U.U.n w e A.Y.R.C.G U U U U U U U T U U U U U U U U U T U U U U U ",
"U U U U U T U U U U U U U Y _ _ R U U U U T U U C.P.P.S.A.m S.L.P.S.A.m S.I.P.C.U U U T U U U U U U U T U U U U U U U U U U U U ",
"U U U I U U U U U U U Y U U U U U U U U U U U W *.Z.D.H.I.P.L.K.K.L.L.H.H.F.Z.*.) U U U U U U U U U U U U U U U U U U U U U U U ",
"U U U U U U U U U U U U U U U U U U U U U U U ) W 9.Z.H.J.I.L.K.K.L.I.J.G.Z.9.~ ) U U U U T U U U U U U U U U U U U U U U U U U ",
"U Y _ _ Y U U U U U U U U U U U U U T U U U U U ~ f M W.H.G.G.G.G.G.G.H.W.M f ~ U U U U U U U U U U _ _ U U U U _ ' R U U U U U ",
"Y _ ....' U I U U U U U U U U U U U U U U U U ~ l k `.B K.G.G.G.G.J.G.W.B N h l ~ U U U U U U U U _  ..._ I U _ ....' U U U U U ",
"'  .f.s.] U I Y U U T U U U T U U U T U U ) ! g ^.!.!.`.B B W.E.Q.E.E.B `.!.!.^.g ! W U U U U I U ' s.s._ U R ] =.+._ U U U U U ",
"a.h.z.a.' U U U U U U U U U U U U U U U U ! z _.].).!.(.`.N N N N N N  X'.).!.(.^.z ! U U U U U U ] s.s.' ' } $./ K F U R U U U ",
"v.z.e.O.T U I U T U U U U U U U U U U U U ,.j ].(.~.(.(.'.!.'.!.(.!.(.(.(.'.(.(.'.k <.U U U U I U ' s.:.] ] a.e.J V D Y R U U U ",
"z.w./ A F U Y U U U T U U U U U U U U U U 2.k '.'.'.'.'.!.!.!.!.!.!.!.!.'.'.'.'.'.k 1.L U U U U U ' s.p.] ] s.d.) F F U Y U U U ",
"=.@.A V D U R U U U U U U U U Y _ _ R U U Q j '.'.'.'.'.].].{.{.].'.'.'.'.'.'.'.'.j ,.U U U U U U _ +.o.R ) o.+._ U U U U Y U U ",
"J A A F U R U U U U U U U U U ' X...' U ) <.j '.'.'.'.'.'.'.[.[.].'.'.'.'.'.'.'.].j ,.U U U U U U L G G L L G G L Y Y U U U U U ",
"5 V F R U U U U U T U U U U I ' ..X._ U T 7 j '.'.'.].].].~.p p ~.{.[.'.'.'.'.'.'.j ,.U U U U U Y F V C L F C V F Y Y U U U U U ",
"D F U R Y U U U U T U U U U U Y _ _ Y U T Q j ].].'.'.[.[.p > > p {.{.'.'.'.'.'.'.j ,.U U U U U Y U D D U F F D U U R U U U U U ",
"U U U U U U U U U Y U U U U U U U U U T _ 2.j ].'.'.'.|.|.u @ . y a '.].].'.'.'.'.j ,.U U U U U U U U U Y U U R U U U U U U U U ",
"R Y R U U U U U U U U T U U U U U I U _ ..0.k '.'.'.'.{.{.u @   . t a {.[.'.'.'.'.j ,.U U U U U U Y Y Y U Y Y R U U U U U U R U ",
"U U U U U U U U U U U U U U U U U I U ] q.y.k '.'.].].(.a y #     @ p |.|.'.'.'.'.j ! U U R _ _ Y U U U U U U U U U T U U U U U ",
"U U U U U U U U U U U U U T U U U I U ' f.y.k '.'.{.[.a t #       @ i {.{.].'.'.'.j ! I U '  . .' U U U U U U U U U U U U U U U ",
"U U U U U U U U U T U U U U U U U U U [ 0.x k '.'.{.[.u @         # y a '.].].'.'.^.g ! W ] s.g.' U I U U U U U U U U U U U U U ",
"U U U U U U U U U U U U U U U U T U U ! x ^.'.'.'.{.[.u @           # t a ].[.].'./.^.z ~ ' d.d.] I I Y U U U U U U U U U U U I ",
"U U U U U U U U R U U U U U T U U U U 1.k '.'.'.'.{.[.u :             @ u [.{.'.'.'.'.^.1._ +.+._ U U U U U U U U U U U U U _ _ ",
"U U U U U U U U U U U U U U U U U U U 1.^.].].].'.{.[.u :             # u [.{.'.'.'.'.^.1.K G G L Y Y U U U U U U U Y I I _ } #.",
"U U _ _ Y U U U U U U U U U U U U U U >.h ~././.}.}.}.s :           . # s }.}././././.h ! D V V F Y Y U U U U R _ R U Y R } d.j.",
"U _ ....' U I U U U U U U U U U Y U U U U U U T I U U U Y U U U U U Y L K / -.} ' U U U Y U D D L Y Y U U U U ' ..{ _ Y } d.k.x.",
"]  .f.s.] U I Y T U U U U R _ _ R U U U U U U U U U U U U U U U U Y Y D C J ;.g.] U I U U U Y Y Y U U U U U I ] s.g.{ ' 7.x.v.x.",
"a.h.x.s.' U U U U U U U U _ ...._ U I U U U U U U U T U U U T U U Y U F S R d.f.' U U U U Y R R R U U U U I U ] s.k.f.s.j.z.x.z.",
"x.z.e.o.T U I U U U U U U ' ..X.' U U U U U U U U U U U R U U U U U U U U _ +.+._ U I U U U U U U U U U U I U U o.;.z.b.v.j.q.-.",
"z.w./ A L U Y U U U T U U R ' _ R U U U U U U U U U U U U U U U U U U Y R L G G L U Y U U U U U U U U U U Y U F D / r.b.v.;./ P ",
"=.@.Z V D Y Y U U U U U Y I U U U U U U U U U U U T U U U U U U U U U R Y F V V F Y R U U U U U U U U U Y R ] T C Z / ;.;./ J 4 ",
"J A A F U U U U U T U U U U U I U U U U U U U U U U U U U U U U U U U Y Y U D D L Y U U U U U U U U U U U _ X.| L C V P P 8 4 3 ",
"5 V F Y Y U U U U U U U U U U U R T U U U U T U U U T U U U T U U U U U U U Y U R U U U U U U U U U U U U _ +.$.} T C 5 5 5 5 V ",
"D D U R R U U T U U U U U U U U U U U U U U U U U U U U U U U U U U U U Y U Y Y R U U U U U U U U U U U U L D ( $.} T S C S D D ",
"F U U U R U U U U U U U U U U U U U U T U U U U T U U U T U U U U U U U U U U U U U U U U T U U U U U R Y D V P -.5.' F F U L U "
};
