/* XPM */
static char *result[] = {
/* columns rows colors chars-per-pixel */
"64 64 91 1 ",
"  c #006B00",
". c #007300",
"X c #007C00",
"o c #0D7A04",
"O c #0F7F08",
"+ c #137D07",
"@ c #187C05",
"# c #187E09",
"$ c #008500",
"% c #008B01",
"& c #00860D",
"* c #008B0C",
"= c #009405",
"- c #00960A",
"; c #00990C",
": c #008D13",
"> c #0B8912",
", c #088F18",
"< c #168611",
"1 c #009C13",
"2 c #16931A",
"3 c #258715",
"4 c #2D8716",
"5 c #238814",
"6 c #2D8E1C",
"7 c #00A20E",
"8 c #00A515",
"9 c #00A817",
"0 c #00A51C",
"q c #00A91B",
"w c #2B9722",
"e c #2F9924",
"r c #319622",
"t c #399726",
"y c #369A25",
"u c #399926",
"i c #359D28",
"p c #399E2A",
"a c #00A522",
"s c #00AD24",
"d c #00AF29",
"f c #1BAC2E",
"g c #00B126",
"h c #00B22B",
"j c #00B632",
"k c #01B936",
"l c #0CB937",
"z c #06BA38",
"x c #14BB39",
"c c #1DBB39",
"v c #23AD2F",
"b c #3CA12D",
"n c #25AE30",
"m c #2EAE32",
"M c #2FB134",
"N c #2DBC3B",
"B c #3CB136",
"V c #3CB539",
"C c #37BF3F",
"Z c #3BBB3D",
"A c #409927",
"S c #46AC35",
"D c #41B037",
"F c #41B138",
"G c #4BB43C",
"H c #4DB93F",
"J c #53B63E",
"K c #32C03F",
"L c #45BE41",
"P c #4EBB41",
"I c #56B640",
"U c #54B942",
"Y c #5ABA43",
"T c #37C241",
"R c #3CC242",
"E c #44C445",
"W c #4AC445",
"Q c #45C847",
"! c #4DC648",
"~ c #44C948",
"^ c #4ECA4B",
"/ c #53C649",
"( c #59C549",
") c #54C94B",
"_ c #5DCA4D",
"` c #5BD052",
"' c #65C94E",
"] c #64CD51",
"[ c #65D355",
"{ c #6AD456",
"} c #74D157",
/* pixels */
"888888088888088q999889qq878hERd888988888880888889qqq978hZCsdNZs0",
"888888888888888qssq88qsq88qkWCs8qsq888888888888qsggsq78qmvasvmsq",
"888888088888888szzg81sxksqk/_Nsskxs888888808888sjEEkg881*:18::18",
"088888888088878hQQg;7hW!khR[{EhkWQg888888888888gE}}Eg78;$$;;$$-1",
"888888888888878hWQg77gE_!E(]]/E!_Eg878888888878gE}}Es871--;8;-88",
"888888888888888smms88anY'[[(PP_]Yn0888888888888sjEEkq88999998q88",
"8888880888888881::1991&uY{{GwiUYp:;8q88888888880ssgsq88899988988",
"888888888889899;$$;9q=$&pJIto#ib:$-99888888888888788888888888888",
"8888888888880q91--1998-=&33+. @:*;79q888888888888888888888888888",
"gs88888888888889999888q;$XXXXXX$;q988888888888888888888888088808",
"Tzs8888888888889q9q889q8-===;---8q988888888888888888888888888888",
"Kzs888880888888888888888q8998q9888888888808888888888800888888888",
"gsq88888888888888808888q8qq9qqqq88888888888888888888888888888888",
"8888888788888888888888888888888888887888888888888888888888888088",
"7888888888888888880888888888880888888888888888888888808880888888",
"888888qsq88880888888888888888888888qss98888qssq88888888888888888",
"88877gkxs87888888888088888888888888gzzs8878gzzs88888888808888888",
"888qgk/Kg9sgq7888888888888088888878h!Qh8778hQQh888888888888qggq8",
"887sk_]Kgskxh7888888888888888088877gWQg8787hWWg888880888888gxxg9",
"888qMY'QkjBMs879888888q088888888888smms8788smms888888888888qMFhs",
"8881:AY`^Ve:189888088888888888888991::199998::1888888888899;:rBZ",
"999=$&pJYA&$=9q88888888888888888899;$$;8q99-$$-q88888080899=$,P_",
"8988;%&44:=-88q888888888888888888888--198888--1q88888888888;=aL_",
"8889q1$X.$199888888880888888888888889998888899988888888888888snD",
"888q98;=%;899888088888888888888888889998888qqq8888888888888998:>",
"8888898988888888888888888qssq98888888888888888888888808888899;$X",
"8888899989888888888888888gzzg8788878888888888888880q8888888q88;-",
"8888888qgsq87888888088878gWWh77qssq888888888888888888888888088q8",
"8888087gxxg87887888888887h!Wh77gzzg88888880888888808888808888899",
"8888888sxxg87qgsq88888888gzzg77hW!g8788888q880888888888088888888",
"8888888qggq77gxxg878888889sqq77hWWg88888880888880888888888888888",
"8088888887879gxcg88888888888879glzg88888888888888888808888888888",
"8888888888888qssq88088888888888qss988888888888880888888888888888",
"8878888888888888888808888888888888888888088808888888888888888888",
"8888888888888888888888888888888878888888888888888888888888888888",
"89ssq88888888888888888088888880888888888888888888qss887qsgq88888",
"9slxs88888888888888888888888888888808888888888888slxg78sxxg88888",
"gk/Qg87888888888888888888888888888888888888088878gEEg8qhFmq88888",
"R/]Eh88088888888888888888808888888888888888888887hEEggkVy:18q888",
"]'Uv888888888888888888888888888808888808888888878hEKghRU2$=9q888",
"'Yt&188988888888888888888888888888888888808888888hETggRWa=;89888",
"Sp&$=q988880888qssq888887qggq88888880888888888888smnssvMs9889888",
"<&=;89988888888sxxs888878sxxg78888808888q088888981::11::1q988888",
"X$1q98888888888sxcg87789shFms8788888888888888888q-$$;;$$;8988888",
"-;8q88888808888qssq8878gkVt:1888888888808888888888=-71;-89q88888",
"8888888888q88888888qsq8hEU2$=9q808888888888888888898998988888888",
"99q8888888888888778sxjshEWq=;9q8q8888888888888888999988q88088808",
"8888888888888888878gWQhqvms888888888088888888qssq888888888888888",
"8888888888808888878gWQg1*:1q98888888888888988gzzs879888888888888",
"8888888888888888888gzzg-$$;9q8888888888888878hWQh878888888888888",
"88888888q8888880888qssq7==88q8888888888888878hWWh788888988888888",
"888888888888888888888888q9888888888qggq788888qmms8888888888888qs",
"88888888888888888888888099q88888887gxxg7888891::1998888788878skN",
"88ssq888888888888888888888888808888smDhs88899;$$;998888qqs88qjW)",
"8slxs878888888888888888888888888898;:yFkg88891--1898878gxks0jW_]",
"hk)~g88888888qssq8888888888888888q9=$2/~h87888998898888hWQkjL][]",
"E/]Es88808888gxxg788888888808888888;=qWWh87888qq9888878hE_!E('_]",
"]'Unq88888888sxxs88888888888088888888smms888888888888870fU'{[_HG",
"'Yu*:99888888qsgs8888888888888888889q1::18q888888888888-*uY{{Ue2",
"Si&$-998888888888888888808888808888q9;$$;998888888888sg0$&iJJp@.",
"<&=-1998888888788888888888888888888q98=-8888888888888sxz0%$55O  ",
"X$1q9888888988888888088888888888888888988888888888888sMVj0%XXXX$",
"=-8q988088988888888888888880808888888899q88888888889q1:tVk0%%=--",
"188898888888888808888888888q8888888888998880888888898-X6GKg7;818"
};
