/* XPM */
static char *result[] = {
/* columns rows colors chars-per-pixel */
"64 64 99 2 ",
"   c #006B00",
".  c #007300",
"X  c #007C00",
"o  c #0D7A04",
"O  c #0F7F08",
"+  c #137D07",
"@  c #187E09",
"#  c #008500",
"$  c #008B03",
"%  c #00860D",
"&  c #008C0C",
"*  c #009305",
"=  c #009907",
"-  c #00960A",
";  c #00990C",
":  c #018C12",
">  c #0C8912",
",  c #008F18",
"<  c #168611",
"1  c #009114",
"2  c #009C12",
"3  c #009D19",
"4  c #13921A",
"5  c #258715",
"6  c #2D8716",
"7  c #238814",
"8  c #218D18",
"9  c #2D8E1C",
"0  c #00A20D",
"q  c #00A515",
"w  c #00A817",
"e  c #00A41B",
"r  c #00A91B",
"t  c #319623",
"y  c #329A25",
"u  c #399926",
"i  c #329D28",
"p  c #3B9E2B",
"a  c #00A423",
"s  c #00AE24",
"d  c #00B126",
"f  c #00B22A",
"g  c #00B632",
"h  c #00B935",
"j  c #0DB937",
"k  c #02BC39",
"l  c #15BC39",
"z  c #1CBB39",
"x  c #23AD2F",
"c  c #28AD2F",
"v  c #3CA12C",
"b  c #25AE30",
"n  c #2EAE32",
"m  c #30AD32",
"M  c #22B131",
"N  c #2EB134",
"B  c #25BC3A",
"V  c #2DBD3C",
"C  c #39B135",
"Z  c #3DB439",
"A  c #34BF3E",
"S  c #3BBB3D",
"D  c #409927",
"F  c #409B28",
"G  c #43A12D",
"H  c #46AC35",
"J  c #41B036",
"K  c #42B339",
"L  c #4BB43C",
"P  c #4CB93F",
"I  c #53B63E",
"U  c #52B83F",
"Y  c #2EC03F",
"T  c #32C03F",
"R  c #45BE41",
"E  c #4FBA40",
"W  c #56B640",
"Q  c #54BA42",
"!  c #5ABA43",
"~  c #60BC45",
"^  c #37C341",
"/  c #3CC342",
"(  c #45C545",
")  c #4BC546",
"_  c #46C847",
"`  c #46C648",
"'  c #4EC749",
"]  c #44C948",
"[  c #4DCA4B",
"{  c #54C749",
"}  c #5AC74B",
"|  c #54CA4B",
" . c #5BC94C",
".. c #5BD052",
"X. c #63C74E",
"o. c #64CD51",
"O. c #6ACA50",
"+. c #66D355",
"@. c #6BD456",
/* pixels */
"q q q q q q q r q q q e q q q q q q r r r q q q r r q q r f / A d q q r w q q q q q q q q q q q q q q r r w q s S V s s V S d a ",
"q q q q q q q q q q q q q q q q 0 r d d r q 0 q s r q q r h ' A s q s d r q q q q q e q q q q q 0 q s f d s r s c x s s b m s q ",
"q q q q q e q q q e q q q q q q q s l l d 0 0 s j g s r g {  .Y s s h l d 0 q q q q q q q q q q q s h ) ) k s 2 % 1 2 2 : : 3 2 ",
"e q q q q q q q q q q q q q q r s g K m s q s k ' ( g g ( @.o./ h g Z n s q q q e q q q e q q q r h { o.} k s = # # ; ; # # ; q ",
"q q q q q q q e q q q q q q 0 d k K p : 2 s k ' o.} ( (  .o.o.| ` Z t : 2 w w q q q q q q q q s j { o.{ h s q ; * = ; q - - q q ",
"q q q q q q q q q q q q q q q s N F : # * r N ! X.+.+.} P Q } o.! p % # * w w q q q q q q q 0 s l ) R h s q q q r w w q r q q q ",
"q q q q q e q q q q q q q w w 3 , > * = q ; 1 u W +.@.U t y P ! p : $ - q w q q q q q q q q q s s d d s q q 0 q w w q w w w q q ",
"q q q q q q q q q q q q q w w ; # # 2 r w - # % v P I u o @ i v : # = r q q q q q q q q q q q q q q q q q q q q q q q q q q q q ",
"q q q q q q q q q e q q q q w q = ; q w w q = & % 5 5 + .   + : & = q r r q q q q q q e q q q q q q q q q q q q q q e q q q q e ",
"w r s s r q q q q q q q e r q q w w q q q q r ; # X X X X X X # ; r w q q q q q q q q q q q q q q q q q q q q q q q q q q q q r ",
"r d l l d 0 0 q q q q q q q q q r w r e q w r q - * * * ; ; * = q r w q q q q q q e q q q q q q q q q q q e q q q q q q q q q q ",
"r d l l d q q q q q e q q q q q q q q q q q q q r q r r q q w r q q q q q q q q q q q q q q q q q q q q q q q q q q q q q q q q ",
"r r s d r q q q q q q q q q q q q q q q q q q r q r r w r r r w q q q q q q q q q q q q q q q q q q q q q e r q q q q q q q q e ",
"q q q q q q q q q q q q q q q q e q q q q q q q q q q q q e q q q q q q q q 0 q q q q q q q q 0 q q q q q q q q e q q q q q q q ",
"q q q 0 q q q q q q q q q q q q q q q e q q q q q q q q q q q q q q q q q q q q q q q q q q q q q q q q q q q q q q q q q q q q ",
"q q q q 0 q q r s r q q q q q e q q q q q q q q q q q q q q q q q q q q q r d d s q q q q r d d r q q q q q e q q q q q q q q q ",
"q q q q q q q d l h s 0 q q q q q q q q q q e q q q q q q e q q q q w 0 q s l l d q q 0 q s l l d q q q q q q r q q q q q q q q ",
"q q q r d r w d ^ { h d w q q q q q q q q q q q e q q q q q q q q q q w d g K m s 0 q w d h K m a q q q q q q e q q q q q r s s ",
"q q 0 s l h r d T o.| k s q 0 q w q q q q r q q q q q e q q q q q q q d k K u : ; q w d k K u : ; q w q e q q q q q q q q s h B ",
"q q q s N Z f k _ O.! c e q q q q q q q q e q q q q q q q q e r q q q s N G : # = q w s N G : # = w w q q q q q q q q q q s T { ",
"q w q ; : t Z [ ..! D : 2 q w q q q q q q q q q q q q q q q q w q w w 2 , > & = q w w 3 , > & = q q r q q q e q q q q q 0 d ( } ",
"q w r * # % v W I v % # - w w q q r q e q q q q q q q q q q q q q w w ; # # 2 r q q q ; # # ; r w q q q q q q q q q q 0 q d / | ",
"q w w q = & : 6 6 % $ = q q w q q q q q q q q q q q q q q q q q q q q q * = q r r q w q - - q r q q q q q q q q q q q 0 q s ^ | ",
"q q q w r 2 # X . $ 2 w w q q q q q q q q e q q q q q q q q q q q q q q w q q q q q q q w w q q q q q q q q q q q q q q q s c J ",
"q q q r r q - * $ = q w w q q q q e q q q q q q q q q q q q 0 q q q q q w w w q e q q r r w r q q q q q q q q q q q q q w 2 : > ",
"q q q q q w q w r w q q q q q q q q q q q q q q q q q q s s r q q q q 0 q q q q q q q q q q q q e q q q q q q e q q q r r ; $ X ",
"q q q q q q w w w w 0 q q q q q q q q q q q q q q 0 q s B z s q q q q q q q q q q q e q q q q q q q q q e r q q q q q r q q ; * ",
"q q q q q q q q q r d s r q q q q q q q q q q q q w s g T l s q 0 q s d r q q q q q q q q q q q q q q q q q q q q q q q q r q q ",
"q q q q q q q q q d l l s 0 q q q q q q q q q q q s l T g d w 0 0 s z z d 0 q q q q q q q q q q q e q q q q e q q q q e q q w w ",
"e q q q e q q q 0 s l l d 0 0 r s s r q q q q q q d z z s 0 0 w s g T l d 0 q q q q q q e q q q q q q q q q q q q q q q q q q q ",
"q q q e r q q q w r d d r 0 0 d l l s q q q q q 0 r d s w 0 0 d l T g s w q q q q q q q q q q q q q q q q q q q q e q q q q q q ",
"q q q q q q q q q q q q q q q d l l d q 0 q q q q q q q q 0 q s B z s q 0 q q q q r e q q q q q q r e q r q q q q q q q q q q q ",
"q q q q q q q q q q q q q q q r s s s q q q q q q q q q q q q r s s w 0 q q q q q q q q q q e q q q q q q q q q q q q q q q q q ",
"q q q q 0 q q q q q q q q q q q q q q q q q q q q q q q q q q q q q q q q q q q q r q q q q q q q q q r q q q q 0 q q q q q q q ",
"q q q q q q q q q q r q q q q q q 0 q q q q e r q q q q q q q q 0 q q q q q q q q e q q q q q q q q q q q q q q q q 0 q q q q q ",
"q q q r r s r q q q q e q q q q q q q q q q q q q q q q q q q q q q q q q q q q q q q q q e q q q q q r d s s r s s q q q q q e ",
"q 0 0 s j k s q q q q q q q e q q q q q e q q q q q q e q q q q q q q q q q q e q q q e q q q q q 0 q s l h s s h j d q q q q q ",
"w q r k { ) f q 0 q q q q q q q q q q q q q q q q q q q q q q q q q q q q q q q q q q q q q q q q q s f J x a d / _ d q q q q q ",
"r r h { o.( d q q q q q q q q q q q q q q q q q q q q q q q q q e q q q r e q q q e q q q q q q q d k Z y % = d ] ( f q q q q q ",
"s f ] O.~ b e q q q q q q q q q q q q q q q q e q q q q q q q q q q q q q q q q q q q q q q q 0 q f _ Q 4 # e h Z n r q q q q q ",
"s f ] ! D % 2 q q q q q q q q q q q q q 0 q q q q q q q q q q q q q q q q q e q q q e q q q q q q f ` R a 3 h K t : ; w w q q q ",
"r s n p : # * w r q q q q q q q q r s d r q q q q q 0 r d d r 0 q q e q q q q q q q q q q q q q q s n b s s M G % # * w w q q q ",
"q 3 : : & = q q r q q q q q q q q s l l d 0 q q q q 0 s l l d q q q r q q q q q q r q q q q q w q 2 : 1 2 q 1 > & = q q r q q q ",
"2 ; # # ; r w q q q q q q e q q q s l z d q 0 0 0 w d g J N s q q q q q q q q q q e q q q q q w q ; # # ; ; # # 2 r w q q q q q ",
"q 2 - = q w w q r q q q q q q q q r s s r q q 0 q d k K u : 2 w w q q q q q q r q q q q q q q w w ; = ; 0 q - ; q r r q q q q q ",
"q q r w q q q q e q q q q q q q q q q 0 0 w s d f h Z G : # - w w q q q q q q e q q q q e q q q q q w q q w q q q q q q q q q q ",
"q q r r w q q q q q q e q q q q q q 0 0 0 s j _ _ Z y % $ - 2 q q q q q e q q q q q q e q q q q q q r q q w w r w q q q q q q e ",
"q q q q q q q q q q q q q q q q q q q r s g V ) W p % # - r w q q q q q q q q q q q q q q q q r d d r q q q q q q q e q q q q q ",
"q q q q q q q q q q q q q q q q q 0 q d z Y h s 4 % & - q e w q q q q q q q q q q q q q q 0 q d l l d q q q q q q q q q q q q q ",
"q 0 q q q q q q q q q q q q q q q q q s z l d * # # 2 w w q w q q q q q q q q q q 0 q q q w d g Z N s q q q q q q q q q q q q q ",
"q q q q q q q q q q q q q q e q q q q r d d r = * - q q w q e q q q q q q q q q q q w q q d k K u : ; q w q q q q q q q q q q q ",
"s s r q 0 q q q q q e r q q q q q q q q 0 q q w w w q q q q w q q e q q q q 0 r s s r 0 q s N G : # = w r q q q q q q q q q q q ",
"B h s q 0 q q q q q q q e q q r q q q q q q q e w w w q q q q q q q q r q q 0 s l z s w 0 3 , > & = q q q q q q q q q q q q q q ",
"' A s w d d r q q q q q q q q q 0 q q q q q q q q q q q q q q q q q q q 0 w r h A l r w q - # # ; r r q q q q q q q r s q q s d ",
"{ T s s h l d 0 q q q q q q q q q q q q q q q q q q w q q q q q q q q q q d h V g d r w q q - - q r q q q q q 0 0 s j h s r g A ",
") / h f C m s q q q q q q q q r s d r q q q q q w q q w q q q e q q q q q f _ _ f 0 0 q q q w r q q q q q q q r d k ' ( g g (  .",
" .| _ K t 1 2 q w q q q q q q s l l s q q q q q q q q q q q q r q q q q q d _ ( d 0 0 q q q r r r q q q q q q s k ' o.{ ( ( } o.",
"o.o.! p % # * q r q q q q q q s l l s q 0 q q q q q q e q q q e q q q q q r n m s q q q q q q q q q q q q 0 0 e c I X.+.+. .E L ",
" .W u % $ - q q q q q q q q q r s d r q q q q q e q q q q q q q q q q q r 2 : : 2 q w q q q q q q q q q q q q 2 : D ! +.@.Q y 8 ",
"H v % # = r w q q q q q q q q q q q q q q q q q r q q q q q q q q q q r w ; # # ; q r q q q q q q q q q w r d e $ # i W Q p @   ",
"< % & = q w w q q q q q q q q q q q q q q q q q q q q q q q e q q q q w q q * - q q q q e q q q q q q q q s l j 3 $ # 7 7 O .   ",
"X $ ; r r q q q e q q q q q q q q q q q e q q q q q q q q q q q q q q q q w r q w q q q q q q q q q q q q s N Z g e $ X X X X X ",
"* = q r w q q q q q q r q q q q q q q q r q q e q q q q q q q q q q q q q w w w q q e q q q q q q q q w q 3 : y Z h e * * * ; ; ",
"q q q w r q e q q q q q q q q q q q q q q q q q q q e q q e q q q q q q q q q w r q q q q q q q q q q w q - # 9 L ^ f ; = 2 q 2 "
};
