/* XPM */
static char *result[] = {
/* columns rows colors chars-per-pixel */
"64 64 233 2 ",
"   c #371804",
".  c #2E2C07",
"X  c #3E2301",
"o  c #293700",
"O  c #2F351B",
"+  c #1A3C2E",
"@  c #451E05",
"#  c #4B270D",
"$  c #572A09",
"%  c #4D330C",
"&  c #5D311C",
"*  c #63371C",
"=  c #583725",
"-  c #423932",
";  c #673A24",
":  c #733F2A",
">  c #194A06",
",  c #065500",
"<  c #1B5605",
"1  c #085112",
"2  c #374502",
"3  c #354F0A",
"4  c #026C02",
"5  c #176400",
"6  c #007300",
"7  c #007D01",
"8  c #02790B",
"9  c #006A18",
"0  c #007810",
"q  c #2A6706",
"w  c #39670A",
"e  c #257308",
"r  c #286E11",
"t  c #07562E",
"y  c #2F4E2D",
"u  c #007829",
"i  c #00633E",
"p  c #007D39",
"a  c #43570C",
"s  c #584617",
"d  c #515516",
"f  c #466B16",
"g  c #564835",
"h  c #694524",
"j  c #73462C",
"k  c #6C5236",
"l  c #4F6821",
"z  c #453F41",
"x  c #0B4E4D",
"c  c #285155",
"v  c #00684F",
"b  c #236C4D",
"n  c #3B5D71",
"m  c #00726B",
"M  c #356379",
"N  c #5E4D46",
"B  c #4F504A",
"V  c #685347",
"C  c #6C574D",
"Z  c #7B6458",
"A  c #79785B",
"S  c #445C6A",
"D  c #486676",
"F  c #6F7274",
"G  c #8C5F53",
"H  c #8D6A56",
"J  c #8F7154",
"K  c #8D756A",
"L  c #987663",
"P  c #A07967",
"I  c #008302",
"U  c #008B01",
"Y  c #02870B",
"T  c #009303",
"R  c #009C03",
"E  c #009709",
"W  c #009B0C",
"Q  c #008417",
"!  c #008E12",
"~  c #1F8814",
"^  c #009C12",
"/  c #019419",
"(  c #00A502",
")  c #00A20E",
"_  c #00A515",
"`  c #00A916",
"'  c #00A41B",
"]  c #00AB1B",
"[  c #00B21C",
"{  c #009B23",
"}  c #059030",
"|  c #2A9725",
" . c #349A26",
".. c #00A324",
"X. c #00AC23",
"o. c #00A429",
"O. c #1EAD2F",
"+. c #00B027",
"@. c #00B22B",
"#. c #00A335",
"$. c #00AD34",
"%. c #00B836",
"&. c #07B835",
"*. c #11BC39",
"=. c #2AAC31",
"-. c #30AF32",
";. c #3AB237",
":. c #60903C",
">. c #4CB73E",
",. c #50B83F",
"<. c #05924B",
"1. c #28B847",
"2. c #3DB144",
"3. c #548D53",
"4. c #48BD41",
"5. c #4EBA49",
"6. c #39C242",
"7. c #42C243",
"8. c #48C647",
"9. c #59C84C",
"0. c #57C756",
"q. c #62CB50",
"w. c #63D355",
"e. c #71D055",
"r. c #8F905D",
"t. c #858575",
"y. c #B48978",
"u. c #005B8B",
"i. c #005C94",
"p. c #006B8D",
"a. c #006798",
"s. c #007A93",
"d. c #366E90",
"f. c #006CA6",
"g. c #017BA8",
"h. c #0062BA",
"j. c #006CBB",
"k. c #0074BE",
"l. c #0079B8",
"z. c #2C7FA4",
"x. c #4E748B",
"c. c #006DC1",
"v. c #0074C3",
"b. c #007CC3",
"n. c #0076CB",
"m. c #007BCB",
"M. c #149D92",
"N. c #0082B3",
"B. c #088CB3",
"V. c #0289BA",
"C. c #2B8CAE",
"Z. c #548AA2",
"A. c #5589A7",
"S. c #6991A6",
"D. c #0083C6",
"F. c #008AC6",
"G. c #0085CB",
"H. c #008DCE",
"J. c #009AC7",
"K. c #0092CE",
"L. c #1C9ACD",
"P. c #008FD0",
"I. c #0094D1",
"U. c #009BD4",
"Y. c #029DD8",
"T. c #199FD6",
"R. c #2A9DCE",
"E. c #00A1CA",
"W. c #00A1D7",
"Q. c #00A4D9",
"!. c #0DA0D9",
"~. c #00ACDC",
"^. c #12A1D7",
"/. c #1AA2D8",
"(. c #00B1DF",
"). c #33A0CF",
"_. c #24A4D8",
"`. c #2AA5D9",
"'. c #32A7DA",
"]. c #33A8DA",
"[. c #3BAADB",
"{. c #00B5E1",
"}. c #23AFE6",
"|. c #4FA9D6",
" X c #48AEDC",
".X c #48B2DE",
"XX c #55B2DE",
"oX c #5BB4DF",
"OX c #79ACC7",
"+X c #7EB1CB",
"@X c #66B3DA",
"#X c #77B5DB",
"$X c #5BB3E0",
"%X c #6ABAE3",
"&X c #73BDE3",
"*X c #7BC1E4",
"=X c #8F9092",
"-X c #AC988F",
";X c #BAAD9B",
":X c #8FA7B4",
">X c #A7AAAF",
",X c #A8A9A8",
"<X c #ABB3B9",
"1X c #B5B7BB",
"2X c #C2A49A",
"3X c #C7B1A9",
"4X c #BDD0AC",
"5X c #CBC1BB",
"6X c #8EB5CA",
"7X c #B2BBC3",
"8X c #8BCDD6",
"9X c #B6C3CB",
"0X c #B1C9D5",
"qX c #89C5E7",
"wX c #95CBE9",
"eX c #9CCFEB",
"rX c #9DD0EC",
"tX c #9BD8EF",
"yX c #8FC6F2",
"uX c #A7D4ED",
"iX c #B3D9EF",
"pX c #A9D4F0",
"aX c #BBDEF0",
"sX c #BFE0F3",
"dX c #D4CDCA",
"fX c #C6CCD7",
"gX c #CAD3D9",
"hX c #F2D8D0",
"jX c #FDE5DD",
"kX c #C6E1EF",
"lX c #C5E4F3",
"zX c #CCE6F4",
"xX c #D1EBFA",
/* pixels */
"H.H.H.H.P.H.H.H.H.H.H.H.H.H.H.H.H.H.H.H.P.H.H.H.P.H.H.H.H.H.H.H.K.H.H.G.b.U.pXdXy.k q Q / o.o.o.o.o.o.$.o...o.$.1.1.$.$.1.1.$.#.",
"H.H.H.H.H.H.H.H.H.H.H.H.H.H.H.H.H.H.H.H.H.H.H.H.H.H.H.H.H.H.H.H.H.H.H.F.v.P.qXgX;Xr.w I R ] ` ] X.+.+.X.] ) ) X.-.O.X.] O.=.X...",
"H.H.H.H.H.H.H.H.H.H.H.H.H.H.H.H.H.P.H.H.H.K.P.H.H.H.H.P.H.H.H.H.H.H.H.F.D.G.P.#XgX;X:.7 T ` ` ] %.6.7.%.X.` _ ^ Y ! ^ ^ ! ! ^ ' ",
"H.H.P.H.H.H.H.P.I.U.I.I.H.H.G.H.H.H.H.H.H.H.H.H.H.H.H.G.G.G.H.H.H.G.F.H.P.P.m.P.qX7X3.6 U ` ` +.7.e.e.7.X._ _ W I U W W I I W { ",
"H.H.H.H.H.H.H.I.Q.(.(.W.I.G.H.H.H.H.H.H.H.H.H.H.H.H.H.G.G.H.H.H.H.F.V.H.P.U.P.n.P.C.n 0 T ` ` +.7.e.e.6.+._ ) ^ E W W _ W W ^ ..",
"P.K.H.H.H.H.H.I.Q.{.{.(.W.U.U.I.K.H.H.H.H.H.H.m.G.P.[.oXoX[.I.H.H.H.G.H.P.Y.Y.c.h.i.x y Y ) ) X.%.7.7.%.] _ _ ` _ _ ` _ ` _ _ ..",
"H.H.H.P.H.H.H.P.U.Q.{.{.(.(.(.Q.I.H.G.H.H.H.H.G.G./.eXzXzXeXR.H.G.H.H.H.K.I.P.m.c.i.B s q U W ] +.+.+.] ] _ _ _ ` ` ] _ _ ` ` o.",
"H.H.H.H.H.H.H.H.H.K.Q.(.(.{.~.Q.I.H.H.H.H.I.[. X X*XiXzXkXeX`.G.H.K.V.N.K.H.H.P.P.A.Z h w 8 W ` ` ) _ _ _ _ _ _ _ _ _ _ _ _ _ o.",
"H.H.K.H.H.H.P.P.H.H.I.U.U.U.U.K.I.H.H.P.G.`.rXzXzXiX&XXX X[.J.K.H.L.x.x.R.F.G.W.qX1XL h O 9 / ` ) ^ _ _ _ _ _ _ _ _ _ _ _ _ _ o.",
"H.H.P.H.H.H.H.F.g.N.F.H.H.G.F.G.F.H.H.G.H.`.rXzXzXeX^.G.G.I.[.|.).Z.N C OX`.K.[.sXhXL # . 1 Q ] [ _ _ _ _ _ _ _ _ _ ' _ _ _ _ o.",
"H.H.H.H.H.H.K.g.D D g.H.H.H.H.G.H.H.H.H.H.I.[.XX$X].H.G.G.^.tXiX=Xz   C 9XwX!.].aXhXP $   > Y ` ` ` _ _ _ _ _ _ _ _ _ _ _ _ _ o.",
"P.H.H.H.H.P.V.D g C x.g.G.H.H.K.P.F.H.H.H.H.G.H.G.H.H.H.H.L.:X,XK k k -XgXqXU.U.qX0X2XG & 2 I ] ` _ _ ' _ _ _ _ _ _ _ _ _ ' _ o.",
"H.H.H.H.F.J.Z.V j j C D N.H.H.H.H.H.H.H.H.H.H.G.G.G.H.H.H.F.V.S.,X3X5XgXqX/.P.H.P.#XgX3XH s I ] ` ` _ _ ' _ _ _ ' _ _ _ _ _ ' o.",
"H.H.P.I.[.OXK j : j j - M g.C.B.F.H.H.H.H.P.H.H.P.H.H.P.U.W.(.E.qXlXlXtX~.I.P.G.j.I.8X4Xr.l Y ` ` ` _ _ _ _ _ _ _ _ _ _ _ _ _ o.",
"H.H.H.`.eXfXL j * j : * g F >X6XV.P.H.H.H.H.H.H.P.G.H.U.Q.~.Y.U.Q..X.X(.~.Q.U.D.v.N.M.6.-./ ^ ` ` _ _ _ _ _ ' _ _ _ _ _ _ _ _ o.",
"K.H.H./.wX9X=XV N C H L P -X<XS.N.P.H.H.H.H.H.P.H.H.H.I.Q.~.W.U.U.U.U.Y.Q.Q.K.G.n.s.#.( ( [ ] _ _ _ _ _ _ _ _ _ _ _ _ _ _ _ _ o.",
"P.H.H.I.'.#X6X1X<X=X>XdXhX1XZ.N.V.H.H.H.H.H.H.I.H.H.H.P.I.W.~.~.~.~.~.~.W.H.b.m.m.p.u U ( [ ` _ _ _ _ _ _ _ _ ] _ _ _ _ _ _ _ o.",
"H.H.P.G.H.`.eXzXxX0XiXzXkX+XF.H.H.H.H.H.H.H.G.G.H.H.P.H.H.I.Q.~.{.~.{.W.H.D.v.n.n.a.i < 7 ^ _ _ ` _ _ _ _ _ _ ' _ _ _ X.X.+.] ..",
"H.H.H.H.H.I.[. X XqXlXaX&XU.G.H.H.H.H.H.P.G.b.D.G.I.H.H.H.H.U.U.Y.Y.U.H.b.b.k.m.m.i.+ o 5 U ) ` _ _ _ _ ' _ _ _ _ _ _ X.*.*.X.o.",
"H.H.P.H.H.K.K.G.H.'.rXuX XH.H.H.H.H.H.P.H.H.b.b.D.G.G.G.G.H.H.H.H.H.H.G.b.b.b.l.g.m t 2 4 U ^ _ ] _ _ _ _ _ _ _ _ _ _ ] -.;.@.$.",
"H.H.H.H.H.H.F.H.G.I.]. XU.H.H.H.K.H.H.H.H.H.H.D.b.k.k.D.G.H.H.H.H.G.H.F.D.G.m.g.m u 8 I T W _ _ _ _ ' _ _ _ ' _ _ ` _ ^ ! | ;.1.",
"H.H.P.H.H.H.H.P.H.H.H.G.H.H.H.P.H.H.H.P.H.P.P.G.D.v.b.D.G.H.I.H.H.H.H.F.D.m.n.u.t 4 R [ ] ` _ _ _ _ _ _ _ _ _ _ _ ` ` E I ! >.0.",
"H.H.H.H.P.H.H.H.H.H.G.G.H.H.H.H.P.H.H.H.H.P.H.H.G.G.D.H.H.H.H.H.H.H.H.N.l.m.m.u.+ < U [ [ ] _ _ _ _ _ _ _ _ _ _ _ _ _ R W / >.0.",
"P.H.H.H.H.H.H.H.H.P.H.H.H.H.H.H.H.H.H.H.H.H.H.H.H.P.P.K.H.H.H.H.H.H.H.N.B.!.`.x.- o 6 _ ] _ _ _ _ _ _ _ _ ' _ _ _ _ _ _ ` X.O.;.",
"H.H.H.H.P.H.H.H.H.P.H.H.H.H.H.H.H.H.H.H.H.H.H.H.P.H.I.H.H.H.I.K.H.H.H.F.F.qXsX1XZ % 5 U ) _ ` _ ' _ _ _ ' _ _ _ _ _ _ ` ` ^ ! } ",
"H.H.H.H.H.H.H.H.H.H.H.H.H.H.H.H.P.H.H.P.H.H.K.P.H.H.H.H.H.H.H.H.H.H.H.G.H.@XaXgX;XK f 4 T ] ` _ _ _ _ _ ] _ _ _ _ _ _ ] ] W U 0 ",
"H.H.P.H.H.H.H.H.H.H.H.H.H.H.H.H.I.H.H.H.H.H.H.H.H.P.H.H.H.H.H.H.H.H.H.H.G.U. X%X0X;Xk > 7 ] ] _ _ _ _ _ _ _ ' _ _ _ _ ' _ _ W / ",
"H.H.H.H.H.H.H.H.H.H.H.H.H.P.P.H.G.G.H.H.P.H.H.H.H.H.H.H.P.H.H.H.H.H.H.H.P.I.P.H.+X2Xk 2 4 W ` ` _ _ _ _ _ _ _ _ _ _ _ _ _ ` _ o.",
"P.H.H.H.H.H.H.H.H.H.H.H.H.I.P.H.b.b.G.P.H.H.H.H.H.H.P.H.H.H.H.H.H.H.P.P.H.P.P.l.x.G j s q U W ` ] _ _ _ ' _ _ _ ' _ _ _ _ _ _ o.",
"H.H.H.H.H.H.H.H.P.I.U.I.H.D.D.b.b.b.G.P.P.H.P.H.H.H.H.H.H.H.H.H.H.H.H.G.H.U.Y.d.z # * d e U W _ _ _ _ _ _ _ _ _ _ _ _ _ _ _ _ o.",
"H.H.H.H.H.H.H.H.H.U.~.W.G.k.k.b.D.G.H.H.H.H.H.H.H.H.H.H.H.K.H.H.P.H.P.P.P./.wX<XV X 3 e ! W _ _ ] _ ' _ _ _ ' _ _ _ _ _ _ _ _ o.",
"H.H.I.H.H.I.H.H.G.H.U.W.K.F.F.F.U.U.P.H.H.H.H.H.H.P.H.H.H.H.H.H.H.H.G.P.P.'.aXhXH % < I R ] ] _ _ _ _ _ _ _ _ _ _ _ _ _ _ _ _ o.",
"H.H.H.H.H.P.H.H.b.b.F.K.W.Q.Q.Q.(.Q.I.H.H.H.H.H.H.H.H.P.H.H.F.G.H.H.H.H.H.[.kXhXP s < I R ] ` _ _ _ _ _ _ _ _ _ _ _ _ _ _ _ _ o.",
"K.H.H.H.H.H.P.G.D.k.k.G.W.{.{.{.(.~.W.U.H.P.H.H.H.H.H.H.H.K.H.H.H.H.H.H.I.oXuX7XA a 5 T W ` ` _ _ _ _ _ _ _ _ _ _ _ _ _ _ _ _ o.",
"P.H.H.P.H.H.H.H.G.G.D.G.I.U.Y.U.U.W.Q.Q.U.G.H.H.H.P.H.H.H.P.H.H.H.H.H.I./.%X$XC.b e U ^ _ ` _ _ _ _ _ _ _ _ _ _ _ _ ) _ _ _ _ o.",
"H.H.H.H.H.H.H.H.H.H.I.H.H.H.H.G.H.U.J.B.K.H.G.H.H.H.P.P.F.F.K.H.H.H.H.P.U.`.G.u.i 7 R ` ` ` _ _ _ ` X.X.] ) _ ] X.+.] _ _ ' _ o.",
"H.H.P.H.H.H.H.H.H.I.H.H.H.H.H.H.H.L.x.c f.P.H.H.H.H.H.H.K.K.I.H.H.K.I.H.H.P.v.i.x 9 T ] X.' _ _ _ X.*.&.X.) ) X.*.*.X.) _ _ _ ..",
"H.H.H.H.H.H.I.H.H.H.H.H.H.H.H.I.[.+XZ   c f.). XU.H.H.I.U.I.I.H.H.H.I.I.K.D.v.a.x 1 8 / ....` ) _ @.4.6.+._ X.@.;.-.X._ _ _ _ ..",
"H.P.H.H.H.H.H.H.H.P.H.H.P.H.H.`.eX9XZ   O F 9XrX`.H.H.K.I.I.I.H.H.H.I.U.H.v.j.i.+ . > u { ] ` ) _ @.8.6.+.+.%.;. .! ^ _ _ _ _ o.",
"H.H.H.H.H.H.H.H.H.K.H.H.H.H.H./.eX7XF - - Z :XOXK.G.H.H.H.H.H.H.H.H.P.U.F.n.v.a.c X . 1 / ] [ ) _ +.7.6.+.@.6.,./ 7 E ] _ _ _ o.",
"H.H.H.H.H.H.H.H.H.P.H.H.H.H.H.I.'.@X6X<X>X:XA.g.D.G.H.K.H.H.H.H.P.H.H.H.D.v.v.a.B $ @ > Y ] ] ) _ @.6.6.@.@.7.4...T W ` ` _ _ ..",
"H.H.H.H.H.H.F.H.F.H.H.H.H.P.H.G.G.`.rXlXzXiX*X.X X[.U.G.H.H.H.H.H.H.H.G.k.j.f.d.N * $ 2 7 ) ` ` _ ] -.O.X.] O.-.X._ _ _ _ _ _ o.",
"H.H.H.H.H.H.H.H.H.H.H.H.H.H.H.H.H.I.[. XXX&XiXzXlXrX`.G.H.H.H.P.H.H.H.G.v.f.S V = & * s e T ) ` ` ^ ! ! ^ ^ ! ! ^ ` ` _ _ _ _ o.",
"I.H.H.H.H.K.F.H.K.F.H.H.H.H.K.P.H.H.H.D.G.^.eXxXzXuX`.H.G.H.H.H.H.H.H.I.I.A.N $ $ = j h 3 4 T [ ] W I I W W U I W ] _ _ _ _ _ o.",
"I.I.H.H.H.F.H.H.H.G.H.H.H.H.H.H.H.H.H.G.G.P.'.$XoX XU.P.H.H.H.H.H.H.H._.wX<XC @ @ = : ; % , I ] ] _ E E ) ^ W E ) _ ` _ _ _ _ o.",
"H.H.K.H.G.G.G.H.H.H.H.H.P.H.H.H.H.H.I.H.P.H.D.D.D.D.G.P.H.I.H.H.H.H.H._.wXgX-Xk # # = & # 2 7 ^ ` _ _ _ ` _ _ ` ' _ _ ` _ _ _ o.",
"H.H.K.H.G.H.H.G.H.H.H.H.H.H.P.H.H.H.P.I.I.G.b.c.k.b.G.P.I.H.H.H.H.H.H.I._.*XfX;Xk @ @ & ; s r U W ` ` ` _ _ ] ` ` _ _ ' _ ' _ o.",
"H.H.G.U.[.XXoX'.I.G.H.H.H.H.H.H.H.H.H.H.H.G.b.b.b.b.D.G.G.G.H.H.I.H.H.H.H.U.qX0X=Xk = ; : k w 7 R ` ] _ _ _ _ _ _ _ _ _ _ ' ' { ",
"H.H.G.`.eXzXxXrX^.G.G.P.H.H.H.H.H.H.H.P.H.H.G.G.G.G.b.k.b.b.H.H.P.I.H.H.H.P.I.&X9X2XH ; j j w 7 R ` ` _ _ _ _ _ _ _ _ _ _ _ _ o.",
"H.G.H.`.eXlXuXwX*X'.P.H.H.H.H.P.H.H.K.H.H.H.H.P.I.G.b.b.v.D.G.H.H.F.H.H.P.G.j.'.xXjXy.: * d q 7 W _ ` _ _ _ _ _ ' _ _ _ _ _ _ ..",
"H.H.H.I.[.[.W.}.rXuX].P.G.H.H.H.H.P.H.H.H.H.P.I.I.H.G.G.D.G.H.H.F.F.H.H.H.m.h.`.xXjXy.h a q 4 7 E ] ] _ _ _ _ _ _ _ _ _ _ ' _ ..",
"H.H.H.H.H.G.P.U.&XpX XG.P.H.H.H.H.H.H.H.H.H.H.H.H.H.H.K.P.K.H.H.H.K.H.H.H.G.k.Y.yX9Xt.f 6 7 7 U ^ _ _ _ _ _ _ _ _ _ _ _ _ _ ] $.",
"H.H.H.H.G.G.G.G.).[.U.F.H.H.H.H.H.H.H.P.H.H.H.H.H.H.P.H.P.H.H.F.H.K.K.H.P.G.k.m.Y.C.<./ W / ^ ^ _ _ _ _ _ _ _ _ _ _ ` ) ) ] %.1.",
"H.H.H.H.H.P.H.H.H.H.H.H.H.H.H.H.H.H.H.H.H.H.H.H.H.F.g.V.H.H.H.H.K.I.I.H.P.D.v.j.f.m #.[ ] o.] ] _ _ _ _ _ _ _ ] X.X.` ) ] %.4.0.",
"H.H.H.H.H.H.H.H.G.H.H.H.H.H.H.H.P.H.H.K.H.H.H.H.H.g.S Z.R.H.H.I.!.U.I.I.K.v.v.f.v u ^ ` ] X.] _ _ _ _ _ _ _ _ X.*.%.+.] %.8.0.0.",
"H.H.P.H.P.H.P.P.P.H.G.G.H.H.H.H.H.H.H.H.H.I.].|.C.n = K +X].U.I.^.U.U.W.H.v.c.a.} U R _ _ _ _ _ _ _ _ _ _ _ _ +.7.8.%.@.2.q.w.0.",
"H.H.H.H.H.H.K.I.P.G.b.D.G.H.P.H.H.H.H.H.H._.rX9Xx.= $ L fXeX_.H.I.U.Q.Q.G.v.v.s.} R ( ` ` _ _ _ _ _ _ _ _ ) _ +.7.9.8.>.8.q.q.0.",
"P.H.H.H.H.H.G.G.G.D.b.b.D.H.H.P.P.P.H.H.G.I.@X6X-XL J -XfXrX`.H.H.I.Q.U.b.v.v.s.<.( ( ` ] _ _ _ _ _ _ _ _ ) _ _ O.5.q.w.w.9.>.2.",
"H.H.H.P.K.H.b.k.v.b.D.D.b.b.G.H.I.H.P.H.H.H.H._.9XhXdXgX8X'.U.H.H.I.I.H.k.n.n.s.p U ( ` ` _ _ _ _ _ _ _ _ ` ` W U  .,.w.e.,.| } ",
"H.H.H.H.P.G.D.k.b.D.G.H.D.b.D.G.D.m.D.I.`.`._.[.qXkXkXwXU.H.H.H.H.H.H.G.v.n.c.p.v 6 U ^ _ ` ] _ _ _ _ _ _ ] @.' U Y  .,.,. .I 8 ",
"H.P.H.H.H.H.H.G.D.H.H.H.H.D.b.v.b.k.D.^. XU.U.%X&X[.'.T.P.H.H.H.H.H.H.H.D.m.v.a.x 1 6 U ^ ` ] _ _ _ _ _ _ X.*.%.' U Y ~ ~ Y 6 4 ",
"K.H.H.H.H.H.P.P.P.K.H.H.H.G.D.G.K.H.I.^.I.G.I.%X XH.G.H.H.H.H.H.H.H.H.H.H.P.I.z.c > 5 7 T W _ ` ] _ _ _ _ X.-.;.@.' U 7 7 7 I 7 ",
"H.H.H.H.H.H.P.K.P.P.H.I.H.G.G. X@XI.I.I.H.G.U.[.U.H.H.H.P.H.H.H.H.H.H.H.K.Q.wX>XB o , 6 7 U W _ ] _ _ _ _ ^ / | ;.%.' T U E E / ",
"H.P.H.H.H.H.H.P.H.H.H.H.H.G.H.@X%XI.P.I.P.H.I.I.H.H.H.H.H.H.H.H.H.P.H.H.H.`.pX1XB o , 0 0 Q { o.o.o.o.o.o.} Q | 2.1.$.{ { ..{ #."
};
