/* XPM */
static char *result[] = {
/* columns rows colors chars-per-pixel */
"64 64 200 2 ",
"   c #000000",
".  c #0A0001",
"X  c #1D0106",
"o  c #150E02",
"O  c #001C01",
"+  c #051109",
"@  c #1A1301",
"#  c #001F18",
"$  c #30020E",
"%  c #271503",
"&  c #340310",
"*  c #3C0314",
"=  c #002101",
"-  c #002D02",
";  c #003017",
":  c #2B2304",
">  c #322806",
",  c #252E2B",
"<  c #430416",
"1  c #770D2E",
"2  c #004C04",
"3  c #1C4A09",
"4  c #005406",
"5  c #005A06",
"6  c #006B00",
"7  c #006C0B",
"8  c #007300",
"9  c #007C00",
"0  c #0E7D06",
"q  c #00730C",
"w  c #157D07",
"e  c #09701C",
"r  c #3D463F",
"t  c #007928",
"y  c #007435",
"u  c #51410F",
"i  c #534210",
"p  c #5E4C13",
"a  c #66510E",
"s  c #7B7D3E",
"d  c #3A3F40",
"f  c #005450",
"g  c #007B47",
"h  c #424243",
"j  c #8F1338",
"k  c #81681E",
"l  c #8C7114",
"z  c #8E7B23",
"x  c #937824",
"c  c #997C24",
"v  c #C21E4F",
"b  c #C61F51",
"n  c #C82052",
"m  c #D82259",
"M  c #E1235C",
"N  c #F42866",
"B  c #FF2C6F",
"V  c #FE336C",
"C  c #FF3D6A",
"Z  c #FF2572",
"A  c #FF2D72",
"S  c #FF3076",
"D  c #FF3179",
"F  c #9C6D49",
"G  c #857A41",
"H  c #967146",
"J  c #9B7349",
"K  c #A87347",
"L  c #CF515B",
"P  c #EA6B53",
"I  c #DB4D61",
"U  c #E44662",
"Y  c #FF4167",
"T  c #FB4D62",
"R  c #008500",
"E  c #008B03",
"W  c #00860D",
"Q  c #008C0C",
"!  c #009305",
"~  c #009907",
"^  c #00960A",
"/  c #00990B",
"(  c #008C12",
")  c #068815",
"_  c #0C8912",
"`  c #158C16",
"'  c #009113",
"]  c #009C12",
"[  c #009C1B",
"{  c #278916",
"}  c #399A1C",
"|  c #00A30E",
" . c #00A515",
".. c #00A817",
"X. c #00A41B",
"o. c #00AA1B",
"O. c #0B9525",
"+. c #309725",
"@. c #329A25",
"#. c #399926",
"$. c #3A9E2A",
"%. c #3F9E33",
"&. c #00A527",
"*. c #00AD23",
"=. c #00B126",
"-. c #00B22A",
";. c #00AF36",
":. c #00B532",
">. c #00B935",
",. c #0DB937",
"<. c #02BC39",
"1. c #15BC39",
"2. c #1DBB39",
"3. c #25AD2F",
"4. c #3CA12C",
"5. c #25AE30",
"6. c #2EAE32",
"7. c #30AD32",
"8. c #22B131",
"9. c #2DB134",
"0. c #2DBD3C",
"q. c #3AB538",
"w. c #3CB439",
"e. c #34BF3F",
"r. c #4B9B29",
"t. c #658637",
"y. c #43A12D",
"u. c #46AC35",
"i. c #41B339",
"p. c #49B43B",
"a. c #53B63E",
"s. c #32C03F",
"d. c #329750",
"f. c #00B345",
"g. c #32BA51",
"h. c #4BBB40",
"j. c #56B640",
"k. c #54BA42",
"l. c #5ABA43",
"z. c #60BC45",
"x. c #6BB575",
"c. c #37C341",
"v. c #3CC242",
"b. c #45C545",
"n. c #49C546",
"m. c #4EC749",
"M. c #48C949",
"N. c #55C749",
"B. c #5AC74B",
"V. c #55CA4B",
"C. c #5BC94C",
"Z. c #5BD052",
"A. c #63C94E",
"S. c #64CD51",
"D. c #6ACA50",
"F. c #66D355",
"G. c #6BD456",
"H. c #50C26B",
"J. c #63C778",
"K. c #9E8126",
"L. c #968C21",
"P. c #A38528",
"I. c #B5932D",
"U. c #B8942E",
"Y. c #B49632",
"T. c #BEAD2B",
"R. c #CD903D",
"E. c #D3923E",
"W. c #C2AB2D",
"Q. c #C6A232",
"!. c #CBA634",
"~. c #CCA933",
"^. c #D2AC36",
"/. c #CBB130",
"(. c #D5B136",
"). c #DDB439",
"_. c #E6BC3D",
"`. c #9B884F",
"'. c #AB8657",
"]. c #D98844",
"[. c #8CC17B",
"{. c #005380",
"}. c #00628F",
"|. c #006496",
" X c #006CB0",
".X c #0073BA",
"XX c #0078C3",
"oX c #76CC86",
"OX c #7ED08E",
"+X c #94B89E",
"@X c #B7BEB6",
"#X c #8AD090",
"$X c #A3DCAC",
"%X c #C2C6C6",
"&X c #C8EACD",
"*X c #CFEDD3",
"=X c #D3EED7",
"-X c #DAEDDA",
";X c #F4FAF4",
":X c #FCFEFC",
/* pixels */
" . . . . . .o. . . . . . . . . . . .o.o.o. . . ...o. . . .-.b.v.=. . .o... . ... . . . . .X. . . . . .o.o... .*.q.0.*.*.0.q.=.*.",
" . . . . . . . . . .X. . . . . . .o.=.=.o. . ...o.*. .| o.>.n.e.*. .*.=.o. . . .o. . . . . . . .|  .*.=.=.=.o.*.6.3.&.*.3.6.*. .",
"X. . . .X. . . . . . . . . . . . .*.1.1.=. .| o.,.>.*.o.:.m.S.0.*.*.>.1.=.|  . . . . .X. . . . . .*.>.n.n.<.*.] W ( ]  .( ( ] ] ",
" . . . . . . . .X. . . . . . .o.=.:.w.7.o. .*.<.m.b.:.:.b.G.S.v.>.:.q.6.*. . . . . . . . . . .o.*.>.N.D.V.<.o./ R E / / E R ^  .",
" . . . . . .X. . . . . . . . .=.<.i.#.( / *.<.m.S.B.b.b.C.S.S.N.b.w.+.) ]  . . . . . . . . . .*.,.N.D.N.>.*. ./ ~ ~ ] | ^ ~ ]  .",
" . . . . . . . . . . . . . . .*.9.y.) R ~ *.9.l.A.F.F.B.a.k.N.A.l.$.W R ~  ... . . . . . ./  .*.1.b.b.:.o. . ... ....... .o. .X.",
" . . . .X. . . . . . . . ... .] ( _ ! ~ ] ] ' #.j.F.F.k.+.@.p.N.$.( E ~  ..... . . . . . . . .*.*.=.-.*. . . . .o. ... ...o. . .",
" . . . . . . . . .X. . . ...../ R R ] ....~ R W $.a.j.@.0 w 4.4.( R ~ o. . . . . . . . . . . . . .|  . . . . . . . . . . . . . .",
" .|  . . . . . . . . . . .o. X.X.X}.y o... ./ E W { { w 8 6 w ( Q /  ...o. . . . . . . . . . . .|  . . . . . . . . . . . . .X. .",
"..o.=.*.o. . . . . . . . . .XXXX.X Xg  . ...o./ R 9 9 9 9 9 9 R / o... . . . . . . . . . . . . . . . . . . . . . . .X. . . . . .",
"o.*.1.1.*.|  . . . . . . . .XXXXXX{.e .. . ... .~ E ! ! / ^ ! /  .o... . . . . . . . . . . . . . . .X. . . . . . . . . . . . .o.",
"o.=.1.1.=. .|  .X.o. . . . .}.|.|.f ; 4 4 q ] .. .o.....o. ..... . . . . . . . . . . .X. . . . . . . . . . .o.X. . . . . . . . .",
" .o.=.*.o. . . . . . . . . .g g g f #     O q ..o.o..... .o.o. ... . . . . . . . .X. . . . . . .X. . . . . . . . .X. . . . .X. .",
" . . . . . . . . . . . . .X. . . .t #       = 4 4 5 5 q  . . . . . . . . . . .|  . . . . . . .|  . . . . .X. . . . . . . . . . .",
" . . . . . . . . . . . . . . . . .[ e O               O q o. . . . . . . . . . . . .o. . . . . . . . . . . . .X. . . . . . . . .",
" . . . . .|  .o.*.o... . .X. . . .X.X.) =               - 5 5 5 5 q ]  . .o.=.=.o. . . . .o.=.=.o. . . . . . . . . . . . . . . .",
" . . . . .|  .=.1.>.*.|  . . . . . . .X.t 4 2 =                   O q  .| =.1.1.=... .|  .=.1.1.=. . . . . . . . . . . . . . .| ",
" . . .o.=.*...=.c.N.<.=... . . . . . . . . . .q O                   - 7 [ :.w.6.o.|  .o.=.:.w.6.*. .|  . . .X. . . . . . .o.*.=.",
" . .| *.1.>.o.=.s.S.N.>.*. .|  . .X. . . . . . .q -                   O t i.#.( ]  .| =.<.i.#.) ]  . . . . . . . . . . . .*.>.0.",
" .|  .*.9.w.-.<.b.D.l.6.X. . . ...-.J.J.f. . . .o.q                   . e y.) R ~  . .g.#X[.#.R ~ .... .X. . . .X.o. . . .=.s.B.",
" ... .] ( +.w.M.Z.l.r.( ]  . . . .J.-X-XoX . . .X.7                     4 _ Q ~  . ...oX-X-Xx.[ ] ..o. . . . . . . . . .| =.b.B.",
"......! R W 4.l.a.4.W R ~ ..*.f.oX=X:X;XOX . .] q -                     = 2 4 q  . . .#X;X:X-X$X.. . . . . .X. . . . .|  .=.v.V.",
" . . . .^ ! ( { { W Q ~ |  .;.J.-X:X:X;XOX . .q O                             O q  . .oX;X:X;X;X.. . . . . . . . . . .|  .*.c.V.",
" . . ...o.] R 8 8 E / o... .;.J.-X:X:X:X&Xx.y -         @ > > > > > > %         - y x.&X:X:X:X;X . . . . . . . . . . . . .*.3.i.",
" ... .o... .^ Q ! /  ..... .*.f.oX&X;X:X;X@Xr         @ a c c x x K.c a @         r @X:X:X:X&X$X . . . . . . .X. . . . ...] ( _ ",
" . . . ... ..... . .|  . . . . ...H.*X;X;X%Xh   @ > > p I._.).^.~.).).I.p > > @   h %X;X;X*XH.&. . . . . . . . . . . .o.o./ E 9 ",
" . . . . . . ....... . . . . . . .*.H.OX$X+X, @ p L.K.P.!.).).(.^.).).!.P.K.c a @ d +X#XOXH.*. . .X. . . .X. . . . . .o. . .~ ! ",
" . ... . ... . . .o.*.=.o. . . . . . . .o.d., % l (.).R.P.c I.!.!.U.K.K.U.).(.l : , d. . . . . . . . . . .o. . . . . . . .o.X. .",
" . . . . .X. . . .=.2.1.=. . . . . . . . .t + : c _._.P.i u c (.(.c u i P._._.c : + t X. . . . . . .X. . . . . . . . . . . .....",
" . . . . . . . .| =.1.2.=.| | o.*.*.o. .| 7 O : l )._.x o o k ).).k o o k _.).x : O 7 ] X. . .X. . . . . . . .X. . .X. . . . . .",
" .X. . . . . . . .o.=.=.o.| | =.1.1.*.|  .' 7 3 z _.).a o o k )._.a o o k ).).z 3 7 '  . . . . . . . . . . . . . . . . . . . . .",
" . . ... . .X. . .|  . .|  . .=.1.1.*. .|  . ._ L.(.(.c u u c (.).P.u u c (.(.L._  . . . . . . . .o. . . . .o. . .X. . . . . . .",
" . . . . . . . . . . . . . . .o.*.*.o. . . . .r.I./.~.U.c P.I.~.^.Y.K.P.I.~.~.I.} .... . . . . . . . . . . . . . . . . . . . . .",
" . . . .|  . . . . . . . . . . . . . . . . . .r.Y.R.Q.W.~.~.!.W.Q.!.~.~.W.Q.].Y.r. ... . . ...X. . . . . . . . .|  . . . . . . .",
" . . . . . . . . . . . . . . . . . . . . . . .[ t.K R.W./.^.!.R.R.~.^./.W.].K t.O. . . .X. . . . . .X. . . . . . . . . . . . . .",
" . .| o.o.*.o. . . . . .X. . . . . . . . . .X.X.t.K P E.W.W.T.W.T.T.T.W.E.P K t.X. .X. . . . . . .|  ...=.=.o.o.*.*. . . . . . .",
" . .| *.,.<.=. . . . . . . .X. . . . . . . . .t.U A C P E.T.T.W.W.T.W.E.P Y V I t. . . . . . . . . .| *.1.<.*.*.>.,.=. . . . . .",
" . .o.<.N.n.=. . . . . . . . . . . . . ...O.G L A Z Z C P ].].].].].].P Y Z Z A L s O.X. . . . . ...*.-.w.3.&.=.v.M.=. . . . . .",
"o.o.>.V.S.b.=. . . . . . . . . . . . . . .s U V V Z Z B C T T T T T T Y B Z Z B V U s  . . . . . .=.,.i.#.W / =.b.M.-. . . . . .",
"o.-.b.D.z.5.X. . . . . . . . . . . . . . .F V B B B B Z B B Z Z Z Z Z B A B B B A V F  . . . . . .-.M.a.` E X.:.w.5.o. . . . . .",
"o.-.b.l.y.( ]  ... . . . . . . . . . . . .F V B B B B Z Z Z Z Z Z Z Z Z Z B B B B V J  . . . . . .-.b.h.&.X.:.i.+.( /  ... . . .",
"o.=.9.4.W R ~  .o. . . . . . . . .o.=.*.o.J V B B B B B B S A S B B B B B B B B B V H  . . . . . .*.6.8.*.*.8.y.W R ~ .... . . .",
" .[ ( W E ~ ] ..o. . . . .X. . . .*.1.1.=.H V B B B A A B B S B B A B B B B B B B V J  . . . ... .] ( ' ] X.' _ Q /  ... . . . .",
" .^ R R ] o... . . . .X. . . . .| *.1.2.o.H V B B B B A B N m m B S A B B B B B B V H  . . . ...o./ R R ^ ~ R R / o... . . . . .",
" . .~ /  ..... . . . . . . . . . .o.*.*.o.H V B B B B A A b 1 1 m S S B B B B B B V H  . .X. ... ./ / /  ./ / /  .o.o. . .X. . .",
" . . ... . . . . . . . . . . . . . . .|  .J V B B B B S D v $ X j m B A A B B A B V H  . . . . . . ... . ....... . . . . . . . .",
" . .o.o. . . . . . . .o. . . . . . .| | | J C B B B A S S n &   X 1 M A A B B B B V H  . . . . . . ....... ...o. . . . . . . . .",
" . . . . . . . . . . .X. . . . . . . ...*.`.V B B A A A M j &     * m S S A B B B C z &. . . .X.=.=.o. . . . . . . . . . .o.X. .",
" . . . . . . . . . . .X. . . . . . . .*.1.'.C Z B S A m 1 & .     * n S S B B B B V G  . .|  .=.1.1.=. . . . . . . . . . . . .X.",
" . . . . . . . . . . . . . .X. . . . .%.`.I V B B S A n *         & j M B B B B B B L s O.o.=.>.w.9.o. . . . . . . . . . . . . .",
" . . . . . . . . .X. . . . .o. . . .&.z U V B B B S A n &         . $ 1 m A S B B B V U s =.<.i.#.( ]  ... . . . . . . . . . . .",
"*.*. . .|  . . . . . . . . . . . . . .F C A B B B S A n <             * v S S B B B Z V F *.9.y.( R ~ ..o. . . . . . . . . . . .",
"0.>.*. .|  . . . . . . . . . . . . . .F V B A A B S S n <             & v S S B B B B V F [ ( _ Q ~  . . . . . . . . . . . . . .",
"V.e.*. .*.=.o. . . . . . . . . . .|  .H V B B A A S S n <             * b S S B B B B C H ^ R R / o.o. . . . .| | ..o.*. . .o.*.",
"B.c.*.*.>.1.*.|  . . . . . . . . . . . . . . . . . . . . . . . . . . . . .*.>.0.>.*. . . . .~ /  . .o. . . . . . .*.,.>.*.o.:.0.",
"N.v.>.:.q.6.*. . . . . . . . .*.=.=.o. . . . . . . . . . . . . . . . .|  .-.M.M.=.| |  . . . . . . . . . . . ...*.<.m.b.:.:.M.C.",
"C.V.n.w.+.( / .... . . . . . .*.1.1.*. . . . . . . . . . . . . . . . .|  .=.n.b.=.| |  . . .o.o... . . . . . .*.<.m.S.N.b.b.B.S.",
"S.S.l.$.W R /  .o. . . . . . .*.1.1.=.| |  . . . . . . . . .X. . . . . . .*.6.6.*. . . . . . . . . . . . .| | X.6.a.A.F.F.B.k.p.",
"C.k.$.W E ~  . . . . . . . . .o.*.*.o. . . . . . . . . . . . . . . .X.....] ( ( ]  ... . . . . . . . . . ... ./ Q $.l.F.G.k.@.{ ",
"u.$.W R /  .o. . . . . . . . . . . . . . . . . . .X. .o.X. . . . . . .o.o./ R R / ..o. . . . . . . . ... .o.=.&.E R @.j.k.$.w 8 ",
"` W Q /  ... . . . . .o. . . . . . . . . . . .X. . . . . . . .X. . . . . . .~ ! ] .... . . . . . . . . . .=.1.,.X.E R { { 0 8 6 ",
"9 R / ..o. . . . . . .X. . . . . . . . . . . . . . . .X. . . . . . . . . . .o. ... . . . . . . . . . . . .*.6.w.:.X.E 9 9 9 9 9 ",
"! /  .o... . . . . . . . . . . .o. . . . .X. . . . . . . . . . . . . . . .......o. . . .X. . . . . . ... .] ( $.w.:.X.E E ~ ^ ] ",
" . . ...o. .X. . . . . . . . . .X. . . . . . . . .o. . . . .o.X. . . . . . ... . . .X. . . . . . . . .o. .^ R { p.c.=.| / ]  .] "
};
