/* XPM */
static char *result[] = {
/* columns rows colors chars-per-pixel */
"64 64 24 1 ",
"  c #DEEEE0",
". c #DEEFE0",
"X c #DFEFE1",
"o c #EAEFE9",
"O c #EBF0E9",
"+ c #E9F1EA",
"@ c #EBF0EA",
"# c #EBF1EA",
"$ c #E9F2EA",
"% c #EAF2EA",
"& c #EAF2EB",
"* c #EBF3EB",
"= c #ECF0EA",
"- c #ECF2EB",
"; c #EDF2EC",
": c #EDF3EC",
"> c #EEF3EC",
", c #EEF4EC",
"< c #EFF4ED",
"1 c #F1F5F1",
"2 c #F2F4F1",
"3 c #F1F5F2",
"4 c #F6F6F5",
"5 c gray97",
/* pixels */
".%%%%%%%%%%%%%%%&&%%%%&&%$%*,>-$%&%%%%%%%%%%%%%%&&&&%$$->:--:>-X",
"1555555555555555555555555555555555555555555555555555555555555553",
"4555555555555555555555555555555555555555555555555555555555555554",
"%55555555555555555555555555555555555555555555555555555555555555%",
"%55555555555555555555555555555555555555555555555555555555555555%",
"%55555555555555555555555555555555555555555555555555555555555555%",
"%55555555555555555555555555555555555555555555555555555555555555%",
"$55555555555555555555555555555555555555555555555555555555555555%",
"%55555555555555555555555555555555555555555555555555555555555555%",
"-55555555555555555555555555555555555555555555555555555555555555%",
">55555555555555555555555555555555555555555555555555555555555555%",
">55555555555555555555555555555555555555555555555555555555555555%",
"-55555555555555555555555555555555555555555555555555555555555555%",
"%55555555555555555555555555555555555555555555555555555555555555%",
"$55555555555555555555555555555555555555555555555555555555555555%",
"%55555555555555555555555555555555555555555555555555555555555555%",
"%55555555555555555555555555555555555555555555555555555555555555%",
"%55555555555555555555555555555555555555555555555555555555555555%",
"%55555555555555555555555555555555555555555555555555555555555555&",
"%55555555555555555555555555555555555555555555555555555555555555-",
"%55555555555555555555555555555555555555555555555555555555555555>",
"%55555555555555555555555555555555555555555555555555555555555555<",
"%55555555555555555555555555555555555555555555555555555555555555<",
"%55555555555555555555555555555555555555555555555555555555555555;",
"%55555555555555555555555555555555555555555555555555555555555555@",
"%55555555555555555555555555555555555555555555555555555555555555o",
"%55555555555555555555555555555555555555555555555555555555555555+",
"%55555555555555555555555555555555555555555555555555555555555555%",
"%55555555555555555555555555555555555555555555555555555555555555%",
"%55555555555555555555555555555555555555555555555555555555555555%",
"%55555555555555555555555555555555555555555555555555555555555555%",
"%55555555555555555555555555555555555555555555555555555555555555%",
"%55555555555555555555555555555555555555555555555555555555555555%",
"%55555555555555555555555555555555555555555555555555555555555555%",
"%55555555555555555555555555555555555555555555555555555555555555%",
"$55555555555555555555555555555555555555555555555555555555555555%",
"%55555555555555555555555555555555555555555555555555555555555555%",
"*55555555555555555555555555555555555555555555555555555555555555%",
",55555555555555555555555555555555555555555555555555555555555555%",
"<55555555555555555555555555555555555555555555555555555555555555%",
"<55555555555555555555555555555555555555555555555555555555555555%",
";55555555555555555555555555555555555555555555555555555555555555%",
"@55555555555555555555555555555555555555555555555555555555555555%",
"o55555555555555555555555555555555555555555555555555555555555555%",
"+55555555555555555555555555555555555555555555555555555555555555%",
"%55555555555555555555555555555555555555555555555555555555555555%",
"%55555555555555555555555555555555555555555555555555555555555555%",
"%55555555555555555555555555555555555555555555555555555555555555%",
"%55555555555555555555555555555555555555555555555555555555555555%",
"%55555555555555555555555555555555555555555555555555555555555555$",
"%55555555555555555555555555555555555555555555555555555555555555$",
"%55555555555555555555555555555555555555555555555555555555555555-",
"%55555555555555555555555555555555555555555555555555555555555555>",
"$55555555555555555555555555555555555555555555555555555555555555<",
"%55555555555555555555555555555555555555555555555555555555555555<",
"*55555555555555555555555555555555555555555555555555555555555555<",
",55555555555555555555555555555555555555555555555555555555555555<",
"<55555555555555555555555555555555555555555555555555555555555555>",
"<55555555555555555555555555555555555555555555555555555555555555=",
";55555555555555555555555555555555555555555555555555555555555555o",
"@55555555555555555555555555555555555555555555555555555555555555o",
"4555555555555555555555555555555555555555555555555555555555555554",
"2555555555555555555555555555555555555555555555555555555555555552",
" %%%%%%%%%%%%%%%%%%%%%%%%%%%%%%%%%%%%%%%%%%%%%%%%%%%%+O=>>-++#% "
};
