/* XPM */
static char *result[] = {
/* columns rows colors chars-per-pixel */
"64 64 204 2 ",
"   c #010000",
".  c #0B0001",
"X  c #0F0901",
"o  c #140001",
"O  c #1C0101",
"+  c #120909",
"@  c #011301",
"#  c #081904",
"$  c #0E1110",
"%  c #111111",
"&  c #191919",
"*  c #230103",
"=  c #2C0204",
"-  c #2F0409",
";  c #330106",
":  c #3A0509",
">  c #351B0A",
",  c #002501",
"<  c #032B03",
"1  c #0D2905",
"2  c #063703",
"3  c #153005",
"4  c #292B09",
"5  c #34260B",
"6  c #3D250E",
"7  c #352D0D",
"8  c #3B2A0E",
"9  c #283808",
"0  c #37300E",
"q  c #38320E",
"w  c #3F2E11",
"e  c #2A302E",
"r  c #343736",
"t  c #363939",
"y  c #45030A",
"u  c #4B040B",
"i  c #470C0C",
"p  c #4D0D0F",
"a  c #54030E",
"s  c #59040F",
"d  c #491D0F",
"f  c #5C0411",
"g  c #481D13",
"h  c #551F12",
"j  c #5C1E14",
"k  c #63010C",
"l  c #630512",
"z  c #6C0615",
"x  c #6E0916",
"c  c #720617",
"v  c #750718",
"b  c #7B071A",
"n  c #750919",
"m  c #7C0A1A",
"M  c #651915",
"N  c #75131A",
"B  c #7A121A",
"V  c #42240E",
"C  c #4C2211",
"Z  c #492612",
"A  c #452D11",
"S  c #542513",
"D  c #5A2115",
"F  c #4A3113",
"G  c #493417",
"H  c #622619",
"J  c #692219",
"K  c #72231C",
"L  c #63321B",
"P  c #482F32",
"I  c #6C2F2F",
"U  c #6B3922",
"Y  c #723B24",
"T  c #004C08",
"R  c #174A0B",
"E  c #005603",
"W  c #015C04",
"Q  c #17560D",
"!  c #0F5B11",
"~  c #1E5610",
"^  c #175B11",
"/  c #264C0F",
"(  c #244C10",
")  c #2A4D11",
"_  c #344D12",
"`  c #3E4E16",
"'  c #225411",
"]  c #265B13",
"[  c #345817",
"{  c #006C00",
"}  c #036709",
"|  c #007300",
" . c #007C00",
".. c #00720C",
"X. c #007B0D",
"o. c #1B750B",
"O. c #007611",
"+. c #087413",
"@. c #007C13",
"#. c #1C7A18",
"$. c #3C6521",
"%. c #595C27",
"&. c #4C6525",
"*. c #444A48",
"=. c #4B4D4C",
"-. c #4C504F",
";. c #545151",
":. c #75484F",
">. c #7A7D7C",
",. c #8F051A",
"<. c #830A1C",
"1. c #8C0B1E",
"2. c #93071B",
"3. c #8F0C20",
"4. c #940C21",
"5. c #9B0D23",
"6. c #8C1720",
"7. c #9C1125",
"8. c #A30E25",
"9. c #A41026",
"0. c #AA1027",
"q. c #AC1129",
"w. c #B4122B",
"e. c #BC142E",
"r. c #C1152F",
"t. c #C41630",
"y. c #80535A",
"u. c #008401",
"i. c #008B04",
"p. c #00850D",
"a. c #008B0C",
"s. c #009305",
"d. c #00960A",
"f. c #00990C",
"g. c #008513",
"h. c #008C12",
"j. c #068919",
"k. c #168611",
"l. c #009313",
"z. c #009C13",
"x. c #009D1E",
"c. c #16931A",
"v. c #288917",
"b. c #00A20E",
"n. c #00A515",
"m. c #00A817",
"M. c #00A41C",
"N. c #00A91B",
"B. c #1D8623",
"V. c #009B23",
"C. c #1D962C",
"Z. c #2B8A28",
"A. c #318629",
"S. c #2F9924",
"D. c #359825",
"F. c #389F2B",
"G. c #00A322",
"H. c #00AD24",
"J. c #00AB2D",
"K. c #00B027",
"L. c #00B22A",
"P. c #1DAD31",
"I. c #00B532",
"U. c #01B936",
"Y. c #0CB937",
"T. c #04BB38",
"R. c #16B337",
"E. c #14BB39",
"W. c #23AD2F",
"Q. c #3CA02C",
"!. c #25AE30",
"~. c #2EAE32",
"^. c #2DB939",
"/. c #3AB73A",
"(. c #4C9632",
"). c #4C9235",
"_. c #609A3E",
"`. c #45AA37",
"'. c #46B33A",
"]. c #53B63E",
"[. c #32C03F",
"{. c #4CBB41",
"}. c #56B942",
"|. c #5ABA44",
" X c #37C241",
".X c #3CC242",
"XX c #43C444",
"oX c #49C446",
"OX c #4CC94A",
"+X c #53C649",
"@X c #54C94B",
"#X c #5DCA4D",
"$X c #5BD052",
"%X c #65C94E",
"&X c #64CD51",
"*X c #68D456",
"=X c #74D157",
"-X c #8A7F80",
";X c #929494",
":X c #AFB4B4",
">X c #B4B5B5",
",X c #BCBEBE",
"<X c #C0B6B8",
"1X c #CAC0C1",
/* pixels */
"n.n.n.n.n.m.n.n.n.n.m.n.n.n.n.m.m.m.m.n.n.n.m.m.n.n.n.L.XX.XJ.n.n.m.n.n.n.n.n.n.n.n.n.n.n.n.n.n.m.N.N.m.m.b.n.K./.^.H.J.^./.K.N.",
"n.n.n.n.n.M.n.n.M.n.M.n.n.n.n.N.H.K.N.n.n.N.H.N.m.n.N.U.oX XH.n.N.H.N.n.n.n.n.n.n.n.n.n.n.n.n.N.H.K.J.H.m.n.n.N.~.!.H.H.W.~.H.m.",
"n.n.n.n.n.n.n.n.n.n.n.n.n.n.n.H.T.T.H.b.n.K.E.U.V.x.J.{.|.~.V.G.J.W.V.l.h.z.n.n.n.n.n.n.n.n.n.H.T.XXXXU.N.m.m.z.l.l.z.z.l.h.z.M.",
"M.n.n.n.n.n.n.n.n.n.n.n.n.n.n.L.oXoXL.b.f.L.XXoXC.B.)._._.).Z.Z.).).B.O.O.g.z.M.n.n.n.n.n.n.n.H.XX=X=XXXK.m.n.f.u.u.f.f.u.u.f.z.",
"n.n.n.n.n.n.n.M.n.n.n.n.n.b.n.L.oXoXL.b.b.L.XX_.%.U Y Y Y Y U Y Y U L L L ` g.n.n.n.n.M.n.b.n.K.XX=X=XoXK.n.b.f.d.f.f.n.d.d.z.n.",
"n.n.n.n.n.n.n.n.n.n.n.n.n.n.m.N.~.~.H.m.n.G.S.%.K 3.5.5.9.7.4.3.3.3.3.3.4.K [ g.n.n.n.n.n.n.n.H.I.XXXXI.H.b.n.m.m.m.m.n.m.m.m.n.",
"n.n.n.n.n.n.n.n.n.n.n.n.n.m.m.z.h.h.z.m.m.X.` M 4.0.w.e.e.0.4.3.3.m 3.3.m 3.J ` h.n.n.n.n.n.n.n.H.K.K.H.m.n.n.m.m.m.m.m.m.m.n.n.",
"n.n.n.n.n.M.n.n.n.M.n.n.n.m.m.f.u.u.f.n.l./ M 1.0.e.t.t.e.5.n f f f l f f n 6.K [ g.M.n.n.n.n.n.n.b.n.n.n.n.n.n.n.n.n.n.n.n.n.n.",
"n.n.n.n.n.n.n.n.n.n.n.n.n.m.n.n.f.d.z.g._ J 4.q.e.t.t.e.7.m u = - - ; = ; u n 3.K ` g.n.M.n.n.n.n.n.n.n.n.n.n.n.n.n.n.n.n.n.n.n.",
"K.H.N.b.n.n.n.n.n.n.n.n.M.m.n.n.n.z.g.~ M 1.0.e.e.e.e.7.n y O     . .     O u c <.K [ g.n.n.n.n.n.n.n.n.n.n.n.n.n.n.n.n.M.n.n.n.",
" XT.H.n.n.n.n.n.n.n.M.n.n.n.n.n.z.g.R d m 9.w.r.t.w.4.n y O                 O u x 3.K ` g.n.n.M.n.n.n.n.n.n.m.n.n.n.n.n.n.m.n.n.",
"^.T.H.n.n.n.n.n.n.n.n.n.n.n.n.n.n.g.7 l <.9.e.t.t.q.3.u O                     O u m 7.K ] g.z.M.n.n.n.n.M.n.M.n.n.n.n.n.n.n.n.M.",
"L.K.m.n.n.n.n.n.n.n.n.n.n.n.n.n.z.@.Z n 3.8.e.t.t.9.z -                       . ; n 0.2.D / g.z.n.n.n.n.n.n.n.n.n.n.n.n.n.n.n.M.",
"m.n.n.n.n.n.b.n.n.n.n.n.n.n.n.M.O.^ D 3.5.8.w.t.t.9.l *     % %             % & - z 8.8.x 6 @.z.n.n.n.n.n.M.n.n.n.n.n.n.n.n.n.n.",
"n.n.n.n.n.n.n.n.n.n.n.n.n.n.n.n.q C m 4.5.5.9.e.t.9.l O   & -.;.&         & -.;.P k 8.0.c 6 @.z.n.n.n.M.n.n.n.n.n.n.n.n.n.n.n.n.",
"n.n.n.n.n.n.H.H.N.n.n.n.n.n.n.n.u f <.4.4.4.5.w.e.9.l O   t ;X;Xt         t ;X;X:.k 2.0.z 8 g.z.n.n.n.n.n.n.n.n.M.n.n.n.n.n.n.n.",
"n.n.n.n.b.H.U.E.K.n.b.m.n.n.n.n.u f 1.1.<.m 1.q.e.8.z o   =.,X,X=.        =.,X1Xy.k 2.9.z G j.z.n.n.n.n.n.n.n.n.n.M.n.n.n.m.n.n.",
"n.n.n.m.K.T.+X[.H.m.N.L.N.n.n.n.u l <.1.x l <.q.e.9.l o   *.:X>X=.        *.>X<X:.k ,.5.z G B.z.b.n.n.n.n.M.n.n.n.n.n.N.K.K.m.n.",
"n.n.b.H.T.@X%X[.H.H.T.E.K.b.n.n.p l 1.<.k a b q.e.9.l O   e >.>.e         e >.-XI l ,.4.l G B.z.n.n.n.n.n.n.n.n.n.n.n.K.E.Y.K.m.",
"n.b.n.N.~.|.%XOXT.L./.~.H.n.b.n.7 d m b f a <.q.e.9.c =   % r t %         $ t t g l 3.4.z Z #.z.n.n.n.n.n.m.n.n.n.n.n.N.~.'.L.J.",
"n.m.n.z.d.(.].$XOX/.S.h.l.m.m.n...' j z a a m 9.q.9.3.f = . +                 % - f 3.3.k V +.z.n.n.n.n.n.n.n.n.n.m.m.z.l.D././.",
"n.m.n.d.u.p.F.].].(.i.u.d.m.m.n.z.g.) 8 7 d n 5.0.0.8.<.a O                   . - z 3.b h 9 X.n.m.n.n.n.M.n.n.M.n.m.m.s.u.j.'.%X",
"n.m.m.n.d.s.a.v.v.j.a.d.b.m.m.n.n.z.g.@.@.! j <.4.9.0.5.n u O                 * a v v j R X.l.n.m.n.n.n.n.n.n.n.n.m.m.f.s.G.XX#X",
"n.n.n.m.m.f.u. . .i.f.m.m.m.n.n.n.n.n.n.n.h.) D B 4.4.4.1.x u *             * y l M D ( h.m.n.n.n.n.n.n.n.n.n.n.n.n.n.b.m.N.W.'.",
"n.n.n.m.m.n.f.s.i.f.n.m.m.n.n.n.n.n.n.n.n.M.g.' D v m <.1.1.c u * o . . . * u z c S ^ h.n.m.n.n.n.M.n.n.n.n.n.n.n.n.n.m.N.M.l.j.",
"n.n.n.n.n.m.m.n.n.n.n.n.n.n.n.n.n.n.n.n.n.n.n.X.A l l c 1.4.1.v u ; : ; : a c <.n A g.n.n.n.n.n.n.n.n.n.n.n.n.M.n.n.n.m.m.f.u. .",
"n.n.n.n.n.m.m.m.m.m.n.n.n.n.m.m.n.n.n.n.n.n.n.p.A z c v 3.9.9.4.m z z x z <.5.5.<.F g.n.n.n.n.n.n.n.n.n.n.M.n.n.n.n.n.m.n.n.f.s.",
"n.M.n.n.n.n.n.m.H.K.m.n.n.n.n.b.n.n.M.n.n.z.g.] H <.1.<.2.9.w.q.0.5.5.4.5.9.q.q.4.M ] g.M.n.n.n.n.n.n.n.n.m.n.n.n.n.n.n.n.n.m.n.",
"n.n.M.m.n.n.n.H.E.E.K.n.b.n.b.n.n.n.n.n.n.g._ H 6.5.8.5.9.q.w.e.e.w.w.w.w.e.e.e.0.6.H _ g.n.n.n.n.m.n.n.m.n.n.n.n.n.n.m.n.n.m.m.",
"n.n.n.n.n.n.n.K.E.E.K.b.b.N.K.K.N.n.n.z.g.' j 3.q.w.w.w.w.w.e.r.t.e.t.e.t.e.e.e.e.0.1.j ~ g.z.M.n.M.n.n.M.n.n.n.n.n.n.M.n.n.n.n.",
"n.n.n.n.n.n.n.m.K.H.m.b.b.K.E.E.K.n.n.g.) d m 8.e.e.e.e.e.w.e.e.e.t.e.t.t.e.e.t.e.w.8.m C ( j.z.n.M.n.n.n.n.n.n.n.n.n.n.n.n.n.n.",
"M.n.n.n.n.n.n.n.n.n.n.n.m.K.E.E.H.n.b.@.5 a <.0.e.e.e.t.e.e.e.e.e.e.e.e.e.e.e.e.e.e.0.<.a 8 @.z.n.n.n.n.n.n.n.M.n.n.n.n.n.n.n.n.",
"n.n.n.n.n.n.n.n.n.n.n.n.n.m.K.H.N.n.n.@.5 f 3.w.r.e.e.e.e.e.e.e.e.e.e.e.e.e.e.e.e.r.w.1.l 6 O.z.M.n.n.n.n.n.n.n.n.n.n.n.n.n.n.n.",
"n.n.n.n.n.n.n.m.n.n.n.n.n.n.n.n.n.n.n.@.7 z 5.e.r.t.e.e.e.e.e.e.e.e.e.e.e.e.e.e.r.r.w.4.f 7 @.z.n.n.n.n.n.n.n.n.n.n.n.n.n.n.n.n.",
"n.n.n.n.n.n.n.n.n.n.n.n.n.n.n.n.n.n.M.@.A b 9.e.t.e.e.e.e.e.e.e.e.e.e.e.e.e.e.e.e.t.r.5.l 7 X.z.n.n.n.n.n.n.n.n.n.n.n.n.n.n.n.n.",
"n.n.H.H.m.n.n.n.n.n.n.n.n.n.n.n.n.z.@.~ j 4.w.e.e.e.e.e.e.e.e.e.e.e.w.e.e.e.e.e.e.r.r.9.x 7 g.n.n.m.H.N.n.n.n.m.H.K.N.n.n.n.n.n.",
"m.H.Y.E.K.n.b.n.n.n.n.n.n.n.n.n.z.g.( d x 5.e.e.r.e.e.e.e.e.e.e.e.e.q.w.w.e.e.e.e.r.r.q.m A @.z.n.H.T.E.H.b.b.H.E.E.K.n.n.n.n.n.",
"K.U.@XXXL.n.b.m.n.n.n.n.n.n.n.n.z.@.w a 3.8.e.e.e.e.e.e.e.e.e.e.e.w.q.0.w.t.e.e.e.r.r.w.4.D ^ ..n.K.XXXXK.n.H.L.'.~.H.n.n.n.n.n.",
".X@X&X.XK.n.n.n.n.M.n.n.n.n.n.n.x.@.V a 3.5.e.e.t.e.e.e.e.e.e.e.t.w.9.9.w.e.t.e.e.r.r.w.8.N C 0 n.L.XXXXK.K.U./.D.h.z.n.m.n.n.n.",
"&X%X}.!.M.n.n.n.n.n.n.n.n.n.n.n.l.@.7 a b 8.e.e.e.e.e.e.e.e.r.e.e.0.5.4.0.e.e.e.e.e.e.w.8.<.f y n.L.XX[.K.L..X}.c.u.f.m.m.n.n.n.",
"%X|.D.a.z.n.m.n.n.n.n.n.n.M.n.n.l.@.7 a <.9.e.e.r.e.e.e.e.r.e.e.w.5.<.m 5.w.e.t.e.e.w.q.8.<.f u n.K.XX XK.K.XXoXG.s.f.m.m.n.n.n.",
"`.F.a.u.d.n.m.n.n.n.n.n.n.n.n.m.H.j.q f <.9.w.e.t.e.w.e.e.e.e.e.q.1.x x 3.q.w.e.r.w.q.8.5.<.a i n.H.~.W.H.H.W.~.H.m.n.n.n.n.n.n.",
"k.a.a.f.n.n.m.n.n.M.n.n.n.n.n.K.R.Z.G x 3.5.0.w.w.w.w.w.e.e.w.q.8.<.s s <.9.q.w.e.w.8.5.4.<.f i n.z.h.l.z.z.h.h.z.m.m.n.n.n.n.n.",
"u.u.f.m.m.n.n.n.n.n.n.n.n.n.n.H.A.&.D 3.5.5.8.9.w.w.q.q.w.w.q.8.4.c u u c 4.9.0.w.w.8.5.5.<.a i m.f.u.u.f.f.i.u.f.m.m.n.n.n.n.n.",
"d.f.n.N.m.n.n.n.n.n.n.N.n.n.n.N.A C N 4.5.5.5.5.q.q.q.q.q.q.8.4.<.s = ; a <.4.9.q.q.8.5.5.<.a i n.z.f.d.n.f.f.d.z.m.m.M.n.n.n.n.",
"m.n.n.n.n.n.n.n.n.n.n.n.n.n.n.n.u f <.5.4.2.3.5.8.q.0.q.8.8.4.<.l ; O O y c 2.5.8.5.3.3.5.<.f u n.m.m.m.m.n.n.m.m.n.n.n.n.n.n.n.",
"m.m.m.n.n.n.n.n.M.n.n.n.n.n.n.n.u l 1.4.<.b 3.4.5.8.9.0.8.4.b l : o   . = l 1.8.8.3.b <.3.3.f u n.m.m.m.m.m.m.m.m.n.n.n.n.n.n.n.",
"n.n.n.M.n.n.n.n.n.n.n.n.n.n.n.n.q C v <.z z ,.5.4.4.8.0.8.3.x y *       * u b 4.5.3.v v ,.v g w m.n.n.n.n.n.n.n.n.n.n.n.n.n.m.M.",
"n.n.n.n.n.n.n.n.n.n.n.n.n.M.n.n.O.Q j l a l <.4.<.m 4.8.5.3.f ; .       o ; l <.4.1.b v v H $.A.H.n.n.n.n.n.n.n.n.n.n.n.n.n.n.n.",
"n.n.n.n.n.n.n.n.n.n.n.n.n.n.n.n.n.a.) C u f <.B h h N 4.4.<.f = # , , @   O u c 3.3.<.z h [ Q.oXL.n.b.n.n.n.n.n.M.n.n.n.n.n.n.n.",
"n.n.n.n.n.n.n.n.n.n.M.n.m.M.n.n.n.z.g.! > a c S Q ^ S m b x u > E X.X.T @ . ; s c b v h ~ V.{.XXL.b.b.m.n.n.n.n.m.n.n.n.n.n.n.b.",
"n.n.n.n.n.n.n.n.n.n.m.n.n.n.n.n.n.n.n.h.R w A ~ l.g.q a f p 6 R g.n.m.g.T # = : d A F ) g.J.~.~.H.n.n.n.n.n.n.n.n.n.n.n.n.n.H.H.",
"n.n.n.n.n.n.n.n.n.n.n.n.n.n.n.n.n.n.n.n.p.X.X.p.u.| R ; = 9 { | | | |  .| } 4 4 } | |  .f.l.h.h.z.m.m.n.n.n.n.n.n.n.n.b.b.H.U.^.",
"n.n.H.H.m.n.n.m.n.n.n.n.n.n.n.n.n.n.n.n.l.f.f.i. .| W 1 X 2 | { | | | | | #.3 2 { | |  .s.a.u.u.f.m.m.n.n.n.n.N.H.H.m.n.N.I.oX@X",
"n.H.Y.E.K.n.b.n.n.n.n.n.n.n.n.n.n.n.n.z.i. . . .| | | W , 2 | | | | |  .p.o.1 2 | | | |  . . .u.f.n.n.n.n.n.n.H.E.I.H.M.U.oX$X&X",
"L.T.@XXXL.n.n.n.n.n.n.n.n.N.H.H.m.n.s.i. .| | | | | | { , , | | | | | |  .} # < | | | { | | {  .i.d.n.n.n.n.n.K.XXoXU.L.XX&X&X&X",
".X+X%XXXK.n.n.n.n.n.n.n.n.K.E.E.K.n. . .| | | | | | | | < < | | | | { |  ...< < | | | | | | | |  . .n.n.n.b.n.K.XX#XoXXX#X%X&X$X",
"&X%X|.!.M.n.n.n.m.n.n.n.n.H.E.E.H.n. . .| | | | | | | | E E | | | | | | | | W W | | | | | | | {  .u.n.n.n.b.n.M.P.|.%X*X&X#X}.'.",
"%X|.D.h.z.n.m.n.n.n.n.n.n.m.H.K.N.n.d.i.| | | { | { | |  .| | | | | | | | | | | | | | | | | |  .i.s.n.n.n.m.n.f.a.D.|.*X*X].S.c.",
"`.F.a.u.s.n.m.n.n.M.n.n.n.b.n.n.n.n.n.z.i. .u. .| | | | | | | | { | | | { | | | | | { |  . . .i.z.n.n.n.n.H.K.M.i.u.F.].].Q.o.| ",
"k.a.a.s.n.n.n.n.n.n.n.n.n.n.n.n.n.n.n.n.z.f.f.s. .| | | { | | | | { | | | | | { | | |  .i.f.f.z.n.n.n.n.n.K.E.Y.M.i.u.v.v.k.{ { ",
"u.u.f.N.m.n.n.n.n.n.n.n.m.n.n.n.n.n.n.n.n.z.n.l.u.| | | | | | |  . .| |  .| |  .| | | u.f.n.n.n.n.n.n.n.n.H.~./.L.M.u. . . .u. .",
"s.f.m.m.N.n.n.n.M.n.n.n.n.n.n.n.n.n.n.n.n.n.n.n.n.n.n.n.n.n.n.n.n.n.n.n.n.n.m.m.n.n.n.n.n.n.n.n.n.n.n.n.n.z.j.F./.U.n.s.i.d.d.f.",
"z.n.n.m.m.n.n.n.n.n.n.n.n.n.n.n.n.n.n.n.n.n.n.n.n.n.n.n.n.n.M.n.n.n.n.n.n.n.m.m.n.n.n.n.M.n.n.n.n.n.n.m.n.d.u.v.'.[.K.b.f.z.n.z."
};
