/* XPM */
static char *result[] = {
/* columns rows colors chars-per-pixel */
"64 64 201 2 ",
"   c #000000",
".  c #020B02",
"X  c #000008",
"o  c #150E02",
"O  c #001401",
"+  c #1A1301",
"@  c #010B1B",
"#  c #261E02",
"$  c #003802",
"%  c #002C1F",
"&  c #2F2404",
"*  c #322806",
"=  c #253707",
"-  c #06032B",
";  c #090336",
":  c #26292B",
">  c #004104",
",  c #005506",
"<  c #005D07",
"1  c #005D09",
"2  c #095419",
"3  c #006308",
"4  c #007300",
"5  c #007C00",
"6  c #0E7D06",
"7  c #157D07",
"8  c #006A1D",
"9  c #34740B",
"0  c #005C34",
"q  c #006D2B",
"w  c #226834",
"e  c #534210",
"r  c #5E4C13",
"t  c #66510E",
"y  c #3B3D40",
"u  c #180D68",
"i  c #1C1174",
"p  c #007658",
"a  c #00556D",
"s  c #007B6A",
"d  c #414242",
"f  c #607758",
"g  c #7F5F73",
"h  c #706D62",
"j  c #7B676D",
"k  c #78686A",
"l  c #81681E",
"z  c #8C7114",
"x  c #937823",
"c  c #997C24",
"v  c #815F74",
"b  c #855B79",
"n  c #917171",
"m  c #008500",
"M  c #008B03",
"N  c #00860D",
"B  c #008C0C",
"V  c #009305",
"C  c #009907",
"Z  c #00960A",
"A  c #00990B",
"S  c #008C12",
"D  c #078B15",
"F  c #158C16",
"G  c #009717",
"H  c #009C12",
"J  c #278916",
"K  c #00A30E",
"L  c #00A515",
"P  c #00A817",
"I  c #00A41B",
"U  c #00AA1B",
"Y  c #07962E",
"T  c #319824",
"R  c #329A25",
"E  c #399926",
"W  c #3A9E2A",
"Q  c #2A9138",
"!  c #00AD24",
"~  c #00A928",
"^  c #00B126",
"/  c #00B22A",
"(  c #00B532",
")  c #00B935",
"_  c #0AB738",
"`  c #02BC39",
"'  c #15BC39",
"]  c #1DBB39",
"[  c #25AD2F",
"{  c #3CA12C",
"}  c #25AE30",
"|  c #2EAE32",
" . c #30AD32",
".. c #2BB133",
"X. c #2DBD3C",
"o. c #3AB538",
"O. c #3CB439",
"+. c #34BF3F",
"@. c #5A961B",
"#. c #409A28",
"$. c #67983A",
"%. c #43A12D",
"&. c #46AC35",
"*. c #41B339",
"=. c #49B43B",
"-. c #53B63E",
";. c #00B344",
":. c #29BA57",
">. c #499455",
",. c #64814F",
"<. c #4BBB40",
"1. c #54BA42",
"2. c #5ABA43",
"3. c #60BC45",
"4. c #37C341",
"5. c #3CC242",
"6. c #45C545",
"7. c #48C747",
"8. c #4EC749",
"9. c #55C749",
"0. c #5AC74B",
"q. c #55CA4B",
"w. c #5BC94C",
"e. c #5BD052",
"r. c #63C94E",
"t. c #64CD51",
"y. c #6ACA50",
"u. c #67D355",
"i. c #4EC061",
"p. c #A78B17",
"a. c #9E8126",
"s. c #9F8128",
"d. c #A38528",
"f. c #BC9C25",
"g. c #B5942E",
"h. c #BD9930",
"j. c #D2AD17",
"k. c #D1AC1C",
"l. c #CDA825",
"z. c #D2AC27",
"x. c #DBB328",
"c. c #C5A133",
"v. c #CBA635",
"b. c #CDA833",
"n. c #D1AC36",
"m. c #D7B036",
"M. c #DDB439",
"N. c #E6BC3D",
"B. c #AD8A5B",
"V. c #B78F52",
"C. c #B59252",
"Z. c #A88766",
"A. c #211482",
"S. c #2E1EAD",
"D. c #341FAE",
"F. c #3221B9",
"G. c #005E97",
"H. c #0074B8",
"J. c #0075BD",
"K. c #684EBC",
"L. c #3523C4",
"P. c #3C28D7",
"I. c #3A25F4",
"U. c #3D29F1",
"Y. c #752ECC",
"T. c #792EC9",
"R. c #6B35CF",
"E. c #7A30C8",
"W. c #652CD7",
"Q. c #6A2DD4",
"!. c #462BE5",
"~. c #422CEB",
"^. c #512CE3",
"/. c #542EEC",
"(. c #452EF4",
"). c #4730FA",
"_. c #4831FE",
"`. c #5730F1",
"'. c #0078C3",
"]. c #5941D0",
"[. c #654CC0",
"{. c #8D37AE",
"}. c #95538A",
"|. c #91409E",
" X c #8E6A8F",
".X c #9845A2",
"XX c #75CD86",
"oX c #85B78C",
"OX c #B4BDB7",
"+X c #93C893",
"@X c #88D395",
"#X c #A4D29A",
"$X c #98D7A2",
"%X c #A5DBAC",
"&X c #B3E1B9",
"*X c #C6C7C9",
"=X c #C6EACB",
"-X c #E9F6EA",
";X c #EFF8F0",
":X c #F2F7F0",
">X c #FEFFFE",
/* pixels */
"L L L L L L L L L I L L L I L L L L P U U L L L P P L L L / 6.5.! K L U P L L P L L I L L L L L L L P U U P L ! +.o.! ^ X.+.! I ",
"L L L L L P L L L L L L L L L L L L ^ ^ U L L P U ! P L U ( 7.:.^ P ! ^ U L L L L L L L L L L L K L ! ^ ^ ! P ! } [ ~ ! [ | ~ P ",
"I L L L L I L L L L L L L L L L L ! ' ' ^ L A U _ ) ! P ( 9.w.X.! ! ) ] ^ K K P L L L L I L L L L ! ) 6.7.) ! H S S H H S S H L ",
"L L L L L L L L L L I P L L L P ^ ( O. .! L ^ ` 9.6.( ( 7.u.u.5.) / O. .! L L P L I L L L L L P ! ) 9.y.q.` ! C m m A A M m A H ",
"L L L L L L L I L L I L L L K ^ ` =.E S Z ! ` 8.r.q.6.6.0.t.t.q.6.O.T S A L P L L L L L L L L ! _ 9.y.9.) ! L A C C H L Z Z H L ",
"L L L L L L L L L L L L L L L ! | %.S m Z ! ..2.r.u.u.0.<.<.0.t.2.W N m C P P L L L L L L L L ! ' 6.6.( U L L P L P L L P P P L ",
"L L L L I L L L L L L L L P P H S D Z C L Z S E 1.u.u.-.R R <.2.%.N B C L L P L L L L L L L L U ! ^ / ! L L L L P P P P P P L L ",
"L L L L L L L L P I L L L P P A m m A U P Z m B W -.-.E 6 7 E { S m Z P P L L L L L L L L L L L L K L L L L L L L L L L L L L L ",
"L L L L L L L L L L L L L P '.J.'.H.p P P L Z B N J J 6 4 4 7 S B A L P P L L L L L I L L L L L K L L L L L I L L L L L L P L L ",
"P P ^ ! P L L L L L L L I P J.'.'.H.p H L L P H m 5 5 5 5 5 5 M A P P L L L L L L L L L L L I L L L L L L L L L L L L L L I L L ",
"P ^ ' ' ! L L L L L I L L L '.'.'.G.0 L L P P L Z M V Z Z Z Z Z L U P L L L L L L L L L L L L L L L L L L L L L L L L L L L L L ",
"P ! ' ' ! L L L L L L L L L H.'.'.a % $ $ 1 H P P P P L L I P L L L L L L L L L L I L L L L L L L L P I L L L L L L I L L I L L ",
"L U ^ ^ P L L L L L L L L L s s s a @       1 L P U P P P P P P P L L L L L L L L L L L L L L L L I L L L I L L L L L L L L I P ",
"L L L L K L L L L L L L L L L L K p O       . $ $ > > 3 H L L L L L L L L L L L L L L L L L K L L L L L L L P L I L L L L L L L ",
"L L L L L L L L L L L L L L L L L I 2 O                 3 I L L L L L L L L L L L L L L L L L L L L L L L L L L L L L L L L L L ",
"L L L L L L L U ! U L L L L L L L L L q .               O > > > > 1 H L L P ^ ^ ! L L L L P ^ ^ U L L L L L I L L L L L L L L L ",
"L L L L L K L ! ' ( U K K P L L L L L I 8 $ $ .                   . 3 L L ! ' ' ^ L L L L ^ ] ;.^ L K L L L L L L L L L L L L L ",
"L L L U ^ ^ P ! 4.8.` ^ U K L L L L L L L L L 1                     O , S ( *. .U L K P ! ( =. .! L L L P I L L I L L L L U ! ^ ",
"L K L ! ' ) ! ! :.y.9.) ^ K L P L I L L L L L H 1 O                   . 8 *.E S H L P ^ ` *.E D H P L L L L L L L L L L L ! ) +.",
"L L K ! | O./ ` 7.y.2.| U L K P L ) @X@X:.L L L L <                     2 %.S m C L P i.#X#XW m C P L L L L L I L L L L K ! 4.0.",
"L P L H S T O.8.e.2.#.S H L L L L @X;X;X$XL L L L 1                     $ D B C L P P $X:X;X+X~ H L P L L L L L L L L K L ^ 5.w.",
"P P P V m B W 1.-.W N m Z L / :.$X-X>X>X%XU I H 1 O                     . $ $ 3 H L L %X>X>X-X=XP L L L L L L L L L L L L ^ 5.q.",
"L L L L C B S J J N B C L L ;.@X;X>X>X>X%XL L 3 .           X                   3 L L %X>X>X>X>XP L L L L L L L L L L K L ^ 4.q.",
"L L L P U H M 4 5 M A P P L ;.@X;X>X>X>X-XoXw O         + * * & & * & #         O w oX-X>X>X>X:XL L L L L I L P L L L L L U } *.",
"L L P U U L Z M V A L U P L ^ :.$X-X>X>X>XOXd         + t c d.c c c c t +         d OX>X>X>X-X=XL P L L L L I L L L L P P H S F ",
"L L L L P L P P P L K L L L L L L XX-X>X>X*Xd   # & * r g.M.M.v.b.M.M.g.r * * +   d *X>X>X-XXX~ L I L L L L P L L L L P P H m 5 ",
"L L L L L L P U U P L L L L L L L ! XX%X&XOXy + r c c d.v.M.M.n.n.M.M.v.d.a.c r o y OX&X%XXX/ L L L L L L L L L L L L L L L Z Z ",
"L P L L L L L P L U ! ! P L L L L L L L I >.: # z M.M.c.s.s.g.v.b.g.s.d.h.M.M.z # : >.L L L I L L L L I L L L L L L I L L L P L ",
"L L L L L L L H K ^ ' ' ! L L L L L L L L 8 . & c N.N.d.e e c m.M.c e e d.N.N.c & X q L I L L L L I L L L L L L L L L L L L P P ",
"L L L L L I L L L ^ ' ] ^ K K P ! ! P L L ,   # x M.M.l o o l M.M.l o o l M.M.x # . , L L L L L L L L L L L L I L L L L L L L L ",
"L L I L L L L L K U ^ ^ P K K ^ ' ' ! L L N , = x M.M.l o o t N.M.l + o t N.M.x = , S L L L I L L L L L L L L L I L I P L L L L ",
"L L P L L L P L L L L L L L L ^ ' ' ! L L L L 9 p.x.x.c e e d.M.m.c e e d.m.x.p.9 L L L L L L L L L U L P I L L L L L L L L L L ",
"L L L L L L L L L L L L L L L U ! ^ ! L L L P @.f.b.z.g.s.s.g.b.v.g.s.s.g.b.z.f.@.L L L L L L L L I L L L L L L L L L L L L L L ",
"L L L L L L L L L L L I L L L L L L L L L L L $.B.V.c.l.z.b.v.c.c.v.v.z.z.c.V.B.$.L L L L L L L L L L L L L L L K L L L L L L L ",
"L L L L L L L L L L L L L L L L L K L L L L L Y f n V.x.x.n.b.c.c.b.n.x.j.V.n ,.Y I L L L L L I L L L L L L L L L L L L L L L L ",
"L L K P ! U P L L L L L L L L I L L L L L L L L h b  XC.l.k.j.l.l.j.k.l.V. X}.f ~ L L L L L L L L L L U ^ ^ ! L U ~ P L L L L L ",
"L L K ! _ ` ^ L L L L L L L L L L L L L L L L f {.Y.R.K.C.k.j.l.l.j.k.C. XR.Q.{.f P L L L L L L L L L ! ' ` ! ! ) ` ^ L L L L L ",
"L L U ` q.7.^ L K L L L L I L L L L L L L Q h {.Y.U.U.K. XZ.B.Z.Z.B.Z. X].I.I.Q.|.h Q L L L L L L L ! / O.[ ~ ^ 6.7.^ L L L L L ",
"P U ` 9.t.6.^ L L L L L L L L L L L L L L h {.R.!.U.U.~.].K.K.[.[.K.K.].~.I.U.~.Q.{.h P L L L L L ^ ` *.E B A ^ 5.7./ L L L L L ",
"U / 6.y.3.} I L L L L L L L L L L L L L L b R.~.~.~.~.U.U.I.I.I.U.I.I.(.~.~.~.~.U.Y.b L L L L K K / 7.<.F m I ( O.| U L L L L L ",
"U ) 6.2.#.S G L P L L L L I L L L L L L L b Y.~.~.~.~.~.I.I.I.I.I.I.I.I.~.~.~.~.~.R.b L L L L L L ^ 6.6.~ G ( *.T S A L P L L L ",
"P ! ..{ S m Z L P L L L L L L L L P ! ! P v Y.~.~.~.~.~.~.(.(.(.(.~.~.U.~.~.~.~.~.Y.v L L L I L L ! | } ! ! } %.B m C P P L L L ",
"L H S N B C L L P L L L L L P L L ^ ' ' ^ g Y.~.~.~.~.~.~.~.(.(.~.~.~.~.~.~.~.~.~.Y.v L L L L P L H S S H I G D B Z L L U L L L ",
"L Z M m A P P L L I L L L L L L L ! ' ] ^ g Y.~.~.~.~.~.~.P.F.L.!.).(.~.~.~.~.~.~.Y.v L L L L P P A m m A A m m H P L L L L L L ",
"L L Z A L P P L I P L L L L L L L P ! ! P v Y.~.~.~.~.).(.S.u u F.(.(.~.~.~.~.~.~.Y.v L L L L P L K Z Z L H C A L U U L L L L I ",
"L L P U L L L L L L L L L L L P L L L K L v Y.~.~.~.~.).).S.- @ i L.U.~.~.~.~.~.~.Y.v L L L L L L L L L L P L P L L L L L L L L ",
"L L P P L L L L L L I L L L L L L L L K K v T.~.~.~.~.).).S.-   - u L.(.(.~.~.~.~.Y.v L L L L L L L P P P L P P P L L L L I L L ",
"L L L L L L L L L L L L L L L L L L L P ^ n E.~.~.~.(.~.L.A.-     ; F._._.~.~.~.~.E.k L L L K P ^ ^ U L L L L L L L L L L L L L ",
"L L L L L L L L L L L L L L I L L L K ~ '  XE.~.~.).(.L.u - X     - D._._.~.~.~.~.T.j L L L L ! ' ' ^ L L L L L L L L L L L L L ",
"L L L L L L L L L L L L L L L L L L L %.n |.Q.~.~._.(.S.;         - A.L.~.~.~.~.~.Q.|.h Q U ! ( O.| ! L L L L L L L L L L L L L ",
"L L L L L L L L L L L L I L L L L L L h .XQ.^.~.~._.(.S.;         X - u L.(.(.~.~.^.Q.{.h ! ` *.E S A P P L L L L L L L L L L L ",
"! ! L L K L L P L L I P L L P L L L L b Q.~.~.~.~.).(.S.;             ; D.(.).~.~.~.~.W.b !  .%.S m Z P P L L L L L L L L L L L ",
"+.) ! K K P K P L L L L L L L L L L L b Q.~.~.~.~.).(.D.;             - S.~.).~.~.~.~.Q.b H S D B C L L L L L L L L L L L L L L ",
"9.+.^ P ! ^ ! K L L L L L L L L L L L g E.^.^.^.^.`./.D.;             ; D./.`.^.^.^.!.E.g Z M M H P P L L L L L L L ! U L L ! ! ",
"w.:.U U ) ] ^ L L L L L L L L L L L L L L L L L L L L L L L I L L L L L L ^ ` X.) ! P L L L Z H L P L L L L L L K ! _ ) ! U ( X.",
"9.4.) ( O. .U L L L L L L L L ! ^ ^ U L L L L L L L L L L L L L L L L K L / 7.7.^ K K L L L P P L L L L L L L P ^ ` 8.6.) ( 6.w.",
"0.q.7.O.T S H L P L I L L L L ! ' ' ! L K L L L L I L L L L I L L L L L L / 7.6.^ K K L L L P P P L L L L K L ! ) 8.t.w.6.6.w.t.",
"t.t.2.{ N m Z L P L L L L L L ^ ' ' ^ L L L L L L L L L L L L L L L L L L U | | ~ L L L L L L L L L L L L L K U | -.r.u.u.w.-.=.",
"0.2.E N M Z L L L L L L L L L P ^ ! U L L L L L L L L L L L L L L L L P L H S S H L P L L L L L L L L L L P L A B #.-.u.u.1.R J ",
"&.{ N m A P P L L L L L L L L L L L L L L L L L L L L P I L L L L L L U P A m m H P P L L L L L L L L L P U / I M N R -.1.E 7 5 ",
"F B B C L U P L L L I L L L L L L L L L L L L L L L L L L L L L L L L P L L Z Z H P P L L L L I L L L L L ^ ] _ I M M J J 6 4 4 ",
"5 m H P P L L L L L L L L L L L L L L L I L L L I P L L L L L I L L L L L P L L P L L L L L L L L L L L L ! | O.( G M 5 5 5 5 5 ",
"Z Z L P P L L L L L L L L L L L L L L L L L L U L L L L L U L L L L L L L L P P P L L L L L L L L L L P L H Z E O.) I V M V Z G ",
"H L L L P L L L P I L L P L L L L L I L L L L L L L I L L L L L I L L L L L P P L L L L P I L L L L L P L Z m J =.:.^ K C H L H "
};
