/* XPM */
static char *result[] = {
/* columns rows colors chars-per-pixel */
"64 64 112 2 ",
"   c #1C8235",
".  c #178239",
"X  c #1B8A39",
"o  c #19903D",
"O  c #239B3E",
"+  c #0E8346",
"@  c #00844F",
"#  c #0C9047",
"$  c #0C994E",
"%  c #149043",
"&  c #1D9441",
"*  c #1D9A46",
"=  c #15994D",
"-  c #1B9A4A",
";  c #099652",
":  c #059856",
">  c #0C9952",
",  c #00955E",
"<  c #03995C",
"1  c #149950",
"2  c #1F9B51",
"3  c #219A42",
"4  c #239B51",
"5  c #2D9E51",
"6  c #219C58",
"7  c #11A14C",
"8  c #02A050",
"9  c #00AD57",
"0  c #33A052",
"q  c #008B66",
"w  c #009564",
"e  c #009863",
"r  c #00966A",
"t  c #00996A",
"y  c #008B74",
"u  c #009574",
"i  c #009B74",
"p  c #00957D",
"a  c #2B9F65",
"s  c #00A46A",
"d  c #0074BE",
"f  c #007CC3",
"g  c #008E86",
"h  c #008A8C",
"j  c #009484",
"k  c #00938C",
"l  c #00988A",
"z  c #008D9E",
"x  c #009292",
"c  c #00929B",
"v  c #00A590",
"b  c #38A383",
"n  c #25A09C",
"m  c #0084A9",
"M  c #008DAB",
"N  c #0091A3",
"B  c #0090AD",
"V  c #0082B2",
"C  c #008EB4",
"Z  c #008EBD",
"A  c #0090B3",
"S  c #0092BA",
"D  c #00A0A0",
"F  c #00AAAE",
"G  c #00A2B8",
"H  c #00ACBD",
"J  c #5BB088",
"K  c #46AAAA",
"L  c #7CBFB9",
"P  c #0082C7",
"I  c #008DC3",
"U  c #0085CB",
"Y  c #008DCE",
"T  c #0097C2",
"R  c #0091CE",
"E  c #0099CE",
"W  c #008FD0",
"Q  c #0095D2",
"!  c #009AD5",
"~  c #00A0D7",
"^  c #00A5DA",
"/  c #00ABDC",
"(  c #12A1D7",
")  c #00B1DF",
"_  c #25A5D8",
"`  c #29A5D8",
"'  c #38A8D0",
"]  c #31A7DA",
"[  c #33A9DA",
"{  c #3CAADB",
"}  c #00B2E1",
"|  c #00BAE4",
" . c #43AEDC",
".. c #4CAFDD",
"X. c #51B1D1",
"o. c #57B3DF",
"O. c #58B3DF",
"+. c #59B3E0",
"@. c #7BC0E4",
"#. c #89C3A6",
"$. c #A8D3C9",
"%. c #B4D9D7",
"&. c #86C5E7",
"*. c #9BCEEB",
"=. c #9DD0EC",
"-. c #A5D3ED",
";. c #B2D9EF",
":. c #B7DBF0",
">. c #B9DDF0",
",. c #C0DFE4",
"<. c #CDE6F4",
"1. c #D0E9F6",
/* pixels */
"Y Y Y Y Y Y Y Y Y Y Y Y Y Y W Y Y Y Y Y Y Y Y W Y Y Y Y Y Y Y Y Y Y Y Y Y Y Y W Y Y Y Y Y Y Y Y Y Y W Y Y Y Y Y Y W Y Y Y R Y Y ",
"Y Y Y Y Y Y Y Y Y Y U Y Y Y Y Y Y Y Y Y W Y Y R Y Y Y Y Y Y Y W Y Y Y Y Y R Y Y R Y W Y Y Y Y Y Y Y Y Y Y Y Y Y Y Y W Y Y Y Y Y ",
"Y Y Y Y Y Y Y Y Y Y Y Y Y Y Y Y Y Y Y Y Y Y Y Y Y Y Y Y W Y Y Y Y Y Y Y Y Y Y Y Y Y W Y Y R W Y Y Y Y Y Y Y Y Y Y Y Y Y Y Y W Y ",
"W Y R Y Y Y Y Q Q ! Q Q W U Y Y Y Y Y Y Y Y Y Y Y Y U Y U U Y Y Y Y Y W Y Y Y Y Y Y Y Y Y Y Y Y Y Y U Y Y Y Y Y Y Y Y Y Y Y Y Y ",
"Y Y Y Y Y Y Y Q ^ } } ^ Q U Y Y Y Y Y Y Y W W W Y Y Y U U Y Y W Y Y Y Y Q Y Y Y Y Y Y Y Y Y Y Y Y Y U Y Y Y Y Y W Y Y Y Y W Y Y ",
"Y Y Y Y Y Y Y Q ^ } | } ^ ! ! Q Q Y Y Y Y U U U P Q ] +.+.{ Q Y Y Y Y W Y Y Y Y Y Y Y Y Y Y Y Y Y !  . .Q Y Y Y Y Y Y Y Y R Y Y ",
"Y Y Y Y Y Y Y Y Q ^ } | } } / ^ Q Y Y Y W Y Y P U ( *.<.<.*.` U Y Y R Y Y Y Y Y W Y Y Y Y Y Y Y Y { -.-.{ U Y W Y Y Y Y W Y Y Y ",
"Y Y R W Y Y Y Y Y Q ^ ) ) } } ^ Q Y U Y Y Q {  ...@.:.<.<.*.` W U Y Y Y Y Y Y Y Y Y Y Y Y Y Y Y U { -.-.{ Y U Y Y Q R W Y Y Y Y ",
"Y W Y Y Y Y Y Y Y Y Q Q ! ! ! Q Q Y Y Y U ` =.<.<.;.@... .{ Q Y Y Y Y Y Y Y Y Y Y Y Y Y Y Y Y Y Y !  .{ ! Y Y Y Y W R R Y Y Y Y ",
"Y Y R Y Y Y Y Y Y Y Y Y Y Y Y Y W Y Y U Y ` *.<.<.*.( U P U Y Y Y Y U Y Y Y Y Y Y Y Y Y Y Y Y Y Y Y U Y Y W W Y U U P U Y Y Y Y ",
"Y Y Y Y Y Y Y Y Y Y Y Y U Y Y Y Y Y Y Y Y Q { +.+.] W U U U Y Y Y Y Y Y Y Y Y Y Y Y Y Y Y Y Y Y Y Y U U Y W W U f f d P Y Y Q Y ",
"Y Y Y Y Y Y Y Y Y Y Y Y Y Y Y Y Y Y Y Y Y Y Y U U U Y Y Y W Q ! ! ! ! Q Y Y Y Y Y W Y Y Y Y Y Y Y Y Y Y U U U P f f d P U W R Y ",
"Y Y W Y Y Y Y Y Y Y Y Y Y Y Y Y Y Y Y Y Y Y U U U U W Y Y Q ^ } } ) } ^ Q Y Y Y Y Y Y R Y Y Y Y Y R W U f f f f P U U U Y Y Y Y ",
"Y Y Y Y Y Y Y U U U Y Y Y Y Y Y Y W Y Y Y W W Y W W W W Q ^ ^ / / / / ^ ! Q Y Y Y Y Y Y Y W Q Y Y Y Y Y f f f f U U Y U Y Y Y Y ",
"Y Y Y Y Y Y U Y Y U Y Y Y Y Y W Y Y Y Y Y Y Y Y Y Y U Q ^ / ^ Q ! Q ! ^ / ^ Q Y Y Y Y Y Y Y Y Y Y Y Y Y U U U P U W Y Y Y Y Y Y ",
"R Y Y Y Y Q { +.+.] Q U Y Y Y Y Y Y Y Y Y Y Y W Y Y W Q / / ! ! Q ! Q ^ / / ! Y Y Y Y Y Y Y Y Y Y Y Y Y U U U Q ] +.o.{ Q Y Y Y ",
"Y Y Y U Y ` *.1.<.*.( U U W W Y Y Y Y Y Y Y Y Q Y Y Y W Q ~ / / / / / / ^ Q W Y Y Y Y Y Y Y Y Y Y Y Y Y Y U U ( *.<.<.=.` U U W ",
"Y Y Y Y Y ` *.<.<.:.@.] Q W U Y Y Y Y Y Y Y U U Y W W Y Y Q ^ / } } } ^ Q U Y Y Y Y Y Y W Y Y Y Y Y Y Q {  ...@.;.<.<.*.` W U W ",
"Y Y Y Y Y Q {  ...&.:.-.[ U W W Y Y W Y W U f f U R R Y Y Y Q ! ! ! ! Q Y Y Y Y W Y W Y Y Y Y Y W U Y ` *.<.<.;.@... .{ Q U W U ",
"W Y Y Y Y Y U U P ] -.-. .U U W Y Y Y W Y Y P f P U U U Y Y Y Y Y Y U Y Y Y Y Y Y Y U U Y Y Y Y Y Y U ` *.1.<.*.( U U U Y Y W W ",
"Y W Y Y Y Y U U U Q [  .! Y Y Y Y Y Y R Y Y U P f d f P Y Y Y Y Y Y Y Y Y Y Y W Y Y U Y W W Y Y Y Y Y Q { o.O.] W U P Y Y Y Y Y ",
"Y Y Y Y Y W Y Y Y Y U Y Y Y Y Y Y Y Y Y Y W Y Y P d d P U Y Q Y Y Y Y Y Y Y U U U Q { { Q Y Y Y Y Y Y Y Y U Y U Y Y W Y W Y Y Y ",
"Y Y Y Y Y W Y Y Y Y U U Y Y R W Y W Y Y Y W W Y Y U U U Y Y Y Y Y Y Y Y Y Y Y P U ] -.-. .U U Y Y Y Y Y U U U Y Y Y Y Y Y W Y Y ",
"Y Y Y Y Y Y Y Y Y Y Y Y Y Y Y Y Y Y Y Y Y Y Y Y Y Y Y Y Y Y Y W Y Y Y Y Y Q {  ...&.:.-.] W U Y Y Y Y Y Y W W Y Y Y Y Y Y Y Y Y ",
"Y Y W Y Y Y Y Y Y Y Y W Y Y Y Y Y Y Y Y Y Y Y Y W R W Y Y Y Y Y Y Y Y Y U ` *.<.<.:.@.] Q Y Y Y Y Y Y Y Y Y Y Y Y Y Y Y W Y Y Y ",
"Y Y Y Y Y Y Y Y Y Y Y Y Y Y Y Y Q Y Y Y R Y W Y Y Y Y Y Y Y Y Y Y Y Y U Y _ *.<.<.*.( U U W Y Y Y Y Y Y Y Y Y Y Y Y Y Y Y Y Y Y ",
"Y Y Y Y Y Y Y Y Y Y Y Y Y Y Y Y Q Y Y Y Y Y Y Y Y Y Y Y Y Y Y Y Y Y Y Y Y Q [ +.+.] W U U Y W Y Y Y Y Y Y Y Y W W Y Y Y Y Y Y Y ",
"W Y R Y Y Y Y Y Y Y Y Y Y W W Y U U Y Y Y Y Y Y Y Y Y W W Y R Y Y Y Y Y Y W Q W U U W Y W Y Y Y Y Y Y Y Q Y R Y Y Y Y Y Y Y W R ",
"Y Y Y Y Y Y Y Y Y Y Y Y Y Q Q U f f U W Y Y Y Y Y Y Y Y Y Q Y Y Y Y Y Y Y Q ^ ! W P U W Y Y Y Y Y Y Y Y Y Y Y Y Y Y Y Y Y Y Y Y ",
"Y Y Y Y Y Y Y Y Y Q ! Q U P P f f f U W Q Y Y Y R Y Y Y Y Y Y Y Y Y Y Y Y Q ^ / ^ ! ! Q Y Y Y U Y Y Y Y Y W Y Y R Y Y Y Y Y Y W ",
"Y Y Y W Y Y Y Y Y ! / ^ U d d f P U W Y Y Y Y Y Y Y Y Y Y Y Y Y Y Y Y Y Y Y Q ^ / } } ^ Q Y Y Y Y Y Y Y Y Y Y Y Y W Y Y Y R Y Y ",
"Y Y R Y Y Q Y Y U R ! ~ E P I Y Q ! W Y Y Y Y Y Y W Y Y Y Y Y Y Y Y Y Y Y Y Y Q ^ } } / ! Q ! ! ! Q Q Y Y Y Y Y Y Y W Y Y Y Y Y ",
"Y Y Y Y Y Y W U P d P Y ! ^ / / ) / Q Y Y Y Y Y Y Y Y Y Y Y Y Y Y Y Y Y Y Y Y Y Q ! ! ! / } } ) ) ^ Q Y Y Y Y Y Y Y Y Y Y Y Y Y ",
"Y Y Y Y Y W Y Y P d d U ^ ) } } ) / ! Q W Y Y Y W Y Y Y Y Y Y W Y Y Y Y Y Y Y Y Y U Y Q ^ } / } ) ^ Q Y Y Y Y Y Y Y Y Y Y Y Y W ",
"Y W W Y Y R Y Y U P P Y Q ! ! ! ! ^ / / Q Y Y W Y Y Y Y Y Y Y Y Y Y Y W Y Y Y Y Y Y U Q Q ! ! ! ! Q Q Y Y Y Y Y Y Y Y W Y R Y Y ",
"Y Y Y Y Y Y Y Y R R R Y Y Y Y Y Y Q ^ ^ Q Y U Y Y Y Y W Y R Y Y Y Y Y Y Y W Y Y Y Y Y Y Y Y Y Y Y Y Y Y W Y Y Y Y Y Y R Y Y Y Y ",
"Y R Y Y W Y Y Y R R Q Y Y Y Y U U W Q Q Q W Y Y Y Y Y Y Y Y Y Y Y R Y Y Y Y Y Y Y Y R Y Y Y Y Y Y Y Y Y Y Y Y Y Y Y Y Y Y Y Y Y ",
"Y Y Y Y R Y Y Y Y Y Y Y Y Y Y Y W Y U U U U Y Y Y R Y W W Y Y Y Y Y Y Y Y Y W R Y Y Y Y Y Y Y Y W Y Y Y Y Y Y Y Y W Y Y Y W Y Y ",
"Y Y W Y Y Y Y Y Y Y Y Y Y Y Y W Y Y Y U U Y Y W Y Y Y Y Y Y Y Y Y W W Y Y Y Y Y Y Y Y Y Y Y Y R Y Y Y Y W Y Y Y Y Y Y Y Y W Y Y ",
"Y Y Y Y Y Y Y Y Y Y Y Y Y Y Y Y Y Q { +.+.] W U P Y Y Y Y Y Y Y Y Y Y Y Y Y Y Y Y R Y Y U U U U P Y Y W W Y Y Y R Y Y Y Y R Y Y ",
"Y R Y Q Y Y Y Y Y Y Y R Y W Y U U ` *.<.1.*.! U U Y Y Y Y Y Y Y Y Y Y Y Y Y Y Y Y W W Y P f d d f f Y Y W Y Y Y Y Y Y Y R Y W Y ",
"W Y Y Y Y Y Y Y Y Y Y Y Y Y Y Y Y ` *.<.<.:.@.+. .{ Q Y Y Y W Y Y Y R Y Y Y Y Y W R Y U f f f f f f f Y Y W Y Q W Y Y Y Y Y Y Y ",
"Y Y Y Y Y Y Y Y W Y Y Y Y Y Y Y Y Q {  ...@.:.<.<.*.` U U W Y Y Y Y Y W W Y Y Y Y Y Y Y U U U P U P f P Y Y R Y Y Y Y Y R Y Y Y ",
"Y Y Y Y Y Y Y Y Y Y Y Y Y Y Y Y Y Y U U U ( *.<.1.=._ Y U W Y Y Y Y Y Y R Y Y Y Y Y Y Y Y W Y Q Y Y f f P U U U Y Y Y Y W Y Y Y ",
"Y Y Y Y Y Y Y Y Y Y Y Y Y Y Y Y Y Y U U U W ] +.+.{ ! Y Y Y Y Y Y Y Y W Y Y Y Y Y Y Y Y W Q R W W Y U P f f d P Y Y Q Y Y Y Y Y ",
"Y Y Y Y Y U U Y Y Y Y Y Y Y Y W Y Y W Y W Y U f f f Y W Q R Y Y Y Y Y Y Y Y Y Y Y Y Y Y Y Y Y Y Y W Y Y f f f f U W Y Y Y Y Y Y ",
"Y Y Y Y U Y U Y Y Y Y Y Y Y Y Y Y Y Y Y W U f d d f U Q W Y Y Y W Y Y Y Y R Y Y Y R W Y Y Y Y Y Y Y W Y Y P U U Y Y Y Y Y Y Y Y ",
"Y Y Y Q { o.+.] W U Y Y W R Y Y Y Y Y W W U f f f f P U U U Y Y Y Y R Y Y Y Y W Y Y Y Y Y Y Y Y Y Y Y Y Y W Y Y Y Y R Y Y Y Y W ",
"Y Y U ` *.<.1.*.( U U W Y Y Y Y Y W Y Y Y Y U U U U f f d P U Y Q Y Y Y Y Y Y Y Y Y Y Y Y Y Y Y Y Y Y Y R W Y Q Y Y Y Y Y Y W Y ",
"Y U Y ` *.<.<.:.@.] Q W U W Y Y Y R Y Y Y Y Y Q Y U P d d P Y R Y Y Y Y Y Y Y Y Y Y Y Y Y Y Y Y Y W Y Y Y Y Y Y Y Y Y Y R Y Y Y ",
"Y Y Y Q {  ...&.>.-.[ U Y Y Y Y Y Y Y Y Y Y Q W Q Y U P U U Y Y Y Y Y W Y Y Y Y Y Y Y Y Y Y Y Y W Y R Y Y Y Y Y Y Y Y Y Y Y Y Y ",
"Y Y Y Y Y P U ] -.-.{ Y U Y W Y Y Y Y Y Y Y Y Y Y Y R R R Y Y Y Y Y Y Y Y Y Y Y Y Y U Q Q Q W Y Y Y Y Y Y Y Y Y Y Y Y Y Q Y Y Y ",
"Y Y Y Y U U U Q [  .Q Y Y Y Y Y Y Y Y W R Y Y Y Y Y Y R R Y Y Y Y Y Y R Y Y Y Y Y U Y Q ^ / Q Y Y Y Y Y Y Y Y Y Y Y Y Y Y Y Y Y ",
"Y Y Y W Y Y Y Y U Y Y W Y Y Y W Y Y Y Y Y Y Y Y Y Y Y Y Y Y Y R Y Y Y Y U Y Q ! ! ! ! ^ / / ! Y Y Y R U U Y Y U U U Y Y Y Y Y Y ",
"Y Y Y Y Y W Y Y U Y Y Y Y Y Y Y Y Y Y S B B Z Y Y Z B z N N N A S R U U Y Q ^ } ) ) / / ! Q R I C C I Y U U U Y Y Y Y Y Y Y Y Y ",
"Y Y Y Y Y Y Y Y R U I U Y Y W Y W I Z B c c B S C A c k k x x c B S T E ! ^ / / ) } } ^ Q I Z A N N C T ' o.O.O.O.[ ! Y Y Y Y Y ",
"Y Y Y Y Y Y Z S S M m V U Y R I S A c j e t i j k g y q w e e t u l D H ) / ~ ! Q ! ! Q R C c j u u g n L %.<.<.1.*.` Y U Y Y Y ",
"R Y Y Y Y C z c x k g h z M B N x l r < = * $ < e , @ + # - * = > e i v F G S C Z Z Z C N x u e > : w a J #.$.,.1.*.` Y Y Y Y Y ",
"A Z W W Z c u w s s < , w r e e e < 1 * * * * * - % .   o - * * - - 1 < t i j k c c c j u e > - - - = = 6 a b K X.{ E U Z S I Y ",
"x c C Z N r ; 8 9 9 7 * 3 * * - * * * * * * * 3 * & X X & 3 * * * * * * * * : t u u r , 1 - 3 * - 3 * * * * : u z C C M N c N N ",
"e t u j r ; * - 7 7 - * 3 * * * * * * * * * * * * * & & * * * * * * * * * * * = 1 > 1 = * * * * * * * * * * * : w u j p p r r u ",
"* * 3 3 * * * * * 3 * * * * * * * * * * * * * * * * * * * * * * * * * * * * * * * * * * * * * * * * * * * * * * * * = 1 $ * * - ",
"- 3 O O 3 * * 3 * 3 3 * - 3 * * * * * * * * * * * * * * * * * * * * * * * * * * - * * * * * * * * * * * * * * * * * * * * - * * ",
"> - 3 * - 1 1 - 1 1 1 1 1 ; ; 2 5 0 0 0 4 1 1 = 1 1 > 1 1 1 1 1 1 1 1 1 1 1 1 = = = = = = 1 1 1 1 1 1 1 1 1 1 1 - = 1 1 = = - > "
};
