/* XPM */
static char *result[] = {
/* columns rows colors chars-per-pixel */
"64 64 232 2 ",
"   c #2E120B",
".  c #391900",
"X  c #1D370D",
"o  c #2D2803",
"O  c #332302",
"+  c #392406",
"@  c #263702",
"#  c #353205",
"$  c #382718",
"%  c #293717",
"&  c #3D3316",
"*  c #223C22",
"=  c #441C04",
"-  c #45250D",
";  c #48280A",
":  c #582B0D",
">  c #462814",
",  c #452916",
"<  c #4A2A15",
"1  c #4D2B18",
"2  c #542C13",
"3  c #512E1A",
"4  c #45341C",
"5  c #54321C",
"6  c #5A371A",
"7  c #633517",
"8  c #65391D",
"9  c #6A3C1E",
"0  c #483225",
"q  c #5E3923",
"w  c #553929",
"e  c #623D24",
"r  c #6B3E22",
"t  c #633C28",
"y  c #065902",
"u  c #165C01",
"i  c #194816",
"p  c #0D5312",
"a  c #254201",
"s  c #304F10",
"d  c #285B1C",
"f  c #066303",
"g  c #006C01",
"h  c #007400",
"j  c #007C00",
"k  c #00740A",
"l  c #076313",
"z  c #007912",
"x  c #055624",
"c  c #60571F",
"v  c #4E4633",
"b  c #6D4225",
"n  c #654428",
"m  c #6C432B",
"M  c #714327",
"N  c #71462C",
"B  c #744A2E",
"V  c #644A3B",
"C  c #754B30",
"Z  c #794D32",
"A  c #704F3B",
"S  c #65553E",
"D  c #7D5136",
"F  c #73513C",
"G  c #2C3E49",
"H  c #2A4453",
"J  c #184965",
"K  c #2B566D",
"L  c #375768",
"P  c #3B6175",
"I  c #544D4E",
"U  c #6B5345",
"Y  c #69584F",
"T  c #775947",
"R  c #755C4D",
"E  c #6F635D",
"W  c #55656E",
"Q  c #466576",
"!  c #777371",
"~  c #805C47",
"^  c #8B6956",
"/  c #926C56",
"(  c #98735D",
")  c #87766C",
"_  c #967662",
"`  c #9B7B69",
"'  c #A97E64",
"]  c #008502",
"[  c #008C05",
"{  c #009308",
"}  c #009A0E",
"|  c #008618",
" . c #009C11",
".. c #00941C",
"X. c #00A10E",
"o. c #00A516",
"O. c #00A916",
"+. c #00A51B",
"@. c #00AA18",
"#. c #009821",
"$. c #00A328",
"%. c #00A628",
"&. c #00A234",
"*. c #8C817B",
"=. c #AA8168",
"-. c #AC8772",
";. c #B08972",
":. c #006599",
">. c #0276A8",
",. c #007BAB",
"<. c #006DBC",
"1. c #007EB6",
"2. c #0074BE",
"3. c #2273A3",
"4. c #4E778C",
"5. c #53798E",
"6. c #747D85",
"7. c #0076C3",
"8. c #007CC3",
"9. c #007BC9",
"0. c #0082B4",
"q. c #0085BA",
"w. c #008ABB",
"e. c #1D89B7",
"r. c #2C8BB5",
"t. c #6C8292",
"y. c #6893B0",
"u. c #0083C5",
"i. c #0089C5",
"p. c #0085CB",
"a. c #008DCE",
"s. c #0495CB",
"d. c #0092CE",
"f. c #1A97CB",
"g. c #008FD0",
"h. c #0094D1",
"j. c #009BD5",
"k. c #049ED8",
"l. c #179BD5",
"z. c #2397CB",
"x. c #399DCF",
"c. c #2A9ED1",
"v. c #01A1D7",
"b. c #07A6D7",
"n. c #00A5D9",
"m. c #00ABDC",
"M. c #12A1D7",
"N. c #1AA1D7",
"B. c #00B1DF",
"V. c #2AA6D7",
"C. c #25A3DA",
"Z. c #2AA5D9",
"A. c #34A3D5",
"S. c #32A7DA",
"D. c #3DA7DB",
"F. c #33A8DA",
"G. c #3AAADB",
"H. c #00B2E1",
"J. c #00BAE4",
"K. c #34B3E1",
"L. c #409FCC",
"P. c #49A7D3",
"I. c #4CA7D3",
"U. c #42ACDC",
"Y. c #4CAFDD",
"T. c #48B4DF",
"R. c #56B3DF",
"E. c #59B3DF",
"W. c #7DB0C9",
"Q. c #7CB6D6",
"!. c #72B3DA",
"~. c #67B8E2",
"^. c #7BBDE4",
"/. c #7CC0E4",
"(. c #77C3EB",
"). c #9C8C85",
"_. c #888E93",
"`. c #B0998B",
"'. c #B39D91",
"]. c #BAA69A",
"[. c #BFB39F",
"{. c #94A0A9",
"}. c #ADA9A6",
"|. c #C0A99E",
" X c #C5AFA4",
".X c #C9B3A6",
"XX c #C9BFBB",
"oX c #D0C3BE",
"OX c #84B3CC",
"+X c #87BCD8",
"@X c #9ABED2",
"#X c #C0BDC2",
"$X c #89C2DF",
"%X c #B7C1C7",
"&X c #ABC3D4",
"*X c #B8CAD5",
"=X c #85C2E3",
"-X c #8BC4E3",
";X c #8BC7E9",
":X c #93C7E6",
">X c #94CBE9",
",X c #9BCDEA",
"<X c #89D2ED",
"1X c #97D4EC",
"2X c #9DD0EC",
"3X c #A7D4ED",
"4X c #B4DAEF",
"5X c #B9D9EB",
"6X c #AFDFF7",
"7X c #BADDF2",
"8X c #BBE3FA",
"9X c #C9C6C5",
"0X c #D7CBC6",
"qX c #DCD1CB",
"wX c #C2CCD3",
"eX c #CDCED0",
"rX c #CAD2D6",
"tX c #C6D3D9",
"yX c #CAD4DB",
"uX c #D3D7DA",
"iX c #EBD9CF",
"pX c #F1DBCF",
"aX c #E8DBD4",
"sX c #F2E2D9",
"dX c #C8DCE8",
"fX c #C0DFF1",
"gX c #D2E0E8",
"hX c #C4E2F3",
"jX c #CDE6F5",
"kX c #CAEAF9",
"lX c #D2EBF9",
"zX c #EEF6FB",
/* pixels */
"a.a.a.a.a.a.a.a.g.a.a.a.a.a.a.a.a.a.a.a.g.a.a.a.a.a.h.a.a.a.d.a.a.p.9.7.2.9.p.3.E c d | #.%.%.%.%.%.$.$.$.$.$.$.$.$.$.$.$.$.$.&.",
"a.a.a.a.a.a.a.a.a.a.p.a.a.a.a.a.g.a.a.a.a.a.g.a.a.a.a.a.a.a.a.a.a.i.1.7.2.a.f.y.R 8 s j  .@.O.o.o.o.o.o.o.o. .+.o.o.o.o.o.o.+.+.",
"a.a.a.a.a.a.a.a.a.a.a.a.a.a.g.a.a.a.g.a.a.a.a.a.a.a.a.a.a.a.d.a.a.i.i.9.7.k.,X#X_ 6 % z ..O.O.O.o.o.o.o.o.o.o.o.o.o.o.o.o.o.o.+.",
"a.a.d.a.a.a.a.h.h.j.j.h.g.a.p.a.a.a.a.a.a.g.a.a.a.a.a.p.p.p.a.a.a.a.a.p.9.h.:XyX XE v p z X.O.O.X.o.o.o.o.o.o.o.o.o.o.o.o.o.o.$.",
"i.d.a.a.a.a.a.d.n.H.H.n.h.a.p.a.a.g.a.a.a.g.a.g.a.a.a.p.p.a.a.a.a.a.g.a.9.7.h.=X*X[.S a y [ X.O.O.O.o.o.o.o.o.o.o.o.o.o.o.o.o.$.",
"i.a.a.a.a.a.a.h.n.H.J.H.n.j.j.h.g.a.a.a.a.a.p.p.p.g.S.E.E.G.h.i.,.1.p.p.p.7.<.z.%X[.c a y j } O.O.O.o.o.o.o.o.o.o.o.o.o.o.o. .$.",
"d.i.d.a.a.a.a.a.h.n.H.J.H.B.m.n.h.a.p.a.a.a.a.p.p.M.,XjXjX,XV.>.K K u.g.g.p.7.>.t.=.c u f j } O.O.o.o.o.o.o.o.o.o.o.o.o.o.o.O.$.",
"i.d.a.a.a.a.a.a.a.h.n.B.B.B.B.n.h.a.a.a.a.h.G.U.Y.^.4XjXjX,Xr.K 0 K u.g.g.g.9.:.I c s g j [ X.O.O.o.o.o.o.o.o.o.+. .o.o.o.o.o.$.",
"a.a.a.g.a.a.a.a.a.a.h.h.j.h.s.s.h.a.a.p.a.Z.3XhXjX4X^.Y.U.L.P 0 > L u.g.g.g.9.:.I q s l | X.O.X.O.o.o.o.o.o.o.O.O.o.O.o.o.o.o.$.",
"a.a.a.a.a.a.a.g.a.a.a.a.a.a.i.a.a.a.a.a.p.Z.,XjXjX,XN.q.1.4.v . . G >.u.g.k.g.:.I m v x | X.O.O.O.o.o.o.o.O.O.O.o.O.O.@.@.O.O.$.",
"a.a.a.a.a.a.a.a.g.a.a.a.p.a.a.a.a.d.a.a.a.h.G.R.E.S.h.1.y.}.R . . $ G 5.OX(.j.:.I m v x z [ o.@.O.o.O.o.o.O.+.+.O.o.o.+.O.O.o.$.",
"d.a.a.a.a.g.a.a.a.a.a.g.a.a.a.a.a.d.a.a.g.a.a.p.p.g.a.w.+XgX'.R T T T `.uX6XS.:.H 6 # p f j [  .O.+.O.+.O. .}  .o.o. .{ {  .o.$.",
"a.a.a.a.a.a.a.g.a.a.a.g.d.a.a.a.a.a.a.a.a.a.p.p.p.p.a.u.c.<XyX0X9XXXoXeX-X~.M.:.I 7 ; @ f h j [  .O.@.@.O.} ] [  . .[ j j ]  .$.",
"a.g.a.a.a.a.p.p.p.p.a.a.d.a.g.a.a.a.a.a.a.a.a.a.a.a.a.h.s.m.1XkXkXjXkX<Xn.v.p.,.6./ 7 @ u g h j [ }  . .o.} j j [ { j g g j [ #.",
"a.a.a.g.g.a.a.p.a.a.a.a.a.a.a.a.a.a.a.d.a.a.a.a.a.a.a.h.n.m.Z.T.T.T.T.m.m.v.7.f.&X XT + X x g h j j j [ o.} j h j j h g g h j z ",
"a.a.a.a.a.h.D.R.R.S.h.p.a.d.w.,.a.a.g.a.a.a.a.a.a.a.a.h.n.m.n.j.h.j.h.n.n.d.i.!.tX X~ $ X x y f h g h j [ { ] h g h h h j h h z ",
"a.a.a.p.a.Z.2XjXjX,XM.p.p.z.5.L >.a.a.a.a.a.a.a.a.a.a.a.d.k.m.m.m.m.m.n.p.g.^.wX].^ n 4 * i @ a u g h h j ] j h g h h h h h h k ",
"g.a.a.a.p.Z.2XjXjX4X/.Y.T.OX) w L r.P.c.i.a.a.u.g.g.g.a.i.d.n.B.H.B.B.h.<.D.lXpX=.8 2 4 % % o # u k j h h g u f g f f u u u u l ",
"a.a.a.a.a.h.G.U.Y.;X7X4X4X9X_ : n _.*XOXq.p.8.8.p.g.g.g.a.a.j.k.j.k.j.p.<.U.lXpX' 8 7 6 # + + $ i l k h k u a @ i i a @ # @ @ @ ",
"a.a.a.g.a.a.a.p.p.V.3X5X4XwX'./ ^ ].yX+Xi.p.u.8.u.p.p.p.a.a.a.a.a.a.g.9.<.U.lXpX' r r n ; . > , $ i u f g u # O % % o . . O O + ",
"a.a.a.a.a.a.p.p.p.h.D.I.I.=XrX0X0XuX-XS.s.a.a.8.8.7.8.u.a.a.g.a.a.p.a.9.<.D.kXiX' M r b 3 - < > $ o @ a i d & + O O + - - - - $ ",
"a.g.a.a.a.g.a.a.a.a.p.a.a.v.>XhXhX>Xk.a.d.d.a.a.8.7.1.u.p.g.a.a.a.a.a.p.7.h.:XwX'./ D r 3 < 1 - O O . o % % & - ; + > 1 1 1 1 0 ",
"a.a.a.a.a.a.a.g.a.a.p.p.a.h.N.U.U.M.h.a.a.g.g.a.a.u.p.a.a.a.d.a.a.a.a.a.p.p.a.~.wX.X( r 2 1 1 > ; - - + o o > < - - > 1 1 1 2 0 ",
"g.a.a.a.a.a.a.a.a.g.a.a.a.a.a.a.d.a.a.a.a.a.a.a.a.a.a.a.a.a.a.a.a.a.a.a.a.a.p.S.hXaX;.r - 1 3 5 1 1 1 > + ; 2 5 3 > < 1 5 5 1 0 ",
"a.a.a.a.a.a.a.a.a.a.a.a.a.a.a.a.a.a.a.a.a.a.a.g.a.h.a.g.a.a.a.a.a.a.a.a.p.C./.;XkXsX;.e - 3 q t 5 1 1 5 6 b b e 5 1 > 5 e e 5 0 ",
"a.a.a.h.d.a.a.a.a.i.,.q.d.a.a.d.a.a.a.h.a.g.a.a.a.a.a.a.a.a.a.g.d.a.a.p.a.M.^.,XlXpX' 7 - e N N q > < 5 m D D m 5 1 3 e N N n w ",
"a.a.a.a.h.a.a.i.a.,.L 4.f.a.a.a.g.a.a.a.a.a.a.g.a.a.a.a.a.g.a.g.a.a.a.a.a.g.g.U.fXiX' r 7 N C N 5 > > 5 m D D m 6 3 e N Z C m V ",
"a.a.a.g.h.h.r.r.>.K $ Y OXG.h.a.p.p.a.a.a.a.a.a.a.g.a.a.a.a.a.a.g.a.a.a.a.u.7.h.;XwX'./ D Z B r 5 > > 5 m Z Z n 3 5 t Z Z B C F ",
"a.a.a.a.h.V.+X{.W $   R %X3XV.a.8.u.p.g.g.a.a.d.a.a.a.a.a.a.d.a.a.a.i.a.a.q.,.7.g.!.wX.X( B b m q > > 3 m D C b 5 5 m Z C C Z F ",
"a.g.a.a.a.C.2XyX).A F ).wX:Xl.8.7.8.p.g.a.a.a.a.a.d.a.a.a.g.a.a.a.a.a.a.a.q.q.9.9.F.lXsX=.9 8 m 3 1 3 t m D C m q q m C C C C F ",
"a.a.d.a.a.h.F.-XuXoXoXtX+Xz.u.8.u.p.g.a.a.a.a.a.g.a.a.g.a.a.a.a.a.a.a.a.q.u.a.a.7.C.lXsX=.M r m 5 5 e N B C C N m m N C Z B B F ",
"a.a.a.g.a.a.a.k.:XhXhX1Xn.i.u.a.h.j.g.a.a.a.g.a.a.a.a.a.a.a.g.a.a.a.0.,.q.a.a.i.2.g.;XeX'./ D e 3 3 q N C C C B Z C C C B B B F ",
"a.a.g.a.a.a.g.p.d.c.A.n.n.n.n.m.H.n.h.a.p.g.a.a.a.a.d.a.a.a.a.a.a.,.Q W >.a.a.0.<.7.a.!.*X.X( e 2 < 3 t m C C C C Z C C C C C A ",
"a.a.a.a.a.h.a.a.u.2.2.p.n.H.H.m.B.m.k.h.g.a.a.a.a.a.a.a.a.a.a.h.w.Q V U 4.,.a.q.e.p.7.C.hXsX;.r : 1 > 3 m C D B C B B Z Z Z Z A ",
"a.g.a.a.a.a.a.a.a.u.u.a.d.k.k.j.j.n.m.n.h.a.a.a.a.a.a.a.g.a.d.s.t.U e C Y P 1.a.f.P.g.k.8XsX-.b 8 6 1 5 n C Z B C B B C C Z C A ",
"a.a.a.a.g.a.a.g.a.a.a.a.a.a.a.p.a.h.n.m.h.a.a.a.a.a.a.h.G.Y.G.y.E e 7 9 9 U 5.e.h.U.k.Z.8XpX' r 9 m q q m B b b b b B B N e e q ",
"a.d.a.g.a.a.a.a.a.h.a.a.a.a.a.a.p.a.d.h.g.g.a.a.a.g.a.Z.,X*X_.E m n b 8 e ^ }.Q.k.M.d.C.7XpX=.9 r B m m N B m M M N B m q 5 2 0 ",
"a.a.a.a.g.a.a.a.a.a.a.a.a.a.g.a.a.u.p.a.p.a.a.a.d.a.a.Z.3XrX`._ ` -.=.( =.].gX;Xn.h.d.a.^.*X'./ B r 9 9 r Z / ` ` / Z : = 3 U ^ ",
"a.a.a.a.a.a.a.a.a.a.a.a.g.a.a.a.a.a.a.p.a.p.a.g.a.a.a.h.G.$XeX0XqXqXiX0XqXgX-XV.h.g.g.u.u.!.*X.X/ 9 9 9 r ^  XqXqX.X^ : . V '.XX",
"a.g.a.a.a.d.a.a.a.a.g.a.a.a.a.a.a.h.G.E.E.S.g.p.p.p.a.g.a.k.>X5X3X*XfXfX&XW.k.d.a.a.g.u.7.j.>XuX|.( ( ( _ '.tXhXhXdX'.^ T ).@X,X",
"a.a.a.d.a.a.a.a.a.i.a.a.a.a.a.a.p.V.,XkXlX,XM.u.p.a.a.a.a.d.M.A.e.z.x.A.e.i.h.a.a.g.a.a.7.u.d.!.tXqXqXqXqXrX^.U.D./.rX0XoX@XA.k.",
"g.a.a.a.a.a.a.a.a.a.a.d.a.a.a.p.a.V.,XjXjX4X^.Y.U.G.d.a.a.a.a.a.g.a.a.a.g.a.a.a.d.g.g.p.u.2.7.d.$XfXfXfXhX>Xb.a.a.k.>XhXhX(.d.a.",
"a.a.a.a.a.a.a.a.a.a.a.a.a.a.a.a.a.h.D.U.Y./.4XjXjX,XZ.a.p.a.a.a.a.a.a.a.a.d.a.g.a.a.a.a.a.p.p.p.h.A.A.A.D.N.h.a.a.d.N.U.G.k.d.a.",
"a.a.a.g.a.d.a.a.a.a.a.a.a.a.d.a.a.a.a.u.p.N.,XkXlX,XC.p.p.g.h.a.a.a.a.a.a.a.a.a.a.a.a.a.a.a.a.h.g.p.u.7.u.p.p.a.a.a.a.a.d.a.a.a.",
"a.a.a.a.a.a.a.a.a.a.a.a.a.a.a.a.a.a.p.u.p.g.S.E.E.G.h.a.a.a.a.a.d.a.a.a.a.a.a.a.a.a.a.d.g.g.h.a.g.a.p.u.8.7.1.9.a.a.h.a.a.a.a.a.",
"a.a.a.a.a.p.p.a.a.a.a.a.a.a.a.a.a.g.g.a.g.a.p.u.u.p.a.h.g.d.a.a.a.a.a.a.a.a.a.a.g.a.a.a.a.a.a.a.g.g.g.a.8.7.7.u.p.g.a.a.a.a.a.a.",
"a.a.a.a.a.p.p.a.a.a.a.a.a.a.a.a.a.a.a.h.g.p.7.<.2.7.a.a.h.a.a.a.a.a.d.a.d.a.a.a.a.a.a.a.a.a.a.a.a.g.g.a.a.u.p.p.a.a.a.a.a.d.g.a.",
"a.a.a.h.D.E.E.S.d.p.a.a.a.i.a.a.a.a.a.g.g.p.u.7.7.7.u.p.p.p.a.a.a.a.a.a.a.a.a.g.a.a.a.g.a.a.a.g.a.a.g.a.g.a.a.g.a.a.a.g.a.a.a.a.",
"a.a.p.Z.2XkXjX,XM.p.p.a.a.a.a.a.a.a.d.a.a.a.p.p.p.u.8.7.8.u.p.a.g.a.a.a.g.a.a.a.g.a.a.a.a.a.a.d.a.a.a.a.g.d.g.g.a.a.a.h.a.a.a.a.",
"a.p.a.Z.,XjXjX7X^.S.d.a.a.a.a.a.a.a.a.a.a.a.a.h.a.a.u.7.2.2.>.q.d.a.g.a.a.a.a.a.a.a.a.a.a.a.a.d.q.>.a.a.a.a.a.a.a.a.a.a.a.a.a.a.",
"a.a.a.h.D.U.Y.;X7X2XF.a.p.a.i.a.a.a.d.a.a.a.h.g.h.a.p.u.u.>.H 4.f.g.g.a.a.a.a.g.a.a.a.a.a.a.a.z.5.L >.a.d.a.a.a.a.a.a.a.a.a.a.a.",
"a.a.a.a.a.u.u.S.3X3XU.p.a.a.a.i.i.i.a.a.a.a.a.a.a.h.G.L.1.J   E W.G.h.a.a.a.a.a.a.a.a.d.h.v.K.OX_ w L e.L.G.h.a.a.a.g.a.a.a.a.g.",
"a.a.a.a.a.9.u.h.F.D.h.a.a.a.a.a.i.i.i.a.a.a.a.a.a.Z.2X%XW $   T %X2XZ.a.a.a.a.a.p.a.p.h.n.K.1X9X` 7 n 6.%X>XC.a.a.a.a.a.a.a.a.a.",
"a.a.a.a.a.a.a.a.a.a.d.q.,.0.i.a.i.i.a.a.a.g.a.a.a.Z.,XwX).U U ).wX,XC.a.p.g.h.j.j.j.j.n.m.K.3XyX'.^ ^ '.yX>Xk.p.p.p.i.a.a.a.a.h.",
"g.a.a.g.d.a.d.a.u.a.a.>.Q Q ,.a.a.i.a.a.a.a.a.a.a.h.G.-XeX9XoXwX=XD.d.a.a.h.n.B.B.B.B.m.k.v.F.$XrX0X0XuX=XV.d.a.a.u.w.i.a.a.a.a.",
"a.a.a.a.a.a.h.a.a.a.u.>.I U P 0.a.a.a.a.g.a.a.a.g.a.a.n.>XhXfX>Xk.h.h.j.j.k.m.B.B.B.H.n.d.a.a.k.>XhXhX3X~.R.R.R.R.D.i.u.u.a.a.a.",
"a.g.a.a.a.a.g.a.g.p.8.:.I r V 5.d.a.a.a.a.a.a.a.a.a.a.h.N.U.G.M.a.h.n.H.H.m.k.h.h.h.k.h.a.a.a.d.N.F.D.E.2XjXjXjXjX,XA.u.p.a.a.a.",
"a.a.a.a.a.a.a.d.A.L.>.P v 7 9 *.Q.A.d.a.p.p.p.p.a.a.a.a.a.a.a.a.a.h.n.B.B.n.h.a.a.i.a.a.a.a.a.a.a.p.a.Z.2XlXjXjXjX2XV.a.a.a.a.a.",
"a.a.a.g.a.p.u.d.:X*X! I q 7 9 ' tX,Xc.g.a.a.a.a.a.a.a.a.a.a.g.a.a.d.h.k.k.h.a.a.a.a.a.a.a.a.a.a.a.a.a.h.G.E.E.E.E.D.h.a.a.a.a.a.",
"g.a.a.a.a.a.u.d.:XyX'.` _ _ _ '.tX:Xj.h.A.E.E.D.h.a.a.a.a.a.a.a.a.a.a.a.a.a.a.a.a.a.a.a.a.a.a.a.a.a.g.a.a.p.p.a.a.u.a.a.a.a.a.a.",
"a.a.d.a.a.a.p.a.A.$XuXqXqXqXqXwXQ.h.a.N.2XjXjX2XZ.a.p.a.a.g.a.a.a.a.a.a.a.a.a.a.a.a.a.i.i.a.a.a.a.g.a.a.a.p.p.p.p.a.a.a.a.a.a.a.",
"a.a.g.a.a.a.g.a.a.k.>XhXfXfXfX:XP.s.c.~.4XjXjX2XZ.a.p.a.a.a.a.a.a.a.a.a.a.a.a.a.d.a.a.a.a.a.a.a.a.a.a.a.a.a.a.g.a.a.a.a.d.a.d.a.",
"g.a.a.a.a.g.a.g.a.h.M.U.U.F.S.Y.:X5XfX3X^.T.U.D.h.a.a.a.a.a.a.a.a.a.a.a.a.a.a.a.a.a.a.a.a.a.a.a.a.a.a.a.a.g.a.a.a.a.a.a.a.a.a.a.",
"a.a.a.a.a.a.a.a.g.a.h.h.h.g.g.P.7XzXzXfXY.h.h.h.g.a.a.g.d.a.a.a.a.a.a.a.a.a.a.a.a.a.a.a.a.a.a.a.a.g.a.a.a.a.a.g.a.a.g.a.a.a.a.a."
};
