/* XPM */
static char *result[] = {
/* columns rows colors chars-per-pixel */
"64 64 204 2 ",
"   c #000000",
".  c #040905",
"X  c #150E02",
"o  c #001501",
"O  c #001A01",
"+  c #1A1301",
"@  c #150219",
"#  c #140419",
"$  c #281E00",
"%  c #002401",
"&  c #002B01",
"*  c #10350A",
"=  c #2F2404",
"-  c #322806",
";  c #1C0621",
":  c #330A3C",
">  c #004B05",
",  c #004B07",
"<  c #005A06",
"1  c #004E1F",
"2  c #006908",
"3  c #007201",
"4  c #007C00",
"5  c #06770A",
"6  c #007A0D",
"7  c #157D07",
"8  c #134527",
"9  c #34533B",
"0  c #006822",
"q  c #51410F",
"w  c #534210",
"e  c #5E4C13",
"r  c #66510E",
"t  c #3A0C43",
"y  c #451150",
"u  c #5E196B",
"i  c #601A6E",
"p  c #641C74",
"a  c #6B1F7B",
"s  c #5C2469",
"d  c #007268",
"f  c #414542",
"g  c #497155",
"h  c #6C4979",
"j  c #71457D",
"k  c #79517E",
"l  c #4F6461",
"z  c #576164",
"x  c #81681E",
"c  c #8C7114",
"v  c #8B7A23",
"b  c #947923",
"n  c #997C24",
"m  c #8D7758",
"M  c #96497D",
"N  c #A76768",
"B  c #008500",
"V  c #008B03",
"C  c #00860E",
"Z  c #008C0C",
"A  c #009305",
"S  c #009907",
"D  c #00960A",
"F  c #00990B",
"G  c #008C12",
"H  c #058A16",
"J  c #188D19",
"K  c #009116",
"L  c #009C12",
"P  c #009E19",
"I  c #278916",
"U  c #00A30E",
"Y  c #00A515",
"T  c #00A817",
"R  c #00A41B",
"E  c #00A91B",
"W  c #008A28",
"Q  c #009A29",
"!  c #038A3B",
"~  c #008D39",
"^  c #009535",
"/  c #238A27",
"(  c #319824",
")  c #329A25",
"_  c #399926",
"`  c #3A9E2A",
"'  c #00A122",
"]  c #00AD24",
"[  c #00AC29",
"{  c #00B126",
"}  c #00B22A",
"|  c #00AB31",
" . c #00B532",
".. c #00B935",
"X. c #02BC39",
"o. c #0AB838",
"O. c #15BC39",
"+. c #1DBB39",
"@. c #25AD2F",
"#. c #3CA12C",
"$. c #25AE30",
"%. c #2EAE32",
"&. c #30AD32",
"*. c #2CB737",
"=. c #3AB538",
"-. c #3CB439",
";. c #34BF3F",
":. c #409A28",
">. c #738B2E",
",. c #43A12D",
"<. c #46AC35",
"1. c #41B339",
"2. c #49B43B",
"3. c #53B63E",
"4. c #32C03F",
"5. c #088544",
"6. c #168542",
"7. c #1B8543",
"8. c #009948",
"9. c #009B51",
"0. c #208344",
"q. c #308A48",
"w. c #00B548",
"e. c #15B851",
"r. c #31B759",
"t. c #3CBE61",
"y. c #4E9249",
"u. c #4BBB40",
"i. c #56B640",
"p. c #54BA42",
"a. c #5ABA43",
"s. c #48AC54",
"d. c #67B850",
"f. c #40BE61",
"g. c #64B378",
"h. c #37C341",
"j. c #3CC242",
"k. c #45C545",
"l. c #48C747",
"z. c #4EC749",
"x. c #55C749",
"c. c #5AC74B",
"v. c #55CA4B",
"b. c #5BC94C",
"n. c #5BD052",
"m. c #63C94E",
"M. c #64CD51",
"N. c #6ACA50",
"B. c #67D355",
"V. c #52C26D",
"C. c #67C570",
"Z. c #87911C",
"A. c #9E8126",
"S. c #969E25",
"D. c #99933E",
"F. c #A38528",
"G. c #B5942E",
"H. c #BD9930",
"J. c #B8A033",
"K. c #CCAB29",
"L. c #CCAC2B",
"P. c #D4B32C",
"I. c #C6A132",
"U. c #CBA634",
"Y. c #CDA933",
"T. c #D1AC36",
"R. c #D6B036",
"E. c #D9B431",
"W. c #DDB439",
"Q. c #E6BC3D",
"!. c #B9894D",
"~. c #BE9244",
"^. c #B68450",
"/. c #7C1E99",
"(. c #7C288D",
"). c #743E82",
"_. c #7D308E",
"`. c #7E2296",
"'. c #7E2495",
"]. c #006D87",
"[. c #007DA0",
"{. c #0077B9",
"}. c #754481",
"|. c #0078C3",
" X c #8C3A87",
".X c #812794",
"XX c #832895",
"oX c #87299A",
"OX c #8A2A9D",
"+X c #833294",
"@X c #8D2BA1",
"#X c #854380",
"$X c #008499",
"%X c #0087A1",
"&X c #9AB99C",
"*X c #8AD497",
"=X c #95D59E",
"-X c #9BD9A5",
";X c #ABC9AB",
":X c #C9EBCD",
">X c #D1EAD2",
",X c #DFF2E1",
"<X c #E4F4E6",
"1X c #FDFEFC",
/* pixels */
"Y Y Y Y Y R Y E Y Y Y Y R Y Y Y Y Y E E E Y Y Y Y E Y Y T } k.j.{ U T T T T Y Y Y Y Y Y Y R Y Y Y Y Y E E Y Y { =.*.] ] *.;.[ E ",
"Y Y Y Y Y Y Y Y Y Y Y Y Y Y Y Y U E { } E Y Y T ] E Y Y E  .l.;.{ T ] } E T Y Y Y Y Y Y Y Y Y Y U Y ] } } ] T ] %.$.] ] $.%.] T ",
"R Y Y Y Y Y Y Y Y Y Y Y Y Y Y Y Y ] O.O.{ Y U E o. .] E  .x.b.4.] {  .O.{ Y U Y Y Y Y Y Y Y Y Y U ] X.k.l...] F G G P L G H L L ",
"Y Y Y Y Y R Y Y Y Y R Y Y Y Y E ]  .-.&.E Y ] X.z.k. . .k.B.M.j. . .=.&.E Y Y Y Y Y Y R Y Y Y Y ] X.x.N.v.X.] F B V F F V B F Y ",
"Y Y Y Y Y Y Y Y Y Y Y Y Y Y U { X.2._ G F ] X.z.M.c.k.k.b.M.M.v.l.-.( G L Y T Y Y Y Y Y Y Y Y ] o.x.N.x...] T L D D F Y D D L Y ",
"Y Y Y Y Y Y R Y Y Y Y Y Y Y Y ] &.,.G B D ] %.a.m.B.B.c.3.u.c.M.a.` C B D T T Y R Y Y Y Y U Y ] O.k.k...E Y U T T T T T Y E T Y ",
"Y Y R Y Y Y Y Y Y Y Y Y Y T T P K H A S U L K _ 3.B.B.3.) ( 2.a.` C V D Y T T Y Y Y Y Y Y Y Y ] ] [ } E Y Y Y Y T T T T T T Y Y ",
"Y Y Y Y Y Y Y Y Y R Y Y Y Y T F B B L T T D B C #.3.3._ 5 J _ #.G B F T Y Y Y Y Y Y Y Y Y Y Y Y Y Y Y Y Y Y Y Y Y Y Y Y Y Y Y Y ",
"Y Y Y Y Y Y Y Y Y Y Y Y Y E {.{.{.[.8.T T Y D V C I I 7 3 3 7 C A F Y T Y Y Y Y Y Y Y Y Y Y Y Y U Y Y Y Y Y Y Y Y Y Y Y Y Y Y Y ",
"Y E { ] E Y Y Y Y Y Y Y Y Y {.|.|.[.~ Y Y T E F B 4 4 4 4 4 4 B L E T Y Y Y Y Y Y Y Y R Y Y Y Y Y Y Y Y Y Y Y E Y Y Y Y Y R Y Y ",
"E { O.O.] Y Y Y Y E Y Y Y Y |.|.|.].W R Y T E Y D A A A D D D F Y E T Y R Y Y Y Y R Y Y Y Y Y Y Y Y Y R Y Y Y Y Y Y Y Y Y Y Y R ",
"E ] O.O.{ U U Y Y R Y Y Y Y $X%X%Xd 0 6 6 C Y Y Y Y T E Y E T Y Y Y Y Y Y Y Y Y Y Y Y Y Y Y Y Y Y Y Y Y Y Y R Y Y Y Y Y Y Y Y E ",
"Y E { { E Y Y Y Y Y Y Y Y Y 9.9.8.5.1 % % > G Y E E T T E E E T Y Y Y Y Y Y Y Y Y Y Y Y Y Y Y Y R Y Y Y R Y Y Y Y Y Y Y Y Y Y Y ",
"Y Y Y Y Y Y Y Y Y Y Y Y Y R Y Y Y ^ 1 .     > 5 6 6 6 C Y Y Y Y Y Y Y Y Y Y U Y Y Y Y Y Y Y Y U Y Y Y Y Y Y Y Y Y Y Y Y Y Y Y Y ",
"Y Y U Y Y Y Y Y Y Y Y Y Y Y Y Y Y R W ,     o O % % & > G Y Y Y Y Y Y Y Y Y Y Y Y Y Y Y Y Y Y Y Y Y Y Y Y Y Y Y R Y Y Y Y Y R Y ",
"Y Y Y Y Y U Y E ] E T Y Y Y Y Y Y Y T K , % O o       o < 6 6 6 6 G Y Y Y Y { } ] Y Y Y Y E { { E Y Y Y Y Y R Y Y Y Y Y Y Y Y Y ",
"Y Y Y Y Y U Y { O...] U Y Y Y Y Y Y Y R K 6 6 ,         O % % % % > G Y U { O.O.{ T T U Y ] O.O.} Y F Y Y Y Y R Y Y Y Y Y Y Y Y ",
"Y Y Y E { ] T { h.z...{ T Y Y Y Y Y Y Y R Y R G > O               o < K '  .1.&.E T U T { ..-.%.] Y Y Y Y Y Y Y Y Y Y Y Y E ] { ",
"Y Y U ] O...E { h.M.v...] Y U Y Y Y Y Y Y Y Y Y G < O               o , Q 1._ G L U U } X.1._ H F T T Y Y Y E R Y Y Y Y Y ]  .4.",
"Y U Y ] %.-.} X.k.N.a.%.R Y Y Y Y ] w.e.| Y Y Y Y C &                 & / ,.H B S T T o.g.d.J B F T T Y Y Y Y Y Y R Y Y U ] j.v.",
"Y T Y L K ( -.z.n.a.:.G L Y T Y Y e.-X-Xr.Y Y Y Y H &                 O 2 H V S Y Y E s.;X;Xs.Y Y Y Y Y Y Y Y Y Y Y Y U Y { j.c.",
"Y T T A B C #.i.3.#.C B D E E | r.-X<X>Xt.Y Y R H < O                 o > 2 2 H Y Y Y f.>X<X=XC.T Y Y Y Y Y Y Y Y Y Y U Y { j.v.",
"Y T Y Y D D G I I C V S Y Y [ e.-X<X1X>Xt.L Y G , O                     o % % > C Y Y f.>X1X<X:XT Y Y Y Y Y Y Y Y Y Y U Y } h.v.",
"Y Y Y T E F V 3 3 V L T T Y ] e.-X,X1X<X*Xr.W < o       + - - = - - - +       o < W r.*X<X1X,X:XY Y Y Y Y Y Y R Y Y Y Y Y E $.1.",
"Y Y T T E Y D A V D Y E T Y E | h.*X,X1X,X&X9 o       + r n n n b A.n r +       o 9 &X,X1X,X*XC.Y Y Y R Y Y R Y Y Y Y T Y P G J ",
"Y T Y Y Y T T T T T U Y Y Y Y Y ' w.=X:X>X;Xf   + - - e G.Q.Q.U.Y.W.W.G.e - - +   f ;X>X:X-Xw.R Y Y Y Y Y Y E Y R Y Y E T F B 4 ",
"Y Y Y Y Y Y T E T T Y Y Y Y Y Y Y E w.t.V.g.9 X r n A.F.T.W.W.T.T.W.W.U.F.A.n r + 9 g.V.t.w.Y Y R Y Y Y Y Y Y Y Y Y Y E Y Y F D ",
"Y Y Y Y Y Y Y Y Y E ] { E Y Y Y Y Y Y Y R ^ 8 $ c W.W.H.n n G.U.Y.G.A.F.H.W.R.c $ 8 ^ Y Y Y Y Y Y Y Y Y Y Y Y Y Y Y Y R Y Y T Y ",
"R Y Y Y Y R Y L U { O.O.] Y Y Y Y Y Y Y Y H * = b Q.Q.n e q n R.R.n w w F.Q.Q.n - * H R Y R Y Y Y R Y Y Y Y Y R R Y Y Y Y Y T T ",
"Y Y Y Y Y Y Y Y Y { O.+.{ U U E ] ] E Y Y G > * v E.W.x X X x W.W.x X X x W.W.v * , C R Y Y Y Y Y Y Y E Y R Y Y E Y Y Y Y Y Y Y ",
"Y Y Y Y Y Y R Y U E { ] E U U { O.O.] Y Y L C 2 >.W.W.x X X x W.W.x X X x W.W.>.2 C P Y Y Y R Y Y Y Y Y Y Y Y Y Y Y Y Y Y Y Y Y ",
"Y T R Y Y Y T Y T Y Y Y Y U T { O.O.] Y Y Y Y G Z.E.E.n q w n R.R.n q q n E.E.Z.K Y Y R Y Y Y Y Y Y Y Y Y Y Y Y Y Y Y Y Y Y Y Y ",
"Y Y Y Y Y Y Y Y Y Y Y Y Y Y Y E { { E Y Y Y Y P S.Y.T.G.F.n G.Y.U.G.n F.G.Y.Y.S.R Y Y Y Y Y Y Y Y Y Y Y Y Y Y Y Y Y Y Y Y Y Y Y ",
"Y Y Y Y U Y Y Y Y Y Y Y Y Y Y Y Y Y Y Y Y Y Y ' >.D.J.L.Y.Y.U.I.I.U.U.L.L.I.D.>.Q Y Y Y Y Y Y Y Y R Y Y Y Y Y Y Y U Y Y Y Y Y Y ",
"Y Y Y Y Y Y Y Y Y Y R Y Y Y Y Y U Y Y Y Y Y Y Q ^ y.D.K.P.T.I.I.I.U.T.P.K.D.y.^ P Y Y Y Y Y Y R Y Y Y Y Y Y Y Y Y Y Y Y Y Y Y Y ",
"Y Y U E E ] T Y Y Y Y Y Y Y Y R Y Y Y Y Y Y Y Y Q g m ~.K.K.K.K.L.K.K.Y.~.m g ^ R Y Y Y Y Y Y Y Y Y Y E } ] ] E E ] Y Y Y R Y Y ",
"Y Y U ] o.X.{ Y Y Y Y Y Y Y Y Y Y Y Y Y Y Y Y ^ l j M N I.K.P.K.L.K.L.H.N M h l ^ Y Y Y Y Y Y Y Y Y Y { O.X.] ]  .o.{ Y Y Y Y Y ",
"Y Y E ..v.l.} Y Y Y Y Y R Y Y Y Y Y Y Y T Q ~ g )././. XN N ~.^.^.!.^.N  X`./.).g ~ Q Y Y Y Y Y Y Y E } -.@.R } j.l.} Y Y Y Y Y ",
"E E X.z.N.l.} U Y Y Y Y Y Y Y Y Y Y Y Y Y ~ z ).'.`./.'. XM M M #XM M  X.X`./.'.).z ! Y Y Y Y Y Y } X.-.) C F } k.l.} Y Y Y Y Y ",
"E } l.N.a.$.R Y Y Y Y Y Y Y Y Y Y Y Y Y Y 7.j .X(.'.'.'..X.X/..X.XoX`..X'.'.'.`.oXj 7.Y Y Y Y U Y } l.3.J V Y  .=.%.E Y Y Y Y Y ",
"E  .k.a.:.Z L Y E Y Y Y Y Y Y Y Y Y Y Y Y 0.j oX.X.X.X'././././..X/././..X.X.X.X.Xj g U T Y T Y Y } l.j.R R  .2.) D F Y T Y Y Y ",
"T { %.#.G B F T Y Y Y Y Y Y Y Y Y E ] ] E ! h XX.X.X.X.X.XXXOXoXoX.X.X.X.X.X.X.X.Xh ! U Y Y Y Y Y E &.@.] { $.,.C B S T T Y Y Y ",
"Y P H C Z S U Y E Y Y Y R Y Y Y Y { O.O.o.0 h .X.X.X.X.X.X.XoXoX.X.X.X.X.X.X.X.X.Xj 7.T Y Y Y Y T L G K P P K H Z D Y Y E Y Y Y ",
"Y D B B F E T Y Y Y Y Y Y Y Y Y U ] O.+.} ! h .X.X.X.XoXXX(.p p `.OXoX.X.X.X.X.X.Xk ! T Y Y Y E Y F B B F F B B L E Y Y Y Y Y Y ",
"Y L D D Y E T Y Y Y E Y Y Y Y Y Y E ] ] E 6.h .X.X.X.XoXoXp : : p oXoX.X.X.X.X.X.Xh 7.Y Y Y Y Y T F F F Y F F F Y E E R Y Y Y Y ",
"Y T T T Y Y Y Y Y R Y Y Y Y Y Y Y Y Y U Y 0.h .X.X.X.XOX@Xu @ . y a .XoXoX.X.X.X.Xh 0.Y Y Y Y Y Y Y T Y Y T T T Y Y Y Y Y Y Y R ",
"Y T E T T Y Y Y Y Y Y R Y Y Y Y Y Y U U S q.}.+X.X.X.XOXOXu @   . t a OXoX.X.XoX.Xh ! Y Y Y Y Y Y Y T T T Y T T T Y Y Y R Y Y Y ",
"Y Y Y Y Y Y Y Y Y Y Y Y Y Y Y Y Y Y Y E ] s.k XX.XoXoX`.a y #     @ p @XOX.X.X.X.Xh ! Y Y Y Y T { { E Y Y Y Y Y Y Y Y Y Y Y Y Y ",
"Y Y Y Y Y Y Y Y Y Y Y Y Y Y R Y Y Y Y ] O.y.M (.'.oXXXa t #       @ i @XOX.X.X.X'.h ! Y Y U Y ] O.O.{ T Y Y Y Y Y Y Y Y Y Y Y Y ",
"Y Y Y Y Y Y Y Y Y Y Y Y Y Y Y Y Y Y U | g.y.j .X.XOXoXu @         # y a .XXXXX.X.X).g ~ Q E {  .1.%.E Y Y Y Y Y Y Y Y Y Y Y Y Y ",
"Y Y Y Y Y Y Y Y Y Y E Y Y Y Y Y Y Y Y ! h j .X.X.XOXOXu @           # : a XXoX.X.X_.).z ^ ] X.2._ H L Y T Y Y Y Y Y Y Y Y Y Y Y ",
"] ] Y Y Y U Y Y Y Y Y Y Y Y R Y Y Y Y 0.j .X.X.X.XOXoXu ;             @ u OXOX.X.X.X.X).6.] &.,.G B S T E Y Y Y Y Y Y Y Y Y Y Y ",
"*.X.] Y U Y Y Y Y Y Y Y Y Y Y Y Y Y Y 0.).XX.X.X.XOXOXu ;             @ u XXOX.X.X.X.Xj 6.P K H Z S Y Y Y Y Y Y Y Y Y Y Y Y Y Y ",
"v.h.] T ] { E Y Y Y Y Y Y R E Y Y U Y ! h (._.+X_.+X+Xs ;           . # s +X+X+X+X_.(.h ! F B B F E E Y Y Y Y Y U E E ] Y Y E ] ",
"c.;.] ] ..O.{ Y Y Y Y Y Y Y Y Y Y Y T Y Y Y Y Y Y Y Y Y E Y Y Y Y Y T Y Y { ..4. .] E Y Y L D D Y T T Y Y Y Y U Y E o. .] E ..*.",
"v.j. . .=.%.E Y Y Y Y Y Y Y Y E ] { E Y Y Y Y Y Y Y Y Y Y Y Y Y Y Y Y U Y } l.l.} U U Y Y T T T Y Y Y Y Y Y Y T { X.z.k... .k.n.",
"b.v.l.-.( G F T T Y Y Y Y Y Y ] O.O.] Y U Y Y Y R Y Y Y Y Y Y Y Y Y Y Y U } l.k.} U U Y Y Y E E T Y Y Y Y Y Y ] X.z.m.v.k.k.b.m.",
"M.m.a.#.C B F Y E Y Y Y Y Y Y { O.O.] Y Y Y Y Y Y Y Y Y Y Y Y Y Y Y Y Y Y ] &.&.E Y Y Y Y Y Y Y Y Y Y Y Y U Y Y @.a.m.B.B.b.u.2.",
"b.p._ C V D Y Y Y Y Y Y Y Y Y E ] { E Y Y Y Y Y Y Y Y R R Y Y Y Y Y Y E T P G G P Y E Y Y Y Y Y Y Y Y Y Y T T F G :.a.B.B.p.) I ",
"<.#.C B D E T Y Y Y Y Y Y Y Y Y Y Y Y Y Y Y Y Y E Y Y Y Y Y Y E Y Y Y E T F B B F E Y Y Y Y Y Y Y Y Y Y T E } ' V B ) i.p.` 7 3 ",
"J C V F Y T T Y Y Y Y Y Y Y Y Y Y Y Y Y Y Y Y Y Y Y Y Y Y Y Y Y Y Y Y T Y F F F Y Y Y Y Y Y Y Y Y Y Y Y U ] O.o.R V B I I 7 3 2 ",
"4 B L E E Y Y Y Y Y R Y Y Y Y Y Y Y Y Y Y Y R Y Y Y Y Y Y Y R Y Y Y Y Y Y T T T Y Y Y Y R Y Y Y Y Y Y Y Y ] %.=. .R V 3 4 4 4 4 ",
"A F Y T E Y Y Y Y Y Y Y Y Y Y Y Y Y Y Y Y Y Y Y Y Y Y R R Y Y Y Y Y Y Y Y T T T E Y Y Y E Y Y Y Y Y Y T T P H ` -...R A V A F F ",
"Y Y Y T Y Y Y Y E R Y Y Y Y Y Y R Y Y Y Y E Y R Y Y Y Y Y Y Y Y Y Y Y Y Y Y Y T Y Y Y Y Y Y Y Y Y Y Y T Y D B I 2.;.{ U S Y L Y "
};
