/* XPM */
static char *result[] = {
/* columns rows colors chars-per-pixel */
"64 64 114 2 ",
"   c #006B00",
".  c #007300",
"X  c #007C00",
"o  c #0D7A04",
"O  c #0F7F08",
"+  c #137D07",
"@  c #187C05",
"#  c #187E09",
"$  c #6C7B20",
"%  c #767520",
"&  c #797521",
"*  c #767821",
"=  c #FF0025",
"-  c #FF0D26",
";  c #FB1426",
":  c #F31B26",
">  c #FC1828",
",  c #D43626",
"<  c #E72626",
"1  c #E22B25",
"2  c #9E5E22",
"3  c #B34F24",
"4  c #BB4A24",
"5  c #A45722",
"6  c #A65924",
"7  c #AA5A25",
"8  c #886B21",
"9  c #008500",
"0  c #008B01",
"q  c #00860D",
"w  c #008B0C",
"e  c #009405",
"r  c #00960A",
"t  c #00990C",
"y  c #008D13",
"u  c #0B8912",
"i  c #088F18",
"p  c #168611",
"a  c #009C13",
"s  c #009E18",
"d  c #16931A",
"f  c #258715",
"g  c #2D8716",
"h  c #238814",
"j  c #2D8E1C",
"k  c #3D8A1B",
"l  c #00A20E",
"z  c #00A515",
"x  c #00A817",
"c  c #00A41C",
"v  c #00A91B",
"b  c #2B9722",
"n  c #2F9924",
"m  c #319622",
"M  c #399726",
"N  c #369A25",
"B  c #399926",
"V  c #359D28",
"C  c #399E2A",
"Z  c #00A522",
"A  c #00AD24",
"S  c #00AF29",
"D  c #1BAC2E",
"F  c #00B126",
"G  c #00B22B",
"H  c #00B632",
"J  c #01B936",
"K  c #0CB937",
"L  c #05BB38",
"P  c #14BB39",
"I  c #1DBB39",
"U  c #23AD2F",
"Y  c #3CA12D",
"T  c #25AE30",
"R  c #2EAE32",
"E  c #2FB134",
"W  c #2DBC3B",
"Q  c #3CB136",
"!  c #3CB539",
"~  c #37BF3F",
"^  c #3BBB3D",
"/  c #448B1C",
"(  c #49891D",
")  c #409927",
"_  c #46AC35",
"`  c #41B037",
"'  c #41B138",
"]  c #4BB43C",
"[  c #4DB93F",
"{  c #53B63E",
"}  c #32C03F",
"|  c #45BE41",
" . c #4EBB41",
".. c #56B640",
"X. c #54B942",
"o. c #5ABA43",
"O. c #37C241",
"+. c #3CC242",
"@. c #44C445",
"#. c #49C546",
"$. c #45C847",
"%. c #4DC648",
"&. c #44C948",
"*. c #4ECA4B",
"=. c #53C649",
"-. c #59C549",
";. c #54C94B",
":. c #5DCA4D",
">. c #5BD052",
",. c #65C94E",
"<. c #64CD51",
"1. c #65D355",
"2. c #6AD456",
"3. c #74D157",
/* pixels */
"z z z z z z z z z z z z z z z v v z x z z z x x z l z G @.+.S z l v x z z z z z z c z z z z z z v v v v x l z F ^ W S S W ^ S z ",
"z z z z z z c z z z z z z z z v A A v z z v F v z z v J #.O.S z v A v l z z z z z z z v z z z v A F S A v l z v E T Z v U R A v ",
"z z z z z z z z z z c z z z z S L L A l z F P J A v J =.,.W A A H P F z z z z z z z z c z z z A J @.@.J A z l s y y s z y y a s ",
"z z z z z z c z z z z z z l z G $.#.G l t G $.#.J G +.2.1.@.G J #.#.G z z z z z z z z z z z l F | 3.3.| F z z t 9 9 t t 9 9 r z ",
"c z z z z z z z z z z z z l z G #.#.G l z G @.:.%.@.=.<.<.=.@.#.:.@.F z l z z z z z z z z l z S @.3.3.@.F z l l r r t z r r a z ",
"z z z z z z z z z z z z z z z A R R A z z c T o.,.1.1.=. .X.,.<.o.U c z z z z z z z z z z l z S J @.@.L A l z z x x x x x x z z ",
"z z z z z z z z z z z z z z z a y y s x z t q B o.2.2.] b V X.o.C w t x x z z z z z z z z z z v v F F v v z z z x x x z x x x z ",
"z z z z z z c z z z z z x x x t 9 9 t x v e 9 q C { ..M o # V Y y 9 r x v z z z z z z z z z z z z z z z z z z z z z z z z z z z ",
"z z z z z z z z z z z z z v x a r r a x x l r e q f f + .   + y r r z z v z z z z z z z z z z z z z z z z z z z z z z c z z z z ",
"S S v z z z z z z z z z c z z x x x z x z x v t 9 X X X X X X 9 a z x z z z z z z z z z z z z z z z z z z z z z z z z z z z z z ",
"~ J A l z z z z z c z z z z z x v x v z z v v z r e e e r r e t z v z z z z z z z z z z z z z z z z z z z z z z z z z z z z z c ",
"} L A z z z z z z z z z z z z z z z z z z z z z v z x v z v v z z z z z z z z z c z z z z z z z z z z z z c c z z z z z z z z z ",
"F A v z z z z z z z z z z z z z z z z c z z z v z v v x v v x x z z z z z z z z z z z z z z z z z z z z z z z z z z z z z c v z ",
"z z z z z z l z z z z z z z z z z z z z z z z z z z z z z z z z z z z z z z z z z z z z z z z z z z z z z z z z z z z z z z z z ",
"l z z z z z z z z z z z c z z z z z z z z z z z z z z z v z z z z z z z z z z z z z z z z z z z z z z z z c z z z z z z z z z z ",
"z z x l z x v A v z z z z z z z c z z z z z z z z z z z z c z z z z z v v A v z z z z v A A x z z z c z z z z z z z z z z z z z ",
"z z z l l F J P S l l z z z z z z z z z z z v z z z z z c z z z x l z F L L F z z l z F L L F z z z z z z z z z z z z z z z z z ",
"z z z v F L =.} F x F F v l z z z z z z z z z z z z z z z z z z z l z G #.$.G z l l z G #.$.G l l z z z z z z z z z z v F F v z ",
"z z l A L :.,.} A A J P F z l z z z z z z c z z c z z z z z z z z z z G #.#.G z l z z G #.#.G z l z z z z z z z z z z F P P F z ",
"z z z v R o.,.&.L H Q E A z z z z z z z z z z z z z z z z z z c x l z v R E v z z l z v R E A z z c z z z z z v c z z v E ' G F ",
"z z z a r ) ..>.*.! n y a x x z z z z z z z z z z z z z z z z z z x x a y y s z x x x z y y s z z z z z z z z c z x x a y m Q ^ ",
"x x x r 9 q C ..o.) q 9 e x x z c z z z z z c z z z z z z z z z z x z t 9 9 t x x v x r 9 9 r x x z z z z z z z z x x e 9 i [ :.",
"z z x l t 0 y g g y e r z z v z v z z z z z z z z z z z z z z z z x x a r e a x z z z z r r a x z z z z z z z z z z z t e Z | :.",
"z z z x v a 9 . . 9 a x x z z z z z c z z z z z z z z z z z z x z z z x x x x z z z z z x x x z z z z z c z z z z z z l z A T ' ",
"z z z v x z t e e r z v x z z z z z z z z z z z s % 1 = = , $ $ , = = 1 * z x z z z z z v x v z z z z z z z z z z z z x x z y u ",
"z z z z z z x z z l z z z z z z z z z z z z z c ( 7 ; = = : 2 2 : = = ; 6 ( c z v z z z z z z z c z z z z z z z z z z v x t 9 X ",
"z z z z z x x x z x z z z z z z c z z z z z z k 4 > = = = = : : = = = = ; 4 / z c z z z z z z z z z z z z z z z z z z v z z t e ",
"z z z z z z z v F A v z z z l z z z z z z z & 5 ; = = = = = = = = = = = = ; 6 & z z z z z z z z z z z c z z z v z z z z z z z v ",
"z z z z z z l F P P F z l z l z z z z z z z 1 ; = = = = = = = = = = = = = = ; 1 z z c z z z z z z z z c z z z z c z z z z z v x ",
"c z c z z z z F P P F z l v F F v z z z z z = = = = = = = = = = = = = = = = = = z z z z z z z z z z z z z z z c z z z z z z z z ",
"z z z z z z z v F A x l l F P P F l z z z z = = = = = = = = = = = = = = = = = = z z z c z z z z z z z z z z z z z z z z z z z z ",
"z z z z z z z z z z z l z F P I F z z z z z 1 ; = = = = = = = = = = = = = = ; 1 z z z z z z z v c z z z z c z z z z z z z z z z ",
"z z z z z z z z l z z z z v A A v z z z c z & 6 ; = = = = = = = = = = = = ; 6 % c z z z z z z z z z z z z z z z z z z z z z z z ",
"z z l z z z z z z z z z z z z z z z z c z z z / 4 ; = = = = = = = = = = ; 4 / c z z z z z z z z z z z z z z z z l z z z z z z z ",
"z z z z z z z z z z z z z z z z z z z z z z z s ( 6 ; = = = = = = = = ; 6 ( z z z z z z c z z z z z z z z z z z z z z z z z z z ",
"z x A A v z z z z z z z z z z z z z z z z z z z z / 4 ; = = = = = = ; 4 / z z z z z z c v z z z z v A A x z l v F F v z z z z z ",
"x A K P F z l z z z z z z z z z z z z z z z c z z c ( 6 ; = = = = ; 6 ( c z z z z z z z z z z z z A L P F l z F P P F z z z z z ",
"G J *.#.F z l x z z z z z z z z z z z z z z z z z z z / 4 ; = = ; 4 / z z z z z z z z z z z z l z F | @.F z v G ' E v z z z z z ",
"+.=.,.+.G z z z z z z z z z z z z z z z z z z z z z z z ( 3 - - 3 ( s z z z z z z z z z z z z z l G @.@.G A J ' B y a z v z z z ",
"1.,.X.T c z z z z c z z z z z z z z z z z z z z z z z z s 8 < < 8 s z z z z c z z z z z z z z l z G @.} G G +.[ d 9 e x v z z z ",
",.o.B w a z z z z z z c z v z z z z z z z z z z z z z z z z z z z c z z z z z z z z z z z z z z z G @.O.G G +.#.Z e t z x z x z ",
"_ C q 9 e v x z z z z z z z z v A A v z z z z z l v F F v l z z z z z z z z z z c z z z z z z z z A R U v A U E A z z z z z z z ",
"p q e r z x x z z z z z z z l F P P A l z z z l l S P P G l z z z z z z c z z z z z z z z z z x z a y y s a y y s x z z z z x z ",
"X 9 a v z z z z c z z z z z z A P I A z l l z v A H Q E A z l z z z z z z z z z z v c z z z z x x r 9 9 t t 9 9 t z x x z z z z ",
"r t z v x z z z z z z z z z z v A F v z l l z F J ' B y t x x z z z z z z z z z z z z z c z z z z z e t z t t r a v v z z z z z ",
"z z z z z z z z z z z z z z z z z l z v A v x G @.X.d 9 r x x z z z z z z c z c z z z z z z l z z z x z x z z x x z z z z z z z ",
"x v v z z z z z z z z z z z z z z l z A P H F G +.#.v e t x v z z z c z z z z z z z z z z z z z z x x x x x x x z z z z z z z z ",
"z z z z z z z z z z z z z z z z z l z G #.#.G v U R A z z z z z z z z z z z z z z z z z z v A A v z z z z z z z z z z z c z z z ",
"z z z z z z z z z z z z z z z z z l z F #.#.G a q y z x z z z z z z z z z z z z z z x z z F L L A z l x z z z z z z z z z z z z ",
"z z z z z z z z z z z z c v z z z z z F L L F e 9 9 t z v z z z z z z z z l z z z z z l z G #.$.G z l z z z z z z z z z z z z z ",
"z z z z z z z z z c z z z z z z z z z v F v v l r e s x v z z z z z z z z z z z z z z l z G #.#.G z l z z z z x z z z z z z z z ",
"z z z z z z z z z z z z z z z z z z z z z z x x x x z z c z z z z z z v F F v z z z z z z v R R v z z z z z z z z z z z z z v A ",
"z z z z z z z z z z z z z z z z z z z z z z z c x x x z z z z z z z l F P P A l z z z z x s w y s x x z z z z l z z z z z A J W ",
"z z A A x z z z z z z z z z z z z z z z z z z z z x z z z z z z z z z A E ` G A z z z x x t 9 9 t x x z z z z v A v z z v H #.;.",
"z A K P F z z z z z z z z z z z z z z z z z z z z z z z z z z c z x z t y N ' J F z z z x a e r z z z z z z z F P J A z H #.:.<.",
"G J =.$.G l l x z z z z l v S S v z z z z z z z z z z z z z z z z x x e 9 d =.&.G z l z z x x x z z z z z z l G #.#.J H | <.1.<.",
"@.=.<.@.S l z z z z z z z F P P S z l z z z z z z v z z z z z z z v z t e v #.#.G z l z z z v v x z z z z z z S +.:.%.@.-.<.<.,.",
"<.,.X.T c z z x z z z z z A P P F z z z z z z z z c z z z z z c z z z z z A R R A z z z z z z z z z z z z l l c D o.,.1.1.-. .] ",
",.o.M w a z z z z z z z z x A A v z z z z z z z z z z z z z z z z z z z x s y y a z x z z z z z z z z z z z z r w B o.2.2.X.n d ",
"_ V q 9 r z x x z c z z z z z z z z z z z z z z z z z z z c z z z z z v x t 9 9 t x x z z z z z z z z z x v G c 9 w V { { C @ . ",
"p q e r s z z z z z z z z z z l z z z z z z z c z z z z c z z z z z z v x z e r a x x z c z z z z z z z z F P K s 0 9 h f O     ",
"X 9 a v x z z x z z z z z z z z v z z z z z z z z z z z z z z z z z z z z z x z x z z z z z z z z z z z z Z E ^ J c 0 X X X X 9 ",
"r r z z x z z z z z z x z z z z z z z z z z z z z z z z z z z z z z z z z z x x v z z z z z z z z z z x z s y N Q J z e e e r r ",
"a z z z x z z c z z x z x z z z z z z z c z z z z z c z z z z z z z z z z z x x z c z z z z z z z z z x z r 9 j ] } F t t a s z "
};
