/* XPM */
static char *result[] = {
/* columns rows colors chars-per-pixel */
"64 64 207 2 ",
"   c #1D2A1D",
".  c #1D391A",
"X  c #260C2B",
"o  c #271529",
"O  c #2D152C",
"+  c #271C29",
"@  c #2D192B",
"#  c #33192D",
"$  c #35192E",
"%  c #371331",
"&  c #1F2720",
"*  c #1E2B22",
"=  c #163424",
"-  c #183824",
";  c #262922",
":  c #37222D",
">  c #28362A",
",  c #343127",
"<  c #383927",
"1  c #37352C",
"2  c #3A3A28",
"3  c #3E2231",
"4  c #3E2E31",
"5  c #411F34",
"6  c #412432",
"7  c #492636",
"8  c #452A33",
"9  c #4B2B35",
"0  c #4D2739",
"q  c #4E2839",
"w  c #512D36",
"e  c #522D39",
"r  c #5A2E3C",
"t  c #4A3335",
"y  c #55323A",
"u  c #5C353B",
"i  c #5E3C3C",
"p  c #60373D",
"a  c #62393E",
"s  c #015C06",
"d  c #025709",
"f  c #0C570B",
"g  c #075B0A",
"h  c #195A0E",
"j  c #1E4916",
"k  c #045916",
"l  c #225D0F",
"z  c #234A17",
"x  c #006B00",
"c  c #06670A",
"v  c #1C610C",
"b  c #007400",
"n  c #007B00",
"m  c #0E7D06",
"M  c #157D07",
"N  c #006B1F",
"B  c #007F1F",
"V  c #20610C",
"C  c #2E6B12",
"Z  c #356B16",
"A  c #376918",
"S  c #2E7518",
"D  c #3A7717",
"F  c #3E7719",
"G  c #0B5525",
"H  c #354529",
"J  c #2F5025",
"K  c #36542B",
"L  c #007F21",
"P  c #4D4A34",
"I  c #6D5D3C",
"U  c #566E2A",
"Y  c #5D762F",
"T  c #6F673D",
"R  c #663E41",
"E  c #683E41",
"W  c #664540",
"Q  c #6C4243",
"!  c #714645",
"~  c #754B47",
"^  c #784D48",
"/  c #7B4F49",
"(  c #765945",
")  c #7E514A",
"_  c #7F5D4B",
"`  c #7D7B47",
"'  c #84554D",
"]  c #86594E",
"[  c #895C4F",
"{  c #885451",
"}  c #8A5D50",
"|  c #915F55",
" . c #85624D",
".. c #836C4D",
"X. c #817947",
"o. c #84774B",
"O. c #8D6251",
"+. c #866A50",
"@. c #926554",
"#. c #936954",
"$. c #976658",
"%. c #976958",
"&. c #8D7352",
"*. c #8E7E53",
"=. c #957156",
"-. c #997257",
";. c #957C56",
":. c #987A57",
">. c #9B7359",
",. c #977D58",
"<. c #9D795A",
"1. c #A2745D",
"2. c #A17B5B",
"3. c #008401",
"4. c #008A02",
"5. c #00860C",
"6. c #008C0C",
"7. c #009405",
"8. c #009805",
"9. c #00960B",
"0. c #00990D",
"q. c #008617",
"w. c #008D13",
"e. c #00821D",
"r. c #008B1C",
"t. c #168417",
"y. c #029516",
"u. c #009D13",
"i. c #009E1A",
"p. c #16931A",
"a. c #258A16",
"s. c #00A10D",
"d. c #00A515",
"f. c #00A817",
"g. c #00A519",
"h. c #00A91B",
"j. c #009E24",
"k. c #009C2A",
"l. c #0C992D",
"z. c #2A9925",
"x. c #349A25",
"c. c #379826",
"v. c #399D2A",
"b. c #2A9430",
"n. c #229830",
"m. c #359734",
"M. c #3D9335",
"N. c #00A222",
"B. c #00AD23",
"V. c #05AA2B",
"C. c #1BAC2E",
"Z. c #00B126",
"A. c #00B22B",
"S. c #00B632",
"D. c #01B936",
"F. c #0BB937",
"G. c #06BA38",
"H. c #14BB39",
"J. c #1BBC3A",
"K. c #23AD2F",
"L. c #2EAE32",
"P. c #39A232",
"I. c #28B537",
"U. c #2DBC3B",
"Y. c #3BB53A",
"T. c #39BB3C",
"R. c #578C3B",
"E. c #449336",
"W. c #469238",
"Q. c #4B923B",
"!. c #52903C",
"~. c #4EAB39",
"^. c #48B43B",
"/. c #52B63E",
"(. c #32C03F",
"). c #3CBE40",
"_. c #5F8D40",
"`. c #5E9643",
"'. c #6E8647",
"]. c #648B42",
"[. c #6C8945",
"{. c #748648",
"}. c #7C854B",
"|. c #748A48",
" X c #7C954F",
".X c #4EBB41",
"XX c #55B942",
"oX c #59BB44",
"OX c #6FAA4B",
"+X c #3CC142",
"@X c #44C445",
"#X c #49C546",
"$X c #4DC648",
"%X c #48C848",
"&X c #54C749",
"*X c #56C74A",
"=X c #5DCA4D",
"-X c #62C74E",
";X c #64C94F",
":X c #64CD51",
">X c #6ACF53",
",X c #65D355",
"<X c #6AD456",
"1X c #74D157",
"2X c #82834E",
"3X c #8A8252",
"4X c #948357",
/* pixels */
"d.d.g.d.d.g.d.d.g.d.d.d.g.d.d.f.f.f.d.d.d.f.f.f.g.s.d.A.@X).A.d.d.f.f.d.d.d.d.d.d.d.d.d.d.d.d.f.f.f.h.f.f.s.d.Z.T.U.Z.Z.U.T.Z.h.",
"d.d.d.d.d.d.d.d.d.d.d.d.d.d.d.h.B.B.h.d.d.h.Z.h.f.d.h.D.#X+XB.d.f.B.f.d.d.d.g.d.d.g.d.g.d.d.d.f.B.A.A.B.h.s.d.B.L.K.N.N.K.L.N.h.",
"d.d.d.g.g.d.d.d.d.d.d.g.d.d.d.Z.G.G.Z.s.d.Z.H.S.B.B.D.&X=XU.Z.h.D.H.B.d.d.d.d.d.d.d.d.d.d.d.d.B.S.@X@XD.B.d.d.u.6.w.u.d.w.w.d.d.",
"g.d.d.d.d.d.d.g.g.d.d.d.d.s.d.A.%X#XA.s.0.A.@X%XD.A.+X,X<X@XA.S.%X#XA.d.s.g.d.d.d.d.g.d.d.d.s.A.@X1X1X@XZ.d.d.7.3.4.0.0.4.3.0.u.",
"d.d.d.d.d.d.d.d.g.d.d.d.d.s.d.A.#X#XA.0.d.A.@X-X$X@X*X>X:X&X@X$X=X@XA.d.d.d.d.d.d.d.d.d.d.s.d.A.@X1X1X@XB.d.s.d.8.9.d.s.9.9.u.d.",
"d.d.d.d.d.d.d.d.d.d.d.d.d.d.d.B.L.L.B.d.d.g.K.oX;X>X,X*X^.XX;X;XoXK.g.d.s.f.d.d.g.d.d.g.d.d.d.B.S.@X@XS.B.d.d.f.h.d.d.d.f.f.d.d.",
"g.d.d.d.d.d.d.g.d.d.d.d.d.d.d.u.w.w.u.f.d.9.6.c.oX<X<X^.z.x.XX*Xv.6.u.d.f.d.g.f.d.d.d.d.d.d.d.f.B.B.B.B.f.d.d.d.f.f.f.f.f.f.d.d.",
"d.d.d.d.d.g.d.d.d.d.d.d.f.f.f.0.4.4.0.h.h.7.3.w.v././.c.m M v.v.w.4.7.f.f.d.d.d.d.f.d.d.d.d.d.d.d.d.d.d.d.d.d.d.d.d.d.d.d.d.d.f.",
"d.d.d.d.d.d.d.d.g.d.d.d.g.f.d.d.0.7.d.f.f.d.0.4.5.a.a.m x b M 5.6.0.d.d.g.d.d.g.d.d.g.d.d.d.d.d.d.s.d.d.d.g.d.d.d.d.d.d.g.d.d.g.",
"A.B.h.d.d.d.d.d.d.d.d.d.f.d.d.d.f.f.d.d.d.d.f.u.3.n n n n n n 4.0.f.f.d.d.d.d.d.d.d.d.d.d.g.g.d.d.d.d.d.d.d.d.d.d.d.d.d.d.d.d.d.",
"(.G.B.s.d.d.d.d.d.d.d.d.d.d.d.d.f.f.f.d.d.f.f.d.9.7.7.7.0.9.7.0.d.f.f.d.d.d.d.d.g.d.d.g.d.d.d.d.d.d.d.d.d.d.d.g.d.d.d.d.d.d.d.d.",
"(.G.B.d.d.d.d.d.g.d.d.g.d.d.d.d.g.d.d.d.d.d.d.d.f.g.f.f.f.f.f.g.d.d.d.d.g.d.d.g.d.d.d.d.d.d.g.d.d.d.d.g.d.d.d.d.g.d.d.g.g.d.d.g.",
"Z.Z.f.d.d.d.d.d.g.d.d.g.g.d.d.d.d.d.g.d.d.d.d.f.f.f.f.f.f.f.f.f.d.d.d.d.d.d.d.d.d.d.d.d.d.d.d.d.d.d.g.d.d.d.d.d.d.g.d.d.d.d.d.g.",
"d.d.d.d.d.d.d.d.d.d.d.d.d.d.d.g.d.d.d.d.d.d.d.g.d.d.g.g.d.d.g.d.d.d.g.d.d.d.d.d.d.d.d.d.d.d.d.d.d.d.d.d.g.d.d.g.d.d.d.g.d.d.d.d.",
"R.R.k.g.d.d.d.d.d.d.d.d.d.d.d.d.d.g.g.d.g.d.d.d.d.d.d.d.g.j.M.].[.Q.j.g.d.d.s.d.g.d.d.f.d.d.d.d.d.d.d.d.d.d.d.d.d.d.d.d.d.k.].|.",
"{.'.m.g.s.f.B.B.f.d.s.d.d.d.g.d.d.d.d.d.d.d.d.d.g.d.d.g.j.b.].{.2X[.m.N.B.B.f.d.d.d.d.f.h.B.f.d.d.d.d.g.d.d.g.d.d.g.d.d.i.M.}.}.",
"*.;.[.n.i.Z.D.H.Z.d.s.d.d.d.d.d.d.d.d.d.g.d.d.g.d.d.g.j.W.{.*.:.:.;.}.`.Y.G.Z.d.s.d.d.Z.G.G.Z.d.d.d.g.d.d.d.d.d.d.d.d.g.b.{.:.;.",
":.<.*.[.P.I.$X+XB.f.B.Z.h.d.d.d.d.d.d.d.d.d.d.d.g.g.i.n.{.:.2.<.<.2.,.3XOXoXA.d.s.s.d.A.%X%XA.s.s.d.d.d.d.d.g.d.d.g.N.m.|.4X:.:.",
":.<.<.4X XOX-X).Z.B.D.H.Z.s.d.f.d.d.d.d.d.d.d.d.d.g.l._.*.<.<.<.<.<.2.2.4XOXV.d.d.s.d.A.#X#XA.d.d.d.d.g.d.g.g.d.g.j.E.}.,.2.<.:.",
":.<.2.1.3X[.~.).D.A.Y.L.B.d.s.f.g.d.d.g.d.d.d.g.d.j.!.2X:.<.<.<.<.<.2.1.>.'.r.0.s.d.d.h.L.L.B.d.d.d.d.d.d.d.d.d.d.j.[.:.<.<.<.:.",
":.2.2.1.#.T a.x.T.^.z.w.u.f.d.d.d.d.d.d.g.d.d.d.g.k.{.>.<.<.2.<.<.2.2.1.$.T S 4.s.f.d.u.w.w.i.f.d.d.d.d.d.d.d.d.g.k.}.<.<.<.2.>.",
":.<.>.$.} ( A n z.x.6.3.7.f.f.g.d.g.d.d.d.f.g.d.d.k.}.<.2.2.>.<.2.>.>.@.} I A n 7.d.d.0.3.3.0.f.f.d.d.d.d.g.g.d.g.k.}.<.<.<.2.,.",
":.-.O.} ' I A b b n 4.7.d.d.d.d.d.g.d.d.d.d.d.d.d.k.2X2.>.2.<.2.2.>.@.| { I A b n 4.0.d.7.7.d.d.f.d.d.d.d.d.d.d.g.k.}.<.<.<.<.<.",
";.-.O.{ ' ( Z b b b 4.i.j.j.j.j.j.j.j.N.j.N.j.N.j.W.` -.>.2.<.2.2.-.[ { ' I C b b n 4.u.j.k.k.k.k.k.k.k.k.j.N.j.k.M.o.-.<.2.2.:.",
";.-.} { { I Z b b b n t.R.].].].R.!.Q.W.W.M.M.W._.{.+.#.-.<.2.2.2.%.[ { { I Z b b b n M _.{.|.[.[.'.{.{.[.R.W.W.!.'...@.-.<.<.,.",
"&.@.} { ] ( U F D D F Y X.3X3X3X3X}.}.}.}.{.{.}.3X=.} ] #.-.<.2.-.#.[ ' ' ( U F D D F Y o.<.,.4X;.:.:.:.4X2X}.}.2X&. .} #.-.2.:.",
" .O.] ' '  ...o.X.o.` o.;.<.<.<.:.:.:.:.,.;.;.,.<.#.[ ' ] #.-.-.#.[ ] ' ' [ o.X.o.X.X.o.:.<.1.<.<.<.<.2.<.,.,.,.:.=.} ' ] #.>.:.",
"_ ' ] ] ] O.%.>.>.>.>.>.2.<.-.-.<.2.2.<.-.-.<.2.4X=.O.' ' O.#.#.[ ' ] ] ] | %.>.>.-.1.>.<.>.>.-.<.2.2.<.-.-.<.2.2.-.O.) ) } #.&.",
"_ ' { ] ] } | @.| | @.$.1.-.#.O.-.2.2.-.O.#.-.2.2.>.O.' ' ] [ O.' ' { { [ [ @.@.@.| | $.>.-.#.#.-.2.2.-.O.O.>.2.2.-. .' ' ] [  .",
"_ ' ) ^ ~ ^ ) ] ] { ] [ #.#.[ [ @.-.-.%.}  .#.-.>.%.[ ] ' ' ' ] ] { / / ~ ~ ' ] ] ' ] | #.#.] [ @.-.-.#.O.} #.-.-.%.} ] ' ' ' _ ",
"_ ) ! p y i ^ ] { ' ' ] [ [ ] ' [ O.O.[ ] ] [ O.O.} ] ' ' ] ' ' ] ' / R y a ~ ' ] ' ' [ [ [ ] ] [ O.O.[ ] ] [ O.O.[ [ ] ] ' ' _ ",
"( ~ R e 3 t Q ) ' / / ) ' ] [ ] ] { ] ' ) ) ' ] ] ' ) ' ' ] ] ' / ~ P w 3 9 Q ) ) ) / ) ' ] ] ] ] ] ] ' ) ) ' ] ] ' ) ) ' ] ] _ ",
"I a a w 6 8 u Q Q R R ! / ' ] ' ' } { / ! ! / { ] ) ! ! ' ] ' ' ! a p w 6 8 p a E R R E ' { { ] ] ] ' ) Q ! / { { ) ! Q ) ] ] _ ",
"u p a y 8 8 y R R u R E / ' ' ' ) ) ) ~ E E ~ ' ' ^ a a ! ' ] / a a p r 8 8 u a R R R R ~ ) ) ' ) ' ) ~ E E ~ ' ' ~ E a ! ' '  .",
"u p p u 7 8 y p R u u R R Q E Q Q Q Q R p R E Q ! a a p a ~ ' ' ! p p r 8 7 y a R u u R E Q E Q Q Q Q W R u E Q Q W p p a ! ) _ ",
"P p u e 6 6 7 q 0 0 q q q q q q 0 0 q 7 q q 0 0 q w e y p a ~ / I r r w 8 6 7 w q q q q q q 0 0 0 0 0 0 q q q q 0 q y y u a ~ ( ",
"a u w 7 6 : $ # O @ @ @ @ O O O @ @ O O @ @ @ o O O 5 9 u a E a a u 9 8 6 : $ @ @ @ # @ O O @ @ @ O @ @ O @ @ o O $ 6 9 u p W P ",
"u e 8 6 3 : ;     &   &               &           ; : 7 y a a a u w 6 6 6 : ;                     &       &       & : 7 u p E E ",
"t 8 3 3 3 1 z s s d d d d d d d d d d d d d d s s j , 7 r p a y w 8 3 5 6 1 z s s d d d d d d d d d d d d d d s s j , 7 r a p p ",
"8 3 6 5 6 2 V n n b b b b b n b b b b b b b b n n v 2 7 r a p e 6 3 3 5 6 2 V b n b b b b b b b b b b b b b b n n h 2 7 r p u u ",
"8 3 6 6 $ 2 V n n n n b n b n b n n b n n n n n n v < 7 r u e 8 6 3 3 6 5 2 V n n b n b n n b n b n n b n b n n n v < 7 r u e t ",
"8 4 3 5 6 2 V b b b b b n 3.n 3.3.3.3.n n n n 3.4.c H 7 e e 8 3 3 6 6 5 5 2 l b n b b b n n 3.n n n 5.3.n 3.n 4.4.c H 7 q e 8 8 ",
"4 3 6 5 3 < l b b b b n 6.7.9.i.V.V.i.7.9.0.0.8.8.y.K 6 7 6 6 3 3 6 6 5 6 2 l b b b b n 6.0.0.0.0.w.5.5.y.w.5.5.9.w.J 6 6 8 6 4 ",
"8 3 8 6 6 t V b b b b n 0.d.d.Z.J.J.V.d.s.d.d.f.Z.l.P 3 5 6 8 6 6 6 6 6 6 2 l b n x b 3.0.d.d.d.f.0.4.4.0.0.4.4.0.y.K 3 5 6 4 8 ",
"8 8 6 5 6 2 l b b b b 3.0.d.d.h.B.B.f.d.d.s.d.Z.D.E.P 3 6 6 6 6 8 6 6 6 6 2 l b b b b n 0.f.d.d.f.d.7.7.d.0.0.7.d.r.K 6 6 3 6 4 ",
": $ $ % $ , l b b b b n 0.d.f.d.d.d.d.g.B.h.f.A.@X!.1 : : $ : $ $ $ $ % % , l b b b b n 0.d.d.d.f.d.f.f.f.d.d.f.g.e.1 $ $ 3 : : ",
"+ o O X X ; h b n b b 3.0.d.d.d.d.s.d.B.H.D.Z.A.@XW.> o o + @ o o o o X X ; h b n b b 3.0.d.d.d.d.f.f.f.d.f.f.f.d.L - + o + o + ",
"      & & . c b b x b n 0.d.d.d.d.s.d.A.#X@XA.h.K.m.G = = * = =     * & ; . c b b b x n 0.f.B.B.f.d.d.g.d.d.d.d.g.r.G - - - - - ",
"c g g f f c x b b b b n 0.d.d.d.d.s.d.A.#X@XA.u.6.q.e.e.e.B L N k g g f f c x b b x b 3.0.B.G.G.Z.d.s.f.d.d.d.d.d.i.r.B e.e.e.e.",
"b b b b b n x b x b b n 9.g.g.d.d.d.d.Z.G.G.Z.8.3.4.0.d.f.d.d.w.b n n b b b x b b b b n 7.A.#X#XA.d.d.d.d.d.g.d.d.d.d.d.d.d.d.s.",
"n n n b n b b b b b b n 0.d.d.d.d.d.d.f.B.Z.f.s.0.7.u.f.g.d.g.0.n n n n b b b b b b b n 7.A.%X#XA.s.s.d.d.d.d.d.d.d.d.d.d.d.d.d.",
"n n n 3.n n n n n n n 4.0.g.d.d.g.d.d.d.d.d.d.d.f.f.d.d.d.d.d.u.4.n n n 3.3.3.n n n n 4.u.B.L.L.B.d.d.d.d.d.d.d.d.d.d.d.d.f.h.B.",
"0.7.9.9.0.9.0.9.0.9.9.u.d.d.d.d.d.d.d.d.d.d.d.f.f.f.f.g.d.g.d.d.u.7.7.i.Z.V.i.7.7.0.7.d.d.u.w.w.u.f.f.d.d.d.d.d.d.d.d.s.s.B.D.U.",
"d.f.B.B.h.d.d.d.g.d.d.d.d.d.d.d.d.d.d.d.d.d.d.d.d.d.g.N.g.g.g.g.g.d.d.B.L.^.A.B.h.d.d.g.g.9.4.3.0.f.f.d.d.d.d.f.B.B.d.d.h.D.#X*X",
"f.B.H.H.Z.d.d.d.g.d.d.d.d.d.d.d.d.d.d.d.d.d.g.g.d.g.N.N.N.h.g.d.d.f.d.u.w.c.^.D.Z.d.d.d.d.d.0.7.d.d.f.d.d.s.d.Z.H.S.B.g.D.$X=X:X",
"A.D.$X%XA.d.s.d.d.d.d.d.d.f.B.B.h.d.d.d.d.d.g.g.g.g.N.N.N.N.g.g.d.f.d.7.4.p./.@XS.d.s.d.d.f.f.f.d.g.d.d.g.d.d.A.#X%XD.S.).:X:X,X",
").&X:X@XA.d.d.d.g.g.d.d.d.Z.H.H.Z.s.d.d.d.g.g.N.g.g.g.g.g.g.f.g.d.f.d.0.8.B.#X#XA.d.s.d.d.f.f.f.f.d.d.d.d.s.d.A.@X=X$X@X*X:X:X:X",
">X;XXXK.g.s.d.d.d.g.d.d.s.B.H.J.Z.d.d.d.d.g.N.N.g.g.d.g.g.d.d.d.d.d.d.d.d.h.L.L.B.d.d.d.d.d.d.d.d.d.g.g.g.d.u.g.C.XX;X<X>X*X.X^.",
"-XoXc.6.u.d.f.d.g.g.g.d.d.f.Z.B.h.d.d.d.d.g.g.g.g.d.d.d.d.d.d.g.g.d.d.f.f.u.w.w.u.d.f.d.d.d.d.d.d.d.g.d.g.g.d.0.6.c.oX<X<XXXz.a.",
"^.v.5.4.7.f.f.g.g.d.d.g.d.d.d.d.d.d.d.f.d.d.d.d.d.g.d.d.g.d.d.d.d.d.g.f.g.9.4.3.0.f.f.d.d.d.g.d.g.d.d.d.d.B.A.N.4.5.x././.v.M b ",
"t.5.6.0.d.d.d.g.g.d.g.d.d.d.d.s.d.d.d.d.d.d.d.g.g.g.d.d.d.d.d.d.d.d.d.f.f.d.7.7.d.d.d.g.d.d.g.d.d.d.g.d.d.Z.J.F.g.4.5.a.a.m b x ",
"n 4.u.f.f.g.g.d.d.d.d.d.g.g.g.d.g.g.g.g.g.f.g.g.g.g.g.g.d.g.g.d.d.g.d.d.d.d.f.f.d.d.g.d.g.d.d.d.d.d.d.d.d.B.L.T.S.g.4.n n n n n ",
"7.9.d.h.f.d.d.d.d.d.d.g.g.g.g.f.g.g.N.g.g.g.g.g.N.g.g.g.d.d.d.d.d.d.d.g.g.d.f.f.f.g.g.d.d.d.d.d.d.d.d.d.d.u.w.v.Y.D.g.4.4.7.0.0.",
"d.d.g.g.f.d.d.f.g.d.d.g.g.g.g.g.g.f.N.N.N.g.g.g.g.g.g.d.d.d.g.d.d.g.g.d.g.g.f.f.d.d.f.g.d.d.d.d.d.d.d.f.g.7.3.a./.U.B.d.0.d.u.d."
};
