/* XPM */
static char *result[] = {
/* columns rows colors chars-per-pixel */
"64 64 107 2 ",
"   c #1C8235",
".  c #178239",
"X  c #1B8A39",
"o  c #19903D",
"O  c #239B3E",
"+  c #0E8346",
"@  c #00844F",
"#  c #0C9047",
"$  c #0C994E",
"%  c #149043",
"&  c #1D9441",
"*  c #1D9A46",
"=  c #15994C",
"-  c #1B9B4A",
";  c #008E5C",
":  c #039857",
">  c #0C9952",
",  c #00955E",
"<  c #03995C",
"1  c #149950",
"2  c #219A42",
"3  c #239C51",
"4  c #2F9F53",
"5  c #329F53",
"6  c #11A14C",
"7  c #0DA051",
"8  c #00AD57",
"9  c #008B66",
"0  c #009464",
"q  c #009862",
"w  c #0C9962",
"e  c #00966B",
"r  c #009B6A",
"t  c #008B74",
"y  c #009674",
"u  c #009974",
"i  c #00947D",
"p  c #00A56A",
"a  c #007FA2",
"s  c #007DAE",
"d  c #0073BE",
"f  c #0079BE",
"g  c #0077C0",
"h  c #007BC3",
"j  c #008E85",
"k  c #00868A",
"l  c #009485",
"z  c #00938C",
"x  c #00998C",
"c  c #008F9D",
"v  c #009393",
"b  c #00919B",
"n  c #2B9F81",
"m  c #239F97",
"M  c #008BA3",
"N  c #0085A9",
"B  c #008EAD",
"V  c #0091A3",
"C  c #0090AD",
"Z  c #008DB3",
"A  c #008EBD",
"S  c #0091B5",
"D  c #0098B4",
"F  c #0090BB",
"G  c #00A3AB",
"H  c #00A3B8",
"J  c #29A2BE",
"K  c #46AAAA",
"L  c #0082C7",
"P  c #008DC4",
"I  c #0085CB",
"U  c #008DCE",
"Y  c #0097C4",
"T  c #0091CD",
"R  c #008FD0",
"E  c #0094D2",
"W  c #009AD5",
"Q  c #00A0D7",
"!  c #00A5DA",
"~  c #00ABDC",
"^  c #11A1D7",
"/  c #00B1DF",
"(  c #29A5D6",
")  c #29A5D8",
"_  c #30A7DA",
"`  c #34A9DA",
"'  c #3DAADB",
"]  c #00B2E0",
"[  c #00BAE4",
"{  c #43AEDC",
"}  c #4CAFDD",
"|  c #51B1D1",
" . c #56B3DF",
".. c #58B3DF",
"X. c #59B3E0",
"o. c #7EC1E4",
"O. c #81C2C2",
"+. c #86C5E7",
"@. c #9CCEEB",
"#. c #9DD0EC",
"$. c #A4D3ED",
"%. c #B7DBF0",
"&. c #B9DDF0",
"*. c #C0DFE4",
"=. c #CDE6F5",
"-. c #CFE8F6",
";. c #D0E9F6",
/* pixels */
"U U U U U U U U T R U U U U U U U U U U U U U T R U U U U U U U U U R U U U U U U R U U U U T R U U U U R U U U U U T R U U U U ",
"U U U U U R U U U U U U I U U U U R U U U U U U U U U U U U R U U U U U U U U U T U U U U U U U U U U U U U U U U U U U U U U U ",
"U R U U U U U U U U U U U U U U U U R U R U U U U U R U R U U U U U U U U U U U U U U U U R U U U U U U R U U U U U U U U U U U ",
"U U T U U U U U U E E W W E U I I U U U U U U U U U U I I I I U U U U U U U U E U U R U U U U U U U U U I I U U U R U U U U U R ",
"U U U T U R U U U W ! ~ ] ! E U U U U U U U R R U U U I I U U I U U U U U U U U U U U U U U U U U E U U I U U U U R U U U R U U ",
"U U U U U U U U U E ! ] [ ] ! W W E R U U U U I I R _ X.X.X.X.' E U U U U U U U U U U U U U U U U U U W { ' E U U U U U U T U U ",
"U U R U U U U U U U E ! [ [ ] / / ! E U U U U I I ^ @.=.=.=.=.#.) U I R U U U U U R U U U U R U U U I ' $.$.' U U U U U U U U U ",
"U U U U U U U U U U U E ! ~ / / ] ! E I U U U E _ o.%.=.=.=.=.@.) I U U U U U U T U U U U R T U U I U ' $.$.' I I U U U E R U U ",
"U U U U U U U U U U U U E E W W W E E U U I I ` $.%.+.} { X.X.' E U I U I U U U U U U U R U U U U U U E ' { W U U U U U R R U U ",
"U U U U U R U U U U U U U U U U U U U U R I U { $.$._ I I I I U U U U R W W T U U U U U U U U U U U U U I U U R R U U I L I U U ",
"R U T R U U U U U U U U U U U U U U U U U U U E { ` E I I I I I I U U E ! ~ E U U U U U U U U U U U U U I I U U R U h g g h U U ",
"U U U U U U U U U U U U U U U U U U U U U U U U I I I R R R E W W W W W ! ~ Q W T U U U U U U U U U U U U U U I I L h g g h I U ",
"U U U U U U U U U U U U U U U U U E U U U U U U I I R U U E ! / ] ] / ! W ! ~ ! E U U U U U U U U U U E R I h g g h L I U I U U ",
"U U R T U U U U I I U U U U U U U U U U U U U U R R R I U E ! / ~ ~ ~ ! W Q ! ! E U U U U U U U U U U U R I L g g g I I U I U U ",
"U U U U R U R R U I U U U U U U U U U U U U U U U R U U U R W W W W W ! ~ ! ! E E U U U U U U U R T U U R I I L h I I U U U U U ",
"U U U U U I U E { ` E I I I U U U U U U R U U U U U U U U U U U E W W W ~ ! W U U U U U U U U U U U U U R R I E _ X... . .' E R ",
"R U U U U I U ' $.$._ I I U U U U U U U U U U U U U U U U U I E ! ~ ] ! W E U U U U U U R U U U U U U U R I I ^ #.-.=.=.=.#.) E ",
"U U U U U U U ` $.&.+.} { ' E U U U U U R U U U R R R U U U U E ! ] ] ! E I U U U U U U U U U U U U U U U E _ o.%.=.=.=.-.#.) E ",
"U U U R U U U R _ o.%.=.=.@.) U I U U U U U U U R R E T U U U E E W W E E U U U U U R U U U U U U U U U I ` $.%.+.} { X. .' E R ",
"U U U T U U R I I ^ @.=.=.@.) I U R U U U U U U I L L I U R U U U R U U U U U U U U U I I I U U U U R I I { $.$._ I I I I U U R ",
"U U U R U U U I I E _ X. .' E U U U U U U U R I h g g L I U U U U U U I U U U R U U I U I U U U U U R U U E { ` E I I I I I U U ",
"U U U U U U U R U U U I I U U U U U R U U E U U L g g h I U U U U U U U U U R I I E ) X.X.' E U U R U U U U U U U U R U R U U U ",
"U U U U U U U R U U I I I U U U U U U U U U U U I I I h h h U U E U U U U U U I I ^ @.;.=.@.) R I U U U U U I I I R U U U U U R ",
"U U U U U U U U U U U U U U R U U U U U U U U U R R E U h L I U U U U U R I U E _ o.%.=.=.@.) I U U U U U U U U U U U U U U U U ",
"R U U U R U U U U U U U U U U U U U U U U U U R R R R U I I U U U U U U T I U ` $.&.+.} { ' E U U U U U U U R U U U U U R U U U ",
"U U U T U T U U U U U R U U U U E U E U U U U T U U U U R U U U U U U U R U I { $.$.` I I R I R U U U U U U U U U U U U U U U U ",
"U U U R U U U R R T U U U U U U U U U U U U U U U U U U U R E U U U U U U U U E ' ` E I h I I R U U R U U U U U R U U U U U U U ",
"U U U U U U U U U U U U R R R U U I I I U U U U U U U U U U U U U U R U U U R U I I I U R R R R U T U U U U U U U U U U U E U U ",
"U U U U U U U U U U U U U E E I h g g L U U R U U U R U U U U U U U U U U U U U U L R R U U U U R U U U U U U U U U U U U U U U ",
"U U U U U U U U U R T U I L L L g f g h I U U U R T U U U U U U U U U U U U U R E W E W W E R U U U I U U U U U U R U U U U U U ",
"U U U U U R U U U U E I h f g g L I I I U U U U U U U U U T R U U U U U U U U E ! ] / / / ! E U U U U U U U T U U U U U R T U U ",
"E U U U U T U U U U I I I L P U W E E U U U U U U U U U U U U U U U U U U U U E ! / / / / ~ W W E W W E E U R U U U U U U U U U ",
"R U U U U U U R T I L L W ! ! ~ / ~ E R I U U U U U U U U U U U U U E U U U U E E W W W W W ~ / ~ / / ! E U U U U U U U U U U T ",
"U U U U U U U R T L h I W / [ ] / ~ W W W E E U R U U U U U R U U R U U U U U U U U U I U E ! ] ] / ] ! E U U U U U U U U U U U ",
"U U U U U U U T U U I U W W W W W W ~ / ] ! E R U U U U U U U U U U U U U U U U U U U U U U E W W W W W E U U U U U U U U U U U ",
"U U R T U U U U U U U U U U U U R E ! ] ] ! E I U U R T U U U U U U U U U U U U U U U U U U U U U U U U R U U U U U U U U U U R ",
"U U T R U U U U U U U T U U U I U R E W W E E U U U U U U R U U U U U U U U U U U U U U U U U U U I U U U U U U U R U U U U T R ",
"U U U U U U U U U U U U U U U U R U R I I I R U U U U U U U U U U U U R U U U U U U U U U U U E U U U U U U U U U T U U U U U U ",
"U U U U U U U U U U U R U U U U U U U I I I U R U U U U U U U U U U U T U U U U U U U U U U U U R T U U U U U U U U U U R U U U ",
"R U U U E U U U U U U U U R T U R U U W { ` R I I I I U U U U U U U U U U U R U U U U U U U U I I I U R R R U U U U U U U U U U ",
"U U U U U R U U U U U U R U U U U I I { $.$._ I I I I U U R R U R U U U U U U U U U U U U U h g f L I R R U U U U U U U U U U T ",
"U U U U U U U U U U U U U U U R R I U _ $.%.+.} { X.X.' E I I R U U U U U U U U U E U E U U h g f h I U I U U R E R U U U U U R ",
"U U U U R T U U U U U U U U U U R U I E _ o.%.=.=.=.=.@.) U I R U U T R R U U U U U U U U U I I I L h g g h U U R U U U U U U U ",
"U U T R U U U U U R U U U U U U U U R I I ^ @.;.-.-.=.@.) U I R U U U U U U U U U U U U U U U R U U L g g h I I I I U U U U U U ",
"U U U U U U U U U U U U U U U U U U R I I R _ X.X.X.X.' E U U U U U T U U U R U U U U U U U U E R U I I L L h g g L U R E U U U ",
"U U U U U U U I U U U U U U U U U U U U R U I h h L R R U U U E U U U U U R T U U U U R U U U U U U U E E I h h g h I U U U U U ",
"U U U U R U I U U R U U U E U U U U U R R I h g d g L U E U T U R U U U U U U U U U U U U U E U U U U R E U I I I I U U T U U R ",
"U U U U U E ' ' E I L I U U R U U U R R R I h g g h L I I I I I U U U U U U U U U U T U U U U U U U U U U U U R T U R U U U U U ",
"U R U U I { $.$._ I I I U U U U R U U T U U I I I L h g g h g h U U E U U U U U U U U U U R U U U U U U E U U R U R U U U U U U ",
"U U U I U _ $.%.+.} { ' E U U U U U U U U U U R E I L h g f h L I R U U U U U U U U U U U I U U U R U U U U U U U U U R U U U U ",
"R U U U U E _ o.%.=.=.@.) U I R U U U U U U R E R U I I I I I I U U U U U U U U U U U U U U R U R U U U U U U T U U U U U U E U ",
"U U U U U I I ^ @.;.=.@.) I U U U U U U U U U U U U T U R U U R U U U U U U U U U U U R E W W E E U U U U U U U U U T U U U U U ",
"U U U U U U I E ) X.X.' E U U U U U U U U U T U U U T U E U T R U U U U U U U U I U U E ! ] ] ! E U U T U U T U U U U U U U U U ",
"U U U U U U U U U U I R R R U U U U T R U U R U R U U U U U U U U U U U U U E W W W W W ~ ] / ! E U I U U U I I I I I U U U U U ",
"U U U U U U U U I I I I U U U U U U U F S C F P U A C M V V V C P P U I U E ! / / / ~ ~ W W W Y S Z P U U U U I U I U I U U U U ",
"U U U R U U U T T I P I L U U U R P A C b b C F F C b l z v v b C F F T E Q ~ / / ] ] ! E P A Z V V S A P T '  .X.X. .' E U U U ",
"U U U U U U F F S Z N s g h I U F C b i e e u l z l t 9 0 q q e i l b D ! ~ Q W E W W E T Z b l i y l c M J @.=.=.=.=.@.) U U I ",
"T U U U U F V b v l j k c a c c b x u : - 2 $ < 0 ; @ + # - - = > < e x G H D A A A A Z C z y q > > q e i m O.*.=.=.=.@.( I U U ",
"S F U U F v y r p p q < 0 9 9 0 q < 1 * * * * * - % .   o * * * * - 1 < r u l z b c b l y q > - * * - 1 : w n K | X.X.' Y A P I ",
"v b A F b u 1 7 8 8 6 2 2 * * * * * * * * * * * * & X X & 2 * * * * * * * * : r y y e , = * * * * * * * * * : y b Z Z B b b V V ",
"r 0 i i e $ * - 6 6 - * * * * * * * * * * * * - * * & 2 * * * * * * * * * * * = 1 > 1 - * * * * * * * * * * * : e y i i i e e y ",
"* * 2 2 & * * * * * * * * * * * * * * * * * * * * * * - * * * * * * * * * * * * * - * * * * * * * * * * * * * * * * = 1 > * * - ",
"* * O O 2 * 2 2 * 2 2 * * * * * * * * 2 * * 2 * * - * * * * * * * * * * * * * * * * * * * * * * * * * * * * * & * * - * * - * * ",
": = 3 * 1 1 1 1 1 1 1 1 1 1 1 $ 1 3 4 5 3 1 1 1 1 1 $ 1 1 1 1 1 1 1 1 1 1 1 1 = = 1 = = 1 1 1 1 1 1 1 = 1 = 1 1 1 1 = 1 = = = : "
};
